<svg id="SvgjsSvg1001" width="288" height="288" xmlns="http://www.w3.org/2000/svg" version="1.1" xmlns:xlink="http://www.w3.org/1999/xlink" xmlns:svgjs="http://svgjs.com/svgjs"><defs id="SvgjsDefs1002"></defs><g id="SvgjsG1008"><svg xmlns="http://www.w3.org/2000/svg" width="288" height="288" fill="none" viewBox="0 0 24 24"><mask id="a" width="24" height="24" x="0" y="0" maskUnits="userSpaceOnUse"><path fill="#ffffff" fill-rule="evenodd" d="M5.52691 2.24995L5.46154 2.24993C5.07852 2.24973 4.7763 2.24956 4.47845 2.31609C3.39448 2.55822 2.48427 3.56155 2.34855 4.66392C2.31132 4.96632 2.33679 5.22618 2.36848 5.54942L2.37306 5.5962C2.6306 8.23587 3.29005 10.6115 4.32976 12.6808C5.87438 15.755 8.24492 18.1255 11.3191 19.6701C13.3883 20.7098 15.764 21.3693 18.4037 21.6268L18.4505 21.6314L18.4505 21.6314C18.7737 21.6631 19.0336 21.6886 19.336 21.6513C20.4383 21.5156 21.4417 20.6054 21.6838 19.5214C21.7503 19.2236 21.7501 18.9214 21.7499 18.5383L21.7499 18.473L21.7499 18.4128C21.7501 18.0806 21.7502 17.8223 21.7081 17.5836C21.5494 16.6842 20.9545 15.9222 20.1204 15.5501C19.899 15.4514 19.6484 15.3888 19.3261 15.3084L19.3261 15.3084L19.2677 15.2938L17.6132 14.8802L17.5771 14.8712L17.577 14.8712C17.0168 14.7311 16.5413 14.6122 16.1384 14.555C15.7095 14.4941 15.2998 14.4924 14.8792 14.6293C14.4587 14.7662 14.1285 15.0088 13.8177 15.3105C13.5257 15.5939 13.2113 15.97 12.8409 16.4131L12.817 16.4417L11.4691 18.0539C9.10973 16.7506 7.24925 14.8901 5.94594 12.5308L7.55817 11.1829L7.58678 11.159C8.02987 10.7885 8.40593 10.4742 8.68934 10.1822C8.99105 9.87133 9.23371 9.54116 9.37061 9.12064C9.50752 8.70012 9.50576 8.29037 9.44488 7.86148C9.3877 7.45861 9.26881 6.9831 9.12872 6.42283L9.12872 6.42282L9.11967 6.38663L8.70605 4.73216L8.69147 4.67375L8.69146 4.67374C8.61105 4.35148 8.54851 4.10084 8.44975 3.87949C8.07763 3.04542 7.31569 2.45052 6.41628 2.2918C6.17758 2.24968 5.91925 2.24979 5.58711 2.24994L5.52691 2.24995Z" clip-rule="evenodd" class="color22282F svgShape"></path></mask><g mask="url(#a)" fill="#ffffff" class="color000 svgShape"><rect width="33" height="28" x="-5" y="-4" fill="#407ef8" class="color31A05F svgShape"></rect></g></svg></g></svg>