<svg width="25" height="25" viewBox="0 0 25 25" fill="none" xmlns="http://www.w3.org/2000/svg">
<g clip-path="url(#clip0_790_3348)">
<g clip-path="url(#clip1_790_3348)">
<path d="M5.63907 22.8865C4.55129 22.8865 3.48794 22.5639 2.58349 21.9596C1.67903 21.3552 0.974094 20.4963 0.557819 19.4913C0.141543 18.4863 0.0326266 17.3805 0.244842 16.3136C0.457057 15.2467 0.980873 14.2668 1.75005 13.4976C2.51923 12.7284 3.49922 12.2046 4.5661 11.9924C5.63297 11.7802 6.73882 11.8891 7.7438 12.3054C8.74878 12.7216 9.60775 13.4266 10.2121 14.331C10.8164 15.2355 11.139 16.2988 11.139 17.3866C11.1372 18.8447 10.5572 20.2426 9.52613 21.2736C8.49509 22.3047 7.0972 22.8847 5.63907 22.8865ZM5.63907 13.3851C4.84798 13.3851 4.07465 13.6197 3.41687 14.0592C2.7591 14.4987 2.24643 15.1234 1.94369 15.8542C1.64095 16.5851 1.56174 17.3893 1.71607 18.1652C1.87041 18.9411 2.25136 19.6538 2.81075 20.2132C3.37014 20.7726 4.08284 21.1535 4.85874 21.3079C5.63464 21.4622 6.43888 21.383 7.16976 21.0803C7.90063 20.7775 8.52533 20.2649 8.96484 19.6071C9.40435 18.9493 9.63894 18.176 9.63894 17.3849C9.63341 16.3258 9.21023 15.3116 8.4613 14.5627C7.71238 13.8138 6.6982 13.3906 5.63907 13.3851Z" fill="#407EF8"/>
<path d="M10.3892 18.1365C10.1903 18.1365 9.9995 18.0575 9.85884 17.9168C9.71818 17.7762 9.63916 17.5854 9.63916 17.3865V6.38674C9.63916 6.18782 9.71818 5.99705 9.85884 5.8564C9.9995 5.71574 10.1903 5.63672 10.3892 5.63672C10.5881 5.63672 10.7789 5.71574 10.9195 5.8564C11.0602 5.99705 11.1392 6.18782 11.1392 6.38674V17.3865C11.1392 17.485 11.1198 17.5825 11.0821 17.6735C11.0444 17.7645 10.9892 17.8472 10.9195 17.9168C10.8499 17.9865 10.7672 18.0417 10.6762 18.0794C10.5852 18.1171 10.4877 18.1365 10.3892 18.1365Z" fill="#407EF8"/>
<path d="M1.19202 16.4637C1.10183 16.4639 1.01235 16.4476 0.927993 16.4157C0.835786 16.3811 0.751311 16.3286 0.679392 16.2613C0.607472 16.194 0.549518 16.1131 0.508837 16.0234C0.468157 15.9337 0.445548 15.8369 0.442302 15.7384C0.439056 15.64 0.455235 15.5418 0.489917 15.4496L4.35777 5.15365C4.42779 4.96755 4.56887 4.8169 4.74997 4.73482C4.83965 4.69418 4.93645 4.6716 5.03485 4.66837C5.13325 4.66514 5.23132 4.68133 5.32347 4.716C5.41561 4.75067 5.50003 4.80315 5.57189 4.87045C5.64375 4.93774 5.70166 5.01853 5.7423 5.1082C5.78294 5.19788 5.80552 5.29468 5.80875 5.39307C5.81198 5.49147 5.79579 5.58955 5.76112 5.68169L1.89327 15.9777C1.83957 16.1205 1.74359 16.2435 1.61814 16.3303C1.49269 16.4172 1.34374 16.4637 1.19118 16.4637H1.19202Z" fill="#407EF8"/>
<path d="M10.3892 7.13672C10.1902 7.13672 9.99947 7.0577 9.85881 6.91704C9.71815 6.77639 9.63913 6.58562 9.63913 6.3867C9.639 5.91907 9.4749 5.46629 9.17539 5.10716C8.87588 4.74803 8.45992 4.50529 7.99992 4.42119C7.53991 4.33709 7.06497 4.41695 6.65777 4.64687C6.25056 4.8768 5.93687 5.24223 5.77129 5.67956C5.74883 5.72799 5.73 5.77801 5.71495 5.82923C5.66533 6.0219 5.54121 6.18697 5.36988 6.28813C5.19856 6.38929 4.99406 6.41824 4.80139 6.36862C4.60871 6.319 4.44363 6.19488 4.34248 6.02355C4.24132 5.85223 4.21237 5.64773 4.26199 5.45506C4.29265 5.34192 4.33085 5.23096 4.37634 5.12293C4.67044 4.36078 5.22197 3.72558 5.93531 3.32744C6.64865 2.9293 7.47883 2.79333 8.28191 2.9431C9.08499 3.09287 9.81035 3.51894 10.3322 4.14744C10.8541 4.77595 11.1396 5.56725 11.1392 6.38418C11.1392 6.5831 11.0602 6.77387 10.9195 6.91452C10.7789 7.05518 10.5881 7.1342 10.3892 7.1342V7.13672Z" fill="#407EF8"/>
<path d="M13.8892 7.13629C13.6903 7.13629 13.4995 7.05727 13.3588 6.91661C13.2182 6.77595 13.1392 6.58518 13.1392 6.38626C13.1383 5.56675 13.4252 4.77294 13.9499 4.14337C14.4745 3.51379 15.2036 3.08842 16.0098 2.94147C16.816 2.79451 17.6483 2.93531 18.3613 3.3393C19.0744 3.74329 19.6229 4.38481 19.9112 5.15192L19.9953 5.39913C20.0315 5.49297 20.0484 5.59312 20.045 5.69362C20.0417 5.79413 20.0182 5.89293 19.9759 5.98416C19.9336 6.07539 19.8734 6.15718 19.7988 6.22467C19.7243 6.29216 19.6369 6.34397 19.5419 6.37702C19.4469 6.41007 19.3463 6.42368 19.246 6.41705C19.1456 6.41041 19.0476 6.38367 18.9578 6.33841C18.868 6.29315 18.7883 6.23029 18.7233 6.15358C18.6582 6.07686 18.6093 5.98786 18.5794 5.89186L18.4953 5.66147C18.3266 5.22671 18.0112 4.86463 17.6036 4.63793C17.1961 4.41122 16.7221 4.33416 16.2637 4.42008C15.8054 4.50601 15.3915 4.74951 15.0937 5.10842C14.796 5.46734 14.6331 5.91908 14.6333 6.38542C14.6333 6.58434 14.5543 6.77511 14.4137 6.91577C14.273 7.05643 14.0822 7.13544 13.8833 7.13544L13.8892 7.13629Z" fill="#407EF8"/>
<path d="M13.8892 18.1365C13.6903 18.1365 13.4995 18.0575 13.3588 17.9168C13.2182 17.7762 13.1392 17.5854 13.1392 17.3865V6.38674C13.1392 6.18782 13.2182 5.99705 13.3588 5.8564C13.4995 5.71574 13.6903 5.63672 13.8892 5.63672C14.0881 5.63672 14.2789 5.71574 14.4195 5.8564C14.5602 5.99705 14.6392 6.18782 14.6392 6.38674V17.3865C14.6392 17.485 14.6198 17.5825 14.5821 17.6735C14.5444 17.7645 14.4892 17.8472 14.4195 17.9168C14.3499 17.9865 14.2672 18.0417 14.1762 18.0794C14.0852 18.1171 13.9877 18.1365 13.8892 18.1365Z" fill="#407EF8"/>
<path d="M23.0857 16.465C22.9331 16.4652 22.7841 16.4187 22.6587 16.3318C22.5332 16.245 22.4372 16.1219 22.3836 15.979L18.5158 5.68306C18.4458 5.49685 18.4526 5.29046 18.5347 5.10927C18.6169 4.92809 18.7676 4.78697 18.9539 4.71695C19.1401 4.64692 19.3465 4.65374 19.5276 4.73589C19.7088 4.81805 19.85 4.96881 19.92 5.15502L23.7878 15.451C23.8576 15.6372 23.8507 15.8435 23.7686 16.0246C23.6865 16.2058 23.5358 16.3469 23.3497 16.4171C23.2654 16.449 23.1759 16.4652 23.0857 16.465Z" fill="#407EF8"/>
<path d="M18.6392 22.8866C17.5507 22.8871 16.4865 22.5648 15.5813 21.9604C14.676 21.3559 13.9704 20.4966 13.5536 19.4911C13.1368 18.4855 13.0277 17.379 13.2399 16.3114C13.4521 15.2438 13.9762 14.2631 14.7459 13.4934C15.5156 12.7238 16.4962 12.1997 17.5638 11.9874C18.6315 11.7752 19.738 11.8844 20.7436 12.3012C21.7491 12.7179 22.6084 13.4236 23.2129 14.3288C23.8173 15.2341 24.1396 16.2983 24.1391 17.3868C24.1374 18.8449 23.5573 20.2427 22.5263 21.2738C21.4952 22.3048 20.0973 22.8848 18.6392 22.8866ZM18.6392 13.3852C17.7875 13.3858 16.9583 13.6585 16.2723 14.1634C15.5864 14.6683 15.0797 15.3791 14.8261 16.1922C14.5724 17.0053 14.5851 17.8781 14.8623 18.6834C15.1395 19.4888 15.6667 20.1845 16.367 20.6693C17.0673 21.154 17.9042 21.4024 18.7555 21.3783C19.6069 21.3541 20.4283 21.0586 21.1 20.5349C21.7717 20.0112 22.2585 19.2866 22.4895 18.4668C22.7206 17.647 22.6837 16.7749 22.3843 15.9775C22.0971 15.2164 21.5849 14.5608 20.9159 14.098C20.2469 13.6352 19.4527 13.3872 18.6392 13.3869V13.3852Z" fill="#407EF8"/>
<path d="M13.8892 16.8858H10.3897C10.1908 16.8858 9.99998 16.8068 9.85933 16.6661C9.71867 16.5254 9.63965 16.3347 9.63965 16.1358C9.63965 15.9368 9.71867 15.7461 9.85933 15.6054C9.99998 15.4648 10.1908 15.3857 10.3897 15.3857H13.8892C14.0882 15.3857 14.2789 15.4648 14.4196 15.6054C14.5602 15.7461 14.6393 15.9368 14.6393 16.1358C14.6393 16.3347 14.5602 16.5254 14.4196 16.6661C14.2789 16.8068 14.0882 16.8858 13.8892 16.8858Z" fill="#407EF8"/>
<path d="M13.8892 12.3858H10.3897C10.1908 12.3858 9.99998 12.3068 9.85933 12.1661C9.71867 12.0254 9.63965 11.8347 9.63965 11.6358C9.63965 11.4368 9.71867 11.2461 9.85933 11.1054C9.99998 10.9648 10.1908 10.8857 10.3897 10.8857H13.8892C14.0882 10.8857 14.2789 10.9648 14.4196 11.1054C14.5602 11.2461 14.6393 11.4368 14.6393 11.6358C14.6393 11.8347 14.5602 12.0254 14.4196 12.1661C14.2789 12.3068 14.0882 12.3858 13.8892 12.3858Z" fill="#407EF8"/>
</g>
</g>
<defs>
<clipPath id="clip0_790_3348">
<rect width="24" height="24" fill="white" transform="translate(0.13916 0.886719)"/>
</clipPath>
<clipPath id="clip1_790_3348">
<rect width="24" height="20" fill="white" transform="translate(0.13916 2.88672)"/>
</clipPath>
</defs>
</svg>
