<svg width="32" height="25" viewBox="0 0 32 25" fill="none" xmlns="http://www.w3.org/2000/svg">
<g clip-path="url(#clip0_790_2309)">
<path d="M23.5615 17.1706C22.9971 15.9272 20.9801 14.2011 19.0327 12.5331C17.9458 11.6038 16.9181 10.7251 16.2631 10.0325C16.1829 9.94742 16.0813 9.8883 15.9704 9.86204C15.8595 9.83578 15.7439 9.84346 15.6369 9.88419C15.2337 10.0389 14.9846 10.1605 14.7878 10.2526C14.5385 10.3897 14.2645 10.4691 13.9839 10.4856C13.8966 10.4951 13.8124 10.5248 13.7371 10.5725C13.6618 10.6203 13.5974 10.6849 13.5485 10.7619C12.7019 12.1002 11.8249 11.9869 11.2396 11.7751C11.0524 11.7097 11.0193 11.624 11.001 11.543C10.8756 10.9904 11.5061 9.6926 12.3239 8.82774C14.2696 6.76827 15.2729 6.2488 17.3927 7.25458C19.7973 8.39208 22.2063 9.28089 22.2307 9.29103C22.305 9.31836 22.3838 9.32995 22.4623 9.32511C22.5409 9.32028 22.6178 9.29913 22.6886 9.26287C22.7595 9.2266 22.8229 9.17594 22.8752 9.11376C22.9276 9.05159 22.9678 8.97912 22.9936 8.9005C23.0195 8.82188 23.0304 8.73865 23.0259 8.65555C23.0213 8.57246 23.0013 8.49113 22.967 8.41621C22.9327 8.34128 22.8848 8.27424 22.826 8.21889C22.7672 8.16355 22.6987 8.121 22.6244 8.09366C22.6 8.08445 20.2389 7.21222 17.8822 6.09683C15.1362 4.79907 13.6303 5.6538 11.4783 7.93064C10.6596 8.79642 9.54657 10.5492 9.83397 11.835C9.89466 12.1044 10.0218 12.352 10.2025 12.5524C10.3832 12.7529 10.611 12.8991 10.8625 12.9762C11.4985 13.2125 12.1912 13.2151 12.8287 12.9837C13.4662 12.7522 14.0113 12.3001 14.3758 11.7005C14.6888 11.6505 14.9924 11.5489 15.2755 11.3993C15.3879 11.3459 15.5194 11.2842 15.6944 11.2096C16.379 11.8893 17.3039 12.6833 18.2776 13.5122C20.0377 15.0181 22.0339 16.7248 22.4833 17.7131C22.5668 17.8675 22.5952 18.0484 22.5632 18.223C22.5313 18.3977 22.4411 18.5543 22.3091 18.6646C22.2154 18.7664 22.0946 18.8356 21.9628 18.8629C21.831 18.8902 21.6945 18.8744 21.5714 18.8174C21.4771 18.7484 21.3661 18.7095 21.2514 18.7053C21.1368 18.7012 21.0235 18.7319 20.9249 18.7939C20.8264 18.8559 20.7468 18.9466 20.6955 19.0551C20.6443 19.1636 20.6237 19.2854 20.636 19.406C20.6361 19.5599 20.5924 19.7102 20.5105 19.8373C20.4287 19.9645 20.3125 20.0626 20.1771 20.1189C20.0377 20.2105 19.8777 20.2609 19.7137 20.2649C19.5496 20.269 19.3876 20.2265 19.2443 20.1419C19.1625 20.0609 19.0609 20.0057 18.9509 19.9828C18.841 19.9598 18.7271 19.97 18.6224 20.0122C18.5176 20.0543 18.4262 20.1267 18.3584 20.2211C18.2907 20.3156 18.2494 20.4282 18.2393 20.5463C18.2144 20.76 18.1357 20.9627 18.0115 21.1333C17.8872 21.3039 17.722 21.4361 17.5329 21.5161C17.4206 21.5706 17.2956 21.589 17.1734 21.569C17.0513 21.549 16.9374 21.4916 16.8458 21.4038C16.7726 21.3344 16.6846 21.2848 16.5894 21.2591C16.4942 21.2335 16.3945 21.2325 16.2988 21.2564C16.2031 21.281 16.1145 21.3303 16.0411 21.3999C15.9677 21.4695 15.9118 21.5572 15.8782 21.6552C15.8555 21.7188 15.8042 21.8707 15.2433 21.8707C14.7227 21.8139 14.2211 21.6325 13.7766 21.3402C13.356 21.0473 10.7206 18.9685 8.44398 16.9523C8.12435 16.6677 7.57306 16.0571 7.08273 15.5173C6.64726 15.0384 6.25273 14.6046 6.04893 14.4222C5.92693 14.3206 5.7724 14.2731 5.61792 14.2897C5.46343 14.3062 5.32105 14.3855 5.22078 14.5109C5.12051 14.6363 5.07018 14.7979 5.0804 14.9618C5.09062 15.1257 5.16058 15.2789 5.27555 15.3893C5.46106 15.5551 5.82075 15.9567 6.21702 16.3932C6.7509 16.9836 7.30306 17.5906 7.67408 17.9231C9.90364 19.8978 12.5835 22.0292 13.1174 22.3994C13.7578 22.8265 14.4881 23.0796 15.2433 23.1362C15.7295 23.1697 16.2111 23.0199 16.6028 22.7135C17.0421 22.8903 17.5283 22.885 17.964 22.6988C18.5078 22.4707 18.952 22.037 19.2103 21.4821C19.7215 21.5865 20.2511 21.5057 20.7136 21.2527C21.1637 21.0264 21.5196 20.6331 21.7134 20.1474C22.2175 20.1676 22.7095 19.9812 23.0868 19.6271C23.4169 19.3347 23.6436 18.9326 23.7298 18.4865C23.816 18.0404 23.7567 17.5765 23.5615 17.1706Z" fill="#8C8C8C"/>
<path d="M12.8436 6.67773H7.45521C7.2964 6.67773 7.14411 6.74445 7.03182 6.86321C6.91953 6.98196 6.85645 7.14302 6.85645 7.31096C6.85645 7.4789 6.91953 7.63997 7.03182 7.75872C7.14411 7.87747 7.2964 7.94418 7.45521 7.94418H12.8436C13.0024 7.94418 13.1547 7.87747 13.267 7.75872C13.3793 7.63997 13.4424 7.4789 13.4424 7.31096C13.4424 7.14302 13.3793 6.98196 13.267 6.86321C13.1547 6.74445 13.0024 6.67773 12.8436 6.67773Z" fill="#8C8C8C"/>
<path d="M25.3149 15.8224C25.2712 15.7533 25.2149 15.6939 25.1494 15.6478C25.084 15.6017 25.0105 15.5698 24.9333 15.5538C24.8561 15.5378 24.7767 15.5381 24.6996 15.5546C24.6225 15.5711 24.5493 15.6036 24.4841 15.6502L22.7335 16.8936C22.6088 16.9903 22.5243 17.1343 22.4977 17.2954C22.4711 17.4565 22.5044 17.6223 22.5907 17.758C22.677 17.8938 22.8095 17.989 22.9606 18.0237C23.1117 18.0585 23.2697 18.0301 23.4015 17.9445L25.1521 16.7011C25.2837 16.6073 25.3748 16.4621 25.4053 16.2974C25.4359 16.1326 25.4034 15.9618 25.3149 15.8224Z" fill="#8C8C8C"/>
<path d="M21.5981 18.8428C21.1696 18.4855 19.2518 16.4103 18.0665 15.1034C18.013 15.0395 17.9479 14.9877 17.875 14.951C17.8022 14.9144 17.7231 14.8937 17.6425 14.8902C17.5619 14.8867 17.4814 14.9004 17.406 14.9306C17.3305 14.9607 17.2616 15.0067 17.2033 15.0657C17.145 15.1247 17.0986 15.1955 17.0669 15.2739C17.0352 15.3524 17.0187 15.4368 17.0186 15.5221C17.0184 15.6074 17.0345 15.6919 17.066 15.7705C17.0975 15.849 17.1436 15.92 17.2016 15.9793C17.5091 16.3182 20.2237 19.3107 20.8552 19.8376C20.9606 19.9255 21.091 19.9731 21.2253 19.9729C21.3161 19.9723 21.4056 19.9502 21.4872 19.9083C21.5689 19.8664 21.6407 19.8057 21.6974 19.7307C21.7954 19.599 21.84 19.4315 21.8214 19.2651C21.8028 19.0986 21.7224 18.9467 21.5981 18.8428Z" fill="#8C8C8C"/>
<path d="M19.2065 20.1125C18.4889 19.5055 16.6869 17.481 16.2802 17.0122C16.172 16.8914 16.0232 16.8206 15.866 16.8148C15.7087 16.8091 15.5557 16.869 15.4398 16.9816C15.324 17.0942 15.2547 17.2504 15.2468 17.4166C15.239 17.5827 15.2933 17.7455 15.398 17.8697C15.4197 17.8937 17.57 20.3492 18.4584 21.1017C18.5829 21.2002 18.7388 21.2436 18.8931 21.2227C19.0474 21.2019 19.188 21.1184 19.2851 20.9899C19.3822 20.8615 19.4283 20.6981 19.4137 20.5344C19.399 20.3706 19.3247 20.2193 19.2065 20.1125Z" fill="#8C8C8C"/>
<path d="M16.8228 21.3877C15.9693 20.6269 14.2222 18.6595 13.8808 18.2736C13.7711 18.1565 13.6225 18.0892 13.4667 18.0861C13.3109 18.0829 13.16 18.144 13.0461 18.2566C12.9322 18.3691 12.8642 18.5242 12.8567 18.6888C12.8491 18.8535 12.9025 19.0148 13.0055 19.1385C13.4967 19.6911 15.168 21.5691 16.0537 22.3566C16.1752 22.465 16.3324 22.5178 16.4908 22.5035C16.6491 22.4893 16.7957 22.4091 16.8981 22.2806C17.0005 22.1521 17.0505 21.9859 17.0371 21.8184C17.0236 21.6509 16.9477 21.496 16.8262 21.3877H16.8228Z" fill="#8C8C8C"/>
<path d="M7.86703 5.58418C6.84108 4.55628 2.73729 4.22286 1.50406 4.14181C1.42217 4.1365 1.34013 4.14906 1.26302 4.17871C1.18592 4.20836 1.1154 4.25446 1.05586 4.31415C0.996311 4.37384 0.94901 4.44584 0.916892 4.52568C0.884775 4.60552 0.868527 4.69149 0.869158 4.77826V16.1753C0.869158 16.3432 0.932168 16.5043 1.04435 16.6231C1.15653 16.7419 1.30872 16.8088 1.46748 16.809H5.06005C5.18627 16.809 5.30925 16.7667 5.4114 16.6883C5.51354 16.6099 5.58962 16.4993 5.62876 16.3724C5.71585 16.0887 7.77907 9.3918 8.0508 6.09904C8.059 6.00411 8.04672 5.90845 8.01489 5.81927C7.98306 5.73008 7.9325 5.6497 7.86703 5.58418ZM4.62284 15.5426H2.06668V5.45615C3.68246 5.53061 5.28164 5.83261 6.82193 6.35417C6.29666 9.46843 5.56177 12.539 4.62284 15.5426Z" fill="#8C8C8C"/>
<path d="M29.0102 5.41072C26.4779 5.31625 23.9539 5.7675 21.5917 6.73703C21.515 6.77494 21.4468 6.82971 21.3917 6.89769C21.3366 6.96566 21.2958 7.04528 21.2721 7.13124C21.2485 7.21703 21.2422 7.30711 21.2536 7.39564C21.265 7.48418 21.2938 7.56919 21.3382 7.64518C22.0785 8.90518 24.3952 15.9033 24.8411 17.61C24.8766 17.7429 24.9523 17.8598 25.0566 17.943C25.1608 18.0261 25.2879 18.0709 25.4185 18.0705H29.0111C29.1697 18.0703 29.3218 18.0036 29.4339 17.8849C29.5461 17.7663 29.6092 17.6055 29.6094 17.4378V6.04348C29.6094 5.9603 29.5939 5.87795 29.5638 5.80112C29.5337 5.72429 29.4895 5.65449 29.4339 5.59572C29.3782 5.53695 29.3121 5.49036 29.2394 5.45862C29.1668 5.42687 29.0889 5.4106 29.0102 5.41072ZM28.4119 16.8087H25.8662C25.2983 14.8533 23.6218 9.75531 22.6873 7.64795C24.5398 7.02724 26.4696 6.70282 28.4128 6.68545L28.4119 16.8087Z" fill="#8C8C8C"/>
</g>
<defs>
<clipPath id="clip0_790_2309">
<rect width="31.6804" height="24" fill="white" transform="translate(0.209961 0.886719)"/>
</clipPath>
</defs>
</svg>
