<svg width="25" height="25" viewBox="0 0 25 25" fill="none" xmlns="http://www.w3.org/2000/svg">
<g clip-path="url(#clip0_790_2904)">
<g clip-path="url(#clip1_790_2904)">
<path d="M5.55314 22.488C4.46536 22.488 3.40201 22.1655 2.49755 21.5611C1.59309 20.9568 0.888156 20.0978 0.471881 19.0929C0.0556057 18.0879 -0.0533109 16.982 0.158904 15.9152C0.37112 14.8483 0.894936 13.8683 1.66411 13.0992C2.43329 12.33 3.41328 11.8062 4.48016 11.594C5.54704 11.3817 6.65289 11.4907 7.65786 11.9069C8.66284 12.3232 9.52181 13.0281 10.1261 13.9326C10.7305 14.837 11.0531 15.9004 11.0531 16.9882C11.0513 18.4463 10.4712 19.8441 9.4402 20.8752C8.40915 21.9062 7.01126 22.4862 5.55314 22.488ZM5.55314 12.9866C4.76204 12.9866 3.98871 13.2212 3.33093 13.6607C2.67316 14.1002 2.16049 14.7249 1.85775 15.4558C1.55501 16.1867 1.4758 16.9909 1.63013 17.7668C1.78447 18.5427 2.16542 19.2554 2.72481 19.8148C3.2842 20.3742 3.99691 20.7551 4.7728 20.9094C5.5487 21.0638 6.35294 20.9846 7.08382 20.6818C7.8147 20.3791 8.43939 19.8664 8.8789 19.2087C9.31841 18.5509 9.553 17.7776 9.553 16.9865C9.54747 15.9274 9.12429 14.9132 8.37536 14.1643C7.62644 13.4154 6.61226 12.9922 5.55314 12.9866Z" fill="#8C8C8C"/>
<path d="M10.3032 17.7381C10.1043 17.7381 9.91356 17.659 9.7729 17.5184C9.63224 17.3777 9.55322 17.187 9.55322 16.988V5.9883C9.55322 5.78939 9.63224 5.59861 9.7729 5.45796C9.91356 5.3173 10.1043 5.23828 10.3032 5.23828C10.5022 5.23828 10.6929 5.3173 10.8336 5.45796C10.9743 5.59861 11.0533 5.78939 11.0533 5.9883V16.988C11.0533 17.0865 11.0339 17.1841 10.9962 17.2751C10.9585 17.3661 10.9032 17.4487 10.8336 17.5184C10.7639 17.588 10.6813 17.6433 10.5903 17.681C10.4993 17.7187 10.4017 17.7381 10.3032 17.7381Z" fill="#8C8C8C"/>
<path d="M1.10608 16.0652C1.01589 16.0654 0.926417 16.0492 0.842056 16.0173C0.749849 15.9826 0.665374 15.9301 0.593454 15.8628C0.521535 15.7955 0.46358 15.7147 0.4229 15.625C0.38222 15.5353 0.359611 15.4384 0.356364 15.34C0.353118 15.2415 0.369298 15.1434 0.40398 15.0512L4.27183 4.75521C4.34185 4.56912 4.48293 4.41846 4.66404 4.33638C4.75371 4.29575 4.85051 4.27316 4.94891 4.26993C5.04731 4.2667 5.14538 4.28289 5.23753 4.31756C5.32968 4.35223 5.41409 4.40471 5.48595 4.47201C5.55782 4.5393 5.61572 4.62009 5.65636 4.70977C5.697 4.79944 5.71958 4.89624 5.72281 4.99464C5.72604 5.09304 5.70986 5.19111 5.67519 5.28325L1.80734 15.5792C1.75363 15.722 1.65765 15.8451 1.5322 15.9319C1.40675 16.0187 1.25781 16.0652 1.10524 16.0652H1.10608Z" fill="#8C8C8C"/>
<path d="M10.3032 6.73828C10.1043 6.73828 9.91353 6.65926 9.77287 6.51861C9.63222 6.37795 9.5532 6.18718 9.5532 5.98826C9.55306 5.52063 9.38897 5.06785 9.08946 4.70872C8.78995 4.34959 8.37399 4.10686 7.91398 4.02275C7.45397 3.93865 6.97903 4.01851 6.57183 4.24844C6.16462 4.47836 5.85093 4.84379 5.68535 5.28112C5.66289 5.32955 5.64406 5.37958 5.62901 5.43079C5.57939 5.62347 5.45527 5.78854 5.28395 5.88969C5.11262 5.99085 4.90812 6.0198 4.71545 5.97018C4.52277 5.92057 4.3577 5.79644 4.25654 5.62511C4.15538 5.45379 4.12643 5.2493 4.17605 5.05662C4.20671 4.94348 4.24491 4.83253 4.2904 4.72449C4.58451 3.96235 5.13604 3.32714 5.84938 2.929C6.56272 2.53086 7.39289 2.39489 8.19597 2.54466C8.99905 2.69443 9.72441 3.1205 10.2463 3.74901C10.7682 4.37751 11.0536 5.16882 11.0533 5.98574C11.0533 6.18466 10.9742 6.37543 10.8336 6.51608C10.6929 6.65674 10.5021 6.73576 10.3032 6.73576V6.73828Z" fill="#8C8C8C"/>
<path d="M13.8032 6.73785C13.6043 6.73785 13.4136 6.65883 13.2729 6.51817C13.1322 6.37752 13.0532 6.18674 13.0532 5.98783C13.0524 5.16831 13.3393 4.37451 13.8639 3.74493C14.3886 3.11536 15.1176 2.68998 15.9239 2.54303C16.7301 2.39608 17.5624 2.53688 18.2754 2.94086C18.9884 3.34485 19.537 3.98637 19.8253 4.75349L19.9094 5.00069C19.9455 5.09453 19.9625 5.19468 19.9591 5.29519C19.9558 5.39569 19.9322 5.49449 19.8899 5.58572C19.8476 5.67695 19.7874 5.75874 19.7129 5.82623C19.6383 5.89372 19.551 5.94553 19.456 5.97858C19.361 6.01163 19.2604 6.02524 19.16 6.01861C19.0597 6.01198 18.9617 5.98523 18.8719 5.93997C18.7821 5.89471 18.7023 5.83186 18.6373 5.75514C18.5723 5.67843 18.5234 5.58942 18.4934 5.49342L18.4093 5.26303C18.2406 4.82827 17.9252 4.4662 17.5177 4.23949C17.1101 4.01278 16.6362 3.93572 16.1778 4.02165C15.7194 4.10757 15.3055 4.35107 15.0078 4.70999C14.71 5.0689 14.5472 5.52064 14.5474 5.98699C14.5474 6.1859 14.4684 6.37668 14.3277 6.51733C14.1871 6.65799 13.9963 6.73701 13.7974 6.73701L13.8032 6.73785Z" fill="#8C8C8C"/>
<path d="M13.8032 17.7381C13.6043 17.7381 13.4136 17.659 13.2729 17.5184C13.1322 17.3777 13.0532 17.187 13.0532 16.988V5.9883C13.0532 5.78939 13.1322 5.59861 13.2729 5.45796C13.4136 5.3173 13.6043 5.23828 13.8032 5.23828C14.0022 5.23828 14.1929 5.3173 14.3336 5.45796C14.4743 5.59861 14.5533 5.78939 14.5533 5.9883V16.988C14.5533 17.0865 14.5339 17.1841 14.4962 17.2751C14.4585 17.3661 14.4032 17.4487 14.3336 17.5184C14.2639 17.588 14.1813 17.6433 14.0903 17.681C13.9993 17.7187 13.9017 17.7381 13.8032 17.7381Z" fill="#8C8C8C"/>
<path d="M22.9998 16.0666C22.8472 16.0667 22.6982 16.0203 22.5727 15.9334C22.4473 15.8466 22.3513 15.7235 22.2977 15.5806L18.4298 5.28462C18.3598 5.09842 18.3666 4.89202 18.4488 4.71084C18.5309 4.52966 18.6817 4.38853 18.8679 4.31851C19.0541 4.24849 19.2605 4.2553 19.4417 4.33746C19.6229 4.41961 19.764 4.57038 19.8341 4.75658L23.7019 15.0526C23.7717 15.2388 23.7648 15.4451 23.6827 15.6262C23.6005 15.8073 23.4499 15.9485 23.2638 16.0187C23.1794 16.0506 23.09 16.0668 22.9998 16.0666Z" fill="#8C8C8C"/>
<path d="M18.5533 22.4882C17.4648 22.4887 16.4006 22.1663 15.4953 21.5619C14.5901 20.9575 13.8844 20.0982 13.4677 19.0926C13.0509 18.0871 12.9417 16.9805 13.1539 15.913C13.3662 14.8454 13.8903 13.8647 14.66 13.095C15.4297 12.3253 16.4103 11.8012 17.4779 11.589C18.5455 11.3768 19.6521 11.486 20.6576 11.9027C21.6632 12.3195 22.5225 13.0252 23.1269 13.9304C23.7313 14.8357 24.0537 15.8998 24.0532 16.9883C24.0514 18.4464 23.4714 19.8443 22.4404 20.8753C21.4093 21.9064 20.0114 22.4864 18.5533 22.4882ZM18.5533 12.9868C17.7016 12.9874 16.8723 13.26 16.1864 13.7649C15.5005 14.2699 14.9938 14.9807 14.7401 15.7937C14.4865 16.6068 14.4992 17.4797 14.7764 18.285C15.0536 19.0903 15.5807 19.7861 16.2811 20.2708C16.9814 20.7556 17.8182 21.004 18.6696 20.9798C19.521 20.9556 20.3424 20.6601 21.0141 20.1364C21.6857 19.6127 22.1726 18.8882 22.4036 18.0684C22.6346 17.2486 22.5978 16.3765 22.2984 15.5791C22.0112 14.818 21.499 14.1623 20.83 13.6996C20.1609 13.2368 19.3668 12.9887 18.5533 12.9885V12.9868Z" fill="#8C8C8C"/>
<path d="M13.8033 16.4873H10.3037C10.1048 16.4873 9.91405 16.4083 9.77339 16.2677C9.63273 16.127 9.55371 15.9362 9.55371 15.7373C9.55371 15.5384 9.63273 15.3476 9.77339 15.207C9.91405 15.0663 10.1048 14.9873 10.3037 14.9873H13.8033C14.0022 14.9873 14.193 15.0663 14.3336 15.207C14.4743 15.3476 14.5533 15.5384 14.5533 15.7373C14.5533 15.9362 14.4743 16.127 14.3336 16.2677C14.193 16.4083 14.0022 16.4873 13.8033 16.4873Z" fill="#8C8C8C"/>
<path d="M13.8033 11.9873H10.3037C10.1048 11.9873 9.91405 11.9083 9.77339 11.7677C9.63273 11.627 9.55371 11.4362 9.55371 11.2373C9.55371 11.0384 9.63273 10.8476 9.77339 10.707C9.91405 10.5663 10.1048 10.4873 10.3037 10.4873H13.8033C14.0022 10.4873 14.193 10.5663 14.3336 10.707C14.4743 10.8476 14.5533 11.0384 14.5533 11.2373C14.5533 11.4362 14.4743 11.627 14.3336 11.7677C14.193 11.9083 14.0022 11.9873 13.8033 11.9873Z" fill="#8C8C8C"/>
</g>
</g>
<defs>
<clipPath id="clip0_790_2904">
<rect width="24" height="24" fill="white" transform="translate(0.0532227 0.488281)"/>
</clipPath>
<clipPath id="clip1_790_2904">
<rect width="24" height="20" fill="white" transform="translate(0.0532227 2.48828)"/>
</clipPath>
</defs>
</svg>
