<svg width="25" height="25" viewBox="0 0 25 25" fill="none" xmlns="http://www.w3.org/2000/svg">
<g clip-path="url(#clip0_790_2304)">
<path d="M15.4075 8.19304V6.69174L17.3434 2.84666C17.3941 2.7455 17.418 2.63316 17.4128 2.52028C17.4075 2.40741 17.3734 2.29772 17.3135 2.20161C17.2537 2.10549 17.1702 2.02613 17.0708 1.97103C16.9715 1.91593 16.8596 1.88691 16.7459 1.88672H14.0709C13.9831 1.88666 13.8961 1.90379 13.8149 1.93712C13.7338 1.97046 13.66 2.01935 13.5979 2.081L12.7335 2.93939L11.8682 2.081C11.8061 2.01935 11.7323 1.97046 11.6512 1.93712C11.57 1.90379 11.483 1.88666 11.3952 1.88672H7.3819C7.26792 1.88668 7.15583 1.91558 7.05626 1.97067C6.95668 2.02575 6.87294 2.1052 6.81298 2.20146C6.75302 2.29773 6.71882 2.40762 6.71365 2.52069C6.70848 2.63377 6.7325 2.74628 6.78342 2.84755L8.71935 6.69263V8.19392C5.74388 10.3673 3.36865 14.744 3.36865 18.1457C3.36865 23.1415 7.78919 23.1415 12.063 23.1415C16.3368 23.1415 20.7573 23.1415 20.7573 18.1457C20.7582 14.7422 18.3866 10.3646 15.4075 8.19304ZM10.0568 7.20042H14.0701V7.86452H10.0568V7.20042ZM11.1177 3.21139L12.2595 4.34531C12.3216 4.40704 12.3954 4.45602 12.4766 4.48943C12.5577 4.52285 12.6447 4.54005 12.7326 4.54005C12.8205 4.54005 12.9075 4.52285 12.9887 4.48943C13.0698 4.45602 13.1436 4.40704 13.2057 4.34531L14.3475 3.21139H15.6636L14.3297 5.8678H9.80603L8.47214 3.21139H11.1177ZM12.0639 21.8089C6.83589 21.8089 4.707 21.4768 4.707 18.1413C4.707 15.454 6.66338 11.2645 9.59795 9.18919H14.5298C17.4644 11.2645 19.4208 15.454 19.4208 18.1413C19.4208 21.4804 17.2919 21.8124 12.0639 21.8124V21.8089Z" fill="#407EF8"/>
</g>
<defs>
<clipPath id="clip0_790_2304">
<rect width="17.3896" height="21.2539" fill="white" transform="translate(3.36963 1.88672)"/>
</clipPath>
</defs>
</svg>
