<svg width="25" height="25" viewBox="0 0 25 25" fill="none" xmlns="http://www.w3.org/2000/svg">
<g clip-path="url(#clip0_790_2919)">
<path d="M15.4314 7.7946V6.2933L17.3674 2.44823C17.418 2.34706 17.4419 2.23472 17.4367 2.12185C17.4315 2.00897 17.3973 1.89928 17.3375 1.80317C17.2776 1.70706 17.1941 1.62769 17.0948 1.57259C16.9954 1.51749 16.8836 1.48847 16.7698 1.48828H14.0949C14.007 1.48822 13.92 1.50535 13.8389 1.53869C13.7577 1.57202 13.6839 1.62091 13.6218 1.68257L12.7574 2.54095L11.8922 1.68257C11.83 1.62091 11.7563 1.57202 11.6751 1.53869C11.5939 1.50535 11.5069 1.48822 11.4191 1.48828H7.40583C7.29185 1.48825 7.17976 1.51714 7.08018 1.57223C6.98061 1.62731 6.89686 1.70676 6.8369 1.80303C6.77694 1.89929 6.74275 2.00918 6.73758 2.12226C6.73241 2.23533 6.75642 2.34784 6.80735 2.44911L8.74328 6.29419V7.79548C5.7678 9.96883 3.39258 14.3455 3.39258 17.7473C3.39258 22.7431 7.81312 22.7431 12.0869 22.7431C16.3607 22.7431 20.7812 22.7431 20.7812 17.7473C20.7821 14.3438 18.4105 9.96618 15.4314 7.7946ZM10.0807 6.80198H14.094V7.46608H10.0807V6.80198ZM11.1416 2.81295L12.2834 3.94687C12.3455 4.00861 12.4193 4.05758 12.5005 4.091C12.5817 4.12441 12.6687 4.14161 12.7565 4.14161C12.8444 4.14161 12.9314 4.12441 13.0126 4.091C13.0938 4.05758 13.1675 4.00861 13.2296 3.94687L14.3714 2.81295H15.6875L14.3537 5.46936H9.82996L8.49606 2.81295H11.1416ZM12.0878 21.4104C6.85982 21.4104 4.73093 21.0784 4.73093 17.7429C4.73093 15.0556 6.68731 10.8661 9.62188 8.79075H14.5537C17.4883 10.8661 19.4447 15.0556 19.4447 17.7429C19.4447 21.0819 17.3158 21.414 12.0878 21.414V21.4104Z" fill="#8C8C8C"/>
</g>
<defs>
<clipPath id="clip0_790_2919">
<rect width="17.3896" height="21.2539" fill="white" transform="translate(3.39355 1.48828)"/>
</clipPath>
</defs>
</svg>
