<svg width="20" height="20" viewBox="0 0 20 20" fill="none" xmlns="http://www.w3.org/2000/svg">
<path d="M16.5751 19.109C16.5001 19.109 16.4251 19.109 16.3418 19.1007C13.6501 18.809 11.0334 17.8757 8.7751 16.409C6.6751 15.0757 4.85844 13.259 3.5251 11.159C2.05844 8.89232 1.1251 6.26732 0.841771 3.57565C0.808437 3.21732 0.850104 2.87565 0.958437 2.54232C1.06677 2.20898 1.2501 1.90898 1.48344 1.65065C1.71677 1.39232 2.0001 1.19232 2.31677 1.05065C2.64177 0.908984 2.98344 0.833984 3.33344 0.833984H5.83344C6.41677 0.833984 7.01677 1.04232 7.48344 1.44232C7.94177 1.83398 8.24177 2.38398 8.3251 2.98398C8.4251 3.72565 8.60844 4.45898 8.86677 5.15065C9.03344 5.60065 9.07511 6.08398 8.96677 6.55065C8.86677 7.01732 8.63344 7.45065 8.3001 7.78398L7.7001 8.38398C8.68344 9.91732 9.98344 11.2257 11.5251 12.209L12.1251 11.609C12.4668 11.2673 12.9001 11.034 13.3668 10.9423C13.8334 10.8423 14.3168 10.8757 14.7668 11.0423C15.4584 11.3007 16.1918 11.484 16.9251 11.584C17.5418 11.6673 18.0918 11.9757 18.4918 12.4423C18.8834 12.909 19.1001 13.5007 19.0834 14.109V16.6007C19.0834 16.9507 19.0168 17.284 18.8751 17.609C18.7334 17.9256 18.5251 18.2173 18.2751 18.4507C18.0168 18.684 17.7168 18.8673 17.3834 18.9757C17.1168 19.0673 16.8501 19.109 16.5751 19.109ZM5.8501 2.50065H5.84177H3.33344C3.21677 2.50065 3.10844 2.52565 3.0001 2.57565C2.89177 2.61732 2.79177 2.68398 2.71677 2.76732C2.63344 2.85065 2.5751 2.95065 2.54177 3.06732C2.50844 3.17565 2.49177 3.29232 2.5001 3.40898C2.75844 5.83398 3.6001 8.20065 4.9251 10.259C6.13344 12.159 7.7751 13.8007 9.6751 15.009C11.7251 16.3423 14.0918 17.1757 16.5084 17.4423C16.6084 17.4507 16.7251 17.434 16.8334 17.4006C16.9418 17.3673 17.0418 17.3007 17.1334 17.2257C17.2251 17.1507 17.2918 17.0507 17.3334 16.9423C17.3834 16.834 17.4001 16.7173 17.4001 16.6007V14.1007C17.4001 14.0923 17.4001 14.084 17.4001 14.084C17.4084 13.8757 17.3334 13.684 17.2001 13.5257C17.0668 13.3673 16.8834 13.2673 16.6834 13.2423C15.8334 13.134 14.9834 12.9173 14.1668 12.6173C14.0168 12.559 13.8501 12.5507 13.7001 12.584C13.5418 12.6173 13.4001 12.6923 13.2834 12.809L12.2334 13.8673C11.9668 14.134 11.5584 14.184 11.2334 14.0007C9.01677 12.7423 7.18344 10.9007 5.91677 8.69232C5.74177 8.34232 5.79177 7.93398 6.05844 7.66732L7.11677 6.60898C7.2251 6.50065 7.3001 6.35898 7.33344 6.20065C7.36677 6.04232 7.35844 5.88398 7.3001 5.73398C6.99177 4.91732 6.78344 4.06732 6.66677 3.20898C6.64177 3.01732 6.54177 2.83398 6.39177 2.70065C6.24177 2.57565 6.0501 2.50065 5.8501 2.50065Z" fill="#407EF8"/>
</svg>
