<svg xmlns="http://www.w3.org/2000/svg" width="218.229" height="220" viewBox="0 0 218.229 220">
  <g id="Group_31825" data-name="Group 31825" transform="translate(-418.271 -1946)">
    <g id="Group_30946" data-name="Group 30946" transform="translate(417.411 1946)">
      <path id="Path_29549" data-name="Path 29549" d="M111.407,58.675v4.567a45.833,45.833,0,0,1,44.355,45.826,45.373,45.373,0,0,1-4.722,20.2l3.639,1.858a47.878,47.878,0,0,0,5.263-22.371A50.057,50.057,0,0,0,111.407,58.675Z" fill="#31a05f"/>
      <path id="Path_29550" data-name="Path 29550" d="M218.85,101.327A109.1,109.1,0,0,0,112.569,0l14.785,28.486a5.719,5.719,0,0,1-.233,5.573L113.73,54.727a54.51,54.51,0,0,1,44.277,80.35L171.166,158.3a.852.852,0,0,0,.775.465l35.065.077v.232C215.444,141.269,220.243,120.988,218.85,101.327Z" fill="#31a05f"/>
      <path id="Path_29551" data-name="Path 29551" d="M84.779,152.262a50.2,50.2,0,0,0,67.732-17.03l-3.561-1.858a45.816,45.816,0,0,1-76.014,2.632l-3.406,2.245c-.077.077-.155.077-.232.154A47.856,47.856,0,0,0,84.779,152.262Z" fill="#7fa995"/>
      <path id="Path_29552" data-name="Path 29552" d="M171.863,163.331a5.561,5.561,0,0,1-4.8-2.787L155.22,139.567a54.627,54.627,0,0,1-90.877-.465h-3.87l-22.6.155a.852.852,0,0,0-.774.464l-16.72,29.957-.387.619-.31-.154H19.6l-.077.154a103.875,103.875,0,0,0,42.652,37,109.158,109.158,0,0,0,142.353-43.813Z" fill="#7fa995"/>
      <path id="Path_29553" data-name="Path 29553" d="M70.3,132.058A45.776,45.776,0,0,1,106.763,63.4V58.752A47.25,47.25,0,0,0,84.7,65.41a50.143,50.143,0,0,0-18.036,69.047C66.9,134.38,70.149,132.213,70.3,132.058Z" fill="#e76f51"/>
      <path id="Path_29554" data-name="Path 29554" d="M55.442,109.068a54.491,54.491,0,0,1,52.792-54.5l14.94-23.145a1.1,1.1,0,0,0,.077-.852L107.382,0l-5.109.155a103.615,103.615,0,0,0-53.411,18.5A109.1,109.1,0,0,0,17.047,166.2l16.1-28.8a5.561,5.561,0,0,1,4.8-2.787l23.764-.154A53.843,53.843,0,0,1,55.442,109.068Z" fill="#e76f51"/>
      <path id="Path_29555" data-name="Path 29555" d="M19.6,170.22l.155-.077-.31-.155C19.524,170.065,19.524,170.143,19.6,170.22Z" fill="#7de314"/>
      <path id="Path_29556" data-name="Path 29556" d="M81.531,103.21c4.032,0,5.943-2.016,5.943-4.368,0-5.4-8.715-3.36-8.715-6.489,0-1.113.924-1.995,3.192-1.995A8.169,8.169,0,0,1,86,91.513l.861-2.121a9.294,9.294,0,0,0-4.893-1.3c-4.032,0-5.922,2.016-5.922,4.389,0,5.46,8.736,3.381,8.736,6.552,0,1.092-.966,1.911-3.255,1.911a8.145,8.145,0,0,1-4.851-1.617l-.945,2.121A9.472,9.472,0,0,0,81.531,103.21ZM98.392,103h3.192L96.46,96.49l4.683-4.7h-3.15l-5.439,5.04V87.418H89.929V103h2.625v-2.961l1.953-1.848Zm12.915-11.214v5.67c0,2.247-1.239,3.381-3.066,3.381-1.659,0-2.625-.966-2.625-3V91.786h-2.625v6.4c0,3.381,1.953,4.956,4.83,4.956a4.581,4.581,0,0,0,3.612-1.575V103h2.5V91.786Zm14.419-4.368v5.754a4.592,4.592,0,0,0-3.612-1.512,5.744,5.744,0,0,0,0,11.487,4.624,4.624,0,0,0,3.717-1.6V103h2.52V87.418Zm-3.3,13.482a3.511,3.511,0,1,1,3.339-3.507A3.277,3.277,0,0,1,122.429,100.9Zm17.588-9.114v5.67c0,2.247-1.239,3.381-3.066,3.381-1.659,0-2.625-.966-2.625-3V91.786H131.7v6.4c0,3.381,1.953,4.956,4.83,4.956a4.581,4.581,0,0,0,3.612-1.575V103h2.5V91.786ZM93.06,125l-.021-14.7H90.792l-5.733,9.744L79.221,110.3H76.974V125h2.6v-9.618l4.83,7.938h1.218l4.83-8.064L90.477,125Zm8-11.34a7.885,7.885,0,0,0-4.746,1.386l1.029,1.911a5.552,5.552,0,0,1,3.4-1.113c1.869,0,2.793.9,2.793,2.436v.168h-2.9c-3.4,0-4.662,1.47-4.662,3.339,0,1.953,1.617,3.36,4.179,3.36a3.974,3.974,0,0,0,3.528-1.512V125h2.478v-6.573C106.166,115.193,104.3,113.66,101.063,113.66Zm-.357,9.576c-1.344,0-2.142-.609-2.142-1.554,0-.819.483-1.491,2.268-1.491h2.709v1.3A2.858,2.858,0,0,1,100.706,123.236Zm14.835-.714a2.36,2.36,0,0,1-1.47.462c-1.009,0-1.554-.588-1.554-1.68V115.97h3v-2.1h-3v-2.562h-2.625v2.562h-1.848v2.1h1.848v5.4c0,2.478,1.407,3.78,3.864,3.78a4.125,4.125,0,0,0,2.52-.756Zm7.67,2.625A5.1,5.1,0,0,0,128,122.522l-2.016-1.176a3.173,3.173,0,0,1-2.793,1.554,3.509,3.509,0,0,1,0-7.014,3.173,3.173,0,0,1,2.793,1.554L128,116.264a5.046,5.046,0,0,0-4.788-2.6c-3.549,0-6.069,2.373-6.069,5.733S119.662,125.147,123.211,125.147Zm13.317-11.487a5,5,0,0,0-3.738,1.428v-5.67h-2.625V125h2.625v-5.67c0-2.247,1.26-3.381,3.129-3.381,1.68,0,2.667.966,2.667,2.961V125h2.625v-6.426C141.211,115.193,139.216,113.66,136.528,113.66Z" fill="#31a05f"/>
      <path id="Path_29557" data-name="Path 29557" d="M121.57,186.74v-3.633a.847.847,0,0,0-.624-.816l-4.286-1.169a.874.874,0,0,0-.222-.03H114.38v-2.785l.722-.722-.6-.6-.846.846a.439.439,0,0,0-.092.138.429.429,0,0,0-.032.162v2.961h-.846v-1.521a.85.85,0,0,0-.248-.6l-1.269-1.269h.248a.423.423,0,0,0,.423-.423v-.608a.845.845,0,0,0-.377-.7l-.974-.649a.848.848,0,0,0-.467-.151h-5.369a.847.847,0,0,0-.846.846v1.269a.425.425,0,0,0,.032.162.413.413,0,0,0,.092.137.408.408,0,0,0,.137.092.426.426,0,0,0,.162.032h.846v3.384h-2.3a1.272,1.272,0,0,0-.653.181l-1.5.9a1.276,1.276,0,0,0-.615,1.088v1.309a5.918,5.918,0,1,0,10.01,5.4h5.237a4.23,4.23,0,1,0,6.323-3.234Zm-.846-1.841H119.63l-.6-.6v-.248h1.693Zm-4.286-2.961,4.286,1.169v.1h-1.692a.847.847,0,0,0-.846.846v.248a.848.848,0,0,0,.248.6l.6.6a.848.848,0,0,0,.6.248h1.094v.618a4.22,4.22,0,0,0-2.886.128l-.921-.921a.857.857,0,0,0-.6-.248h-.668v-.675a.85.85,0,0,0-.248-.6l-.6-.6a.852.852,0,0,0-.423-.228v-1.285Zm-5.267-1.267h.671v2.663l-1.539-1.8Zm1.517,3.384h1.517l.6.6v2.785h-2.117Zm.846-2.115v1.269h-.846v-1.271Zm-8.881-5.923h5.37l.974.649v.2h-6.344Zm1.269,1.692h4.054l1.866,1.862v.248h-.671a.857.857,0,0,0-.6.248l-.211.211-.459-.459.547-.547-.6-.6-1.689,1.7.6.6.547-.547.459.459-.058.058a.849.849,0,0,0-.044,1.149l1.684,1.965h-1.194v.846h1.692v.846h-2.492c-.014-.025-.03-.049-.045-.074V183.66a1.268,1.268,0,0,0-.565-1.056l-1.948-1.3a1.272,1.272,0,0,0-.7-.213h-.167Zm-4.869,5.191,1.5-.9a.427.427,0,0,1,.217-.06h3.316a.424.424,0,0,1,.235.071l1.948,1.3a.426.426,0,0,1,.188.352v.91a5.9,5.9,0,0,0-7.613-.716v-.59a.428.428,0,0,1,.209-.367Zm3.176,10.881a5.074,5.074,0,1,1,3.589-1.486A5.068,5.068,0,0,1,104.229,193.781Zm5.9-4.652c.01-.14.021-.28.021-.423a5.891,5.891,0,0,0-.4-2.115h2.089v.846a.847.847,0,0,0,.846.846H114.8a.847.847,0,0,0,.846-.846v-1.266h.671l.744.744a4.25,4.25,0,0,0-1.643,2.216Zm9.324,4.652a3.384,3.384,0,1,1,2.393-.991A3.382,3.382,0,0,1,119.453,193.781Z" fill="#fff"/>
      <path id="Path_29558" data-name="Path 29558" d="M104.229,189.128a.423.423,0,1,0-.423-.423A.423.423,0,0,0,104.229,189.128Z" fill="#fff"/>
      <path id="Path_29559" data-name="Path 29559" d="M104.23,185.322a3.385,3.385,0,1,0,2.393.992A3.385,3.385,0,0,0,104.23,185.322Zm0,5.921a2.537,2.537,0,1,1,1.795-.743A2.535,2.535,0,0,1,104.23,191.243Z" fill="#fff"/>
      <path id="Path_29560" data-name="Path 29560" d="M119.456,188.282a2.115,2.115,0,1,0,1.5.62A2.112,2.112,0,0,0,119.456,188.282Zm0,3.384a1.268,1.268,0,1,1,.9-.371A1.272,1.272,0,0,1,119.456,191.666Z" fill="#fff"/>
      <path id="Path_29561" data-name="Path 29561" d="M119.455,190.82a.423.423,0,1,0-.423-.423A.423.423,0,0,0,119.455,190.82Z" fill="#fff"/>
      <path id="Path_29562" data-name="Path 29562" d="M33.208,72.157a.377.377,0,1,0,.111.267A.377.377,0,0,0,33.208,72.157Z" fill="#fff"/>
      <path id="Path_29563" data-name="Path 29563" d="M47.709,61.9a.376.376,0,1,0,.111.267A.376.376,0,0,0,47.709,61.9Z" fill="#fff"/>
      <path id="Path_29564" data-name="Path 29564" d="M49.193,55.11a.377.377,0,0,0-.262-.11H39.654a.377.377,0,0,0-.377.377v1.079l-3.575.958a.377.377,0,0,0-.267.462l1.858,6.914-1.6,1.6a1.131,1.131,0,0,0-.934-.494H31.131A1.133,1.133,0,0,0,30,67.03v6.147a1.133,1.133,0,0,0,1.131,1.131h3.62a1.133,1.133,0,0,0,1.1-.859l.448.391a1.9,1.9,0,0,0,1.249.468H48.931a.377.377,0,0,0,.377-.377V55.377a.377.377,0,0,0-.115-.267ZM35.129,73.177a.378.378,0,0,1-.377.377H31.131a.378.378,0,0,1-.377-.377V67.03a.378.378,0,0,1,.377-.377h1.433V71a.377.377,0,1,0,.754,0V66.653h1.434a.378.378,0,0,1,.377.377Zm1.133-15.132,3.015-.808v1.4l-.253.063a.377.377,0,0,0-.267.462,1.017,1.017,0,0,1-.718,1.244.377.377,0,0,0-.266.463l1.47,5.443h-.757l-.393-1.525a.378.378,0,0,0-.063-.132Zm3.015,2.319v3.182L38.593,61A1.767,1.767,0,0,0,39.277,60.364Zm5.416,13.19H37.547a1.146,1.146,0,0,1-.753-.282l-.911-.794V67.262l1.646-1.646.3,1.168a.377.377,0,0,0,.365.284h7.414a.528.528,0,1,1,0,1.056h-3.8a.377.377,0,1,0,0,.754h4.979a.528.528,0,1,1,0,1.056H41.808a.377.377,0,1,0,0,.754h4.173a.528.528,0,1,1,0,1.056H41.808a.377.377,0,1,0,0,.754h2.885a.528.528,0,1,1,0,1.056Zm3.859,0H45.863a1.278,1.278,0,0,0,0-1.056h.118a1.281,1.281,0,0,0,1.146-1.856,1.281,1.281,0,0,0,.69-2V63.863a.377.377,0,1,0-.754,0v4.291a1.284,1.284,0,0,0-.275-.03h-.012a1.281,1.281,0,0,0-1.168-1.81H45a1.8,1.8,0,1,0-1.418,0H41.522V59.143a1.775,1.775,0,0,0,1.352-1.352h2.837a1.775,1.775,0,0,0,1.352,1.352v1.173a.377.377,0,1,0,.754,0v-1.51a.377.377,0,0,0-.377-.377,1.017,1.017,0,0,1-1.015-1.015.377.377,0,0,0-.377-.377h-3.51a.377.377,0,0,0-.377.377,1.017,1.017,0,0,1-1.015,1.015.377.377,0,0,0-.377.377v7.507h-.737V55.755h8.523ZM44.293,65.7a1.052,1.052,0,1,1,.741-.307A1.051,1.051,0,0,1,44.293,65.7Z" fill="#fff"/>
      <path id="Path_29565" data-name="Path 29565" d="M183.466,74.652a.387.387,0,0,0-.387.387v4.87a.387.387,0,0,0,.773,0v-4.87a.387.387,0,0,0-.386-.387Z" fill="#fff"/>
      <path id="Path_29566" data-name="Path 29566" d="M186.558,74.652a.386.386,0,0,0-.387.387v4.87a.387.387,0,0,0,.773,0v-4.87a.387.387,0,0,0-.386-.387Z" fill="#fff"/>
      <path id="Path_29567" data-name="Path 29567" d="M189.649,74.652a.387.387,0,0,0-.387.387v4.87a.387.387,0,0,0,.773,0v-4.87a.387.387,0,0,0-.386-.387Z" fill="#fff"/>
      <path id="Path_29568" data-name="Path 29568" d="M192.741,74.652a.386.386,0,0,0-.387.387v4.87a.387.387,0,0,0,.773,0v-4.87a.387.387,0,0,0-.386-.387Z" fill="#fff"/>
      <path id="Path_29569" data-name="Path 29569" d="M195.238,81.685l1.546-8.431a.381.381,0,0,0-.008-.168.371.371,0,0,0-.078-.149.378.378,0,0,0-.134-.1.382.382,0,0,0-.164-.035h-1.7V69.474a.386.386,0,0,0-.387-.387h-7.031v-1.7A.388.388,0,0,0,186.9,67h-4.024a.387.387,0,0,0-.386.387V72.8h-2.052l-.582-3.392a.387.387,0,0,0-.381-.321h-2.087a.388.388,0,0,0-.274.113.391.391,0,0,0-.114.274V71.02a.384.384,0,0,0,.113.274.39.39,0,0,0,.274.113h2.028l1.76,10.241v.5a2.167,2.167,0,0,0,1.947,2.152,1.623,1.623,0,1,0,2.757.011h4.662a1.621,1.621,0,0,0-.035,1.643,1.623,1.623,0,0,0,3.04-.826,1.636,1.636,0,0,0-.241-.817h1.553a.387.387,0,0,0,0-.773H183.34a1.393,1.393,0,0,1-1.392-1.392V82h12.91a.386.386,0,0,0,.247-.089A.391.391,0,0,0,195.238,81.685ZM177.774,70.633V69.86h1.375l.133.773Zm14.149,13.683a.851.851,0,1,1-.6.249A.85.85,0,0,1,191.923,84.316Zm-7.426,0a.851.851,0,1,1-.6.248.865.865,0,0,1,.277-.184.848.848,0,0,1,.326-.064Zm2.79-12.91h3.358a.387.387,0,0,0,0-.773h-3.358V69.86h6.643V72.8h-6.643Zm-4.024-3.633h3.246V72.8h-3.246Zm11.273,13.455H181.888l-1.317-7.658H195.94Z" fill="#fff"/>
      <path id="Path_29570" data-name="Path 29570" d="M192.894,70.746a.385.385,0,1,0,.113.273A.393.393,0,0,0,192.894,70.746Z" fill="#fff"/>
    </g>
    <text id="Product_" data-name="Product
" transform="translate(606 2045)" fill="#fff" font-size="9" font-family="Montserrat-Regular, Montserrat"><tspan x="-18.162" y="0">Product</tspan><tspan x="0" y="11"></tspan></text>
    <text id="Sellers_" data-name="Sellers
" transform="translate(527 2153)" fill="#fff" font-size="9" font-family="Montserrat-Regular, Montserrat"><tspan x="-14.611" y="0">Sellers</tspan><tspan x="0" y="11"></tspan></text>
    <text id="Buyers_" data-name="Buyers
" transform="translate(455 2034)" fill="#fff" font-size="9" font-family="Montserrat-Regular, Montserrat"><tspan x="-15.498" y="0">Buyers</tspan><tspan x="0" y="11"></tspan></text>
  </g>
</svg>
