<svg width="64" height="64" viewBox="0 0 64 64" fill="none" xmlns="http://www.w3.org/2000/svg">
<mask id="mask0" mask-type="alpha" maskUnits="userSpaceOnUse" x="0" y="0" width="64" height="64">
<rect width="64" height="64" fill="#C4C4C4"/>
</mask>
<g mask="url(#mask0)">
<path d="M37.0874 14.4153L37.1435 14.465C37.1317 14.465 37.1144 14.465 37.1079 14.465C37.0983 14.4497 37.0914 14.4329 37.0874 14.4153V14.4153Z" fill="#FEFEFE"/>
<path d="M37.0872 14.4153L36.9688 14.3252L37.0054 14.2885L37.0872 14.4153Z" fill="#FEFEFE"/>
<path d="M8.70377 3.16585C10.2245 1.61155 12.1205 1.00576 14.2418 1.00472C22.6711 0.998428 31.1004 0.998428 39.5298 1.00472C41.5934 1.00996 43.4454 1.59373 44.9567 3.06104C45.5635 3.79469 46.0677 4.57761 46.1777 5.53974C46.2469 6.14029 46.2249 6.75131 46.2448 7.3571C46.2364 8.90616 46.1767 10.4573 46.2354 12.0032C46.293 13.4967 45.878 14.7754 44.854 15.858C43.8839 16.7366 42.698 17.3417 41.4173 17.6115C40.2089 17.8599 40.2037 17.8337 40.1659 19.1008L40.276 21.4233C40.6184 22.3896 40.9604 23.3563 41.3021 24.3233C41.2773 24.3458 41.2548 24.3708 41.235 24.3978L40.668 24.1881L39.7163 23.7008C37.6726 22.3383 36.1916 20.4947 35.1593 18.2854C34.9738 17.8882 34.7401 17.7676 34.3208 17.7687C30.32 17.782 26.3202 17.782 22.3214 17.7687C19.7714 17.7687 17.2204 17.6943 14.6705 17.7687C12.2536 17.8358 10.1637 17.2059 8.48682 15.4032C7.64521 14.3803 7.51315 13.1645 7.53307 11.889C7.55927 10.1345 7.53307 8.37898 7.52259 6.62345C7.45341 5.3144 7.86741 4.1699 8.70377 3.16585ZM27.5062 11.1805L27.3784 11.3408C27.5083 11.5263 27.6006 11.7601 27.7745 11.8869C27.9768 12.0407 28.2181 12.1349 28.4711 12.1587C28.7241 12.1826 28.9787 12.1353 29.2062 12.0221C29.659 11.8125 29.8246 11.4236 29.8351 10.9614C29.8497 10.3326 29.8351 9.70374 29.8351 9.0749C29.8351 8.44605 29.8351 8.44605 29.1915 8.60955C29.1119 8.63051 29.0039 8.56344 28.9149 8.52361C28.7095 8.42036 28.4765 8.38581 28.25 8.42506C28.0236 8.46431 27.8158 8.57528 27.6572 8.74161C27.2673 9.12206 27.1677 9.60313 27.3427 10.1376C27.4979 10.6198 27.8228 10.9227 28.3091 10.9761C28.5994 11.0034 28.9044 10.887 29.3781 10.8053C29.1874 11.127 29.1004 11.4687 28.9044 11.5525C28.6864 11.6458 28.3615 11.5253 28.0953 11.4551C27.8914 11.3806 27.6943 11.2887 27.5062 11.1805ZM23.5571 7.8476V10.0402C23.0865 9.33272 22.6736 8.73742 22.291 8.12429C22.1149 7.84131 21.9221 7.73755 21.6161 7.86751V10.9342L22.1233 10.8786V8.75628C22.575 9.44172 22.9744 10.0056 23.3276 10.5967C23.5288 10.9321 23.7625 10.9918 24.0948 10.8682V7.8476H23.5571ZM38.4335 10.8378C38.4335 10.1534 38.4335 9.44277 38.4335 8.73218C38.4335 8.36221 38.0991 8.35592 37.9723 8.47645C37.7575 8.67872 37.6191 8.57392 37.4378 8.50055C36.9567 8.30666 36.5438 8.45444 36.1979 8.79296C35.8521 9.13149 35.764 9.8096 36.0009 10.3053C36.2105 10.7539 36.5847 11.0034 37.0783 10.9897C37.5007 10.9782 37.922 10.8975 38.4335 10.8378ZM25.1418 9.93642H26.9508C27.0734 9.12311 26.7034 8.56763 25.9886 8.43348C25.3346 8.3098 24.7309 8.73847 24.5674 9.43544C24.4919 9.75115 24.5413 10.0839 24.7053 10.364C24.8694 10.6441 25.1355 10.8499 25.4478 10.9384C26.1175 11.1228 26.6741 10.842 26.9151 10.1062C26.6374 10.2037 26.4037 10.2425 26.2182 10.3588C25.7769 10.6365 25.4363 10.5433 25.1418 9.93642ZM42.8847 9.93642C42.9999 9.11682 42.63 8.56658 41.9152 8.43452C41.2622 8.31295 40.6575 8.74895 40.4971 9.44068C40.4223 9.75665 40.4726 10.0893 40.6375 10.3691C40.8024 10.6488 41.069 10.8539 41.3817 10.9415C42.0514 11.1249 42.6122 10.8367 42.8427 10.0873C42.5409 10.21 42.303 10.2739 42.1007 10.3955C41.6678 10.6533 41.2863 10.5003 41.1207 9.93642H42.8847ZM15.162 9.95528C15.2731 9.07385 14.9325 8.56134 14.2041 8.43138C13.5836 8.32657 12.938 8.76991 12.8038 9.40609C12.6498 10.1345 13.0585 10.8011 13.7597 10.9635C14.3959 11.1113 14.9241 10.8199 15.1285 10.1093C14.8528 10.2142 14.6254 10.255 14.442 10.3703C13.9986 10.6491 13.6486 10.5412 13.4096 9.95109L15.162 9.95528ZM30.2836 9.71842C30.2836 10.4709 30.7815 10.9834 31.512 10.9929C32.2425 11.0023 32.799 10.4489 32.799 9.7006C32.803 9.53013 32.7721 9.36064 32.7081 9.20258C32.6441 9.04453 32.5484 8.90124 32.427 8.78155C32.3055 8.66187 32.1608 8.56831 32.0019 8.50664C31.8429 8.44498 31.673 8.41651 31.5026 8.42299C30.7804 8.44291 30.2836 8.97638 30.2836 9.71842ZM19.827 9.29919L19.8993 9.17551C19.8686 9.06191 19.825 8.9522 19.7693 8.84851C19.4832 8.42928 19.0504 8.31085 18.6217 8.49322C18.3586 8.60431 18.0327 8.89672 17.9929 9.14617C17.9226 9.62514 18.3503 9.79283 18.7622 9.90497C18.9927 9.98273 19.2181 10.0748 19.4371 10.1806C18.8994 11.0002 18.4278 9.85781 17.909 10.2959C18.0212 10.4489 18.1092 10.6491 18.2622 10.7633C18.4395 10.9092 18.6584 10.9951 18.8875 11.0088C19.1167 11.0226 19.3443 10.9634 19.5377 10.8399C19.6365 10.7653 19.7184 10.6708 19.7782 10.5624C19.838 10.4541 19.8743 10.3343 19.8846 10.211C19.8993 9.68697 19.4245 9.62933 19.0567 9.48784C19.0242 9.47526 18.9833 9.48155 18.9519 9.46373C18.8135 9.3715 18.6783 9.27508 18.5421 9.1797C18.5966 9.1011 18.6531 8.95542 18.7076 8.95647C18.8886 8.96315 19.0677 8.99634 19.239 9.05498C19.4455 9.11472 19.6341 9.2122 19.827 9.29604V9.29919ZM17.0182 10.8713C16.8547 10.6984 16.7635 10.5957 16.6587 10.5024C16.5539 10.4091 16.3568 10.3064 16.3442 10.1963C16.3076 9.78549 16.3296 9.36941 16.3296 8.95856L16.8379 8.9093C17.0768 8.34544 16.5706 8.49007 16.3621 8.39994C16.3338 8.21024 16.3117 8.06036 16.2887 7.9021H15.8202C15.7154 8.21652 15.4398 8.63575 15.5446 8.77305C15.8391 9.16294 15.7332 9.55596 15.7426 9.94585C15.7626 10.8325 15.9323 10.9897 17.0182 10.8692V10.8713ZM39.2374 7.90315C39.0896 8.14211 38.9628 8.32238 38.8653 8.51942C38.8223 8.60431 38.7972 8.78458 38.8349 8.80869C39.3202 9.11368 39.077 9.58531 39.0927 9.97624C39.1294 10.8556 39.3453 11.0463 40.3504 10.8346C40.2068 10.69 40.1094 10.5988 40.0192 10.4992C39.9092 10.3798 39.7289 10.2613 39.7142 10.1282C39.6882 9.74448 39.6833 9.3596 39.6996 8.97533L40.2068 8.88415C40.4112 8.33496 39.9071 8.50265 39.731 8.37793C39.7006 8.2008 39.6754 8.05198 39.6503 7.9021L39.2374 7.90315ZM33.4928 7.90315C33.3552 8.09152 33.2272 8.28671 33.1093 8.48798C33.0589 8.58545 33.0191 8.79401 33.0537 8.81288C33.5673 9.1032 33.3042 9.58217 33.321 9.96576C33.3597 10.8661 33.5306 11.0275 34.6091 10.8336C34.4099 10.6743 34.2946 10.5936 34.1898 10.4982C34.085 10.4028 33.8964 10.2833 33.8848 10.1628C33.846 9.76872 33.8702 9.36836 33.8702 8.95856L34.411 8.89987C34.6405 8.30142 34.084 8.52256 33.8869 8.37583C33.8712 8.21338 33.8565 8.06141 33.8408 7.9L33.4928 7.90315ZM11.0378 7.86123V10.9006H12.5439C12.5541 10.8003 12.5541 10.6992 12.5439 10.5988C12.2295 10.5391 11.9151 10.5013 11.5462 10.4521C11.5462 9.70479 11.5315 8.95961 11.5514 8.21548C11.5598 7.84446 11.4183 7.74594 11.0378 7.86123ZM34.934 8.46806V10.931L35.3983 10.8881V8.46806H34.934ZM17.1167 7.39378C17.1429 7.69982 17.1544 7.95346 17.1911 8.2029C17.2033 8.23971 17.2242 8.27308 17.2519 8.30023C17.2796 8.32739 17.3133 8.34756 17.3504 8.35906C17.4175 8.37059 17.56 8.31504 17.56 8.27626C17.5946 7.99224 17.604 7.70506 17.6229 7.39378H17.1167ZM35.1876 8.33705C35.3406 8.10752 35.5167 7.95346 35.4884 7.86227C35.4579 7.78369 35.41 7.71305 35.3483 7.65568C35.2866 7.59831 35.2126 7.5557 35.132 7.53108C35.0482 7.51536 34.8271 7.7407 34.8312 7.85494C34.8375 7.987 35.0168 8.118 35.1897 8.33705H35.1876Z" fill="#32A060"/>
<path d="M58.7013 27.6803C59.0507 27.9598 59.4 28.2393 59.7494 28.5188C59.4999 28.7752 59.2512 29.0323 59.0031 29.2901L58.3827 30.4126C57.8586 31.7343 57.6637 33.1114 57.649 34.5232C57.649 35.0011 57.6518 35.479 57.6574 35.9569C57.6815 36.4422 57.8733 36.8216 58.3345 37.0323L59.414 37.8969L59.5188 38.1862C59.5324 38.3298 59.5471 38.4744 59.5618 38.6191C59.5523 39.0896 59.4832 39.5686 59.5481 40.0298C59.6592 40.8284 59.7263 40.8515 60.5396 40.9322C60.5585 41.5303 60.5767 42.1294 60.5941 42.7296C60.5679 43.1625 60.5354 43.5943 60.5145 44.0282C60.4362 45.673 60.3597 47.3181 60.2849 48.9636C60.3499 49.8719 60.4156 50.7802 60.482 51.6886C60.5962 53.5667 60.7042 55.4449 60.8268 57.323C60.983 59.7053 61.1517 62.0865 61.3131 64.4688C61.3907 65.6217 61.4881 66.7641 61.5227 67.9128C61.5342 68.311 61.377 68.7145 61.2974 69.1149L61.2093 69.2847C61.0542 69.3895 60.9033 69.5121 60.7419 69.6127C59.7085 70.2573 58.2978 70.6902 57.1334 69.4734L56.755 68.3561C56.196 64.2134 55.6325 60.07 55.0645 55.9259C54.9775 55.2971 54.8381 54.6682 54.7218 54.0394C54.6107 52.9043 54.4786 51.7703 54.3948 50.6332C54.3193 49.6071 54.3434 49.606 53.332 49.3755C53.2649 49.3597 53.2031 49.3231 53.136 49.3063C51.8678 48.9709 50.8093 48.3358 50.0966 47.1955C50.0893 46.9691 50.0714 46.7437 50.0746 46.5184C50.1102 43.8542 50.1476 41.1907 50.1867 38.5279V37.2167L50.1993 35.0158C50.3069 34.3869 50.4152 33.7616 50.5242 33.1397C50.5424 32.6429 50.5598 32.1458 50.5766 31.6483C50.5766 31.4142 50.5805 31.1812 50.5881 30.9492L50.7265 30.4535C50.7887 30.0238 50.8502 29.5941 50.9109 29.1644C50.9822 28.9851 51.0524 28.8049 51.1206 28.6257C51.2233 28.2463 51.3281 27.8669 51.435 27.4874C51.5398 27.3124 51.654 27.1384 51.7641 26.9634L52.4139 25.8105L52.9851 25.6963L53.3593 26.4299C53.2503 27.0246 53.1392 27.6195 53.026 28.2148C52.9065 28.2756 52.7115 28.3112 52.6822 28.4024C52.5823 28.7401 52.4994 29.0825 52.4338 29.4285L52.3038 29.9106L52.0942 31.2375C52.1037 31.5414 52.1341 31.8474 52.1162 32.1493C52.09 32.5853 52.0114 33.0192 51.9936 33.4552C52.0047 33.518 52.0313 33.5771 52.0711 33.6271C52.1108 33.677 52.1623 33.7163 52.221 33.7413C52.8331 33.9069 53.4546 34.0421 54.073 34.1868L54.2931 34.2832L55.1179 34.4928C55.4323 34.6552 55.7709 34.759 55.904 34.3272C56.083 33.7062 56.2306 33.0765 56.3463 32.4407C56.4186 32.0843 56.4416 31.7175 56.4867 31.3559C56.5286 31.2511 56.5695 31.1526 56.6104 31.0509L56.6733 30.9147C56.7435 30.6788 56.8127 30.4441 56.8829 30.2093L57.1124 29.6853L57.6123 28.6372L58.7013 27.6803Z" fill="#329F5F"/>
<path d="M3.03345 58.3994C2.98862 58.2317 2.95742 58.0607 2.94017 57.8879C2.86331 54.3608 2.79064 50.8323 2.72217 47.3024C2.72619 47.197 2.73669 47.092 2.75361 46.988L3.98405 45.5206L4.81517 44.5648L5.13798 44.1602L5.02479 42.6783C4.94444 42.2234 4.86409 41.7692 4.78373 41.3158L4.67893 40.5192L4.62233 39.9564C4.57831 39.5784 4.53464 39.1997 4.49132 38.8203L4.41062 37.9923L5.45869 37.8445L5.57189 38.4734C5.66132 39.0051 5.75006 39.5368 5.8381 40.0686L5.9146 40.645L5.98588 41.2256L6.09068 42.3544C6.1389 42.6615 6.18815 42.9696 6.23636 43.2767L6.41244 43.3815C6.51725 43.2243 6.61367 43.0671 6.71534 42.9088V42.7831V42.7883L7.56637 41.9446L7.97722 41.6501L8.89324 40.689C9.05988 40.5842 9.23072 40.4794 9.39317 40.3589C9.72331 40.121 10.0482 39.8768 10.3752 39.6357L11.3489 40.1136C11.2283 40.2593 11.111 40.4092 10.9852 40.5507C10.7504 40.8148 10.5115 41.0747 10.2736 41.3367L9.19927 42.259L8.68677 42.6584L8.37863 42.9927L7.43536 43.9056C6.7646 44.2818 6.70171 44.4139 6.90609 44.9956L7.19221 45.8214C7.34104 46.3462 7.49021 46.8702 7.63974 47.3936L7.92272 48.5538C7.99923 49.1711 8.12395 49.2539 9.00538 49.2717L9.48225 49.3901L10.6771 49.6899L12.0469 49.5956L13.6284 49.0516C13.3297 51.2756 13.0185 53.4976 12.7355 55.7237C12.4965 57.6102 12.1769 59.4863 12.0951 61.3759C11.9389 64.9981 11.9243 68.6265 11.8551 72.2518C11.8278 73.7191 11.8132 75.1801 11.7922 76.6432C11.7831 77.1959 11.7733 77.7483 11.7629 78.3003C11.7629 78.4051 11.7629 78.5193 11.7629 78.6283C11.8907 78.8704 12.0196 79.1115 12.1475 79.3525C12.028 79.7057 11.9788 80.1071 11.7744 80.4006C11.002 81.5116 9.87948 82.0859 8.55366 82.1614C7.7152 82.2085 6.84006 82.1813 6.19235 81.477C6.18082 81.3994 6.17034 81.3208 6.15985 81.2422C6.15461 81.1007 6.15042 80.9603 6.14518 80.823L6.15147 80.1375C6.05505 78.7897 5.94185 77.4429 5.86535 76.0941C5.77731 74.5513 5.72281 73.0064 5.6484 71.4626C5.618 70.8338 5.57922 70.2154 5.53835 69.5928C5.4021 67.569 5.25641 65.5462 5.1296 63.5213C5.07405 62.6378 5.07615 61.7501 5.00907 60.8676C4.97972 60.4882 4.95771 60.0061 4.72923 59.765C4.23559 59.2379 3.60779 58.8459 3.03345 58.3994ZM4.90321 46.6505L3.86562 47.7677L4.40328 47.9145L5.55616 48.3106L6.05819 48.4469L6.72372 48.732L6.38729 47.7373L6.09278 46.5561C6.01103 46.1677 5.92893 45.7788 5.84648 45.3896L5.70394 45.3729L5.22288 46.1369C5.11737 46.306 5.01256 46.4747 4.90846 46.6431L4.90321 46.6505Z" fill="#329F5F"/>
<path d="M20.0247 38.9922C19.9304 38.0249 20.3182 37.2724 21.0581 36.6771C22.3986 35.5986 23.9927 35.1049 25.6298 34.7224C29.0151 33.9342 32.4538 33.7309 35.9219 33.7791C38.2413 33.8085 40.1792 34.6993 41.9263 36.131C42.0877 36.2641 42.2575 36.3867 42.4221 36.5136C42.8665 36.9265 43.3308 37.3216 43.751 37.7566C44.4124 38.441 45.0454 39.1537 45.69 39.8527C45.7812 39.9984 45.8828 40.1388 45.9625 40.2919C46.409 41.1513 46.9057 41.9897 47.2747 42.8827C47.5891 43.6384 47.3868 44.3605 46.7077 44.8877C46.323 45.1853 45.9572 45.5343 45.5254 45.7398C44.9249 46.0248 44.6786 46.4556 44.687 47.0844L44.1849 46.5835C43.2773 46.9933 42.3927 47.4513 41.4662 47.7982C38.7664 48.8127 36.0351 49.6847 33.1456 50.0536C31.0494 50.3188 29.2184 49.8818 27.5688 48.6083C26.7041 47.9407 25.8677 47.2364 25.0188 46.5489C25.7614 46.5541 26.4886 46.3377 27.1076 45.9274C27.2952 45.8047 27.5174 45.7366 27.7155 45.6287C28.1557 45.3897 28.5162 45.5071 28.838 45.8519C29.0633 46.093 29.2939 46.3288 29.5213 46.5677C30.0537 47.359 30.7685 47.8412 31.7422 47.8894C32.8731 48.0403 33.9505 47.8275 34.9996 47.4156L38.7989 45.9483L41.2095 44.9055C41.4044 44.8122 41.6601 44.7671 41.7849 44.6152C42.5248 43.7117 43.1107 42.7182 43.4209 41.5758L43.4293 41.5475C43.4167 41.5066 43.4052 41.4657 43.3926 41.4248C42.9126 41.3525 42.4252 41.188 41.9536 41.2247C40.85 41.3116 39.7526 41.4951 38.6543 41.6439C38.6983 41.5129 38.7444 41.3829 38.7874 41.2519C39.1783 40.0843 39.4246 38.8958 39.3009 37.6539C39.1772 37.6381 39.0399 37.5773 38.9341 37.6119C37.9667 37.9337 37.0046 38.2722 36.0403 38.6055C35.3245 38.1161 34.638 37.5732 33.8866 37.1455C31.9822 36.0639 29.9668 36.1362 27.9241 36.6875C27.7606 36.7326 27.5373 36.7483 27.7438 37.002L28.3726 38.2806C27.4398 38.2492 26.5081 38.201 25.5753 38.1968C25.3018 38.1968 25.0272 38.3204 24.7536 38.3875L24.8228 38.4923H24.8165C25.2057 39.3664 25.5949 40.2398 25.9841 41.1125L25.0219 42.0558L23.7852 41.1062C23.7758 40.5895 23.9005 39.9932 23.4079 39.6536C22.4887 39.0247 21.5413 38.3728 20.3328 38.9839C20.2469 39.0247 20.1274 38.9912 20.0247 38.9922ZM34.9074 35.1605V35.2097H37.3033V35.1605H34.9074Z" fill="#784208"/>
<path d="M12.8769 26.8629C14.0801 26.9006 15.2225 27.1773 16.2465 27.8197C17.609 28.675 17.6425 30.157 16.257 30.964C15.4867 31.4105 14.5979 31.6536 13.7605 31.9827C13.5687 32.0582 13.3706 32.1158 13.1756 32.1808L12.5237 32.3024C11.9588 32.3967 11.3855 32.4543 10.8311 32.5906C9.02422 33.036 7.23096 33.5601 5.33918 33.4678C4.37286 33.2582 3.36776 33.1597 2.44859 32.8233C0.847135 32.2384 0.520134 30.9975 1.53677 29.634C2.43182 28.4329 3.67274 27.7684 5.13586 27.498L4.81515 28.7326L4.48395 29.4998C4.66003 29.5805 4.78161 29.6434 4.90843 29.6937C6.64404 30.3687 8.43939 30.3875 10.2536 30.1528C11.2776 30.0207 12.2638 29.7576 13.1274 29.1466C13.4995 28.8835 13.6588 28.6037 13.314 28.2096L12.8769 26.8629Z" fill="#FDC45D"/>
<path d="M52.8076 21.2012C51.8161 20.7819 50.7879 20.4392 49.8426 19.9361C49.1561 19.5714 48.5566 19.0222 48.5063 18.123C48.4612 17.3128 48.9549 16.8045 49.5386 16.4125C50.7438 15.5837 52.2174 15.2401 53.6649 15.4504L53.1314 16.4764L52.5372 17.1053C52.7405 17.2772 52.8684 17.3956 53.0057 17.4994C54.3472 18.5128 55.9036 18.9918 57.5239 19.2979C58.5437 19.4907 59.5614 19.5075 60.5728 19.2067C61.0161 19.0757 61.2257 18.8409 61.0884 18.3682C61.0689 17.9637 61.0493 17.5591 61.0297 17.1545C62.0589 17.5926 62.975 18.1869 63.607 19.1333C64.4653 20.4161 63.9423 21.8384 62.4237 22.1591C61.6575 22.3215 60.8369 22.2251 60.0414 22.2461L59.0174 22.0365L57.6675 21.6958L57.1277 21.524L52.8076 21.2012Z" fill="#FDC45D"/>
<path d="M3.98332 79.32L3.65318 77.7888C3.56933 75.1231 3.48514 72.4582 3.40059 69.794C3.27901 65.9944 3.15639 62.1962 3.03271 58.3994C3.60706 58.8469 4.23486 59.2378 4.73164 59.7619C4.96012 60.0029 4.98214 60.485 5.01148 60.8644C5.07856 61.7469 5.07646 62.6346 5.13201 63.5182C5.25883 65.543 5.40451 67.5658 5.54076 69.5897C5.58163 70.2122 5.62041 70.8358 5.65081 71.4594C5.72522 73.0032 5.77972 74.5481 5.86776 76.0909C5.94532 77.4397 6.05746 78.7865 6.15388 80.1343L3.98332 79.32Z" fill="#24874C"/>
<path d="M60.4729 51.6917C60.4072 50.7834 60.3416 49.875 60.2759 48.9667C60.5044 48.7312 60.679 48.4489 60.7876 48.1392C60.8962 47.8296 60.9361 47.5001 60.9047 47.1734C60.8146 45.8885 60.8198 44.5962 60.7664 43.3081C60.759 43.1142 60.65 42.9245 60.5872 42.7327C60.5697 42.1332 60.5515 41.5337 60.5327 40.9342C61.5807 40.8976 62.6236 40.82 63.5962 40.3683C63.5029 42.3502 63.4432 44.3332 63.3017 46.3109C63.2256 47.4818 63.3109 48.6575 63.5553 49.8052C63.7723 50.869 63.4882 51.2725 62.4318 51.4894C62.0781 51.5627 61.7356 51.6822 61.413 51.8447C61.0389 52.0313 60.7507 51.9548 60.4729 51.6917Z" fill="#E7C4AB"/>
<path d="M4.81494 28.7326L5.1388 27.498C5.23417 27.1112 5.28238 26.7056 5.43645 26.3451C5.62381 25.8807 5.8704 25.4425 6.1701 25.0413C6.55684 24.5497 7.10708 24.403 7.72126 24.6158C7.65204 24.6208 7.58353 24.6331 7.51688 24.6524C7.35548 24.7185 7.20246 24.795 7.03896 24.8621C7.1249 25.0381 7.16787 25.3064 7.30622 25.3704C7.63741 25.5234 8.01262 25.6586 8.37001 25.6586C8.98628 25.6586 9.60255 25.5538 10.2178 25.4794C10.4586 25.469 10.6964 25.422 10.9231 25.34C11.1086 25.2551 11.2449 25.0643 11.4042 24.9207L10.8529 24.6283C11.7888 24.3726 12.2364 24.6168 12.4942 25.5234C12.6221 25.9688 12.752 26.4143 12.8799 26.8597L13.3044 28.2148C12.8107 28.4632 12.3412 28.7965 11.8182 28.9485C9.47049 29.6098 7.12071 29.5773 4.81494 28.7326Z" fill="#DF9E36"/>
<path d="M53.1313 16.4764L53.668 15.4461C53.8126 15.2135 53.9656 14.9839 54.1019 14.746C54.4561 14.1266 54.8963 13.5931 55.5786 13.3227C55.9978 13.153 56.4171 13.1247 56.8049 13.4275L56.2504 13.4527C56.1456 14.0092 56.3971 14.4358 56.9359 14.5616C57.7743 14.7576 58.6243 14.9305 59.4743 15.0856C59.6812 15.1037 59.8887 15.0599 60.0707 14.9598C60.1346 14.9294 60.1493 14.6968 60.1094 14.5825C60.0769 14.4882 59.9313 14.4337 59.8359 14.3624C60.7571 14.4211 61.1187 14.8079 61.0936 15.7134C61.0779 16.1955 61.0538 16.6787 61.0338 17.1618C61.0534 17.5657 61.073 17.9699 61.0925 18.3745C60.3589 18.4709 59.5959 18.7308 58.8916 18.6291C57.6234 18.4416 56.3761 18.1331 55.1667 17.7079C54.4257 17.4564 53.8 16.9009 53.1313 16.4764Z" fill="#DF9E36"/>
<path d="M57.6638 21.7052L59.0138 22.0458C58.8723 22.4336 58.7161 22.8162 58.5945 23.2102C58.4373 23.7154 58.3074 24.2279 58.1659 24.7383C58.017 25.0255 57.8679 25.3127 57.7183 25.5999C57.4154 25.7497 57.1 25.8776 56.8118 26.0526C55.9681 26.5651 55.1432 27.1227 54.0763 26.7475L53.3636 26.4268L52.9894 25.6931C52.9674 25.5883 52.9444 25.4898 52.9213 25.3892L52.8081 21.2032L57.1262 21.5354V22.5489L57.2698 22.5657L57.6638 21.7052Z" fill="#E7C4AB"/>
<path d="M20.0247 38.9922C20.1296 38.9922 20.2469 39.0247 20.3287 38.9838C21.5371 38.3728 22.4846 39.0216 23.4037 39.6536C23.8963 39.9931 23.7716 40.5895 23.7811 41.1062C23.6762 41.0999 23.5306 41.0454 23.4771 41.0947C23.1882 41.3685 22.8436 41.5768 22.4668 41.7054C22.0901 41.834 21.69 41.8799 21.294 41.8398C21.0906 41.8032 20.8569 41.8168 20.6892 41.7183C20.27 41.4688 19.9105 41.5736 19.5363 41.8063C18.5008 42.4352 17.4549 43.0567 16.4194 43.6928C16.303 43.7652 16.2328 43.9129 16.1406 44.0261L14.8714 42.6636L13.8568 41.7948L13.7153 41.539C15.3786 40.9018 17.044 40.2719 18.7021 39.6221C19.1527 39.4471 19.5835 39.205 20.0247 38.9922ZM21.5046 40.8651L21.5266 41.059L23.2696 40.8735C22.4584 40.427 22.0213 40.4417 21.5046 40.8651Z" fill="#F1C7A3"/>
<path d="M12.5236 32.3024L13.1755 32.1797C12.9355 33.668 12.7364 35.1636 12.4419 36.6404C12.2951 37.3688 11.9231 38.0479 11.0448 38.1223C10.6591 38.1548 10.2619 38.0511 9.76719 37.9987V39.1924L9.56386 39.1683L8.41098 38.6076L7.98022 38.4609L6.70157 38.0867L6.17753 37.9746L5.7583 37.8509L5.96792 35.6615C6.49719 35.9098 7.00446 36.2431 7.55994 36.3899C8.70549 36.6907 9.48002 36.2012 9.86047 35.084C10.0282 34.5914 10.1875 34.081 10.4516 33.6397C10.6245 33.3505 10.9599 33.1398 11.2586 32.9532C11.4127 32.8568 11.6474 32.8882 11.8455 32.8631C11.8026 33.0727 11.7648 33.2823 11.7135 33.4846C11.6883 33.5894 11.6034 33.6785 11.6087 33.7739C11.622 33.9423 11.6483 34.1094 11.6873 34.2738C11.8078 34.169 11.9912 34.0831 12.0373 33.951C12.2197 33.4091 12.3612 32.8516 12.5236 32.3024Z" fill="#E7C4AB"/>
<path d="M45.6898 39.8486C45.0452 39.1474 44.4122 38.4347 43.7508 37.7524C43.3316 37.3175 42.8663 36.9223 42.4219 36.5094C43.9122 36.327 45.4047 36.1604 46.8898 35.9466C47.1938 35.9036 47.6182 35.9067 47.6926 35.4362L50.1913 37.2179V38.5196C49.8622 38.7774 49.5624 39.182 49.1966 39.2658C48.0427 39.5257 46.8605 39.6651 45.6898 39.8486Z" fill="#DAB29B"/>
<path d="M14.8671 42.6668L16.1373 44.0293L16.7065 44.7629C16.0713 44.8594 16.1384 45.3918 16.0451 45.8257C15.868 46.1475 15.6668 46.4545 15.5211 46.791C15.1511 47.6242 14.8031 48.4679 14.4468 49.3063L13.6681 48.9112L13.6241 48.6356L14.0894 48.753L14.5621 47.6609L13.4983 47.1368L12.99 48.1283L12.5707 47.839C12.7038 47.5246 12.837 47.2175 12.99 46.8696L11.9419 46.3466L11.6275 46.7763C11.53 46.6212 11.3298 46.4472 11.355 46.3151C11.4241 45.9452 11.1737 45.9819 10.9756 45.9284L10.57 45.4044L10.5888 45.1696C10.823 45.2745 11.0648 45.3617 11.312 45.4306C11.4451 45.4589 11.6704 45.4306 11.7312 45.3415C12.206 44.6885 12.1389 44.4517 11.4241 44.1027C11.3057 44.045 11.1799 43.9978 10.9808 43.9192L10.5867 45.1717C10.5071 45.0281 10.4274 44.8856 10.3488 44.742L10.265 44.6697V44.676C10.2942 44.4605 10.3423 44.2479 10.4086 44.0408C10.5291 43.7463 10.4526 43.5849 10.1528 43.5168L10.2702 42.9844L10.7523 43.2149C10.8791 42.9403 10.9766 42.6909 11.1097 42.453C11.2774 42.1585 11.1527 42.0128 10.8865 41.9111L11.2994 41.4217L12.0519 41.1911V41.8933C12.1735 41.9572 12.3391 42.0474 12.5068 42.1312C12.6745 42.2151 12.8411 42.2884 13.0382 42.3817C13.1797 42.039 13.3044 41.7403 13.4281 41.4384L13.709 41.5433L13.8504 41.799C13.7456 42.0662 13.6335 42.3325 13.514 42.628L14.5621 43.1353L14.8671 42.6668ZM13.8829 44.7745C14.0297 44.4663 14.1722 44.2085 14.2718 43.936C14.2905 43.8774 14.2957 43.8154 14.2868 43.7545C14.2779 43.6937 14.2552 43.6356 14.2204 43.5849C13.622 43.0116 13.2447 43.1122 12.9554 43.8658C12.8422 44.1592 12.8894 44.3175 13.1713 44.4349C13.3935 44.5313 13.6062 44.6456 13.8829 44.7745ZM11.6484 42.2968C11.5489 42.7506 11.3497 43.1583 11.4273 43.5021C11.4713 43.697 12.118 43.9779 12.2396 43.8857C12.5194 43.6761 12.6441 43.2569 12.8516 42.8858L11.6484 42.2968ZM14.7864 43.8585C14.6816 44.3311 14.472 44.7325 14.5568 45.0616C14.6082 45.2639 15.237 45.548 15.367 45.4568C15.651 45.2545 15.7862 44.8374 15.9959 44.4663L14.7864 43.8585ZM14.1869 45.5186C14.0632 45.7712 13.9636 46.0112 13.8326 46.2344C13.6545 46.5384 13.7498 46.7134 14.0569 46.8308C14.2183 46.8926 14.363 47.0111 14.5275 47.0457C14.5887 47.0557 14.6513 47.0514 14.7106 47.0333C14.7699 47.0151 14.8241 46.9834 14.8692 46.9408C15.346 46.3256 15.2716 46.0238 14.5862 45.6905C14.4646 45.6339 14.3388 45.5846 14.1869 45.5186V45.5186ZM12.5707 44.7745C12.4219 45.1182 12.2699 45.4714 12.1096 45.8435C12.3339 45.9619 12.4995 46.0531 12.6693 46.137C12.8391 46.2208 13.0005 46.2858 13.1577 46.355C13.8284 45.2555 13.7697 45.0952 12.5707 44.7745Z" fill="#88987A"/>
<path d="M59.5525 38.6149C59.5378 38.4703 59.5231 38.3257 59.5095 38.1821C60.1457 38.0689 59.9979 37.4673 60.3134 37.0617L59.3146 36.7043L59.2097 36.5995L59.0871 35.4697C59.0347 35.149 58.982 34.8286 58.9289 34.5086L58.8848 33.8797L59.6007 34.1942C59.7254 33.9217 59.8187 33.6816 59.9423 33.4605C60.0922 33.1911 60.0555 33.0119 59.7537 32.8966C59.5906 32.8387 59.4357 32.7602 59.2925 32.6629C59.0421 32.4847 58.9006 32.5906 58.7863 32.8201C58.7507 32.5791 58.6364 32.315 58.6962 32.1001C58.8209 31.6526 59.0368 31.2312 59.2202 30.7984L59.3146 30.6255V30.6317L59.8501 30.2827L61.0554 31.1002C61.1214 30.6946 61.1602 30.4525 61.199 30.2104L61.3122 30.0972L61.7314 30.6328C61.656 30.8194 61.5815 31.0059 61.4757 31.2721L62.354 31.5687L62.4378 31.683L62.7837 32.6325L62.3393 33.6513L63.073 33.9845C63.1065 34.1942 63.1414 34.4017 63.1778 34.6071C62.934 34.4727 62.6816 34.3547 62.4221 34.2539C62.3559 34.2385 62.287 34.2395 62.2213 34.2566C62.1556 34.2738 62.095 34.3067 62.0448 34.3524C61.5658 35.0106 61.6318 35.2559 62.3445 35.6007C62.4651 35.6583 62.5929 35.7055 62.7166 35.7568L63.2239 34.8974C63.3119 35.5018 63.4003 36.1069 63.489 36.7127C62.9294 36.5397 62.7281 36.7536 62.6181 37.6413L63.0855 37.962L61.8457 38.0605L60.7609 37.2524L60.3553 38.2764L59.5525 38.6149ZM59.7044 30.9284C59.0326 32.0236 59.106 32.2091 60.327 32.5696L60.7955 31.4702L59.7044 30.9284ZM60.7682 32.8621L61.8708 33.3924L62.3634 32.2626L61.2828 31.7217C61.1068 32.1106 60.9527 32.4523 60.7682 32.8621V32.8621ZM60.5157 33.2865C60.4025 33.7435 60.1928 34.1449 60.2578 34.496C60.2924 34.6826 60.9338 34.9729 61.068 34.8796C61.3541 34.6826 61.4872 34.2654 61.6874 33.9363C61.613 33.8723 61.5346 33.8131 61.4526 33.7592C61.1917 33.6209 60.9286 33.4919 60.5157 33.2865V33.2865ZM62.0154 37.374C62.6443 36.2128 62.5657 36.0272 61.4044 35.8124C61.264 36.1352 61.1204 36.4622 60.9569 36.8395L62.0154 37.374ZM59.2904 36.0828C59.7778 36.24 60.1624 36.4821 60.4915 36.4224C60.6697 36.3899 60.9202 35.783 60.8343 35.543C60.7483 35.303 60.1824 34.9896 60.0115 35.0756C59.7181 35.2213 59.5713 35.6562 59.2894 36.0807L59.2904 36.0828Z" fill="#88987A"/>
<path d="M10.3525 44.7535C10.4311 44.8971 10.5108 45.0396 10.5904 45.1832L10.5716 45.4179L9.49834 44.9704C9.33589 45.354 9.18392 45.7041 9.02461 46.0856L10.1597 46.6243L10.5632 45.4127L10.9688 45.9367C10.916 46.0797 10.8554 46.2196 10.7875 46.356C10.5779 46.7207 10.6544 46.967 11.0642 47.1033C11.1787 47.1414 11.2868 47.1965 11.3849 47.2668C11.6354 47.4418 11.7517 47.3108 11.8356 47.0854L12.5692 47.839L12.9895 48.1283L13.6246 48.6345L13.6686 48.9101C13.6723 48.9252 13.672 48.941 13.668 48.956C13.664 48.971 13.6563 48.9848 13.6456 48.9961C13.3249 48.8284 13.0063 48.6586 12.6845 48.4951C11.9246 48.1125 11.9508 48.1283 11.6039 48.8955C11.3608 49.43 11.9183 49.3566 12.0515 49.5924L10.6816 49.692C10.6124 49.1156 10.0276 49.2518 9.72787 48.9311L9.48681 49.3922L9.0068 49.2812C9.06549 49.1019 9.12523 48.9227 9.1944 48.7131C8.96278 48.5915 8.72696 48.4857 8.51001 48.3494C8.20921 48.1608 8.02894 48.2446 7.92413 48.559L7.6443 47.3946C8.14318 47.2898 8.10231 46.8004 8.24485 46.4639C8.2721 46.4 7.95243 46.1579 7.76587 46.0447C7.58363 45.9525 7.39308 45.8778 7.19677 45.8215L6.91064 44.9966C7.08812 44.6326 7.26454 44.2693 7.43992 43.9066L8.38319 42.9937C8.3224 43.2212 8.26161 43.4486 8.19139 43.7096C8.45236 43.8427 8.7039 43.9936 8.97326 44.0984C9.03233 44.1152 9.09455 44.1175 9.15472 44.1053C9.21489 44.0931 9.27126 44.0667 9.31912 44.0282C9.82115 43.458 9.72368 43.042 9.03614 42.7475C8.92294 42.7087 8.80697 42.6786 8.68923 42.6573L9.20174 42.258L10.0517 42.6479C10.1303 42.1616 10.1974 41.7497 10.2613 41.3378C10.4993 41.0758 10.7382 40.8137 10.973 40.5517C11.0988 40.4102 11.2161 40.2604 11.3367 40.1147L11.5316 40.2467C11.4981 40.644 11.0076 40.951 11.3 41.4143L10.8933 41.9037L10.2771 42.977C10.2383 43.1541 10.1985 43.3323 10.1597 43.5094L9.70481 44.4946L10.2645 44.6696V44.6633L10.3525 44.7535ZM9.0571 44.657C8.6494 44.5197 8.26581 44.2703 7.93566 44.3279C7.7533 44.3604 7.47346 45.004 7.57407 45.201C7.7229 45.4955 8.16938 45.6401 8.53097 45.8749L9.0571 44.657ZM10.3693 47.3475L9.9008 48.4689L10.9856 49.0139C11.1564 48.6177 11.3 48.2802 11.4645 47.9008L10.3693 47.3475ZM8.80661 46.5792C8.66093 46.902 8.53202 47.163 8.42826 47.4323C8.39682 47.5141 8.39996 47.6818 8.44503 47.708C8.72801 47.8683 9.01833 48.0486 9.32856 48.1094C9.4145 48.1272 9.61992 47.7793 9.68909 47.5717C9.74674 47.402 9.76141 47.1012 9.66079 47.0163C9.43965 46.8255 9.13047 46.7333 8.81081 46.5792H8.80661Z" fill="#738665"/>
<path d="M12.5236 32.3023C12.3643 32.8536 12.2197 33.4112 12.0342 33.953C11.9881 34.0851 11.8047 34.1689 11.6841 34.2758C11.6452 34.1114 11.6189 33.9443 11.6055 33.7759C11.6055 33.6805 11.6894 33.5862 11.7103 33.4866C11.7617 33.277 11.7994 33.0674 11.8424 32.8651C11.6443 32.8903 11.4095 32.8588 11.2555 32.9553C10.9568 33.1418 10.6214 33.3525 10.4484 33.6417C10.1843 34.083 10.0292 34.5934 9.85733 35.086C9.47688 36.2032 8.70445 36.6927 7.55681 36.3919C7.00133 36.2452 6.49406 35.9119 5.96478 35.6635C5.75517 34.9319 5.54555 34.2007 5.33594 33.4699C7.22771 33.5579 9.02097 33.0381 10.8279 32.5905C11.3854 32.4522 11.9587 32.3945 12.5236 32.3023Z" fill="#653C14"/>
<path d="M61.8413 38.0563L63.0811 37.9578L63.6419 37.9284C63.7687 38.531 63.9395 39.1285 63.9982 39.7384C64.016 39.9313 63.7372 40.1524 63.5937 40.361C62.621 40.8127 61.5793 40.8903 60.5301 40.927C59.7168 40.8473 59.6497 40.8221 59.5387 40.0256C59.4737 39.5645 59.5387 39.0823 59.5523 38.6149L60.3551 38.2732L61.8413 38.0563Z" fill="#F87878"/>
<path d="M50.1959 37.2167L47.6973 35.435C47.1261 35.042 47.079 34.5054 47.3158 33.9205C47.5254 33.3892 47.5988 32.7582 48.214 32.4731C48.4802 32.427 48.7643 32.2981 49.0085 32.3505C49.6436 32.4878 49.9717 32.9898 50.2106 33.5537C50.2106 34.0386 50.2106 34.5239 50.2106 35.0095L50.1959 37.2167Z" fill="#AD2020"/>
<path d="M5.13537 44.1603C5.03056 44.2945 4.92052 44.4297 4.81257 44.5649L4.05376 44.2117C3.96739 44.4397 3.86801 44.6626 3.7561 44.8793C3.5664 45.2 3.66702 45.395 3.98354 45.526L2.75309 46.9933C2.7482 46.2945 2.74262 45.5958 2.73633 44.8971C3.19014 45.025 3.34735 44.8332 3.51714 43.9203L2.73633 43.5315L2.74576 42.9708L3.81165 43.4434C3.98249 43.0494 4.13132 42.7035 4.28853 42.3398C4.07891 42.235 3.91646 42.1375 3.74562 42.0547C3.57479 41.9719 3.37775 41.8933 3.1587 41.798L2.75939 42.649C2.9145 41.5359 3.06927 40.4225 3.22368 39.3088L3.66702 39.4062L3.98144 38.2534L4.40801 37.9903C4.43526 38.2663 4.46216 38.5423 4.48871 38.8183L4.05585 39.6672L4.61972 39.9544L4.67631 40.5172C4.28748 40.4365 3.85253 39.9188 3.58212 40.7268C3.43225 41.1744 3.4312 41.4364 3.91436 41.5915C4.10406 41.6653 4.2892 41.7504 4.4688 41.8462L4.78322 41.3169C4.86287 41.7711 4.94322 42.2252 5.02428 42.6794C4.90375 42.7161 4.71929 42.7171 4.67422 42.7957C4.52779 43.086 4.3966 43.3837 4.28119 43.6876L4.73082 43.936L5.13537 44.1603Z" fill="#738665"/>
<path d="M53.3628 26.4268L54.0744 26.7475C54.0744 26.9215 54.065 27.0965 54.0828 27.2716C54.1373 27.8134 54.7117 28.3008 55.1309 28.1488C56.2712 27.7296 57.3769 27.2716 57.7207 25.9258C57.9073 26.3451 58.0931 26.7643 58.2783 27.1835C58.0121 27.5504 57.9963 28.11 57.4398 28.2589C57.379 28.2746 57.356 28.4297 57.3161 28.5198L56.2681 29.3342L55.3447 29.4841L55.2294 29.3793L55.1225 29.2629V29.2682L54.7106 28.5555L54.1793 28.9485L54.0744 29.0533V29.0481L53.5504 29.2461L53.1175 28.2976L53.0264 28.2148L53.0348 28.2201C53.1424 27.622 53.2517 27.0242 53.3628 26.4268Z" fill="#F36260"/>
<path d="M50.2061 33.5601C49.9671 32.9962 49.639 32.4942 49.0039 32.3569C48.7597 32.3045 48.4799 32.4334 48.2095 32.4795C48.4827 31.6131 48.7559 30.7463 49.0291 29.8792C49.529 29.6895 49.7627 28.9422 49.4378 28.5586L49.5636 28.2044L49.9514 28.2788C50.0443 28.0272 50.1539 27.7821 50.2794 27.5452C50.4565 27.2569 50.3402 27.1071 50.0887 26.9855C50.4775 26.343 50.9125 25.7498 51.6713 25.5014C51.6014 25.711 51.5336 25.9227 51.4679 26.1365L51.2489 26.8702L51.7729 26.9624C51.6681 27.1375 51.5528 27.3114 51.4438 27.4865C50.9932 27.3586 50.75 27.5693 50.6379 28.2201C50.5676 28.6215 50.8674 28.611 51.1336 28.6226C51.0623 28.8018 50.9921 28.9821 50.924 29.1613L50.3014 29.0533C50.1345 29.3034 49.9836 29.5639 49.8497 29.8331C49.6611 30.2764 49.9168 30.3571 50.291 30.3079L50.7291 30.4504L50.5907 30.9462L50.204 30.9608C49.377 30.637 49.2785 30.7061 49.0605 31.8538L50.1966 32.1871L50.5781 31.6452C50.5607 32.142 50.5432 32.6391 50.5257 33.1366C50.4209 33.2792 50.3144 33.4203 50.2061 33.5601Z" fill="#738665"/>
<path d="M58.931 34.5106C58.9845 34.8302 59.0358 35.1509 59.0903 35.4716L58.6113 36.4401L59.2098 36.5994L59.3146 36.7042V37.333L58.3315 37.0322C57.8704 36.8226 57.6786 36.4422 57.6544 35.9569C58.038 36.176 58.2361 36.0722 58.4258 35.6561C58.6522 35.1614 58.5747 34.8921 58.0642 34.7286C57.9194 34.6694 57.7793 34.5993 57.645 34.5189C57.6586 33.1072 57.8546 31.73 58.3787 30.4084C58.4919 30.4294 58.7015 30.4765 58.7046 30.4681C58.8094 30.0762 59.2936 29.7722 58.9991 29.2859C59.2479 29.0281 59.4966 28.771 59.7454 28.5145L60.0504 28.8237L59.8334 29.2314L60.7882 29.5762H60.7819L60.9098 29.681C61.0439 29.8208 61.1777 29.9605 61.3112 30.1003L61.2011 30.2061L60.4465 30.1013L59.6227 29.6339L59.3146 30.6254V30.6191L59.2161 30.7983C59.0369 31.2311 58.821 31.6525 58.692 32.1C58.6323 32.3096 58.7465 32.579 58.7822 32.82C58.7822 32.9175 58.7769 33.015 58.7748 33.1135L58.2445 32.9102C58.1104 33.2068 57.9657 33.451 57.8945 33.7151C57.8609 33.8408 57.9238 34.083 58.0192 34.1343C58.3074 34.2999 58.6271 34.3911 58.931 34.5106Z" fill="#738665"/>
<path d="M7.9774 38.4588L8.40816 38.6055C8.29111 38.8539 8.1937 39.1111 8.11679 39.3748C8.0864 39.5037 8.13985 39.7322 8.23418 39.794C8.48571 39.9575 8.77917 40.0529 9.07264 40.1828C9.24976 39.815 9.40488 39.4911 9.55999 39.1673L9.76332 39.1914L10.3702 39.6389C10.0432 39.88 9.71825 40.1242 9.38811 40.3621C9.21727 40.4774 9.04958 40.5822 8.88293 40.687L7.78665 40.1462C7.65774 40.4281 7.55502 40.6828 7.42611 40.9228C7.2972 41.1628 7.3213 41.342 7.60219 41.4468C7.72806 41.5042 7.84991 41.57 7.96692 41.6439L7.55607 41.9447L7.01631 41.8262C6.9115 42.1606 6.8067 42.475 6.70189 42.7894V42.7842V42.9099C6.59708 43.0671 6.49961 43.2244 6.39899 43.3826L6.22292 43.2778C6.17471 42.9707 6.12545 42.6626 6.07724 42.3555L6.6411 41.5516L5.97033 41.2267C5.94623 41.0339 5.92317 40.84 5.89906 40.6461L6.80879 41.0234L7.27624 39.9135L6.17785 39.3769C6.04579 39.6399 5.93994 39.8537 5.83408 40.0676C5.74465 39.5365 5.65591 39.0048 5.56787 38.4724C6.15165 38.7721 6.00911 38.18 6.181 37.9745L6.70503 38.0867L6.38537 38.8843L7.48166 39.4345L7.9774 38.4588Z" fill="#738665"/>
<path d="M57.7227 25.9227C57.379 27.2716 56.2753 27.7296 55.1329 28.1457C54.7137 28.2976 54.1383 27.8103 54.0848 27.2684C54.067 27.0965 54.0786 26.9215 54.0765 26.7444C55.1434 27.1196 55.963 26.562 56.8119 26.0495C57.1002 25.8745 57.4156 25.7466 57.7185 25.5967C57.7196 25.7078 57.7217 25.8158 57.7227 25.9227Z" fill="#DAB29B"/>
<path d="M10.8491 24.6315L11.4004 24.9239C11.2411 25.0685 11.1048 25.2593 10.9193 25.3431C10.6926 25.4251 10.4548 25.4721 10.214 25.4825C9.59875 25.5548 8.98248 25.6596 8.36621 25.6617C8.00882 25.6617 7.63256 25.5265 7.30241 25.3735C7.16407 25.3096 7.1211 25.0413 7.03516 24.8652C7.19446 24.7939 7.34958 24.7174 7.51308 24.6556C7.57973 24.6362 7.64823 24.6239 7.71745 24.6189C8.75924 25.0161 9.80417 24.8075 10.8491 24.6315Z" fill="#B37934"/>
<path d="M59.8326 14.3665C59.928 14.4378 60.0737 14.4923 60.1061 14.5866C60.146 14.7009 60.1313 14.9335 60.0674 14.9639C59.8854 15.064 59.6779 15.1078 59.471 15.0897C58.621 14.9398 57.7731 14.7669 56.9326 14.5657C56.3939 14.4399 56.1434 14.0133 56.2471 13.4568L56.7995 13.4369L56.9598 13.5323C57.8151 14.1601 58.817 14.2858 59.8326 14.3665Z" fill="#B37934"/>
<path d="M58.1616 24.7383C58.3031 24.2279 58.4331 23.7154 58.5903 23.2102C58.7129 22.8162 58.8691 22.4336 59.0095 22.0458L60.0335 22.2555L58.1616 24.7383Z" fill="#653C14"/>
<path d="M2.75972 42.6479L3.15904 41.7969C3.37808 41.8922 3.56464 41.9677 3.74596 42.0537C3.92727 42.1396 4.08239 42.2297 4.28886 42.3387C4.13165 42.7024 3.98282 43.0483 3.81198 43.4424L2.74609 42.9697L2.75972 42.6479Z" fill="#E13D3C"/>
<path d="M63.2196 34.8932L62.7123 35.7527C62.5886 35.7013 62.4608 35.6541 62.3402 35.5965C61.6275 35.2517 61.5615 35.0064 62.0405 34.3482C62.0907 34.3025 62.1513 34.2696 62.217 34.2524C62.2827 34.2353 62.3516 34.2343 62.4178 34.2497C62.6773 34.3505 62.9297 34.4685 63.1735 34.6029C63.1923 34.6993 63.2038 34.7958 63.2196 34.8932Z" fill="#F36260"/>
<path d="M13.4298 41.4333C13.3062 41.733 13.1814 42.0317 13.0399 42.3765C12.8429 42.2833 12.6742 42.2078 12.5086 42.126C12.343 42.0443 12.1753 41.9521 12.0537 41.8881V41.1859L12.6878 41.1063L13.4298 41.4333Z" fill="#F36260"/>
<path d="M63.6424 37.9284L63.0817 37.9578L62.6143 37.637C62.7191 36.7493 62.9287 36.5355 63.4852 36.7085L63.6424 37.9284Z" fill="#F36260"/>
<path d="M12.6881 41.1062L12.0541 41.1858L11.3015 41.4164C11.0081 40.9531 11.4996 40.6461 11.5332 40.2488L12.6881 41.1062Z" fill="#E13D3C"/>
<path d="M2.73633 43.5304L3.51714 43.9192C3.34735 44.8321 3.19014 45.0239 2.73633 44.896V43.5304Z" fill="#E13D3C"/>
<path d="M57.3159 28.5198C57.3557 28.4297 57.3788 28.2746 57.4396 28.2589C57.9982 28.11 58.0139 27.5504 58.2781 27.1835L58.6973 27.6803L57.6136 28.6341L57.3159 28.5198Z" fill="#738665"/>
<path d="M51.4678 26.1344C51.5376 25.9248 51.6054 25.7131 51.6711 25.4992L52.9215 25.385C52.9445 25.4898 52.9676 25.5873 52.9896 25.689L52.4173 25.8042L51.4678 26.1344Z" fill="#AD2020"/>
<path d="M50.0915 26.9833C50.343 27.1049 50.4594 27.2547 50.2822 27.5429C50.1567 27.7799 50.0471 28.025 49.9542 28.2766L49.5664 28.2022L50.0915 26.9833Z" fill="#AD2020"/>
<path d="M63.0706 33.9793L62.3369 33.646L62.7813 32.6273C62.8777 33.0786 62.9741 33.5293 63.0706 33.9793Z" fill="#F36260"/>
<path d="M62.3542 31.5687L61.4707 31.27C61.5755 31.0038 61.651 30.8172 61.7264 30.6307L62.3542 31.5687Z" fill="#F36260"/>
<path d="M3.97602 38.2544L3.6616 39.4073L3.21826 39.3098L3.97602 38.2544Z" fill="#E13D3C"/>
<path d="M49.4376 28.5544C49.7593 28.938 49.5287 29.6853 49.0288 29.875L49.4376 28.5544Z" fill="#AD2020"/>
<path d="M6.17749 37.9746C6.0056 38.1842 6.14814 38.7722 5.56436 38.4724L5.45117 37.8436L5.75616 37.8509L6.17749 37.9746Z" fill="#E13D3C"/>
<path d="M60.7878 29.5773L59.833 29.2325L60.05 28.8248L60.7878 29.5773Z" fill="#E13D3C"/>
<path d="M60.909 29.6821L60.7822 29.5773L60.909 29.6821Z" fill="#E13D3C"/>
<path d="M56.9586 13.5302L56.7993 13.4369L56.9586 13.5302Z" fill="#DF9E36"/>
<path d="M62.4378 31.6788L62.354 31.5687L62.4378 31.6788Z" fill="#F36260"/>
<path d="M39.7158 23.7008C39.3217 23.9974 39.0293 23.7186 38.7421 23.5111C37.6773 22.7439 36.8954 21.7294 36.2267 20.6142C35.6744 19.6898 34.9376 18.9719 33.9283 18.5736C33.6991 18.4953 33.4576 18.4598 33.2156 18.4688C26.8454 18.4688 20.4752 18.4929 14.106 18.4478C12.1493 18.4332 10.3172 17.8997 8.95265 16.3517C8.72836 16.0959 8.63823 15.7228 8.4873 15.4C10.1642 17.2027 12.2541 17.8326 14.6709 17.7655C17.2188 17.6943 19.7698 17.7655 22.3219 17.7655C26.3214 17.7697 30.3212 17.7697 34.3213 17.7655C34.7406 17.7655 34.9711 17.885 35.1598 18.2822C36.1932 20.4947 37.6741 22.3383 39.7158 23.7008Z" fill="#DEE0DF"/>
<path d="M44.8512 15.857C44.5032 16.2762 44.215 16.7667 43.7926 17.0801C43.3 17.4459 42.7089 17.7089 42.1273 17.9186C41.5728 18.1187 41.0792 18.3556 40.6778 18.8021C40.552 18.9436 40.3371 19.0117 40.1621 19.105C40.2009 17.8379 40.2061 17.8641 41.4198 17.6157C42.6991 17.3435 43.8832 16.7366 44.8512 15.857V15.857Z" fill="#DEE0DF"/>
<path d="M50.1015 47.185C50.81 48.3253 51.8685 48.9604 53.1409 49.2958C53.208 49.3126 53.2698 49.3493 53.3369 49.365C54.3483 49.5998 54.3242 49.6008 54.3996 50.6227C54.4835 51.7598 54.6155 52.8939 54.7266 54.0289L53.2268 65.3167C52.9386 64.1722 52.6913 63.0109 52.3549 61.8853C51.6023 59.3521 50.4683 56.974 49.2725 54.6284C49.3773 53.79 49.4821 52.9452 49.5733 52.1026C49.7504 50.4686 49.9244 48.8273 50.1015 47.185Z" fill="#24874C"/>
<path d="M55.3458 29.484L56.2692 29.3342L57.1139 29.6821L56.8844 30.2062L55.8101 29.744C55.6456 30.1139 55.4957 30.4514 55.3186 30.8455L56.4851 31.359C56.44 31.7206 56.4169 32.0875 56.3446 32.4438C56.2289 33.0797 56.0813 33.7093 55.9023 34.3303C55.7692 34.7622 55.4265 34.6584 55.1173 34.4959C55.4611 33.3431 55.4611 33.3431 54.3334 32.9238L54.0745 34.1889C53.4561 34.0442 52.8346 33.909 52.2226 33.7434C52.1638 33.7184 52.1123 33.6792 52.0726 33.6292C52.0329 33.5792 52.0062 33.5201 51.9951 33.4573C52.014 33.0213 52.0915 32.5874 52.1177 32.1514C52.1356 31.8495 52.1052 31.5435 52.0957 31.2396L52.5978 31.38L53.0746 30.2848L52.3074 29.9127C52.3504 29.7523 52.3944 29.592 52.4374 29.4316L53.2832 29.7754C53.3807 29.5805 53.4645 29.4149 53.5484 29.2514L54.0724 29.0533C53.9865 29.3824 53.8995 29.7104 53.8062 30.0636C53.9634 30.1454 54.13 30.2376 54.3009 30.3215C54.4717 30.4053 54.6405 30.4776 54.8448 30.5719L55.3458 29.484ZM54.1384 32.1881C54.2611 31.9334 54.3596 31.6923 54.4895 31.4701C54.6688 31.1631 54.5744 30.9901 54.2642 30.8727C54.1028 30.812 53.9571 30.6925 53.7926 30.6568C53.7317 30.6475 53.6695 30.652 53.6107 30.6702C53.5519 30.6883 53.498 30.7196 53.453 30.7616C52.9751 31.3905 53.0442 31.6756 53.737 32.013C53.8586 32.0717 53.9854 32.122 54.1384 32.1881ZM55.0817 31.2857C54.9517 31.7343 54.7086 32.1357 54.7872 32.4585C54.8385 32.6681 55.4905 32.9741 55.634 32.8777C55.9202 32.687 56.0407 32.2489 56.2503 31.8758L55.0817 31.2857ZM53.4111 33.7906C54.0808 32.709 54.0158 32.5256 52.8378 32.1944C52.6869 32.5402 52.5328 32.8934 52.3661 33.2781L53.4111 33.7906Z" fill="#738665"/>
<path d="M54.0742 34.1888L54.3352 32.9249C55.4629 33.3378 55.4629 33.3378 55.1191 34.497L54.2933 34.2874L54.0742 34.1888Z" fill="#E13D3C"/>
<path d="M56.4851 31.3591L55.3154 30.8518C55.4915 30.4578 55.6424 30.1182 55.807 29.7503L56.8844 30.2062C56.8142 30.441 56.745 30.6758 56.6748 30.9116L56.6119 31.0478L56.4851 31.3591Z" fill="#E13D3C"/>
<path d="M57.645 34.519C57.7793 34.5994 57.9194 34.6695 58.0642 34.7287C58.5747 34.8922 58.6522 35.1615 58.4258 35.6562C58.2361 36.0754 58.038 36.1802 57.6544 35.957C57.651 35.477 57.6478 34.9977 57.645 34.519Z" fill="#E13D3C"/>
<path d="M53.5509 29.2493C53.4671 29.4149 53.3832 29.5805 53.2857 29.7733L52.4399 29.4296C52.5054 29.0832 52.5883 28.7404 52.6883 28.4024C52.7187 28.3113 52.9126 28.2756 53.0321 28.2148H53.0269L53.1212 28.3039L53.5509 29.2493Z" fill="#E13D3C"/>
<path d="M59.3149 37.3331V36.7043L60.3159 37.0638C60.0014 37.4694 60.1482 38.071 59.512 38.1842L59.4072 37.8949C59.3778 37.7052 59.3464 37.5165 59.3149 37.3331Z" fill="#F36260"/>
<path d="M52.3084 29.9127L53.0756 30.2848L52.5987 31.38L52.0967 31.2396C52.1679 30.7973 52.2385 30.355 52.3084 29.9127Z" fill="#E13D3C"/>
<path d="M57.1138 29.6822L56.269 29.33L57.3171 28.5157L57.6148 28.6331L57.1138 29.6822Z" fill="#E13D3C"/>
<path d="M50.7311 30.4504L50.293 30.311C50.2972 29.8917 50.3007 29.4725 50.3035 29.0533L50.9155 29.1581C50.8554 29.5899 50.7939 30.0207 50.7311 30.4504Z" fill="#E13D3C"/>
<path d="M51.4684 26.1344L52.4179 25.8053L51.7692 26.9571L51.2451 26.8649L51.4684 26.1344Z" fill="#E13D3C"/>
<path d="M51.1287 28.6225C50.8625 28.611 50.5627 28.6225 50.6329 28.2201C50.7451 27.5671 50.9882 27.3564 51.4389 27.4864C51.3355 27.8644 51.2321 28.2431 51.1287 28.6225Z" fill="#E13D3C"/>
<path d="M59.0008 29.286C59.2953 29.7723 58.8111 30.0763 58.7063 30.4682C58.7063 30.4766 58.4967 30.4295 58.3804 30.4085C58.5844 30.0347 58.7912 29.6605 59.0008 29.286Z" fill="#E13D3C"/>
<path d="M59.3151 37.3331C59.3476 37.5207 59.3791 37.7093 59.4115 37.8969L58.332 37.0323L59.3151 37.3331Z" fill="#E13D3C"/>
<path d="M50.2055 30.9607L50.5922 30.946C50.5881 31.1787 50.5842 31.4117 50.5807 31.6451C50.4528 31.8254 50.326 32.0067 50.1992 32.187L50.2055 30.9607Z" fill="#E13D3C"/>
<path d="M50.2062 33.5601C50.3138 33.4204 50.4214 33.2806 50.529 33.1409C50.4214 33.7697 50.3131 34.3951 50.2041 35.0169C50.2055 34.5278 50.2062 34.0422 50.2062 33.5601Z" fill="#E13D3C"/>
<path d="M54.0742 34.1888L54.2943 34.2853L54.0742 34.1888Z" fill="#738665"/>
<path d="M56.6118 31.052L56.6747 30.9157L56.6118 31.052Z" fill="#738665"/>
<path d="M13.6418 48.9982C13.645 49.0072 13.6455 49.017 13.6433 49.0263C13.641 49.0356 13.6361 49.0441 13.6292 49.0506L12.0466 49.5956C11.9093 49.3598 11.3559 49.4332 11.5991 48.8987C11.9491 48.1315 11.9198 48.1157 12.6796 48.4983C13.0024 48.6607 13.321 48.8305 13.6418 48.9982Z" fill="#E13D3C"/>
<path d="M5.56047 48.3106L4.40234 47.9187C4.57004 47.4994 4.73703 47.0781 4.90332 46.6547V46.6463L6.08555 47.1085L5.56047 48.3106Z" fill="#E13D3C"/>
<path d="M4.78457 41.3158L4.47014 41.845C4.29054 41.7492 4.10541 41.6642 3.91571 41.5904C3.43255 41.4353 3.4336 41.1711 3.58347 40.7257C3.85388 39.9208 4.28883 40.4385 4.67766 40.5161L4.78457 41.3158Z" fill="#E13D3C"/>
<path d="M8.68631 42.6573C8.80406 42.6786 8.92003 42.7087 9.03323 42.7475C9.72076 43.042 9.81823 43.4581 9.31621 44.0282C9.26835 44.0667 9.21197 44.0931 9.1518 44.1054C9.09163 44.1176 9.02941 44.1152 8.97034 44.0985C8.70098 43.9936 8.4463 43.8427 8.18848 43.7096C8.2587 43.4486 8.31948 43.2212 8.38027 42.9938L8.68631 42.6573Z" fill="#E13D3C"/>
<path d="M5.82959 40.0675C5.9344 39.8579 6.0392 39.6399 6.17336 39.3768L7.28327 39.9114L6.81583 41.0213L5.9061 40.644C5.88095 40.4522 5.85474 40.2593 5.82959 40.0675Z" fill="#E13D3C"/>
<path d="M7.96637 41.6512C7.84936 41.5774 7.72751 41.5116 7.60163 41.4542C7.3218 41.3494 7.28721 41.1775 7.42556 40.9301C7.5639 40.6828 7.65718 40.4354 7.7861 40.1535L8.88238 40.687L7.96637 41.6512Z" fill="#E13D3C"/>
<path d="M5.56018 48.3106L6.08946 47.1043L4.90723 46.6421C5.01203 46.473 5.11684 46.3043 5.22165 46.1359L6.09155 46.5551L6.38711 47.7373C6.2823 47.9731 6.17016 48.21 6.06116 48.4469L5.56018 48.3106Z" fill="#738665"/>
<path d="M7.19238 45.8226C7.38869 45.8789 7.57924 45.9536 7.76149 46.0458C7.94804 46.1611 8.26771 46.4032 8.24046 46.465C8.09792 46.8015 8.13565 47.2867 7.63991 47.3957C7.49108 46.8724 7.34191 46.348 7.19238 45.8226Z" fill="#E13D3C"/>
<path d="M5.13585 44.1604L4.73129 43.9361L4.28271 43.6887C4.39813 43.3848 4.52931 43.0871 4.67574 42.7968C4.72081 42.7182 4.90527 42.7172 5.0258 42.6805L5.13585 44.1604Z" fill="#E13D3C"/>
<path d="M7.92334 48.558C8.02815 48.2373 8.20842 48.1555 8.50921 48.3484C8.72617 48.4846 8.96198 48.5905 9.19361 48.712C9.12443 48.9216 9.06469 49.1009 9.006 49.2801C8.12457 49.2581 7.99985 49.1763 7.92334 48.558Z" fill="#E13D3C"/>
<path d="M3.98427 45.5281C3.66985 45.397 3.56504 45.2021 3.75683 44.8814C3.86882 44.664 3.9682 44.4404 4.05449 44.2117L4.81539 44.5649L3.98427 45.5281Z" fill="#E13D3C"/>
<path d="M10.2651 41.3378C10.197 41.7497 10.1299 42.1616 10.0555 42.6479L9.19922 42.259L10.2651 41.3378Z" fill="#E13D3C"/>
<path d="M6.09207 46.5562L5.22217 46.1369L5.70323 45.3771L5.84577 45.3938C5.92682 45.7823 6.00892 46.1698 6.09207 46.5562Z" fill="#E13D3C"/>
<path d="M9.4834 49.3944L9.72445 48.9332C10.0242 49.2539 10.609 49.1177 10.6782 49.6941L9.4834 49.3944Z" fill="#E13D3C"/>
<path d="M4.90283 46.6505C4.73653 47.0697 4.56954 47.4911 4.40185 47.9145L3.86523 47.7678L4.90283 46.6505Z" fill="#738665"/>
<path d="M5.97705 41.2245L6.64782 41.5495L6.08395 42.3533L5.97705 41.2245Z" fill="#E13D3C"/>
<path d="M6.70117 42.7894C6.80598 42.475 6.91079 42.1606 7.01559 41.8262L7.55116 41.9457L6.70117 42.7894Z" fill="#E13D3C"/>
<path d="M4.61758 39.9533L4.05371 39.6661L4.48657 38.8172C4.53059 39.1973 4.57426 39.576 4.61758 39.9533Z" fill="#E13D3C"/>
<path d="M6.0625 48.4427C6.16731 48.2058 6.27945 47.969 6.38845 47.7332C6.48488 48.0172 6.58235 48.3012 6.72803 48.7278L6.0625 48.4427Z" fill="#E13D3C"/>
<path d="M7.43522 43.9066C7.25915 44.2699 7.08272 44.6333 6.90595 44.9966C6.70157 44.4149 6.7655 44.2829 7.43522 43.9066Z" fill="#E13D3C"/>
<path d="M6.70896 42.9099V42.7831C6.70791 42.8261 6.70896 42.868 6.70896 42.9099Z" fill="#E13D3C"/>
<path d="M19.5233 80.4876C18.4522 79.7896 17.3486 79.1356 16.3225 78.3757C15.7618 77.9565 15.3331 77.3664 14.8447 76.8529C15.7964 77.2302 16.7375 77.64 17.7039 77.9785C20.1606 78.8512 22.7219 79.395 25.3213 79.5957C27.2119 79.7435 29.113 79.6905 30.9924 79.4374C33.6029 79.0865 36.1205 78.2322 38.4055 76.9221C39.8205 76.1238 41.0756 75.0706 42.1073 73.8156C43.4551 72.1565 43.801 70.1473 43.8963 68.0931C44.0137 65.5777 43.6658 63.1032 43.1753 60.6444C42.4961 57.2413 41.4585 53.9441 40.2794 50.6877C40.1495 50.3313 39.9839 50.2852 39.6506 50.3974C37.1446 51.2495 34.6198 51.98 31.9325 52.0282C31.0815 52.0439 30.2169 52.0491 29.5125 51.6351C28.2758 50.9067 27.1104 50.0505 25.9638 49.1827C25.2521 48.6439 24.6233 47.9816 23.9515 47.3726L25.0215 46.5478C25.8705 47.2353 26.7068 47.9396 27.5715 48.6073C29.2212 49.8807 31.0553 50.3177 33.1483 50.0526C36.0379 49.6857 38.7691 48.8116 41.469 47.7971C42.3955 47.4502 43.2801 46.9922 44.1877 46.5824L44.6897 47.0834C45.8751 48.9929 47.0678 50.8983 48.2437 52.8142C48.6074 53.4074 48.9281 54.0269 49.2677 54.6347C50.4678 56.9803 51.5976 59.3584 52.3501 61.8916C52.6865 63.0214 52.9339 64.1785 53.2221 65.323C53.2389 65.3859 53.2556 65.4488 53.2714 65.5117C53.3395 66.4832 53.4359 67.4548 53.4705 68.4274C53.5879 71.7634 52.7746 74.9003 51.3062 77.8664C50.4741 79.5433 48.9407 80.4866 47.3131 81.2611C45.2001 82.2704 42.9457 82.8049 40.641 83.1214C34.1178 84.0165 27.7329 83.4359 21.5084 81.2538C20.9351 81.0525 20.3702 80.8345 19.8011 80.6249L19.5915 80.5201C19.5837 80.5094 19.5735 80.5008 19.5616 80.4952C19.5496 80.4895 19.5365 80.4869 19.5233 80.4876V80.4876Z" fill="#6F3500"/>
<path d="M25.0221 46.5477L23.952 47.3726C23.3839 47.7415 22.8127 48.1062 22.2499 48.4814C21.8202 48.7696 21.402 49.0746 20.9786 49.3733C20.3906 49.6511 19.8089 49.9456 19.2126 50.2024C18.8688 50.3501 18.5009 50.4382 18.1436 50.5524C18.6697 49.184 18.8058 47.6964 18.5366 46.2553C20.0186 45.7313 21.5016 45.2188 22.9804 44.6905C23.0569 44.6633 23.0999 44.5417 23.1586 44.4652C23.4232 44.4467 23.6814 44.3759 23.9184 44.2568C24.1553 44.1377 24.3663 43.9727 24.5389 43.7714C24.8932 43.3878 25.3554 43.1037 25.7694 42.7757L27.9703 42.4822C28.2648 43.1624 27.6894 43.2222 27.1444 43.4391C27.6213 43.5177 27.9567 43.5439 28.2774 43.6309C29.6504 43.9883 30.0591 44.4432 29.9617 45.747C29.9459 45.9566 29.8967 46.1547 29.8631 46.358L29.5173 46.5676C29.2898 46.3287 29.0593 46.0929 28.8339 45.8518C28.5122 45.507 28.1516 45.3896 27.7114 45.6286C27.5134 45.7334 27.2922 45.8046 27.1036 45.9273C26.4866 46.3358 25.7621 46.5518 25.0221 46.5477V46.5477Z" fill="#F1C7A3"/>
<path d="M29.8642 46.3549C29.8978 46.1516 29.947 45.9493 29.9627 45.7439C30.0675 44.4401 29.6483 43.9852 28.2785 43.6278C27.9578 43.544 27.6224 43.5146 27.1455 43.436C27.6905 43.2191 28.2659 43.1593 27.9714 42.4791L33.1468 40.558C33.4843 40.4333 33.5199 40.1933 33.2338 40.0434C32.7569 39.7919 32.2444 39.5068 31.7256 39.4586C30.9395 39.3852 30.1346 39.5016 29.3381 39.5372L28.378 38.2795L27.7492 37.0009C27.9274 37.025 28.1234 37.0061 28.2732 37.0774C31.254 38.4489 34.2298 39.8268 37.2007 41.211C36.8685 41.9268 36.1715 41.9352 35.5385 42.0683C34.8887 41.9824 34.241 41.8817 33.5891 41.8241C33.4072 41.8201 33.2306 41.8848 33.0944 42.0054C32.8533 42.2234 32.6951 42.541 32.4393 42.7317C31.8807 43.151 31.2865 43.5125 30.6398 43.9381H33.4277C33.3732 44.089 33.3648 44.3154 33.2589 44.3783C32.1364 45.0511 30.9993 45.6999 29.8642 46.3549Z" fill="#FED38F"/>
<path d="M38.6596 41.6397C39.759 41.4951 40.8605 41.3117 41.9589 41.2205C42.4306 41.1838 42.9179 41.3483 43.3979 41.4207C43.4095 41.4615 43.422 41.5024 43.4346 41.5433L43.4262 41.5716C43.3288 41.5708 43.2319 41.5871 43.1401 41.6198C42.5532 41.952 41.9715 42.2937 41.3909 42.6364C40.7777 42.998 40.1667 43.3648 39.5546 43.7285C40.1437 44.1477 40.6792 44.5209 41.2148 44.8982L38.8042 45.941L33.6372 43.7264C33.7504 43.5493 33.8248 43.2852 33.9852 43.2118C34.3405 43.0494 34.7387 42.9833 35.1192 42.8775C35.4263 42.8775 35.7344 42.8775 36.0404 42.8618C36.2742 42.8471 36.5383 42.8618 36.7332 42.757C37.3893 42.4079 38.0192 42.0149 38.6596 41.6397Z" fill="#FED38F"/>
<path d="M37.2003 41.211C34.2266 39.8325 31.2522 38.4556 28.277 37.0806C28.1219 37.0093 27.9259 37.0282 27.753 37.004C27.5434 36.7462 27.7698 36.7305 27.9333 36.6896C29.976 36.1383 31.9914 36.066 33.8958 37.1476C34.6472 37.5753 35.3337 38.1182 36.0496 38.6076L37.2894 40.0581L37.2003 41.211Z" fill="#FBB64E"/>
<path d="M33.6368 43.7264L38.7986 45.9483L34.9993 47.4156C34.9993 47.3779 34.9993 47.3401 34.9993 47.3024C34.8253 47.0928 34.6506 46.8832 34.4753 46.6736L34.9186 46.4042L34.2656 45.8225C34.0476 45.5249 33.8286 45.2283 33.5676 44.8793C33.3968 45.2744 33.2532 45.6035 33.1128 45.9273L32.4839 46.8706L31.7419 47.8904C30.7682 47.8422 30.0534 47.3601 29.521 46.5688L29.8669 46.3591C30.9988 45.7041 32.1359 45.0553 33.2584 44.3804C33.3632 44.3175 33.3727 44.0911 33.4272 43.9402L33.6368 43.7264Z" fill="#FBB64E"/>
<path d="M29.3396 39.5341C30.1361 39.4984 30.9411 39.3821 31.7271 39.4554C32.2511 39.5037 32.7584 39.7887 33.2353 40.0403C33.5214 40.1901 33.4858 40.4302 33.1483 40.5549L27.9771 42.4791L25.7761 42.7726L25.0425 42.0505L26.0046 41.1072L27.5767 40.0675L29.3396 39.5341Z" fill="#FBB64E"/>
<path d="M25.0305 42.0494L25.7641 42.7715C25.3501 43.0996 24.8879 43.3836 24.5337 43.7672C24.3613 43.968 24.1509 44.1326 23.9145 44.2515C23.6781 44.3704 23.4205 44.4413 23.1565 44.46L21.292 41.8398C21.6884 41.8793 22.0886 41.8328 22.4654 41.7034C22.8421 41.5741 23.1866 41.365 23.4751 41.0904C23.5286 41.0412 23.6753 41.0957 23.7791 41.102L25.0305 42.0494Z" fill="#934700"/>
<path d="M37.2007 41.211L37.2887 40.0581C37.404 39.9082 37.513 39.752 37.6356 39.6074C38.1904 38.9534 38.747 38.3008 39.3052 37.6496C39.4289 38.8916 39.1826 40.0801 38.7917 41.2476C38.7487 41.3787 38.7026 41.5086 38.6586 41.6396C38.0182 42.0148 37.3883 42.4079 36.7322 42.7548C36.5373 42.8596 36.2731 42.8439 36.0394 42.8596C35.7334 42.8774 35.4253 42.8711 35.1182 42.8753C35.2579 42.6056 35.3977 42.3362 35.5374 42.0672C36.1725 41.9331 36.8695 41.9247 37.2007 41.211Z" fill="#DF9E36"/>
<path d="M41.2148 44.9024C40.6793 44.5251 40.1437 44.1488 39.5547 43.7327C40.1668 43.369 40.7778 42.9991 41.3909 42.6406C41.9715 42.2979 42.5532 41.9562 43.1401 41.624C43.232 41.5913 43.3288 41.575 43.4263 41.5758C43.1119 42.715 42.5302 43.7086 41.7902 44.6152C41.6655 44.764 41.4098 44.8091 41.2148 44.9024Z" fill="#FBB64E"/>
<path d="M29.3403 39.534L27.5585 40.0685C27.2619 39.8893 26.9674 39.7059 26.6666 39.533C26.0546 39.1808 25.4383 38.8349 24.8241 38.4849H24.8304L24.7612 38.3801C25.0348 38.313 25.3094 38.1883 25.5829 38.1893C26.5157 38.1893 27.4475 38.2417 28.3802 38.2732L29.3403 39.534Z" fill="#DF9E36"/>
<path d="M39.3058 37.6475C38.7469 38.3008 38.1903 38.9534 37.6362 39.6053C37.5136 39.7499 37.4046 39.9061 37.2893 40.056L36.0474 38.6012C37.0116 38.268 37.9737 37.9294 38.9411 37.6077C39.0449 37.5731 39.1822 37.6339 39.3058 37.6475Z" fill="#ECB670"/>
<path d="M24.8247 38.486C25.4389 38.835 26.0551 39.1808 26.6672 39.534C26.968 39.707 27.2625 39.8904 27.5591 40.0696L25.987 41.1093C25.6006 40.2366 25.2132 39.3622 24.8247 38.486Z" fill="#ECB670"/>
<path d="M31.7417 47.8863L32.4837 46.8707L34.9991 47.3035C34.9991 47.3413 34.9991 47.379 34.9991 47.4167C33.951 47.8244 32.8726 48.0372 31.7417 47.8863Z" fill="#DF9E36"/>
<path d="M36.0999 35.2202C37.0353 35.2202 37.7936 35.2048 37.7936 35.1857C37.7936 35.1665 37.0353 35.1511 36.0999 35.1511C35.1645 35.1511 34.4062 35.1665 34.4062 35.1857C34.4062 35.2048 35.1645 35.2202 36.0999 35.2202Z" fill="#794F2A"/>
<path d="M43.4346 41.5474C43.4221 41.5066 43.4095 41.4657 43.3979 41.4248C43.4105 41.4657 43.4221 41.5066 43.4346 41.5474Z" fill="#FBB64E"/>
<path d="M24.7622 38.3875L24.8314 38.4923L24.7622 38.3875Z" fill="#ECB670"/>
<path d="M4.81481 28.7326C7.12791 29.5711 9.4735 29.6098 11.8243 28.9422C12.3484 28.7934 12.8169 28.4601 13.3105 28.2086C13.6553 28.6026 13.496 28.8825 13.124 29.1455C12.2603 29.7566 11.2741 30.0196 10.2501 30.1517C8.43905 30.3865 6.6437 30.3676 4.90494 29.6926C4.77812 29.6423 4.65655 29.5794 4.48047 29.4987L4.81481 28.7326Z" fill="#794F2A"/>
<path d="M53.1311 16.4764C53.8029 16.8956 54.4286 17.4521 55.1591 17.7079C56.3685 18.1331 57.6158 18.4416 58.884 18.6291C59.5914 18.7339 60.3513 18.4709 61.0849 18.3744C61.2222 18.844 61.0126 19.0788 60.5693 19.2129C59.5579 19.5127 58.5402 19.4969 57.5204 19.3041C55.9001 18.998 54.3437 18.5191 53.0022 17.5056C52.8649 17.4008 52.737 17.2834 52.5337 17.1115L53.1311 16.4764Z" fill="#794F2A"/>
<path d="M57.6637 21.7052L57.2686 22.5636L57.125 22.5468V21.5333L57.6637 21.7052Z" fill="#653C14"/>
<path d="M41.3039 24.3223L41.3678 24.3946H41.2368C41.257 24.3685 41.2794 24.3443 41.3039 24.3223V24.3223Z" fill="#32A060"/>
<path d="M14.8672 42.6668L14.5622 43.1342L13.5142 42.6269C13.6336 42.3314 13.7426 42.0652 13.8506 41.7979L14.8672 42.6668Z" fill="#F36260"/>
<path d="M21.5044 40.8651C22.0211 40.4458 22.4581 40.427 23.2694 40.8735L21.5264 41.059L21.5044 40.8651Z" fill="#934700"/>
<path d="M9.56014 39.1661C9.40502 39.49 9.24571 39.8138 9.07278 40.1817C8.77827 40.0518 8.48481 39.9564 8.23432 39.7929C8.13999 39.7321 8.08654 39.5036 8.11694 39.3737C8.19384 39.11 8.29126 38.8528 8.4083 38.6044L9.56014 39.1661Z" fill="#E13D3C"/>
<path d="M7.97722 38.4587L7.47519 39.4345L6.37891 38.8843L6.69857 38.0867L7.97722 38.4587Z" fill="#E13D3C"/>
<path d="M16.8584 44.9369C16.9716 44.9369 17.1267 44.8981 17.1907 44.9558C17.6497 45.375 18.0899 45.8173 18.5364 46.2522C18.8056 47.6934 18.6695 49.181 18.1433 50.5493H18.136L18.0207 50.6437C17.4894 51.2515 17.2986 51.3176 16.5859 50.9874C16.0367 50.7328 15.519 50.412 14.9834 50.128C14.8264 50.0532 14.6927 49.9369 14.5968 49.7918C14.501 49.6466 14.4466 49.478 14.4395 49.3042C14.7958 48.4658 15.1438 47.621 15.5137 46.7888C15.6626 46.4556 15.8638 46.1453 16.0378 45.8236L16.8584 44.9369Z" fill="#F87878"/>
<path d="M13.883 44.7743C13.6063 44.6412 13.3935 44.527 13.1713 44.4337C12.8894 44.3163 12.8422 44.1581 12.9554 43.8646C13.2447 43.111 13.622 43.0104 14.2205 43.5837C14.2552 43.6345 14.2779 43.6925 14.2868 43.7533C14.2957 43.8142 14.2906 43.8763 14.2718 43.9348C14.1723 44.2126 14.0297 44.4704 13.883 44.7743Z" fill="#F36260"/>
<path d="M11.6483 42.2968L12.8515 42.8879C12.6419 43.2578 12.5193 43.675 12.2395 43.8877C12.1179 43.98 11.4712 43.6991 11.4272 43.5041C11.3496 43.1583 11.5488 42.7506 11.6483 42.2968Z" fill="#F36260"/>
<path d="M14.7863 43.8585L16 44.4663C15.782 44.8374 15.651 45.2545 15.3711 45.4568C15.2412 45.548 14.6123 45.2639 14.561 45.0616C14.474 44.7326 14.6794 44.3311 14.7863 43.8585Z" fill="#F36260"/>
<path d="M13.6186 48.6365L12.9897 48.1282L13.5033 47.1336L14.5671 47.6576L14.086 48.7571L13.6186 48.6365Z" fill="#F36260"/>
<path d="M10.5908 45.1832L10.9849 43.936C11.184 44.0177 11.3098 44.0617 11.4282 44.1194C12.143 44.4684 12.2101 44.7053 11.7353 45.3582C11.6703 45.4473 11.445 45.4756 11.3161 45.4473C11.0689 45.3785 10.8271 45.2912 10.5929 45.1863L10.5908 45.1832Z" fill="#F36260"/>
<path d="M14.1867 45.5186C14.3387 45.5846 14.4645 45.6339 14.586 45.6926C15.2715 46.0259 15.3459 46.3277 14.869 46.943C14.824 46.9856 14.7697 47.0172 14.7105 47.0354C14.6512 47.0535 14.5885 47.0578 14.5273 47.0478C14.3628 47.0132 14.2182 46.8947 14.0568 46.8329C13.7497 46.7155 13.6543 46.5405 13.8325 46.2365C13.9635 46.0112 14.063 45.7712 14.1867 45.5186Z" fill="#F36260"/>
<path d="M12.5705 44.7744C13.7653 45.0983 13.8282 45.2586 13.1574 46.3549C13.0002 46.2857 12.8315 46.2166 12.669 46.1369C12.5066 46.0573 12.3337 45.9619 12.1094 45.8435C12.2739 45.4682 12.4259 45.115 12.5705 44.7744Z" fill="#F36260"/>
<path d="M12.5707 47.839L11.8371 47.0855L11.6274 46.7805L11.9419 46.3508L12.9899 46.8706C12.8401 47.2175 12.707 47.5288 12.5707 47.839Z" fill="#F36260"/>
<path d="M11.6268 46.7805L11.8364 47.0855C11.7525 47.3109 11.6362 47.4419 11.3857 47.2668C11.2876 47.1966 11.1795 47.1415 11.065 47.1033C10.6552 46.9671 10.5818 46.7208 10.7883 46.3561C10.8563 46.2197 10.9168 46.0797 10.9696 45.9368C11.1677 45.9903 11.4182 45.9536 11.349 46.3236C11.326 46.4514 11.522 46.6254 11.6268 46.7805Z" fill="#E13D3C"/>
<path d="M10.272 42.977L10.8935 41.9037C11.1597 42.0086 11.2844 42.1511 11.1167 42.4456C10.9836 42.6793 10.8861 42.933 10.7593 43.2076L10.272 42.977Z" fill="#F36260"/>
<path d="M10.2648 44.6697L9.69775 44.4915L10.1526 43.5063C10.4524 43.5786 10.5289 43.74 10.4083 44.0303C10.3418 44.2388 10.2938 44.4527 10.2648 44.6697V44.6697Z" fill="#E13D3C"/>
<path d="M16.8587 44.9368L16.0454 45.8225C16.1387 45.3896 16.0716 44.8561 16.7067 44.7597C16.7633 44.8205 16.8084 44.8792 16.8587 44.9368Z" fill="#F36260"/>
<path d="M10.3527 44.7535L10.2646 44.6697L10.3527 44.7535Z" fill="#E13D3C"/>
<path d="M59.7049 30.9283L60.7959 31.4701L60.3274 32.5696C59.1054 32.209 59.0331 32.0235 59.7049 30.9283Z" fill="#F36260"/>
<path d="M60.7686 32.862C60.953 32.4522 61.1071 32.1106 61.2832 31.7217L62.3637 32.2625L61.8711 33.3924L60.7686 32.862Z" fill="#F36260"/>
<path d="M60.5157 33.2865C60.9286 33.4961 61.1917 33.6208 61.4526 33.755C61.5346 33.8089 61.613 33.8681 61.6874 33.9321C61.4872 34.2654 61.3541 34.6825 61.068 34.8754C60.9338 34.9687 60.2924 34.6783 60.2578 34.4918C60.1929 34.1449 60.4025 33.7435 60.5157 33.2865Z" fill="#F36260"/>
<path d="M62.0161 37.3719L60.9575 36.8374C61.121 36.46 61.2646 36.133 61.405 35.8102C62.5642 36.0251 62.6439 36.2106 62.0161 37.3719Z" fill="#F36260"/>
<path d="M58.7808 33.1167C58.7808 33.0182 58.786 32.9207 58.7881 32.8233C58.9023 32.5937 59.0438 32.4879 59.2943 32.6661C59.4375 32.7633 59.5924 32.8418 59.7555 32.8998C60.0573 33.0151 60.094 33.1943 59.9441 33.4636C59.8205 33.6869 59.7272 33.9269 59.6025 34.1973L58.8866 33.8829C58.851 33.6282 58.8164 33.3725 58.7808 33.1167Z" fill="#F36260"/>
<path d="M59.2896 36.0807C59.5715 35.6551 59.7182 35.2212 60.0106 35.0735C60.1815 34.9875 60.7443 35.2998 60.8334 35.5409C60.9225 35.782 60.6688 36.3877 60.4906 36.4202C60.1615 36.48 59.7769 36.2379 59.2896 36.0807Z" fill="#F36260"/>
<path d="M58.7812 33.1166C58.8168 33.3723 58.8514 33.6281 58.886 33.8838L58.93 34.5127C58.6261 34.3932 58.3012 34.303 58.0245 34.1416C57.9291 34.0882 57.8662 33.8461 57.8997 33.7224C57.971 33.4583 58.1156 33.2141 58.2498 32.9175L58.7812 33.1166Z" fill="#E13D3C"/>
<path d="M60.4424 30.1014L61.197 30.2062C61.1582 30.4483 61.1195 30.6904 61.0534 31.096L59.8481 30.2785L60.4424 30.1014Z" fill="#F36260"/>
<path d="M61.8416 38.0563L60.3555 38.2764L60.7569 37.2514L61.8416 38.0563Z" fill="#F36260"/>
<path d="M60.4427 30.1014L59.8484 30.2837L59.3149 30.6254L59.621 29.6266L60.4427 30.1014Z" fill="#E13D3C"/>
<path d="M59.2104 36.5994L58.6099 36.438L59.0888 35.4696C59.1301 35.8483 59.1706 36.2249 59.2104 36.5994Z" fill="#E13D3C"/>
<path d="M59.2178 30.8015L59.3142 30.6254L59.2178 30.8015Z" fill="#E13D3C"/>
<path d="M59.3153 36.7043L59.2104 36.5995L59.3153 36.7043Z" fill="#E13D3C"/>
<path d="M10.5665 45.4128L10.1598 46.6243L9.01953 46.0835C9.17989 45.7062 9.33396 45.3499 9.49326 44.9684L10.5665 45.4159V45.4128Z" fill="#E13D3C"/>
<path d="M9.0577 44.6571L8.53367 45.8749C8.17208 45.6401 7.7256 45.4955 7.57677 45.201C7.47197 45.004 7.75599 44.3625 7.93836 44.328C8.26641 44.2703 8.65 44.5198 9.0577 44.6571Z" fill="#E13D3C"/>
<path d="M10.3699 47.3475L11.4651 47.9009C11.3047 48.2761 11.157 48.6177 10.9861 49.0139L9.90137 48.4689L10.3699 47.3475Z" fill="#E13D3C"/>
<path d="M8.81126 46.5792C9.13092 46.7333 9.44011 46.8255 9.66544 47.0163C9.77025 47.1012 9.75138 47.402 9.69374 47.5718C9.62457 47.7814 9.41914 48.1272 9.3332 48.1094C9.01878 48.0486 8.73265 47.8684 8.44967 47.708C8.40461 47.6818 8.40146 47.5141 8.4329 47.4324C8.53666 47.163 8.66558 46.902 8.81126 46.5792Z" fill="#E13D3C"/>
<path d="M55.3461 29.484L54.8482 30.5698C54.6386 30.4755 54.472 30.4011 54.3043 30.3193C54.1366 30.2376 53.9668 30.1433 53.8096 30.0615C53.9028 29.7083 53.9898 29.3803 54.0758 29.0512V29.0564L54.1806 28.9453L54.1795 28.9485L55.1228 29.2629V29.2576L55.2339 29.3771L55.3461 29.484Z" fill="#E13D3C"/>
<path d="M55.1225 29.263L54.1792 28.9486L54.7148 28.5513L55.1225 29.263Z" fill="#738665"/>
<path d="M55.2274 29.3803L55.1226 29.2629L55.2274 29.3803Z" fill="#738665"/>
<path d="M54.179 28.9486L54.0742 29.0534L54.179 28.9486Z" fill="#738665"/>
<path d="M53.1165 28.3008L53.0264 28.2148L53.1165 28.3008Z" fill="#329F5F"/>
<path d="M50.2062 30.9609L50.1967 32.1871L49.0596 31.8538C49.2807 30.7062 49.3792 30.637 50.2062 30.9609Z" fill="#AD2020"/>
<path d="M50.3015 29.0533C50.3015 29.4725 50.298 29.8917 50.2911 30.311C49.9169 30.3634 49.6622 30.2795 49.8498 29.8362C49.9836 29.5659 50.1345 29.3044 50.3015 29.0533V29.0533Z" fill="#AD2020"/>
<path d="M29.2467 9.6974C29.2467 10.1439 28.9229 10.5128 28.5382 10.5013C28.1725 10.4908 27.8675 10.1365 27.8633 9.71522C27.8633 9.25616 28.162 8.92288 28.5781 8.92916C28.9659 8.93021 29.2457 9.25721 29.2467 9.6974Z" fill="#32A060"/>
<path d="M37.1625 8.9303C37.5503 8.9303 37.8364 9.25101 37.8406 9.69015C37.8448 10.1293 37.5262 10.5087 37.1416 10.5045C36.7758 10.5045 36.4656 10.1482 36.4582 9.72684C36.4488 9.26463 36.7464 8.9303 37.1625 8.9303Z" fill="#32A060"/>
<path d="M25.1201 9.26138C25.3528 9.14819 25.5865 8.94696 25.8202 8.94696C26.0298 8.94696 26.2395 9.16601 26.4491 9.28863L26.3726 9.43117H25.2071L25.1201 9.26138Z" fill="#32A060"/>
<path d="M41.0522 9.26562C41.2702 9.15033 41.4872 8.9512 41.7062 8.94491C41.9253 8.93862 42.1517 9.13985 42.3749 9.24466L42.3183 9.40816H41.1319L41.0522 9.26562Z" fill="#32A060"/>
<path d="M14.6111 9.43232H13.4488L13.3691 9.28559C13.5788 9.16297 13.7947 8.94287 14.0043 8.94602C14.2338 8.94602 14.4602 9.16192 14.6887 9.28245L14.6111 9.43232Z" fill="#32A060"/>
<path d="M32.205 9.69015C32.2123 10.1786 31.9419 10.4982 31.5154 10.5056C31.1349 10.5118 30.8414 10.1807 30.8299 9.73312C30.8184 9.2856 31.1213 8.9303 31.5405 8.9303C31.9597 8.9303 32.1987 9.21433 32.205 9.69015Z" fill="#32A060"/>
<path d="M54.138 32.1881C53.9849 32.1221 53.8581 32.0717 53.7366 32.013C53.0438 31.6756 52.9746 31.3936 53.4525 30.7616C53.4975 30.7196 53.5514 30.6883 53.6103 30.6702C53.6691 30.652 53.7313 30.6475 53.7921 30.6568C53.9567 30.6925 54.1065 30.812 54.2637 30.8727C54.5782 30.9901 54.6683 31.1631 54.4891 31.4701C54.3591 31.6923 54.2606 31.9334 54.138 32.1881Z" fill="#E13D3C"/>
<path d="M55.0772 31.2858L56.2458 31.8769C56.0362 32.25 55.9157 32.6881 55.6296 32.8788C55.486 32.9742 54.8341 32.6692 54.7827 32.4596C54.7031 32.1358 54.9473 31.7343 55.0772 31.2858Z" fill="#E13D3C"/>
<path d="M53.407 33.7906L52.3589 33.2781C52.5255 32.8935 52.6796 32.5445 52.8305 32.1944C54.0117 32.5256 54.0746 32.709 53.407 33.7906Z" fill="#E13D3C"/>
<path d="M20.9787 49.3734C21.3979 49.0747 21.8171 48.7697 22.25 48.4815C22.8128 48.1042 23.384 47.7415 23.9521 47.3726C24.6207 47.9816 25.2485 48.6439 25.9665 49.1879C27.113 50.0557 28.2785 50.912 29.5152 51.6404C30.2195 52.0544 31.0874 52.0491 31.9352 52.0334C34.6194 51.9852 37.1473 51.2547 39.6533 50.4026C39.9845 50.2905 40.1501 50.3366 40.2821 50.6929C41.4612 53.9493 42.4988 57.2465 43.178 60.6496C43.6685 63.1084 44.0164 65.5861 43.899 68.0983C43.8036 70.1504 43.4578 72.1617 42.11 73.8208C41.0783 75.0758 39.8232 76.1291 38.4082 76.9273C36.1232 78.2375 33.6056 79.0917 30.9951 79.4427C29.1156 79.6957 27.2146 79.7488 25.324 79.6009C22.7244 79.3985 20.163 78.853 17.7066 77.9785C16.7402 77.64 15.7991 77.2302 14.8474 76.8529L14.685 76.7292C12.244 73.4896 11.9809 69.8475 12.724 66.0284C13.3812 62.6494 14.8464 59.5963 16.5841 56.6628C18.0283 54.2218 19.5124 51.8018 20.9787 49.3734Z" fill="#934700"/>
<path d="M18.021 50.6436L18.1321 50.5493L18.021 50.6436Z" fill="#F1C7A3"/>
<path d="M35.5388 42.0662C35.3991 42.3352 35.2594 42.6045 35.1196 42.8743C34.7392 42.9791 34.3409 43.0461 33.9856 43.2086C33.8252 43.282 33.7508 43.5461 33.6376 43.7232L33.428 43.9328H30.6401C31.2826 43.5073 31.8811 43.1436 32.4397 42.7265C32.6954 42.5357 32.8537 42.2182 33.0947 42.0002C33.2309 41.8796 33.4076 41.8148 33.5894 41.8188C34.2413 41.8796 34.8943 41.9802 35.5388 42.0662Z" fill="#ECB670"/>
<path d="M34.9993 47.2993L32.4839 46.8706L33.1127 45.9273L34.2426 45.9137L34.4805 46.6788C34.6538 46.8849 34.8267 47.0917 34.9993 47.2993Z" fill="#ECB670"/>
<path d="M34.2426 45.9095L33.1128 45.9273C33.2543 45.5983 33.3968 45.2692 33.5677 44.8793C33.8286 45.2335 34.0477 45.5301 34.2657 45.8225C34.2583 45.8487 34.25 45.8791 34.2426 45.9095Z" fill="#DF9E36"/>
<path d="M34.2427 45.9095C34.25 45.8791 34.2584 45.8487 34.2657 45.8183L34.9239 46.4052L34.4806 46.6746C34.4009 46.4199 34.3213 46.1642 34.2427 45.9095Z" fill="#FED38F"/>
</g>
<rect x="10" y="6" width="34" height="9" fill="#32A060"/>
<path d="M8.504 7.64H8.984V10.5824H10.8032V11H8.504V7.64ZM13.5532 9.7424C13.5532 9.7776 13.55 9.824 13.5436 9.8816H11.4796C11.5084 10.1056 11.606 10.2864 11.7724 10.424C11.942 10.5584 12.1516 10.6256 12.4012 10.6256C12.7052 10.6256 12.95 10.5232 13.1356 10.3184L13.39 10.616C13.2748 10.7504 13.1308 10.8528 12.958 10.9232C12.7884 10.9936 12.598 11.0288 12.3868 11.0288C12.118 11.0288 11.8796 10.9744 11.6716 10.8656C11.4636 10.7536 11.302 10.5984 11.1868 10.4C11.0748 10.2016 11.0188 9.9776 11.0188 9.728C11.0188 9.4816 11.0732 9.2592 11.182 9.0608C11.294 8.8624 11.446 8.7088 11.638 8.6C11.8332 8.488 12.0524 8.432 12.2956 8.432C12.5388 8.432 12.7548 8.488 12.9436 8.6C13.1356 8.7088 13.2844 8.8624 13.39 9.0608C13.4988 9.2592 13.5532 9.4864 13.5532 9.7424ZM12.2956 8.8208C12.0748 8.8208 11.8892 8.888 11.7388 9.0224C11.5916 9.1568 11.5052 9.3328 11.4796 9.5504H13.1116C13.086 9.336 12.998 9.1616 12.8476 9.0272C12.7004 8.8896 12.5164 8.8208 12.2956 8.8208ZM15.6235 10.8512C15.5563 10.9088 15.4731 10.9536 15.3739 10.9856C15.2747 11.0144 15.1723 11.0288 15.0667 11.0288C14.8107 11.0288 14.6123 10.96 14.4715 10.8224C14.3307 10.6848 14.2603 10.488 14.2603 10.232V8.8352H13.8283V8.456H14.2603V7.8992H14.7211V8.456H15.4507V8.8352H14.7211V10.2128C14.7211 10.3504 14.7547 10.456 14.8219 10.5296C14.8923 10.6032 14.9915 10.64 15.1195 10.64C15.2603 10.64 15.3803 10.6 15.4795 10.52L15.6235 10.8512ZM16.2958 7.4096C16.3854 7.4096 16.459 7.4416 16.5166 7.5056C16.5774 7.5664 16.6078 7.6432 16.6078 7.736C16.6078 7.784 16.603 7.832 16.5934 7.88C16.5838 7.9248 16.563 7.9904 16.531 8.0768L16.3006 8.7488H15.9982L16.1758 8.0336C16.115 8.0112 16.0654 7.9744 16.027 7.9232C15.9918 7.8688 15.9742 7.8064 15.9742 7.736C15.9742 7.64 16.0046 7.5616 16.0654 7.5008C16.1262 7.44 16.203 7.4096 16.2958 7.4096ZM17.918 11.0288C17.71 11.0288 17.51 11.0016 17.318 10.9472C17.126 10.8896 16.9756 10.8176 16.8668 10.7312L17.0588 10.3664C17.1708 10.4464 17.3068 10.5104 17.4668 10.5584C17.6268 10.6064 17.7884 10.6304 17.9516 10.6304C18.3548 10.6304 18.5564 10.5152 18.5564 10.2848C18.5564 10.208 18.5292 10.1472 18.4748 10.1024C18.4204 10.0576 18.3516 10.0256 18.2684 10.0064C18.1884 9.984 18.0732 9.96 17.9228 9.9344C17.718 9.9024 17.55 9.8656 17.4188 9.824C17.2908 9.7824 17.1804 9.712 17.0876 9.6128C16.9948 9.5136 16.9484 9.3744 16.9484 9.1952C16.9484 8.9648 17.0444 8.7808 17.2364 8.6432C17.4284 8.5024 17.686 8.432 18.0092 8.432C18.1788 8.432 18.3484 8.4528 18.518 8.4944C18.6876 8.536 18.8268 8.592 18.9356 8.6624L18.7388 9.0272C18.5308 8.8928 18.286 8.8256 18.0044 8.8256C17.8092 8.8256 17.6604 8.8576 17.558 8.9216C17.4556 8.9856 17.4044 9.0704 17.4044 9.176C17.4044 9.2592 17.4332 9.3248 17.4908 9.3728C17.5484 9.4208 17.6188 9.456 17.702 9.4784C17.7884 9.5008 17.9084 9.5264 18.062 9.5552C18.2668 9.5904 18.4316 9.6288 18.5564 9.6704C18.6844 9.7088 18.7932 9.776 18.8828 9.872C18.9724 9.968 19.0172 10.1024 19.0172 10.2752C19.0172 10.5056 18.918 10.6896 18.7196 10.8272C18.5244 10.9616 18.2572 11.0288 17.918 11.0288ZM23.8389 7.64V11H23.4453L21.4293 8.4944V11H20.9493V7.64H21.3429L23.3589 10.1456V7.64H23.8389ZM27.0766 9.7424C27.0766 9.7776 27.0734 9.824 27.067 9.8816H25.003C25.0318 10.1056 25.1294 10.2864 25.2958 10.424C25.4654 10.5584 25.675 10.6256 25.9246 10.6256C26.2286 10.6256 26.4734 10.5232 26.659 10.3184L26.9134 10.616C26.7982 10.7504 26.6542 10.8528 26.4814 10.9232C26.3118 10.9936 26.1214 11.0288 25.9102 11.0288C25.6414 11.0288 25.403 10.9744 25.195 10.8656C24.987 10.7536 24.8254 10.5984 24.7102 10.4C24.5982 10.2016 24.5422 9.9776 24.5422 9.728C24.5422 9.4816 24.5966 9.2592 24.7054 9.0608C24.8174 8.8624 24.9694 8.7088 25.1614 8.6C25.3566 8.488 25.5758 8.432 25.819 8.432C26.0622 8.432 26.2782 8.488 26.467 8.6C26.659 8.7088 26.8078 8.8624 26.9134 9.0608C27.0222 9.2592 27.0766 9.4864 27.0766 9.7424ZM25.819 8.8208C25.5982 8.8208 25.4126 8.888 25.2622 9.0224C25.115 9.1568 25.0286 9.3328 25.003 9.5504H26.635C26.6094 9.336 26.5214 9.1616 26.371 9.0272C26.2238 8.8896 26.0398 8.8208 25.819 8.8208ZM30.1501 8.456V10.6544C30.1501 11.0992 30.0397 11.4272 29.8189 11.6384C29.5981 11.8528 29.2685 11.96 28.8301 11.96C28.5901 11.96 28.3613 11.9264 28.1437 11.8592C27.9261 11.7952 27.7501 11.7024 27.6157 11.5808L27.8365 11.2256C27.9549 11.328 28.1005 11.408 28.2733 11.4656C28.4493 11.5264 28.6301 11.5568 28.8157 11.5568C29.1133 11.5568 29.3325 11.4864 29.4733 11.3456C29.6173 11.2048 29.6893 10.9904 29.6893 10.7024V10.5008C29.5805 10.632 29.4461 10.7312 29.2861 10.7984C29.1293 10.8624 28.9581 10.8944 28.7725 10.8944C28.5293 10.8944 28.3085 10.8432 28.1101 10.7408C27.9149 10.6352 27.7613 10.4896 27.6493 10.304C27.5373 10.1152 27.4813 9.9008 27.4813 9.6608C27.4813 9.4208 27.5373 9.208 27.6493 9.0224C27.7613 8.8336 27.9149 8.688 28.1101 8.5856C28.3085 8.4832 28.5293 8.432 28.7725 8.432C28.9645 8.432 29.1421 8.4672 29.3053 8.5376C29.4717 8.608 29.6077 8.712 29.7133 8.8496V8.456H30.1501ZM28.8253 10.4912C28.9917 10.4912 29.1405 10.456 29.2717 10.3856C29.4061 10.3152 29.5101 10.2176 29.5837 10.0928C29.6605 9.9648 29.6989 9.8208 29.6989 9.6608C29.6989 9.4144 29.6173 9.216 29.4541 9.0656C29.2909 8.912 29.0813 8.8352 28.8253 8.8352C28.5661 8.8352 28.3549 8.912 28.1917 9.0656C28.0285 9.216 27.9469 9.4144 27.9469 9.6608C27.9469 9.8208 27.9837 9.9648 28.0573 10.0928C28.1341 10.2176 28.2381 10.3152 28.3693 10.3856C28.5037 10.456 28.6557 10.4912 28.8253 10.4912ZM32.1202 11.0288C31.8674 11.0288 31.6402 10.9728 31.4386 10.8608C31.237 10.7488 31.0786 10.5952 30.9634 10.4C30.8514 10.2016 30.7954 9.9776 30.7954 9.728C30.7954 9.4784 30.8514 9.256 30.9634 9.0608C31.0786 8.8624 31.237 8.7088 31.4386 8.6C31.6402 8.488 31.8674 8.432 32.1202 8.432C32.373 8.432 32.5986 8.488 32.797 8.6C32.9986 8.7088 33.1554 8.8624 33.2674 9.0608C33.3826 9.256 33.4402 9.4784 33.4402 9.728C33.4402 9.9776 33.3826 10.2016 33.2674 10.4C33.1554 10.5952 32.9986 10.7488 32.797 10.8608C32.5986 10.9728 32.373 11.0288 32.1202 11.0288ZM32.1202 10.6256C32.2834 10.6256 32.429 10.5888 32.557 10.5152C32.6882 10.4384 32.7906 10.3328 32.8642 10.1984C32.9378 10.0608 32.9746 9.904 32.9746 9.728C32.9746 9.552 32.9378 9.3968 32.8642 9.2624C32.7906 9.1248 32.6882 9.0192 32.557 8.9456C32.429 8.872 32.2834 8.8352 32.1202 8.8352C31.957 8.8352 31.8098 8.872 31.6786 8.9456C31.5506 9.0192 31.4482 9.1248 31.3714 9.2624C31.2978 9.3968 31.261 9.552 31.261 9.728C31.261 9.904 31.2978 10.0608 31.3714 10.1984C31.4482 10.3328 31.5506 10.4384 31.6786 10.5152C31.8098 10.5888 31.957 10.6256 32.1202 10.6256ZM35.5078 10.8512C35.4406 10.9088 35.3574 10.9536 35.2582 10.9856C35.159 11.0144 35.0566 11.0288 34.951 11.0288C34.695 11.0288 34.4966 10.96 34.3558 10.8224C34.215 10.6848 34.1446 10.488 34.1446 10.232V8.8352H33.7126V8.456H34.1446V7.8992H34.6054V8.456H35.335V8.8352H34.6054V10.2128C34.6054 10.3504 34.639 10.456 34.7062 10.5296C34.7766 10.6032 34.8758 10.64 35.0038 10.64C35.1446 10.64 35.2646 10.6 35.3638 10.52L35.5078 10.8512ZM36.0649 8.456H36.5257V11H36.0649V8.456ZM36.2953 7.9664C36.2057 7.9664 36.1305 7.9376 36.0697 7.88C36.0121 7.8224 35.9833 7.752 35.9833 7.6688C35.9833 7.5856 36.0121 7.5152 36.0697 7.4576C36.1305 7.3968 36.2057 7.3664 36.2953 7.3664C36.3849 7.3664 36.4585 7.3952 36.5161 7.4528C36.5769 7.5072 36.6073 7.576 36.6073 7.6592C36.6073 7.7456 36.5769 7.8192 36.5161 7.88C36.4585 7.9376 36.3849 7.9664 36.2953 7.9664ZM38.332 8.432C38.684 8.432 38.9528 8.5184 39.1384 8.6912C39.3272 8.864 39.4216 9.1216 39.4216 9.464V11H38.9848V10.664C38.908 10.7824 38.7976 10.8736 38.6536 10.9376C38.5128 10.9984 38.3448 11.0288 38.1496 11.0288C37.8648 11.0288 37.636 10.96 37.4632 10.8224C37.2936 10.6848 37.2088 10.504 37.2088 10.28C37.2088 10.056 37.2904 9.8768 37.4536 9.7424C37.6168 9.6048 37.876 9.536 38.2312 9.536H38.9608V9.4448C38.9608 9.2464 38.9032 9.0944 38.788 8.9888C38.6728 8.8832 38.5032 8.8304 38.2792 8.8304C38.1288 8.8304 37.9816 8.856 37.8376 8.9072C37.6936 8.9552 37.572 9.0208 37.4728 9.104L37.2808 8.7584C37.412 8.6528 37.5688 8.5728 37.7512 8.5184C37.9336 8.4608 38.1272 8.432 38.332 8.432ZM38.2264 10.6736C38.4024 10.6736 38.5544 10.6352 38.6824 10.5584C38.8104 10.4784 38.9032 10.3664 38.9608 10.2224V9.8672H38.2504C37.86 9.8672 37.6648 9.9984 37.6648 10.2608C37.6648 10.3888 37.7144 10.4896 37.8136 10.5632C37.9128 10.6368 38.0504 10.6736 38.2264 10.6736ZM41.7047 10.8512C41.6375 10.9088 41.5543 10.9536 41.4551 10.9856C41.3559 11.0144 41.2535 11.0288 41.1479 11.0288C40.8919 11.0288 40.6935 10.96 40.5527 10.8224C40.4119 10.6848 40.3415 10.488 40.3415 10.232V8.8352H39.9095V8.456H40.3415V7.8992H40.8023V8.456H41.5319V8.8352H40.8023V10.2128C40.8023 10.3504 40.8359 10.456 40.9031 10.5296C40.9735 10.6032 41.0727 10.64 41.2007 10.64C41.3415 10.64 41.4615 10.6 41.5607 10.52L41.7047 10.8512ZM44.4766 9.7424C44.4766 9.7776 44.4734 9.824 44.467 9.8816H42.403C42.4318 10.1056 42.5294 10.2864 42.6958 10.424C42.8654 10.5584 43.075 10.6256 43.3246 10.6256C43.6286 10.6256 43.8734 10.5232 44.059 10.3184L44.3134 10.616C44.1982 10.7504 44.0542 10.8528 43.8814 10.9232C43.7118 10.9936 43.5214 11.0288 43.3102 11.0288C43.0414 11.0288 42.803 10.9744 42.595 10.8656C42.387 10.7536 42.2254 10.5984 42.1102 10.4C41.9982 10.2016 41.9422 9.9776 41.9422 9.728C41.9422 9.4816 41.9966 9.2592 42.1054 9.0608C42.2174 8.8624 42.3694 8.7088 42.5614 8.6C42.7566 8.488 42.9758 8.432 43.219 8.432C43.4622 8.432 43.6782 8.488 43.867 8.6C44.059 8.7088 44.2078 8.8624 44.3134 9.0608C44.4222 9.2592 44.4766 9.4864 44.4766 9.7424ZM43.219 8.8208C42.9982 8.8208 42.8126 8.888 42.6622 9.0224C42.515 9.1568 42.4286 9.3328 42.403 9.5504H44.035C44.0094 9.336 43.9214 9.1616 43.771 9.0272C43.6238 8.8896 43.4398 8.8208 43.219 8.8208Z" fill="white"/>
</svg>
