<svg xmlns="http://www.w3.org/2000/svg" xmlns:xlink="http://www.w3.org/1999/xlink" width="326.076" height="249.688" viewBox="0 0 326.076 249.688">
  <defs>
    <filter id="Rectangle_11496" x="151.37" y="39.947" width="19.81" height="165.768" filterUnits="userSpaceOnUse">
      <feOffset dy="3" input="SourceAlpha"/>
      <feGaussianBlur stdDeviation="3" result="blur"/>
      <feFlood flood-opacity="0.161"/>
      <feComposite operator="in" in2="blur"/>
      <feComposite in="SourceGraphic"/>
    </filter>
    <filter id="Rectangle_11497" x="169.202" y="100.619" width="19.81" height="114.257" filterUnits="userSpaceOnUse">
      <feOffset dy="3" input="SourceAlpha"/>
      <feGaussianBlur stdDeviation="3" result="blur-2"/>
      <feFlood flood-opacity="0.161"/>
      <feComposite operator="in" in2="blur-2"/>
      <feComposite in="SourceGraphic"/>
    </filter>
    <filter id="Path_29816" x="26.943" y="48.547" width="132.284" height="192.598" filterUnits="userSpaceOnUse">
      <feOffset dy="3" input="SourceAlpha"/>
      <feGaussianBlur stdDeviation="3" result="blur-3"/>
      <feFlood flood-opacity="0.161"/>
      <feComposite operator="in" in2="blur-3"/>
      <feComposite in="SourceGraphic"/>
    </filter>
    <filter id="Path_29817" x="165.748" y="57.545" width="132.359" height="189.981" filterUnits="userSpaceOnUse">
      <feOffset dy="3" input="SourceAlpha"/>
      <feGaussianBlur stdDeviation="3" result="blur-4"/>
      <feFlood flood-opacity="0.161"/>
      <feComposite operator="in" in2="blur-4"/>
      <feComposite in="SourceGraphic"/>
    </filter>
    <filter id="Path_29818" x="174.146" y="93.991" width="73.492" height="147.863" filterUnits="userSpaceOnUse">
      <feOffset dy="3" input="SourceAlpha"/>
      <feGaussianBlur stdDeviation="3" result="blur-5"/>
      <feFlood flood-opacity="0.161"/>
      <feComposite operator="in" in2="blur-5"/>
      <feComposite in="SourceGraphic"/>
    </filter>
    <filter id="Path_29820" x="82.66" y="58.746" width="72.992" height="184.384" filterUnits="userSpaceOnUse">
      <feOffset dy="3" input="SourceAlpha"/>
      <feGaussianBlur stdDeviation="3" result="blur-6"/>
      <feFlood flood-opacity="0.161"/>
      <feComposite operator="in" in2="blur-6"/>
      <feComposite in="SourceGraphic"/>
    </filter>
    <filter id="Path_29822" x="128.348" y="177.99" width="71.698" height="71.697" filterUnits="userSpaceOnUse">
      <feOffset dy="3" input="SourceAlpha"/>
      <feGaussianBlur stdDeviation="3" result="blur-7"/>
      <feFlood flood-opacity="0.161"/>
      <feComposite operator="in" in2="blur-7"/>
      <feComposite in="SourceGraphic"/>
    </filter>
    <filter id="Path_29823" x="0" y="0" width="73.729" height="73.729" filterUnits="userSpaceOnUse">
      <feOffset dy="3" input="SourceAlpha"/>
      <feGaussianBlur stdDeviation="3" result="blur-8"/>
      <feFlood flood-opacity="0.161"/>
      <feComposite operator="in" in2="blur-8"/>
      <feComposite in="SourceGraphic"/>
    </filter>
    <filter id="Path_29824" x="252.182" y="22.265" width="73.894" height="73.894" filterUnits="userSpaceOnUse">
      <feOffset dy="3" input="SourceAlpha"/>
      <feGaussianBlur stdDeviation="3" result="blur-9"/>
      <feFlood flood-opacity="0.161"/>
      <feComposite operator="in" in2="blur-9"/>
      <feComposite in="SourceGraphic"/>
    </filter>
    <filter id="Path_29825" x="206.8" y="67.845" width="61.472" height="61.472" filterUnits="userSpaceOnUse">
      <feOffset dy="3" input="SourceAlpha"/>
      <feGaussianBlur stdDeviation="3" result="blur-10"/>
      <feFlood flood-opacity="0.161"/>
      <feComposite operator="in" in2="blur-10"/>
      <feComposite in="SourceGraphic"/>
    </filter>
    <filter id="Path_29826" x="157.121" y="80.106" width="45.798" height="45.797" filterUnits="userSpaceOnUse">
      <feOffset dy="3" input="SourceAlpha"/>
      <feGaussianBlur stdDeviation="3" result="blur-11"/>
      <feFlood flood-opacity="0.161"/>
      <feComposite operator="in" in2="blur-11"/>
      <feComposite in="SourceGraphic"/>
    </filter>
    <filter id="Path_29827" x="66.949" y="40.402" width="52.316" height="52.316" filterUnits="userSpaceOnUse">
      <feOffset dy="3" input="SourceAlpha"/>
      <feGaussianBlur stdDeviation="3" result="blur-12"/>
      <feFlood flood-opacity="0.161"/>
      <feComposite operator="in" in2="blur-12"/>
      <feComposite in="SourceGraphic"/>
    </filter>
    <filter id="Path_29828" x="130.142" y="14.433" width="60.461" height="60.46" filterUnits="userSpaceOnUse">
      <feOffset dy="3" input="SourceAlpha"/>
      <feGaussianBlur stdDeviation="3" result="blur-13"/>
      <feFlood flood-opacity="0.161"/>
      <feComposite operator="in" in2="blur-13"/>
      <feComposite in="SourceGraphic"/>
    </filter>
  </defs>
  <g id="Group_32011" data-name="Group 32011" transform="translate(-24.462 -106.315)">
    <g id="Group_31985" data-name="Group 31985" transform="translate(1775.462 1275.315)">
      <g id="Group_31984" data-name="Group 31984" transform="translate(-1742 -1163)">
        <g id="Layer_4" data-name="Layer 4" transform="translate(26.942 39.947)">
          <g id="Group_31975" data-name="Group 31975" transform="translate(124.428)">
            <g transform="matrix(1, 0, 0, 1, -160.37, -45.95)" filter="url(#Rectangle_11496)">
              <rect id="Rectangle_11496-2" data-name="Rectangle 11496" width="1.81" height="147.768" transform="translate(160.37 45.95)" fill="#31a05f"/>
            </g>
          </g>
          <g id="Group_31977" data-name="Group 31977" transform="translate(140.005 55.592)">
            <g id="Group_31976" data-name="Group 31976" transform="translate(2.254 5.08)">
              <g transform="matrix(1, 0, 0, 1, -178.2, -106.62)" filter="url(#Rectangle_11497)">
                <rect id="Rectangle_11497-2" data-name="Rectangle 11497" width="1.81" height="96.257" transform="translate(178.2 106.62)" fill="#31a05f"/>
              </g>
            </g>
            <path id="Path_29815" data-name="Path 29815" d="M-1878.33,7036a3.675,3.675,0,0,0,3.675-3.675,3.675,3.675,0,0,0-3.675-3.674,3.674,3.674,0,0,0-3.674,3.674A3.674,3.674,0,0,0-1878.33,7036Z" transform="translate(1882.004 -7028.647)" fill="#31a05f"/>
          </g>
          <g id="Group_31978" data-name="Group 31978" transform="translate(0 8.6)">
            <g transform="matrix(1, 0, 0, 1, -35.94, -54.55)" filter="url(#Path_29816)">
              <path id="Path_29816-2" data-name="Path 29816" d="M-3634.716,6567.838v8.759q-1.237-.4-2.475-.922v-7.837c0-9.4-6.276-17.814-15.588-23.446-.249-.15-.5-.3-.757-.445-.964-.558-2.155-1.093-3.2-1.588a51.7,51.7,0,0,0-10.782-3.711c-.832-.2-1.721-.66-2.564-.809a58.194,58.194,0,0,0-10.549-1.234h-24.1c-.778,0-1.544.274-2.3.251a62.708,62.708,0,0,1-6.724-.477c-1.019-.157-2.016-.258-3.012-.462a56.747,56.747,0,0,1-6.1-1.56c-.844-.283-1.718-.556-2.539-.87-14.008-5.33-23.6-15.887-23.6-28.041V6403.2l2.475-1.2v103.449c0,11.117,8.536,20.842,21.109,26.006.821.338,1.678.652,2.532.951a52.447,52.447,0,0,0,6.112,1.706c.985.22,2,.409,3.018.566a57.287,57.287,0,0,0,6.728.37c.766.032,1.536-.243,2.3-.243h24.545a58.873,58.873,0,0,1,10.054,1.178c.854.142,1.687.452,2.519.632a54.719,54.719,0,0,1,10.69,3.532c1.03.456,2.4.979,3.377,1.5.453.239.885.482,1.326.733C-3641.744,6548.325-3634.716,6557.549-3634.716,6567.838Z" transform="translate(3784.94 -6347.45)" fill="#31a05f"/>
            </g>
          </g>
          <g id="Group_31979" data-name="Group 31979" transform="translate(138.805 17.599)">
            <g transform="matrix(1, 0, 0, 1, -174.75, -63.55)" filter="url(#Path_29817)">
              <path id="Path_29817-2" data-name="Path 29817" d="M-1783.641,6522v91.344c0,12.154-9.606,22.709-23.614,28.04-.822.314-1.711.586-2.554.87a56.692,56.692,0,0,1-6.1,1.558c-1,.205-1.993.3-3.011.46a62.616,62.616,0,0,1-6.725.458c-.755.023-1.522-.273-2.3-.273h-24.095a58.17,58.17,0,0,0-10.549,1.256c-.844.149-1.732.627-2.565.823a51.738,51.738,0,0,0-10.78,3.714c-1.04.5-2.229,1.032-3.193,1.59a42.072,42.072,0,0,0-6.046,4.231c-6.313,5.327-10.277,12.187-10.277,19.662v17.006a24.251,24.251,0,0,1-2.55,1.242v-18.248c0-8.226,4.51-15.771,11.665-21.506a45.347,45.347,0,0,1,7.2-4.687c.974-.519,2.349-1.044,3.378-1.5a54.665,54.665,0,0,1,10.691-3.535c.832-.181,1.665-.506,2.52-.648a58.946,58.946,0,0,1,10.055-1.2h24.544c.766,0,1.536.3,2.3.265a57.294,57.294,0,0,0,6.727-.353c1.019-.158,2.031-.344,3.017-.564a52.3,52.3,0,0,0,6.111-1.7c.854-.3,1.691-.613,2.512-.951,12.573-5.165,21.086-14.889,21.086-26.005V6522Z" transform="translate(2072.75 -6458.45)" fill="#31a05f"/>
            </g>
          </g>
          <g id="Group_31981" data-name="Group 31981" transform="translate(147.204 49.606)">
            <g id="Group_31980" data-name="Group 31980" transform="translate(0 4.437)">
              <g transform="matrix(1, 0, 0, 1, -183.15, -99.99)" filter="url(#Path_29818)">
                <path id="Path_29818-2" data-name="Path 29818" d="M-1730.508,7008v48.57c0,11.148-9.251,19.6-20.4,19.6h-14.355a17.811,17.811,0,0,0-5.739,1.264,17.5,17.5,0,0,0-1.809.88,18.09,18.09,0,0,0-7.216,6.233,17.312,17.312,0,0,0-1.02,1.839,17.782,17.782,0,0,0-1.956,8.263v39.639a25.382,25.382,0,0,1-3,3.581v-43.219a20.1,20.1,0,0,1,2.13-8.224,18.643,18.643,0,0,1,1.116-1.8,20.3,20.3,0,0,1,9.855-8.514,19.125,19.125,0,0,1,1.853-.768,20.114,20.114,0,0,1,5.784-.973h14.355c9.953,0,18.6-7.843,18.6-17.8V7008Z" transform="translate(1969.15 -6908.01)" fill="#31a05f"/>
              </g>
            </g>
            <path id="Path_29819" data-name="Path 29819" d="M-1102.6,6952.5a3.674,3.674,0,0,1-3.674,3.674,3.674,3.674,0,0,1-3.675-3.674,3.675,3.675,0,0,1,3.675-3.675A3.674,3.674,0,0,1-1102.6,6952.5Z" transform="translate(1160.648 -6948.828)" fill="#31a05f"/>
          </g>
          <g id="Group_31983" data-name="Group 31983" transform="translate(53.886 14.282)">
            <g id="Group_31982" data-name="Group 31982" transform="translate(1.831 4.517)">
              <g transform="matrix(1, 0, 0, 1, -91.66, -64.75)" filter="url(#Path_29820)">
                <path id="Path_29820-2" data-name="Path 29820" d="M-2951.033,6623.441v80.942a14.327,14.327,0,0,1-1.8-1.725v-79.218a17.828,17.828,0,0,0-10.359-16.218,15.618,15.618,0,0,0-1.779-.715,17.34,17.34,0,0,0-4.817-.571c-.275-.016-.539.3-.814.3h-14.355a19.407,19.407,0,0,1-2.7-.515,24.218,24.218,0,0,1-3.3-.769,20.806,20.806,0,0,1-15.05-19.588V6538h2.475v47.369a18.309,18.309,0,0,0,12.732,17.169,19.543,19.543,0,0,0,3.013.891,19.688,19.688,0,0,0,2.824.412h14.355c.275,0,.551-.2.826-.191a19.926,19.926,0,0,1,4.826.7,17.129,17.129,0,0,1,1.8.577,19.726,19.726,0,0,1,11.994,14.856A19.491,19.491,0,0,1-2951.033,6623.441Z" transform="translate(3097.66 -6473.25)" fill="#31a05f"/>
              </g>
            </g>
            <path id="Path_29821" data-name="Path 29821" d="M-3030.417,6481.446a3.674,3.674,0,0,0,3.674,3.674,3.673,3.673,0,0,0,3.675-3.674,3.674,3.674,0,0,0-3.675-3.676A3.675,3.675,0,0,0-3030.417,6481.446Z" transform="translate(3030.417 -6477.771)" fill="#31a05f"/>
          </g>
        </g>
        <g id="Layer_3" data-name="Layer 3" transform="translate(0)">
          <g transform="matrix(1, 0, 0, 1, -9, -6)" filter="url(#Path_29822)">
            <path id="Path_29822-2" data-name="Path 29822" d="M-2343.042,8155.009a26.72,26.72,0,0,1-4.877,15.433,26.85,26.85,0,0,1-3.017,3.581,26.913,26.913,0,0,1-5.864,4.432,26.508,26.508,0,0,1-2.522,1.242,26.759,26.759,0,0,1-10.57,2.161,26.82,26.82,0,0,1-7.942-1.194,26.522,26.522,0,0,1-2.522-.922,26.836,26.836,0,0,1-7.119-4.442q-.946-.82-1.811-1.725a26.843,26.843,0,0,1-2.169-2.568,26.767,26.767,0,0,1-1.81-2.778,26.72,26.72,0,0,1-3.475-13.218,26.923,26.923,0,0,1,.805-6.552q.256-1.023.59-2.013a26.664,26.664,0,0,1,2.063-4.625,26.813,26.813,0,0,1,1.724-2.669,27.026,27.026,0,0,1,2.272-2.707q.864-.9,1.811-1.725a26.748,26.748,0,0,1,17.584-6.559,26.762,26.762,0,0,1,18.955,7.835,26.85,26.85,0,0,1,3.017,3.581c.085.122.17.245.253.368q.611.9,1.147,1.845A26.719,26.719,0,0,1-2343.042,8155.009Z" transform="translate(2534.09 -7944.17)" fill="#31a05f"/>
          </g>
          <g transform="matrix(1, 0, 0, 1, -9, -6)" filter="url(#Path_29823)">
            <path id="Path_29823-2" data-name="Path 29823" d="M-4052.553,5782.483a27.727,27.727,0,0,1-5.062,16.016,27.83,27.83,0,0,1-3.131,3.716,27.935,27.935,0,0,1-6.085,4.6,27.412,27.412,0,0,1-2.617,1.289,27.76,27.76,0,0,1-10.969,2.243,27.837,27.837,0,0,1-8.243-1.24,27.443,27.443,0,0,1-2.618-.957,27.866,27.866,0,0,1-7.388-4.61q-.981-.851-1.879-1.79a27.882,27.882,0,0,1-2.251-2.666,27.748,27.748,0,0,1-1.879-2.883,27.73,27.73,0,0,1-3.606-13.718,27.919,27.919,0,0,1,.836-6.8q.266-1.062.612-2.089a27.712,27.712,0,0,1,2.141-4.8,27.853,27.853,0,0,1,1.789-2.77,28.01,28.01,0,0,1,2.358-2.81q.9-.939,1.879-1.79a27.757,27.757,0,0,1,18.249-6.807,27.776,27.776,0,0,1,19.672,8.131,27.857,27.857,0,0,1,3.131,3.716q.133.19.263.382.634.931,1.191,1.915A27.729,27.729,0,0,1-4052.553,5782.483Z" transform="translate(4117.28 -5748.62)" fill="#31a05f"/>
          </g>
          <g transform="matrix(1, 0, 0, 1, -9, -6)" filter="url(#Path_29824)">
            <path id="Path_29824-2" data-name="Path 29824" d="M-689.485,6079.469a27.812,27.812,0,0,1-5.077,16.063,27.956,27.956,0,0,1-3.14,3.727,28.028,28.028,0,0,1-6.1,4.613,27.653,27.653,0,0,1-2.625,1.292,27.84,27.84,0,0,1-11,2.25,27.9,27.9,0,0,1-8.267-1.244,27.461,27.461,0,0,1-2.626-.959,27.942,27.942,0,0,1-7.41-4.624q-.985-.853-1.885-1.795a28.034,28.034,0,0,1-2.258-2.674,27.877,27.877,0,0,1-1.884-2.892,27.815,27.815,0,0,1-3.617-13.759,28.024,28.024,0,0,1,.838-6.82q.267-1.065.614-2.1a27.794,27.794,0,0,1,2.147-4.813,27.876,27.876,0,0,1,1.794-2.778,28.109,28.109,0,0,1,2.365-2.818q.9-.942,1.885-1.8a27.841,27.841,0,0,1,18.3-6.827,27.859,27.859,0,0,1,19.73,8.155,27.925,27.925,0,0,1,3.14,3.727c.089.126.177.254.264.382q.636.935,1.194,1.92A27.813,27.813,0,0,1-689.485,6079.469Z" transform="translate(1006.56 -6023.26)" fill="#31a05f"/>
          </g>
          <g transform="matrix(1, 0, 0, 1, -9, -6)" filter="url(#Path_29825)">
            <path id="Path_29825-2" data-name="Path 29825" d="M-1307.084,6681.079a21.63,21.63,0,0,1-3.948,12.493,21.75,21.75,0,0,1-2.442,2.9,21.81,21.81,0,0,1-4.747,3.588,21.545,21.545,0,0,1-2.042,1,21.66,21.66,0,0,1-8.557,1.75,21.712,21.712,0,0,1-6.43-.967,21.485,21.485,0,0,1-2.042-.746,21.753,21.753,0,0,1-5.763-3.6q-.766-.664-1.466-1.4a21.8,21.8,0,0,1-1.756-2.079,21.7,21.7,0,0,1-1.465-2.25,21.632,21.632,0,0,1-2.813-10.7,21.794,21.794,0,0,1,.652-5.3q.208-.828.478-1.63a21.627,21.627,0,0,1,1.67-3.744,21.715,21.715,0,0,1,1.4-2.16,21.8,21.8,0,0,1,1.839-2.191q.7-.732,1.466-1.4a21.653,21.653,0,0,1,14.235-5.31,21.666,21.666,0,0,1,15.345,6.343,21.715,21.715,0,0,1,2.442,2.9c.069.1.138.2.205.3q.494.727.929,1.493A21.636,21.636,0,0,1-1307.084,6681.079Z" transform="translate(1566.36 -6585.5)" fill="#31a05f"/>
          </g>
          <g transform="matrix(1, 0, 0, 1, -9, -6)" filter="url(#Path_29826)">
            <path id="Path_29826-2" data-name="Path 29826" d="M-1985.245,6836.754a13.831,13.831,0,0,1-2.525,7.989,13.869,13.869,0,0,1-1.562,1.854,13.937,13.937,0,0,1-3.035,2.294,13.622,13.622,0,0,1-1.305.643,13.846,13.846,0,0,1-5.472,1.119,13.891,13.891,0,0,1-4.111-.618,13.582,13.582,0,0,1-1.306-.478,13.884,13.884,0,0,1-3.685-2.3q-.49-.424-.937-.893a13.953,13.953,0,0,1-1.123-1.33,13.849,13.849,0,0,1-.937-1.438,13.833,13.833,0,0,1-1.8-6.843,13.925,13.925,0,0,1,.417-3.392q.133-.53.306-1.042a13.8,13.8,0,0,1,1.068-2.395,13.938,13.938,0,0,1,.892-1.381,14.007,14.007,0,0,1,1.176-1.4q.447-.468.937-.893a13.846,13.846,0,0,1,9.1-3.395,13.854,13.854,0,0,1,9.812,4.056,13.9,13.9,0,0,1,1.562,1.854c.044.063.088.126.131.19q.316.465.594.955A13.831,13.831,0,0,1-1985.245,6836.754Z" transform="translate(2179.16 -6736.75)" fill="#31a05f"/>
          </g>
          <g transform="matrix(1, 0, 0, 1, -9, -6)" filter="url(#Path_29827)">
            <path id="Path_29827-2" data-name="Path 29827" d="M-3181.192,6310.548a17.076,17.076,0,0,1-3.117,9.863,17.168,17.168,0,0,1-1.928,2.289,17.207,17.207,0,0,1-3.747,2.832,16.892,16.892,0,0,1-1.612.793,17.092,17.092,0,0,1-6.755,1.381,17.135,17.135,0,0,1-5.075-.764,16.741,16.741,0,0,1-1.612-.589,17.151,17.151,0,0,1-4.549-2.839q-.6-.524-1.157-1.1a17.09,17.09,0,0,1-1.386-1.641,17.093,17.093,0,0,1-1.157-1.775,17.075,17.075,0,0,1-2.221-8.448,17.2,17.2,0,0,1,.515-4.187q.164-.655.377-1.287a17.065,17.065,0,0,1,1.318-2.955,17.164,17.164,0,0,1,1.1-1.706,17.31,17.31,0,0,1,1.452-1.73q.552-.578,1.157-1.1a17.1,17.1,0,0,1,11.237-4.191,17.1,17.1,0,0,1,12.113,5.007,17.133,17.133,0,0,1,1.928,2.288c.055.077.109.156.162.234q.39.574.733,1.179A17.075,17.075,0,0,1-3181.192,6310.548Z" transform="translate(3291.46 -6246.99)" fill="#31a05f"/>
          </g>
          <g transform="matrix(1, 0, 0, 1, -9, -6)" filter="url(#Path_29828)">
            <path id="Path_29828-2" data-name="Path 29828" d="M-2330.351,5968.317a21.128,21.128,0,0,1-3.857,12.2,21.232,21.232,0,0,1-2.385,2.831,21.288,21.288,0,0,1-4.636,3.5,21,21,0,0,1-1.994.981,21.149,21.149,0,0,1-8.358,1.709,21.21,21.21,0,0,1-6.28-.944,20.946,20.946,0,0,1-1.995-.729,21.22,21.22,0,0,1-5.629-3.513q-.748-.648-1.432-1.364a21.292,21.292,0,0,1-1.715-2.031,21.246,21.246,0,0,1-1.431-2.2,21.128,21.128,0,0,1-2.748-10.452,21.289,21.289,0,0,1,.637-5.181q.2-.809.467-1.592a21.091,21.091,0,0,1,1.631-3.657,21.151,21.151,0,0,1,1.363-2.11,21.355,21.355,0,0,1,1.8-2.141q.683-.715,1.432-1.364a21.15,21.15,0,0,1,13.9-5.186,21.162,21.162,0,0,1,14.988,6.2,21.232,21.232,0,0,1,2.385,2.831q.1.144.2.291.483.709.907,1.458A21.132,21.132,0,0,1-2330.351,5968.317Z" transform="translate(2511.95 -5926.65)" fill="#31a05f"/>
          </g>
        </g>
      </g>
    </g>
    <path id="Path_29564" data-name="Path 29564" d="M49.193,55.11a.377.377,0,0,0-.262-.11H39.654a.377.377,0,0,0-.377.377v1.079l-3.575.958a.377.377,0,0,0-.267.462l1.858,6.914-1.6,1.6a1.131,1.131,0,0,0-.934-.494H31.131A1.133,1.133,0,0,0,30,67.03v6.147a1.133,1.133,0,0,0,1.131,1.131h3.62a1.133,1.133,0,0,0,1.1-.859l.448.391a1.9,1.9,0,0,0,1.249.468H48.931a.377.377,0,0,0,.377-.377V55.377a.377.377,0,0,0-.115-.267ZM35.129,73.177a.378.378,0,0,1-.377.377H31.131a.378.378,0,0,1-.377-.377V67.03a.378.378,0,0,1,.377-.377h1.433V71a.377.377,0,1,0,.754,0V66.653h1.434a.378.378,0,0,1,.377.377Zm1.133-15.132,3.015-.808v1.4l-.253.063a.377.377,0,0,0-.267.462,1.017,1.017,0,0,1-.718,1.244.377.377,0,0,0-.266.463l1.47,5.443h-.757l-.393-1.525a.378.378,0,0,0-.063-.132Zm3.015,2.319v3.182L38.593,61A1.767,1.767,0,0,0,39.277,60.364Zm5.416,13.19H37.547a1.146,1.146,0,0,1-.753-.282l-.911-.794V67.262l1.646-1.646.3,1.168a.377.377,0,0,0,.365.284h7.414a.528.528,0,1,1,0,1.056h-3.8a.377.377,0,1,0,0,.754h4.979a.528.528,0,1,1,0,1.056H41.808a.377.377,0,1,0,0,.754h4.173a.528.528,0,1,1,0,1.056H41.808a.377.377,0,1,0,0,.754h2.885a.528.528,0,1,1,0,1.056Zm3.859,0H45.863a1.278,1.278,0,0,0,0-1.056h.118a1.281,1.281,0,0,0,1.146-1.856,1.281,1.281,0,0,0,.69-2V63.863a.377.377,0,1,0-.754,0v4.291a1.284,1.284,0,0,0-.275-.03h-.012a1.281,1.281,0,0,0-1.168-1.81H45a1.8,1.8,0,1,0-1.418,0H41.522V59.143a1.775,1.775,0,0,0,1.352-1.352h2.837a1.775,1.775,0,0,0,1.352,1.352v1.173a.377.377,0,1,0,.754,0v-1.51a.377.377,0,0,0-.377-.377,1.017,1.017,0,0,1-1.015-1.015.377.377,0,0,0-.377-.377h-3.51a.377.377,0,0,0-.377.377,1.017,1.017,0,0,1-1.015,1.015.377.377,0,0,0-.377.377v7.507h-.737V55.755h8.523ZM44.293,65.7a1.052,1.052,0,1,1,.741-.307A1.051,1.051,0,0,1,44.293,65.7Z" transform="translate(21.526 68)" fill="#fff"/>
    <path id="Path_29833" data-name="Path 29833" d="M46.717,55.1a.329.329,0,0,0-.228-.1h-8.08a.328.328,0,0,0-.328.328v.94l-3.114.834a.328.328,0,0,0-.233.4l1.618,6.022-1.394,1.394a.985.985,0,0,0-.814-.43h-3.16a.987.987,0,0,0-.985.988v5.354a.987.987,0,0,0,.985.985h3.153a.987.987,0,0,0,.958-.748l.39.341a1.655,1.655,0,0,0,1.088.408h9.914a.328.328,0,0,0,.328-.328V55.328a.328.328,0,0,0-.1-.233ZM34.467,70.832a.329.329,0,0,1-.328.328H30.985a.329.329,0,0,1-.328-.328V65.478a.329.329,0,0,1,.328-.328h1.248v3.786a.328.328,0,1,0,.657,0V65.15h1.249a.329.329,0,0,1,.328.328Zm.987-13.18,2.626-.7v1.219l-.22.055a.328.328,0,0,0-.233.4A.886.886,0,0,1,37,59.709a.328.328,0,0,0-.232.4l1.28,4.741h-.659l-.342-1.328a.329.329,0,0,0-.055-.115Zm2.626,2.02v2.771l-.6-2.218A1.539,1.539,0,0,0,38.08,59.672ZM42.8,71.16H36.573a1,1,0,0,1-.656-.246l-.793-.692V65.68l1.434-1.434.261,1.017a.328.328,0,0,0,.318.247h6.457a.46.46,0,1,1,0,.92h-3.31a.328.328,0,1,0,0,.657h4.337a.46.46,0,1,1,0,.92H40.285a.328.328,0,1,0,0,.657h3.635a.46.46,0,1,1,0,.92H40.285a.328.328,0,1,0,0,.657H42.8a.46.46,0,1,1,0,.92Zm3.361,0H43.816a1.113,1.113,0,0,0,0-.92h.1a1.116,1.116,0,0,0,1-1.617,1.116,1.116,0,0,0,.6-1.742V62.72a.328.328,0,1,0-.657,0v3.737a1.119,1.119,0,0,0-.24-.026h-.01a1.116,1.116,0,0,0-1.017-1.576h-.528a1.568,1.568,0,1,0-1.235,0h-1.8V58.608a1.546,1.546,0,0,0,1.178-1.178h2.471a1.546,1.546,0,0,0,1.178,1.178V59.63a.328.328,0,1,0,.657,0V58.315a.328.328,0,0,0-.328-.328.886.886,0,0,1-.884-.884.328.328,0,0,0-.328-.328H40.92a.328.328,0,0,0-.328.328.886.886,0,0,1-.884.884.328.328,0,0,0-.328.328v6.538h-.642v-9.2h7.423Zm-3.71-6.841a.916.916,0,1,1,.645-.267A.915.915,0,0,1,42.449,64.32Z" transform="translate(165.771 142.246)" fill="#fff"/>
    <path id="Path_29831" data-name="Path 29831" d="M49.193,55.11a.377.377,0,0,0-.262-.11H39.654a.377.377,0,0,0-.377.377v1.079l-3.575.958a.377.377,0,0,0-.267.462l1.858,6.914-1.6,1.6a1.131,1.131,0,0,0-.934-.494H31.131A1.133,1.133,0,0,0,30,67.03v6.147a1.133,1.133,0,0,0,1.131,1.131h3.62a1.133,1.133,0,0,0,1.1-.859l.448.391a1.9,1.9,0,0,0,1.249.468H48.931a.377.377,0,0,0,.377-.377V55.377a.377.377,0,0,0-.115-.267ZM35.129,73.177a.378.378,0,0,1-.377.377H31.131a.378.378,0,0,1-.377-.377V67.03a.378.378,0,0,1,.377-.377h1.433V71a.377.377,0,1,0,.754,0V66.653h1.434a.378.378,0,0,1,.377.377Zm1.133-15.132,3.015-.808v1.4l-.253.063a.377.377,0,0,0-.267.462,1.017,1.017,0,0,1-.718,1.244.377.377,0,0,0-.266.463l1.47,5.443h-.757l-.393-1.525a.378.378,0,0,0-.063-.132Zm3.015,2.319v3.182L38.593,61A1.767,1.767,0,0,0,39.277,60.364Zm5.416,13.19H37.547a1.146,1.146,0,0,1-.753-.282l-.911-.794V67.262l1.646-1.646.3,1.168a.377.377,0,0,0,.365.284h7.414a.528.528,0,1,1,0,1.056h-3.8a.377.377,0,1,0,0,.754h4.979a.528.528,0,1,1,0,1.056H41.808a.377.377,0,1,0,0,.754h4.173a.528.528,0,1,1,0,1.056H41.808a.377.377,0,1,0,0,.754h2.885a.528.528,0,1,1,0,1.056Zm3.859,0H45.863a1.278,1.278,0,0,0,0-1.056h.118a1.281,1.281,0,0,0,1.146-1.856,1.281,1.281,0,0,0,.69-2V63.863a.377.377,0,1,0-.754,0v4.291a1.284,1.284,0,0,0-.275-.03h-.012a1.281,1.281,0,0,0-1.168-1.81H45a1.8,1.8,0,1,0-1.418,0H41.522V59.143a1.775,1.775,0,0,0,1.352-1.352h2.837a1.775,1.775,0,0,0,1.352,1.352v1.173a.377.377,0,1,0,.754,0v-1.51a.377.377,0,0,0-.377-.377,1.017,1.017,0,0,1-1.015-1.015.377.377,0,0,0-.377-.377h-3.51a.377.377,0,0,0-.377.377,1.017,1.017,0,0,1-1.015,1.015.377.377,0,0,0-.377.377v7.507h-.737V55.755h8.523ZM44.293,65.7a1.052,1.052,0,1,1,.741-.307A1.051,1.051,0,0,1,44.293,65.7Z" transform="translate(274.526 89)" fill="#fff"/>
    <path id="Path_29829" data-name="Path 29829" d="M49.193,55.11a.377.377,0,0,0-.262-.11H39.654a.377.377,0,0,0-.377.377v1.079l-3.575.958a.377.377,0,0,0-.267.462l1.858,6.914-1.6,1.6a1.131,1.131,0,0,0-.934-.494H31.131A1.133,1.133,0,0,0,30,67.03v6.147a1.133,1.133,0,0,0,1.131,1.131h3.62a1.133,1.133,0,0,0,1.1-.859l.448.391a1.9,1.9,0,0,0,1.249.468H48.931a.377.377,0,0,0,.377-.377V55.377a.377.377,0,0,0-.115-.267ZM35.129,73.177a.378.378,0,0,1-.377.377H31.131a.378.378,0,0,1-.377-.377V67.03a.378.378,0,0,1,.377-.377h1.433V71a.377.377,0,1,0,.754,0V66.653h1.434a.378.378,0,0,1,.377.377Zm1.133-15.132,3.015-.808v1.4l-.253.063a.377.377,0,0,0-.267.462,1.017,1.017,0,0,1-.718,1.244.377.377,0,0,0-.266.463l1.47,5.443h-.757l-.393-1.525a.378.378,0,0,0-.063-.132Zm3.015,2.319v3.182L38.593,61A1.767,1.767,0,0,0,39.277,60.364Zm5.416,13.19H37.547a1.146,1.146,0,0,1-.753-.282l-.911-.794V67.262l1.646-1.646.3,1.168a.377.377,0,0,0,.365.284h7.414a.528.528,0,1,1,0,1.056h-3.8a.377.377,0,1,0,0,.754h4.979a.528.528,0,1,1,0,1.056H41.808a.377.377,0,1,0,0,.754h4.173a.528.528,0,1,1,0,1.056H41.808a.377.377,0,1,0,0,.754h2.885a.528.528,0,1,1,0,1.056Zm3.859,0H45.863a1.278,1.278,0,0,0,0-1.056h.118a1.281,1.281,0,0,0,1.146-1.856,1.281,1.281,0,0,0,.69-2V63.863a.377.377,0,1,0-.754,0v4.291a1.284,1.284,0,0,0-.275-.03h-.012a1.281,1.281,0,0,0-1.168-1.81H45a1.8,1.8,0,1,0-1.418,0H41.522V59.143a1.775,1.775,0,0,0,1.352-1.352h2.837a1.775,1.775,0,0,0,1.352,1.352v1.173a.377.377,0,1,0,.754,0v-1.51a.377.377,0,0,0-.377-.377,1.017,1.017,0,0,1-1.015-1.015.377.377,0,0,0-.377-.377h-3.51a.377.377,0,0,0-.377.377,1.017,1.017,0,0,1-1.015,1.015.377.377,0,0,0-.377.377v7.507h-.737V55.755h8.523ZM44.293,65.7a1.052,1.052,0,1,1,.741-.307A1.051,1.051,0,0,1,44.293,65.7Z" transform="translate(77.526 104)" fill="#fff"/>
    <path id="Path_29830" data-name="Path 29830" d="M49.193,55.11a.377.377,0,0,0-.262-.11H39.654a.377.377,0,0,0-.377.377v1.079l-3.575.958a.377.377,0,0,0-.267.462l1.858,6.914-1.6,1.6a1.131,1.131,0,0,0-.934-.494H31.131A1.133,1.133,0,0,0,30,67.03v6.147a1.133,1.133,0,0,0,1.131,1.131h3.62a1.133,1.133,0,0,0,1.1-.859l.448.391a1.9,1.9,0,0,0,1.249.468H48.931a.377.377,0,0,0,.377-.377V55.377a.377.377,0,0,0-.115-.267ZM35.129,73.177a.378.378,0,0,1-.377.377H31.131a.378.378,0,0,1-.377-.377V67.03a.378.378,0,0,1,.377-.377h1.433V71a.377.377,0,1,0,.754,0V66.653h1.434a.378.378,0,0,1,.377.377Zm1.133-15.132,3.015-.808v1.4l-.253.063a.377.377,0,0,0-.267.462,1.017,1.017,0,0,1-.718,1.244.377.377,0,0,0-.266.463l1.47,5.443h-.757l-.393-1.525a.378.378,0,0,0-.063-.132Zm3.015,2.319v3.182L38.593,61A1.767,1.767,0,0,0,39.277,60.364Zm5.416,13.19H37.547a1.146,1.146,0,0,1-.753-.282l-.911-.794V67.262l1.646-1.646.3,1.168a.377.377,0,0,0,.365.284h7.414a.528.528,0,1,1,0,1.056h-3.8a.377.377,0,1,0,0,.754h4.979a.528.528,0,1,1,0,1.056H41.808a.377.377,0,1,0,0,.754h4.173a.528.528,0,1,1,0,1.056H41.808a.377.377,0,1,0,0,.754h2.885a.528.528,0,1,1,0,1.056Zm3.859,0H45.863a1.278,1.278,0,0,0,0-1.056h.118a1.281,1.281,0,0,0,1.146-1.856,1.281,1.281,0,0,0,.69-2V63.863a.377.377,0,1,0-.754,0v4.291a1.284,1.284,0,0,0-.275-.03h-.012a1.281,1.281,0,0,0-1.168-1.81H45a1.8,1.8,0,1,0-1.418,0H41.522V59.143a1.775,1.775,0,0,0,1.352-1.352h2.837a1.775,1.775,0,0,0,1.352,1.352v1.173a.377.377,0,1,0,.754,0v-1.51a.377.377,0,0,0-.377-.377,1.017,1.017,0,0,1-1.015-1.015.377.377,0,0,0-.377-.377h-3.51a.377.377,0,0,0-.377.377,1.017,1.017,0,0,1-1.015,1.015.377.377,0,0,0-.377.377v7.507h-.737V55.755h8.523ZM44.293,65.7a1.052,1.052,0,1,1,.741-.307A1.051,1.051,0,0,1,44.293,65.7Z" transform="translate(143.526 81.692)" fill="#fff"/>
    <path id="Path_29832" data-name="Path 29832" d="M49.193,55.11a.377.377,0,0,0-.262-.11H39.654a.377.377,0,0,0-.377.377v1.079l-3.575.958a.377.377,0,0,0-.267.462l1.858,6.914-1.6,1.6a1.131,1.131,0,0,0-.934-.494H31.131A1.133,1.133,0,0,0,30,67.03v6.147a1.133,1.133,0,0,0,1.131,1.131h3.62a1.133,1.133,0,0,0,1.1-.859l.448.391a1.9,1.9,0,0,0,1.249.468H48.931a.377.377,0,0,0,.377-.377V55.377a.377.377,0,0,0-.115-.267ZM35.129,73.177a.378.378,0,0,1-.377.377H31.131a.378.378,0,0,1-.377-.377V67.03a.378.378,0,0,1,.377-.377h1.433V71a.377.377,0,1,0,.754,0V66.653h1.434a.378.378,0,0,1,.377.377Zm1.133-15.132,3.015-.808v1.4l-.253.063a.377.377,0,0,0-.267.462,1.017,1.017,0,0,1-.718,1.244.377.377,0,0,0-.266.463l1.47,5.443h-.757l-.393-1.525a.378.378,0,0,0-.063-.132Zm3.015,2.319v3.182L38.593,61A1.767,1.767,0,0,0,39.277,60.364Zm5.416,13.19H37.547a1.146,1.146,0,0,1-.753-.282l-.911-.794V67.262l1.646-1.646.3,1.168a.377.377,0,0,0,.365.284h7.414a.528.528,0,1,1,0,1.056h-3.8a.377.377,0,1,0,0,.754h4.979a.528.528,0,1,1,0,1.056H41.808a.377.377,0,1,0,0,.754h4.173a.528.528,0,1,1,0,1.056H41.808a.377.377,0,1,0,0,.754h2.885a.528.528,0,1,1,0,1.056Zm3.859,0H45.863a1.278,1.278,0,0,0,0-1.056h.118a1.281,1.281,0,0,0,1.146-1.856,1.281,1.281,0,0,0,.69-2V63.863a.377.377,0,1,0-.754,0v4.291a1.284,1.284,0,0,0-.275-.03h-.012a1.281,1.281,0,0,0-1.168-1.81H45a1.8,1.8,0,1,0-1.418,0H41.522V59.143a1.775,1.775,0,0,0,1.352-1.352h2.837a1.775,1.775,0,0,0,1.352,1.352v1.173a.377.377,0,1,0,.754,0v-1.51a.377.377,0,0,0-.377-.377,1.017,1.017,0,0,1-1.015-1.015.377.377,0,0,0-.377-.377h-3.51a.377.377,0,0,0-.377.377,1.017,1.017,0,0,1-1.015,1.015.377.377,0,0,0-.377.377v7.507h-.737V55.755h8.523ZM44.293,65.7a1.052,1.052,0,1,1,.741-.307A1.051,1.051,0,0,1,44.293,65.7Z" transform="translate(220.526 135.692)" fill="#fff"/>
    <text id="Buyers_" data-name="Buyers
" transform="translate(61.18 154)" fill="#fff" font-size="9" font-family="Montserrat-Regular, Montserrat"><tspan x="-15.498" y="0">Buyers</tspan><tspan x="0" y="11"></tspan></text>
    <text id="Buyers_2" data-name="Buyers
" transform="translate(314.18 175)" fill="#fff" font-size="9" font-family="Montserrat-Regular, Montserrat"><tspan x="-15.498" y="0">Buyers</tspan><tspan x="0" y="11"></tspan></text>
    <path id="Path_29557" data-name="Path 29557" d="M121.57,186.74v-3.633a.847.847,0,0,0-.624-.816l-4.286-1.169a.874.874,0,0,0-.222-.03H114.38v-2.785l.722-.722-.6-.6-.846.846a.439.439,0,0,0-.092.138.429.429,0,0,0-.032.162v2.961h-.846v-1.521a.85.85,0,0,0-.248-.6l-1.269-1.269h.248a.423.423,0,0,0,.423-.423v-.608a.845.845,0,0,0-.377-.7l-.974-.649a.848.848,0,0,0-.467-.151h-5.369a.847.847,0,0,0-.846.846v1.269a.425.425,0,0,0,.032.162.413.413,0,0,0,.092.137.408.408,0,0,0,.137.092.426.426,0,0,0,.162.032h.846v3.384h-2.3a1.272,1.272,0,0,0-.653.181l-1.5.9a1.276,1.276,0,0,0-.615,1.088v1.309a5.918,5.918,0,1,0,10.01,5.4h5.237a4.23,4.23,0,1,0,6.323-3.234Zm-.846-1.841H119.63l-.6-.6v-.248h1.693Zm-4.286-2.961,4.286,1.169v.1h-1.692a.847.847,0,0,0-.846.846v.248a.848.848,0,0,0,.248.6l.6.6a.848.848,0,0,0,.6.248h1.094v.618a4.22,4.22,0,0,0-2.886.128l-.921-.921a.857.857,0,0,0-.6-.248h-.668v-.675a.85.85,0,0,0-.248-.6l-.6-.6a.852.852,0,0,0-.423-.228v-1.285Zm-5.267-1.267h.671v2.663l-1.539-1.8Zm1.517,3.384h1.517l.6.6v2.785h-2.117Zm.846-2.115v1.269h-.846v-1.271Zm-8.881-5.923h5.37l.974.649v.2h-6.344Zm1.269,1.692h4.054l1.866,1.862v.248h-.671a.857.857,0,0,0-.6.248l-.211.211-.459-.459.547-.547-.6-.6-1.689,1.7.6.6.547-.547.459.459-.058.058a.849.849,0,0,0-.044,1.149l1.684,1.965h-1.194v.846h1.692v.846h-2.492c-.014-.025-.03-.049-.045-.074V183.66a1.268,1.268,0,0,0-.565-1.056l-1.948-1.3a1.272,1.272,0,0,0-.7-.213h-.167Zm-4.869,5.191,1.5-.9a.427.427,0,0,1,.217-.06h3.316a.424.424,0,0,1,.235.071l1.948,1.3a.426.426,0,0,1,.188.352v.91a5.9,5.9,0,0,0-7.613-.716v-.59a.428.428,0,0,1,.209-.367Zm3.176,10.881a5.074,5.074,0,1,1,3.589-1.486A5.068,5.068,0,0,1,104.229,193.781Zm5.9-4.652c.01-.14.021-.28.021-.423a5.891,5.891,0,0,0-.4-2.115h2.089v.846a.847.847,0,0,0,.846.846H114.8a.847.847,0,0,0,.846-.846v-1.266h.671l.744.744a4.25,4.25,0,0,0-1.643,2.216Zm9.324,4.652a3.384,3.384,0,1,1,2.393-.991A3.382,3.382,0,0,1,119.453,193.781Z" transform="translate(77.526 125.003)" fill="#fff"/>
    <text id="Seller_" data-name="Seller
" transform="translate(188.531 331.003)" fill="#fff" font-size="9" font-family="Montserrat-Regular, Montserrat"><tspan x="-12.429" y="0">Seller</tspan><tspan x="0" y="11"></tspan></text>
  </g>
</svg>
