<svg width="150" height="150" viewBox="0 0 150 150" fill="none" xmlns="http://www.w3.org/2000/svg">
<rect width="150" height="150" rx="75" fill="#CDDBFC" fill-opacity="0.5"/>
<g clip-path="url(#clip0_357_49743)">
<path d="M85.0667 61.9897V57.4689L90.8961 45.8906C91.0488 45.586 91.1207 45.2477 91.1049 44.9078C91.0891 44.5679 90.9863 44.2376 90.8061 43.9482C90.626 43.6588 90.3744 43.4198 90.0753 43.2539C89.7761 43.088 89.4393 43.0006 89.0967 43H81.042C80.7775 42.9998 80.5155 43.0514 80.2711 43.1518C80.0267 43.2522 79.8046 43.3994 79.6174 43.585L77.0147 46.1698L74.4092 43.585C74.222 43.3994 73.9999 43.2522 73.7555 43.1518C73.5111 43.0514 73.2491 42.9998 72.9846 43H60.8999C60.5566 42.9999 60.2191 43.0869 59.9193 43.2528C59.6194 43.4187 59.3673 43.6579 59.1867 43.9478C59.0062 44.2376 58.9032 44.5685 58.8876 44.909C58.8721 45.2495 58.9444 45.5883 59.0977 45.8933L64.9272 57.4716V61.9923C55.9674 68.5367 48.8151 81.7159 48.8151 91.9593C48.8151 107.003 62.1263 107.003 74.9956 107.003C87.865 107.003 101.176 107.003 101.176 91.9593C101.179 81.7106 94.0372 68.5287 85.0667 61.9897ZM68.9546 59.0007H81.0393V61.0004H68.9546V59.0007ZM72.1492 46.9889L75.5874 50.4033C75.7744 50.5892 75.9965 50.7367 76.2409 50.8373C76.4854 50.9379 76.7474 50.9897 77.012 50.9897C77.2766 50.9897 77.5386 50.9379 77.783 50.8373C78.0275 50.7367 78.2495 50.5892 78.4365 50.4033L81.8748 46.9889H85.8379L81.8212 54.9879H68.1994L64.1828 46.9889H72.1492ZM74.9983 102.99C59.2557 102.99 52.8452 101.99 52.8452 91.946C52.8452 83.8539 58.7362 71.2385 67.5729 64.9893H82.4237C91.2604 71.2385 97.1514 83.8539 97.1514 91.946C97.1514 102.001 90.7408 103 74.9983 103V102.99Z" fill="#407EF8"/>
</g>
<defs>
<clipPath id="clip0_357_49743">
<rect width="52.3636" height="64" fill="white" transform="translate(48.8182 43)"/>
</clipPath>
</defs>
</svg>
