<svg width="150" height="150" viewBox="0 0 150 150" fill="none" xmlns="http://www.w3.org/2000/svg">
<rect width="150" height="150" rx="75" fill="#CDDBFC" fill-opacity="0.5"/>
<g clip-path="url(#clip0_357_49818)">
<path d="M105.125 47.6196H96.9129C96.9431 46.7107 96.9581 45.7957 96.9581 44.8744C96.9581 44.38 96.7618 43.906 96.4122 43.5564C96.0627 43.2069 95.5886 43.0105 95.0943 43.0105H54.9172C54.4229 43.0105 53.9488 43.2069 53.5993 43.5564C53.2497 43.906 53.0533 44.38 53.0533 44.8744C53.0533 45.7939 53.0684 46.709 53.0986 47.6196H44.863C44.3686 47.6196 43.8945 47.816 43.545 48.1655C43.1955 48.515 42.9991 48.9891 42.9991 49.4835C42.8513 57.366 44.9994 65.1215 49.1818 71.8046C50.7227 74.4699 52.8709 76.734 55.4517 78.4125C58.0325 80.0911 60.973 81.1369 64.0342 81.4648C65.2239 82.7836 66.5904 83.9315 68.0948 84.8757V93.2099H64.9581C63.1298 93.212 61.3769 93.9392 60.084 95.2321C58.7912 96.5249 58.0639 98.2778 58.0618 100.106V103.251H57.9287C57.4315 103.251 56.9547 103.448 56.6032 103.8C56.2517 104.151 56.0542 104.628 56.0542 105.125C56.0542 105.622 56.2517 106.099 56.6032 106.451C56.9547 106.802 57.4315 107 57.9287 107H92.0721C92.5693 107 93.0461 106.802 93.3976 106.451C93.7492 106.099 93.9467 105.622 93.9467 105.125C93.9467 104.628 93.7492 104.151 93.3976 103.8C93.0461 103.448 92.5693 103.251 92.0721 103.251H91.939V100.106C91.9369 98.2778 91.2096 96.5249 89.9168 95.2321C88.6239 93.9392 86.8711 93.212 85.0427 93.2099H81.8954V84.8757C83.3999 83.9316 84.7664 82.7837 85.956 81.4648C89.0182 81.1392 91.9603 80.0953 94.543 78.418C97.1257 76.7408 99.276 74.4777 100.819 71.8126C105.001 65.1294 107.15 57.374 107.002 49.4914C107.003 49.2449 106.955 49.0006 106.861 48.7726C106.767 48.5447 106.629 48.3377 106.454 48.1636C106.279 47.9895 106.072 47.8518 105.844 47.7584C105.616 47.665 105.371 47.6178 105.125 47.6196ZM52.3051 69.7357C48.8455 64.2202 46.9403 57.8724 46.7907 51.3633H53.2956C53.7868 59.2451 55.7635 66.963 59.1216 74.1105C59.6222 75.1099 60.144 76.0552 60.6872 76.9463C57.209 75.4767 54.2779 72.9554 52.3051 69.7357ZM88.1873 100.106V103.253H61.8109V100.106C61.8116 99.2717 62.1434 98.4716 62.7335 97.8815C63.3235 97.2914 64.1237 96.9596 64.9581 96.9589H85.0427C85.8767 96.9603 86.6761 97.2924 87.2656 97.8824C87.8551 98.4724 88.1866 99.2722 88.1873 100.106ZM78.1464 93.2099H71.8545V86.5053C73.9157 87.0554 76.0851 87.0554 78.1464 86.5053V93.2099ZM79.3073 82.0453C79.2236 82.08 79.1426 82.121 79.065 82.1678C77.8113 82.8246 76.4171 83.1678 75.0018 83.1678C73.5864 83.1678 72.1922 82.8246 70.9385 82.1678C70.8601 82.1201 70.7782 82.0782 70.6935 82.0426C69.0788 81.1472 67.642 79.9631 66.4546 78.5492C66.3833 78.4531 66.303 78.3639 66.2149 78.2829C64.7483 76.4919 63.4971 74.5347 62.4872 72.4517C58.7749 64.39 56.8398 55.6242 56.813 46.7489H93.1878C93.1621 55.6189 91.2306 64.3798 87.5243 72.4384C86.5142 74.5213 85.263 76.4784 83.7966 78.2696C83.7076 78.3547 83.6274 78.4483 83.5569 78.5492C82.3663 79.9641 80.9258 81.1482 79.3073 82.0426V82.0453ZM97.6957 69.7384C95.7234 72.959 92.7923 75.4814 89.3136 76.9516C89.8568 76.064 90.3787 75.1188 90.8793 74.1158C94.2372 66.9683 96.2138 59.2504 96.7052 51.3686H103.213C103.061 57.8761 101.155 64.222 97.6957 69.7357V69.7384Z" fill="#407EF8"/>
</g>
<defs>
<clipPath id="clip0_357_49818">
<rect width="64.0027" height="64" fill="white" transform="translate(42.9988 43)"/>
</clipPath>
</defs>
</svg>
