<svg width="150" height="150" viewBox="0 0 150 150" fill="none" xmlns="http://www.w3.org/2000/svg">
<rect width="150" height="150" rx="75" fill="#CDDBFC" fill-opacity="0.5"/>
<path d="M54.1997 107.004C50.7188 107.004 47.3161 105.971 44.4218 104.038C41.5276 102.104 39.2718 99.355 37.9397 96.1391C36.6076 92.9232 36.2591 89.3845 36.9382 85.9705C37.6172 82.5565 39.2935 79.4206 41.7548 76.9593C44.2162 74.4979 47.3522 72.8217 50.7662 72.1426C54.1802 71.4635 57.7189 71.8121 60.9348 73.1441C64.1508 74.4762 66.8995 76.732 68.8333 79.6262C70.7672 82.5205 71.7994 85.9232 71.7994 89.404C71.7937 94.07 69.9376 98.5432 66.6383 101.843C63.3389 105.142 58.8657 106.998 54.1997 107.004ZM54.1997 76.5992C51.6682 76.5992 49.1935 77.3499 47.0887 78.7563C44.9838 80.1627 43.3432 82.1617 42.3745 84.5005C41.4057 86.8393 41.1522 89.4128 41.6461 91.8957C42.14 94.3785 43.359 96.6592 45.1491 98.4492C46.9391 100.239 49.2198 101.458 51.7026 101.952C54.1855 102.446 56.7591 102.193 59.0979 101.224C61.4367 100.255 63.4357 98.6145 64.8421 96.5097C66.2486 94.4048 66.9993 91.9302 66.9993 89.3987C66.9816 86.0095 65.6274 82.7642 63.2308 80.3676C60.8343 77.9711 57.5889 76.6169 54.1997 76.5992Z" fill="#407EF8"/>
<path d="M69.3992 91.8047C68.7627 91.8047 68.1522 91.5519 67.7021 91.1018C67.252 90.6517 66.9991 90.0412 66.9991 89.4047V54.2055C66.9991 53.569 67.252 52.9585 67.7021 52.5084C68.1522 52.0583 68.7627 51.8054 69.3992 51.8054C70.0358 51.8054 70.6462 52.0583 71.0963 52.5084C71.5464 52.9585 71.7993 53.569 71.7993 54.2055V89.4047C71.7993 89.7199 71.7372 90.032 71.6166 90.3231C71.496 90.6143 71.3192 90.8789 71.0963 91.1018C70.8735 91.3246 70.6089 91.5014 70.3177 91.6221C70.0265 91.7427 69.7144 91.8047 69.3992 91.8047Z" fill="#407EF8"/>
<path d="M39.9686 86.453C39.68 86.4537 39.3937 86.4017 39.1238 86.2996C38.8287 86.1887 38.5584 86.0208 38.3282 85.8054C38.0981 85.59 37.9126 85.3313 37.7825 85.0442C37.6523 84.7572 37.5799 84.4472 37.5695 84.1322C37.5592 83.8171 37.6109 83.5031 37.7219 83.2081L50.099 50.261C50.3231 49.6655 50.7746 49.1834 51.3541 48.9207C51.641 48.7907 51.9508 48.7184 52.2657 48.7081C52.5806 48.6977 52.8944 48.7495 53.1893 48.8605C53.4841 48.9714 53.7543 49.1394 53.9842 49.3547C54.2142 49.5701 54.3995 49.8286 54.5295 50.1155C54.6596 50.4025 54.7318 50.7122 54.7422 51.0271C54.7525 51.342 54.7007 51.6558 54.5898 51.9507L42.2127 84.8978C42.0408 85.3548 41.7336 85.7485 41.3322 86.0264C40.9308 86.3042 40.4542 86.4531 39.9659 86.453H39.9686Z" fill="#407EF8"/>
<path d="M69.3993 56.6052C68.7628 56.6052 68.1523 56.3524 67.7022 55.9023C67.2521 55.4522 66.9992 54.8417 66.9992 54.2052C66.9988 52.7087 66.4737 51.2598 65.5153 50.1106C64.5569 48.9614 63.2258 48.1847 61.7538 47.9155C60.2817 47.6464 58.7619 47.902 57.4589 48.6377C56.1558 49.3735 55.152 50.5429 54.6221 51.9423C54.5503 52.0973 54.49 52.2574 54.4419 52.4213C54.2831 53.0378 53.8859 53.566 53.3376 53.8897C52.7894 54.2134 52.135 54.3061 51.5185 54.1473C50.9019 53.9885 50.3736 53.5913 50.0499 53.0431C49.7262 52.4948 49.6336 51.8405 49.7924 51.2239C49.8905 50.8619 50.0127 50.5068 50.1583 50.1611C51.0994 47.7222 52.8643 45.6896 55.147 44.4155C57.4297 43.1415 60.0863 42.7064 62.6561 43.1856C65.226 43.6649 67.5471 45.0283 69.2171 47.0395C70.8871 49.0508 71.8007 51.5829 71.7994 54.1971C71.7994 54.8336 71.5466 55.4441 71.0965 55.8942C70.6464 56.3443 70.0359 56.5972 69.3993 56.5972V56.6052Z" fill="#407EF8"/>
<path d="M80.6006 56.6056C79.9641 56.6056 79.3536 56.3527 78.9035 55.9026C78.4534 55.4525 78.2006 54.8421 78.2006 54.2055C78.1978 51.5831 79.116 49.0429 80.7948 47.0283C82.4737 45.0136 84.8066 43.6524 87.3866 43.1822C89.9666 42.7119 92.6298 43.1625 94.9115 44.4552C97.1932 45.748 98.9485 47.8009 99.8712 50.2556L100.14 51.0467C100.256 51.347 100.31 51.6675 100.299 51.9891C100.289 52.3107 100.213 52.6269 100.078 52.9188C99.9426 53.2107 99.75 53.4725 99.5114 53.6884C99.2729 53.9044 98.9933 54.0702 98.6894 54.1759C98.3855 54.2817 98.0634 54.3253 97.7423 54.304C97.4212 54.2828 97.1077 54.1972 96.8203 54.0524C96.533 53.9076 96.2777 53.7064 96.0697 53.4609C95.8616 53.2154 95.705 52.9306 95.6092 52.6234L95.3402 51.8862C94.8003 50.495 93.7909 49.3363 92.4868 48.6109C91.1827 47.8854 89.666 47.6388 88.1992 47.9137C86.7325 48.1887 85.408 48.9679 84.4552 50.1164C83.5024 51.265 82.9812 52.7105 82.9819 54.2028C82.9819 54.8394 82.7291 55.4498 82.279 55.8999C81.8289 56.35 81.2184 56.6029 80.5818 56.6029L80.6006 56.6056Z" fill="#407EF8"/>
<path d="M80.6006 91.8047C79.9641 91.8047 79.3536 91.5519 78.9035 91.1018C78.4534 90.6517 78.2006 90.0412 78.2006 89.4047V54.2055C78.2006 53.569 78.4534 52.9585 78.9035 52.5084C79.3536 52.0583 79.9641 51.8054 80.6006 51.8054C81.2372 51.8054 81.8476 52.0583 82.2977 52.5084C82.7479 52.9585 83.0007 53.569 83.0007 54.2055V89.4047C83.0007 89.7199 82.9386 90.032 82.818 90.3231C82.6974 90.6143 82.5206 90.8789 82.2977 91.1018C82.0749 91.3246 81.8103 91.5014 81.5192 91.6221C81.228 91.7427 80.9158 91.8047 80.6006 91.8047Z" fill="#407EF8"/>
<path d="M110.029 86.4553C109.54 86.4557 109.063 86.307 108.662 86.0291C108.26 85.7511 107.953 85.3572 107.782 84.9L95.4047 51.9529C95.1806 51.3571 95.2024 50.6966 95.4653 50.1168C95.7282 49.537 96.2107 49.0854 96.8066 48.8614C97.4024 48.6373 98.0629 48.6591 98.6427 48.922C99.2225 49.1849 99.6741 49.6673 99.8982 50.2632L112.275 83.2103C112.499 83.8062 112.477 84.4664 112.214 85.046C111.951 85.6256 111.469 86.0773 110.873 86.3019C110.603 86.4039 110.317 86.4559 110.029 86.4553Z" fill="#407EF8"/>
<path d="M95.8003 107.004C92.3171 107.006 88.9117 105.974 86.0149 104.04C83.118 102.106 80.86 99.3561 79.5263 96.1384C78.1926 92.9207 77.8433 89.3797 78.5224 85.9634C79.2015 82.5471 80.8787 79.4089 83.3417 76.946C85.8047 74.483 88.9428 72.8059 92.3591 72.1268C95.7754 71.4476 99.3165 71.797 102.534 73.1307C105.752 74.4644 108.502 76.7224 110.436 79.6192C112.37 82.516 113.402 85.9214 113.4 89.4046C113.394 94.0705 111.538 98.5437 108.239 101.843C104.94 105.142 100.466 106.998 95.8003 107.004ZM95.8003 76.5997C93.0748 76.6016 90.4212 77.474 88.2263 79.0898C86.0313 80.7055 84.4098 82.9801 83.5982 85.5819C82.7866 88.1838 82.8272 90.9768 83.7141 93.5539C84.6011 96.1311 86.2882 98.3575 88.5292 99.9087C90.7702 101.46 93.4481 102.255 96.1725 102.177C98.8969 102.1 101.525 101.154 103.675 99.4785C105.824 97.8026 107.382 95.4841 108.121 92.8608C108.861 90.2374 108.743 87.4466 107.785 84.895C106.866 82.4594 105.227 80.3614 103.086 78.8805C100.945 77.3996 98.4035 76.6059 95.8003 76.6051V76.5997Z" fill="#407EF8"/>
<path d="M80.6005 87.8038H69.4019C68.7654 87.8038 68.1549 87.5509 67.7048 87.1008C67.2547 86.6507 67.0018 86.0403 67.0018 85.4037C67.0018 84.7672 67.2547 84.1567 67.7048 83.7066C68.1549 83.2565 68.7654 83.0037 69.4019 83.0037H80.6005C81.2371 83.0037 81.8475 83.2565 82.2976 83.7066C82.7477 84.1567 83.0006 84.7672 83.0006 85.4037C83.0006 86.0403 82.7477 86.6507 82.2976 87.1008C81.8475 87.5509 81.2371 87.8038 80.6005 87.8038Z" fill="#407EF8"/>
<path d="M80.6005 73.4034H69.4019C68.7654 73.4034 68.1549 73.1505 67.7048 72.7004C67.2547 72.2503 67.0018 71.6399 67.0018 71.0033C67.0018 70.3668 67.2547 69.7563 67.7048 69.3062C68.1549 68.8561 68.7654 68.6033 69.4019 68.6033H80.6005C81.2371 68.6033 81.8475 68.8561 82.2976 69.3062C82.7477 69.7563 83.0006 70.3668 83.0006 71.0033C83.0006 71.6399 82.7477 72.2503 82.2976 72.7004C81.8475 73.1505 81.2371 73.4034 80.6005 73.4034Z" fill="#407EF8"/>
</svg>
