<svg id="Group_31822" data-name="Group 31822" xmlns="http://www.w3.org/2000/svg" xmlns:xlink="http://www.w3.org/1999/xlink" width="296.07" height="302.666" viewBox="0 0 296.07 302.666">
  <defs>
    <filter id="Path_29453" x="84.758" y="79.828" width="211.312" height="222.838" filterUnits="userSpaceOnUse">
      <feOffset dy="3" input="SourceAlpha"/>
      <feGaussianBlur stdDeviation="3" result="blur"/>
      <feFlood flood-opacity="0.161"/>
      <feComposite operator="in" in2="blur"/>
      <feComposite in="SourceGraphic"/>
    </filter>
  </defs>
  <path id="Path_29439" data-name="Path 29439" d="M369.3,400.568a7.925,7.925,0,0,0-1.456.7,27.049,27.049,0,0,1-3.191,1.969,13.782,13.782,0,0,1-2.818,1.134,15.23,15.23,0,0,1-4.176.323c-2.567-.031-3.45-.468-4.922-.5-3.052-.06-4.144,1.721-7.688,3.36a20.193,20.193,0,0,1-3.77,1.3c.076.077.117.147.1.218-.079.271-.879.188-1.985.262a14.507,14.507,0,0,0-2.377.409,41.422,41.422,0,0,0,9.29-.91c.457-.109,2.011-.495,4.276-1,.786-.175,1.757-.381,3.668-.786,1.112-.236,2.893-.612,4.917-1.053,3.4-.739,3.816-.863,4.477-1.2a28.772,28.772,0,0,0,2.731-1.728c1.379-.932,1.531-1.1,2.122-1.434a8.014,8.014,0,0,1,.88-.425.936.936,0,0,1-.105-.435A.874.874,0,0,1,369.3,400.568Z" transform="translate(-134.968 -360.882)" fill="#e5ad88"/>
  <path id="Path_29440" data-name="Path 29440" d="M295.949,361.957a23.964,23.964,0,0,0-3.657-1.829c-2.591-1.181-3.9-1.775-4.5-1.974a20.984,20.984,0,0,0-4.616-.971,27.026,27.026,0,0,0-6.946.345,7.908,7.908,0,0,1-4.213-.068,1.964,1.964,0,0,1-.994-.613c-.537-.926-.478-1.174-.936-2.085a5.642,5.642,0,0,0-2.35-2.232,8.27,8.27,0,0,0-1.54-.689c-3.484-1.121-9.566.23-11.139.589-2.328.532-1.818.481-4.805,1.192-2.047.487-6.085,1.448-11.239,2.407-4.134.769-4.636.728-6.244,1.337a20.631,20.631,0,0,0-5.809,3.366,30.011,30.011,0,0,0-3.456,3.679,90.483,90.483,0,0,0-5.6,7.4c-3.136,4.234-3.4,3.545-9.188,10.457a53.91,53.91,0,0,0-5.353,7.023c-2.417,4.044-1.79,4.7-3.836,8-2.467,3.978-5.459,6.375-8.273,8.628a76.195,76.195,0,0,1-8.006,5.306c-5.265,3.233-8.245,4.86-10.437,6.154-6.061,3.579-9.11,6.392-14.941,11.036-6.72,5.352-12.091,9.117-19.088,13.925l20.233,59.581c.171-.133.331-.263.474-.389,3.641-3.2,8.65-7.624,14.652-13.913,5.207-5.456,5.456-6.349,12.556-13.79,5.63-5.9,8.4-8.4,11.719-10.836a43.888,43.888,0,0,1,10-5.9,72.709,72.709,0,0,1,7.6-2.608,28.874,28.874,0,0,0,4.148-1.215,12.3,12.3,0,0,1,3.333-1.2,8.684,8.684,0,0,1,3.167.3c1.829.363,2.377.213,5.954.357,7.071.286,7.446.976,11.282.848,3.947-.131,6.83-.969,11.116-2.217a71.839,71.839,0,0,0,9.065-3.411c2.7-1.257,4.053-1.885,4.973-2.7a4.914,4.914,0,0,1,1.427-.959c1.177-.5,1.8-.158,3.189-.356,1.207-.172,1.031-.472,3.178-1.17,1.839-.6,1.913-.36,3.4-.892a16.049,16.049,0,0,0,3.389-1.706,13.1,13.1,0,0,0,2.788-2.23,8.878,8.878,0,0,0,2.085-3.222,8.723,8.723,0,0,0-.267-5.82,7.3,7.3,0,0,0-2.24-3.6c-1.538-1.222-3.32-1.3-3.278-1.583.04-.268,1.57.073,3.312-.546a7.845,7.845,0,0,0,2.977-2.107,10.615,10.615,0,0,0,3.222-4.772,9.775,9.775,0,0,0-.334-6.132,14.043,14.043,0,0,0-2.207-3.445c-1.3-1.52-2.067-1.794-1.973-2.353.173-1.035,2.9-.612,6.2-2.308a9.2,9.2,0,0,0,5.643-8.718,12.8,12.8,0,0,0-.423-3.5,10.03,10.03,0,0,0-1.616-3.735,14.608,14.608,0,0,0-4.337-3.479c-1.269-.764-1.912-.986-1.962-1.539-.067-.731.976-1.235,2.6-2.353a19.012,19.012,0,0,0,5.074-4.514,7.738,7.738,0,0,0-.133-9.767A10.6,10.6,0,0,0,295.949,361.957Z" transform="translate(-55.578 -341.194)" fill="#f2bc97"/>
  <path id="Path_29441" data-name="Path 29441" d="M348.422,435.184c-.79-.924-1.381-1.387-1.7-1.734-9.136-.482-19.2-12.869-23.268-10.72-1.785.942-8.871,2.4-12.761,1.523-11.256-2.551-25.659,20.085-25.271,21.852.249,1.13,5.369.11,6.422,2.543.665,1.536-1.1,2.577-.87,5.085a7.877,7.877,0,0,0,5.109,6.13c1.788.618,2.464-.057,5.318.82,1.625.5,2.645.813,3.311,1.74.6.833.607,1.74.007,5.753-.7,4.706-1.017,5.484-.8,7.149a10.747,10.747,0,0,0,1.705,4.532,7.1,7.1,0,0,0,1.713,1.652c1.983-.39,3.967-.967,6.4-1.676a71.865,71.865,0,0,0,9.065-3.411c2.7-1.257,4.053-1.885,4.973-2.7a4.911,4.911,0,0,1,1.427-.959c1.177-.5,1.8-.158,3.189-.356,1.207-.172,1.031-.472,3.177-1.17,1.839-.6,1.913-.36,3.4-.892a16.046,16.046,0,0,0,3.389-1.706,13.1,13.1,0,0,0,2.788-2.23,8.876,8.876,0,0,0,2.085-3.222,8.723,8.723,0,0,0-.267-5.82,7.3,7.3,0,0,0-2.24-3.6c-1.538-1.222-3.362-1.013-3.32-1.3.04-.268,1.612-.213,3.354-.832a7.846,7.846,0,0,0,2.977-2.107,10.62,10.62,0,0,0,3.222-4.772,9.775,9.775,0,0,0-.334-6.132A14.043,14.043,0,0,0,348.422,435.184Z" transform="translate(-114.3 -369.658)" fill="#efb892"/>
  <path id="Path_29442" data-name="Path 29442" d="M311.553,387.08c-4.652,5.338-.027,10.477-3.582,22.153-1.956,6.426-4.555,8.806-3.067,11.595,1.634,3.062,7.1,4.564,10.558,2.8,4.464-2.277,4.972-9.685,5.6-18.83.329-4.79-.181-4.882.3-10.023.683-7.266,1.972-9.98.537-11.216C320.077,381.988,314.67,383.5,311.553,387.08Z" transform="translate(-121.931 -353.823)" fill="#e5ad88"/>
  <path id="Path_29443" data-name="Path 29443" d="M306.065,389.261c-7.67-5.157-8.917,29.807-19.26,37.021-4.264,2.974-7.7,6.878-6.964,8.291.865,1.668,8.2.793,13.345-2.926,4.116-2.972,7-7.883,8.161-9.849.417-.708.838-1.423,1.329-2.459,1.552-3.271,1.977-6.062,2.764-11.512,1.167-8.085,1.222-8.493,1.282-9.632C306.986,393.131,306.734,389.711,306.065,389.261Z" transform="translate(-112.03 -356.147)" fill="#f2bc97"/>
  <path id="Path_29444" data-name="Path 29444" d="M339.309,654.635c-2.086-5.312-3.31-11.4-3.595-23.06-.26-10.6.513-15.361.9-24.062a204.727,204.727,0,0,0-1.348-34.589,143.789,143.789,0,0,0-10.335-37.6,138.137,138.137,0,0,0-26.51-39.1C287.2,484.579,269.942,472.9,269.942,472.9c-.323-.336-.564-.875-.742-.875H242.954c-.079,0-.157.15-.253.311-1.68,2.833-20.672,13.007-31.453,22.474-9.651,8.475-19.38,21.739-26.51,36.051a139.6,139.6,0,0,0-13.48,44.092c-1.908,15.5-1.217,33.025-.9,41.1.334,8.462-.077,15.661-.9,30.072-.368,6.451-.725,10.61-3.145,15.036-4,7.32-10.509,9.63-9.886,12.03.6,2.317,7.164,2.073,9.436,2,11.4-.345,22.759,2.468,34.149,2,16.568-.674,7.041.749,52.572.5,50.5-.275,41.608-1.913,53.021-1,12.116.965,24.255-2.424,36.4-2,1.173.04,6.984.258,7.639-2.005.49-1.7-2.282-3.517-5.392-8.02A44.462,44.462,0,0,1,339.309,654.635Z" transform="translate(-62.629 -389.499)" fill="#3baf6b"/>
  <path id="Path_29445" data-name="Path 29445" d="M345.86,473.309c.014-.007.022-.014.037-.021C345.883,473.278,345.871,473.291,345.86,473.309Z" transform="translate(-138.509 -390.004)" fill="#354255"/>
  <path id="Path_29446" data-name="Path 29446" d="M321.531,472.835c-.294-.334-.517-.811-.685-.811H294.6c-.079,0-.157.15-.253.311a7.621,7.621,0,0,1-1.657,1.519,3.342,3.342,0,0,1,1.189,1.649c.422,1.424-11.693,30.485-7.736,32.693,5.7,3.181,16.606-24.739,19.069-30.717,1.927-4.676,7.2-4.32,8.791-.98,3.615,7.569,14.024,22.25,17.519,20.138C334.761,494.681,321,473.444,321,473.444A1.046,1.046,0,0,1,321.531,472.835Z" transform="translate(-114.275 -389.499)" fill="#269a56"/>
  <path id="Path_29447" data-name="Path 29447" d="M345.758,473.445a.5.5,0,0,1,.038-.12c-.035.018-.064.037-.1.055C345.72,473.4,345.738,473.424,345.758,473.445Z" transform="translate(-138.445 -390.02)" fill="#354255"/>
  <g id="Group_31819" data-name="Group 31819" transform="translate(154.612)">
    <path id="Path_29448" data-name="Path 29448" d="M334.313,335.307c-.99-.577-2.278,2.425-6.066,3.745-4.178,1.457-6.673-.807-10.784-1.511-10.64-1.822-15.4,9.612-25.612,7.14-2.127-.515-1.558-.925-6.4-3.386-2.336-1.186-21.866-11.106-26.623-4.889-1.479,1.933-.986,4.8,0,10.526.576,3.346,1.748,10.157,6.4,16.542,2.912,3.995,9.542,11.053,14.491,14.287a7.547,7.547,0,0,1,2.7,3.194,6.473,6.473,0,0,1,.141,6.1H308.8c-1.221-2.618.573-5.346.573-5.346a17.135,17.135,0,0,1,5.392-7.237,85.26,85.26,0,0,0,12.806-14.709C334.794,349.579,336.221,336.418,334.313,335.307Z" transform="translate(-257.892 -334.373)" fill="#415065"/>
    <path id="Path_29449" data-name="Path 29449" d="M334.313,335.293c-.99-.577-2.278,2.432-6.066,3.752-4.178,1.456-6.673-.8-10.784-1.508-10.64-1.821-15.4,9.613-25.612,7.142-2.127-.515-1.558-.924-6.4-3.385-2.336-1.186-21.866-11.105-26.623-4.888-1.479,1.933-.986,4.8,0,10.527.576,3.346,1.748,10.156,6.4,16.542,2.912,3.995,9.542,11.053,14.491,14.287a7.294,7.294,0,0,1,2.7,3.139s.622,29.175-.945,32.845l30.593,3.676c-1.1-2.366-5.293-31.178,15.51-57.674C335.282,349.929,336.22,336.405,334.313,335.293Z" transform="translate(-257.892 -334.373)" fill="#31a05f"/>
    <path id="Path_29450" data-name="Path 29450" d="M339.608,339.512a13.265,13.265,0,0,0-7,.677q-.252,2.54-.58,5.338c-.116.984-.887,7.371-2.528,15.791-1.265,6.491-2.654,12.174-6.571,17.294-2.017,2.636-2.887,2.749-3.37,2.632-2.475-.6-2.886-9.195-3.2-15.791-.289-6.039.081-7.667-.169-12.407-.116-2.2-.326-4.233-.583-6.116a12.464,12.464,0,0,1-1.608-.276,7.845,7.845,0,0,1-.809-.237,28.881,28.881,0,0,1,.922,4.372,38.419,38.419,0,0,1-.225,10.527c-.9,5.142-.073,12.429,1.348,17.044,1.219,3.957.635,5.077,1.8,6.517,1.838,2.275,5.647,2.388,8.313,1.5,4.845-1.607,5.609-6.412,12.356-17.8,5.588-9.427,6.682-8.861,8.987-14.287a45.7,45.7,0,0,0,3.335-13.172C346.064,342.326,343.594,340.194,339.608,339.512Z" transform="translate(-280.036 -336.352)" fill="#3baf6b"/>
    <path id="Path_29451" data-name="Path 29451" d="M317.218,347.515c.257,1.883.467,3.92.583,6.116.25,4.74-.12,6.368.168,12.407.315,6.6.727,15.191,3.2,15.791.483.117,1.353,0,3.37-2.632,3.917-5.121,5.306-10.8,6.571-17.294,1.641-8.42,2.411-14.806,2.528-15.791q.332-2.8.58-5.338C328.342,342.925,323.957,348.246,317.218,347.515Z" transform="translate(-281.651 -336.936)" fill="#31a05f"/>
    <path id="Path_29452" data-name="Path 29452" d="M283.932,378.514a57.652,57.652,0,0,0-7.92-10.9c-4.995-5.593-6.638-12.279-8.425-19.55a65.167,65.167,0,0,1-1.836-13.612c-3.015-.273-5.571.186-6.926,1.957-1.479,1.933-.986,4.8,0,10.527.576,3.347,1.748,10.156,6.4,16.543,2.912,3.995,9.542,11.053,14.491,14.287a6.737,6.737,0,0,1,2.7,3.008s-.15,31.71-.877,34.367c1.138-.593,5.618,7.1,3.742-32.111A9.091,9.091,0,0,0,283.932,378.514Z" transform="translate(-257.892 -334.374)" fill="#23874c"/>
  </g>
  <g transform="matrix(1, 0, 0, 1, 0, 0)" filter="url(#Path_29453)">
    <path id="Path_29453-2" data-name="Path 29453" d="M339.309,656.842c-2.086-5.312-3.31-11.4-3.595-23.059-.26-10.6.513-15.361.9-24.062a204.726,204.726,0,0,0-1.348-34.589,143.787,143.787,0,0,0-10.335-37.6,138.138,138.138,0,0,0-26.51-39.1c-7.166-7.444-16.794-14.963-22.817-19.426-2.265-.564-3.1-.48-3.245-.124-.432,1.079,5.645,4.263,14.379,12.282a119.979,119.979,0,0,1,15.727,17.545c6.17,8.507,17.846,33.581,16.766,57.665-.791,17.657,11.544,88.306-151.342,103.5-1.35.126,2.339-3.65,4.942-8.272,2.961-5.254,3.812-10.684,4.044-26.067.15-9.954-.079-16.078-.225-23.31-.354-17.56-.532-26.339.225-33.586a133.556,133.556,0,0,1,8.312-33.837c2.71-7.342,6.807-18.211,15.278-30.078a86.269,86.269,0,0,1,13.255-15.289,224.8,224.8,0,0,1,19.1-14.788c4.508-3.093,8.227-5.394,7.863-6.517-.139-.428-.842-.585-1.759-.6-6.45,4.495-19.447,12.175-27.673,19.4-9.651,8.476-19.38,21.782-26.51,36.093a139.659,139.659,0,0,0-13.48,44.113c-1.908,15.5-1.217,33.036-.9,41.106.334,8.461-.077,15.667-.9,30.077-.368,6.451-.725,10.613-3.145,15.039-4,7.32-10.509,9.631-9.886,12.031.6,2.317,7.181,1.723,9.436,2.005,72.364,9.053,160.555,3.811,176.139-.5,1.131-.313,6.984.258,7.639-2.005.49-1.7-2.282-3.517-5.392-8.02A44.467,44.467,0,0,1,339.309,656.842Z" transform="translate(-62.63 -391.71)" fill="#31a05f"/>
  </g>
  <path id="Path_29454" data-name="Path 29454" d="M320.468,470.578c.171-.355.806-.413,1.778-.248a4.074,4.074,0,0,1-.41-1.647,12.309,12.309,0,0,0-1.453.273,23.578,23.578,0,0,1-3.913.752c-3.072.314-3.984-.234-7.961-.15-2.233.047-2.105.224-4.722.3a57.755,57.755,0,0,1-6.206-.151c-.383-.025-.814-.031-1.29-.016a6.754,6.754,0,0,1-.47,1.011,2.4,2.4,0,0,1,1.731.877c1.1,1.464-.049,4.08-2.7,11.781-3.155,9.177-6.782,19.729-5.841,20.3.855.52,6.679-6.465,10.559-16.041,3.091-7.629,3.1-12.332,7.414-15.29.421-.288,4.4-2.932,7.639-1.253,1.884.975,2.661,2.963,3.37,4.511,3.677,8.031,10.021,14.068,10.784,13.535.737-.515-1.434-8.788-6.516-15.54C321.136,472.085,320.208,471.119,320.468,470.578Z" transform="translate(-115.683 -388.161)" fill="#23874c"/>
  <rect id="Rectangle_11432" data-name="Rectangle 11432" width="35.137" height="8.694" rx="4.347" transform="translate(175.338 76.175)" fill="#ffbd39"/>
  <rect id="Rectangle_11433" data-name="Rectangle 11433" width="23.88" height="3.328" rx="1.664" transform="translate(176.879 77.435)" fill="#ffc764"/>
  <path id="Path_29455" data-name="Path 29455" d="M167.9,786.346a52.379,52.379,0,0,1-9.643,4.753c-1.282,1.038-2.067,1.841-1.832,2.654.53,1.827,5.67,1.878,8.447,1.822a39.946,39.946,0,0,0,14.181-11.748c3.854-5.218,6.2-11.328,5.4-11.873C183.452,771.276,178.378,779.755,167.9,786.346Z" transform="translate(-62.629 -509.598)" fill="#23874c"/>
  <path id="Path_29456" data-name="Path 29456" d="M451.653,788.146c-10.475-6.59-15.549-15.07-16.55-14.392-.805.546,1.543,6.655,5.4,11.873a38.85,38.85,0,0,0,11.338,10.17c.574,0,1.148.007,1.722.024,1.173.037,6.985.231,7.639-1.8a1.5,1.5,0,0,0-.23-1.247A52.4,52.4,0,0,1,451.653,788.146Z" transform="translate(-174.185 -510.319)" fill="#23874c"/>
  <path id="Path_29457" data-name="Path 29457" d="M341.268,461.543h-3.146c.94,1.049,2.04,2.189,2.039,3.895,0,1.6-.986,3.969-2.712,4.493h3.819a4.2,4.2,0,1,0,0-8.387Z" transform="translate(-135.14 -385.302)" fill="#f9af2b"/>
  <path id="Path_29458" data-name="Path 29458" d="M257.126,796.313c-27.9.477-55.718,4.11-74.818,9.061,103.676,10.515,152.394,1.059,158.846-.11C319.418,799.747,289.981,795.753,257.126,796.313Z" transform="translate(-73.01 -519.348)" fill="#23874c"/>
  <path id="Path_29459" data-name="Path 29459" d="M362.724,366.8a23.968,23.968,0,0,0-3.657-1.829c-1.472-.671-2.519-1.147-3.269-1.474a11.494,11.494,0,0,0-2.133.264,12.643,12.643,0,0,0-4.744,2.24,14.459,14.459,0,0,0-3.306,3.239,6.507,6.507,0,0,0-1.421,2.508,2.347,2.347,0,0,1-.452,1.321,1.969,1.969,0,0,1-1.182.58,35.928,35.928,0,0,0-5.547,1.923,20.765,20.765,0,0,0-6.261,3.544,12.683,12.683,0,0,0-2.966,2.921,9.142,9.142,0,0,0-1.757,4.376,10.365,10.365,0,0,0,.295,3.284c.322,1.7.517,2.659,1.315,3.473.58.592,1.2.818,1.126,1.065-.079.271-.88.188-1.985.262a19.991,19.991,0,0,0-3.294.623,16.1,16.1,0,0,0-3.679,1.115,9.118,9.118,0,0,0-3.173,2.721,9.411,9.411,0,0,0-1.589,6.3,8.094,8.094,0,0,0,1,3.54,6.911,6.911,0,0,0,2.809,2.827c.985.5,1.709.508,1.7.7-.006.13-.355.359-4.906.724-3.224.259-4.016.222-5.391.746a6.593,6.593,0,0,0-4.65,5.73,8.643,8.643,0,0,0,.707,4.828,10.132,10.132,0,0,0,5.613,5.246c2.888.954,5.566.035,5.82.876.106.35-.343.556-.948,1.672a8.454,8.454,0,0,0-.931,2.893,6.463,6.463,0,0,0,.863,3.651,11.529,11.529,0,0,0,5.892,5.024c1.469.6,4.581.824,10.8,1.278a42.778,42.778,0,0,1,4.342.457c2.052.337,2.671.616,4.254.8a21.889,21.889,0,0,0,4.649-.016,12.536,12.536,0,0,0,3.2-.868c.213-.129.395-.246.543-.341a13.1,13.1,0,0,0,2.788-2.23,8.878,8.878,0,0,0,2.085-3.222,8.722,8.722,0,0,0-.267-5.82,7.3,7.3,0,0,0-2.24-3.6c-1.538-1.222-3.32-1.3-3.278-1.583.04-.268,1.57.073,3.312-.546a7.845,7.845,0,0,0,2.977-2.107,10.62,10.62,0,0,0,3.223-4.772,9.776,9.776,0,0,0-.334-6.132,14.037,14.037,0,0,0-2.207-3.445c-1.3-1.52-2.067-1.794-1.973-2.353.173-1.035,2.9-.612,6.2-2.308a9.2,9.2,0,0,0,5.643-8.718,12.8,12.8,0,0,0-.423-3.5,10.028,10.028,0,0,0-1.616-3.735,14.609,14.609,0,0,0-4.337-3.479c-1.269-.764-1.912-.986-1.962-1.539-.067-.731.976-1.235,2.6-2.352a19.011,19.011,0,0,0,5.074-4.514,7.739,7.739,0,0,0-.133-9.767A10.6,10.6,0,0,0,362.724,366.8Z" transform="translate(-122.353 -346.036)" fill="#f4c29d"/>
  <path id="Path_29460" data-name="Path 29460" d="M376.4,366.8a23.97,23.97,0,0,0-3.657-1.829c-1.472-.671-2.519-1.147-3.269-1.474a11.5,11.5,0,0,0-2.133.264A12.643,12.643,0,0,0,362.6,366a14.458,14.458,0,0,0-3.306,3.239,6.506,6.506,0,0,0-1.421,2.508,2.347,2.347,0,0,1-.452,1.321,1.969,1.969,0,0,1-1.182.58,35.93,35.93,0,0,0-5.547,1.923,20.753,20.753,0,0,0-6.261,3.544,12.683,12.683,0,0,0-2.966,2.921,9.141,9.141,0,0,0-1.757,4.376,10.364,10.364,0,0,0,.295,3.284c.322,1.7.517,2.659,1.315,3.473.414.422.841.657,1.029.847,1.183-.285,19.6-4.237,20.556-4.49a13.782,13.782,0,0,0,2.818-1.134,27.049,27.049,0,0,0,3.191-1.969,8.472,8.472,0,0,1,3.023-1.13,15.042,15.042,0,0,1,2.346-1.715,19.012,19.012,0,0,0,5.074-4.514,7.739,7.739,0,0,0-.133-9.767A10.6,10.6,0,0,0,376.4,366.8Z" transform="translate(-136.028 -346.036)" fill="#f2bc97"/>
  <path id="Path_29461" data-name="Path 29461" d="M367.848,400.966a27.053,27.053,0,0,1-3.191,1.969,13.786,13.786,0,0,1-2.818,1.134,15.229,15.229,0,0,1-4.176.323c-2.567-.031-3.45-.468-4.922-.5-3.052-.06-4.144,1.721-7.688,3.36a20.193,20.193,0,0,1-3.77,1.3c.076.077.117.147.1.218-.079.271-.879.188-1.985.262a14.556,14.556,0,0,0-2.377.409,41.422,41.422,0,0,0,9.289-.91c.458-.109,2.011-.495,4.275-1,.787-.174,1.757-.381,3.667-.785,1.112-.236,2.892-.612,4.916-1.053,3.4-.739,3.812-.861,4.473-1.2a28.61,28.61,0,0,0,2.725-1.726c1.378-.932,1.6-1.11,2.187-1.448a7.966,7.966,0,0,1,2.293-.892v-.007a.641.641,0,0,1,.14-.615A9.13,9.13,0,0,0,367.848,400.966Z" transform="translate(-134.968 -360.58)" fill="#efb892"/>
  <path id="Path_29462" data-name="Path 29462" d="M372.109,408.716c-1.438-.918-3.086,1.37-8.529,3.051-2.412.745-3.272.662-4.532,1.706a7.019,7.019,0,0,0-2.543,4.707c-.124,2.5,1.625,3.033,1.388,5.335-.232,2.246-2.115,3.844-2.944,4.549-2,1.7-3.993,2.014-3.914,2.307.058.212,1.1.08,5.419-.426a36.46,36.46,0,0,1,4.2-.409c.923,0,1.834.064,3.8.042a4.78,4.78,0,0,0,2.927-.626,5.681,5.681,0,0,0,1-1.071,31.06,31.06,0,0,1,2.225-2.19,13.015,13.015,0,0,0,2.492-3.228,10.212,10.212,0,0,0,1.071-4.148,21.991,21.991,0,0,0-.827-5.577C372.8,410.237,372.524,408.981,372.109,408.716Z" transform="translate(-140.58 -364.061)" fill="#f5c7a3"/>
  <path id="Path_29463" data-name="Path 29463" d="M362.53,447.14c-.987-.755-2.222-.229-4.833.3a49.951,49.951,0,0,1-8.136.885c-4.113.18-5.977-.334-6.681.818-.464.76.153,1.3,0,3.429a12.4,12.4,0,0,1-1,3.888c-1.251,3.171-2.689,4.029-2.284,4.775.207.38.788.54,5.285.092,4.174-.416,5.031-.688,7.108-.543,1.126.079.814.155,3.528.469,4,.462,4.885.321,5.586-.217.274-.21.161-.206,1.589-2.3a26.475,26.475,0,0,0,1.589-2.3c.365-.862.264-1.48-.593-5.628C363.075,447.867,362.982,447.487,362.53,447.14Z" transform="translate(-135.97 -379.382)" fill="#f5c7a3"/>
  <path id="Path_29464" data-name="Path 29464" d="M367.322,476.757c-1.078-.767-1.754.165-5.051-.143-3.2-.3-4.854-1.389-5.41-.678-.4.517.36,1.228.677,3.161a10.707,10.707,0,0,1-.36,4.607c-.915,2.832-2.873,3.807-2.426,4.682.246.482.893.287,2.944.594,3.025.453,3.538,1.165,5.6,1a4.785,4.785,0,0,0,2.434-.644c.829-.538,1.541-1.491,2.083-4C368.412,482.576,369.357,478.206,367.322,476.757Z" transform="translate(-142.044 -390.971)" fill="#f5c7a3"/>
  <path id="Path_29465" data-name="Path 29465" d="M333.145,425a6.51,6.51,0,0,0-3.875-1.8c-1.384-.263-2.855-.542-4.223.292a5.256,5.256,0,0,0-2.137,3.457,7.055,7.055,0,0,0,.267,4.106c.323.888,1.045,2.878,2.856,3.613,1.392.565,2.88-.041,5.854-1.254,1.659-.676,2.149-1.11,2.466-1.63a4.5,4.5,0,0,0,.31-3.128A6.3,6.3,0,0,0,333.145,425Z" transform="translate(-129.241 -369.84)" fill="#efd3bf"/>
  <path id="Path_29466" data-name="Path 29466" d="M318.365,453.1a7.374,7.374,0,0,0-2.049-1.276,9.174,9.174,0,0,0-2.843-.983,3.911,3.911,0,0,0-2.592.188,3.563,3.563,0,0,0-1.442,1.839,7.747,7.747,0,0,0-.569,3.917,9.676,9.676,0,0,0,.652,3.044,3.053,3.053,0,0,0,.949,1.572c.561.4,1.028.242,2.96.1,2.372-.173,2.805-.024,3.821-.451a3.864,3.864,0,0,0,1.606-1.079,4.364,4.364,0,0,0,.849-2.324,4.977,4.977,0,0,0-.158-3.027A4.534,4.534,0,0,0,318.365,453.1Z" transform="translate(-123.682 -380.967)" fill="#efd3bf"/>
  <path id="Path_29467" data-name="Path 29467" d="M333.051,477.823a12.252,12.252,0,0,0-2.3-.732,14.131,14.131,0,0,0-2.659-.41,2.9,2.9,0,0,0-1.267.088,2.82,2.82,0,0,0-1.388,1.521,5.633,5.633,0,0,0-.544,3.178,4.881,4.881,0,0,0,1.818,3.345c1.668,1.158,3.725.483,5.832-.209a4.7,4.7,0,0,0,2.283-1.346,3.315,3.315,0,0,0,.9-2.091,3.252,3.252,0,0,0-.841-2.207A4.655,4.655,0,0,0,333.051,477.823Z" transform="translate(-130.095 -391.358)" fill="#efd3bf"/>
  <path id="Path_29468" data-name="Path 29468" d="M341.091,428.96a3.871,3.871,0,0,0-.967,2,4.072,4.072,0,0,0,1.1,3.361c.028-.041.056-.083.082-.125a4.5,4.5,0,0,0,.31-3.128A8.23,8.23,0,0,0,341.091,428.96Z" transform="translate(-136.195 -372.253)" fill="#f9ebe1"/>
  <path id="Path_29469" data-name="Path 29469" d="M324.239,429.743a7.013,7.013,0,0,1,.54-3.483,10.539,10.539,0,0,1,1.908-3.283,3.776,3.776,0,0,0-1.64.532,5.253,5.253,0,0,0-2.137,3.458,7.054,7.054,0,0,0,.267,4.105c.323.888,1.045,2.878,2.856,3.613a3.259,3.259,0,0,0,1.875.138,7.691,7.691,0,0,1-1.24-.886A6.879,6.879,0,0,1,324.239,429.743Z" transform="translate(-129.241 -369.857)" fill="#f9ebe1"/>
  <path id="Path_29470" data-name="Path 29470" d="M312.343,450.725a2.723,2.723,0,0,0-1.462.309,3.563,3.563,0,0,0-1.442,1.839,7.747,7.747,0,0,0-.569,3.917,9.677,9.677,0,0,0,.652,3.044,3.054,3.054,0,0,0,.949,1.572,1.525,1.525,0,0,0,1.054.249,11,11,0,0,1-1.029-6.131A10.877,10.877,0,0,1,312.343,450.725Z" transform="translate(-123.682 -380.968)" fill="#f9ebe1"/>
  <path id="Path_29471" data-name="Path 29471" d="M324.593,460.354a3.526,3.526,0,0,0,.29,3.047c.066-.066.131-.136.195-.212a4.364,4.364,0,0,0,.849-2.324,6.56,6.56,0,0,0,.106-2.124A3.375,3.375,0,0,0,324.593,460.354Z" transform="translate(-129.902 -384.179)" fill="#f9ebe1"/>
  <path id="Path_29472" data-name="Path 29472" d="M327.6,476.667a1.987,1.987,0,0,0-.771.1,2.82,2.82,0,0,0-1.388,1.522,5.633,5.633,0,0,0-.544,3.178,4.881,4.881,0,0,0,1.818,3.345,3.4,3.4,0,0,0,1.272.541,7.605,7.605,0,0,1-.387-8.688Z" transform="translate(-130.095 -391.358)" fill="#f9ebe1"/>
  <path id="Path_29473" data-name="Path 29473" d="M340.335,482.446a2.7,2.7,0,0,0,.751,2.453,3.23,3.23,0,0,0,.817-1.993,3.138,3.138,0,0,0-.6-1.9A2.561,2.561,0,0,0,340.335,482.446Z" transform="translate(-136.272 -393.096)" fill="#f9ebe1"/>
  <path id="Path_29474" data-name="Path 29474" d="M191.251,438.686a76.213,76.213,0,0,1-8.007,5.306c-5.265,3.232-8.246,4.86-10.438,6.153-6.061,3.579-9.113,6.393-14.944,11.037-6.718,5.35-12.091,9.115-19.084,13.92l1.047,3.084c.96-.544,2.074-1.183,3.39-1.95,6.786-3.959,8.537-5.257,10.1-6.571,1.884-1.583,2.086-2.007,6.49-6.288,4.245-4.127,6.367-6.191,7.744-7.291,2.352-1.879,6.4-3.839,14.5-7.758a50.18,50.18,0,0,0,11.223-7.056,10.765,10.765,0,0,0,3.095-3.846,9.971,9.971,0,0,0,.85-4.224A41.983,41.983,0,0,1,191.251,438.686Z" transform="translate(-55.578 -373.952)" fill="#efb892"/>
  <path id="Path_29475" data-name="Path 29475" d="M396.246,366.8a23.971,23.971,0,0,0-3.657-1.829c-1.472-.671-2.519-1.147-3.269-1.474l-.094,0a32.192,32.192,0,0,1,3.04,4.722,23.645,23.645,0,0,1,2.567,7.409c.4,2.479.684,4.28-.369,5.711a31.76,31.76,0,0,1-3.035,2.977c-.741.686-1.118,1.014-1.216,1.4a9.671,9.671,0,0,1,1.568-.43,15.068,15.068,0,0,1,2.346-1.714,19.011,19.011,0,0,0,5.074-4.514,7.739,7.739,0,0,0-.133-9.767A10.6,10.6,0,0,0,396.246,366.8Z" transform="translate(-155.876 -346.036)" fill="#efb892"/>
  <path id="Path_29476" data-name="Path 29476" d="M390.815,405.945a14.61,14.61,0,0,0-4.337-3.479c-1.256-.756-1.9-.983-1.958-1.523a9.962,9.962,0,0,0-1.245.421c.338.67,1.447,1.1,2.395,2.091,1.059,1.109,1.33,2.312,1.8,4.39.424,1.887,1.464,6.511-.888,10.72a7.014,7.014,0,0,1-2.542,2.993c-.93.542-1.586.535-3.713,1.53a6.64,6.64,0,0,0-1.748.987,5.043,5.043,0,0,0-1.313,3.587c-.127,2.412.751,2.843,1.228,5.736.337,2.043.779,4.722-.636,6.748-.875,1.252-1.731,1.212-2.267,2.567-.447,1.13-.186,2,.1,3.9a40.391,40.391,0,0,1,.476,5.653,11.972,11.972,0,0,1-1.347,6.288,7.868,7.868,0,0,1-3.1,2.793c.475-.019.972-.054,1.469-.117a12.543,12.543,0,0,0,3.2-.868c.213-.13.395-.246.543-.341a13.1,13.1,0,0,0,2.788-2.23,8.882,8.882,0,0,0,2.085-3.222,8.723,8.723,0,0,0-.267-5.82,7.3,7.3,0,0,0-2.24-3.6c-1.538-1.222-3.32-1.3-3.278-1.583.04-.268,1.57.073,3.311-.546a7.847,7.847,0,0,0,2.977-2.107,10.619,10.619,0,0,0,3.222-4.772,9.775,9.775,0,0,0-.334-6.132,14.041,14.041,0,0,0-2.207-3.445c-1.3-1.52-2.067-1.794-1.973-2.353.173-1.035,2.9-.612,6.2-2.308a9.2,9.2,0,0,0,5.643-8.718,12.805,12.805,0,0,0-.423-3.5A10.029,10.029,0,0,0,390.815,405.945Z" transform="translate(-148.864 -361.033)" fill="#f2bc97"/>
  <path id="Path_29477" data-name="Path 29477" d="M393.316,399.843a.86.86,0,0,0-.252.638c0,.006,0,.01,0,.016.039-.011.076-.023.116-.034l0-.008a.7.7,0,0,1,.193-.626Z" transform="translate(-157.412 -360.587)" fill="#e5ad88"/>
  <path id="Path_29478" data-name="Path 29478" d="M390.85,400.281a.87.87,0,0,0-.03.211.934.934,0,0,0,.106.435,9.953,9.953,0,0,1,1.245-.421c0-.006,0-.01,0-.016a.86.86,0,0,1,.252-.638A9.67,9.67,0,0,0,390.85,400.281Z" transform="translate(-156.514 -360.595)" fill="#e5ad88"/>
  <path id="Path_29479" data-name="Path 29479" d="M355.6,397.616c-1.7-1.216-4.86-.42-6.258-.068-1.966.5-4.251,1.1-5.653,3.047a4.847,4.847,0,0,0-.731,1.442,5.489,5.489,0,0,0,.559,4.043,2.588,2.588,0,0,0,1.087,1.359,2.432,2.432,0,0,0,1.727.059,31.465,31.465,0,0,0,6.079-1.914,11.714,11.714,0,0,0,4.185-3.039,3.025,3.025,0,0,0,.853-2.019,3.291,3.291,0,0,0-.668-1.693A5.332,5.332,0,0,0,355.6,397.616Z" transform="translate(-137.269 -359.44)" fill="#eacab5"/>
  <path id="Path_29480" data-name="Path 29480" d="M345.333,400.455a5.972,5.972,0,0,0-1.649,1.538,4.847,4.847,0,0,0-.731,1.442,5.489,5.489,0,0,0,.559,4.043,2.588,2.588,0,0,0,1.087,1.359,2.247,2.247,0,0,0,1.53.107,8.367,8.367,0,0,1-.8-8.489Z" transform="translate(-137.269 -360.837)" fill="#f9ebe1"/>
  <path id="Path_29481" data-name="Path 29481" d="M319.085,378.543c-.675-1.588-4.149-10.231-5.024-12.882-.248-.754-.556-1.847-1.17-4.035-.514-1.83-.662-2.442-.794-3.136-.113-.6-.194-1.158-.252-1.668-.431-.785-.415-1.064-.842-1.914a5.646,5.646,0,0,0-2.351-2.232,8.286,8.286,0,0,0-1.54-.689c-3.484-1.121-9.566.23-11.138.589-2.329.532-1.818.482-4.806,1.192-2.047.487-6.085,1.448-11.239,2.407-4.134.769-4.636.728-6.243,1.338a20.607,20.607,0,0,0-5.809,3.366,29.953,29.953,0,0,0-3.457,3.679,90.748,90.748,0,0,0-5.6,7.4c-3.136,4.235-3.4,3.546-9.188,10.457a53.911,53.911,0,0,0-5.353,7.023c-2.2,3.683-1.884,4.566-3.354,7.185a25.491,25.491,0,0,0,4.355,15.783,20.774,20.774,0,0,0,11.1,8.4c6.92,2.019,12.682-.585,15.13-1.771,6.486-3.143,16.8-18.6,16.178-41.328-.045-1.653,3.474-.668,5.657-1.55,1.975-.8,2.638-1.648,3.457-1.291.473.206.437.569,1.129,1.84a13.009,13.009,0,0,0,2.642,3.475,8.734,8.734,0,0,0,2.086,1.451c.888.433,1.194.381,2.065.782a13.757,13.757,0,0,1,2.37,1.635,10.318,10.318,0,0,0,3.6,1.677,8.678,8.678,0,0,0,3.909-.041c.514-.124,2.787-.671,3.579-1.869a3.341,3.341,0,0,1,.728-.89c.46-.382.747-.377.953-.694a1.626,1.626,0,0,0,.029-1.292A14.1,14.1,0,0,0,319.085,378.543Z" transform="translate(-96.479 -341.252)" fill="#f4c29d"/>
  <path id="Path_29482" data-name="Path 29482" d="M267.4,366.766a30.016,30.016,0,0,0-3.456,3.679,90.5,90.5,0,0,0-5.6,7.4c-3.136,4.234-3.4,3.545-9.188,10.457a53.909,53.909,0,0,0-5.353,7.023,77.493,77.493,0,0,0-3.354,7.185c-.071,1.478-1.032,5.58-.559,7.128,1.213,3.968,5.439,9.384,5.439,9.384s-4.763-10.8,5.932-25.458c2.607-3.573,3.748-7.024,5.107-8.93,1.59-2.229,1.466-1.688,3.847-4.905,3.442-4.652,3.115-4.991,5.04-6.956,1.754-1.791,2.719-2.218,2.988-3.578a4.252,4.252,0,0,0-.48-2.728C267.625,366.579,267.5,366.678,267.4,366.766Z" transform="translate(-96.017 -347.227)" fill="#f2bc97"/>
  <path id="Path_29483" data-name="Path 29483" d="M335.515,361.479c-.514-1.83-.662-2.442-.794-3.136-.114-.6-.194-1.158-.252-1.668-.431-.785-.415-1.064-.842-1.914a5.642,5.642,0,0,0-2.35-2.232,8.269,8.269,0,0,0-1.54-.689c-3.484-1.121-9.566.23-11.138.589-2.328.532-1.818.481-4.805,1.192-2.047.487-6.085,1.448-11.239,2.407-1.983.369-3.127.551-3.962.708a5.6,5.6,0,0,0-.889,1.8c-.077.273-.779,2.884.557,4.125.994.923,2.5.517,5.541-.044,6.96-1.287,5.883-.684,9.812-1.448,8.306-1.616,10.737-2.463,11.249.693a30,30,0,0,0,2.719,8.886c.935,1.948,2.636,5.487,5.975,6.557,2.592.83,5.2-.139,7.165-1.316-1.306-3.234-3.388-8.507-4.038-10.475C336.436,364.761,336.129,363.667,335.515,361.479Z" transform="translate(-119.122 -341.194)" fill="#f5c7a3"/>
  <path id="Path_29484" data-name="Path 29484" d="M355.6,362.6c-.514-1.83-.663-2.442-.794-3.135-.114-.6-.194-1.158-.252-1.668-.431-.785-.415-1.064-.842-1.914a4.7,4.7,0,0,0-1.5-1.686,4.617,4.617,0,0,0-2.736.96c-1.4,1.142-1.633,3-1.818,4.471-.214,1.7.3,3.728,1.326,7.715,1.14,4.417,1.736,6.65,2.987,7.85a6.209,6.209,0,0,0,3.5,1.862,6.135,6.135,0,0,0,4.621-1.73c-1.252-3.134-2.782-7.053-3.322-8.69C356.525,365.878,356.218,364.784,355.6,362.6Z" transform="translate(-139.211 -342.31)" fill="#f7c9a9"/>
  <path id="Path_29485" data-name="Path 29485" d="M361.256,382.989a11.283,11.283,0,0,0-1.935-1.7,4.256,4.256,0,0,0-2.273-.725,3.464,3.464,0,0,0-2.266.853,4.074,4.074,0,0,0-1.175,1.66,5.511,5.511,0,0,0-.088,3.019c.236,1.322.479,1.311,2.315,5.381a5.391,5.391,0,0,0,1.162,1.71c1.637,1.64,5.209,1.456,6.723.519a3.441,3.441,0,0,0,1.19-1.291,14.165,14.165,0,0,0-.805-2.342C363.723,389.179,362.45,386.034,361.256,382.989Z" transform="translate(-141.517 -352.872)" fill="#efd3bf"/>
  <path id="Path_29486" data-name="Path 29486" d="M364.324,399.668a6.056,6.056,0,0,1-4.378.142,7.174,7.174,0,0,1-2.621-1.435c.031.069.059.13.091.2a5.392,5.392,0,0,0,1.163,1.71c1.637,1.64,5.209,1.456,6.723.519a3.441,3.441,0,0,0,1.19-1.291c-.113-.463-.242-.876-.365-1.227A5.4,5.4,0,0,1,364.324,399.668Z" transform="translate(-143.101 -359.969)" fill="#f9ebe1"/>
  <path id="Path_29487" data-name="Path 29487" d="M355.393,381.419a3.608,3.608,0,0,0-.494.5,3.278,3.278,0,0,0,3.224.816,3.1,3.1,0,0,0,1.7-1.511,4.278,4.278,0,0,0-2.167-.655A3.464,3.464,0,0,0,355.393,381.419Z" transform="translate(-142.129 -352.872)" fill="#f9ebe1"/>
  <path id="Path_29488" data-name="Path 29488" d="M287.2,394.142c-7.595-2.888-11.364,8.769-16.987,17.73-3.63,5.784-13.8,11.058-13.376,14.724,1,8.753,19.232,13.765,29.51-3.99C289.2,417.678,294.3,396.842,287.2,394.142Z" transform="translate(-102.851 -358.129)" fill="#f5c7a3"/>
  <path id="Path_29489" data-name="Path 29489" d="M295.125,401.235c-1.577-.82-1.511,8.613-6.079,17.4s-12.038,13.592-10.461,14.413,9.779-3.086,14.346-11.87S296.7,402.055,295.125,401.235Z" transform="translate(-111.48 -361.13)" fill="#f7c9a9"/>
  <path id="Path_29490" data-name="Path 29490" d="M399.713,368.345a12.156,12.156,0,0,0-1.831-.987,15.652,15.652,0,0,1,2.488,2.717,8.94,8.94,0,0,1,1.036,10.553,16.212,16.212,0,0,1-1.89,3.122,14.319,14.319,0,0,0,3.151-3.14,7.739,7.739,0,0,0-.133-9.767A10.6,10.6,0,0,0,399.713,368.345Z" transform="translate(-159.342 -347.583)" fill="#e8b18b"/>
  <path id="Path_29491" data-name="Path 29491" d="M393.83,407.4a12.1,12.1,0,0,0-3.271-2.825,13.924,13.924,0,0,1,3.532,8.8,10.946,10.946,0,0,1-.9,5.335,9.316,9.316,0,0,1-3.669,4.214c-2.727,1.574-4.945.65-5.547,1.923-.4.852.445,1.577,1.493,3.925.976,2.186,2.1,4.91,1.56,7.665a9.841,9.841,0,0,1-5.927,7.391c-.908.314-1.634.194-1.823.635a.575.575,0,0,0,.02.441,10.051,10.051,0,0,0,3.04-.437,7.844,7.844,0,0,0,2.977-2.107,10.618,10.618,0,0,0,3.222-4.772,9.775,9.775,0,0,0-.334-6.132A14.041,14.041,0,0,0,386,428.013c-1.3-1.52-2.067-1.794-1.973-2.353.173-1.035,2.9-.612,6.2-2.308a9.2,9.2,0,0,0,5.643-8.718,12.8,12.8,0,0,0-.423-3.5A10.029,10.029,0,0,0,393.83,407.4Z" transform="translate(-151.879 -362.487)" fill="#efb892"/>
  <path id="Path_29492" data-name="Path 29492" d="M381.286,473.785a8.119,8.119,0,0,0-2.814-1.326c.227.345.6.78,1.068,1.366.484.6,1.561,1.942,2.056,2.743a8.159,8.159,0,0,1,.964,5.263,9.145,9.145,0,0,1-2.409,4.76,15.843,15.843,0,0,1-3.459,2.975,13.706,13.706,0,0,0,1.684-.567c.213-.13.394-.246.543-.341a13.1,13.1,0,0,0,2.788-2.23,8.882,8.882,0,0,0,2.085-3.222,8.723,8.723,0,0,0-.267-5.82A7.3,7.3,0,0,0,381.286,473.785Z" transform="translate(-150.857 -389.673)" fill="#efb892"/>
  <path id="Path_29493" data-name="Path 29493" d="M358.18,471.755l2.055-.388s-.05-.278-3.8.164c-.943.111-1.942.233-3.017.338s-2.206.232-3.355.285-2.352,0-3.6-.051a35.288,35.288,0,0,0-3.791.041c-1.248.1-2.516.167-3.751.3s-2.442.285-3.6.307a16.619,16.619,0,0,1-1.712-.042c-.564-.059-1.135-.079-1.672-.086a26.317,26.317,0,0,0-3.058.087c-1.893.174-3.619.585-3.263.715.1.094,1.4-.386,3.28-.491a26.108,26.108,0,0,1,3.028.022c.543.027,1.08.064,1.643.143a17.215,17.215,0,0,0,1.755.106c1.2.019,2.417-.11,3.648-.18s2.478-.106,3.739-.161a34.7,34.7,0,0,1,3.709.094c1.225.095,2.468.185,3.666.181s2.345-.1,3.426-.167,2.109-.154,3.04-.231h.01c2.989-.077,3.208-.086,3.208-.086l-1.616-.57A.169.169,0,0,1,358.18,471.755Z" transform="translate(-130.384 -389.201)" fill="#e5ad88"/>
  <path id="Path_29494" data-name="Path 29494" d="M363.91,438.8a36.91,36.91,0,0,1-3.962,1.7,40.634,40.634,0,0,1-8.425,1.688,122.635,122.635,0,0,1-12.263.484c-4.176-.06-7.607-.319-9.924-.518.469.148.765.2.76.317,0,.055-.07.127-.478.219.872.131,1.82.257,2.745.357,1.621.176,3,.257,4.29.306a113.015,113.015,0,0,0,13.977-.483c2.414-.189,4.459-.392,6.765-.714a46.455,46.455,0,0,0,4.779-.84c1-.239,1.9-.5,2.725-.765C364.506,440.184,363.836,439.793,363.91,438.8Z" transform="translate(-131.891 -376.195)" fill="#e5ad88"/>
  <path id="Path_29495" data-name="Path 29495" d="M363.883,407.947c-.505.216-.537.343-1.756.948-1.3.644-2.1.914-2.077.975.029.089,1.671-.473,4.073-.994,1.34-.291,1.969-.084,3.429-.375a29.436,29.436,0,0,0,5.006-1.4,15.384,15.384,0,0,1-4.238.793C366.2,407.955,365.38,407.309,363.883,407.947Z" transform="translate(-144.191 -363.499)" fill="#e5ad88"/>
  <path id="Path_29496" data-name="Path 29496" d="M312.167,388.087a9.654,9.654,0,0,1-.943-.349c-.309-.145-.675-.32-1.01-.509a9.733,9.733,0,0,1-1-.662,10.03,10.03,0,0,1-.957-.8l-.444-.444-.413-.468a11.516,11.516,0,0,1-.737-.967c-.229-.322-.424-.651-.609-.963s-.339-.619-.477-.905c-.274-.572-.467-1.065-.594-1.413s-.186-.552-.186-.552.055.2.166.559.291.854.546,1.438c.128.292.277.6.447.927s.36.66.58.994a11.733,11.733,0,0,0,.712,1.006l.4.491.438.469a10.315,10.315,0,0,0,.951.856,9.994,9.994,0,0,0,1.017.724c.349.212.673.381,1.016.557a9.98,9.98,0,0,0,.968.4,10.663,10.663,0,0,0,1.512.409c.375.071.586.1.586.1l.061-.475s-.21-.018-.567-.074A10.16,10.16,0,0,1,312.167,388.087Z" transform="translate(-122.064 -352.666)" fill="#e5ad88"/>
  <path id="Path_29497" data-name="Path 29497" d="M331.246,381.549c-.111-.239-.225-.5-.338-.783s-.218-.578-.324-.9a16.006,16.006,0,0,1-.519-2.007,16.659,16.659,0,0,1-.258-3.886c.027-.532.07-.977.11-1.285l.066-.486s-.032.176-.086.483-.115.75-.165,1.284a16.856,16.856,0,0,0,.1,3.93,16.446,16.446,0,0,0,.443,2.067c.092.319.187.638.292.928s.209.566.312.816c.207.5.406.907.55,1.189s.187.208.187.208l.506-.033a1.924,1.924,0,0,1-.29-.393C331.677,382.415,331.468,382.028,331.246,381.549Z" transform="translate(-132.021 -349.524)" fill="#e5ad88"/>
  <path id="Path_29498" data-name="Path 29498" d="M316.318,388.2a10.489,10.489,0,0,1-1.276-.923c-.227-.191-.45-.392-.662-.6s-.43-.439-.628-.677a11.849,11.849,0,0,1-1.81-2.892,11.722,11.722,0,0,1-.543-1.466,11.777,11.777,0,0,0,.474,1.5,11.994,11.994,0,0,0,1.693,3.014c.191.254.4.491.61.724s.432.449.646.647a10.846,10.846,0,0,0,1.276,1.02,11.4,11.4,0,0,0,.986.6l.388.2.207-.432-.384-.178A10.845,10.845,0,0,1,316.318,388.2Z" transform="translate(-124.708 -353.299)" fill="#e5ad88"/>
  <path id="Path_29499" data-name="Path 29499" d="M202.065,460.568c-1.173-4.014-.887-5.239-1.956-5.7-2.518-1.092-5.58,5.063-14.836,10.769-3.752,2.313-4.4,2.008-7.645,4.331a40.861,40.861,0,0,0-9.085,9.047c-2.781,3.617-4.812,4.562-23.3,16.122l14.208,41.838c10.18-8.634,14.066-12.115,18.863-16.953,3.415-3.445,6.3-6.575,10.1-10.744q2.225-3.152,4.782-6.331a134.625,134.625,0,0,1,21.787-21.535c-2.206-2.968-5.562-5.312-7.35-8.565C205.2,468.419,203.405,465.151,202.065,460.568Z" transform="translate(-58.165 -382.577)" fill="#f4c29d"/>
  <path id="Path_29500" data-name="Path 29500" d="M169.875,456.246l-34.84,21.3,16.028,47.2,2.906,5.167,8.792,1.226,13.53-6.946c3.312-6.246,6.965-13.392,12.818-20.818a107.577,107.577,0,0,1,7.73-8.681l-22.911-37.471A2.948,2.948,0,0,0,169.875,456.246Z" transform="translate(-54.078 -383.006)" fill="#e0e0e0"/>
  <path id="Path_29501" data-name="Path 29501" d="M184.286,456.246l-13.267,8.112,9.79,16.011,15.97-9.342-8.44-13.8A2.948,2.948,0,0,0,184.286,456.246Z" transform="translate(-68.489 -383.006)" fill="#efefef"/>
  <path id="Path_29502" data-name="Path 29502" d="M131.8,508.59,99.285,457.327,0,512.632v93.927l115.622-66.45C118.681,531.269,123.724,521.9,131.8,508.59Z" transform="translate(0 -383.613)" fill="#384559"/>
  <path id="Path_29503" data-name="Path 29503" d="M102.715,462.738l-3.308-5.411L0,512.757v31.63l113.037-64.768Z" transform="translate(0 -383.613)" fill="#546982"/>
  <path id="Path_29504" data-name="Path 29504" d="M251.7,480.531c-.577-.9-1.125-1.807-1.645-2.687-1.04-1.76-1.958-3.435-2.713-4.886s-1.354-2.679-1.761-3.543l-.634-1.36.6,1.377c.384.875.949,2.119,1.665,3.593s1.589,3.177,2.585,4.969c.5.9,1.022,1.817,1.576,2.741s1.124,1.857,1.713,2.779c.612.96,1.414,2.153,2.047,3.076.154-.114.364-.255.517-.367-.652-.9-1.532-2.038-2.164-2.972C252.866,482.35,252.267,481.439,251.7,480.531Z" transform="translate(-98.093 -387.909)" fill="#e5ad88"/>
  <path id="Path_29505" data-name="Path 29505" d="M249.21,489.37c-.562-1.005-.993-1.865-1.288-2.469l-.453-.956.415.973c.27.617.668,1.493,1.193,2.523s1.176,2.213,1.935,3.444c.643,1.044,1.368,2.122,2.139,3.179l.355-.279c-.8-1.014-1.561-2.053-2.239-3.064C250.466,491.528,249.773,490.376,249.21,489.37Z" transform="translate(-99.106 -395.074)" fill="#e5ad88"/>
  <ellipse id="Ellipse_3173" data-name="Ellipse 3173" cx="49.455" cy="29.142" rx="49.455" ry="29.142" transform="matrix(0.566, -0.824, 0.824, 0.566, 107.738, 195.925)" fill="#52c883" opacity="0.23"/>
  <g id="Group_31821" data-name="Group 31821" transform="translate(139.788 125.793)">
    <path id="Path_29506" data-name="Path 29506" d="M323.608,560.52a71.583,71.583,0,0,0-8.962-1.039,62.022,62.022,0,0,0-11.731.438,56.206,56.206,0,0,0-13.506,3.465,55.638,55.638,0,0,0-6.9,3.3c-.574.315-1.125.674-1.693,1.013s-1.123.7-1.671,1.086-1.1.728-1.662,1.164l-1.589,1.2a52.611,52.611,0,0,0-11.334,12.338,60.885,60.885,0,0,0-7.288,15.649A77.8,77.8,0,0,0,254.2,616.08c-.212,2.837-.281,5.632-.234,8.421q.02,1.03.039,2.053.061,1.044.121,2.08c.058,1.39.248,2.735.374,4.085a72.885,72.885,0,0,0,3.566,15.149,77.924,77.924,0,0,0,5.735,12.67,82.652,82.652,0,0,0,6.465,9.778A88.37,88.37,0,0,0,276.1,677.2c1.7,1.829,3.142,3.164,4.125,4.067s1.532,1.358,1.532,1.358-.514-.493-1.441-1.451-2.252-2.4-3.869-4.284a87.828,87.828,0,0,1-5.453-7.1,95.22,95.22,0,0,1-5.976-9.907,83.224,83.224,0,0,1-5.249-12.583,75.97,75.97,0,0,1-3.165-14.823,92.769,92.769,0,0,1-.089-16.221,75.759,75.759,0,0,1,3.049-16.414,58.545,58.545,0,0,1,6.93-15.08,52.883,52.883,0,0,1,4.948-6.464,54.366,54.366,0,0,1,5.736-5.474l1.571-1.227c.477-.387,1.043-.749,1.556-1.123l.786-.555.805-.518c.539-.339,1.061-.7,1.606-1.016a53.855,53.855,0,0,1,6.585-3.352,54.767,54.767,0,0,1,6.619-2.32,55.614,55.614,0,0,1,6.414-1.44c2.081-.36,4.1-.571,6.022-.714s3.757-.2,5.481-.192a70.87,70.87,0,0,1,8.916.61c2.46.338,4.385.682,5.687.97s1.991.469,1.991.469-.673-.231-1.959-.595S326.069,560.96,323.608,560.52Z" transform="translate(-241.491 -550.277)" fill="#fecf4a"/>
    <path id="Path_29507" data-name="Path 29507" d="M274.174,570.287c-.872,2.633-1.588,7.082-.15,7.794,1.785.884,6.781-4.035,8.693-9.742.8-2.38.3-7.644.3-7.644S276.079,564.534,274.174,570.287Z" transform="translate(-249.2 -550.803)" fill="#fecf4a"/>
    <path id="Path_29508" data-name="Path 29508" d="M295.972,555.94c-1.924,2.754-3.519,6.884-2.4,7.794,1.317,1.07,6.2-2.451,9.293-6,2.282-2.616,4.347-8.543,4.347-8.543S299.533,550.844,295.972,555.94Z" transform="translate(-257.209 -546.197)" fill="#fecf4a"/>
    <path id="Path_29509" data-name="Path 29509" d="M316.174,553.338c-.5,1.287-.785,2-.45,2.4,1.082,1.275,7.94-1.55,11.691-6.894a40.291,40.291,0,0,0,1.8-4.646s-5.98,1.491-8.993,3.9A12.583,12.583,0,0,0,316.174,553.338Z" transform="translate(-266.17 -544.195)" fill="#fecf4a"/>
    <path id="Path_29510" data-name="Path 29510" d="M342.133,547.034c-3.035,1.35-6.35,4.074-5.845,5.4.58,1.522,6.158,1.038,10.342-.45,3.023-1.074,7.194-4.946,7.194-4.946S347.143,544.806,342.133,547.034Z" transform="translate(-274.443 -544.935)" fill="#fecf4a"/>
    <path id="Path_29511" data-name="Path 29511" d="M365.666,553.743c-2.481.5-5.949,1.689-5.845,2.548.124,1.033,5.383,1.412,9.742.9a41.907,41.907,0,0,0,7.494-2.248S371.171,552.632,365.666,553.743Z" transform="translate(-283.887 -547.898)" fill="#fecf4a"/>
    <path id="Path_29512" data-name="Path 29512" d="M394.042,564.242c-3.278-1.809-7.807-2.43-8.543-1.049-.655,1.229,1.749,3.932,3.9,5.4,3.7,2.52,9.742,1.5,9.742,1.5S396.812,565.772,394.042,564.242Z" transform="translate(-294.128 -551.502)" fill="#fecf4a"/>
    <path id="Path_29513" data-name="Path 29513" d="M374.137,567.571c-3.2-2.2-7.642-3.518-8.393-2.4-.633.944,1.462,3.442,2.7,4.646,3.828,3.73,10.642,3.9,10.642,3.9S376.765,569.378,374.137,567.571Z" transform="translate(-286.213 -552.433)" fill="#fecf4a"/>
    <path id="Path_29514" data-name="Path 29514" d="M351.379,563.922c-4.2-2.32-9.762-2.4-10.342-.9-.534,1.382,3.165,4.094,5.546,5.4,3.945,2.16,10.192,1.8,10.192,1.8S354.489,565.639,351.379,563.922Z" transform="translate(-276.345 -551.333)" fill="#fecf4a"/>
    <path id="Path_29515" data-name="Path 29515" d="M315.566,568.609c-.224,1.315,3.805,3.126,6.445,3.9,5.31,1.552,11.841-.749,11.841-.749s-3.938-3.25-6.895-4.047C321.829,566.329,315.827,567.08,315.566,568.609Z" transform="translate(-266.161 -553.321)" fill="#fecf4a"/>
    <path id="Path_29516" data-name="Path 29516" d="M298.949,578c-4.777,1.066-9.544,4.116-9.143,5.546.423,1.508,6.6,1.231,11.091.15,3.714-.893,8.843-4.5,8.843-4.5S303.849,576.9,298.949,578Z" transform="translate(-255.839 -557.614)" fill="#fecf4a"/>
    <path id="Path_29517" data-name="Path 29517" d="M277.215,596.6c-2.2,1.541-5.587,4.552-4.946,5.845.749,1.512,6.823.333,11.391-1.8,4.312-2.011,8.843-7.494,8.843-7.494S283.323,592.324,277.215,596.6Z" transform="translate(-248.794 -563.775)" fill="#fecf4a"/>
    <path id="Path_29518" data-name="Path 29518" d="M262.967,624.485c.987,1.453,6.705-.316,10.791-3,4.766-3.127,7.794-10.042,7.794-10.042s-7.792.847-12.44,4.5C265.716,618.609,261.992,623.051,262.967,624.485Z" transform="translate(-245.037 -571.127)" fill="#fecf4a"/>
    <path id="Path_29519" data-name="Path 29519" d="M257.447,589.939c-1.257,5.676-.248,12.351,1.5,12.59,1.534.21,3.637-4.545,4.347-8.393.993-5.384-1.948-11.691-1.948-11.691S258.117,586.914,257.447,589.939Z" transform="translate(-242.665 -559.513)" fill="#fecf4a"/>
    <path id="Path_29520" data-name="Path 29520" d="M247.356,605.2s-2.053,4.668-1.8,8.094c.423,5.7,3.675,11.294,5.246,10.941,1.435-.321,1.5-5.61,1.049-8.993C251.209,610.422,247.356,605.2,247.356,605.2Z" transform="translate(-238.12 -568.624)" fill="#fecf4a"/>
    <g id="Group_31820" data-name="Group 31820" transform="translate(24.749 50.129)">
      <path id="Path_29521" data-name="Path 29521" d="M322.063,638.84a43.29,43.29,0,0,0-5.324-1.135,37.431,37.431,0,0,0-7.072-.407,33.4,33.4,0,0,0-12.647,2.9c-.363.156-.714.341-1.074.512s-.715.358-1.066.557-.7.375-1.065.6l-1.023.632a31.751,31.751,0,0,0-7.513,6.764,36.774,36.774,0,0,0-5.272,8.984,46.985,46.985,0,0,0-2.809,10c-.29,1.692-.49,3.367-.622,5.045q-.047.621-.094,1.236-.023.63-.046,1.257c-.044.838-.007,1.657-.009,2.475a44.01,44.01,0,0,0,1.277,9.3,56.049,56.049,0,0,0,2.643,8.642c1.06,2.372,1.484,4.416,2.607,6.2s1.914,3.173,2.838,4.364,1.725,3.106,2.264,3.7,3.009,3.845,3.009,3.845-5.833-11.026-6.85-12.845a57.357,57.357,0,0,1-3.025-6.293,50.289,50.289,0,0,1-2.435-7.859,45.872,45.872,0,0,1-1.055-9.085,55.978,55.978,0,0,1,.873-9.75,45.746,45.746,0,0,1,2.769-9.686,35.349,35.349,0,0,1,5.025-8.663,31.952,31.952,0,0,1,3.342-3.6,32.914,32.914,0,0,1,3.758-2.96l1.014-.648c.309-.205.67-.39,1-.586l.5-.288.513-.265c.343-.173.677-.36,1.023-.519a32.531,32.531,0,0,1,4.147-1.638,32.978,32.978,0,0,1,4.109-1.015,33.385,33.385,0,0,1,3.935-.5c1.271-.1,2.495-.108,3.658-.085s2.269.092,3.3.2a42.752,42.752,0,0,1,5.322.875c1.458.344,2.6.66,3.361.908s1.169.4,1.169.4-.391-.177-1.143-.47S323.517,639.245,322.063,638.84Z" transform="translate(-275.234 -631.597)" fill="#fecf4a"/>
      <path id="Path_29522" data-name="Path 29522" d="M293.81,640.194c-.674,1.532-1.358,4.163-.535,4.674,1.022.632,4.3-2.037,5.779-5.356a15.877,15.877,0,0,0,.616-4.575S295.284,636.847,293.81,640.194Z" transform="translate(-281.836 -630.664)" fill="#fecf4a"/>
      <path id="Path_29523" data-name="Path 29523" d="M307.792,632.981c-1.314,1.544-2.508,3.934-1.886,4.545.73.718,3.865-1.119,5.925-3.071a20.385,20.385,0,0,0,3.1-4.884S310.222,630.123,307.792,632.981Z" transform="translate(-286.977 -628.515)" fill="#fecf4a"/>
      <path id="Path_29524" data-name="Path 29524" d="M320.17,632.557c-.376.745-.586,1.159-.407,1.415.577.827,4.859-.478,7.417-3.474a24.3,24.3,0,0,0,1.346-2.689,17.719,17.719,0,0,0-5.625,1.828A7.591,7.591,0,0,0,320.17,632.557Z" transform="translate(-292.569 -627.809)" fill="#fecf4a"/>
      <path id="Path_29525" data-name="Path 29525" d="M336.315,630.127c-1.9.637-4.047,2.085-3.82,2.907.261.947,3.64.975,6.238.321a17.324,17.324,0,0,0,4.6-2.561S339.452,629.075,336.315,630.127Z" transform="translate(-297.687 -628.601)" fill="#fecf4a"/>
      <path id="Path_29526" data-name="Path 29526" d="M350.2,635.419c-1.519.159-3.67.675-3.657,1.2.016.627,3.153,1.155,5.8,1.1a25.3,25.3,0,0,0,4.631-.923A14.005,14.005,0,0,0,350.2,635.419Z" transform="translate(-303.317 -630.838)" fill="#fecf4a"/>
      <path id="Path_29527" data-name="Path 29527" d="M366.7,643.109c-1.865-1.274-4.551-1.906-5.072-1.118-.464.7.826,2.462,2.032,3.464,2.079,1.725,5.767,1.457,5.767,1.457A10.392,10.392,0,0,0,366.7,643.109Z" transform="translate(-309.322 -633.35)" fill="#fecf4a"/>
      <path id="Path_29528" data-name="Path 29528" d="M354.568,643.941c-1.8-1.507-4.39-2.55-4.905-1.92-.434.53.682,2.151,1.356,2.945,2.086,2.459,6.17,2.949,6.17,2.949A12.674,12.674,0,0,0,354.568,643.941Z" transform="translate(-304.53 -633.426)" fill="#fecf4a"/>
      <path id="Path_29529" data-name="Path 29529" d="M341.088,640.507c-2.393-1.634-5.727-2-6.161-1.131-.4.8,1.668,2.64,3.023,3.558,2.246,1.522,6.02,1.662,6.02,1.662S342.858,641.715,341.088,640.507Z" transform="translate(-298.647 -632.259)" fill="#fecf4a"/>
      <path id="Path_29530" data-name="Path 29530" d="M319.29,641.358c-.209.776,2.107,2.095,3.649,2.709,3.1,1.236,7.155.227,7.155.227a14.751,14.751,0,0,0-3.91-2.825C323.183,640.346,319.534,640.454,319.29,641.358Z" transform="translate(-292.4 -632.953)" fill="#fecf4a"/>
      <path id="Path_29531" data-name="Path 29531" d="M308.622,646.3c-2.93.368-5.968,1.927-5.809,2.809.168.93,3.892,1.116,6.654.724a20.693,20.693,0,0,0,5.569-2.2A13.223,13.223,0,0,0,308.622,646.3Z" transform="translate(-285.804 -635.192)" fill="#fecf4a"/>
      <path id="Path_29532" data-name="Path 29532" d="M294.375,656.444c-1.41.8-3.616,2.415-3.305,3.229.364.951,4.08.589,6.945-.43,2.706-.962,5.74-4,5.74-4S298.288,654.224,294.375,656.444Z" transform="translate(-281.092 -638.703)" fill="#fecf4a"/>
      <path id="Path_29533" data-name="Path 29533" d="M284.09,672.453c.51.929,4.046.193,6.654-1.184,3.042-1.607,5.255-5.588,5.255-5.588s-4.73.064-7.73,1.99C286.077,669.08,283.587,671.536,284.09,672.453Z" transform="translate(-278.282 -642.976)" fill="#fecf4a"/>
      <path id="Path_29534" data-name="Path 29534" d="M282.691,650.84c-1.079,3.338-.854,7.4.181,7.649.91.213,2.445-2.523,3.091-4.794.9-3.178-.5-7.134-.5-7.134A16.751,16.751,0,0,0,282.691,650.84Z" transform="translate(-277.464 -635.319)" fill="#fecf4a"/>
      <path id="Path_29535" data-name="Path 29535" d="M275.991,659.328a12.837,12.837,0,0,0-1.543,4.759c-.071,3.449,1.562,6.995,2.526,6.872.88-.112,1.222-3.285,1.144-5.342A16.049,16.049,0,0,0,275.991,659.328Z" transform="translate(-274.446 -640.432)" fill="#fecf4a"/>
    </g>
    <path id="Path_29536" data-name="Path 29536" d="M264.562,633.215a46.327,46.327,0,0,0-3.3,14.688c-.746,12.367,3.557,23.386,6.643,29.72,5.653,11.606,19.853,27.463,16.573,22.328-.168-.263-9.851-12.419-14.522-24.32-2.088-5.32-6.157-16.078-4.047-29.826a54.6,54.6,0,0,1,8.843-22.032c10.24-14.985,24.583-19.828,24.431-20.084C298.982,603.347,273.432,611.933,264.562,633.215Z" transform="translate(-244.385 -568.017)" fill="#fecf4a"/>
    <path id="Path_29537" data-name="Path 29537" d="M236.707,613.716c.445-19.908,8.534-35.383,8.094-35.522-.515-.162-12.824,20.619-11.541,45.564,1.936,37.609,39.181,67.117,40.168,66.4C274.471,689.4,235.777,655.315,236.707,613.716Z" transform="translate(-233.166 -557.811)" fill="#fecf4a"/>
  </g>
</svg>
