<svg width="64" height="64" viewBox="0 0 64 64" fill="none" xmlns="http://www.w3.org/2000/svg">
<mask id="mask0" mask-type="alpha" maskUnits="userSpaceOnUse" x="0" y="0" width="64" height="64">
<rect width="64" height="64" fill="#C4C4C4"/>
</mask>
<g mask="url(#mask0)">
<path d="M64.8901 37.729V41.0313C64.8356 41.487 64.7935 41.9444 64.725 42.3976C64.4971 43.8927 64.3485 45.4069 64.0092 46.8764C63.1661 50.5729 61.638 54.0788 59.504 57.2126C58.6611 58.451 57.6613 59.5837 56.7326 60.7626C56.7276 60.6124 56.7185 60.4613 56.7185 60.3102C56.7185 57.7234 56.7185 55.138 56.7185 52.5539C56.7185 52.0528 56.5476 51.8612 56.0671 51.8588C55.0219 51.853 53.9776 51.8637 52.9299 51.8678C52.8961 51.2396 52.8787 50.6105 52.8243 49.9847C52.7904 49.6049 52.7722 49.2549 52.2959 49.0369C50.623 48.2703 48.7856 47.9321 46.9494 48.0528C46.0471 48.1057 46.0487 48.1189 45.8886 49.0179C45.8671 49.1385 45.8415 49.259 45.8176 49.3787C45.0944 49.4299 44.3678 49.4613 43.6488 49.5438C43.2632 49.5884 43.0932 49.4316 42.9214 49.117C40.8575 45.3317 38.7729 41.5547 36.7056 37.7702C36.5298 37.4474 36.265 37.1818 35.9428 37.0049C34.5649 36.2058 33.1978 35.3884 31.8265 34.5777C31.7852 34.2524 31.7546 33.9255 31.6969 33.6035C31.6754 33.4838 31.6201 33.3212 31.5317 33.2733C30.8787 32.9101 30.2108 32.5707 29.5503 32.224C28.9667 31.8938 28.501 31.9169 28.0643 32.3066L27.8249 32.2669L27.8125 31.8442L27.8183 29.1487C29.68 28.9299 31.3922 28.3446 32.8106 27.0724C33.1053 26.8082 33.438 26.5473 33.4413 26.0685C33.4573 23.9831 33.4848 21.8977 33.5239 19.8122C33.5318 19.5841 33.6002 19.3622 33.722 19.1691C34.2627 18.3369 34.7383 17.4792 34.9727 16.505C35.1833 15.6274 35.1379 15.4804 34.4931 15.0098C35.0388 14.7688 35.6018 14.5607 36.1253 14.2776C36.6487 13.9944 37.1482 13.6278 37.6575 13.2984L37.6534 13.3034C37.667 13.3062 37.6811 13.3056 37.6943 13.3015C37.7076 13.2975 37.7197 13.2902 37.7294 13.2803L38.9009 12.136C39.0032 12.0534 39.1551 11.999 39.2005 11.8949C39.5085 11.1957 39.667 10.4774 39.3756 9.72696C39.3483 9.67577 39.3211 9.62459 39.293 9.57258V9.57836C39.2443 9.41324 39.2402 9.21097 39.1395 9.08879C38.6994 8.55959 38.2313 8.05351 37.7723 7.53917C37.8396 7.52759 37.9081 7.52454 37.9762 7.53009C39.9105 7.91151 41.8251 8.36063 43.6727 9.0665C45.5996 9.80126 47.4605 10.6632 49.2264 11.7331C51.2942 12.9752 53.2132 14.4496 54.946 16.1277C55.8673 17.0243 56.7086 18.0059 57.559 18.9726C59.0054 20.618 60.1537 22.469 61.1808 24.3942C62.1787 26.273 62.981 28.2493 63.5749 30.2921C64.1596 32.2572 64.5441 34.2764 64.7225 36.3189C64.7671 36.7911 64.8356 37.2592 64.8901 37.729Z" fill="#EDF2D9"/>
<path d="M40.2875 70.8347C39.627 70.9569 38.9764 71.1014 38.3151 71.198C37.3162 71.3425 36.3148 71.4795 35.3092 71.5728C34.3565 71.6611 33.3972 71.7437 32.442 71.7379C28.0714 71.6958 23.8502 70.8975 19.8106 69.1935C16.9346 67.9887 14.2527 66.3651 11.852 64.3754C10.5769 63.3098 9.37311 62.1617 8.24837 60.9385C6.64674 59.2048 5.3027 57.2713 4.14028 55.2065C2.66992 52.5944 1.55787 49.8402 0.894928 46.9268C0.560568 45.4539 0.39958 43.9415 0.165116 42.4455C0.0924649 41.9791 0.0528371 41.5068 0 41.0371V37.729C0.0343947 37.6581 0.0607022 37.5836 0.0784285 37.5069C0.273265 35.992 0.3938 34.4646 0.669544 32.9662C1.39193 29.0373 2.93576 25.4237 5.0641 22.0545C6.0548 20.4859 7.152 18.9999 8.45724 17.679C9.46692 16.6585 10.527 15.6877 11.5647 14.6945C11.5647 14.8464 11.5548 14.9975 11.5581 15.1486C11.6043 17.1531 12.4192 18.734 14.1901 19.7305C14.6796 20.0063 15.2633 20.1177 15.8586 20.3249C15.8338 20.7377 15.7966 21.1827 15.781 21.6318C15.7479 22.606 15.7554 23.5835 15.6885 24.5552C15.6332 25.3659 15.8759 26.0413 16.5141 26.516C17.1266 26.9709 17.8011 27.3465 18.4616 27.7329C18.7918 27.9244 19.146 28.0631 19.4895 28.2233C19.4985 28.461 19.5068 28.6996 19.515 28.9374C19.5316 29.8323 19.5478 30.727 19.5638 31.6213L18.7489 31.552L16.7675 32.2017C16.8294 32.5922 16.8823 32.9266 16.9326 33.2609C13.7129 34.5984 10.4931 35.9441 7.48305 37.7348C6.75159 38.169 6.29009 38.6734 5.97967 39.4528C4.65214 42.7832 3.39396 46.14 2.39005 49.581C2.34217 49.7461 2.30749 49.9451 2.36446 50.0953C3.2692 52.6206 4.49152 55.0206 6.00196 57.2374C7.63293 59.6584 9.59862 61.8362 11.8405 63.7058C12.6289 64.3663 13.4834 64.9442 14.3081 65.5576C15.7644 66.6309 17.3529 67.4812 18.9991 68.2251C21.0175 69.196 23.1443 69.9235 25.3346 70.3922L25.9744 70.5383C26.7851 70.6721 27.5942 70.8199 28.4074 70.9371C31.1995 71.3408 33.9916 71.2987 36.7812 70.9024C36.8844 70.8876 37.0355 70.7745 37.0578 70.682C37.2411 69.9093 37.3996 69.1307 37.5663 68.3539L38.2136 67.8882C38.8468 67.4498 38.8823 67.1543 38.363 66.531C38.4654 66.3172 38.5876 66.1017 38.6743 65.8705C39.1894 64.524 39.6955 63.1733 40.2049 61.8252C40.2379 61.9077 40.2998 61.9837 40.2998 62.0638C40.3015 64.9885 40.2974 67.9122 40.2875 70.8347Z" fill="#EDF2D9"/>
<path d="M11.5804 14.5145C10.6772 14.067 9.82352 13.5511 9.12178 12.8113C7.76783 11.3831 7.7893 9.77073 9.18948 8.37468C10.3189 7.25272 11.7058 6.56748 13.1737 6.04407C14.1785 5.68577 15.222 5.44057 16.2399 5.11859C16.405 5.06658 16.5297 4.88743 16.6717 4.76607C16.68 4.75864 16.6816 4.74048 16.6849 4.72727C16.9086 3.61604 17.6385 2.97209 18.5978 2.43463C20.0747 1.60905 21.5327 0.757056 23.1715 0.288127C23.5859 0.165116 24.0144 0.0949416 24.4363 0H26.2526C26.984 0.205569 27.7328 0.363255 28.4412 0.629092C29.2213 0.921347 29.9685 1.30607 30.7214 1.6685C30.8502 1.73948 30.9514 1.85172 31.0087 1.98717C31.4405 3.05464 31.8566 4.1279 32.2793 5.20115C31.4735 5.05667 30.6719 4.87092 29.8603 4.7768C28.2744 4.59022 26.6852 4.3764 25.0926 4.31943C23.6313 4.26742 22.1635 4.40199 20.6997 4.47382C20.5643 4.48042 20.4388 4.66452 20.3084 4.76607C19.9955 4.80157 19.6826 4.83459 19.3697 4.87422C16.7584 5.20115 14.2181 5.77328 11.8206 6.88616C10.8968 7.31463 10.0266 7.82814 9.31084 8.56869L9.22828 8.65125L9.10279 8.69996L9.11683 8.74949L9.2902 8.71317L9.37276 8.64464C9.6097 8.47953 9.84499 8.31441 10.0836 8.15507C11.3385 7.31298 12.7312 6.76975 14.1694 6.35036C16.0682 5.79392 18.0001 5.39846 19.9806 5.2771C19.8824 5.50084 19.7784 5.72127 19.6867 5.94747C19.2293 7.07522 18.895 8.21286 19.4052 9.41904C19.1212 9.50159 18.8273 9.56351 18.5549 9.66671C17.9514 9.89622 17.3561 10.1464 16.7576 10.3874C16.0368 10.6128 15.4003 11.0494 14.9306 11.6407C14.848 11.7389 14.834 11.9172 14.848 12.0535C14.914 12.7725 14.9999 13.49 15.0783 14.2082C14.583 13.9927 14.0876 13.7475 13.5791 13.5684C12.789 13.2918 11.9444 13.3859 11.6522 14.4138C11.634 14.4511 11.6098 14.4852 11.5804 14.5145V14.5145Z" fill="#B46A43"/>
<path d="M16.9337 33.2626L16.7685 32.2042L18.7499 31.5545L19.0851 32.2851C19.1042 32.4591 19.1379 32.6311 19.1858 32.7994C20.1196 35.3216 21.0649 37.8404 21.9928 40.3659C22.0977 40.6524 22.2405 40.7308 22.5311 40.7291C24.7857 40.7184 27.0412 40.7234 29.2959 40.7225C29.428 40.7225 29.5593 40.7068 29.7227 40.6961C29.7227 40.5137 29.7227 40.3659 29.7227 40.2165C29.6971 39.2134 29.6691 38.2111 29.6402 37.2089C29.6088 35.9705 29.5848 34.7321 29.5436 33.4995C29.5394 33.3699 29.4371 33.2428 29.3784 33.1148C29.4335 32.8165 29.4902 32.5185 29.5485 32.2207C30.209 32.5675 30.8769 32.9068 31.5299 33.27C31.6207 33.3212 31.676 33.4839 31.695 33.6003C31.7528 33.9222 31.7834 34.2492 31.8246 34.5736C31.9485 35.7492 32.0657 36.9257 32.1986 38.1005C32.2812 38.8435 32.4058 39.5808 32.4793 40.3238C32.5132 40.6631 32.6568 40.7423 32.9747 40.7308C33.6673 40.706 34.3616 40.7234 35.0386 40.7234C35.3573 43.65 36.7286 45.6694 39.448 46.6741C39.4613 46.7963 39.4745 46.9218 39.4885 47.0399C39.6412 48.3938 39.8187 49.7461 39.9351 51.1034C39.9838 51.6813 39.9277 52.2806 39.86 52.8635C39.7271 53.9987 39.59 55.1363 39.3861 56.2608C39.0774 57.9672 38.4004 59.5631 37.7696 61.1639C37.728 61.2801 37.7343 61.4081 37.787 61.5197C38.2906 62.3857 38.2559 63.26 37.7688 64.0955C37.4485 64.6437 36.916 64.8963 36.2597 64.7931C36.0846 64.7659 35.9113 64.6842 35.7395 64.6899C35.5084 64.6982 35.2128 64.6998 35.0741 64.8352C34.9841 64.9236 35.1195 65.248 35.1641 65.4643C35.1838 65.5154 35.2139 65.5618 35.2524 65.6005C36.0318 66.6284 37.0027 67.4069 38.2055 67.8874L37.5674 68.358C37.5119 68.3548 37.4562 68.3601 37.4023 68.3737C36.1532 68.9086 34.8644 69.3074 33.5138 69.4725C32.3514 69.6145 31.1881 69.7664 30.0208 69.8325C28.9549 69.8936 27.8825 69.8415 26.8126 69.849C26.6522 69.8628 26.4934 69.8905 26.3378 69.9315C26.2132 69.8845 26.0332 69.7606 25.9738 69.8044C25.7393 69.9695 25.5436 70.1941 25.3331 70.3955C23.1426 69.9267 21.0156 69.1992 18.9968 68.2284C18.9266 68.0822 18.8787 67.9204 18.783 67.7941C18.2785 67.1287 17.7634 66.4732 17.2515 65.8127L19.8958 65.9638C20.1939 66.0596 20.4903 66.1636 20.7916 66.2519C22.0613 66.6251 23.3316 66.9958 24.6025 67.364C25.1432 67.2344 25.6823 67.094 26.2256 66.9776C26.5995 66.8951 26.8092 66.6771 26.9413 66.3262C27.2336 65.5469 27.5622 64.7807 27.8495 63.9997C27.932 63.7661 27.932 63.4994 27.975 63.2485C29.5337 63.1659 31.0915 63.0759 32.6502 63.0008C33.9778 62.9364 35.3061 62.8836 36.6336 62.8357C36.8731 62.8266 37.0662 62.8241 37.072 62.4972C37.0844 61.689 37.1546 60.8799 37.1414 60.0725C37.11 58.29 37.0588 56.5076 36.9763 54.7277C36.9391 53.8963 36.8111 53.0699 36.7286 52.2402C36.6939 51.8827 36.5387 51.7448 36.1507 51.7589C34.2865 51.8348 32.4224 51.8786 30.5574 51.9323C29.5427 51.962 28.5281 51.9942 27.5135 52.0148C25.7979 52.0487 24.0807 52.0685 22.3651 52.1073C22.0159 52.1147 21.6684 52.1783 21.2919 52.2196V53.5487C21.1478 53.5064 21.0007 53.4752 20.8519 53.4554C20.3928 53.4365 19.9264 53.3787 19.4756 53.4373C19.0471 53.4918 18.9803 53.7964 19.2882 54.0895C19.4401 54.2439 19.6215 54.3663 19.8215 54.4494C20.2938 54.6203 20.7817 54.7467 21.3579 54.9192C21.3679 57.0574 21.3778 59.2254 21.3877 61.3934L19.3113 61.7533C19.1969 61.6779 19.0818 61.6031 18.9662 61.5288C17.6453 60.6735 16.3225 59.8185 14.9977 58.9637C15.6788 58.9571 16.3673 59.0091 17.0393 58.9266C17.7169 58.851 18.3825 58.6915 19.0207 58.4519C19.6548 58.2042 19.654 57.6535 19.1033 57.2589C18.0746 56.5241 16.8651 56.2451 15.6854 55.8868C14.5056 55.5285 13.3374 55.1289 12.289 54.4453C11.5682 53.9756 11.1092 53.3613 11.0555 52.4755C11.0432 52.2633 10.9639 52.0561 10.916 51.8464L11.8052 49.9401L12.9734 49.6041L13.0559 49.5364V49.5472C13.6561 49.1756 14.329 48.8867 14.8416 48.4169C16.4928 46.9103 17.0947 44.8983 17.3407 42.7543C17.4166 42.0938 17.4232 41.4243 17.4678 40.7052H18.4948C18.4956 40.6186 18.4909 40.532 18.4808 40.446C18.2249 39.2258 17.967 38.0067 17.7072 36.7886C17.448 35.6122 17.1896 34.4382 16.9337 33.2626Z" fill="#432F4F"/>
<path d="M19.4053 9.41905C18.8951 8.21288 19.2294 7.07523 19.6868 5.94419C19.7784 5.71798 19.8825 5.49755 19.9807 5.27382C20.1293 5.24905 20.2771 5.21272 20.4265 5.20199C22.5656 5.05091 24.703 4.99147 26.8454 5.17887C29.3981 5.40096 31.9095 5.80962 34.3243 6.69464C35.8046 7.23704 37.1998 7.93301 38.2987 9.11028C39.0409 9.90697 39.4619 11.2502 38.9005 12.136L37.7282 13.2786L37.6522 13.3018L37.6564 13.2968C37.4731 13.343 37.2873 13.3794 37.1082 13.4363C36.0655 13.7748 35.0038 13.9787 33.9074 13.9523C33.9429 13.7509 33.9776 13.5503 34.0147 13.3496C34.1278 12.7346 34.0667 12.6215 33.4665 12.3325C33.2701 12.0138 33.1314 11.6407 32.8705 11.393C32.3751 10.9175 31.8154 10.5138 31.2821 10.0803C31.7997 9.86156 31.9962 9.5982 31.9574 9.17633C31.9235 8.8073 31.6519 8.57366 31.1013 8.49523C30.8299 8.46933 30.5569 8.46408 30.2848 8.47954C30.0941 8.47954 29.9025 8.50266 29.6408 8.51999C29.8604 8.24012 30.0363 8.04859 30.1758 7.83394C30.5316 7.2841 30.3896 6.83334 29.7861 6.57988C29.6345 6.51629 29.4764 6.46923 29.3147 6.43953C28.324 6.25626 27.3713 6.43376 26.4665 6.84324C25.5922 7.23622 24.9094 7.8199 24.7426 8.83784C23.8345 8.91462 22.9264 8.97489 22.0265 9.07313C21.1505 9.16808 20.2796 9.30264 19.4053 9.41905Z" fill="#D4914F"/>
<path d="M39.4569 46.6775C36.7374 45.6727 35.3662 43.6534 35.0475 40.7267C34.3672 40.7267 33.6729 40.7093 32.9835 40.7341C32.6624 40.7457 32.5187 40.6664 32.4882 40.3271C32.4147 39.5841 32.2917 38.846 32.2075 38.1038C32.0746 36.929 31.9598 35.7526 31.8335 34.5769C33.2048 35.3885 34.5719 36.2058 35.9498 37.005C36.2721 37.1819 36.5368 37.4475 36.7127 37.7703C38.7766 41.5547 40.8629 45.3318 42.9285 49.117C43.1002 49.4316 43.2703 49.5884 43.6558 49.5439C44.3749 49.4613 45.1014 49.4324 45.8246 49.3787C45.6892 50.2043 45.5544 51.0272 45.4201 51.8472L41.127 51.8415C40.8997 50.2512 40.5124 48.6878 39.9712 47.1753C39.8746 46.9235 39.7789 46.6898 39.4569 46.6775Z" fill="#C57F49"/>
<path d="M29.3783 33.1148C29.4344 33.2428 29.5368 33.3699 29.5434 33.4995C29.5847 34.7379 29.6086 35.9763 29.64 37.2089C29.6648 38.2111 29.6928 39.2134 29.7226 40.2165C29.7226 40.3651 29.7226 40.5137 29.7226 40.6961C29.5574 40.7068 29.4278 40.7217 29.2957 40.7225C27.0411 40.7225 24.7856 40.7184 22.5309 40.7291C22.242 40.7291 22.0975 40.6524 21.9927 40.3659C21.0664 37.8404 20.1211 35.3216 19.1857 32.7994C19.1377 32.6311 19.104 32.4591 19.085 32.2851L19.4978 32.1687C20.0336 32.6484 20.5165 33.2122 21.1167 33.5895C22.5202 34.4721 24.0706 34.7635 25.6921 34.3185C26.7521 34.0279 27.5604 33.4104 27.8279 32.2653L28.0673 32.3041L29.3783 33.1148Z" fill="#D4914F"/>
<path d="M34.4887 15.0082C35.1327 15.4788 35.1789 15.6257 34.9684 16.5033C34.7339 17.4775 34.2584 18.3353 33.7176 19.1675C33.5947 19.3613 33.5257 19.5845 33.5178 19.8139C33.4782 21.8993 33.4507 23.9847 33.4353 26.0701C33.4353 26.549 33.0993 26.8132 32.8045 27.074C31.3862 28.3463 29.6739 28.9316 27.8123 29.1504L26.7456 29.2189C26.7712 28.6071 26.7902 27.9946 26.8282 27.3828C26.9066 25.957 26.9933 24.5321 27.0758 23.1063C27.9683 23.1154 28.8607 23.1261 29.7532 23.1336C30.2849 23.1377 30.5788 22.9742 30.7389 22.5557C30.923 22.0743 30.8941 21.6013 30.5598 21.1951C30.2873 20.8649 29.8605 20.8863 29.6574 21.2232C29.724 21.2365 29.7881 21.2601 29.8473 21.2933C29.967 21.3891 30.0743 21.4997 30.1874 21.6046C30.0727 21.7094 29.9761 21.858 29.8415 21.9117C29.2966 22.1297 28.8508 21.9621 28.5206 21.4667L27.2434 21.5592C27.3863 21.4461 27.5126 21.276 27.6744 21.2289C28.0872 21.1117 28.5379 21.0935 28.9458 20.9582C30.0496 20.5916 30.5631 19.8626 30.5408 18.7085C30.5325 18.2907 30.4392 17.8738 30.3848 17.456C32.0252 17.1184 33.2462 15.809 33.3808 14.2421C33.4179 14.6499 33.4559 15.0577 33.4947 15.4804C33.5368 15.3838 33.5773 15.2914 33.6186 15.1989L34.4887 15.0082Z" fill="#EAB29C"/>
<path d="M45.4135 51.8464C45.5483 51.0208 45.6832 50.198 45.818 49.3779C45.842 49.2582 45.8676 49.1376 45.889 49.0171C46.0492 48.1181 46.0475 48.109 46.9499 48.052C48.7864 47.9323 50.6238 48.2717 52.2964 49.0394C52.7727 49.2574 52.7917 49.6074 52.8247 49.9872C52.8792 50.613 52.8965 51.242 52.9304 51.8703C52.9304 52.0008 52.9304 52.132 52.9304 52.2625H45.4118C45.411 52.1221 45.4127 51.9859 45.4135 51.8464Z" fill="#EAB29D"/>
<path d="M27.8213 32.2653C27.5538 33.4112 26.7481 34.0279 25.6855 34.3185C24.0641 34.7635 22.5137 34.4721 21.1102 33.5895C20.51 33.2123 20.027 32.6484 19.4912 32.1687C19.5135 31.9871 19.5366 31.8055 19.5589 31.6238C19.5424 30.73 19.5262 29.8354 19.5102 28.9399C20.4422 29.7748 21.504 30.4521 22.654 30.9452C24.3052 31.637 26.0389 31.8575 27.8089 31.8426L27.8213 32.2653Z" fill="#EAB29C"/>
<path d="M27.8102 31.8426C26.0376 31.8575 24.3056 31.6371 22.6552 30.9452C21.5053 30.4521 20.4434 29.7748 19.5114 28.9399C19.5032 28.7021 19.4949 28.4635 19.4858 28.2258C19.698 28.2728 19.9135 28.3083 20.1207 28.3686C22.2829 29.0233 24.4872 29.3477 26.7493 29.2156L27.8159 29.1471C27.8143 30.0453 27.8124 30.9439 27.8102 31.8426Z" fill="#25182B"/>
<path d="M38.9006 12.136C39.4587 11.2485 39.041 9.90695 38.2988 9.11192C37.1999 7.93547 35.8047 7.24033 34.3244 6.69793C31.9096 5.81291 29.3982 5.40424 26.8455 5.18216C24.7031 4.99476 22.5657 5.0542 20.4266 5.20528C20.2772 5.21601 20.1294 5.25234 19.9808 5.27711C17.9994 5.39847 16.0684 5.79392 14.1696 6.35036C12.7314 6.76975 11.3387 7.31298 10.0821 8.15425C9.84353 8.31441 9.60824 8.48035 9.3713 8.64382L9.31104 8.56869C10.0268 7.82567 10.8978 7.31464 11.8208 6.88616C14.2183 5.77328 16.7586 5.20115 19.3682 4.87092C19.6811 4.83129 19.994 4.79827 20.3069 4.76277C22.5426 4.58692 24.7783 4.52335 27.0189 4.69094C29.7012 4.89321 32.3373 5.32912 34.8619 6.29339C36.6336 6.9745 38.3062 7.82815 39.2969 9.57672V9.57094C39.3233 9.62296 39.3506 9.67414 39.3795 9.72533C39.6709 10.4758 39.5124 11.194 39.2044 11.8933C39.1549 12.0006 39.003 12.0584 38.9006 12.136Z" fill="#F1EEEC"/>
<path d="M52.9288 52.2592C52.9288 52.1288 52.9288 51.9975 52.9288 51.867C53.974 51.867 55.0184 51.8522 56.066 51.858C56.5465 51.858 56.7174 52.052 56.7174 52.5531C56.7174 55.1399 56.7174 57.7254 56.7174 60.3094C56.7174 60.4605 56.7265 60.6116 56.7315 60.7618C56.7265 61.2985 56.7174 61.8351 56.7174 62.3701C56.7174 66.6466 56.7174 70.9228 56.7174 75.1987C56.7174 75.5686 56.6778 75.8964 56.2221 75.9665C54.113 75.9616 52.0034 75.9561 49.8932 75.95C49.7157 75.95 49.5374 75.9385 49.3599 75.9327C49.3599 75.7733 49.3599 75.6132 49.3599 75.4538C49.5139 75.4135 49.671 75.3859 49.8296 75.3713C51.7953 75.3663 53.761 75.3713 55.7267 75.3713C56.218 75.3713 56.2947 75.3011 56.2947 74.8388C56.2947 67.512 56.2967 60.1853 56.3005 52.8586C56.3005 52.4598 56.1354 52.3269 55.7548 52.3335C54.8202 52.35 53.8857 52.3409 52.9478 52.3426L52.9288 52.2592Z" fill="#575757"/>
<path d="M39.297 9.57672C38.3063 7.82814 36.6337 6.97449 34.8587 6.29587C32.3374 5.33159 29.7013 4.89238 27.0157 4.69342C24.775 4.5283 22.5394 4.58939 20.3037 4.76524C20.4342 4.6637 20.5596 4.47959 20.695 4.47299C22.1588 4.39786 23.6267 4.26659 25.0879 4.3186C26.6805 4.37557 28.2697 4.58939 29.8557 4.77598C30.6705 4.87092 31.4722 5.05585 32.2796 5.20115C33.5807 5.66512 34.8967 6.09773 36.1796 6.61041C36.746 6.83662 37.2471 7.22547 37.7779 7.54084C38.2353 8.05518 38.7042 8.56126 39.1443 9.09045C39.245 9.21264 39.2491 9.4116 39.297 9.57672Z" fill="#D59759"/>
<path d="M34.4884 15.0082L33.6157 15.203C33.7153 14.7859 33.8125 14.3689 33.9071 13.9523C35.0052 13.9787 36.0652 13.7748 37.1046 13.4363C37.2838 13.3777 37.4695 13.343 37.6528 13.2968C37.1434 13.627 36.6522 13.9886 36.1205 14.2759C35.5889 14.5632 35.0341 14.7671 34.4884 15.0082Z" fill="#B46A43"/>
<path d="M29.3785 33.1148L28.0625 32.3041C28.4992 31.9136 28.9649 31.8872 29.5485 32.2216C29.4919 32.5193 29.4352 32.8171 29.3785 33.1148Z" fill="#27192E"/>
<path d="M39.3794 9.72863C39.3522 9.67745 39.3249 9.62626 39.2969 9.57425C39.3208 9.62626 39.3481 9.67745 39.3794 9.72863Z" fill="#D59759"/>
<path d="M37.6455 13.3019L37.7221 13.2786C37.7123 13.2886 37.7001 13.296 37.6868 13.3001C37.6734 13.3042 37.6592 13.3048 37.6455 13.3019V13.3019Z" fill="#B46A43"/>
<path d="M45.4134 51.8464C45.4134 51.9826 45.4134 52.1188 45.4134 52.2592C45.3994 52.2889 45.3862 52.3178 45.3722 52.3467H41.3731C40.7745 52.3467 40.7043 52.4128 40.7043 52.9997C40.7043 60.2434 40.7043 67.4867 40.7043 74.7298C40.7043 75.2722 40.8117 75.3795 41.3532 75.3795C43.3181 75.3795 45.2838 75.3795 47.2487 75.3795C47.4076 75.3917 47.5652 75.4166 47.7201 75.4539C47.7201 75.6148 47.7201 75.7758 47.7259 75.9368C45.794 75.9429 43.8624 75.9492 41.9311 75.9558C41.5481 75.9558 41.165 75.9641 40.7811 75.969C40.3625 75.8865 40.3097 75.5752 40.3089 75.226C40.3089 73.7631 40.299 72.2993 40.294 70.8364C40.299 67.9155 40.3023 64.9943 40.3039 62.0729C40.3039 61.9903 40.242 61.9135 40.209 61.8343C40.2495 61.6201 40.2771 61.4037 40.2915 61.1862C40.2965 58.355 40.2965 55.5244 40.2915 52.6943C40.2915 52.0602 40.4839 51.8687 41.1229 51.8472L45.4134 51.8464Z" fill="#575757"/>
<path d="M14.9972 58.967C16.3181 59.8218 17.641 60.6768 18.9658 61.5321C19.0814 61.6064 19.1964 61.6812 19.3109 61.7566L19.5288 63.3335C19.6505 64.2097 19.7726 65.0865 19.8954 65.9638L17.2535 65.8144L14.3087 65.5667C13.4831 64.9516 12.6295 64.3729 11.841 63.7149C9.59919 61.8453 7.6335 59.6675 6.00253 57.2465C4.49208 55.0297 3.26977 52.6297 2.36503 50.1044C2.31136 49.9542 2.34274 49.7519 2.39062 49.5901C3.39452 46.1458 4.65271 42.7923 5.98024 39.4619C6.29066 38.6825 6.75216 38.1781 7.48362 37.7438C10.4962 35.9532 13.711 34.6066 16.9332 33.27C17.1891 34.4448 17.4475 35.6188 17.6993 36.7952C17.9608 38.0133 18.2186 39.2324 18.4729 40.4526C18.483 40.5386 18.4877 40.6252 18.4869 40.7118H17.4599C17.417 41.4309 17.4087 42.0996 17.3328 42.7609C17.0851 44.9074 16.4882 46.9169 14.8338 48.4235C14.3211 48.8908 13.6482 49.1822 13.048 49.5538C13.066 49.4337 13.0936 49.3152 13.1306 49.1996C13.8208 47.5261 14.7941 46.0211 15.8897 44.5895C16.1151 44.2948 16.3528 44.0116 16.6442 43.6451L14.6117 43.0952C14.6087 43.0854 14.6046 43.076 14.5993 43.0672C14.5952 43.0622 14.5844 43.063 14.5778 43.0614L14.6117 43.0952C14.6389 43.2348 14.7297 43.4024 14.6827 43.508C14.1312 44.7588 13.5549 45.998 12.9935 47.2438C12.5898 48.1395 12.1985 49.0394 11.8047 49.9401L10.9098 51.8464C10.5245 52.727 10.1376 53.6057 9.74901 54.4825C9.65242 54.655 9.5649 54.8333 9.45675 54.9984C9.2421 55.3287 9.3742 55.4847 9.71021 55.5565C9.89679 55.6936 10.0751 55.8422 10.27 55.9693C11.8435 56.9716 13.4193 57.9708 14.9972 58.967Z" fill="#D4914F"/>
<path d="M26.7478 29.2156C24.4857 29.3477 22.2814 29.0232 20.1192 28.3686C19.912 28.3058 19.6965 28.2728 19.4843 28.2257C19.1409 28.0606 18.7834 27.9269 18.4565 27.7353C17.796 27.349 17.1215 26.9733 16.509 26.5184C15.8733 26.0462 15.6305 25.3684 15.6834 24.5577C15.7502 23.586 15.7428 22.6085 15.7758 21.6343C15.7915 21.1852 15.8287 20.7369 15.8534 20.3274C15.2566 20.1202 14.6745 20.0087 14.1849 19.733C12.4182 18.7407 11.6034 17.1555 11.5571 15.151C11.5571 15 11.5613 14.8489 11.5637 14.697C11.5687 14.6367 11.5745 14.5756 11.5802 14.5145C11.6088 14.4858 11.6325 14.4526 11.6504 14.4163C11.9427 13.3884 12.7872 13.2918 13.5773 13.5709C14.0892 13.75 14.5779 13.9952 15.0766 14.2107L16.4388 14.3816C16.5486 13.0045 16.6526 11.6968 16.7575 10.3883C17.356 10.1472 17.9512 9.89705 18.5547 9.66754C18.8297 9.56351 19.1211 9.50242 19.4051 9.41986C20.2794 9.30346 21.1504 9.17219 22.0263 9.07395C22.9295 8.9757 23.8368 8.91543 24.7425 8.83783L26.0221 8.94598C24.8721 9.13669 23.6519 9.01698 22.5547 9.80789L24.2942 9.69891C24.2942 9.66671 24.29 9.63534 24.2884 9.60314L23.5883 9.56104C24.0441 9.42403 24.516 9.34797 24.9918 9.33483C27.1218 9.26961 29.2022 9.61883 31.2753 10.0779C31.8086 10.5113 32.3708 10.915 32.8637 11.3905C33.1246 11.6382 33.2649 12.0155 33.4598 12.3342C33.4251 12.6495 33.3901 12.9646 33.3549 13.2794C33.26 12.1856 32.6944 11.3806 31.8259 10.7507C31.2802 10.3652 30.7098 10.063 30.0922 10.1488L31.7549 10.8382C31.9754 11.0553 32.2049 11.265 32.4154 11.4987C32.4831 11.5746 32.4897 11.7051 32.5244 11.8107C32.4188 11.804 32.314 11.7875 32.2115 11.7612C30.8542 11.2799 29.4871 10.8333 28.0481 10.6607L28.8935 10.3305L29.1032 10.2108L28.8943 10.1546C28.5244 10.2958 28.162 10.5245 27.7831 10.5567C27.2828 10.5996 27.0929 10.792 26.922 11.2609C26.7371 11.7711 26.3391 12.2037 26.0188 12.6941C25.7819 12.5356 25.4838 12.4299 25.2031 12.7395C25.1453 12.657 25.0809 12.5744 25.0289 12.4828C24.8638 12.1971 24.6987 11.9098 24.5377 11.6225C24.4197 11.4632 24.3008 11.3047 24.1819 11.1453C24.2364 10.3016 24.2141 10.2785 23.3877 10.3404C23.3209 10.3498 23.255 10.3641 23.1904 10.3833L22.5588 10.3263C22.5283 10.3519 22.501 10.3932 22.4663 10.4007C21.5458 10.5914 20.6245 10.7812 19.7015 10.9596C19.6387 10.9711 19.5578 10.8877 19.486 10.8489C20.2819 10.2793 21.1809 10.1579 22.1278 10.2421L22.2765 10.2314L22.1047 10.0795C21.7646 10.0795 21.4195 10.0457 21.0843 10.0886C20.3248 10.1843 19.6305 10.4477 19.0806 11.0108C18.7636 11.2221 18.4499 11.4359 18.3632 11.8446C17.8629 12.5711 17.744 13.3892 17.8348 14.2388C18.0677 16.429 20.2975 18.0695 22.6199 17.3372C22.7723 17.2976 22.9223 17.2491 23.069 17.1919C23.7929 16.8623 24.3936 16.3117 24.7849 15.6193C25.1762 14.9268 25.338 14.1282 25.2469 13.3381C25.2279 13.1729 25.2717 12.9913 25.2865 12.8171C25.7819 12.5785 26.0543 12.7296 26.0023 13.2522C25.9104 14.0721 26.0578 14.901 26.4266 15.639V16.9962L26.553 17.0367L27.1928 16.5553L27.3207 16.4365C27.5236 16.4123 27.7248 16.3762 27.9234 16.3283C29.0413 15.9882 29.7653 16.2903 30.2994 17.3322C30.3275 17.3743 30.3564 17.4148 30.382 17.4577C30.4365 17.8754 30.5298 18.2924 30.538 18.7101C30.5603 19.8659 30.0468 20.5933 28.943 20.9598C28.5352 21.0952 28.0885 21.1134 27.6716 21.2306C27.5065 21.2768 27.3835 21.4469 27.2407 21.5608C26.5443 21.6468 25.8378 21.5418 25.1965 21.257C25.0967 21.2044 24.9839 21.1811 24.8714 21.19C24.7588 21.199 24.6512 21.2397 24.5608 21.3074C23.8178 21.7747 23.0451 22.2155 22.1551 22.322C21.876 22.3425 21.5973 22.2768 21.3568 22.1338C21.2049 22.0455 21.1586 21.7771 21.0645 21.5889L21.5689 21.3776C21.5926 21.3617 21.6147 21.3438 21.635 21.3239C21.2816 21.2067 20.9291 21.0333 20.6195 21.3346C20.3099 21.636 20.3578 22.0083 20.4676 22.3782C20.6179 22.8785 20.849 23.0114 21.5995 23.0238C23.424 23.0524 25.2491 23.0799 27.0747 23.1063C26.9922 24.5321 26.9096 25.957 26.8271 27.3828C26.794 27.9913 26.775 28.6039 26.7478 29.2156ZM25.592 20.0616C26.1014 19.875 26.5926 19.7883 26.9897 20.3728C27.0021 19.9179 26.7932 19.7124 26.4291 19.6414C26.0089 19.5588 25.7406 19.6992 25.5986 20.0682L25.5598 20.1012C25.5672 20.1012 25.5788 20.1012 25.5821 20.0946C25.5867 20.0841 25.5901 20.073 25.592 20.0616V20.0616Z" fill="#DA8B8B"/>
<path d="M41.1201 51.8464C40.4811 51.8654 40.2887 52.0594 40.2887 52.6934C40.2887 55.5235 40.2887 58.3542 40.2887 61.1854C40.2742 61.4028 40.2467 61.6193 40.2062 61.8334C39.6968 63.1816 39.1907 64.5323 38.6755 65.8788C38.5888 66.1066 38.4667 66.3221 38.3643 66.5392C38.8836 67.1626 38.8481 67.4581 38.2149 67.8965C37.012 67.416 36.0411 66.6375 35.2618 65.6096C35.2232 65.5709 35.1931 65.5245 35.1734 65.4734C35.1288 65.2563 34.9935 64.9327 35.0834 64.8443C35.2221 64.7089 35.5177 64.7073 35.7489 64.699C35.9206 64.6932 36.0939 64.775 36.269 64.8022C36.9253 64.9054 37.4578 64.6528 37.7781 64.1046C38.2652 63.2691 38.2999 62.3948 37.7963 61.5288C37.7436 61.4172 37.7373 61.2892 37.779 61.173C38.4097 59.568 39.0867 57.9763 39.3954 56.2699C39.5994 55.1454 39.7364 54.0078 39.8693 52.8726C39.937 52.2897 39.9932 51.6928 39.9445 51.1125C39.8313 49.7552 39.6505 48.4029 39.4978 47.049C39.4838 46.9276 39.4706 46.8054 39.4574 46.6832C39.7793 46.6956 39.8701 46.9309 39.9626 47.1835C40.5042 48.695 40.8919 50.2572 41.1201 51.8464Z" fill="#523C69"/>
<path d="M19.5603 31.6238C19.538 31.8054 19.5149 31.9871 19.4926 32.1687L19.0798 32.2851L18.7446 31.5545L19.5603 31.6238Z" fill="#27192C"/>
<path d="M16.7586 10.3883C16.6537 11.6968 16.5497 13.0045 16.4399 14.3816L15.0777 14.2107C14.9993 13.4925 14.9126 12.775 14.8474 12.0559C14.835 11.9197 14.8523 11.7414 14.9299 11.6432C15.3999 11.051 16.037 10.6138 16.7586 10.3883V10.3883Z" fill="#25182B"/>
<path d="M9.28946 8.71234L9.11608 8.74866L9.10205 8.69913L9.22754 8.65042L9.28946 8.71234Z" fill="#F1EEEC"/>
<path d="M9.37104 8.64379L9.28848 8.71232L9.22656 8.6504L9.30912 8.56784L9.37104 8.64379Z" fill="#F1EEEC"/>
<path d="M19.896 65.9638C19.7738 65.0882 19.6519 64.2122 19.5303 63.336L19.3115 61.7534L21.3887 61.3835L21.6281 61.3324C21.7627 61.3208 21.8989 61.3167 22.0318 61.2977C23.0258 61.1518 24.0195 61.0043 25.013 60.8552C24.9579 61.7006 24.9029 62.5457 24.8479 63.3905C24.7653 64.7114 24.6827 66.034 24.6002 67.3583C23.3293 66.9884 22.0591 66.6177 20.7893 66.2462C20.4896 66.1612 20.1932 66.0571 19.896 65.9638Z" fill="#EAB29C"/>
<path d="M14.9975 58.967C13.4195 57.9681 11.8437 56.9705 10.2702 55.9743C10.0754 55.8497 9.89703 55.7011 9.71045 55.5615C9.72366 55.2038 9.73659 54.846 9.74925 54.4883C10.1345 53.6077 10.5214 52.729 10.91 51.8522C10.9579 52.0619 11.0372 52.2691 11.0495 52.4813C11.1032 53.3671 11.5622 53.9814 12.283 54.4511C13.3314 55.1347 14.4963 55.5335 15.6794 55.8926C16.8624 56.2517 18.0686 56.5299 19.0973 57.2647C19.6504 57.6593 19.6513 58.21 19.0147 58.4577C18.3765 58.6973 17.7109 58.8568 17.0333 58.9324C16.3671 59.0125 15.6786 58.9604 14.9975 58.967Z" fill="#24162A"/>
<path d="M24.6016 67.3615C24.6841 66.0406 24.7667 64.718 24.8492 63.3938C24.9043 62.5489 24.9593 61.7038 25.0144 60.8584C26.3122 60.8015 27.61 60.7206 28.9086 60.6933C29.4601 60.6834 29.6772 61.0442 29.6516 61.736C29.6302 62.257 29.3792 62.5005 28.8483 62.503C28.0153 62.503 27.1815 62.503 26.5037 62.503L27.8989 63.0718C27.9253 63.1279 27.9526 63.1849 27.9815 63.2419C27.9419 63.4896 27.9427 63.7595 27.856 63.9932C27.5679 64.7742 27.2393 65.5403 26.9479 66.3196C26.8158 66.6705 26.6061 66.8901 26.2321 66.971C25.6814 67.0916 25.1423 67.2319 24.6016 67.3615Z" fill="#DA8B8B"/>
<path d="M27.9743 63.246C27.9479 63.189 27.9207 63.132 27.8918 63.0759C28.2319 63.0487 28.572 63.014 28.913 62.9933C29.9797 62.9347 31.0455 62.8753 32.1121 62.8282C33.5354 62.7655 34.9595 62.7036 36.3837 62.6631C36.7651 62.6524 36.912 62.5418 36.9054 62.1339C36.8609 59.2939 37.0169 56.449 36.7296 53.6148C36.6726 53.0509 36.5645 52.4936 36.4687 51.8885C35.7397 51.9306 35.085 51.9826 34.4287 52.0032C32.3862 52.066 30.3437 52.121 28.3013 52.1684C26.6129 52.2072 24.9246 52.2245 23.2363 52.26C22.7305 52.271 22.2253 52.3002 21.7206 52.3475C21.6289 52.3566 21.4778 52.492 21.4729 52.5729C21.4597 53.1112 21.4077 53.6684 22.045 53.9615C22.1228 54.0075 22.1888 54.0712 22.2375 54.1473C22.2863 54.2234 22.3165 54.31 22.3257 54.3999C22.3257 54.5113 22.0921 54.6888 21.9468 54.707C21.5711 54.7549 21.534 54.9613 21.534 55.2767C21.5703 57.2944 21.5926 59.3129 21.6165 61.3315L21.3771 61.3826C21.3672 59.2147 21.3573 57.0467 21.3474 54.9085C20.7695 54.7359 20.2832 54.6096 19.811 54.4387C19.6109 54.3556 19.4296 54.2332 19.2777 54.0787C18.9673 53.7857 19.0366 53.481 19.4651 53.4265C19.9158 53.3679 20.3823 53.4265 20.8413 53.4447C20.9902 53.4645 21.1373 53.4956 21.2813 53.538V52.2088C21.6603 52.1675 22.0079 52.104 22.3546 52.0965C24.0702 52.0577 25.7874 52.0379 27.5029 52.0041C28.5176 51.9834 29.5322 51.9512 30.5468 51.9215C32.4118 51.8678 34.276 51.8241 36.1401 51.7481C36.5306 51.7324 36.6858 51.872 36.718 52.2294C36.8006 53.055 36.9261 53.8856 36.9657 54.7169C37.0483 56.4969 37.0962 58.2793 37.1308 60.0617C37.1449 60.8691 37.0739 61.6782 37.0615 62.4864C37.0557 62.8167 36.8625 62.8167 36.6231 62.8249C35.2956 62.8753 33.9672 62.9281 32.6397 62.99C31.0909 63.0743 29.533 63.1618 27.9743 63.246Z" fill="#27192E"/>
<path d="M11.8047 49.9401C12.2018 49.0411 12.5931 48.1395 12.9968 47.2438C13.5582 45.998 14.1345 44.7588 14.686 43.508C14.733 43.4024 14.6422 43.2348 14.615 43.0952L16.6492 43.6385C16.3578 44.0026 16.12 44.2882 15.8946 44.5829C14.7991 46.0145 13.8257 47.5195 13.1355 49.193C13.0985 49.3086 13.0709 49.4271 13.053 49.5472V49.5348L12.9704 49.6025L11.8047 49.9401Z" fill="#B46A43"/>
<path d="M12.9702 49.6041L13.0528 49.5364L12.9702 49.6041Z" fill="#D4914F"/>
<path d="M31.2816 10.0762C29.2119 9.61802 27.1281 9.2688 24.9981 9.3332C24.5224 9.34634 24.0505 9.4224 23.5947 9.55941L24.2948 9.60151C24.2948 9.63371 24.2948 9.66508 24.3005 9.69728L22.561 9.80625C23.6541 9.01535 24.8727 9.13506 26.0285 8.94435L24.7422 8.83372C24.9073 7.81661 25.5917 7.23292 26.466 6.8383C27.3742 6.42551 28.3211 6.25131 29.3143 6.43459C29.4759 6.46349 29.634 6.50971 29.7857 6.57246C30.3892 6.82591 30.5287 7.27668 30.1754 7.82651C30.0358 8.04116 29.86 8.2327 29.6404 8.51257C29.9021 8.49523 30.0936 8.47459 30.2843 8.47212C30.5565 8.45666 30.8295 8.4619 31.1008 8.4878C31.6515 8.56623 31.9264 8.79987 31.957 9.16891C31.9958 9.59408 31.7993 9.85744 31.2816 10.0762ZM29.6247 8.53404C29.6173 8.52661 29.6098 8.51257 29.6016 8.51257C29.5933 8.51257 29.5842 8.52495 29.576 8.53156L29.6115 8.55633C29.6164 8.5489 29.6206 8.54147 29.6247 8.53404Z" fill="#25182B"/>
<path d="M33.3613 13.2778C33.396 12.9624 33.431 12.6473 33.4662 12.3325C34.0664 12.6215 34.1266 12.7346 34.0144 13.3496C33.9772 13.5502 33.9425 13.7509 33.907 13.9523C33.8096 14.3689 33.7125 14.7859 33.6156 15.2031C33.5752 15.2955 33.5331 15.388 33.4918 15.4846C33.453 15.0586 33.415 14.6507 33.3778 14.2462C33.3729 13.9231 33.3674 13.6003 33.3613 13.2778Z" fill="#321F32"/>
<path d="M27.0779 23.103C25.2528 23.0766 23.4277 23.049 21.6027 23.0204C20.8522 23.008 20.621 22.8751 20.4708 22.3748C20.361 22.005 20.3247 21.6227 20.6227 21.3313C20.9207 21.0399 21.2832 21.2033 21.6382 21.3206C21.6178 21.3404 21.5957 21.3584 21.5721 21.3742L21.0677 21.5856C21.1618 21.7738 21.208 22.0421 21.3599 22.1304C21.6005 22.2734 21.8792 22.3391 22.1583 22.3187C23.0482 22.2089 23.8185 21.7713 24.564 21.304C24.6543 21.2363 24.762 21.1956 24.8746 21.1867C24.9871 21.1778 25.0998 21.201 25.1997 21.2537C25.8405 21.5389 26.5468 21.6444 27.243 21.5591L28.5177 21.465C28.8479 21.9604 29.2954 22.1255 29.8386 21.91C29.9732 21.8564 30.0698 21.7078 30.1846 21.6029C30.0714 21.4981 29.9641 21.3874 29.8444 21.2917C29.7852 21.2585 29.7211 21.2348 29.6545 21.2215C29.8576 20.8846 30.2844 20.8624 30.5569 21.1934C30.8912 21.5996 30.9201 22.0727 30.736 22.554C30.5709 22.9742 30.282 23.1377 29.7503 23.1319C28.8595 23.1228 27.967 23.1162 27.0779 23.103Z" fill="#27192C"/>
<path d="M33.3619 13.2778C33.3674 13.5998 33.3729 13.9215 33.3784 14.2429C33.2438 15.8115 32.0228 17.1192 30.3824 17.4569C30.3535 17.4156 30.3246 17.3743 30.2998 17.3314C31.7479 17.0119 32.7419 16.1698 33.1431 14.7317C33.4172 13.75 33.3396 12.7849 32.6915 11.9313H32.6989L32.5272 11.8058C32.4934 11.7001 32.4868 11.5697 32.4191 11.4937C32.2127 11.2634 31.9832 11.0537 31.7586 10.8333L31.8271 10.7458C32.6998 11.3765 33.2702 12.1839 33.3619 13.2778Z" fill="#241817"/>
<path d="M45.3687 52.3458C45.3827 52.3169 45.3959 52.288 45.4099 52.2583H52.9285C52.9392 52.2864 52.9491 52.3136 52.959 52.3409C52.9437 52.3408 52.9284 52.3386 52.9136 52.3343H45.4132C45.3989 52.3399 45.3839 52.3438 45.3687 52.3458V52.3458Z" fill="#DA8B8B"/>
<path d="M49.3686 75.4579H47.7174C47.5625 75.4207 47.4049 75.3958 47.246 75.3836C45.2811 75.3787 43.3154 75.3836 41.3506 75.3836C40.809 75.3836 40.7017 75.2763 40.7017 74.7339C40.7017 67.4903 40.7017 60.2469 40.7017 53.0038C40.7017 52.4169 40.7718 52.3508 41.3704 52.3508H45.3695C45.3846 52.3501 45.3995 52.3476 45.4141 52.3434C45.4454 52.8899 45.471 53.4373 45.5107 53.9838C45.5272 54.2075 45.6254 54.3528 45.8904 54.3669C46.2727 54.3867 46.6533 54.4346 47.0314 54.4915C47.355 54.5411 47.5614 54.4486 47.625 54.1085C47.6753 53.8435 47.833 53.7576 48.1096 53.7254C49.5362 53.5603 50.9595 53.3638 52.3828 53.1657C52.5099 53.1483 52.6808 53.0699 52.7328 52.9692C52.8319 52.7809 52.8583 52.5564 52.9145 52.3442C52.9292 52.3485 52.9445 52.3507 52.9599 52.3508C53.8944 52.3508 54.829 52.3582 55.7668 52.3417C56.1491 52.3351 56.3125 52.468 56.3125 52.8668C56.3059 60.1941 56.304 67.5208 56.3068 74.847C56.3068 75.3093 56.23 75.3795 55.7388 75.3795C53.7731 75.3795 51.8074 75.3795 49.8416 75.3795C49.6821 75.3926 49.5238 75.4188 49.3686 75.4579V75.4579ZM49.1209 74.3847C49.1275 74.0355 48.8427 73.7242 48.5282 73.7242C48.2293 73.7317 47.8958 74.0652 47.8892 74.3641C47.8826 74.6629 48.1748 74.942 48.5067 74.956C48.6628 74.9578 48.8137 74.8995 48.928 74.7931C49.0423 74.6868 49.1114 74.5405 49.1209 74.3847V74.3847Z" fill="#666666"/>
<path d="M9.74964 54.4883C9.73643 54.8466 9.7235 55.2043 9.71084 55.5615C9.37483 55.4905 9.24274 55.332 9.45739 55.0042C9.56554 54.8366 9.65305 54.6583 9.74964 54.4883Z" fill="#EDF2D9"/>
<path d="M14.6135 43.0968L14.5781 43.0614C14.585 43.0614 14.5962 43.0614 14.6005 43.0675C14.606 43.0767 14.6104 43.0865 14.6135 43.0968V43.0968Z" fill="#B46A43"/>
<path d="M32.6916 11.9313C33.3397 12.7849 33.4173 13.7475 33.1432 14.7316C32.742 16.1698 31.748 17.0119 30.2999 17.3314C29.7658 16.2895 29.0418 15.9873 27.9239 16.3275C27.7253 16.3753 27.5241 16.4115 27.3213 16.4356L26.3999 15.1519C26.4205 14.602 26.8878 14.7531 27.1718 14.7102C27.8061 14.6143 28.4458 14.5592 29.0872 14.5451C29.8805 14.5261 30.6756 14.5583 31.4706 14.5731C31.6688 14.5731 31.8677 14.5954 32.1484 14.6128C32.1088 13.9663 32.0733 13.3843 32.0378 12.8023H32.6058L32.6916 11.9313Z" fill="#E9B19B"/>
<path d="M32.6922 11.9313L32.6096 12.8064H32.0317C30.681 12.7164 29.3304 12.6231 27.9789 12.5372C27.2805 12.4927 27.2078 12.4365 27.0823 11.7496C27.0752 11.6819 27.0738 11.6137 27.0782 11.5457C27.1228 11.4384 27.136 11.2914 27.2161 11.2295C27.4819 11.0223 27.7709 10.8448 28.0508 10.6516C29.4906 10.8242 30.8577 11.2708 32.2141 11.7521C32.3165 11.7798 32.4213 11.7977 32.527 11.8058L32.6922 11.9362V11.9313Z" fill="#25182B"/>
<path d="M19.4828 10.8489C19.5547 10.8877 19.6356 10.9711 19.6983 10.9596C20.6246 10.7812 21.5468 10.5914 22.4665 10.4023C22.5012 10.3949 22.5284 10.3536 22.5589 10.328L23.6933 10.8101L23.7032 10.8167C23.8369 11.0297 23.9712 11.2422 24.1061 11.4541C24.0045 11.7546 24.0673 12.2037 23.5975 12.2112C22.0099 12.2343 20.4207 12.2219 18.8323 12.2343C18.5772 12.2343 18.5202 12.1311 18.5673 11.9115L19.1699 11.1206L19.3268 11.0603L19.3177 11.0628C19.5538 11.033 19.5786 11.0017 19.4828 10.8489Z" fill="#24162A"/>
<path d="M28.0535 10.6557C27.7737 10.8448 27.4847 11.0223 27.2189 11.2336C27.1363 11.2955 27.1256 11.4425 27.081 11.5498C26.9456 11.653 26.764 11.7281 26.6823 11.8635C26.049 12.9096 25.9392 14.0101 26.3966 15.156L27.318 16.4397L27.19 16.5594L26.4239 15.6422C26.055 14.9043 25.9076 14.0753 25.9995 13.2555C26.0515 12.7329 25.7791 12.5818 25.2837 12.8204L25.2012 12.7436C25.4819 12.434 25.7791 12.5397 26.0168 12.6982C26.3372 12.2078 26.7351 11.7752 26.92 11.265C27.0909 10.7961 27.2808 10.6045 27.7811 10.5608C28.16 10.5286 28.5241 10.2999 28.8923 10.1587C28.8923 10.214 28.8923 10.2693 28.8923 10.3238L28.0535 10.6557Z" fill="#241817"/>
<path d="M22.6196 17.3372C20.3006 18.0703 18.0707 16.429 17.837 14.2404C17.7462 13.3901 17.8651 12.5719 18.3654 11.8462L18.4273 11.9048C18.3943 12.0222 18.3535 12.1372 18.3051 12.2491C17.3499 14.1537 18.4042 16.6362 20.469 17.1795C21.1542 17.3603 21.9047 17.295 22.6254 17.3446L22.6196 17.3372Z" fill="#241817"/>
<path d="M24.5374 11.6225C24.7026 11.9098 24.8627 12.2004 25.0287 12.4828C25.0807 12.5719 25.1451 12.6545 25.2029 12.7395L25.2854 12.8163C25.2706 12.9905 25.2268 13.168 25.2458 13.3373C25.3369 14.1274 25.1751 14.926 24.7838 15.6185C24.3925 16.3109 23.7918 16.8615 23.0679 17.1911C22.9215 17.2485 22.7718 17.2973 22.6196 17.3372H22.6254C22.6798 17.2665 22.7412 17.2015 22.8087 17.1432C23.2636 16.8212 23.7796 16.5653 24.1701 16.1772C25.2805 15.0768 25.4563 13.1465 24.4582 11.7018C24.4821 11.677 24.5102 11.6498 24.5374 11.6225Z" fill="#241817"/>
<path d="M26.4233 15.6381L27.1895 16.5553L26.5497 17.0358L26.4233 16.9954V15.6381Z" fill="#E9B19B"/>
<path d="M19.4829 10.849L19.3178 11.0628L19.3261 11.057L19.1783 11.0818L19.0825 11.0075C19.6332 10.4444 20.3275 10.1819 21.087 10.0853C21.4222 10.0424 21.7673 10.0762 22.1074 10.0762C22.1149 10.1299 22.1231 10.1844 22.1306 10.2413C21.1811 10.1546 20.2821 10.2793 19.4829 10.849Z" fill="#241817"/>
<path d="M23.1909 10.3833C23.2555 10.3641 23.3215 10.3498 23.3882 10.3404C24.2138 10.2785 24.2369 10.3016 24.1824 11.1453L23.6995 10.8151L23.6896 10.8085L23.1909 10.3833Z" fill="#321F32"/>
<path d="M25.5964 20.0616C25.7384 19.6925 26.0092 19.5514 26.427 19.6347C26.7911 19.7066 26.9999 19.9113 26.9876 20.3662C26.5905 19.7817 26.0992 19.8709 25.5898 20.055L25.5964 20.0616Z" fill="#321F32"/>
<path d="M31.7648 10.8366L30.1021 10.1472C30.7171 10.0647 31.2876 10.3635 31.8358 10.7491L31.7648 10.8366Z" fill="#241817"/>
<path d="M19.1661 11.1205L18.5634 11.9114L18.4247 11.9032L18.3628 11.8446C18.4495 11.4359 18.7632 11.2221 19.0802 11.0107L19.1752 11.085L19.1661 11.1205Z" fill="#241817"/>
<path d="M23.1905 10.3833L23.6859 10.8101L22.5557 10.3264L23.1905 10.3833Z" fill="#241817"/>
<path d="M23.6992 10.8151L24.1822 11.1453C24.3011 11.3047 24.4199 11.4632 24.538 11.6225C24.5108 11.6498 24.4827 11.677 24.4554 11.7051L24.1021 11.4574C23.9678 11.2433 23.8335 11.0292 23.6992 10.8151Z" fill="#241817"/>
<path d="M28.8984 10.3197C28.8984 10.2636 28.8984 10.2083 28.8984 10.1546L29.1123 10.2017L28.8984 10.3197Z" fill="#DA8B8B"/>
<path d="M22.1247 10.2421C22.1173 10.1877 22.109 10.1332 22.1016 10.077L22.2733 10.2289L22.1247 10.2421Z" fill="#DA8B8B"/>
<path d="M25.5933 20.0616C25.5913 20.0733 25.5879 20.0848 25.5831 20.0957C25.5831 20.1008 25.5677 20.0999 25.5601 20.1025L25.6001 20.0684L25.5933 20.0616Z" fill="#321F32"/>
<path d="M21.6294 61.3356C21.6022 59.3171 21.5799 57.2985 21.5469 55.2808C21.5411 54.9654 21.5824 54.7591 21.9596 54.7112C22.1049 54.693 22.3345 54.5155 22.3386 54.4041C22.3294 54.3141 22.2991 54.2276 22.2504 54.1515C22.2016 54.0753 22.1357 54.0117 22.0579 53.9657C21.4205 53.6726 21.4726 53.1153 21.4858 52.577C21.4858 52.4945 21.6385 52.3607 21.7334 52.3517C22.237 52.3043 22.7423 52.2752 23.2492 52.2641C24.9375 52.2286 26.6258 52.2113 28.3141 52.1725C30.3566 52.1263 32.3991 52.0712 34.4416 52.0074C35.0979 51.9868 35.7526 51.9347 36.4816 51.8926C36.5749 52.4978 36.6855 53.0551 36.7425 53.6189C37.0298 56.4531 36.8737 59.2981 36.9183 62.1381C36.9249 62.5459 36.778 62.6565 36.3966 62.6673C34.9724 62.7069 33.5483 62.7688 32.125 62.8324C31.0584 62.8795 29.9925 62.9389 28.9259 62.9975C28.5849 63.0157 28.2448 63.0503 27.9046 63.0801L26.5003 62.5071C27.1781 62.5071 28.012 62.5071 28.845 62.5071C29.3758 62.5071 29.6268 62.2594 29.6483 61.7402C29.6763 61.0483 29.4592 60.6875 28.9052 60.6974C27.6066 60.7214 26.3088 60.8023 25.011 60.8626C24.017 61.0106 23.0233 61.1581 22.0298 61.3051C21.8985 61.3199 21.7623 61.3241 21.6294 61.3356Z" fill="#432F4F"/>
<path d="M29.6269 8.5347C29.6227 8.54237 29.6184 8.55004 29.6133 8.55771L29.5767 8.53215C29.5852 8.52533 29.5946 8.5117 29.6031 8.51255C29.6116 8.5134 29.6193 8.52704 29.6269 8.5347Z" fill="#D4914F"/>
<path d="M32.692 11.9338L32.5269 11.8058L32.692 11.9338Z" fill="#DA8B8B"/>
<path d="M52.9145 52.3418C52.8583 52.5523 52.8319 52.7785 52.7328 52.9667C52.6808 53.0675 52.5099 53.1459 52.3828 53.1632C50.9595 53.3614 49.5362 53.5562 48.1096 53.723C47.833 53.7552 47.6753 53.841 47.625 54.106C47.5614 54.4462 47.355 54.5386 47.0314 54.4891C46.6533 54.4321 46.2727 54.3843 45.8904 54.3644C45.6254 54.3504 45.5272 54.2051 45.5107 53.9814C45.471 53.4348 45.4454 52.8875 45.4141 52.3409L52.9145 52.3418Z" fill="#DA8B8B"/>
<path d="M26.3965 15.1518C25.9408 14.0068 26.049 12.9054 26.6822 11.8594C26.7647 11.724 26.9455 11.6489 27.0809 11.5457C27.0765 11.6137 27.0779 11.6819 27.0851 11.7496C27.2105 12.4365 27.2832 12.4927 27.9816 12.5372C29.3331 12.6198 30.6838 12.7164 32.0344 12.8064C32.0699 13.3843 32.1054 13.9704 32.145 14.6169C31.8643 14.5995 31.6654 14.5805 31.4672 14.5772C30.6722 14.5624 29.8772 14.5302 29.0838 14.5492C28.4425 14.5633 27.8027 14.6184 27.1684 14.7143C26.8844 14.7531 26.418 14.602 26.3965 15.1518ZM28.7783 14.0464L30.6185 14.1702C30.6392 13.5923 30.4303 13.2968 29.9927 13.22C29.4528 13.1267 28.9971 13.4124 28.7783 14.0464Z" fill="#DA8B8B"/>
<path d="M24.1063 11.4541L24.4597 11.7017C25.4578 13.1465 25.2852 15.0767 24.1715 16.1772C23.781 16.5636 23.2634 16.8212 22.8101 17.1431C22.7404 17.2011 22.6767 17.2661 22.6203 17.3371C21.8995 17.2901 21.1491 17.3553 20.4639 17.172C18.3999 16.6288 17.3448 14.1463 18.3 12.2417C18.3483 12.1298 18.3892 12.0147 18.4222 11.8974L18.5609 11.9057C18.5138 12.1253 18.5708 12.2301 18.8259 12.2285C20.4143 12.2161 22.0036 12.2285 23.5911 12.2053C24.0634 12.2037 24.0006 11.7546 24.1063 11.4541ZM20.5811 14.228H22.4362C22.3354 13.6584 21.9028 13.2968 21.3802 13.3199C20.8989 13.3422 20.6463 13.6154 20.5811 14.228Z" fill="#DA8B8B"/>
<path d="M19.3179 11.0628L19.483 10.8489C19.5755 11.005 19.5507 11.0363 19.3179 11.0628Z" fill="#DA8B8B"/>
<path d="M19.1655 11.1206L19.1746 11.0851L19.3224 11.0603L19.1655 11.1206Z" fill="#DA8B8B"/>
<path d="M28.7783 14.0464C28.9971 13.4124 29.4528 13.1242 29.9927 13.2208C30.4303 13.2976 30.6392 13.5957 30.6185 14.1711L28.7783 14.0464Z" fill="#27192C"/>
<path d="M20.5811 14.228C20.6463 13.6155 20.8989 13.3422 21.3802 13.3199C21.9028 13.2968 22.3354 13.6584 22.4361 14.228H20.5811Z" fill="#321F32"/>
</g>
</svg>
