<svg width="24" height="20" viewBox="0 0 24 20" fill="none" xmlns="http://www.w3.org/2000/svg">
<path d="M5.49991 19.9997C4.41213 19.9997 3.34878 19.6772 2.44433 19.0729C1.53987 18.4685 0.834934 17.6095 0.418658 16.6046C0.002383 15.5996 -0.106534 14.4938 0.105682 13.4269C0.317897 12.36 0.841713 11.38 1.61089 10.6109C2.38007 9.84171 3.36006 9.31789 4.42694 9.10568C5.49381 8.89347 6.59966 9.00238 7.60464 9.41866C8.60962 9.83493 9.46859 10.5399 10.0729 11.4443C10.6773 12.3488 10.9998 13.4121 10.9998 14.4999C10.998 15.958 10.418 17.3559 9.38697 18.3869C8.35593 19.4179 6.95804 19.998 5.49991 19.9997ZM5.49991 10.4984C4.70882 10.4984 3.93549 10.7329 3.27771 11.1724C2.61994 11.612 2.10727 12.2367 1.80453 12.9675C1.50179 13.6984 1.42258 14.5026 1.57691 15.2785C1.73125 16.0544 2.1122 16.7671 2.67159 17.3265C3.23098 17.8859 3.94368 18.2668 4.71958 18.4212C5.49548 18.5755 6.29972 18.4963 7.0306 18.1936C7.76147 17.8908 8.38617 17.3782 8.82568 16.7204C9.26519 16.0626 9.49977 15.2893 9.49977 14.4982C9.49425 13.4391 9.07107 12.4249 8.32214 11.676C7.57322 10.9271 6.55904 10.5039 5.49991 10.4984Z" fill="#407EF8"/>
<path d="M10.25 15.2498C10.0511 15.2498 9.86033 15.1708 9.71968 15.0301C9.57902 14.8895 9.5 14.6987 9.5 14.4998V3.50002C9.5 3.3011 9.57902 3.11033 9.71968 2.96968C9.86033 2.82902 10.0511 2.75 10.25 2.75C10.4489 2.75 10.6397 2.82902 10.7804 2.96968C10.921 3.11033 11 3.3011 11 3.50002V14.4998C11 14.5983 10.9806 14.6958 10.943 14.7868C10.9053 14.8778 10.85 14.9605 10.7804 15.0301C10.7107 15.0998 10.628 15.155 10.537 15.1927C10.4461 15.2304 10.3485 15.2498 10.25 15.2498Z" fill="#407EF8"/>
<path d="M1.05286 13.5769C0.962666 13.5772 0.873194 13.5609 0.788833 13.529C0.696626 13.4944 0.612151 13.4419 0.540232 13.3746C0.468312 13.3072 0.410358 13.2264 0.369677 13.1367C0.328997 13.047 0.306388 12.9501 0.303142 12.8517C0.299895 12.7532 0.316075 12.6551 0.350757 12.5629L4.21861 2.26693C4.28863 2.08084 4.42971 1.93018 4.61081 1.8481C4.70049 1.80746 4.79729 1.78488 4.89569 1.78165C4.99409 1.77842 5.09216 1.79461 5.18431 1.82928C5.27645 1.86395 5.36087 1.91643 5.43273 1.98373C5.50459 2.05102 5.5625 2.13181 5.60314 2.22148C5.64378 2.31116 5.66636 2.40796 5.66959 2.50636C5.67282 2.60476 5.65663 2.70283 5.62196 2.79497L1.75411 13.0909C1.70041 13.2337 1.60443 13.3568 1.47898 13.4436C1.35353 13.5304 1.20458 13.577 1.05202 13.5769H1.05286Z" fill="#407EF8"/>
<path d="M10.25 4.25C10.0511 4.25 9.86031 4.17098 9.71965 4.03033C9.57899 3.88967 9.49997 3.6989 9.49997 3.49998C9.49984 3.03235 9.33574 2.57957 9.03623 2.22044C8.73672 1.86131 8.32076 1.61857 7.86075 1.53447C7.40075 1.45037 6.92581 1.53023 6.51861 1.76016C6.1114 1.99008 5.79771 2.35551 5.63213 2.79284C5.60967 2.84127 5.59084 2.89129 5.57579 2.94251C5.52617 3.13518 5.40205 3.30026 5.23072 3.40141C5.0594 3.50257 4.8549 3.53152 4.66223 3.4819C4.46955 3.43229 4.30447 3.30816 4.20332 3.13683C4.10216 2.96551 4.07321 2.76101 4.12283 2.56834C4.15349 2.4552 4.19169 2.34424 4.23718 2.23621C4.53128 1.47406 5.08281 0.838858 5.79615 0.440718C6.50949 0.0425776 7.33967 -0.093393 8.14275 0.0563788C8.94583 0.206151 9.67119 0.632222 10.1931 1.26072C10.7149 1.88923 11.0004 2.68053 11 3.49746C11 3.69638 10.921 3.88715 10.7804 4.0278C10.6397 4.16846 10.4489 4.24748 10.25 4.24748V4.25Z" fill="#407EF8"/>
<path d="M13.75 4.24957C13.5511 4.24957 13.3603 4.17055 13.2197 4.02989C13.079 3.88923 13 3.69846 13 3.49955C12.9991 2.68003 13.2861 1.88623 13.8107 1.25665C14.3354 0.627075 15.0644 0.2017 15.8706 0.054748C16.6769 -0.0922044 17.5091 0.0485962 18.2222 0.452582C18.9352 0.856568 19.4837 1.49809 19.7721 2.26521L19.8562 2.51241C19.8923 2.60625 19.9092 2.7064 19.9059 2.8069C19.9025 2.90741 19.879 3.00621 19.8367 3.09744C19.7944 3.18867 19.7342 3.27046 19.6596 3.33795C19.5851 3.40544 19.4977 3.45725 19.4028 3.4903C19.3078 3.52335 19.2071 3.53696 19.1068 3.53033C19.0065 3.5237 18.9085 3.49695 18.8187 3.45169C18.7289 3.40643 18.6491 3.34357 18.5841 3.26686C18.5191 3.19015 18.4701 3.10114 18.4402 3.00514L18.3561 2.77475C18.1874 2.33999 17.872 1.97792 17.4645 1.75121C17.0569 1.5245 16.5829 1.44744 16.1246 1.53336C15.6662 1.61929 15.2523 1.86279 14.9546 2.22171C14.6568 2.58062 14.494 3.03236 14.4942 3.49871C14.4942 3.69762 14.4152 3.88839 14.2745 4.02905C14.1338 4.16971 13.9431 4.24873 13.7442 4.24873L13.75 4.24957Z" fill="#407EF8"/>
<path d="M13.75 15.2498C13.5511 15.2498 13.3603 15.1708 13.2197 15.0301C13.079 14.8895 13 14.6987 13 14.4998V3.50002C13 3.3011 13.079 3.11033 13.2197 2.96968C13.3603 2.82902 13.5511 2.75 13.75 2.75C13.9489 2.75 14.1397 2.82902 14.2804 2.96968C14.421 3.11033 14.5 3.3011 14.5 3.50002V14.4998C14.5 14.5983 14.4806 14.6958 14.443 14.7868C14.4053 14.8778 14.35 14.9605 14.2804 15.0301C14.2107 15.0998 14.1281 15.155 14.0371 15.1927C13.9461 15.2304 13.8485 15.2498 13.75 15.2498Z" fill="#407EF8"/>
<path d="M22.9466 13.5783C22.794 13.5785 22.645 13.532 22.5195 13.4451C22.394 13.3583 22.2981 13.2352 22.2445 13.0923L18.3766 2.79634C18.3066 2.61013 18.3134 2.40374 18.3956 2.22256C18.4777 2.04137 18.6285 1.90025 18.8147 1.83023C19.0009 1.76021 19.2073 1.76702 19.3885 1.84918C19.5697 1.93133 19.7108 2.08209 19.7808 2.2683L23.6487 12.5643C23.7185 12.7505 23.7116 12.9568 23.6294 13.1379C23.5473 13.3191 23.3967 13.4602 23.2106 13.5304C23.1262 13.5623 23.0368 13.5785 22.9466 13.5783Z" fill="#407EF8"/>
<path d="M18.5001 19.9999C17.4116 20.0004 16.3474 19.6781 15.4421 19.0736C14.5369 18.4692 13.8312 17.6099 13.4144 16.6044C12.9977 15.5988 12.8885 14.4923 13.1007 13.4247C13.313 12.3571 13.8371 11.3764 14.6068 10.6067C15.3764 9.83705 16.3571 9.31296 17.4247 9.10072C18.4923 8.88849 19.5989 8.99767 20.6044 9.41445C21.61 9.83122 22.4693 10.5369 23.0737 11.4421C23.6781 12.3474 24.0005 13.4116 24 14.5C23.9982 15.9581 23.4182 17.356 22.3871 18.3871C21.3561 19.4181 19.9582 19.9981 18.5001 19.9999ZM18.5001 10.4985C17.6483 10.4991 16.8191 10.7717 16.1332 11.2767C15.4473 11.7816 14.9406 12.4924 14.6869 13.3055C14.4333 14.1185 14.446 14.9914 14.7231 15.7967C15.0003 16.6021 15.5275 17.2978 16.2278 17.7826C16.9282 18.2673 17.765 18.5157 18.6164 18.4915C19.4678 18.4674 20.2892 18.1719 20.9608 17.6481C21.6325 17.1244 22.1193 16.3999 22.3504 15.5801C22.5814 14.7603 22.5445 13.8882 22.2452 13.0908C21.958 12.3297 21.4458 11.6741 20.7767 11.2113C20.1077 10.7485 19.3136 10.5004 18.5001 10.5002V10.4985Z" fill="#407EF8"/>
<path d="M13.7501 13.9991H10.2505C10.0516 13.9991 9.86082 13.92 9.72017 13.7794C9.57951 13.6387 9.50049 13.448 9.50049 13.249C9.50049 13.0501 9.57951 12.8594 9.72017 12.7187C9.86082 12.578 10.0516 12.499 10.2505 12.499H13.7501C13.949 12.499 14.1398 12.578 14.2804 12.7187C14.4211 12.8594 14.5001 13.0501 14.5001 13.249C14.5001 13.448 14.4211 13.6387 14.2804 13.7794C14.1398 13.92 13.949 13.9991 13.7501 13.9991Z" fill="#407EF8"/>
<path d="M13.7501 9.49906H10.2505C10.0516 9.49906 9.86082 9.42004 9.72017 9.27939C9.57951 9.13873 9.50049 8.94796 9.50049 8.74904C9.50049 8.55013 9.57951 8.35936 9.72017 8.2187C9.86082 8.07804 10.0516 7.99902 10.2505 7.99902H13.7501C13.949 7.99902 14.1398 8.07804 14.2804 8.2187C14.4211 8.35936 14.5001 8.55013 14.5001 8.74904C14.5001 8.94796 14.4211 9.13873 14.2804 9.27939C14.1398 9.42004 13.949 9.49906 13.7501 9.49906Z" fill="#407EF8"/>
</svg>
