<svg width="198" height="242" viewBox="0 0 198 242" fill="none" xmlns="http://www.w3.org/2000/svg">
<path d="M150.5 176.14C166.347 176.14 182.18 175.963 198 175.61V86.2501C198 82.7698 196.617 79.4322 194.157 76.9713C191.696 74.5104 188.358 73.1278 184.878 73.1278H87.9755C85.3276 73.1284 82.7416 72.3277 80.5572 70.831C78.3728 69.3344 76.6924 67.2119 75.7368 64.7424C74.781 62.2731 73.1005 60.1507 70.9162 58.6541C68.7319 57.1575 66.1459 56.3567 63.4981 56.3569H13.1222C9.642 56.3569 6.30432 57.7394 3.84342 60.2003C1.38253 62.6612 0 65.9989 0 69.4792V176.14H150.5Z" fill="url(#paint0_linear_33_4876)"/>
<path d="M182.292 209.642L191.538 9.25922L32.3486 1.91406L22.7622 209.642H182.292Z" fill="#E6E6E6"/>
<path d="M178.554 209.642L163.351 0L4.40967 11.5255L18.7749 209.642H178.554Z" fill="#E6E6E6"/>
<path d="M178.755 209.642L178.586 5.40039L19.2283 5.53234L19.3946 209.642H178.755Z" fill="#F2F2F2"/>
<path d="M184.878 100.608H87.9755C85.3276 100.609 82.7416 99.8082 80.5572 98.3115C78.3728 96.8149 76.6924 94.6923 75.7368 92.2229C74.781 89.7535 73.1005 87.6311 70.9162 86.1345C68.7319 84.6379 66.1459 83.8371 63.4981 83.8374H5.70442C4.19233 83.8379 2.74227 84.4385 1.67271 85.5074C0.603142 86.5762 0.00152011 88.0259 0 89.538V209.057C0 212.537 1.38253 215.875 3.84342 218.336C6.30432 220.797 9.642 222.179 13.1222 222.179H184.878C186.601 222.179 188.307 221.84 189.899 221.18C191.491 220.521 192.938 219.554 194.157 218.336C195.375 217.117 196.342 215.671 197.001 214.079C197.661 212.487 198 210.78 198 209.057V113.731C198 110.25 196.617 106.913 194.157 104.452C191.696 101.991 188.358 100.608 184.878 100.608Z" fill="url(#paint1_linear_33_4876)"/>
<path d="M98.9999 241.788C125.292 241.788 146.607 220.474 146.607 194.181C146.607 167.889 125.292 146.574 98.9999 146.574C72.7074 146.574 51.3931 167.889 51.3931 194.181C51.3931 220.474 72.7074 241.788 98.9999 241.788Z" fill="url(#paint2_linear_33_4876)"/>
<path d="M109.175 194.181L123.9 179.587C124.176 179.314 124.396 178.989 124.545 178.631C124.695 178.273 124.772 177.889 124.772 177.501C124.772 177.113 124.695 176.729 124.545 176.371C124.396 176.013 124.176 175.688 123.9 175.416L117.936 169.503C117.375 168.951 116.619 168.641 115.832 168.641C115.045 168.641 114.29 168.951 113.729 169.503L99.0039 184.1L84.2792 169.503C83.7185 168.95 82.9629 168.641 82.1757 168.641C81.3884 168.641 80.6328 168.95 80.0721 169.503L74.1057 175.416C73.83 175.689 73.6111 176.013 73.4617 176.371C73.3123 176.729 73.2354 177.113 73.2354 177.501C73.2354 177.889 73.3123 178.273 73.4617 178.631C73.6111 178.989 73.83 179.314 74.1057 179.587L88.8305 194.181L74.1057 208.778C73.83 209.051 73.6111 209.376 73.4617 209.733C73.3123 210.091 73.2354 210.475 73.2354 210.863C73.2354 211.251 73.3123 211.635 73.4617 211.993C73.6111 212.351 73.83 212.676 74.1057 212.949L80.0721 218.862C80.6328 219.414 81.3884 219.724 82.1757 219.724C82.9629 219.724 83.7185 219.414 84.2792 218.862L99.0039 204.265L113.729 218.862C114.29 219.414 115.045 219.723 115.832 219.723C116.619 219.723 117.375 219.414 117.936 218.862L123.9 212.949C124.176 212.676 124.396 212.351 124.545 211.993C124.695 211.636 124.772 211.251 124.772 210.863C124.772 210.475 124.695 210.091 124.545 209.733C124.396 209.375 124.176 209.05 123.9 208.778L109.175 194.181Z" fill="white"/>
<path d="M40.4818 27.02V29.61H45.0178V31.43H40.4818V35H38.2138V25.2H45.6198V27.02H40.4818ZM46.8644 27.468H49.0484V35H46.8644V27.468ZM47.9564 26.418C47.5551 26.418 47.2284 26.3013 46.9764 26.068C46.7244 25.8347 46.5984 25.5453 46.5984 25.2C46.5984 24.8547 46.7244 24.5653 46.9764 24.332C47.2284 24.0987 47.5551 23.982 47.9564 23.982C48.3578 23.982 48.6844 24.094 48.9364 24.318C49.1884 24.542 49.3144 24.822 49.3144 25.158C49.3144 25.522 49.1884 25.8253 48.9364 26.068C48.6844 26.3013 48.3578 26.418 47.9564 26.418ZM55.6534 27.356C56.5867 27.356 57.338 27.636 57.9074 28.196C58.486 28.756 58.7754 29.5867 58.7754 30.688V35H56.5914V31.024C56.5914 30.4267 56.4607 29.9833 56.1994 29.694C55.938 29.3953 55.56 29.246 55.0654 29.246C54.5147 29.246 54.076 29.4187 53.7494 29.764C53.4227 30.1 53.2594 30.604 53.2594 31.276V35H51.0754V27.468H53.1614V28.35C53.4507 28.0327 53.81 27.79 54.2394 27.622C54.6687 27.4447 55.14 27.356 55.6534 27.356ZM63.7931 27.356C64.9597 27.356 65.8557 27.636 66.4811 28.196C67.1064 28.7467 67.4191 29.582 67.4191 30.702V35H65.3751V34.062C64.9644 34.762 64.1991 35.112 63.0791 35.112C62.5004 35.112 61.9964 35.014 61.5671 34.818C61.1471 34.622 60.8251 34.3513 60.6011 34.006C60.3771 33.6607 60.2651 33.2687 60.2651 32.83C60.2651 32.13 60.5264 31.5793 61.0491 31.178C61.5811 30.7767 62.3977 30.576 63.4991 30.576H65.2351C65.2351 30.1 65.0904 29.736 64.8011 29.484C64.5117 29.2227 64.0777 29.092 63.4991 29.092C63.0977 29.092 62.7011 29.1573 62.3091 29.288C61.9264 29.4093 61.5997 29.5773 61.3291 29.792L60.5451 28.266C60.9557 27.9767 61.4457 27.7527 62.0151 27.594C62.5937 27.4353 63.1864 27.356 63.7931 27.356ZM63.6251 33.642C63.9984 33.642 64.3297 33.558 64.6191 33.39C64.9084 33.2127 65.1137 32.956 65.2351 32.62V31.85H63.7371C62.8411 31.85 62.3931 32.144 62.3931 32.732C62.3931 33.012 62.5004 33.236 62.7151 33.404C62.9391 33.5627 63.2424 33.642 63.6251 33.642ZM69.3957 24.612H71.5797V35H69.3957V24.612ZM84.1795 32.9H79.6295L78.7615 35H76.4375L80.8055 25.2H83.0455L87.4275 35H85.0475L84.1795 32.9ZM83.4655 31.178L81.9115 27.426L80.3575 31.178H83.4655ZM95.9919 27.468V33.74C95.9919 35.1213 95.6325 36.148 94.9139 36.82C94.1952 37.492 93.1452 37.828 91.7639 37.828C91.0359 37.828 90.3452 37.7393 89.6919 37.562C89.0385 37.3847 88.4972 37.128 88.0679 36.792L88.9359 35.224C89.2532 35.4853 89.6545 35.6907 90.1399 35.84C90.6252 35.9987 91.1105 36.078 91.5959 36.078C92.3519 36.078 92.9072 35.9053 93.2619 35.56C93.6259 35.224 93.8079 34.7107 93.8079 34.02V33.698C93.2385 34.3233 92.4452 34.636 91.4279 34.636C90.7372 34.636 90.1025 34.4867 89.5239 34.188C88.9545 33.88 88.5019 33.4507 88.1659 32.9C87.8299 32.3493 87.6619 31.7147 87.6619 30.996C87.6619 30.2773 87.8299 29.6427 88.1659 29.092C88.5019 28.5413 88.9545 28.1167 89.5239 27.818C90.1025 27.51 90.7372 27.356 91.4279 27.356C92.5199 27.356 93.3505 27.7153 93.9199 28.434V27.468H95.9919ZM91.8619 32.844C92.4405 32.844 92.9119 32.676 93.2759 32.34C93.6492 31.9947 93.8359 31.5467 93.8359 30.996C93.8359 30.4453 93.6492 30.002 93.2759 29.666C92.9119 29.3207 92.4405 29.148 91.8619 29.148C91.2832 29.148 90.8072 29.3207 90.4339 29.666C90.0605 30.002 89.8739 30.4453 89.8739 30.996C89.8739 31.5467 90.0605 31.9947 90.4339 32.34C90.8072 32.676 91.2832 32.844 91.8619 32.844ZM100.111 28.462C100.372 28.098 100.722 27.8227 101.161 27.636C101.609 27.4493 102.122 27.356 102.701 27.356V29.372C102.458 29.3533 102.295 29.344 102.211 29.344C101.585 29.344 101.095 29.5213 100.741 29.876C100.386 30.2213 100.209 30.744 100.209 31.444V35H98.0246V27.468H100.111V28.462ZM111.309 31.262C111.309 31.29 111.295 31.486 111.267 31.85H105.569C105.672 32.3167 105.914 32.6853 106.297 32.956C106.68 33.2267 107.156 33.362 107.725 33.362C108.117 33.362 108.462 33.306 108.761 33.194C109.069 33.0727 109.354 32.886 109.615 32.634L110.777 33.894C110.068 34.706 109.032 35.112 107.669 35.112C106.82 35.112 106.068 34.9487 105.415 34.622C104.762 34.286 104.258 33.824 103.903 33.236C103.548 32.648 103.371 31.9807 103.371 31.234C103.371 30.4967 103.544 29.834 103.889 29.246C104.244 28.6487 104.724 28.1867 105.331 27.86C105.947 27.524 106.633 27.356 107.389 27.356C108.126 27.356 108.794 27.5147 109.391 27.832C109.988 28.1493 110.455 28.6067 110.791 29.204C111.136 29.792 111.309 30.478 111.309 31.262ZM107.403 29.008C106.908 29.008 106.493 29.148 106.157 29.428C105.821 29.708 105.616 30.0907 105.541 30.576H109.251C109.176 30.1 108.971 29.722 108.635 29.442C108.299 29.1527 107.888 29.008 107.403 29.008ZM120.141 31.262C120.141 31.29 120.127 31.486 120.099 31.85H114.401C114.504 32.3167 114.746 32.6853 115.129 32.956C115.512 33.2267 115.988 33.362 116.557 33.362C116.949 33.362 117.294 33.306 117.593 33.194C117.901 33.0727 118.186 32.886 118.447 32.634L119.609 33.894C118.9 34.706 117.864 35.112 116.501 35.112C115.652 35.112 114.9 34.9487 114.247 34.622C113.594 34.286 113.09 33.824 112.735 33.236C112.38 32.648 112.203 31.9807 112.203 31.234C112.203 30.4967 112.376 29.834 112.721 29.246C113.076 28.6487 113.556 28.1867 114.163 27.86C114.779 27.524 115.465 27.356 116.221 27.356C116.958 27.356 117.626 27.5147 118.223 27.832C118.82 28.1493 119.287 28.6067 119.623 29.204C119.968 29.792 120.141 30.478 120.141 31.262ZM116.235 29.008C115.74 29.008 115.325 29.148 114.989 29.428C114.653 29.708 114.448 30.0907 114.373 30.576H118.083C118.008 30.1 117.803 29.722 117.467 29.442C117.131 29.1527 116.72 29.008 116.235 29.008ZM131.241 27.356C132.184 27.356 132.93 27.636 133.481 28.196C134.041 28.7467 134.321 29.5773 134.321 30.688V35H132.137V31.024C132.137 30.4267 132.011 29.9833 131.759 29.694C131.516 29.3953 131.166 29.246 130.709 29.246C130.196 29.246 129.79 29.414 129.491 29.75C129.192 30.0767 129.043 30.5667 129.043 31.22V35H126.859V31.024C126.859 29.8387 126.383 29.246 125.431 29.246C124.927 29.246 124.526 29.414 124.227 29.75C123.928 30.0767 123.779 30.5667 123.779 31.22V35H121.595V27.468H123.681V28.336C123.961 28.0187 124.302 27.776 124.703 27.608C125.114 27.44 125.562 27.356 126.047 27.356C126.579 27.356 127.06 27.4633 127.489 27.678C127.918 27.8833 128.264 28.1867 128.525 28.588C128.833 28.196 129.22 27.8927 129.687 27.678C130.163 27.4633 130.681 27.356 131.241 27.356ZM143.739 31.262C143.739 31.29 143.725 31.486 143.697 31.85H137.999C138.101 32.3167 138.344 32.6853 138.727 32.956C139.109 33.2267 139.585 33.362 140.155 33.362C140.547 33.362 140.892 33.306 141.191 33.194C141.499 33.0727 141.783 32.886 142.045 32.634L143.207 33.894C142.497 34.706 141.461 35.112 140.099 35.112C139.249 35.112 138.498 34.9487 137.845 34.622C137.191 34.286 136.687 33.824 136.333 33.236C135.978 32.648 135.801 31.9807 135.801 31.234C135.801 30.4967 135.973 29.834 136.319 29.246C136.673 28.6487 137.154 28.1867 137.761 27.86C138.377 27.524 139.063 27.356 139.819 27.356C140.556 27.356 141.223 27.5147 141.821 27.832C142.418 28.1493 142.885 28.6067 143.221 29.204C143.566 29.792 143.739 30.478 143.739 31.262ZM139.833 29.008C139.338 29.008 138.923 29.148 138.587 29.428C138.251 29.708 138.045 30.0907 137.971 30.576H141.681C141.606 30.1 141.401 29.722 141.065 29.442C140.729 29.1527 140.318 29.008 139.833 29.008ZM149.771 27.356C150.704 27.356 151.455 27.636 152.025 28.196C152.603 28.756 152.893 29.5867 152.893 30.688V35H150.709V31.024C150.709 30.4267 150.578 29.9833 150.317 29.694C150.055 29.3953 149.677 29.246 149.183 29.246C148.632 29.246 148.193 29.4187 147.867 29.764C147.54 30.1 147.377 30.604 147.377 31.276V35H145.193V27.468H147.279V28.35C147.568 28.0327 147.927 27.79 148.357 27.622C148.786 27.4447 149.257 27.356 149.771 27.356ZM159.73 34.636C159.516 34.7947 159.25 34.916 158.932 35C158.624 35.0747 158.298 35.112 157.952 35.112C157.056 35.112 156.361 34.8833 155.866 34.426C155.381 33.9687 155.138 33.2967 155.138 32.41V29.316H153.976V27.636H155.138V25.802H157.322V27.636H159.198V29.316H157.322V32.382C157.322 32.6993 157.402 32.9467 157.56 33.124C157.728 33.292 157.962 33.376 158.26 33.376C158.606 33.376 158.9 33.2827 159.142 33.096L159.73 34.636Z" fill="black"/>
<defs>
<linearGradient id="paint0_linear_33_4876" x1="99" y1="55.9286" x2="99" y2="102.239" gradientUnits="userSpaceOnUse">
<stop stop-color="#FAC729"/>
<stop offset="0.19" stop-color="#F8C125"/>
<stop offset="0.44" stop-color="#F1AF1C"/>
<stop offset="0.73" stop-color="#E6930B"/>
<stop offset="0.9" stop-color="#DE7F00"/>
<stop offset="1" stop-color="#D77800"/>
</linearGradient>
<linearGradient id="paint1_linear_33_4876" x1="99" y1="82.8181" x2="99" y2="222.871" gradientUnits="userSpaceOnUse">
<stop stop-color="#FFD03F"/>
<stop offset="0.2" stop-color="#FDCA3A"/>
<stop offset="0.77" stop-color="#EB9C12"/>
<stop offset="0.9" stop-color="#E58E06"/>
<stop offset="0.9999" stop-color="#F6B82B"/>
<stop offset="1" stop-color="#DF8800"/>
</linearGradient>
<linearGradient id="paint2_linear_33_4876" x1="86.172" y1="147.281" x2="112.407" y2="243.226" gradientUnits="userSpaceOnUse">
<stop stop-color="#FE5757"/>
<stop offset="1" stop-color="#CD0102"/>
</linearGradient>
</defs>
</svg>
