<svg width="64" height="64" viewBox="0 0 64 64" fill="none" xmlns="http://www.w3.org/2000/svg">
<rect width="64" height="64" rx="32" fill="#CDDBFC" fill-opacity="0.5"/>
<path d="M23.264 45.4419C21.802 45.4419 20.3728 45.0083 19.1572 44.1961C17.9417 43.3839 16.9942 42.2294 16.4347 40.8788C15.8753 39.5281 15.7289 38.0418 16.0141 36.608C16.2993 35.1741 17.0033 33.857 18.0371 32.8232C19.0709 31.7895 20.388 31.0855 21.8219 30.8002C23.2558 30.515 24.742 30.6614 26.0927 31.2209C27.4434 31.7803 28.5979 32.7278 29.4101 33.9433C30.2223 35.1589 30.6558 36.5881 30.6558 38.05C30.6534 40.0097 29.8739 41.8885 28.4882 43.2742C27.1024 44.6599 25.2237 45.4395 23.264 45.4419V45.4419ZM23.264 32.672C22.2007 32.672 21.1614 32.9873 20.2773 33.578C19.3933 34.1687 18.7042 35.0083 18.2974 35.9906C17.8905 36.9729 17.784 38.0537 17.9914 39.0965C18.1989 40.1393 18.7109 41.0972 19.4627 41.849C20.2145 42.6008 21.1724 43.1128 22.2152 43.3202C23.258 43.5277 24.3389 43.4212 25.3212 43.0143C26.3035 42.6075 27.1431 41.9184 27.7338 41.0344C28.3245 40.1504 28.6398 39.111 28.6398 38.0478C28.6323 36.6243 28.0636 35.2613 27.057 34.2547C26.0505 33.2482 24.6874 32.6794 23.264 32.672V32.672Z" fill="#407EF8"/>
<path d="M29.6477 39.0575C29.3803 39.0575 29.1239 38.9513 28.9349 38.7623C28.7459 38.5732 28.6396 38.3168 28.6396 38.0495V23.2658C28.6396 22.9985 28.7459 22.7421 28.9349 22.5531C29.1239 22.364 29.3803 22.2578 29.6477 22.2578C29.915 22.2578 30.1714 22.364 30.3605 22.5531C30.5495 22.7421 30.6557 22.9985 30.6557 23.2658V38.0495C30.6557 38.1819 30.6296 38.313 30.579 38.4353C30.5283 38.5576 30.4541 38.6687 30.3605 38.7623C30.2669 38.8559 30.1557 38.9301 30.0334 38.9808C29.9111 39.0315 29.7801 39.0575 29.6477 39.0575Z" fill="#407EF8"/>
<path d="M17.287 36.8104C17.1658 36.8107 17.0455 36.7889 16.9321 36.746C16.8082 36.6994 16.6947 36.6289 16.598 36.5384C16.5013 36.448 16.4235 36.3393 16.3688 36.2188C16.3141 36.0982 16.2837 35.968 16.2794 35.8357C16.275 35.7034 16.2967 35.5715 16.3434 35.4476L21.5417 21.6098C21.6359 21.3597 21.8255 21.1572 22.0689 21.0469C22.1894 20.9923 22.3195 20.9619 22.4517 20.9576C22.584 20.9532 22.7158 20.975 22.8396 21.0216C22.9635 21.0682 23.0769 21.1387 23.1735 21.2292C23.2701 21.3196 23.3479 21.4282 23.4026 21.5487C23.4572 21.6692 23.4875 21.7993 23.4919 21.9316C23.4962 22.0638 23.4745 22.1956 23.4279 22.3195L18.2295 36.1573C18.1573 36.3492 18.0283 36.5145 17.8597 36.6312C17.6911 36.748 17.4909 36.8105 17.2858 36.8104H17.287Z" fill="#407EF8"/>
<path d="M29.6476 24.2745C29.3803 24.2745 29.1239 24.1683 28.9349 23.9793C28.7458 23.7902 28.6396 23.5339 28.6396 23.2665C28.6394 22.638 28.4189 22.0295 28.0163 21.5468C27.6138 21.0641 27.0547 20.7379 26.4365 20.6249C25.8182 20.5118 25.1799 20.6192 24.6326 20.9282C24.0854 21.2372 23.6638 21.7283 23.4412 22.3161C23.411 22.3812 23.3857 22.4484 23.3655 22.5173C23.2988 22.7762 23.132 22.9981 22.9017 23.134C22.6715 23.27 22.3966 23.3089 22.1377 23.2422C21.8787 23.1755 21.6569 23.0087 21.5209 22.7784C21.3849 22.5482 21.346 22.2733 21.4127 22.0144C21.4539 21.8623 21.5053 21.7132 21.5664 21.568C21.9617 20.5437 22.7029 19.69 23.6617 19.1549C24.6204 18.6198 25.7362 18.437 26.8155 18.6383C27.8948 18.8396 28.8697 19.4122 29.5711 20.2569C30.2725 21.1017 30.6562 22.1652 30.6557 23.2631C30.6557 23.5305 30.5495 23.7869 30.3604 23.9759C30.1714 24.1649 29.915 24.2711 29.6476 24.2711V24.2745Z" fill="#407EF8"/>
<path d="M34.3523 24.2746C34.0849 24.2746 33.8285 24.1684 33.6395 23.9793C33.4504 23.7903 33.3442 23.5339 33.3442 23.2666C33.3431 22.1651 33.7287 21.0983 34.4338 20.2521C35.139 19.406 36.1188 18.8343 37.2024 18.6368C38.286 18.4392 39.4045 18.6285 40.3628 19.1714C41.3212 19.7144 42.0584 20.5766 42.4459 21.6076L42.5589 21.9399C42.6075 22.066 42.6302 22.2006 42.6257 22.3357C42.6212 22.4707 42.5896 22.6035 42.5328 22.7261C42.4759 22.8487 42.395 22.9587 42.2948 23.0494C42.1946 23.1401 42.0772 23.2097 41.9495 23.2541C41.8219 23.2986 41.6866 23.3168 41.5518 23.3079C41.4169 23.299 41.2852 23.2631 41.1645 23.2022C41.0439 23.1414 40.9366 23.0569 40.8493 22.9538C40.7619 22.8507 40.6961 22.7311 40.6559 22.6021L40.5429 22.2924C40.3161 21.7081 39.8922 21.2215 39.3445 20.9168C38.7967 20.6121 38.1597 20.5085 37.5437 20.624C36.9276 20.7395 36.3714 21.0668 35.9712 21.5491C35.571 22.0315 35.3521 22.6387 35.3524 23.2654C35.3524 23.5328 35.2462 23.7892 35.0572 23.9782C34.8681 24.1673 34.6117 24.2735 34.3444 24.2735L34.3523 24.2746Z" fill="#407EF8"/>
<path d="M34.3523 39.0575C34.0849 39.0575 33.8285 38.9513 33.6395 38.7623C33.4504 38.5732 33.3442 38.3168 33.3442 38.0495V23.2658C33.3442 22.9985 33.4504 22.7421 33.6395 22.5531C33.8285 22.364 34.0849 22.2578 34.3523 22.2578C34.6196 22.2578 34.876 22.364 35.0651 22.5531C35.2541 22.7421 35.3603 22.9985 35.3603 23.2658V38.0495C35.3603 38.1819 35.3342 38.313 35.2836 38.4353C35.2329 38.5576 35.1587 38.6687 35.0651 38.7623C34.9715 38.8559 34.8603 38.9301 34.738 38.9808C34.6157 39.0315 34.4846 39.0575 34.3523 39.0575Z" fill="#407EF8"/>
<path d="M46.7119 36.811C46.5068 36.8112 46.3066 36.7487 46.1379 36.632C45.9693 36.5152 45.8403 36.3498 45.7683 36.1578L40.5699 22.32C40.4758 22.0697 40.4849 21.7923 40.5953 21.5488C40.7058 21.3053 40.9084 21.1157 41.1587 21.0215C41.4089 20.9274 41.6863 20.9366 41.9298 21.047C42.1733 21.1574 42.363 21.3601 42.4571 21.6103L47.6555 35.4481C47.7493 35.6984 47.7401 35.9757 47.6297 36.2191C47.5193 36.4625 47.3168 36.6522 47.0667 36.7466C46.9534 36.7894 46.8331 36.8113 46.7119 36.811V36.811Z" fill="#407EF8"/>
<path d="M40.736 45.4428C39.2731 45.4435 37.8428 45.0102 36.6262 44.1979C35.4095 43.3855 34.4611 42.2306 33.901 40.8792C33.3408 39.5277 33.1941 38.0405 33.4793 36.6057C33.7646 35.1708 34.469 33.8528 35.5034 32.8184C36.5379 31.7839 37.8559 31.0795 39.2907 30.7943C40.7256 30.509 42.2128 30.6558 43.5643 31.2159C44.9157 31.7761 46.0707 32.7245 46.883 33.9411C47.6954 35.1578 48.1286 36.588 48.1279 38.051C48.1256 40.0107 47.346 41.8894 45.9603 43.2751C44.5745 44.6608 42.6958 45.4404 40.736 45.4428V45.4428ZM40.736 32.6729C39.5913 32.6737 38.4768 33.0401 37.555 33.7187C36.6331 34.3974 35.9521 35.3527 35.6112 36.4455C35.2703 37.5382 35.2873 38.7113 35.6599 39.7937C36.0324 40.8761 36.741 41.8112 37.6822 42.4627C38.6234 43.1142 39.7481 43.448 40.8924 43.4155C42.0366 43.383 43.1406 42.9859 44.0433 42.282C44.9461 41.5781 45.6004 40.6043 45.9109 39.5026C46.2214 38.4008 46.1718 37.2286 45.7695 36.157C45.3835 35.134 44.6951 34.2528 43.7959 33.6309C42.8967 33.0089 41.8294 32.6755 40.736 32.6752V32.6729Z" fill="#407EF8"/>
<path d="M34.3521 37.3774H29.6487C29.3813 37.3774 29.1249 37.2712 28.9359 37.0821C28.7468 36.8931 28.6406 36.6367 28.6406 36.3694C28.6406 36.102 28.7468 35.8456 28.9359 35.6566C29.1249 35.4675 29.3813 35.3613 29.6487 35.3613H34.3521C34.6194 35.3613 34.8758 35.4675 35.0649 35.6566C35.2539 35.8456 35.3601 36.102 35.3601 36.3694C35.3601 36.6367 35.2539 36.8931 35.0649 37.0821C34.8758 37.2712 34.6194 37.3774 34.3521 37.3774Z" fill="#407EF8"/>
<path d="M34.3521 31.3305H29.6487C29.3813 31.3305 29.1249 31.2243 28.9359 31.0353C28.7468 30.8462 28.6406 30.5898 28.6406 30.3225C28.6406 30.0551 28.7468 29.7987 28.9359 29.6097C29.1249 29.4207 29.3813 29.3145 29.6487 29.3145H34.3521C34.6194 29.3145 34.8758 29.4207 35.0649 29.6097C35.2539 29.7987 35.3601 30.0551 35.3601 30.3225C35.3601 30.5898 35.2539 30.8462 35.0649 31.0353C34.8758 31.2243 34.6194 31.3305 34.3521 31.3305V31.3305Z" fill="#407EF8"/>
</svg>
