<svg xmlns="http://www.w3.org/2000/svg" width="311.071" height="311.098" viewBox="0 0 311.071 311.098">
  <g id="close" transform="translate(-0.051 0)">
    <path id="Path_27084" data-name="Path 27084" d="M16.043,311.1a16.01,16.01,0,0,1-11.3-27.328L283.8,4.711a16.005,16.005,0,0,1,22.637,22.633L27.371,306.407A15.952,15.952,0,0,1,16.043,311.1Zm0,0" fill="#fff"/>
    <path id="Path_27085" data-name="Path 27085" d="M295.125,311.1a15.866,15.866,0,0,1-11.3-4.691L4.738,27.325A16.005,16.005,0,0,1,27.371,4.688L306.434,283.77A16.01,16.01,0,0,1,295.126,311.1Zm0,0" fill="#fff"/>
  </g>
</svg>
