<svg width="20" height="20" viewBox="0 0 20 20" fill="none" xmlns="http://www.w3.org/2000/svg">
<path fill-rule="evenodd" clip-rule="evenodd" d="M5 16.6663C5 16.2061 5.3731 15.833 5.83333 15.833H14.1667C14.6269 15.833 15 16.2061 15 16.6663C15 17.1266 14.6269 17.4997 14.1667 17.4997H5.83333C5.3731 17.4997 5 17.1266 5 16.6663Z" fill="#5C5C5C"/>
<path fill-rule="evenodd" clip-rule="evenodd" d="M11.2681 7.62238C11.6608 7.86238 11.7846 8.37528 11.5446 8.76799C11.2008 9.33061 11.1138 9.91386 11.1463 10.5668C11.1629 10.8998 11.21 11.2415 11.2683 11.6083C11.2823 11.6959 11.2971 11.7864 11.3123 11.8788C11.3581 12.1585 11.4069 12.4557 11.442 12.7427C11.5362 13.5132 11.5621 14.4028 11.1527 15.2651C10.7358 16.1432 9.93742 16.8531 8.67837 17.4254C8.25939 17.6159 7.76535 17.4306 7.5749 17.0116C7.38445 16.5926 7.56972 16.0986 7.9887 15.9081C9.02132 15.4388 9.45207 14.9612 9.64714 14.5503C9.84977 14.1235 9.87047 13.6225 9.78762 12.945C9.75701 12.6947 9.71632 12.4465 9.67211 12.1768C9.65589 12.0778 9.6392 11.976 9.62236 11.8701C9.56189 11.4898 9.5029 11.0757 9.4817 10.6496C9.43866 9.7843 9.54963 8.83629 10.1225 7.89891C10.3625 7.5062 10.8754 7.38239 11.2681 7.62238Z" fill="#5C5C5C"/>
<path fill-rule="evenodd" clip-rule="evenodd" d="M4.47221 7.85686C4.97895 9.01177 5.61415 9.62561 6.20601 9.92154C6.21354 9.9253 6.22101 9.92918 6.22842 9.93317C6.86992 10.2786 7.62517 10.3823 8.68971 10.2586C8.34703 9.48526 7.93512 8.87739 7.42653 8.50751C6.84963 8.08795 5.99647 7.73722 4.47221 7.85686ZM3.18684 6.34654C5.68723 5.90004 7.26513 6.3293 8.40681 7.15961C9.54354 7.98632 10.195 9.36658 10.6239 10.6534C10.6995 10.8801 10.6741 11.1284 10.5541 11.3352C10.4341 11.5419 10.2311 11.6872 9.99677 11.734C8.27731 12.0779 6.79044 12.1241 5.44931 11.4066C4.18901 10.7717 3.16126 9.4636 2.53611 7.40953C2.46675 7.18164 2.49823 6.93497 2.6226 6.7318C2.74698 6.52864 2.95234 6.38841 3.18684 6.34654Z" fill="#5C5C5C"/>
<path fill-rule="evenodd" clip-rule="evenodd" d="M16.4246 2.74598C16.5886 2.91102 16.6761 3.1371 16.666 3.36953C16.576 5.44084 16.0209 6.74114 15.0061 7.75592C14.9843 7.77766 14.9614 7.79819 14.9374 7.81739C13.9323 8.62146 12.5826 9.07576 10.8773 9.16552C10.6537 9.17729 10.4347 9.09857 10.2698 8.94711C10.1049 8.79565 10.0079 8.58419 10.0006 8.36039C9.95685 7.01386 10.3221 5.68568 11.0482 4.55087C11.0727 4.51256 11.1003 4.47633 11.1307 4.44253C11.5608 3.96471 12.1057 3.49097 12.8762 3.13058C13.6423 2.77226 14.5893 2.54551 15.8026 2.50057C16.0351 2.49196 16.2606 2.58094 16.4246 2.74598ZM12.4157 5.50686C12.0554 6.08733 11.8194 6.73289 11.719 7.40284C12.6616 7.24678 13.3531 6.93894 13.8603 6.54426C14.3651 6.0282 14.7414 5.37369 14.9118 4.25409C14.3606 4.34014 13.9292 4.47802 13.5824 4.64026C13.0861 4.8724 12.7253 5.1718 12.4157 5.50686Z" fill="#5C5C5C"/>
</svg>
