<svg xmlns="http://www.w3.org/2000/svg" width="13.376" height="16.463" viewBox="0 0 13.376 16.463">
  <path id="Icon_metro-bin" data-name="Icon metro-bin" d="M5.528,7.073V17.362a1.032,1.032,0,0,0,1.029,1.029h9.261a1.032,1.032,0,0,0,1.029-1.029V7.073H5.528Zm3.087,9.261H7.586v-7.2H8.615Zm2.058,0H9.643v-7.2h1.029Zm2.058,0H11.7v-7.2H12.73Zm2.058,0H13.759v-7.2h1.029ZM17.1,3.986H13.759V2.7a.774.774,0,0,0-.772-.772h-3.6a.774.774,0,0,0-.772.772V3.986H5.27a.774.774,0,0,0-.772.772V6.044H17.875V4.758a.774.774,0,0,0-.772-.772Zm-4.373,0H9.643V2.97H12.73V3.986Z" transform="translate(-4.499 -1.928)" fill="#ffffff"/>
</svg>
