<svg width="20" height="20" viewBox="0 0 20 20" fill="none" xmlns="http://www.w3.org/2000/svg">
<g clip-path="url(#clip0_39_9682)">
<path d="M8.24967 3.53352C8.82328 3.39925 9.41056 3.33213 9.99967 3.33352C15.833 3.33352 19.1663 10.0002 19.1663 10.0002C18.6605 10.9465 18.0572 11.8375 17.3663 12.6585L8.24967 3.53352ZM11.7663 11.7668C11.5375 12.0125 11.2615 12.2095 10.9548 12.3461C10.6481 12.4828 10.3171 12.5562 9.98141 12.5622C9.64573 12.5681 9.3123 12.5063 9.00101 12.3806C8.68972 12.2549 8.40695 12.0677 8.16955 11.8303C7.93216 11.5929 7.745 11.3101 7.61926 10.9988C7.49352 10.6875 7.43178 10.3541 7.43771 10.0184C7.44363 9.68277 7.51709 9.35172 7.65373 9.04506C7.79037 8.73839 7.98738 8.46239 8.233 8.23352L11.7663 11.7668ZM14.9497 14.9502C13.5252 16.036 11.7906 16.6376 9.99967 16.6668C4.16634 16.6668 0.833008 10.0002 0.833008 10.0002C1.86958 8.06843 3.30728 6.38069 5.04967 5.05018L14.9497 14.9502Z" stroke="#407EF8" stroke-width="2" stroke-linecap="round" stroke-linejoin="round"/>
<path d="M0.833008 0.833496L19.1663 19.1668" stroke="#407EF8" stroke-width="2" stroke-linecap="round" stroke-linejoin="round"/>
</g>
<defs>
<clipPath id="clip0_39_9682">
<rect width="20" height="20" fill="white"/>
</clipPath>
</defs>
</svg>
