<svg width="20" height="21" viewBox="0 0 20 21" fill="none" xmlns="http://www.w3.org/2000/svg">
<path fill-rule="evenodd" clip-rule="evenodd" d="M1.78395 10.9949C1.87503 11.1523 1.99577 11.3528 2.14535 11.5844C2.52953 12.1793 3.09847 12.9704 3.83711 13.7583C5.3296 15.3502 7.41626 16.8282 10 16.8282C12.5837 16.8282 14.6704 15.3502 16.1629 13.7583C16.9015 12.9704 17.4705 12.1793 17.8547 11.5844C18.0042 11.3528 18.125 11.1523 18.216 10.9949C18.125 10.8375 18.0042 10.6369 17.8547 10.4053C17.4705 9.81045 16.9015 9.01938 16.1629 8.23149C14.6704 6.63951 12.5837 5.16154 10 5.16154C7.41626 5.16154 5.3296 6.63951 3.83711 8.23149C3.09847 9.01938 2.52953 9.81045 2.14535 10.4053C1.99577 10.6369 1.87503 10.8375 1.78395 10.9949ZM19.1667 10.9949C19.912 10.6222 19.9119 10.6219 19.9117 10.6216L19.9104 10.6189L19.9075 10.6132L19.8981 10.5947C19.8901 10.5793 19.8789 10.5576 19.8644 10.5302C19.8354 10.4755 19.7933 10.3976 19.7384 10.2999C19.6285 10.1046 19.4668 9.82947 19.2547 9.5011C18.8316 8.84597 18.2026 7.97037 17.3788 7.09159C15.7463 5.35024 13.2496 3.49487 10 3.49487C6.75041 3.49487 4.25373 5.35024 2.62122 7.09159C1.79736 7.97037 1.16839 8.84597 0.74528 9.5011C0.533208 9.82947 0.371493 10.1046 0.261643 10.2999C0.206686 10.3976 0.164617 10.4755 0.135628 10.5302C0.121131 10.5576 0.109896 10.5793 0.101948 10.5947L0.0924917 10.6132L0.0896158 10.6189L0.0886417 10.6209C0.0884886 10.6212 0.0879773 10.6222 0.833333 10.9949L0.0879773 10.6222C-0.0293258 10.8568 -0.0293258 11.1329 0.0879773 11.3676L0.833333 10.9949C0.0879773 11.3676 0.0878242 11.3672 0.0879773 11.3676L0.0896158 11.3708L0.0924917 11.3765L0.101948 11.395C0.109896 11.4105 0.121131 11.4321 0.135628 11.4595C0.164617 11.5143 0.206686 11.5922 0.261643 11.6899C0.371493 11.8852 0.533208 12.1603 0.74528 12.4886C1.16839 13.1438 1.79736 14.0194 2.62122 14.8982C4.25373 16.6395 6.75041 18.4949 10 18.4949C13.2496 18.4949 15.7463 16.6395 17.3788 14.8982C18.2026 14.0194 18.8316 13.1438 19.2547 12.4886C19.4668 12.1603 19.6285 11.8852 19.7384 11.6899C19.7933 11.5922 19.8354 11.5143 19.8644 11.4595C19.8789 11.4321 19.8901 11.4105 19.8981 11.395L19.9075 11.3765L19.9104 11.3708L19.9114 11.3689C19.9115 11.3686 19.912 11.3676 19.1667 10.9949ZM19.1667 10.9949L19.912 11.3676C20.0293 11.1329 20.029 10.8562 19.9117 10.6216L19.1667 10.9949Z" fill="#407EF8"/>
<path fill-rule="evenodd" clip-rule="evenodd" d="M9.99984 9.32829C9.07936 9.32829 8.33317 10.0745 8.33317 10.995C8.33317 11.9154 9.07936 12.6616 9.99984 12.6616C10.9203 12.6616 11.6665 11.9154 11.6665 10.995C11.6665 10.0745 10.9203 9.32829 9.99984 9.32829ZM6.6665 10.995C6.6665 9.15401 8.15889 7.66162 9.99984 7.66162C11.8408 7.66162 13.3332 9.15401 13.3332 10.995C13.3332 12.8359 11.8408 14.3283 9.99984 14.3283C8.15889 14.3283 6.6665 12.8359 6.6665 10.995Z" fill="#407EF8"/>
</svg>
