<svg xmlns="http://www.w3.org/2000/svg" width="20.271" height="20.767" viewBox="0 0 20.271 20.767">
  <path id="Icon_ionic-logo-google" data-name="Icon ionic-logo-google" d="M23.808,12.165l-.1-.444H14.09v4.09h5.743a5.753,5.753,0,0,1-5.624,4.344,6.708,6.708,0,0,1-4.526-1.813,6.51,6.51,0,0,1-1.928-4.584A6.715,6.715,0,0,1,9.648,9.179a6.421,6.421,0,0,1,4.5-1.768,5.85,5.85,0,0,1,3.826,1.5l2.892-2.891A10.2,10.2,0,0,0,14.05,3.382h0A10.5,10.5,0,0,0,6.6,6.428a10.569,10.569,0,0,0-2.941,7.335,10.463,10.463,0,0,0,2.827,7.215,10.757,10.757,0,0,0,7.775,3.171A9.568,9.568,0,0,0,21.244,21.2a10.4,10.4,0,0,0,2.683-7.18A12.015,12.015,0,0,0,23.808,12.165Z" transform="translate(-3.656 -3.382)" fill="#fff"/>
</svg>
