<svg id="Layer_2" data-name="Layer 2" xmlns="http://www.w3.org/2000/svg" viewBox="0 0 48 80"><defs><style>.cls-1{fill:#00a257;stroke:#fff;stroke-miterlimit:10;stroke-width:2px;}.cls-2{fill:#007e44;}</style></defs><path class="cls-1" d="M655,267a23.76,23.76,0,0,0-23.5,24c0,6.72,4,13,7,18l6.25,10.2h0a34.13,34.13,0,0,1,5.77,17.19L651,345h7l.6-10.77A29.68,29.68,0,0,1,663,320c.51-.75,4-6,4-6l4-6c4-7,6.5-12,6.5-18C677.5,276.75,668,267,655,267Z" transform="translate(-630.5 -266)"/><circle class="cls-2" cx="24" cy="24.5" r="8.5"/></svg>