<svg id="SvgjsSvg1001" width="288" height="288" xmlns="http://www.w3.org/2000/svg" version="1.1" xmlns:xlink="http://www.w3.org/1999/xlink" xmlns:svgjs="http://svgjs.com/svgjs"><defs id="SvgjsDefs1002"></defs><g id="SvgjsG1008"><svg xmlns="http://www.w3.org/2000/svg" width="288" height="288" fill="none" viewBox="0 0 33 32"><path fill="#d2303d" fill-rule="evenodd" d="M7.1665 16C6.43012 16 5.83317 16.597 5.83317 17.3334V26.6667C5.83317 27.4031 6.43012 28 7.1665 28H25.8332C26.5695 28 27.1665 27.4031 27.1665 26.6667V17.3334C27.1665 16.597 26.5695 16 25.8332 16H7.1665ZM3.1665 17.3334C3.1665 15.1242 4.95736 13.3334 7.1665 13.3334H25.8332C28.0423 13.3334 29.8332 15.1242 29.8332 17.3334V26.6667C29.8332 28.8758 28.0423 30.6667 25.8332 30.6667H7.1665C4.95736 30.6667 3.1665 28.8758 3.1665 26.6667V17.3334Z" clip-rule="evenodd" class="color407EF8 svgShape"></path><path fill="#d2303d" fill-rule="evenodd" d="M16.5 4.00004C15.0855 4.00004 13.729 4.56194 12.7288 5.56214C11.7286 6.56233 11.1667 7.91889 11.1667 9.33337V14.6667C11.1667 15.4031 10.5697 16 9.83333 16C9.09695 16 8.5 15.4031 8.5 14.6667V9.33337C8.5 7.21164 9.34285 5.17681 10.8431 3.67652C12.3434 2.17623 14.3783 1.33337 16.5 1.33337C18.6217 1.33337 20.6566 2.17623 22.1569 3.67652C23.6571 5.17681 24.5 7.21164 24.5 9.33337V14.6667C24.5 15.4031 23.903 16 23.1667 16C22.4303 16 21.8333 15.4031 21.8333 14.6667V9.33337C21.8333 7.91889 21.2714 6.56233 20.2712 5.56214C19.271 4.56194 17.9145 4.00004 16.5 4.00004Z" clip-rule="evenodd" class="color407EF8 svgShape"></path></svg></g></svg>