<svg id="Group_30811" data-name="Group 30811" xmlns="http://www.w3.org/2000/svg" width="32.303" height="32.303" viewBox="0 0 32.303 32.303">
  <g id="Group_30810" data-name="Group 30810" transform="translate(0)">
    <path id="Path_27071" data-name="Path 27071" d="M29.77,23.97l2.524-13.763a.631.631,0,0,0-.621-.745H28.9V4.038a.631.631,0,0,0-.631-.631H16.783V.631A.631.631,0,0,0,16.153,0H9.591A.631.631,0,0,0,8.96.631V9.463H5.612L4.661,3.931a.631.631,0,0,0-.622-.524H.632A.631.631,0,0,0,0,4.038V6.562a.631.631,0,0,0,.631.631H3.941L6.815,23.91v.821a3.538,3.538,0,0,0,3.177,3.516,2.65,2.65,0,1,0,4.5.018H22.1a2.65,2.65,0,1,0,4.512,0h2.535a.631.631,0,0,0,0-1.262h-18.8a2.274,2.274,0,0,1-2.272-2.272v-.244H29.149A.631.631,0,0,0,29.77,23.97ZM1.263,5.931V4.669H3.507l.217,1.262Zm23.1,22.335a1.388,1.388,0,1,1-1.388,1.388A1.39,1.39,0,0,1,24.359,28.265Zm-12.122,0a1.388,1.388,0,1,1-1.388,1.388A1.39,1.39,0,0,1,12.237,28.265ZM16.791,7.192h5.482a.631.631,0,0,0,0-1.262H16.791V4.669H27.635V9.463H16.791Zm-6.57-5.931h5.3v8.2h-5.3Zm18.4,21.964H7.978l-2.149-12.5H30.916Z" transform="translate(-0.001)" fill="#fff"/>
  </g>
</svg>
