<svg xmlns="http://www.w3.org/2000/svg" xmlns:svgjs="http://svgjs.com/svgjs" xmlns:xlink="http://www.w3.org/1999/xlink" width="288" height="288"><svg xmlns="http://www.w3.org/2000/svg" width="288" height="288" fill="none" viewBox="0 0 20 21"><path fill="#5c5c5c" fill-rule="evenodd" d="M3.3335 4.30021C2.87707 4.30021 2.50016 4.67712 2.50016 5.13354V15.1335C2.50016 15.59 2.87707 15.9669 3.3335 15.9669H16.6668C17.1233 15.9669 17.5002 15.59 17.5002 15.1335V5.13354C17.5002 4.67712 17.1233 4.30021 16.6668 4.30021H3.3335ZM0.833496 5.13354C0.833496 3.75664 1.95659 2.63354 3.3335 2.63354H16.6668C18.0437 2.63354 19.1668 3.75664 19.1668 5.13354V15.1335C19.1668 16.5104 18.0437 17.6335 16.6668 17.6335H3.3335C1.95659 17.6335 0.833496 16.5104 0.833496 15.1335V5.13354Z" class="color407EF8 svgShape" clip-rule="evenodd"/><path fill="#5c5c5c" fill-rule="evenodd" d="M0.984208 4.65569C1.24814 4.27865 1.76775 4.18695 2.14479 4.45088L10.0002 9.9497L17.8557 4.45088C18.2327 4.18695 18.7523 4.27865 19.0163 4.65569C19.2802 5.03273 19.1885 5.55234 18.8115 5.81627L10.4781 11.6496C10.1912 11.8505 9.80928 11.8505 9.52235 11.6496L1.18902 5.81627C0.811975 5.55234 0.720279 5.03273 0.984208 4.65569Z" class="color407EF8 svgShape" clip-rule="evenodd"/></svg></svg>