<svg width="20" height="21" viewBox="0 0 20 21" fill="none" xmlns="http://www.w3.org/2000/svg">
<path fill-rule="evenodd" clip-rule="evenodd" d="M3.33337 5.16154C2.87694 5.16154 2.50004 5.53844 2.50004 5.99487V15.9949C2.50004 16.4513 2.87694 16.8282 3.33337 16.8282H16.6667C17.1231 16.8282 17.5 16.4513 17.5 15.9949V5.99487C17.5 5.53844 17.1231 5.16154 16.6667 5.16154H3.33337ZM0.833374 5.99487C0.833374 4.61797 1.95647 3.49487 3.33337 3.49487H16.6667C18.0436 3.49487 19.1667 4.61797 19.1667 5.99487V15.9949C19.1667 17.3718 18.0436 18.4949 16.6667 18.4949H3.33337C1.95647 18.4949 0.833374 17.3718 0.833374 15.9949V5.99487Z" fill="#B1150A"/>
<path fill-rule="evenodd" clip-rule="evenodd" d="M0.983964 5.5169C1.24789 5.13986 1.7675 5.04816 2.14454 5.31209L9.99999 10.8109L17.8554 5.31209C18.2325 5.04816 18.7521 5.13986 19.016 5.5169C19.2799 5.89394 19.1883 6.41355 18.8112 6.67747L10.4779 12.5108C10.1909 12.7117 9.80904 12.7117 9.52211 12.5108L1.18877 6.67747C0.81173 6.41355 0.720035 5.89394 0.983964 5.5169Z" fill="#B1150A"/>
</svg>
