<svg xmlns="http://www.w3.org/2000/svg" width="15.033" height="21.142" viewBox="0 0 15.033 21.142">
  <g id="map-pin" transform="translate(0.2 0.2)">
    <g id="Group_29779" data-name="Group 29779" transform="translate(0 0)">
      <path id="Path_18068" data-name="Path 18068" d="M61.594,0a7.325,7.325,0,0,0-7.317,7.317c0,4.911,6.708,12.936,6.994,13.276a.422.422,0,0,0,.321.15h0a.422.422,0,0,0,.321-.148c.286-.334,7-8.226,7-13.278A7.325,7.325,0,0,0,61.594,0Zm0,19.656c-1.347-1.676-6.475-8.318-6.475-12.34a6.472,6.472,0,1,1,12.945,0C68.066,11.453,62.947,18,61.6,19.656Z" transform="translate(-54.277)" fill="#343434" stroke="#343434" stroke-width="0.4"/>
      <path id="Path_18069" data-name="Path 18069" d="M132.119,72.293a3.111,3.111,0,1,0,3.111,3.111A3.114,3.114,0,0,0,132.119,72.293Zm0,5.377a2.266,2.266,0,1,1,2.266-2.266A2.269,2.269,0,0,1,132.119,77.67Z" transform="translate(-124.802 -68.224)" fill="#343434" stroke="#343434" stroke-width="0.4"/>
    </g>
  </g>
</svg>
