<svg width="24" height="24" viewBox="0 0 24 24" fill="none" xmlns="http://www.w3.org/2000/svg">
<path fill-rule="evenodd" clip-rule="evenodd" d="M6 20C6 19.4477 6.44772 19 7 19H17C17.5523 19 18 19.4477 18 20C18 20.5523 17.5523 21 17 21H7C6.44772 21 6 20.5523 6 20Z" fill="#5C5C5C"/>
<path fill-rule="evenodd" clip-rule="evenodd" d="M13.5212 9.14686C13.9925 9.43485 14.141 10.0503 13.853 10.5216C13.4405 11.1967 13.3361 11.8966 13.3751 12.6801C13.395 13.0797 13.4515 13.4898 13.5215 13.93C13.5382 14.0351 13.556 14.1437 13.5742 14.2546C13.6293 14.5902 13.6877 14.9469 13.7299 15.2912C13.8429 16.2158 13.874 17.2834 13.3828 18.3181C12.8825 19.3719 11.9244 20.2238 10.4136 20.9105C9.91078 21.139 9.31793 20.9167 9.08939 20.4139C8.86085 19.9112 9.08317 19.3183 9.58595 19.0898C10.8251 18.5265 11.342 17.9534 11.5761 17.4603C11.8192 16.9481 11.8441 16.347 11.7447 15.534C11.7079 15.2337 11.6591 14.9358 11.606 14.6121C11.5866 14.4934 11.5666 14.3712 11.5463 14.2441C11.4738 13.7878 11.403 13.2909 11.3776 12.7795C11.3259 11.7412 11.4591 10.6035 12.1465 9.47869C12.4345 9.00744 13.05 8.85887 13.5212 9.14686Z" fill="#5C5C5C"/>
<path fill-rule="evenodd" clip-rule="evenodd" d="M5.36665 9.42823C5.97474 10.8141 6.73699 11.5507 7.44722 11.9058C7.45625 11.9104 7.46521 11.915 7.4741 11.9198C8.24391 12.3343 9.1502 12.4587 10.4277 12.3103C10.0164 11.3823 9.52215 10.6529 8.91183 10.209C8.21956 9.70554 7.19576 9.28467 5.36665 9.42823ZM3.82421 7.61585C6.82467 7.08005 8.71815 7.59516 10.0882 8.59154C11.4522 9.58359 12.234 11.2399 12.7487 12.784C12.8394 13.0562 12.8089 13.3541 12.6649 13.6022C12.5209 13.8503 12.2774 14.0246 11.9961 14.0809C9.93277 14.4935 8.14853 14.5489 6.53917 13.6879C5.02682 12.926 3.79351 11.3563 3.04333 8.89144C2.9601 8.61797 2.99788 8.32196 3.14713 8.07816C3.29637 7.83437 3.54281 7.6661 3.82421 7.61585Z" fill="#5C5C5C"/>
<path fill-rule="evenodd" clip-rule="evenodd" d="M19.7092 3.29517C19.9059 3.49322 20.011 3.76451 19.9988 4.04344C19.8908 6.52901 19.2246 8.08937 18.0069 9.30711C17.9808 9.3332 17.9533 9.35782 17.9245 9.38087C16.7184 10.3457 15.0987 10.8909 13.0523 10.9986C12.784 11.0127 12.5213 10.9183 12.3234 10.7365C12.1255 10.5548 12.009 10.301 12.0003 10.0325C11.9478 8.41664 12.3861 6.82282 13.2575 5.46104C13.2869 5.41508 13.32 5.3716 13.3565 5.33104C13.8725 4.75765 14.5265 4.18916 15.4511 3.75669C16.3704 3.32671 17.5068 3.05461 18.9628 3.00069C19.2418 2.99035 19.5124 3.09712 19.7092 3.29517ZM14.8985 6.60823C14.466 7.3048 14.1829 8.07947 14.0624 8.8834C15.1935 8.69614 16.0234 8.32672 16.632 7.85311C17.2377 7.23383 17.6892 6.44843 17.8938 5.1049C17.2323 5.20817 16.7147 5.37362 16.2985 5.56831C15.7029 5.84689 15.27 6.20616 14.8985 6.60823Z" fill="#5C5C5C"/>
</svg>
