<svg xmlns="http://www.w3.org/2000/svg" width="15.791" height="20.172" viewBox="0 0 15.791 20.172">
  <g id="security" transform="translate(0.2 0.205)">
    <path id="Path_20577" data-name="Path 20577" d="M15.25,4,7.822.043a.369.369,0,0,0-.352,0L.247,4a.37.37,0,0,0-.192.324V9.5a10.706,10.706,0,0,0,6.417,9.8l1,.437a.369.369,0,0,0,.294,0l1.13-.488A10.685,10.685,0,0,0,15.446,9.4V4.328A.37.37,0,0,0,15.25,4ZM14.707,9.4a9.947,9.947,0,0,1-6.1,9.17h0l-.984.425-.855-.373A9.966,9.966,0,0,1,.794,9.5V4.547L7.65.79l7.056,3.76Zm0,0" transform="translate(-0.055 0)" fill="#343434" stroke="#343434" stroke-width="0.4"/>
    <path id="Path_20578" data-name="Path 20578" d="M80.493,147.583a.37.37,0,0,0-.563.48l1.954,2.288a.37.37,0,0,0,.515.047l4.55-3.7a.37.37,0,1,0-.467-.574l-4.27,3.473Zm0,0" transform="translate(-75.626 -138.323)" fill="#343434" stroke="#343434" stroke-width="0.4"/>
  </g>
</svg>
