<svg xmlns="http://www.w3.org/2000/svg" width="20.896" height="20.896" viewBox="0 0 20.896 20.896">
  <g id="loupe" transform="translate(0.2 0.2)">
    <g id="Group_1035" data-name="Group 1035">
      <g id="Group_1034" data-name="Group 1034">
        <path id="Path_11498" data-name="Path 11498" d="M9.026,0a9.026,9.026,0,1,0,9.026,9.026A9.036,9.036,0,0,0,9.026,0Zm0,16.386a7.36,7.36,0,1,1,7.36-7.36A7.368,7.368,0,0,1,9.026,16.386Z" fill="#fafafa" stroke="#fafafa" stroke-width="0.4"/>
      </g>
    </g>
    <g id="Group_1037" data-name="Group 1037" transform="translate(14.053 14.053)">
      <g id="Group_1036" data-name="Group 1036">
        <path id="Path_11499" data-name="Path 11499" d="M357.245,356.067l-4.777-4.777a.833.833,0,1,0-1.178,1.178l4.777,4.777a.833.833,0,0,0,1.178-1.178Z" transform="translate(-351.046 -351.046)" fill="#fafafa" stroke="#fafafa" stroke-width="0.4"/>
      </g>
    </g>
  </g>
</svg>
