<svg width="25" height="24" viewBox="0 0 25 24" fill="none" xmlns="http://www.w3.org/2000/svg">
<path fill-rule="evenodd" clip-rule="evenodd" d="M4.66406 11C4.66406 6.99594 7.91 3.75 11.9141 3.75C15.9181 3.75 19.1641 6.99594 19.1641 11C19.1641 15.0041 15.9181 18.25 11.9141 18.25C7.91 18.25 4.66406 15.0041 4.66406 11ZM11.9141 2.25C7.08157 2.25 3.16406 6.16751 3.16406 11C3.16406 15.8325 7.08157 19.75 11.9141 19.75C14.0603 19.75 16.026 18.9773 17.5483 17.6949L20.3837 20.5303C20.6766 20.8232 21.1515 20.8232 21.4444 20.5303C21.7373 20.2374 21.7373 19.7626 21.4444 19.4697L18.6089 16.6342C19.8913 15.112 20.6641 13.1462 20.6641 11C20.6641 6.16751 16.7466 2.25 11.9141 2.25Z" fill="#8C8C8C"/>
</svg>
