<svg xmlns="http://www.w3.org/2000/svg" width="29.999" height="30" viewBox="0 0 29.999 30">
  <g id="money_1_" data-name="money (1)" transform="translate(-0.007)">
    <g id="Group_30815" data-name="Group 30815" transform="translate(3.991 26.484)">
      <g id="Group_30814" data-name="Group 30814">
        <path id="Path_27076" data-name="Path 27076" d="M69,452.173a.585.585,0,1,0,.172.414A.59.59,0,0,0,69,452.173Z" transform="translate(-68.003 -452.001)" fill="#fff"/>
      </g>
    </g>
    <g id="Group_30817" data-name="Group 30817" transform="translate(26.518 10.547)">
      <g id="Group_30816" data-name="Group 30816">
        <path id="Path_27077" data-name="Path 27077" d="M453.454,180.18a.584.584,0,1,0,.172.414A.589.589,0,0,0,453.454,180.18Z" transform="translate(-452.454 -180.008)" fill="#fff"/>
      </g>
    </g>
    <g id="Group_30819" data-name="Group 30819" transform="translate(0.007)">
      <g id="Group_30818" data-name="Group 30818" transform="translate(0)">
        <path id="Path_27078" data-name="Path 27078" d="M29.835.172A.586.586,0,0,0,29.42,0H15.006a.586.586,0,0,0-.586.586V2.262L8.867,3.751a.586.586,0,0,0-.414.718l2.879,10.743L8.841,17.7a1.757,1.757,0,0,0-1.451-.767H1.765A1.76,1.76,0,0,0,.007,18.692v9.551A1.76,1.76,0,0,0,1.765,30H7.39A1.761,1.761,0,0,0,9.1,28.665l.7.608A2.952,2.952,0,0,0,11.733,30H29.42a.586.586,0,0,0,.586-.586V.586A.586.586,0,0,0,29.835.172ZM7.975,28.242a.587.587,0,0,1-.586.586H1.765a.587.587,0,0,1-.586-.586V18.692a.587.587,0,0,1,.586-.586H3.991v6.75a.586.586,0,0,0,1.172,0v-6.75H7.39a.587.587,0,0,1,.586.586v9.551ZM9.736,4.731l4.685-1.255V5.647l-.393.105a.586.586,0,0,0-.414.718A1.579,1.579,0,0,1,12.5,8.4a.586.586,0,0,0-.414.719l2.284,8.457H13.192l-.606-2.371a.585.585,0,0,0-.1-.205Zm4.685,3.6v4.944L13.352,9.321A2.745,2.745,0,0,0,14.421,8.334Zm8.418,20.494H11.733a1.781,1.781,0,0,1-1.17-.439L9.147,27.155v-8.1l2.558-2.558.464,1.815a.586.586,0,0,0,.568.441h11.52a.82.82,0,0,1,0,1.641h-5.9a.586.586,0,1,0,0,1.172h7.737a.82.82,0,0,1,0,1.641H18.354a.586.586,0,1,0,0,1.172h6.483a.82.82,0,0,1,0,1.641H18.354a.586.586,0,1,0,0,1.172h4.484a.82.82,0,1,1,0,1.64Zm6,0H24.653a1.985,1.985,0,0,0,0-1.641h.184A1.991,1.991,0,0,0,26.618,24.3,1.99,1.99,0,0,0,27.69,21.2V13.77a.586.586,0,0,0-1.172,0v6.667a1.992,1.992,0,0,0-.427-.047h-.019a1.991,1.991,0,0,0-1.815-2.812h-.942a2.8,2.8,0,1,0-2.2,0h-3.2V6.437a2.758,2.758,0,0,0,2.1-2.1h4.407a2.758,2.758,0,0,0,2.1,2.1V8.259a.586.586,0,0,0,1.172,0V5.914a.586.586,0,0,0-.586-.586,1.579,1.579,0,0,1-1.578-1.578.586.586,0,0,0-.586-.586H19.486a.586.586,0,0,0-.586.586,1.579,1.579,0,0,1-1.578,1.578.586.586,0,0,0-.586.586V17.578H15.592V1.173H28.834Zm-6.621-12.2A1.632,1.632,0,1,1,23.846,15,1.634,1.634,0,0,1,22.213,16.632Z" transform="translate(-0.007)" fill="#fff"/>
      </g>
    </g>
  </g>
</svg>
