<svg width="40" height="40" viewBox="0 0 40 40" fill="none" xmlns="http://www.w3.org/2000/svg">
<rect x="0.000488281" width="39.9996" height="40" rx="19.9998" fill="#EBEFF7"/>
<path d="M28.6617 29.7419V27.5793C28.6617 26.4301 28.2051 25.3279 27.3925 24.5153C26.5799 23.7026 25.4777 23.2461 24.3285 23.2461H15.6721C14.5228 23.2461 13.4207 23.7026 12.608 24.5153C11.7954 25.3279 11.3389 26.4301 11.3389 27.5793V29.7449" stroke="#407EF8" stroke-width="1.5" stroke-linecap="round" stroke-linejoin="round"/>
<path d="M24.3364 14.5871C24.3364 15.4442 24.0822 16.2819 23.6061 16.9945C23.1299 17.7071 22.4532 18.2625 21.6614 18.5905C20.8696 18.9185 19.9983 19.0043 19.1578 18.8371C18.3172 18.6699 17.5451 18.2572 16.9391 17.6512C16.3331 17.0452 15.9204 16.2731 15.7532 15.4325C15.586 14.5919 15.6718 13.7207 15.9998 12.9289C16.3277 12.1371 16.8831 11.4603 17.5957 10.9842C18.3083 10.508 19.1461 10.2539 20.0031 10.2539C20.5722 10.2539 21.1357 10.366 21.6614 10.5838C22.1871 10.8015 22.6648 11.1207 23.0672 11.5231C23.4696 11.9255 23.7888 12.4031 24.0065 12.9289C24.2243 13.4546 24.3364 14.0181 24.3364 14.5871V14.5871Z" stroke="#407EF8" stroke-width="1.5" stroke-linecap="round" stroke-linejoin="round"/>
</svg>
