<svg width="22" height="22" viewBox="0 0 22 22" fill="none" xmlns="http://www.w3.org/2000/svg">
<rect width="22" height="22" rx="11" fill="white"/>
<path d="M12.1406 12.8984H10.0078L9.67188 5.125H12.4766L12.1406 12.8984ZM9.59375 15.3203C9.59375 14.9349 9.73177 14.6198 10.0078 14.375C10.2891 14.125 10.638 14 11.0547 14C11.4714 14 11.8177 14.125 12.0938 14.375C12.375 14.6198 12.5156 14.9349 12.5156 15.3203C12.5156 15.7057 12.375 16.0234 12.0938 16.2734C11.8177 16.5182 11.4714 16.6406 11.0547 16.6406C10.638 16.6406 10.2891 16.5182 10.0078 16.2734C9.73177 16.0234 9.59375 15.7057 9.59375 15.3203Z" fill="#FF0000"/>
</svg>
