<svg width="57" height="56" viewBox="0 0 57 56" fill="none" xmlns="http://www.w3.org/2000/svg">
<rect x="0.5" width="56" height="56" rx="28" fill="#CDDBFC" fill-opacity="0.5"/>
<path fill-rule="evenodd" clip-rule="evenodd" d="M14.25 20.5C14.25 20.0858 14.5858 19.75 15 19.75H42C42.4142 19.75 42.75 20.0858 42.75 20.5C42.75 20.9142 42.4142 21.25 42 21.25H15C14.5858 21.25 14.25 20.9142 14.25 20.5ZM18.75 28C18.75 27.5858 19.0858 27.25 19.5 27.25H37.5C37.9142 27.25 38.25 27.5858 38.25 28C38.25 28.4142 37.9142 28.75 37.5 28.75H19.5C19.0858 28.75 18.75 28.4142 18.75 28ZM25.5 34.75C25.0858 34.75 24.75 35.0858 24.75 35.5C24.75 35.9142 25.0858 36.25 25.5 36.25H31.5C31.9142 36.25 32.25 35.9142 32.25 35.5C32.25 35.0858 31.9142 34.75 31.5 34.75H25.5Z" fill="#407EF8"/>
</svg>
