<svg xmlns="http://www.w3.org/2000/svg" width="39.425" height="30.238" viewBox="0 0 39.425 30.238">
  <g id="tractor" transform="translate(-16.058 -72)">
    <path id="Path_27073" data-name="Path 27073" d="M52.2,89.975V84.33a1.318,1.318,0,0,0-.969-1.268l-6.659-1.816a1.3,1.3,0,0,0-.345-.046h-3.2V76.872l1.122-1.122-.929-.929L39.9,76.135a.657.657,0,0,0-.193.465v4.6H38.4V78.844a1.324,1.324,0,0,0-.385-.929l-1.971-1.971h.385a.657.657,0,0,0,.657-.657v-.963A1.312,1.312,0,0,0,36.5,73.23l-1.513-1.009A1.31,1.31,0,0,0,34.254,72H25.91A1.316,1.316,0,0,0,24.6,73.314v1.971a.657.657,0,0,0,.657.657h1.314V81.2H22.988a1.972,1.972,0,0,0-1.014.281l-2.337,1.4a1.984,1.984,0,0,0-.956,1.691V86.6A9.195,9.195,0,1,0,34.235,95h8.137c-.022.216-.033.435-.033.657A6.571,6.571,0,1,0,52.2,89.975Zm-1.314-2.861h-1.7l-.929-.929V85.8h2.63Zm-6.659-4.6,6.659,1.816v.155H48.253A1.316,1.316,0,0,0,46.939,85.8v.385a1.324,1.324,0,0,0,.385.929l.929.929a1.324,1.324,0,0,0,.929.385h1.7v.96a6.552,6.552,0,0,0-4.484.2l-1.431-1.431a1.324,1.324,0,0,0-.929-.385H43V86.729a1.324,1.324,0,0,0-.385-.929l-.929-.929a1.323,1.323,0,0,0-.657-.355v-2Zm-8.183-1.971h1.042v4.138l-2.39-2.79ZM38.4,85.8h2.356l.929.929v4.328H38.4Zm1.314-3.286v1.971H38.4V82.514Zm-13.8-9.2h8.344l1.513,1.009v.305H25.91Zm1.971,2.629h6.3l2.9,2.9v.385H36.039a1.324,1.324,0,0,0-.929.385l-.329.329-.714-.714.85-.85-.929-.929L31.36,80.078l.929.929.85-.85.714.714-.09.09a1.32,1.32,0,0,0-.069,1.785L36.31,85.8H34.453v1.314h2.629v1.314H33.208c-.022-.039-.047-.076-.07-.114V85.189a1.967,1.967,0,0,0-.878-1.64l-3.026-2.018a1.963,1.963,0,0,0-1.094-.331h-.259Zm-7.567,8.066,2.336-1.4a.653.653,0,0,1,.338-.094h5.153a.653.653,0,0,1,.365.11l3.026,2.018a.655.655,0,0,1,.293.547V86.6A9.163,9.163,0,0,0,20,85.489v-.916A.662.662,0,0,1,20.315,84.009Zm4.938,16.905a7.886,7.886,0,1,1,7.886-7.886,7.886,7.886,0,0,1-7.886,7.886Zm9.167-7.229c.016-.218.033-.435.033-.657a9.136,9.136,0,0,0-.617-3.286h3.246v1.314A1.316,1.316,0,0,0,38.4,92.371h3.286A1.316,1.316,0,0,0,43,91.057V89.086h1.042l1.157,1.157a6.6,6.6,0,0,0-2.553,3.443Zm14.49,7.229a5.257,5.257,0,1,1,5.257-5.257A5.257,5.257,0,0,1,48.91,100.914Z" fill="#fff"/>
    <circle id="Ellipse_3153" data-name="Ellipse 3153" cx="0.657" cy="0.657" r="0.657" transform="translate(24.596 92.371)" fill="#fff"/>
    <path id="Path_27074" data-name="Path 27074" d="M69.257,264a5.257,5.257,0,1,0,5.257,5.257A5.257,5.257,0,0,0,69.257,264Zm0,9.2a3.943,3.943,0,1,1,3.943-3.943A3.943,3.943,0,0,1,69.257,273.2Z" transform="translate(-44.004 -176.229)" fill="#fff"/>
    <path id="Path_27075" data-name="Path 27075" d="M379.286,320a3.286,3.286,0,1,0,3.286,3.286A3.286,3.286,0,0,0,379.286,320Zm0,5.257a1.971,1.971,0,1,1,1.971-1.971A1.971,1.971,0,0,1,379.286,325.257Z" transform="translate(-330.376 -227.629)" fill="#fff"/>
    <circle id="Ellipse_3154" data-name="Ellipse 3154" cx="0.657" cy="0.657" r="0.657" transform="translate(48.253 95)" fill="#fff"/>
  </g>
</svg>
