<svg width="20" height="20" viewBox="0 0 20 20" fill="none" xmlns="http://www.w3.org/2000/svg">
<path fill-rule="evenodd" clip-rule="evenodd" d="M4.1665 3.33366C3.70627 3.33366 3.33317 3.70675 3.33317 4.16699V15.8337C3.33317 16.2939 3.70627 16.667 4.1665 16.667H15.8332C16.2934 16.667 16.6665 16.2939 16.6665 15.8337V4.16699C16.6665 3.70675 16.2934 3.33366 15.8332 3.33366H4.1665ZM1.6665 4.16699C1.6665 2.78628 2.78579 1.66699 4.1665 1.66699H15.8332C17.2139 1.66699 18.3332 2.78628 18.3332 4.16699V15.8337C18.3332 17.2144 17.2139 18.3337 15.8332 18.3337H4.1665C2.78579 18.3337 1.6665 17.2144 1.6665 15.8337V4.16699Z" fill="#5C5C5C"/>
<path fill-rule="evenodd" clip-rule="evenodd" d="M1.6665 7.50033C1.6665 7.04009 2.0396 6.66699 2.49984 6.66699H17.4998C17.9601 6.66699 18.3332 7.04009 18.3332 7.50033C18.3332 7.96056 17.9601 8.33366 17.4998 8.33366H2.49984C2.0396 8.33366 1.6665 7.96056 1.6665 7.50033Z" fill="#5C5C5C"/>
<path fill-rule="evenodd" clip-rule="evenodd" d="M1.6665 12.5003C1.6665 12.0401 2.0396 11.667 2.49984 11.667H17.4998C17.9601 11.667 18.3332 12.0401 18.3332 12.5003C18.3332 12.9606 17.9601 13.3337 17.4998 13.3337H2.49984C2.0396 13.3337 1.6665 12.9606 1.6665 12.5003Z" fill="#5C5C5C"/>
<path fill-rule="evenodd" clip-rule="evenodd" d="M7.49984 6.66699C7.96007 6.66699 8.33317 7.04009 8.33317 7.50033V17.5003C8.33317 17.9606 7.96007 18.3337 7.49984 18.3337C7.0396 18.3337 6.6665 17.9606 6.6665 17.5003V7.50033C6.6665 7.04009 7.0396 6.66699 7.49984 6.66699Z" fill="#5C5C5C"/>
<path fill-rule="evenodd" clip-rule="evenodd" d="M12.4998 6.66699C12.9601 6.66699 13.3332 7.04009 13.3332 7.50033V17.5003C13.3332 17.9606 12.9601 18.3337 12.4998 18.3337C12.0396 18.3337 11.6665 17.9606 11.6665 17.5003V7.50033C11.6665 7.04009 12.0396 6.66699 12.4998 6.66699Z" fill="#5C5C5C"/>
</svg>
