<svg xmlns="http://www.w3.org/2000/svg" width="20.623" height="17.57" viewBox="0 0 20.623 17.57">
  <g id="Group_29820" data-name="Group 29820" transform="translate(0 0)">
    <g id="Group_29813" data-name="Group 29813" transform="translate(0 0)">
      <path id="Path_20568" data-name="Path 20568" d="M20.441,38.083a.619.619,0,0,0-.469-.18c-.509.026-5.033.312-7.089,2.368a4.3,4.3,0,0,0-.944,5.268,7.551,7.551,0,0,0-1.712,2.534,3.827,3.827,0,0,0-.383-.627,3.978,3.978,0,0,0-.815-.808,3.068,3.068,0,0,0-.278-2.094,4.154,4.154,0,0,0-2.09-1.9,7.174,7.174,0,0,0-3.931-.225,15.746,15.746,0,0,0-2.312.565.616.616,0,0,0-.362.84,15.75,15.75,0,0,0,1.175,2.07A7.176,7.176,0,0,0,4.089,48.6a4.319,4.319,0,0,0,1.709.359,3.4,3.4,0,0,0,2.693-1.2,2.721,2.721,0,0,1,.875,1.518l.3,1.4c0,.091-.005.182-.005.274v3.913a.606.606,0,0,0,1.211,0V50.953a6.341,6.341,0,0,1,1.892-4.526,3.535,3.535,0,0,0,2.129.677,4.824,4.824,0,0,0,3.363-1.463c2.057-2.057,2.342-6.58,2.368-7.089A.619.619,0,0,0,20.441,38.083ZM7.754,46.649h0a2.366,2.366,0,0,1-3.185.839c-1.257-.543-2.45-2.318-3.108-3.555,1.352-.369,3.462-.719,4.719-.176a2.944,2.944,0,0,1,1.489,1.331A1.822,1.822,0,0,1,7.754,46.649ZM17.4,44.784c-1.272,1.272-3.128,1.487-4.136.479-1.025-1.025-.815-2.842.479-4.136,1.369-1.369,4.287-1.82,5.616-1.959C19.218,40.5,18.766,43.415,17.4,44.784Z" transform="translate(0.001 -37.902)" fill="#343434"/>
    </g>
  </g>
</svg>
