<svg width="20" height="20" viewBox="0 0 20 20" fill="none" xmlns="http://www.w3.org/2000/svg">
<path fill-rule="evenodd" clip-rule="evenodd" d="M3.33317 4.16629L3.33317 4.16634L3.33317 4.16639C3.33317 4.16714 3.33316 4.17068 3.33572 4.17908C3.33855 4.18837 3.34553 4.20672 3.3624 4.2342C3.39777 4.29182 3.4699 4.37845 3.60504 4.48494C3.88018 4.70179 4.32997 4.93351 4.96006 5.14354C6.21152 5.56069 7.99341 5.83301 9.99984 5.83301C12.0063 5.83301 13.7882 5.56069 15.0396 5.14354C15.6697 4.93351 16.1195 4.70179 16.3946 4.48494C16.5298 4.37845 16.6019 4.29182 16.6373 4.2342C16.6541 4.20672 16.6611 4.18837 16.664 4.17908C16.6665 4.17068 16.6665 4.16714 16.6665 4.1664V4.16634C16.6665 4.16573 16.6666 4.16222 16.664 4.1536C16.6611 4.14431 16.6541 4.12597 16.6373 4.09848C16.6019 4.04086 16.5298 3.95423 16.3946 3.84774C16.1195 3.6309 15.6697 3.39917 15.0396 3.18914C13.7882 2.77199 12.0063 2.49967 9.99984 2.49967C7.99341 2.49967 6.21152 2.77199 4.96006 3.18914C4.32997 3.39917 3.88018 3.6309 3.60504 3.84774C3.4699 3.95423 3.39777 4.04086 3.3624 4.09848C3.34553 4.12597 3.33855 4.14431 3.33572 4.1536C3.33316 4.162 3.33317 4.16555 3.33317 4.16629ZM4.43301 1.608C5.89602 1.12034 7.86413 0.833008 9.99984 0.833008C12.1355 0.833008 14.1037 1.12034 15.5667 1.608C16.2938 1.85039 16.9424 2.15737 17.4263 2.53872C17.9008 2.91267 18.3332 3.45639 18.3332 4.16634C18.3332 4.8763 17.9008 5.42002 17.4263 5.79396C16.9424 6.17531 16.2938 6.4823 15.5667 6.72468C14.1037 7.21234 12.1355 7.49967 9.99984 7.49967C7.86413 7.49967 5.89602 7.21234 4.43301 6.72468C3.70587 6.4823 3.05731 6.17531 2.57341 5.79396C2.09891 5.42002 1.6665 4.8763 1.6665 4.16634C1.6665 3.45639 2.09891 2.91267 2.57341 2.53872C3.05731 2.15737 3.70587 1.85039 4.43301 1.608Z" fill="#5C5C5C"/>
<path fill-rule="evenodd" clip-rule="evenodd" d="M2.49984 9.16699C2.96007 9.16699 3.33317 9.54009 3.33317 10.0003C3.33317 10.0019 3.33324 10.0062 3.336 10.0153C3.33896 10.0251 3.34604 10.0437 3.36282 10.0713C3.39794 10.1289 3.46941 10.2153 3.60333 10.3214C3.87616 10.5376 4.32307 10.7689 4.95123 10.9786C6.19893 11.3952 7.98047 11.667 9.99984 11.667C12.0192 11.667 13.8007 11.3952 15.0484 10.9786C15.6766 10.7689 16.1235 10.5376 16.3963 10.3214C16.5303 10.2153 16.6017 10.1289 16.6369 10.0713C16.6536 10.0437 16.6607 10.0251 16.6637 10.0153C16.6664 10.0062 16.6665 10.0019 16.6665 10.0003C16.6665 9.54009 17.0396 9.16699 17.4998 9.16699C17.9601 9.16699 18.3332 9.54009 18.3332 10.0003C18.3332 10.7081 17.9055 11.252 17.4315 11.6277C16.9491 12.0099 16.3022 12.3171 15.5762 12.5595C14.1156 13.0471 12.1471 13.3337 9.99984 13.3337C7.85253 13.3337 5.88408 13.0471 4.42345 12.5595C3.69744 12.3171 3.0506 12.0099 2.56822 11.6277C2.09417 11.252 1.6665 10.7081 1.6665 10.0003C1.6665 9.54009 2.0396 9.16699 2.49984 9.16699Z" fill="#5C5C5C"/>
<path fill-rule="evenodd" clip-rule="evenodd" d="M2.49984 3.33301C2.96007 3.33301 3.33317 3.7061 3.33317 4.16634V15.833C3.33317 15.8346 3.33324 15.8389 3.336 15.848C3.33896 15.8578 3.34604 15.8764 3.36282 15.9039C3.39794 15.9616 3.46941 16.048 3.60333 16.1541C3.87616 16.3703 4.32307 16.6016 4.95123 16.8113C6.19893 17.2278 7.98047 17.4997 9.99984 17.4997C12.0192 17.4997 13.8007 17.2278 15.0484 16.8113C15.6766 16.6016 16.1235 16.3703 16.3963 16.1541C16.5303 16.048 16.6017 15.9616 16.6369 15.9039C16.6536 15.8764 16.6607 15.8578 16.6637 15.848C16.6664 15.8389 16.6665 15.8346 16.6665 15.833V4.16634C16.6665 3.7061 17.0396 3.33301 17.4998 3.33301C17.9601 3.33301 18.3332 3.7061 18.3332 4.16634V15.833C18.3332 16.5408 17.9055 17.0847 17.4315 17.4604C16.9491 17.8426 16.3022 18.1498 15.5762 18.3922C14.1156 18.8798 12.1471 19.1663 9.99984 19.1663C7.85253 19.1663 5.88408 18.8798 4.42345 18.3922C3.69744 18.1498 3.0506 17.8426 2.56822 17.4604C2.09417 17.0847 1.6665 16.5408 1.6665 15.833V4.16634C1.6665 3.7061 2.0396 3.33301 2.49984 3.33301Z" fill="#5C5C5C"/>
</svg>
