<svg width="20" height="20" viewBox="0 0 20 20" fill="none" xmlns="http://www.w3.org/2000/svg">
<path fill-rule="evenodd" clip-rule="evenodd" d="M1.56573 3.23223C2.03457 2.76339 2.67045 2.5 3.3335 2.5H16.6668C17.3299 2.5 17.9658 2.76339 18.4346 3.23223C18.9034 3.70107 19.1668 4.33696 19.1668 5V5.83333C19.1668 6.49638 18.9034 7.13226 18.4346 7.6011C18.1684 7.86727 17.8484 8.06722 17.5002 8.19036V15C17.5002 15.663 17.2368 16.2989 16.7679 16.7678C16.2991 17.2366 15.6632 17.5 15.0002 17.5H5.00016C4.33712 17.5 3.70124 17.2366 3.2324 16.7678C2.76355 16.2989 2.50016 15.663 2.50016 15V8.19036C2.15191 8.06722 1.8319 7.86727 1.56573 7.6011C1.09689 7.13226 0.833496 6.49637 0.833496 5.83333V5C0.833496 4.33696 1.09689 3.70107 1.56573 3.23223ZM3.3335 6.66667H16.6668C16.8878 6.66667 17.0998 6.57887 17.2561 6.42259C17.4124 6.26631 17.5002 6.05435 17.5002 5.83333V5C17.5002 4.77899 17.4124 4.56702 17.2561 4.41074C17.0998 4.25446 16.8878 4.16667 16.6668 4.16667H3.3335C3.11248 4.16667 2.90052 4.25446 2.74424 4.41074C2.58796 4.56702 2.50016 4.77899 2.50016 5V5.83333C2.50016 6.05435 2.58796 6.26631 2.74424 6.42259C2.90052 6.57887 3.11248 6.66667 3.3335 6.66667ZM4.16683 8.33333V15C4.16683 15.221 4.25463 15.433 4.41091 15.5893C4.56719 15.7455 4.77915 15.8333 5.00016 15.8333H15.0002C15.2212 15.8333 15.4331 15.7455 15.5894 15.5893C15.7457 15.433 15.8335 15.221 15.8335 15V8.33333H4.16683ZM7.50016 10.8333C7.50016 10.3731 7.87326 10 8.3335 10H11.6668C12.1271 10 12.5002 10.3731 12.5002 10.8333C12.5002 11.2936 12.1271 11.6667 11.6668 11.6667H8.3335C7.87326 11.6667 7.50016 11.2936 7.50016 10.8333Z" fill="#5C5C5C"/>
</svg>
