<svg id="edit" xmlns="http://www.w3.org/2000/svg" width="15.052" height="15.051" viewBox="0 0 15.052 15.051">
  <g id="Group_987" data-name="Group 987" transform="translate(0 1.075)">
    <g id="Group_986" data-name="Group 986">
      <path id="Path_11491" data-name="Path 11491" d="M12.364,40.588a.538.538,0,0,0-.538.538V46.5a.538.538,0,0,1-.538.538H1.613a.538.538,0,0,1-.538-.538V35.75a.538.538,0,0,1,.538-.538H8.063a.538.538,0,1,0,0-1.075H1.613A1.613,1.613,0,0,0,0,35.75V46.5a1.613,1.613,0,0,0,1.613,1.613h9.676A1.613,1.613,0,0,0,12.9,46.5V41.125A.538.538,0,0,0,12.364,40.588Z" transform="translate(0 -34.137)" fill="#fff"/>
    </g>
  </g>
  <g id="Group_989" data-name="Group 989" transform="translate(3.226 0)">
    <g id="Group_988" data-name="Group 988">
      <path id="Path_11492" data-name="Path 11492" d="M113.632.607a2.058,2.058,0,0,0-2.91,0l-7.081,7.08a.544.544,0,0,0-.13.21l-1.075,3.225a.538.538,0,0,0,.51.707.546.546,0,0,0,.17-.027l3.225-1.075a.538.538,0,0,0,.21-.13l7.081-7.081A2.058,2.058,0,0,0,113.632.607Zm-.76,2.151-6.988,6.988-2.088.7.7-2.085,6.991-6.988a.982.982,0,1,1,1.39,1.388Z" transform="translate(-102.409 -0.004)" fill="#fff"/>
    </g>
  </g>
</svg>
