<svg xmlns="http://www.w3.org/2000/svg" width="15.005" height="15.005" viewBox="0 0 15.005 15.005">
  <g id="edit" transform="translate(0 -0.004)">
    <g id="Group_987" data-name="Group 987" transform="translate(0 1.076)">
      <g id="Group_986" data-name="Group 986">
        <path id="Path_11491" data-name="Path 11491" d="M12.326,40.568a.536.536,0,0,0-.536.536v5.359a.536.536,0,0,1-.536.536H1.608a.536.536,0,0,1-.536-.536V35.745a.536.536,0,0,1,.536-.536H8.038a.536.536,0,1,0,0-1.072H1.608A1.608,1.608,0,0,0,0,35.745V46.463A1.608,1.608,0,0,0,1.608,48.07h9.646a1.608,1.608,0,0,0,1.608-1.608V41.1A.536.536,0,0,0,12.326,40.568Z" transform="translate(0 -34.137)" fill="#707070"/>
      </g>
    </g>
    <g id="Group_989" data-name="Group 989" transform="translate(3.216 0.004)">
      <g id="Group_988" data-name="Group 988">
        <path id="Path_11492" data-name="Path 11492" d="M113.6.6a2.051,2.051,0,0,0-2.9,0l-7.059,7.058a.542.542,0,0,0-.129.21l-1.072,3.215a.536.536,0,0,0,.508.705.544.544,0,0,0,.169-.027l3.215-1.072a.536.536,0,0,0,.21-.13L113.6,3.506A2.051,2.051,0,0,0,113.6.6Zm-.758,2.144-6.967,6.967-2.081.7.693-2.079,6.969-6.967a.979.979,0,1,1,1.386,1.384Z" transform="translate(-102.409 -0.004)" fill="#707070"/>
      </g>
    </g>
  </g>
</svg>
