<svg width="18" height="10" viewBox="0 0 18 10" fill="none" xmlns="http://www.w3.org/2000/svg">
<path fill-rule="evenodd" clip-rule="evenodd" d="M0.75 0.833984C0.75 0.419771 1.08579 0.0839844 1.5 0.0839844H16.5C16.9142 0.0839844 17.25 0.419771 17.25 0.833984C17.25 1.2482 16.9142 1.58398 16.5 1.58398H1.5C1.08579 1.58398 0.75 1.2482 0.75 0.833984ZM3.25 5.00065C3.25 4.58644 3.58579 4.25065 4 4.25065H14C14.4142 4.25065 14.75 4.58644 14.75 5.00065C14.75 5.41487 14.4142 5.75065 14 5.75065H4C3.58579 5.75065 3.25 5.41487 3.25 5.00065ZM7.33333 8.41732C6.91912 8.41732 6.58333 8.7531 6.58333 9.16732C6.58333 9.58153 6.91912 9.91732 7.33333 9.91732H10.6667C11.0809 9.91732 11.4167 9.58153 11.4167 9.16732C11.4167 8.7531 11.0809 8.41732 10.6667 8.41732H7.33333Z" fill="#969EAE"/>
</svg>
