<svg width="40" height="42" viewBox="0 0 40 42" fill="none" xmlns="http://www.w3.org/2000/svg">
<path fill-rule="evenodd" clip-rule="evenodd" d="M15.2497 20.2507C13.869 20.2507 12.7497 21.3699 12.7497 22.7507C12.7497 24.1314 13.869 25.2507 15.2497 25.2507C16.6304 25.2507 17.7497 24.1314 17.7497 22.7507C17.7497 21.3699 16.6304 20.2507 15.2497 20.2507ZM11.083 22.7507C11.083 20.4495 12.9485 18.584 15.2497 18.584C17.5509 18.584 19.4163 20.4495 19.4163 22.7507C19.4163 25.0518 17.5509 26.9173 15.2497 26.9173C12.9485 26.9173 11.083 25.0518 11.083 22.7507Z" fill="#407EF8"/>
<path fill-rule="evenodd" clip-rule="evenodd" d="M25.2497 20.2507C23.869 20.2507 22.7497 21.3699 22.7497 22.7507C22.7497 24.1314 23.869 25.2507 25.2497 25.2507C26.6304 25.2507 27.7497 24.1314 27.7497 22.7507C27.7497 21.3699 26.6304 20.2507 25.2497 20.2507ZM21.083 22.7507C21.083 20.4495 22.9485 18.584 25.2497 18.584C27.5509 18.584 29.4163 20.4495 29.4163 22.7507C29.4163 25.0518 27.5509 26.9173 25.2497 26.9173C22.9485 26.9173 21.083 25.0518 21.083 22.7507Z" fill="#407EF8"/>
<path fill-rule="evenodd" clip-rule="evenodd" d="M18.4822 20.9822C18.9511 20.5134 19.587 20.25 20.25 20.25C20.913 20.25 21.5489 20.5134 22.0178 20.9822C22.4866 21.4511 22.75 22.087 22.75 22.75C22.75 23.2102 22.3769 23.5833 21.9167 23.5833C21.4564 23.5833 21.0833 23.2102 21.0833 22.75C21.0833 22.529 20.9955 22.317 20.8393 22.1607C20.683 22.0045 20.471 21.9167 20.25 21.9167C20.029 21.9167 19.817 22.0045 19.6607 22.1607C19.5045 22.317 19.4167 22.529 19.4167 22.75C19.4167 23.2102 19.0436 23.5833 18.5833 23.5833C18.1231 23.5833 17.75 23.2102 17.75 22.75C17.75 22.087 18.0134 21.4511 18.4822 20.9822Z" fill="#407EF8"/>
<path fill-rule="evenodd" clip-rule="evenodd" d="M15.1698 16.4436C15.4348 15.9572 15.6498 15.6832 15.8769 15.5176C16.0862 15.3648 16.3803 15.2507 16.9169 15.2507C17.3771 15.2507 17.7502 14.8776 17.7502 14.4173C17.7502 13.9571 17.3771 13.584 16.9169 13.584C16.1201 13.584 15.4559 13.7615 14.8944 14.1712C14.3561 14.5641 13.9926 15.1142 13.6832 15.6889C13.6701 15.7132 13.6582 15.738 13.6477 15.7635L11.5643 20.7635C11.3873 21.1883 11.5882 21.6762 12.013 21.8532C12.4379 22.0302 12.9258 21.8293 13.1028 21.4045L15.1698 16.4436Z" fill="#407EF8"/>
<path fill-rule="evenodd" clip-rule="evenodd" d="M22.75 14.4173C22.75 13.9571 23.1231 13.584 23.5833 13.584C24.3484 13.584 25.0045 13.7661 25.566 14.1651C26.1102 14.5518 26.4968 15.0942 26.8171 15.6889C26.8301 15.7132 26.842 15.738 26.8526 15.7635L28.9359 20.7635C29.1129 21.1883 28.912 21.6762 28.4872 21.8532C28.0623 22.0302 27.5745 21.8293 27.3974 21.4045L25.3305 16.4438C25.0749 15.9764 24.8421 15.6953 24.6007 15.5237C24.3705 15.3602 24.0683 15.2507 23.5833 15.2507C23.1231 15.2507 22.75 14.8776 22.75 14.4173Z" fill="#407EF8"/>
</svg>
