<svg width="18" height="18" viewBox="0 0 18 18" fill="none" xmlns="http://www.w3.org/2000/svg">
<path d="M17.1166 8.21996C17.075 7.79496 16.7166 7.47828 16.2916 7.47828H9.99998C9.54165 7.47828 9.16665 7.85328 9.16665 8.31162V9.73663C9.16665 10.195 9.54165 10.57 9.99998 10.57H13.7583C13.6666 11.3366 13.1666 12.495 12.0583 13.27C11.35 13.7616 10.4083 14.1033 9.16665 14.1033C9.10831 14.1033 9.05832 14.1033 8.99998 14.095C6.87498 14.0283 5.07498 12.6033 4.42498 10.645C4.24998 10.12 4.14998 9.56995 4.14998 8.99495C4.14998 8.41995 4.24998 7.86161 4.41665 7.34495C4.46665 7.19495 4.52498 7.04496 4.59165 6.89496C5.35831 5.16996 7.03332 3.95329 8.99998 3.89496C9.04998 3.88663 9.10831 3.88662 9.16665 3.88662C10.3583 3.88662 11.25 4.27828 11.875 4.71161C12.2 4.93661 12.6333 4.88661 12.9166 4.61161L14.075 3.47829C14.4416 3.11996 14.4083 2.51161 13.9916 2.21161C12.6666 1.23661 11.05 0.661621 9.16665 0.661621C9.10831 0.661621 9.05832 0.661629 8.99998 0.669963C5.80832 0.728296 3.06665 2.5783 1.72498 5.2533C1.15831 6.38663 0.833313 7.65329 0.833313 8.99495C0.833313 10.3366 1.15831 11.6033 1.72498 12.7366H1.73331C3.07498 15.4116 5.81665 17.2616 8.99998 17.3199C9.05832 17.3283 9.10831 17.3283 9.16665 17.3283C11.4166 17.3283 13.3083 16.5866 14.6833 15.3116C16.2583 13.8533 17.1667 11.72 17.1667 9.17829C17.1667 8.81996 17.15 8.51163 17.1166 8.21996Z" fill="#404040"/>
</svg>
