<svg width="84" height="105" viewBox="0 0 84 105" fill="none" xmlns="http://www.w3.org/2000/svg">
<path d="M48.9509 1.52668C39.3995 4.3921 33.2972 13.3332 31.44 17.4456C44.1752 10.7597 64.0739 5.37376 72.4313 3.51656C70.4415 1.52668 60.8901 -2.05508 48.9509 1.52668Z" fill="#00703C"/>
<path d="M71.2374 37.7423C78.5094 30.919 79.766 21.1588 79.595 16.6497C69.2476 26.2011 57.7063 38.9363 51.3387 46.4978C54.007 47.3918 62.1473 46.2714 71.2374 37.7423Z" fill="#00703C"/>
<path d="M25.0724 28.589C41.9465 17.7641 70.0435 7.89432 81.9827 4.31256C55.5572 14.8191 28.5215 33.0993 18.3069 40.9262C20.8539 34.5586 23.8785 30.0482 25.0724 28.589Z" fill="#FDB813"/>
<path d="M14.725 49.2836C44.6527 22.5397 72.2986 9.48616 82.3806 6.30237C49.2692 22.8581 20.562 51.4061 10.3473 63.6106L14.725 49.2836Z" fill="#00703C"/>
<path d="M7.56151 73.1621C34.9421 37.5036 69.6455 15.3232 83.5745 8.69027C43.4588 32.2503 11.1433 82.7135 0 105C0.636758 94.8119 5.30632 79.5297 7.56151 73.1621Z" fill="#B95915"/>
</svg>
