<svg width="14" height="14" viewBox="0 0 14 14" fill="none" xmlns="http://www.w3.org/2000/svg">
<path fill-rule="evenodd" clip-rule="evenodd" d="M7.00016 13.6615C10.6821 13.6615 13.6668 10.6767 13.6668 6.99479C13.6668 3.31289 10.6821 0.328125 7.00016 0.328125C3.31826 0.328125 0.333496 3.31289 0.333496 6.99479C0.333496 10.6767 3.31826 13.6615 7.00016 13.6615ZM10.1972 5.52512C10.4901 5.23223 10.4901 4.75735 10.1972 4.46446C9.90427 4.17157 9.42939 4.17157 9.1365 4.46446L6.3335 7.26746L5.53049 6.46446C5.2376 6.17157 4.76273 6.17157 4.46983 6.46446C4.17694 6.75735 4.17694 7.23223 4.46983 7.52512L5.80317 8.85845C6.09606 9.15135 6.57093 9.15135 6.86383 8.85845L10.1972 5.52512Z" fill="#0AB169"/>
</svg>
