<svg width="25" height="24" viewBox="0 0 25 24" fill="none" xmlns="http://www.w3.org/2000/svg">
<path fill-rule="evenodd" clip-rule="evenodd" d="M12.2803 21C7.30971 21 3.28027 16.9706 3.28027 12C3.28027 7.02944 7.30971 3 12.2803 3C17.2508 3 21.2803 7.02944 21.2803 12C21.2803 16.9706 17.2508 21 12.2803 21ZM1.28027 12C1.28027 18.0751 6.20514 23 12.2803 23C18.3554 23 23.2803 18.0751 23.2803 12C23.2803 5.92487 18.3554 1 12.2803 1C6.20514 1 1.28027 5.92487 1.28027 12Z" fill="#407EF8"/>
<path fill-rule="evenodd" clip-rule="evenodd" d="M12.2803 17C12.8326 17 13.2803 16.5523 13.2803 16V12C13.2803 11.4477 12.8326 11 12.2803 11C11.728 11 11.2803 11.4477 11.2803 12V16C11.2803 16.5523 11.728 17 12.2803 17Z" fill="#407EF8"/>
<path fill-rule="evenodd" clip-rule="evenodd" d="M11.2803 8C11.2803 8.55228 11.728 9 12.2803 9H12.2903C12.8426 9 13.2903 8.55228 13.2903 8C13.2903 7.44772 12.8426 7 12.2903 7H12.2803C11.728 7 11.2803 7.44772 11.2803 8Z" fill="#407EF8"/>
</svg>
