<svg width="32" height="25" viewBox="0 0 32 25" fill="none" xmlns="http://www.w3.org/2000/svg">
<path d="M23.2443 22.3849C23.7195 22.2339 24.5905 21.5978 24.2719 20.2611C23.7242 20.5115 22.7518 21.2868 23.2443 22.3849Z" stroke="#407EF8" stroke-width="0.5" stroke-linecap="round" stroke-linejoin="round"/>
<path d="M23.0843 22.3592C23.1746 21.8601 23.0279 20.7782 21.7192 20.443C21.6815 21.0538 21.9016 22.292 23.0843 22.3592Z" stroke="#407EF8" stroke-width="0.5" stroke-linecap="round" stroke-linejoin="round"/>
<path d="M11.3706 22.3309C11.9765 22.1384 13.0869 21.3273 12.6808 19.6232C11.9824 19.9424 10.7427 20.9309 11.3706 22.3309Z" stroke="#407EF8" stroke-width="0.5" stroke-linecap="round" stroke-linejoin="round"/>
<path d="M11.1672 22.2982C11.2823 21.6619 11.0953 20.2825 9.42682 19.8552C9.37867 20.6338 9.65934 22.2125 11.1672 22.2982Z" stroke="#407EF8" stroke-width="0.5" stroke-linecap="round" stroke-linejoin="round"/>
<path d="M29.9667 5.79297C29.7489 5.90807 29.301 6.29771 29.252 6.93544C29.203 7.57317 29.1635 8.10461 29.1499 8.29061" stroke="#407EF8" stroke-width="0.5" stroke-linecap="round" stroke-linejoin="round"/>
<path d="M25.915 1.80876C26.0318 1.38692 26.3635 0.490255 26.756 0.27832L27.2232 0.866915" stroke="#407EF8" stroke-width="0.5" stroke-linecap="round" stroke-linejoin="round"/>
<path d="M26.569 8.3868C26.3017 7.8216 25.346 6.36541 24.6643 7.40893C23.8122 8.71332 24.4638 10.0828 23.2107 9.82188C21.9576 9.561 20.6544 7.4087 20.3537 9.10445C20.0529 10.8002 20.1031 12.3655 21.9075 12.4959" stroke="#407EF8" stroke-width="0.5" stroke-linecap="round" stroke-linejoin="round"/>
<path d="M3.10047 3.27832C2.57832 3.75791 1.12035 5.16729 1.04663 6.6061C0.972915 8.04491 1.01592 10.2031 1.04663 11.1023C0.862342 11.8217 0.640457 12.4797 1.04664 12.9029C1.78378 13.6708 2.34319 11.6419 2.02068 11.1023C1.69818 10.5628 1.78378 7.3327 1.78378 6.91306C1.78378 6.57734 2.47393 5.23305 2.67358 4.99325" stroke="#407EF8" stroke-width="0.5" stroke-linecap="round" stroke-linejoin="round"/>
<path d="M16.0348 14.6689C15.9544 16.1084 15.8418 19.1836 16.0348 19.9687C16.2279 20.7537 16.4371 20.8452 16.5175 20.7929H17.4528C17.2919 20.3872 16.9942 19.364 17.0908 18.516C17.1873 17.6681 17.5534 16.7102 17.6338 16.3177" stroke="#407EF8" stroke-width="0.5" stroke-linecap="round" stroke-linejoin="round"/>
<path d="M2.26514 20.9658C2.30675 21.4068 2.4827 22.3166 2.85363 22.4279H4.44078C4.29811 21.9405 4.03062 21.2675 3.65612 20.9658" stroke="#407EF8" stroke-width="0.5" stroke-linecap="round" stroke-linejoin="round"/>
<path d="M18.0737 20.9658C18.1153 21.4068 18.2913 22.3166 18.6622 22.4279H20.2494C20.1067 21.9405 19.8392 21.2675 19.4647 20.9658" stroke="#407EF8" stroke-width="0.5" stroke-linecap="round" stroke-linejoin="round"/>
<path d="M6.89502 20.9658C6.92823 21.4068 7.06866 22.3166 7.36469 22.4279H8.63137C8.51751 21.9405 8.30403 21.2675 8.00515 20.9658" stroke="#407EF8" stroke-width="0.5" stroke-linecap="round" stroke-linejoin="round"/>
<path d="M16.5005 20.9658C16.5306 21.3445 16.6578 22.1257 16.926 22.2212H18.0737C17.9705 21.8027 17.7771 21.2248 17.5063 20.9658" stroke="#407EF8" stroke-width="0.5" stroke-linecap="round" stroke-linejoin="round"/>
<path d="M4.81592 15.2614C4.95735 15.3912 5.31511 15.6769 5.61462 15.7809C5.98901 15.9109 5.93909 16.6578 6.26356 16.8527C6.58803 17.0476 6.3634 16.1708 6.76275 15.9758C7.16209 15.7809 7.63632 16.5929 7.96079 16.4954C8.28526 16.398 7.73616 15.6188 8.13551 15.2614C8.53486 14.9041 8.90925 15.5538 9.13388 15.2614C9.35852 14.969 8.90925 13.8972 9.13388 13.7998" stroke="#407EF8" stroke-width="0.5" stroke-linecap="round" stroke-linejoin="round"/>
<path d="M6.10791 2.98748C6.13116 3.30503 6.38691 3.97649 7.2239 4.12186C8.27014 4.30356 8.79326 5.02963 9.63026 6.61791C10.4673 8.20618 12.5597 4.53046 13.4665 5.57418C14.3732 6.61791 13.8501 8.25156 15.3846 7.57087C16.9191 6.89018 16.7127 1.40216 16.7127 2.56035" stroke="#407EF8" stroke-width="0.5" stroke-linecap="round" stroke-linejoin="round"/>
<path d="M12.7352 2.8573C11.6699 2.90952 9.26191 2.87275 8.15238 2.30791C6.76547 1.60187 5.25796 1.75852 4.05195 2.30791C2.84594 2.8573 2.42384 5.05418 2.84594 6.46652C3.26805 7.87886 2.84594 12.0374 2.84594 12.9005C2.84594 13.7636 2.18264 13.2144 2.12234 14.7052C2.0741 15.8978 2.10224 19.2299 2.12234 20.7469H3.69015C3.48915 20.4592 3.14745 19.6641 3.38865 18.7853C3.69015 17.6868 4.83586 14.1559 5.68007 13.5282C6.52427 12.9005 8.15238 13.1359 9.11719 13.5282C10.082 13.9205 11.7704 14.7052 13.2779 14.7052C14.7854 14.7052 17.1974 14.0775 17.499 15.176C17.7402 16.0547 17.8407 19.2561 17.8608 20.7469H19.4286C19.3482 20.4853 19.1753 19.7268 19.1271 18.7853C19.0668 17.6083 19.4286 15.6467 19.9713 15.176C20.514 14.7052 22.7451 14.7836 23.0466 13.5282C23.3481 12.2728 23.4687 11.4882 23.9511 10.9389C24.4335 10.3897 26.7249 8.82042 27.0264 8.11425C27.75 8.37579 29.4264 8.74196 30.3429 8.11425C31.4887 7.32962 30.6444 6.54498 29.9208 5.44649C29.342 4.5677 28.5942 3.3542 28.2927 2.8573C28.3642 2.37424 28.4207 1.23762 28.0753 0.555664C27.6435 0.587945 26.768 0.985734 26.7204 2.31864" stroke="#407EF8" stroke-width="0.5" stroke-linecap="round" stroke-linejoin="round"/>
<path d="M14.3032 2.85712C15.2077 2.85712 15.9313 2.38621 17.1373 2.38621C18.3434 2.38621 19.1876 2.38621 20.2127 2.85712C21.0328 3.23384 23.5292 2.70015 24.6749 2.38621C25.0456 2.17299 25.9614 1.75991 26.6591 1.81331" stroke="#407EF8" stroke-width="0.5" stroke-linecap="round" stroke-linejoin="round"/>
<path d="M8.00533 12.7988C7.94533 12.3459 7.96933 11.4588 8.54539 11.5337C9.26547 11.6274 9.48149 12.4239 10.0576 11.5337C10.6336 10.6436 9.5895 9.33181 10.6336 9.28497C11.6777 9.23812 9.87753 11.2994 12.2178 11.5337C14.558 11.7681 15.7822 12.7051 15.6381 14.1574" stroke="#407EF8" stroke-width="0.5" stroke-linecap="round" stroke-linejoin="round"/>
<path d="M5.23456 15.708C5.02918 16.2961 4.74165 17.6218 5.23456 18.2203C5.72747 18.8189 6.50792 20.2869 6.83652 20.9461H8.2331C8.16464 20.6788 7.92914 19.9519 7.53481 19.1823C7.14048 18.4127 7.20621 17.0444 7.28836 16.4564" stroke="#407EF8" stroke-width="0.5" stroke-linecap="round" stroke-linejoin="round"/>
<path d="M0.305176 23.4717H9.55238" stroke="#407EF8" stroke-width="0.5" stroke-linecap="round" stroke-linejoin="round"/>
<path d="M9.91406 24.2783H19.1613" stroke="#407EF8" stroke-width="0.5" stroke-linecap="round" stroke-linejoin="round"/>
<path d="M20.7197 24.2783H25.9152" stroke="#407EF8" stroke-width="0.5" stroke-linecap="round" stroke-linejoin="round"/>
<path d="M13.8677 23.4717H20.3857" stroke="#407EF8" stroke-width="0.5" stroke-linecap="round" stroke-linejoin="round"/>
<path d="M10.6084 23.4717H12.8645" stroke="#407EF8" stroke-width="0.5" stroke-linecap="round" stroke-linejoin="round"/>
<path d="M21.332 23.4717H27.8501" stroke="#407EF8" stroke-width="0.5" stroke-linecap="round" stroke-linejoin="round"/>
<path d="M3.35254 24.2783H8.83413" stroke="#407EF8" stroke-width="0.5" stroke-linecap="round" stroke-linejoin="round"/>
</svg>
