<svg id="SvgjsSvg1001" width="288" height="288" xmlns="http://www.w3.org/2000/svg" version="1.1" xmlns:xlink="http://www.w3.org/1999/xlink" xmlns:svgjs="http://svgjs.com/svgjs"><defs id="SvgjsDefs1002"></defs><g id="SvgjsG1008"><svg xmlns="http://www.w3.org/2000/svg" width="288" height="288" fill="none" viewBox="0 0 20 21"><path fill="#d2303d" d="M9.9999 12.8032C8.2249 12.8032 6.7749 11.3616 6.7749 9.57824C6.7749 7.79491 8.2249 6.36157 9.9999 6.36157C11.7749 6.36157 13.2249 7.80324 13.2249 9.58657C13.2249 11.3699 11.7749 12.8032 9.9999 12.8032ZM9.9999 7.61157C8.91657 7.61157 8.0249 8.49491 8.0249 9.58657C8.0249 10.6782 8.90824 11.5616 9.9999 11.5616C11.0916 11.5616 11.9749 10.6782 11.9749 9.58657C11.9749 8.49491 11.0832 7.61157 9.9999 7.61157Z" class="color407EF8 svgShape"></path><path fill="#d2303d" d="M9.9999 19.9616C8.76657 19.9616 7.5249 19.495 6.55824 18.57C4.0999 16.2033 1.38324 12.4283 2.40824 7.93662C3.33324 3.86162 6.89157 2.03662 9.9999 2.03662C9.9999 2.03662 9.9999 2.03662 10.0082 2.03662C13.1166 2.03662 16.6749 3.86162 17.5999 7.94495C18.6166 12.4366 15.8999 16.2033 13.4416 18.57C12.4749 19.495 11.2332 19.9616 9.9999 19.9616ZM9.9999 3.28662C7.5749 3.28662 4.45824 4.57829 3.63324 8.21162C2.73324 12.1366 5.1999 15.52 7.43324 17.6616C8.8749 19.0533 11.1332 19.0533 12.5749 17.6616C14.7999 15.52 17.2666 12.1366 16.3832 8.21162C15.5499 4.57829 12.4249 3.28662 9.9999 3.28662Z" class="color407EF8 svgShape"></path></svg></g></svg>