<svg xmlns="http://www.w3.org/2000/svg" width="30.631" height="30.631" viewBox="0 0 30.631 30.631">
  <g id="shopping-cart" transform="translate(-0.001)">
    <g id="Group_30803" data-name="Group 30803" transform="translate(9.409 11.846)">
      <g id="Group_30802" data-name="Group 30802">
        <path id="Path_27067" data-name="Path 27067" d="M157.851,198a.6.6,0,0,0-.6.6v7.538a.6.6,0,1,0,1.2,0V198.6A.6.6,0,0,0,157.851,198Z" transform="translate(-157.253 -198.001)"/>
      </g>
    </g>
    <g id="Group_30805" data-name="Group 30805" transform="translate(14.195 11.846)">
      <g id="Group_30804" data-name="Group 30804">
        <path id="Path_27068" data-name="Path 27068" d="M237.851,198a.6.6,0,0,0-.6.6v7.538a.6.6,0,1,0,1.2,0V198.6A.6.6,0,0,0,237.851,198Z" transform="translate(-237.253 -198.001)"/>
      </g>
    </g>
    <g id="Group_30807" data-name="Group 30807" transform="translate(18.981 11.846)">
      <g id="Group_30806" data-name="Group 30806">
        <path id="Path_27069" data-name="Path 27069" d="M317.851,198a.6.6,0,0,0-.6.6v7.538a.6.6,0,1,0,1.2,0V198.6A.6.6,0,0,0,317.851,198Z" transform="translate(-317.253 -198.001)"/>
      </g>
    </g>
    <g id="Group_30809" data-name="Group 30809" transform="translate(23.767 11.846)">
      <g id="Group_30808" data-name="Group 30808">
        <path id="Path_27070" data-name="Path 27070" d="M397.851,198a.6.6,0,0,0-.6.6v7.538a.6.6,0,1,0,1.2,0V198.6A.6.6,0,0,0,397.851,198Z" transform="translate(-397.253 -198.001)"/>
      </g>
    </g>
    <g id="Group_30811" data-name="Group 30811" transform="translate(0.001)">
      <g id="Group_30810" data-name="Group 30810" transform="translate(0)">
        <path id="Path_27071" data-name="Path 27071" d="M28.229,22.729l2.393-13.05a.6.6,0,0,0-.588-.706H27.4V3.829a.6.6,0,0,0-.6-.6H15.915V.6a.6.6,0,0,0-.6-.6H9.095a.6.6,0,0,0-.6.6V8.973H5.321l-.9-5.246a.6.6,0,0,0-.59-.5H.6a.6.6,0,0,0-.6.6V6.222a.6.6,0,0,0,.6.6H3.737L6.462,22.673v.779a3.355,3.355,0,0,0,3.013,3.334,2.513,2.513,0,1,0,4.268.017h7.216a2.513,2.513,0,1,0,4.279,0h2.4a.6.6,0,0,0,0-1.2H9.813a2.157,2.157,0,0,1-2.154-2.154V23.22H27.641A.6.6,0,0,0,28.229,22.729ZM1.2,5.624v-1.2H3.326l.206,1.2ZM23.1,26.8a1.316,1.316,0,1,1-1.316,1.316A1.318,1.318,0,0,1,23.1,26.8ZM11.6,26.8a1.316,1.316,0,1,1-1.316,1.316A1.318,1.318,0,0,1,11.6,26.8ZM15.922,6.82h5.2a.6.6,0,0,0,0-1.2h-5.2v-1.2H26.2V8.973H15.922ZM9.693,1.2h5.025V8.973H9.693ZM27.142,22.023H7.565L5.527,10.17H29.316Z" transform="translate(-0.001)"/>
      </g>
    </g>
    <g id="Group_30813" data-name="Group 30813" transform="translate(23.579 5.624)">
      <g id="Group_30812" data-name="Group 30812">
        <path id="Path_27072" data-name="Path 27072" d="M395.131,94.175a.6.6,0,1,0,.175.423A.6.6,0,0,0,395.131,94.175Z" transform="translate(-394.11 -94)"/>
      </g>
    </g>
  </g>
</svg>
