<svg xmlns="http://www.w3.org/2000/svg" width="19.555" height="24.067" viewBox="0 0 19.555 24.067">
  <path id="money-bag-active" d="M149.85,7.141v-1.7l2.177-4.354A.752.752,0,0,0,151.355,0h-3.008a.752.752,0,0,0-.532.22l-.972.972L145.87.22a.752.752,0,0,0-.532-.22h-4.513a.752.752,0,0,0-.673,1.088l2.177,4.354v1.7c-3.346,2.461-6.017,7.417-6.017,11.269,0,5.657,4.971,5.657,9.777,5.657s9.777,0,9.777-5.657C155.867,14.557,153.2,9.6,149.85,7.141Zm-6.017-1.124h4.513v.752h-4.513ZM145.026,1.5l1.284,1.284a.752.752,0,0,0,1.064,0L148.658,1.5h1.48l-1.5,3.008h-5.087l-1.5-3.008Zm1.064,21.059c-5.879,0-8.273-.376-8.273-4.153,0-3.043,2.2-7.787,5.5-10.137h5.546c3.3,2.35,5.5,7.094,5.5,10.137C154.363,22.187,151.969,22.563,146.09,22.563Z" transform="translate(-136.313)" fill="#fff"/>
</svg>