<svg width="201" height="107" viewBox="0 0 201 107" fill="none" xmlns="http://www.w3.org/2000/svg">
<path fill-rule="evenodd" clip-rule="evenodd" d="M106.632 79.5169L91.1463 106.337L61.0583 54.2223L30.9689 106.337H0L61.0583 0.580915L91.1463 52.6956L121.234 0.580915L136.718 27.4022L121.234 54.2223L107.686 30.7556L93.0823 56.0489L106.632 79.5169" fill="#5E6061"/>
<path fill-rule="evenodd" clip-rule="evenodd" d="M182.292 106.337H151.322L136.72 81.0422L152.204 54.2223L182.292 106.337" fill="#5E6061"/>
<path fill-rule="evenodd" clip-rule="evenodd" d="M91.145 106.337H122.116L167.689 27.4022L152.204 0.582249L91.145 106.337" fill="#D6232E"/>
<path fill-rule="evenodd" clip-rule="evenodd" d="M177.537 6.48138L182.029 0.581381H184.389V11.3174H181.577V5.02806L177.756 10.1054H176.97L173.101 4.95872V11.3174H170.561V0.581381H172.937L177.537 6.48138ZM191.105 5.82005L185.91 0.581381H189.932L193.013 3.85472L195.941 0.581381H199.533L194.832 5.53604L200.6 11.3174H196.5L192.953 7.55872L189.682 11.3174H186.033L191.105 5.82005Z" fill="#464648"/>
</svg>
