<svg id="dollar" xmlns="http://www.w3.org/2000/svg" width="19.106" height="19.106" viewBox="0 0 19.106 19.106">
  <path id="Path_20571" data-name="Path 20571" d="M9.553,19.106A9.553,9.553,0,0,1,2.8,2.8a9.553,9.553,0,0,1,13.51,13.51A9.49,9.49,0,0,1,9.553,19.106Zm0-17.912a8.359,8.359,0,1,0,8.359,8.359A8.368,8.368,0,0,0,9.553,1.194Z" transform="translate(0 0)" fill="#343434"/>
  <path id="Path_20572" data-name="Path 20572" d="M186.687,101.374a1.493,1.493,0,1,1,1.493-1.493.6.6,0,1,0,1.194,0,2.691,2.691,0,0,0-2.09-2.619V96.6a.6.6,0,1,0-1.194,0v.665a2.687,2.687,0,0,0,.6,5.306,1.493,1.493,0,1,1-1.493,1.493.6.6,0,0,0-1.194,0,2.691,2.691,0,0,0,2.09,2.619v.665a.6.6,0,0,0,1.194,0v-.665a2.687,2.687,0,0,0-.6-5.306Z" transform="translate(-177.134 -92.418)" fill="#343434"/>
</svg>
