<svg id="SvgjsSvg1001" width="288" height="288" xmlns="http://www.w3.org/2000/svg" version="1.1" xmlns:xlink="http://www.w3.org/1999/xlink" xmlns:svgjs="http://svgjs.com/svgjs"><defs id="SvgjsDefs1002"></defs><g id="SvgjsG1008"><svg xmlns="http://www.w3.org/2000/svg" width="288" height="288" fill="none" viewBox="0 0 20 21"><g clip-path="url(#clip0_698_2972)" fill="#000000" class="color000 svgShape"><path fill="#d2303d" d="M16.5751 20.1031C16.5001 20.1031 16.4251 20.1031 16.3418 20.0948C13.6501 19.8031 11.0334 18.8698 8.7751 17.4031C6.6751 16.0698 4.85844 14.2531 3.5251 12.1531C2.05844 9.88646 1.1251 7.26146 0.841771 4.56979C0.808437 4.21146 0.850104 3.86979 0.958437 3.53646C1.06677 3.20312 1.2501 2.90313 1.48344 2.64479C1.71677 2.38646 2.0001 2.18646 2.31677 2.04479C2.64177 1.90312 2.98344 1.82812 3.33344 1.82812H5.83344C6.41677 1.82812 7.01677 2.03646 7.48344 2.43646C7.94177 2.82812 8.24177 3.37812 8.3251 3.97812C8.4251 4.71979 8.60844 5.45312 8.86677 6.14479C9.03344 6.59479 9.0751 7.07812 8.96677 7.54479C8.86677 8.01146 8.63344 8.44479 8.3001 8.77812L7.7001 9.37813C8.68344 10.9115 9.98344 12.2198 11.5251 13.2031L12.1251 12.6031C12.4668 12.2615 12.9001 12.0281 13.3668 11.9365C13.8334 11.8365 14.3168 11.8698 14.7668 12.0365C15.4584 12.2948 16.1918 12.4781 16.9251 12.5781C17.5418 12.6615 18.0918 12.9698 18.4918 13.4365C18.8834 13.9031 19.1001 14.4948 19.0834 15.1031V17.5948C19.0834 17.9448 19.0168 18.2781 18.8751 18.6031C18.7334 18.9198 18.5251 19.2115 18.2751 19.4448C18.0168 19.6781 17.7168 19.8615 17.3834 19.9698C17.1168 20.0615 16.8501 20.1031 16.5751 20.1031ZM5.8501 3.49479H5.84177H3.33344C3.21677 3.49479 3.10844 3.51979 3.0001 3.56979C2.89177 3.61146 2.79177 3.67812 2.71677 3.76146C2.63344 3.84479 2.5751 3.94479 2.54177 4.06146C2.50844 4.16979 2.49177 4.28646 2.5001 4.40312C2.75844 6.82812 3.6001 9.19479 4.9251 11.2531C6.13344 13.1531 7.7751 14.7948 9.6751 16.0031C11.7251 17.3365 14.0918 18.1698 16.5084 18.4365C16.6084 18.4448 16.7251 18.4281 16.8334 18.3948C16.9418 18.3615 17.0418 18.2948 17.1334 18.2198C17.2251 18.1448 17.2918 18.0448 17.3334 17.9365C17.3834 17.8281 17.4001 17.7115 17.4001 17.5948V15.0948C17.4001 15.0865 17.4001 15.0781 17.4001 15.0781C17.4084 14.8698 17.3334 14.6781 17.2001 14.5198C17.0668 14.3615 16.8834 14.2615 16.6834 14.2365C15.8334 14.1281 14.9834 13.9115 14.1668 13.6115C14.0168 13.5531 13.8501 13.5448 13.7001 13.5781C13.5418 13.6115 13.4001 13.6865 13.2834 13.8031L12.2334 14.8615C11.9668 15.1281 11.5584 15.1781 11.2334 14.9948C9.01677 13.7365 7.18344 11.8948 5.91677 9.68646C5.74177 9.33646 5.79177 8.92812 6.05844 8.66146L7.11677 7.60312C7.2251 7.49479 7.3001 7.35313 7.33344 7.19479C7.36677 7.03646 7.35844 6.87813 7.3001 6.72813C6.99177 5.91146 6.78344 5.06146 6.66677 4.20312C6.64177 4.01146 6.54177 3.82812 6.39177 3.69479C6.24177 3.56979 6.0501 3.49479 5.8501 3.49479Z" class="color407EF8 svgShape"></path></g><defs><clipPath id="clip0_698_2972"><rect width="20" height="20" fill="#ffffff" transform="translate(0 .995)" class="colorfff svgShape"></rect></clipPath></defs></svg></g></svg>