<svg xmlns="http://www.w3.org/2000/svg" width="19.615" height="19.614" viewBox="0 0 19.615 19.614">
  <g id="delivery-box" transform="translate(0 0)">
    <path id="Path_20573" data-name="Path 20573" d="M9.8,20.665a.406.406,0,0,1-.189-.047L.22,15.715A.409.409,0,0,1,0,15.353V6.159a.408.408,0,0,1,.591-.365l9.392,4.7a.409.409,0,0,1,.226.365v9.4a.409.409,0,0,1-.2.35A.4.4,0,0,1,9.8,20.665ZM.817,15.105l8.575,4.477V11.111L.817,6.82Z" transform="translate(0.001 -1.051)" fill="#343434"/>
    <path id="Path_20574" data-name="Path 20574" d="M11.917,20.665a.408.408,0,0,1-.409-.409v-9.4a.409.409,0,0,1,.226-.365l9.392-4.7a.409.409,0,0,1,.592.365v9.194a.409.409,0,0,1-.22.362l-9.392,4.9a.406.406,0,0,1-.189.047Zm.409-9.555v8.472L20.9,15.105V6.82Zm8.983,4.242h.008Z" transform="translate(-2.102 -1.051)" fill="#343434"/>
    <path id="Path_20575" data-name="Path 20575" d="M.408,5.517a.408.408,0,0,1-.183-.774L9.631.043a.41.41,0,0,1,.365,0l9.392,4.7a.409.409,0,0,1-.365.731L9.814.866.592,5.473a.407.407,0,0,1-.183.043Z" transform="translate(0.001 0)" fill="#343434"/>
    <path id="Path_20576" data-name="Path 20576" d="M15.809,12.762a.409.409,0,0,1-.409-.409V8.11L6.234,3.524A.409.409,0,0,1,6.6,2.792l9.392,4.7a.411.411,0,0,1,.226.366v4.5a.409.409,0,0,1-.409.409Z" transform="translate(-1.097 -0.503)" fill="#343434"/>
  </g>
</svg>
