<?xml version="1.0" encoding="utf-8"?>
<!-- Generator: Adobe Illustrator 25.3.1, SVG Export Plug-In . SVG Version: 6.00 Build 0)  -->
<svg version="1.1" id="Layer_2_1_" xmlns="http://www.w3.org/2000/svg" xmlns:xlink="http://www.w3.org/1999/xlink" x="0px" y="0px"
	 viewBox="0 0 48 80" style="enable-background:new 0 0 48 80;" xml:space="preserve">
<style type="text/css">
	.st0{fill:#E76F51;stroke:#FFFFFF;stroke-width:2;stroke-miterlimit:10;}
	.st1{fill:#C41100;}
</style>
<path class="st0" d="M24.5,1C11.4,1.1,0.9,11.9,1,25c0,6.7,4,13,7,18l6.2,10.2l0,0c3.4,5.1,5.4,11,5.8,17.2l0.5,8.6h7l0.6-10.8
	c0.2-5,1.7-9.9,4.4-14.2c0.5-0.8,4-6,4-6l4-6c4-7,6.5-12,6.5-18C47,10.8,37.5,1,24.5,1z"/>
<circle class="st1" cx="24" cy="24.5" r="8.5"/>
</svg>
