<svg id="SvgjsSvg1006" width="288" height="288" xmlns="http://www.w3.org/2000/svg" version="1.1" xmlns:xlink="http://www.w3.org/1999/xlink" xmlns:svgjs="http://svgjs.com/svgjs"><defs id="SvgjsDefs1007"></defs><g id="SvgjsG1008"><svg xmlns="http://www.w3.org/2000/svg" width="288" height="288" fill="none" viewBox="0 0 21 21"><path fill="#b1150a" fill-rule="evenodd" d="M10.4998 18.3688C15.1022 18.3688 18.8332 14.6379 18.8332 10.0355C18.8332 5.43311 15.1022 1.70215 10.4998 1.70215C5.89746 1.70215 2.1665 5.43311 2.1665 10.0355C2.1665 14.6379 5.89746 18.3688 10.4998 18.3688ZM8.53017 7.00515C8.23727 6.71226 7.7624 6.71226 7.46951 7.00515C7.17661 7.29804 7.17661 7.77292 7.46951 8.06581L9.43918 10.0355L7.46951 12.0052C7.17661 12.298 7.17661 12.7729 7.46951 13.0658C7.7624 13.3587 8.23727 13.3587 8.53017 13.0658L10.4998 11.0961L12.4695 13.0658C12.7624 13.3587 13.2373 13.3587 13.5302 13.0658C13.8231 12.7729 13.8231 12.298 13.5302 12.0052L11.5605 10.0355L13.5302 8.06581C13.8231 7.77292 13.8231 7.29804 13.5302 7.00515C13.2373 6.71226 12.7624 6.71226 12.4695 7.00515L10.4998 8.97482L8.53017 7.00515Z" clip-rule="evenodd" class="color407EF8 svgShape"></path></svg></g></svg>