<svg xmlns="http://www.w3.org/2000/svg" width="38.022" height="32.493" viewBox="0 0 38.022 32.493">
  <g id="scale" transform="translate(0 -33.811)">
    <g id="Group_30820" data-name="Group 30820" transform="translate(0 33.811)">
      <path id="Path_27079" data-name="Path 27079" d="M37.381,48.911l-5.81-11.706a.9.9,0,0,0-.769-.47l-.384.085H22.9a4.016,4.016,0,0,0-7.775,0H7.6l-.384-.085a.9.9,0,0,0-.769.47L.641,48.911A.812.812,0,0,0,0,49.723c0,3.589,3.247,6.536,7.22,6.536s7.263-2.948,7.263-6.536a.854.854,0,0,0-.641-.812L8.672,38.53H15.08a3.973,3.973,0,0,0,3.076,3.076v15a6.063,6.063,0,0,0-5.3,4.571h-1.88a1.025,1.025,0,0,0-.94.94V65.53a.854.854,0,0,0,.931.77H27.042a.854.854,0,0,0,.939-.76V62.112a1.025,1.025,0,0,0-.94-.94h-1.88a6.063,6.063,0,0,0-5.3-4.571v-15a3.973,3.973,0,0,0,3.076-3.076h6.408L24.18,48.911a.855.855,0,0,0-.641.812c0,3.589,3.247,6.536,7.263,6.536s7.22-2.948,7.22-6.536A.811.811,0,0,0,37.381,48.911ZM7.22,54.465a5.521,5.521,0,0,1-5.426-3.973H12.688A5.536,5.536,0,0,1,7.22,54.465Zm4.7-5.682H2.563L7.22,39.427Zm14.354,14.1V64.59H11.748V62.881Zm-2.862-1.709h-8.8c.342-1.709,2.179-2.99,4.4-2.99S23.069,59.464,23.411,61.172Zm-4.4-21.147a2.307,2.307,0,1,1,2.307-2.307A2.307,2.307,0,0,1,19.011,40.025Zm11.791-.6,4.657,9.356H26.1Zm0,15.038a5.536,5.536,0,0,1-5.468-3.973H36.227A5.521,5.521,0,0,1,30.8,54.465Z" transform="translate(0 -33.811)"/>
    </g>
  </g>
</svg>
