<svg width="57" height="56" viewBox="0 0 57 56" fill="none" xmlns="http://www.w3.org/2000/svg">
<circle cx="28.5" cy="28" r="28" fill="#E5EDFD"/>
<g clip-path="url(#clip0_804_55771)">
<path d="M31.8572 24.193V22.6917L33.7931 18.8467C33.8438 18.7455 33.8677 18.6332 33.8625 18.5203C33.8572 18.4074 33.8231 18.2977 33.7632 18.2016C33.7034 18.1055 33.6199 18.0261 33.5205 17.971C33.4212 17.9159 33.3093 17.8869 33.1956 17.8867H30.5207C30.4328 17.8867 30.3458 17.9038 30.2646 17.9371C30.1835 17.9705 30.1097 18.0194 30.0476 18.081L29.1832 18.9394L28.3179 18.081C28.2558 18.0194 28.182 17.9705 28.1009 17.9371C28.0197 17.9038 27.9327 17.8867 27.8449 17.8867H23.8316C23.7176 17.8867 23.6055 17.9156 23.506 17.9707C23.4064 18.0258 23.3226 18.1052 23.2627 18.2015C23.2027 18.2977 23.1685 18.4076 23.1634 18.5207C23.1582 18.6338 23.1822 18.7463 23.2331 18.8475L25.1691 22.6926V24.1939C22.1936 26.3673 19.8184 30.744 19.8184 34.1457C19.8184 39.1415 24.2389 39.1415 28.5127 39.1415C32.7865 39.1415 37.207 39.1415 37.207 34.1457C37.2079 30.7422 34.8363 26.3646 31.8572 24.193ZM26.5065 23.2004H30.5198V23.8645H26.5065V23.2004ZM27.5674 19.2114L28.7092 20.3453C28.7713 20.407 28.8451 20.456 28.9263 20.4894C29.0074 20.5228 29.0944 20.54 29.1823 20.54C29.2702 20.54 29.3572 20.5228 29.4384 20.4894C29.5195 20.456 29.5933 20.407 29.6554 20.3453L30.7972 19.2114H32.1133L30.7794 21.8678H26.2557L24.9218 19.2114H27.5674ZM28.5136 37.8089C23.2856 37.8089 21.1567 37.4768 21.1567 34.1413C21.1567 31.454 23.1131 27.2645 26.0477 25.1892H30.9795C33.9141 27.2645 35.8705 31.454 35.8705 34.1413C35.8705 37.4804 33.7416 37.8124 28.5136 37.8124V37.8089Z" fill="#407EF8"/>
</g>
<defs>
<clipPath id="clip0_804_55771">
<rect width="17.3896" height="21.2539" fill="white" transform="translate(19.8193 17.8867)"/>
</clipPath>
</defs>
</svg>
