<svg xmlns="http://www.w3.org/2000/svg" width="28.543" height="23.786" viewBox="0 0 28.543 23.786">
  <g id="binoculars_1_" data-name="binoculars (1)" transform="translate(0 0)">
    <path id="Path_29962" data-name="Path 29962" d="M6.541,205.082a6.541,6.541,0,1,1,6.541-6.541,6.549,6.549,0,0,1-6.541,6.541Zm0-11.3a4.757,4.757,0,1,0,4.757,4.757,4.782,4.782,0,0,0-4.757-4.757Zm0,0" transform="translate(0 -181.296)" fill="#fff"/>
    <path id="Path_29963" data-name="Path 29963" d="M203.56,73.534a.892.892,0,0,1-.892-.892V59.56a.892.892,0,1,1,1.784,0V72.642A.892.892,0,0,1,203.56,73.534Zm0,0" transform="translate(-191.37 -55.397)" fill="#fff"/>
    <path id="Path_29964" data-name="Path 29964" d="M7.35,52.046a.882.882,0,0,1-.314-.057.892.892,0,0,1-.521-1.149l4.6-12.245a.891.891,0,1,1,1.669.628l-4.6,12.245a.892.892,0,0,1-.835.578Zm0,0" transform="translate(-6.098 -35.898)" fill="#fff"/>
    <path id="Path_29965" data-name="Path 29965" d="M94.759,5.055a.892.892,0,0,1-.892-.892,2.377,2.377,0,0,0-4.6-.841A1.282,1.282,0,0,0,89.2,3.5a.892.892,0,0,1-1.728-.445,3.122,3.122,0,0,1,.136-.395,4.161,4.161,0,0,1,8.043,1.5.892.892,0,0,1-.892.892Zm0,0" transform="translate(-82.569)" fill="#fff"/>
    <path id="Path_29966" data-name="Path 29966" d="M278.224,5.055a.892.892,0,0,1-.892-.892,4.16,4.16,0,0,1,8.054-1.468l.1.294a.892.892,0,1,1-1.684.586l-.1-.274a2.377,2.377,0,0,0-4.593.861.892.892,0,0,1-.892.892Zm0,0" transform="translate(-261.871 0)" fill="#fff"/>
    <path id="Path_29967" data-name="Path 29967" d="M278.224,73.534a.892.892,0,0,1-.892-.892V59.56a.892.892,0,1,1,1.784,0V72.642A.892.892,0,0,1,278.224,73.534Zm0,0" transform="translate(-261.871 -55.397)" fill="#fff"/>
    <path id="Path_29968" data-name="Path 29968" d="M396.426,52.039a.891.891,0,0,1-.835-.578l-4.6-12.245a.892.892,0,1,1,1.67-.628l4.6,12.245a.893.893,0,0,1-.521,1.149A.882.882,0,0,1,396.426,52.039Zm0,0" transform="translate(-369.136 -35.89)" fill="#fff"/>
    <path id="Path_29969" data-name="Path 29969" d="M283.873,205.082a6.544,6.544,0,1,1,6.541-6.541A6.549,6.549,0,0,1,283.873,205.082Zm0-11.3a4.754,4.754,0,1,0,4.454,3.083A4.762,4.762,0,0,0,283.873,193.784Zm0,0" transform="translate(-261.871 -181.296)" fill="#fff"/>
    <path id="Path_29970" data-name="Path 29970" d="M207.722,268.452H203.56a.892.892,0,0,1,0-1.784h4.162a.892.892,0,0,1,0,1.784Zm0,0" transform="translate(-191.369 -251.802)" fill="#fff"/>
    <path id="Path_29971" data-name="Path 29971" d="M207.722,172.452H203.56a.892.892,0,0,1,0-1.784h4.162a.892.892,0,0,1,0,1.784Zm0,0" transform="translate(-191.369 -161.154)" fill="#fff"/>
  </g>
</svg>
