<svg width="20" height="21" viewBox="0 0 20 21" fill="none" xmlns="http://www.w3.org/2000/svg">
<path fill-rule="evenodd" clip-rule="evenodd" d="M3.72039 13.882C4.50179 13.1006 5.5616 12.6616 6.66667 12.6616H13.3333C14.4384 12.6616 15.4982 13.1006 16.2796 13.882C17.061 14.6634 17.5 15.7232 17.5 16.8283V18.495C17.5 18.9552 17.1269 19.3283 16.6667 19.3283C16.2064 19.3283 15.8333 18.9552 15.8333 18.495V16.8283C15.8333 16.1652 15.5699 15.5294 15.1011 15.0605C14.6323 14.5917 13.9964 14.3283 13.3333 14.3283H6.66667C6.00363 14.3283 5.36774 14.5917 4.8989 15.0605C4.43006 15.5294 4.16667 16.1652 4.16667 16.8283V18.495C4.16667 18.9552 3.79357 19.3283 3.33333 19.3283C2.8731 19.3283 2.5 18.9552 2.5 18.495V16.8283C2.5 15.7232 2.93899 14.6634 3.72039 13.882Z" fill="#407EF8"/>
<path fill-rule="evenodd" clip-rule="evenodd" d="M10.0002 4.32829C8.61945 4.32829 7.50016 5.44758 7.50016 6.82829C7.50016 8.209 8.61945 9.32829 10.0002 9.32829C11.3809 9.32829 12.5002 8.209 12.5002 6.82829C12.5002 5.44758 11.3809 4.32829 10.0002 4.32829ZM5.8335 6.82829C5.8335 4.5271 7.69898 2.66162 10.0002 2.66162C12.3013 2.66162 14.1668 4.5271 14.1668 6.82829C14.1668 9.12947 12.3013 10.995 10.0002 10.995C7.69898 10.995 5.8335 9.12947 5.8335 6.82829Z" fill="#407EF8"/>
</svg>
