<svg xmlns="http://www.w3.org/2000/svg" width="20.188" height="19.027" viewBox="0 0 20.188 19.027">
  <path id="Icon_awesome-volume-up" data-name="Icon awesome-volume-up" d="M7.536,3.307,4.418,6.833H.841A.9.9,0,0,0,0,7.784v5.708a.9.9,0,0,0,.841.951H4.418l3.118,3.526A.834.834,0,0,0,8.972,17.3V3.98A.834.834,0,0,0,7.536,3.307Zm8.177-2.025a.79.79,0,0,0-1.174.275,1.038,1.038,0,0,0,.244,1.328,9.612,9.612,0,0,1,3.709,7.752,9.612,9.612,0,0,1-3.709,7.752,1.037,1.037,0,0,0-.244,1.328.792.792,0,0,0,1.174.275,11.6,11.6,0,0,0,4.474-9.356,11.6,11.6,0,0,0-4.474-9.356Zm1.109,9.356a7.591,7.591,0,0,0-3.006-6.193.783.783,0,0,0-1.161.3,1.04,1.04,0,0,0,.26,1.322,5.609,5.609,0,0,1,2.225,4.575,5.609,5.609,0,0,1-2.225,4.575,1.04,1.04,0,0,0-.26,1.322.785.785,0,0,0,1.161.3A7.59,7.59,0,0,0,16.823,10.638ZM11.854,7.591a.8.8,0,0,0-1.143.375,1.02,1.02,0,0,0,.331,1.293,1.665,1.665,0,0,1,0,2.76,1.02,1.02,0,0,0-.331,1.293.794.794,0,0,0,1.143.375,3.578,3.578,0,0,0,1.6-3.047,3.575,3.575,0,0,0-1.6-3.047Z" transform="translate(0 -1.125)" fill="#fff"/>
</svg>
