<svg width="40" height="40" viewBox="0 0 40 40" fill="none" xmlns="http://www.w3.org/2000/svg">
<path fill-rule="evenodd" clip-rule="evenodd" d="M15.25 14.4167C14.7936 14.4167 14.4167 14.7936 14.4167 15.25C14.4167 15.471 14.5045 15.683 14.6607 15.8393C14.817 15.9955 15.029 16.0833 15.25 16.0833H24.4167V14.4167H15.25ZM26.0833 16.0833V13.5833C26.0833 13.1231 25.7102 12.75 25.25 12.75H15.25C13.8731 12.75 12.75 13.8731 12.75 15.25C12.75 15.913 13.0134 16.5489 13.4822 17.0178C13.9511 17.4866 14.587 17.75 15.25 17.75H26.0833V20.25C26.0833 20.7102 26.4564 21.0833 26.9167 21.0833C27.3769 21.0833 27.75 20.7102 27.75 20.25V16.9167C27.75 16.4564 27.3769 16.0833 26.9167 16.0833H26.0833Z" fill="#407EF8"/>
<path fill-rule="evenodd" clip-rule="evenodd" d="M13.5833 14.418C14.0436 14.418 14.4167 14.7911 14.4167 15.2513V25.2513C14.4167 25.7077 14.7936 26.0846 15.25 26.0846H26.0833V23.5846C26.0833 23.1244 26.4564 22.7513 26.9167 22.7513C27.3769 22.7513 27.75 23.1244 27.75 23.5846V26.918C27.75 27.3782 27.3769 27.7513 26.9167 27.7513H15.25C13.8731 27.7513 12.75 26.6282 12.75 25.2513V15.2513C12.75 14.7911 13.1231 14.418 13.5833 14.418Z" fill="#407EF8"/>
<path fill-rule="evenodd" clip-rule="evenodd" d="M23.4822 20.1502C23.9511 19.6814 24.587 19.418 25.25 19.418H28.5833C29.0436 19.418 29.4167 19.7911 29.4167 20.2513V23.5846C29.4167 24.0449 29.0436 24.418 28.5833 24.418H25.25C23.8731 24.418 22.75 23.2949 22.75 21.918C22.75 21.2549 23.0134 20.619 23.4822 20.1502ZM25.25 21.0846C25.029 21.0846 24.817 21.1724 24.6607 21.3287C24.5045 21.485 24.4167 21.697 24.4167 21.918C24.4167 22.3744 24.7936 22.7513 25.25 22.7513H27.75V21.0846H25.25Z" fill="#407EF8"/>
</svg>
