<?xml version="1.0" encoding="UTF-8"?>
<svg xmlns="http://www.w3.org/2000/svg" xmlns:xlink="http://www.w3.org/1999/xlink" width="24px" height="24px" viewBox="0 0 24 24" version="1.1">
<g id="surface1">
<path style=" stroke:none;fill-rule:evenodd;fill:rgb(70.196078%,70.196078%,70.196078%);fill-opacity:1;" d="M 6 5 C 5.453125 5 5 5.453125 5 6 C 5 6.265625 5.105469 6.519531 5.292969 6.707031 C 5.480469 6.894531 5.734375 7 6 7 L 17 7 L 17 5 Z M 19 7 L 19 4 C 19 3.449219 18.550781 3 18 3 L 6 3 C 4.347656 3 3 4.347656 3 6 C 3 6.796875 3.316406 7.558594 3.878906 8.121094 C 4.441406 8.683594 5.203125 9 6 9 L 19 9 L 19 12 C 19 12.550781 19.449219 13 20 13 C 20.550781 13 21 12.550781 21 12 L 21 8 C 21 7.449219 20.550781 7 20 7 Z M 19 7 "/>
<path style=" stroke:none;fill-rule:evenodd;fill:rgb(70.196078%,70.196078%,70.196078%);fill-opacity:1;" d="M 4 5 C 4.550781 5 5 5.449219 5 6 L 5 18 C 5 18.546875 5.453125 19 6 19 L 19 19 L 19 16 C 19 15.449219 19.449219 15 20 15 C 20.550781 15 21 15.449219 21 16 L 21 20 C 21 20.550781 20.550781 21 20 21 L 6 21 C 4.347656 21 3 19.652344 3 18 L 3 6 C 3 5.449219 3.449219 5 4 5 Z M 4 5 "/>
<path style=" stroke:none;fill-rule:evenodd;fill:rgb(70.196078%,70.196078%,70.196078%);fill-opacity:1;" d="M 15.878906 11.878906 C 16.441406 11.316406 17.203125 11 18 11 L 22 11 C 22.550781 11 23 11.449219 23 12 L 23 16 C 23 16.550781 22.550781 17 22 17 L 18 17 C 16.347656 17 15 15.652344 15 14 C 15 13.203125 15.316406 12.441406 15.878906 11.878906 Z M 18 13 C 17.734375 13 17.480469 13.105469 17.292969 13.292969 C 17.105469 13.480469 17 13.734375 17 14 C 17 14.546875 17.453125 15 18 15 L 21 15 L 21 13 Z M 18 13 "/>
</g>
</svg>
