<svg width="23" height="23" viewBox="0 0 23 23" fill="none" xmlns="http://www.w3.org/2000/svg">
<g clip-path="url(#clip0_790_2952)">
<path d="M22.2291 2.09485H19.3738C19.3842 1.77882 19.3895 1.46063 19.3895 1.14029C19.3895 0.968401 19.3212 0.803554 19.1997 0.682012C19.0781 0.560469 18.9133 0.492188 18.7414 0.492188H4.77113C4.59925 0.492188 4.4344 0.560469 4.31286 0.682012C4.19132 0.803554 4.12303 0.968401 4.12303 1.14029C4.12303 1.46002 4.12828 1.7782 4.13877 2.09485H1.2751C1.10321 2.09485 0.938363 2.16313 0.81682 2.28467C0.695278 2.40621 0.626996 2.57106 0.626996 2.74295C0.575602 5.48386 1.32256 8.18055 2.77684 10.5044C3.31263 11.4312 4.05959 12.2184 4.95698 12.8021C5.85437 13.3858 6.87685 13.7494 7.94127 13.8634C8.35496 14.322 8.83011 14.7211 9.3532 15.0494V17.9474H8.26254C7.62679 17.9481 7.01728 18.201 6.56773 18.6505C6.11818 19.1001 5.86531 19.7096 5.86457 20.3453V21.4388H5.81828C5.64541 21.4388 5.47962 21.5075 5.35738 21.6297C5.23515 21.7519 5.16647 21.9177 5.16647 22.0906C5.16647 22.2635 5.23515 22.4292 5.35738 22.5515C5.47962 22.6737 5.64541 22.7424 5.81828 22.7424H17.6905C17.8634 22.7424 18.0292 22.6737 18.1514 22.5515C18.2737 22.4292 18.3424 22.2635 18.3424 22.0906C18.3424 21.9177 18.2737 21.7519 18.1514 21.6297C18.0292 21.5075 17.8634 21.4388 17.6905 21.4388H17.6443V20.3453C17.6435 19.7096 17.3906 19.1001 16.9411 18.6505C16.4915 18.201 15.882 17.9481 15.2463 17.9474H14.1519V15.0494C14.6751 14.7212 15.1502 14.322 15.5639 13.8634C16.6286 13.7502 17.6517 13.3872 18.5497 12.804C19.4478 12.2208 20.1955 11.4339 20.732 10.5072C22.1863 8.18333 22.9332 5.48664 22.8818 2.74572C22.8822 2.65999 22.8656 2.57503 22.8329 2.49578C22.8002 2.41652 22.7521 2.34454 22.6914 2.284C22.6306 2.22347 22.5585 2.17558 22.4792 2.14311C22.3998 2.11064 22.3148 2.09423 22.2291 2.09485ZM3.86287 9.78502C2.6599 7.86716 1.99741 5.65992 1.94542 3.3966H4.20729C4.37807 6.13724 5.0654 8.82088 6.23306 11.3062C6.40712 11.6537 6.58859 11.9824 6.77747 12.2922C5.56801 11.7813 4.54884 10.9045 3.86287 9.78502ZM16.3397 20.3453V21.4397H7.16818V20.3453C7.16842 20.0552 7.2838 19.777 7.48898 19.5718C7.69416 19.3666 7.97237 19.2512 8.26254 19.251H15.2463C15.5363 19.2515 15.8143 19.367 16.0192 19.5721C16.2242 19.7773 16.3395 20.0553 16.3397 20.3453ZM12.8483 17.9474H10.6605V15.6161C11.3772 15.8073 12.1316 15.8073 12.8483 15.6161V17.9474ZM13.252 14.0653C13.2229 14.0773 13.1947 14.0916 13.1677 14.1078C12.7318 14.3363 12.247 14.4556 11.7549 14.4556C11.2627 14.4556 10.7779 14.3363 10.342 14.1078C10.3147 14.0913 10.2863 14.0767 10.2568 14.0643C9.69536 13.753 9.19577 13.3413 8.78287 12.8496C8.75808 12.8162 8.73018 12.7852 8.69955 12.757C8.18956 12.1342 7.75451 11.4537 7.40335 10.7294C6.11252 7.9262 5.43964 4.87819 5.43034 1.79209H18.0785C18.0695 4.87634 17.3979 7.92266 16.1092 10.7248C15.7579 11.449 15.3229 12.1296 14.813 12.7524C14.7821 12.782 14.7542 12.8145 14.7297 12.8496C14.3156 13.3416 13.8148 13.7533 13.252 14.0643V14.0653ZM19.646 9.78594C18.9601 10.9058 17.9409 11.7829 16.7314 12.2941C16.9202 11.9855 17.1017 11.6568 17.2758 11.3081C18.4434 8.82271 19.1307 6.13908 19.3015 3.39845H21.5643C21.5117 5.66123 20.8489 7.86779 19.646 9.78502V9.78594Z" fill="#8C8C8C"/>
</g>
<defs>
<clipPath id="clip0_790_2952">
<rect width="22.2548" height="22.2539" fill="white" transform="translate(0.626953 0.488281)"/>
</clipPath>
</defs>
</svg>
