<svg width="23" height="23" viewBox="0 0 23 23" fill="none" xmlns="http://www.w3.org/2000/svg">
<g clip-path="url(#clip0_804_59702)">
<path d="M21.6021 1.60657H18.7468C18.7573 1.29054 18.7625 0.972353 18.7625 0.652006C18.7625 0.48012 18.6943 0.315273 18.5727 0.19373C18.4512 0.072188 18.2863 0.00390625 18.1144 0.00390625H4.14418C3.97229 0.00390625 3.80745 0.072188 3.6859 0.19373C3.56436 0.315273 3.49608 0.48012 3.49608 0.652006C3.49608 0.971736 3.50133 1.28992 3.51182 1.60657H0.648143C0.476256 1.60657 0.31141 1.67485 0.189867 1.79639C0.0683248 1.91793 4.30366e-05 2.08278 4.30366e-05 2.25467C-0.0513511 4.99558 0.695602 7.69227 2.14988 10.0161C2.68568 10.9429 3.43264 11.7301 4.33003 12.3138C5.22742 12.8975 6.2499 13.2611 7.31432 13.3751C7.728 13.8337 8.20315 14.2328 8.72625 14.5612V17.4591H7.63559C6.99983 17.4598 6.39033 17.7127 5.94078 18.1623C5.49123 18.6118 5.23835 19.2213 5.23762 19.8571V20.9505H5.19132C5.01846 20.9505 4.85267 21.0192 4.73043 21.1414C4.60819 21.2636 4.53952 21.4294 4.53952 21.6023C4.53952 21.7752 4.60819 21.941 4.73043 22.0632C4.85267 22.1854 5.01846 22.2541 5.19132 22.2541H17.0636C17.2365 22.2541 17.4023 22.1854 17.5245 22.0632C17.6467 21.941 17.7154 21.7752 17.7154 21.6023C17.7154 21.4294 17.6467 21.2636 17.5245 21.1414C17.4023 21.0192 17.2365 20.9505 17.0636 20.9505H17.0173V19.8571C17.0166 19.2213 16.7637 18.6118 16.3141 18.1623C15.8646 17.7127 15.2551 17.4598 14.6193 17.4591H13.525V14.5612C14.0481 14.2329 14.5233 13.8338 14.9369 13.3751C16.0017 13.2619 17.0247 12.8989 17.9228 12.3157C18.8208 11.7325 19.5685 10.9456 20.105 10.0189C21.5593 7.69505 22.3063 4.99836 22.2549 2.25744C22.2552 2.17171 22.2386 2.08675 22.2059 2.0075C22.1732 1.92824 22.1251 1.85626 22.0644 1.79572C22.0037 1.73518 21.9316 1.68729 21.8522 1.65482C21.7729 1.62236 21.6879 1.60595 21.6021 1.60657V1.60657ZM3.23591 9.29674C2.03295 7.37888 1.37046 5.17164 1.31846 2.90832H3.58033C3.75112 5.64895 4.43844 8.3326 5.60611 10.8179C5.78017 11.1654 5.96164 11.4941 6.15051 11.804C4.94106 11.293 3.92188 10.4163 3.23591 9.29674V9.29674ZM15.7128 19.8571V20.9514H6.54122V19.8571C6.54147 19.5669 6.65685 19.2887 6.86203 19.0835C7.06721 18.8783 7.34542 18.7629 7.63559 18.7627H14.6193C14.9093 18.7632 15.1873 18.8787 15.3923 19.0838C15.5973 19.289 15.7125 19.5671 15.7128 19.8571ZM12.2214 17.4591H10.0336V15.1278C10.7503 15.3191 11.5046 15.3191 12.2214 15.1278V17.4591ZM12.625 13.577C12.5959 13.5891 12.5678 13.6033 12.5408 13.6196C12.1049 13.848 11.6201 13.9673 11.1279 13.9673C10.6358 13.9673 10.151 13.848 9.71506 13.6196C9.68778 13.603 9.65931 13.5884 9.62989 13.576C9.06841 13.2647 8.56881 12.853 8.15592 12.3613C8.13112 12.3279 8.10322 12.2969 8.07259 12.2687C7.56261 11.646 7.12756 10.9654 6.77639 10.2411C5.48557 7.43792 4.81269 4.38991 4.80339 1.30381H17.4515C17.4426 4.38806 16.771 7.43438 15.4822 10.2365C15.131 10.9607 14.6959 11.6413 14.186 12.2641C14.1551 12.2937 14.1272 12.3262 14.1027 12.3613C13.6887 12.8533 13.1878 13.2651 12.625 13.576V13.577ZM19.019 9.29766C18.3332 10.4175 17.314 11.2946 16.1044 11.8058C16.2933 11.4972 16.4747 11.1685 16.6488 10.8198C17.8164 8.33443 18.5037 5.6508 18.6746 2.91017H20.9374C20.8848 5.17295 20.222 7.37951 19.019 9.29674V9.29766Z" fill="#407EF8"/>
</g>
<defs>
<clipPath id="clip0_804_59702">
<rect width="22.2548" height="22.2539" fill="white"/>
</clipPath>
</defs>
</svg>
