<svg width="32" height="25" viewBox="0 0 32 25" fill="none" xmlns="http://www.w3.org/2000/svg">
<g clip-path="url(#clip0_790_2924)">
<path d="M23.5854 16.7722C23.021 15.5288 21.004 13.8027 19.0566 12.1347C17.9697 11.2053 16.942 10.3267 16.2871 9.63403C16.2068 9.54898 16.1052 9.48987 15.9943 9.46361C15.8835 9.43735 15.7678 9.44502 15.6609 9.48575C15.2576 9.64048 15.0085 9.76206 14.8117 9.85417C14.5624 9.99127 14.2884 10.0707 14.0079 10.0872C13.9205 10.0967 13.8363 10.1263 13.761 10.1741C13.6858 10.2218 13.6214 10.2865 13.5724 10.3635C12.7259 11.7018 11.8488 11.5885 11.2636 11.3767C11.0763 11.3113 11.0432 11.2256 11.0249 11.1446C10.8995 10.5919 11.5301 9.29417 12.3479 8.4293C14.2935 6.36983 15.2968 5.85036 17.4166 6.85615C19.8213 7.99364 22.2302 8.88246 22.2546 8.89259C22.329 8.91992 22.4077 8.93151 22.4863 8.92668C22.5648 8.92184 22.6417 8.90069 22.7126 8.86443C22.7834 8.82817 22.8468 8.7775 22.8991 8.71532C22.9515 8.65315 22.9917 8.58069 23.0176 8.50207C23.0434 8.42345 23.0544 8.34021 23.0498 8.25712C23.0452 8.17402 23.0252 8.09269 22.9909 8.01777C22.9566 7.94285 22.9087 7.8758 22.8499 7.82046C22.7912 7.76511 22.7226 7.72256 22.6483 7.69523C22.6239 7.68602 20.2628 6.81378 17.9061 5.69839C15.1601 4.40063 13.6543 5.25536 11.5022 7.5322C10.6835 8.39799 9.57049 10.1507 9.8579 11.4365C9.91859 11.706 10.0458 11.9535 10.2265 12.154C10.4072 12.3545 10.6349 12.5007 10.8865 12.5777C11.5224 12.8141 12.2151 12.8167 12.8526 12.5852C13.4901 12.3537 14.0352 11.9017 14.3998 11.3021C14.7127 11.2521 15.0163 11.1505 15.2994 11.0009C15.4118 10.9475 15.5433 10.8857 15.7183 10.8111C16.4029 11.4909 17.3278 12.2848 18.3015 13.1138C20.0616 14.6197 22.0578 16.3264 22.5072 17.3147C22.5908 17.469 22.6191 17.65 22.5872 17.8246C22.5552 17.9992 22.465 18.1559 22.333 18.2661C22.2394 18.3679 22.1186 18.4371 21.9868 18.4644C21.855 18.4918 21.7184 18.4759 21.5953 18.419C21.501 18.35 21.39 18.3111 21.2754 18.3069C21.1608 18.3027 21.0474 18.3335 20.9489 18.3955C20.8503 18.4575 20.7707 18.5482 20.7195 18.6567C20.6682 18.7652 20.6476 18.887 20.66 19.0076C20.6601 19.1614 20.6163 19.3117 20.5345 19.4389C20.4526 19.5661 20.3364 19.6642 20.201 19.7205C20.0616 19.812 19.9016 19.8625 19.7376 19.8665C19.5736 19.8705 19.4115 19.8281 19.2682 19.7435C19.1865 19.6624 19.0848 19.6073 18.9749 19.5844C18.8649 19.5614 18.7511 19.5716 18.6463 19.6137C18.5416 19.6559 18.4501 19.7283 18.3824 19.8227C18.3146 19.9171 18.2733 20.0298 18.2632 20.1478C18.2383 20.3615 18.1597 20.5643 18.0354 20.7349C17.9112 20.9055 17.7459 21.0377 17.5569 21.1177C17.4445 21.1721 17.3195 21.1905 17.1973 21.1706C17.0752 21.1506 16.9613 21.0931 16.8697 21.0053C16.7965 20.936 16.7086 20.8863 16.6133 20.8607C16.5181 20.835 16.4184 20.8341 16.3228 20.8579C16.227 20.8826 16.1384 20.9319 16.0651 21.0015C15.9917 21.071 15.9357 21.1587 15.9021 21.2568C15.8795 21.3203 15.8281 21.4723 15.2672 21.4723C14.7466 21.4155 14.245 21.234 13.8006 20.9418C13.3799 20.6489 10.7445 18.5701 8.4679 16.5539C8.14827 16.2693 7.59698 15.6586 7.10665 15.1189C6.67119 14.6399 6.27666 14.2061 6.07286 14.0238C5.95085 13.9222 5.79633 13.8747 5.64184 13.8912C5.48736 13.9078 5.34498 13.9871 5.24471 14.1125C5.14444 14.2379 5.09411 14.3995 5.10433 14.5634C5.11454 14.7272 5.18451 14.8805 5.29948 14.9909C5.48499 15.1567 5.84468 15.5582 6.24095 15.9948C6.77483 16.5852 7.32699 17.1922 7.698 17.5247C9.92757 19.4994 12.6074 21.6307 13.1413 22.001C13.7817 22.4281 14.512 22.6812 15.2672 22.7378C15.7534 22.7713 16.2351 22.6215 16.6267 22.315C17.066 22.4918 17.5522 22.4866 17.988 22.3003C18.5317 22.0722 18.9759 21.6386 19.2343 21.0836C19.7455 21.188 20.275 21.1072 20.7375 20.8543C21.1877 20.628 21.5435 20.2346 21.7373 19.749C22.2414 19.7692 22.7334 19.5827 23.1108 19.2286C23.4409 18.9363 23.6675 18.5342 23.7537 18.0881C23.8399 17.6419 23.7806 17.1781 23.5854 16.7722Z" fill="#407EF8"/>
<path d="M12.8675 6.2793H7.47913C7.32033 6.2793 7.16804 6.34602 7.05575 6.46477C6.94346 6.58352 6.88037 6.74458 6.88037 6.91252C6.88037 7.08046 6.94346 7.24153 7.05575 7.36028C7.16804 7.47904 7.32033 7.54574 7.47913 7.54574H12.8675C13.0263 7.54574 13.1786 7.47904 13.2909 7.36028C13.4032 7.24153 13.4663 7.08046 13.4663 6.91252C13.4663 6.74458 13.4032 6.58352 13.2909 6.46477C13.1786 6.34602 13.0263 6.2793 12.8675 6.2793Z" fill="#407EF8"/>
<path d="M25.3389 15.424C25.2951 15.3548 25.2389 15.2955 25.1734 15.2494C25.1079 15.2033 25.0344 15.1714 24.9572 15.1554C24.88 15.1394 24.8006 15.1396 24.7235 15.1562C24.6464 15.1727 24.5732 15.2052 24.508 15.2517L22.7574 16.4952C22.6327 16.5919 22.5483 16.7359 22.5216 16.897C22.495 17.0581 22.5283 17.2239 22.6146 17.3596C22.7009 17.4953 22.8334 17.5905 22.9846 17.6253C23.1357 17.66 23.2936 17.6316 23.4254 17.5461L25.176 16.3026C25.3076 16.2089 25.3987 16.0637 25.4293 15.8989C25.4598 15.7342 25.4273 15.5634 25.3389 15.424Z" fill="#407EF8"/>
<path d="M21.622 18.4444C21.1935 18.087 19.2757 16.0119 18.0904 14.7049C18.0369 14.641 17.9718 14.5892 17.8989 14.5526C17.8261 14.516 17.747 14.4953 17.6664 14.4918C17.5858 14.4882 17.5054 14.502 17.4299 14.5321C17.3544 14.5623 17.2855 14.6082 17.2272 14.6672C17.169 14.7262 17.1226 14.7971 17.0908 14.8755C17.0591 14.9539 17.0426 15.0383 17.0425 15.1237C17.0423 15.209 17.0585 15.2935 17.0899 15.372C17.1214 15.4506 17.1675 15.5216 17.2256 15.5808C17.533 15.9198 20.2477 18.9123 20.8791 19.4391C20.9845 19.527 21.1149 19.5747 21.2492 19.5745C21.34 19.5738 21.4295 19.5518 21.5111 19.5099C21.5928 19.4679 21.6646 19.4073 21.7213 19.3323C21.8193 19.2005 21.8639 19.0331 21.8453 18.8666C21.8267 18.7002 21.7464 18.5483 21.622 18.4444Z" fill="#407EF8"/>
<path d="M19.2304 19.714C18.5128 19.107 16.7109 17.0826 16.3041 16.6138C16.1959 16.493 16.0471 16.4221 15.8899 16.4164C15.7327 16.4107 15.5796 16.4705 15.4638 16.5831C15.3479 16.6957 15.2786 16.852 15.2708 17.0181C15.2629 17.1843 15.3172 17.3471 15.4219 17.4713C15.4437 17.4952 17.594 19.9507 18.4823 20.7032C18.6069 20.8017 18.7628 20.8451 18.917 20.8243C19.0713 20.8034 19.2119 20.72 19.309 20.5915C19.4062 20.4631 19.4523 20.2997 19.4376 20.136C19.4229 19.9722 19.3486 19.8209 19.2304 19.714Z" fill="#407EF8"/>
<path d="M16.8467 20.9892C15.9932 20.2285 14.2461 18.2611 13.9047 17.8752C13.795 17.7581 13.6465 17.6908 13.4906 17.6876C13.3348 17.6844 13.1839 17.7456 13.07 17.8582C12.9561 17.9707 12.8882 18.1257 12.8806 18.2904C12.873 18.455 12.9264 18.6163 13.0294 18.74C13.5206 19.2926 15.1919 21.1707 16.0777 21.9582C16.1992 22.0665 16.3564 22.1194 16.5147 22.1051C16.6731 22.0909 16.8196 22.0107 16.922 21.8822C17.0245 21.7537 17.0745 21.5874 17.061 21.42C17.0475 21.2525 16.9717 21.0976 16.8502 20.9892H16.8467Z" fill="#407EF8"/>
<path d="M7.89096 5.18574C6.86501 4.15785 2.76122 3.82442 1.52799 3.74337C1.4461 3.73807 1.36405 3.75062 1.28695 3.78027C1.20984 3.80992 1.13933 3.85602 1.07978 3.91571C1.02024 3.9754 0.972936 4.0474 0.940818 4.12724C0.908701 4.20708 0.892453 4.29306 0.893084 4.37982V15.7769C0.893084 15.9448 0.956094 16.1058 1.06828 16.2247C1.18046 16.3435 1.33264 16.4103 1.49141 16.4106H5.08397C5.21019 16.4105 5.33317 16.3683 5.43532 16.2899C5.53747 16.2115 5.61355 16.1009 5.65269 15.974C5.73978 15.6903 7.803 8.99336 8.07472 5.7006C8.08292 5.60567 8.07064 5.51001 8.03881 5.42083C8.00698 5.33164 7.95643 5.25126 7.89096 5.18574ZM4.64677 15.1441H2.0906V5.05771C3.70639 5.13217 5.30556 5.43417 6.84585 5.95573C6.32059 9.06999 5.58569 12.1406 4.64677 15.1441Z" fill="#407EF8"/>
<path d="M29.0342 5.01228C26.5019 4.91782 23.9778 5.36906 21.6156 6.33859C21.5389 6.3765 21.4707 6.43127 21.4156 6.49925C21.3605 6.56722 21.3197 6.64684 21.296 6.7328C21.2724 6.81859 21.2661 6.90868 21.2775 6.99721C21.2889 7.08574 21.3177 7.17075 21.3622 7.24674C22.1025 8.50674 24.4191 15.5049 24.865 17.2116C24.9006 17.3445 24.9762 17.4614 25.0805 17.5446C25.1848 17.6277 25.3119 17.6725 25.4424 17.6721H29.035C29.1936 17.6719 29.3457 17.6051 29.4578 17.4865C29.57 17.3679 29.6331 17.2071 29.6333 17.0394V5.64504C29.6333 5.56187 29.6178 5.47951 29.5877 5.40268C29.5576 5.32585 29.5134 5.25605 29.4578 5.19728C29.4021 5.13851 29.3361 5.09192 29.2634 5.06018C29.1907 5.02843 29.1128 5.01216 29.0342 5.01228ZM28.4358 16.4103H25.8901C25.3223 14.4549 23.6457 9.35688 22.7112 7.24951C24.5637 6.6288 26.4935 6.30438 28.4367 6.28701L28.4358 16.4103Z" fill="#407EF8"/>
</g>
<defs>
<clipPath id="clip0_790_2924">
<rect width="31.6804" height="24" fill="white" transform="translate(0.233887 0.488281)"/>
</clipPath>
</defs>
</svg>
