<svg width="25" height="25" viewBox="0 0 25 25" fill="none" xmlns="http://www.w3.org/2000/svg">
<path fill-rule="evenodd" clip-rule="evenodd" d="M4.27051 11.8867C4.27051 7.88265 7.51644 4.63672 11.5205 4.63672C15.5246 4.63672 18.7705 7.88265 18.7705 11.8867C18.7705 15.8908 15.5246 19.1367 11.5205 19.1367C7.51644 19.1367 4.27051 15.8908 4.27051 11.8867ZM11.5205 3.13672C6.68802 3.13672 2.77051 7.05423 2.77051 11.8867C2.77051 16.7192 6.68802 20.6367 11.5205 20.6367C13.6667 20.6367 15.6325 19.864 17.1547 18.5816L19.9902 21.417C20.2831 21.7099 20.7579 21.7099 21.0508 21.417C21.3437 21.1242 21.3437 20.6493 21.0508 20.3564L18.2154 17.5209C19.4978 15.9987 20.2705 14.0329 20.2705 11.8867C20.2705 7.05423 16.353 3.13672 11.5205 3.13672Z" fill="#407EF8"/>
</svg>
