<svg width="25" height="25" viewBox="0 0 25 25" fill="none" xmlns="http://www.w3.org/2000/svg">
<path fill-rule="evenodd" clip-rule="evenodd" d="M3.90906 11.9375C3.90906 7.93344 7.15499 4.6875 11.1591 4.6875C15.1631 4.6875 18.4091 7.93344 18.4091 11.9375C18.4091 15.9416 15.1631 19.1875 11.1591 19.1875C7.15499 19.1875 3.90906 15.9416 3.90906 11.9375ZM11.1591 3.1875C6.32657 3.1875 2.40906 7.10501 2.40906 11.9375C2.40906 16.77 6.32657 20.6875 11.1591 20.6875C13.3053 20.6875 15.271 19.9148 16.7933 18.6324L19.6287 21.4678C19.9216 21.7607 20.3965 21.7607 20.6894 21.4678C20.9823 21.1749 20.9823 20.7001 20.6894 20.4072L17.8539 17.5717C19.1363 16.0495 19.9091 14.0837 19.9091 11.9375C19.9091 7.10501 15.9915 3.1875 11.1591 3.1875Z" fill="#8C8C8C"/>
</svg>
