<svg id="SvgjsSvg1027" width="288" height="288" xmlns="http://www.w3.org/2000/svg" version="1.1" xmlns:xlink="http://www.w3.org/1999/xlink" xmlns:svgjs="http://svgjs.com/svgjs"><defs id="SvgjsDefs1028"></defs><g id="SvgjsG1029"><svg xmlns="http://www.w3.org/2000/svg" viewBox="0 0 64 64" width="288" height="288"><path d="M61,7H3a3,3,0,0,0-3,3V44a3,3,0,0,0,3,3h.5v2a3,3,0,0,0,3,3H7v2a3,3,0,0,0,3,3H54a3,3,0,0,0,3-3V52h.5a3,3,0,0,0,3-3V47H61a3,3,0,0,0,3-3V10A3,3,0,0,0,61,7ZM55,54a1,1,0,0,1-1,1H10a1,1,0,0,1-1-1V52H55Zm3.5-5a1,1,0,0,1-1,1H6.5a1,1,0,0,1-1-1V47h53ZM62,44a1,1,0,0,1-1,1H3a1,1,0,0,1-1-1V10A1,1,0,0,1,3,9H61a1,1,0,0,1,1,1Z" fill="#407df8" class="color000 svgShape"></path><path d="M56,21a6,6,0,0,1-6-6,1,1,0,0,0-1-1H15a1,1,0,0,0-1,1,6,6,0,0,1-6,6,1,1,0,0,0-1,1V32a1,1,0,0,0,1,1,6,6,0,0,1,6,6,1,1,0,0,0,1,1H49a1,1,0,0,0,1-1,6,6,0,0,1,6-6,1,1,0,0,0,1-1V22A1,1,0,0,0,56,21ZM55,31.06A8,8,0,0,0,48.06,38H15.94A8,8,0,0,0,9,31.06V22.94A8,8,0,0,0,15.94,16H48.06A8,8,0,0,0,55,22.94Z" fill="#407df8" class="color000 svgShape"></path><path d="M32,18a9,9,0,1,0,9,9A9,9,0,0,0,32,18Zm0,16a7,7,0,1,1,7-7A7,7,0,0,1,32,34Z" fill="#407df8" class="color000 svgShape"></path></svg></g></svg>