<svg width="64" height="64" viewBox="0 0 64 64" fill="none" xmlns="http://www.w3.org/2000/svg">
<rect width="64" height="64" rx="32" fill="#CDDBFC" fill-opacity="0.5"/>
<g clip-path="url(#clip0_1026_59655)">
<path d="M36.2955 26.448V24.5191L38.7827 19.579C38.8478 19.449 38.8785 19.3047 38.8718 19.1597C38.865 19.0147 38.8212 18.8738 38.7443 18.7503C38.6674 18.6268 38.5601 18.5248 38.4325 18.454C38.3048 18.3832 38.1611 18.3459 38.0149 18.3457H34.5783C34.4654 18.3456 34.3536 18.3676 34.2493 18.4105C34.1451 18.4533 34.0503 18.5161 33.9704 18.5953L32.8599 19.6982L31.7483 18.5953C31.6684 18.5161 31.5736 18.4533 31.4694 18.4105C31.3651 18.3676 31.2533 18.3456 31.1404 18.3457H25.9843C25.8378 18.3457 25.6938 18.3828 25.5659 18.4536C25.438 18.5243 25.3304 18.6264 25.2533 18.7501C25.1763 18.8738 25.1324 19.0149 25.1257 19.1602C25.1191 19.3055 25.1499 19.4501 25.2154 19.5802L27.7026 24.5203V26.4491C23.8798 29.2414 20.8281 34.8645 20.8281 39.235C20.8281 45.6535 26.5076 45.6535 31.9985 45.6535C37.4894 45.6535 43.1688 45.6535 43.1688 39.235C43.1699 34.8622 40.1229 29.238 36.2955 26.448ZM29.421 25.1727H34.5771V26.0259H29.421V25.1727ZM30.784 20.0476L32.251 21.5045C32.3308 21.5838 32.4255 21.6467 32.5298 21.6896C32.6341 21.7326 32.7459 21.7547 32.8588 21.7547C32.9717 21.7547 33.0835 21.7326 33.1878 21.6896C33.2921 21.6467 33.3868 21.5838 33.4666 21.5045L34.9336 20.0476H36.6245L34.9107 23.4605H29.0988L27.385 20.0476H30.784ZM31.9996 43.9414C25.2828 43.9414 22.5476 43.5148 22.5476 39.2293C22.5476 35.7767 25.0611 30.3941 28.8314 27.7278H35.1678C38.9381 30.3941 41.4516 35.7767 41.4516 39.2293C41.4516 43.5193 38.7164 43.9459 31.9996 43.9459V43.9414Z" fill="#407EF8"/>
</g>
<defs>
<clipPath id="clip0_1026_59655">
<rect width="22.3418" height="27.3067" fill="white" transform="translate(20.8291 18.3457)"/>
</clipPath>
</defs>
</svg>
