<svg width="64" height="64" viewBox="0 0 64 64" fill="none" xmlns="http://www.w3.org/2000/svg">
<rect width="64" height="64" rx="32" fill="#CDDBFC" fill-opacity="0.5"/>
<g clip-path="url(#clip0_1026_59756)">
<path d="M44.8532 20.3181H41.3495C41.3624 19.9303 41.3688 19.5399 41.3688 19.1468C41.3688 18.9359 41.2851 18.7336 41.1359 18.5845C40.9868 18.4353 40.7845 18.3516 40.5736 18.3516H23.4314C23.2205 18.3516 23.0182 18.4353 22.869 18.5845C22.7199 18.7336 22.6361 18.9359 22.6361 19.1468C22.6361 19.5391 22.6426 19.9296 22.6554 20.3181H19.1416C18.9306 20.3181 18.7284 20.4019 18.5792 20.551C18.4301 20.7002 18.3463 20.9024 18.3463 21.1134C18.2832 24.4766 19.1998 27.7856 20.9843 30.6371C21.6417 31.7743 22.5583 32.7402 23.6594 33.4564C24.7606 34.1726 26.0152 34.6188 27.3213 34.7587C27.8289 35.3214 28.4119 35.8112 29.0538 36.214V39.77H27.7155C26.9354 39.7709 26.1875 40.0812 25.6359 40.6328C25.0843 41.1844 24.774 41.9323 24.7731 42.7124V44.0541H24.7163C24.5042 44.0541 24.3007 44.1384 24.1507 44.2883C24.0007 44.4383 23.9165 44.6418 23.9165 44.8539C23.9165 45.066 24.0007 45.2694 24.1507 45.4194C24.3007 45.5694 24.5042 45.6537 24.7163 45.6537H39.2841C39.4963 45.6537 39.6997 45.5694 39.8497 45.4194C39.9997 45.2694 40.0839 45.066 40.0839 44.8539C40.0839 44.6418 39.9997 44.4383 39.8497 44.2883C39.6997 44.1384 39.4963 44.0541 39.2841 44.0541H39.2273V42.7124C39.2264 41.9323 38.9161 41.1844 38.3645 40.6328C37.8129 40.0812 37.065 39.7709 36.2849 39.77H34.9421V36.214C35.584 35.8112 36.167 35.3215 36.6746 34.7587C37.9811 34.6198 39.2364 34.1744 40.3384 33.4588C41.4403 32.7432 42.3578 31.7776 43.0161 30.6405C44.8006 27.789 45.7172 24.48 45.6541 21.1168C45.6546 21.0116 45.6341 20.9073 45.594 20.8101C45.5539 20.7128 45.4949 20.6245 45.4204 20.5502C45.3459 20.4759 45.2574 20.4172 45.16 20.3773C45.0627 20.3375 44.9584 20.3174 44.8532 20.3181V20.3181ZM22.3169 29.7543C20.8408 27.401 20.0279 24.6926 19.9641 21.9154H22.7395C22.9491 25.2783 23.7924 28.5713 25.2252 31.6209C25.4388 32.0473 25.6615 32.4506 25.8932 32.8308C24.4092 32.2038 23.1586 31.128 22.3169 29.7543V29.7543ZM37.6266 42.7124V44.0552H26.3727V42.7124C26.373 42.3563 26.5145 42.015 26.7663 41.7632C27.0181 41.5114 27.3595 41.3698 27.7155 41.3695H36.2849C36.6408 41.3702 36.9819 41.5119 37.2334 41.7636C37.4849 42.0153 37.6263 42.3565 37.6266 42.7124ZM33.3425 39.77H30.6579V36.9093C31.5374 37.144 32.463 37.144 33.3425 36.9093V39.77ZM33.8378 35.0064C33.8021 35.0212 33.7675 35.0387 33.7344 35.0587C33.1995 35.3389 32.6047 35.4853 32.0008 35.4853C31.3969 35.4853 30.802 35.3389 30.2671 35.0587C30.2337 35.0383 30.1987 35.0205 30.1626 35.0053C29.4736 34.6232 28.8606 34.118 28.354 33.5147C28.3236 33.4737 28.2893 33.4357 28.2517 33.4011C27.626 32.6369 27.0921 31.8019 26.6612 30.9131C25.0773 27.4735 24.2517 23.7334 24.2403 19.9466H39.7602C39.7492 23.7311 38.9251 27.4691 37.3437 30.9074C36.9127 31.7962 36.3789 32.6312 35.7532 33.3954C35.7153 33.4317 35.681 33.4717 35.651 33.5147C35.143 34.1184 34.5284 34.6237 33.8378 35.0053V35.0064ZM41.6835 29.7555C40.842 31.1296 39.5914 32.2058 38.1072 32.8331C38.3389 32.4544 38.5616 32.0511 38.7752 31.6232C40.2079 28.5735 41.0513 25.2806 41.2609 21.9177H44.0375C43.9729 24.6942 43.1596 27.4018 41.6835 29.7543V29.7555Z" fill="#407EF8"/>
</g>
<defs>
<clipPath id="clip0_1026_59756">
<rect width="27.3078" height="27.3067" fill="white" transform="translate(18.3462 18.3457)"/>
</clipPath>
</defs>
</svg>
