<svg width="64" height="64" viewBox="0 0 64 64" fill="none" xmlns="http://www.w3.org/2000/svg">
<rect width="64" height="64" rx="32" fill="#CDDBFC" fill-opacity="0.5"/>
<path d="M43.9608 37.0727C43.1497 35.2857 40.2508 32.8051 37.4521 30.4078C35.89 29.0722 34.4131 27.8094 33.4718 26.814C33.3564 26.6917 33.2105 26.6068 33.0511 26.569C32.8917 26.5313 32.7255 26.5423 32.5719 26.6009C31.9923 26.8233 31.6344 26.998 31.3515 27.1304C30.9932 27.3274 30.5994 27.4416 30.1962 27.4652C30.0707 27.4789 29.9496 27.5215 29.8415 27.5901C29.7333 27.6587 29.6407 27.7517 29.5704 27.8624C28.3537 29.7857 27.0933 29.6229 26.2522 29.3184C25.9831 29.2245 25.9355 29.1013 25.9092 28.9849C25.729 28.1906 26.6352 26.3255 27.8105 25.0826C30.6067 22.1228 32.0487 21.3762 35.0952 22.8217C38.5511 24.4565 42.0132 25.7338 42.0482 25.7484C42.1551 25.7877 42.2682 25.8043 42.3811 25.7974C42.494 25.7904 42.6045 25.76 42.7064 25.7079C42.8082 25.6558 42.8993 25.583 42.9745 25.4936C43.0497 25.4043 43.1075 25.3001 43.1447 25.1871C43.1818 25.0742 43.1976 24.9545 43.191 24.8351C43.1844 24.7157 43.1557 24.5988 43.1064 24.4911C43.0571 24.3835 42.9883 24.2871 42.9038 24.2076C42.8193 24.128 42.7208 24.0669 42.614 24.0276C42.5789 24.0143 39.1857 22.7608 35.7986 21.1578C31.8521 19.2927 29.688 20.5211 26.5951 23.7933C25.4186 25.0376 23.8189 27.5566 24.232 29.4045C24.3192 29.7917 24.502 30.1475 24.7617 30.4356C25.0214 30.7237 25.3487 30.9339 25.7102 31.0446C26.6242 31.3842 27.6197 31.388 28.5359 31.0553C29.4521 30.7227 30.2355 30.0729 30.7594 29.2112C31.2092 29.1394 31.6455 28.9933 32.0524 28.7784C32.2139 28.7016 32.4029 28.6129 32.6545 28.5057C33.6383 29.4826 34.9675 30.6236 36.3669 31.8149C38.8965 33.9792 41.7653 36.432 42.4112 37.8524C42.5313 38.0742 42.5721 38.3343 42.5261 38.5852C42.4802 38.8362 42.3506 39.0613 42.1609 39.2198C42.0263 39.3661 41.8527 39.4655 41.6633 39.5048C41.4738 39.5441 41.2776 39.5213 41.1007 39.4395C40.9652 39.3403 40.8056 39.2844 40.6409 39.2784C40.4761 39.2724 40.3133 39.3166 40.1716 39.4057C40.03 39.4948 39.9155 39.6251 39.8419 39.7811C39.7683 39.937 39.7386 40.1121 39.7564 40.2854C39.7566 40.5065 39.6937 40.7225 39.576 40.9052C39.4584 41.088 39.2914 41.229 39.0968 41.3099C38.8965 41.4415 38.6665 41.514 38.4308 41.5198C38.1951 41.5256 37.9621 41.4646 37.7563 41.343C37.6387 41.2265 37.4926 41.1473 37.3346 41.1143C37.1766 41.0813 37.013 41.0959 36.8624 41.1565C36.7119 41.2171 36.5805 41.3211 36.4831 41.4568C36.3858 41.5926 36.3264 41.7544 36.3118 41.9241C36.2761 42.2312 36.163 42.5226 35.9845 42.7678C35.8059 43.013 35.5684 43.203 35.2967 43.318C35.1352 43.3962 34.9556 43.4226 34.78 43.3939C34.6045 43.3652 34.4408 43.2826 34.3092 43.1565C34.204 43.0568 34.0776 42.9855 33.9407 42.9486C33.8038 42.9117 33.6606 42.9103 33.5231 42.9447C33.3855 42.98 33.2582 43.0509 33.1527 43.1509C33.0473 43.2509 32.9668 43.377 32.9186 43.5178C32.886 43.6092 32.8122 43.8276 32.0061 43.8276C31.2579 43.7459 30.5371 43.4852 29.8983 43.0651C29.2937 42.6442 25.5062 39.6566 22.2343 36.759C21.775 36.35 20.9827 35.4724 20.278 34.6967C19.6522 34.0083 19.0851 33.3849 18.7923 33.1228C18.6169 32.9768 18.3948 32.9085 18.1728 32.9323C17.9508 32.9561 17.7462 33.0701 17.6021 33.2503C17.458 33.4305 17.3856 33.6628 17.4003 33.8983C17.415 34.1338 17.5155 34.354 17.6808 34.5127C17.9474 34.7509 18.4643 35.3281 19.0338 35.9555C19.8011 36.804 20.5946 37.6763 21.1279 38.1542C24.3321 40.9922 28.1835 44.0553 28.9508 44.5874C29.8711 45.2012 30.9207 45.565 32.0061 45.6463C32.7048 45.6945 33.3971 45.4792 33.96 45.0388C34.5913 45.2928 35.29 45.2853 35.9163 45.0176C36.6977 44.6898 37.3361 44.0666 37.7074 43.269C38.4421 43.4191 39.2032 43.3029 39.8678 42.9394C40.5148 42.6142 41.0262 42.0489 41.3047 41.3509C42.0292 41.3799 42.7363 41.112 43.2786 40.603C43.7531 40.1829 44.0788 39.605 44.2027 38.9639C44.3266 38.3227 44.2413 37.656 43.9608 37.0727V37.0727Z" fill="#407EF8"/>
<path d="M28.5567 21.9883H20.8127C20.5844 21.9883 20.3656 22.0842 20.2042 22.2548C20.0428 22.4255 19.9521 22.657 19.9521 22.8983C19.9521 23.1397 20.0428 23.3712 20.2042 23.5418C20.3656 23.7125 20.5844 23.8084 20.8127 23.8084H28.5567C28.785 23.8084 29.0038 23.7125 29.1652 23.5418C29.3266 23.3712 29.4173 23.1397 29.4173 22.8983C29.4173 22.657 29.3266 22.4255 29.1652 22.2548C29.0038 22.0842 28.785 21.9883 28.5567 21.9883V21.9883Z" fill="#407EF8"/>
<path d="M46.4796 35.1335C46.4168 35.0341 46.3359 34.9488 46.2418 34.8826C46.1477 34.8163 46.0421 34.7704 45.9312 34.7474C45.8202 34.7244 45.7061 34.7248 45.5953 34.7486C45.4845 34.7724 45.3792 34.819 45.2855 34.8859L42.7697 36.673C42.5905 36.812 42.4691 37.0189 42.4308 37.2505C42.3926 37.482 42.4404 37.7202 42.5644 37.9153C42.6884 38.1104 42.8789 38.2472 43.0961 38.2971C43.3133 38.3471 43.5403 38.3063 43.7297 38.1833L46.2456 36.3963C46.4348 36.2615 46.5657 36.0528 46.6096 35.8161C46.6535 35.5793 46.6068 35.3338 46.4796 35.1335Z" fill="#407EF8"/>
<path d="M41.1382 39.4704C40.5223 38.9568 37.7662 35.9745 36.0627 34.0962C35.9858 34.0044 35.8922 33.9299 35.7875 33.8773C35.6828 33.8247 35.5691 33.7949 35.4533 33.7898C35.3375 33.7848 35.2219 33.8045 35.1134 33.8478C35.005 33.8912 34.9059 33.9572 34.8222 34.042C34.7384 34.1268 34.6717 34.2287 34.6261 34.3414C34.5805 34.4541 34.5569 34.5754 34.5566 34.698C34.5564 34.8206 34.5796 34.942 34.6248 35.0549C34.67 35.1678 34.7363 35.2699 34.8197 35.355C35.2616 35.8422 39.163 40.1429 40.0705 40.9001C40.2221 41.0264 40.4095 41.0949 40.6024 41.0946C40.7329 41.0937 40.8615 41.0619 40.9789 41.0017C41.0962 40.9415 41.1994 40.8543 41.2809 40.7465C41.4218 40.5572 41.4859 40.3165 41.4591 40.0773C41.4323 39.838 41.3169 39.6198 41.1382 39.4704V39.4704Z" fill="#407EF8"/>
<path d="M37.7015 41.2984C36.6702 40.4261 34.0805 37.5166 33.496 36.8428C33.3404 36.6692 33.1266 36.5674 32.9006 36.5591C32.6746 36.5509 32.4547 36.637 32.2882 36.7988C32.1217 36.9606 32.0221 37.1851 32.0108 37.4239C31.9996 37.6628 32.0776 37.8967 32.228 38.0752C32.2593 38.1096 35.3497 41.6386 36.6264 42.7201C36.8054 42.8616 37.0294 42.924 37.2512 42.894C37.4729 42.8641 37.6749 42.7441 37.8145 42.5595C37.9541 42.3749 38.0204 42.1401 37.9993 41.9048C37.9782 41.6694 37.8715 41.452 37.7015 41.2984V41.2984Z" fill="#407EF8"/>
<path d="M34.2757 43.1299C33.0491 42.0365 30.5382 39.2091 30.0476 38.6545C29.8899 38.4862 29.6764 38.3895 29.4524 38.3849C29.2285 38.3804 29.0116 38.4683 28.8479 38.63C28.6843 38.7918 28.5866 39.0146 28.5757 39.2512C28.5648 39.4878 28.6416 39.7196 28.7896 39.8974C29.4956 40.6916 31.8975 43.3907 33.1705 44.5225C33.3451 44.6782 33.571 44.7541 33.7986 44.7336C34.0262 44.7131 34.2367 44.5979 34.384 44.4132C34.5312 44.2286 34.603 43.9896 34.5837 43.749C34.5643 43.5083 34.4553 43.2856 34.2807 43.1299H34.2757Z" fill="#407EF8"/>
<path d="M21.4048 20.4203C19.9304 18.9431 14.0325 18.4639 12.2601 18.3474C12.1425 18.3398 12.0245 18.3578 11.9137 18.4004C11.8029 18.443 11.7016 18.5093 11.616 18.5951C11.5304 18.6809 11.4624 18.7843 11.4163 18.8991C11.3701 19.0138 11.3468 19.1374 11.3477 19.2621V35.6416C11.3477 35.8829 11.4382 36.1144 11.5995 36.2851C11.7607 36.4559 11.9794 36.552 12.2076 36.5523H17.3707C17.5521 36.5523 17.7288 36.4916 17.8757 36.3789C18.0225 36.2662 18.1318 36.1073 18.188 35.9249C18.3132 35.5172 21.2784 25.8925 21.6689 21.1603C21.6807 21.0238 21.6631 20.8864 21.6173 20.7582C21.5716 20.63 21.4989 20.5145 21.4048 20.4203V20.4203ZM16.7424 34.7322H13.0687V20.2363C15.3909 20.3433 17.6892 20.7774 19.9028 21.5269C19.1479 26.0027 18.0918 30.4157 16.7424 34.7322V34.7322Z" fill="#407EF8"/>
<path d="M51.7908 20.1719C48.1515 20.0362 44.5241 20.6847 41.1291 22.0781C41.0189 22.1326 40.9209 22.2113 40.8417 22.309C40.7625 22.4067 40.7039 22.5211 40.6698 22.6446C40.6359 22.7679 40.6268 22.8974 40.6432 23.0246C40.6596 23.1519 40.701 23.274 40.7649 23.3833C41.8288 25.1941 45.1582 35.2516 45.7991 37.7044C45.8502 37.8954 45.9589 38.0635 46.1088 38.183C46.2586 38.3025 46.4413 38.3668 46.6289 38.3663H51.7921C52.02 38.3659 52.2386 38.27 52.3998 38.0995C52.5609 37.9291 52.6516 37.698 52.652 37.4569V21.0813C52.652 20.9618 52.6297 20.8434 52.5864 20.733C52.5431 20.6226 52.4797 20.5223 52.3997 20.4378C52.3197 20.3534 52.2247 20.2864 52.1203 20.2408C52.0158 20.1952 51.9039 20.1718 51.7908 20.1719V20.1719ZM50.9309 36.5528H47.2723C46.4562 33.7426 44.0468 26.4159 42.7037 23.3872C45.3661 22.4952 48.1395 22.0289 50.9322 22.004L50.9309 36.5528Z" fill="#407EF8"/>
</svg>
