<svg width="25" height="24" viewBox="0 0 25 24" fill="none" xmlns="http://www.w3.org/2000/svg">
<path d="M10.8318 10.8977C10.8336 10.5286 10.9558 10.1702 11.1799 9.87694C11.482 9.48816 11.8265 9.13434 12.2071 8.82204C12.5504 8.52673 12.8653 8.19975 13.1474 7.84544C13.3248 7.59654 13.4167 7.29682 13.4093 6.99126C13.4135 6.80417 13.38 6.61816 13.3107 6.44432C13.2414 6.27049 13.1378 6.11239 13.0061 5.9795C12.8743 5.84662 12.7171 5.74168 12.5439 5.67091C12.3706 5.60015 12.1849 5.56501 11.9978 5.56764C11.6243 5.56401 11.2634 5.70215 10.9877 5.95417C10.6666 6.26356 10.4325 6.65186 10.3087 7.08023L8.77686 6.41187C8.97166 5.66599 9.40206 5.00292 10.004 4.52131C10.5979 4.07475 11.3254 3.84219 12.0683 3.86146C12.6333 3.85558 13.1915 3.98519 13.6962 4.23943C14.1772 4.48098 14.5834 4.84883 14.8713 5.30358C15.1633 5.76662 15.3146 6.30441 15.307 6.85175C15.3132 7.3447 15.1805 7.82945 14.924 8.25048C14.5998 8.74589 14.207 9.19284 13.7574 9.57799C13.4141 9.86924 13.0911 10.1836 12.7907 10.519C12.6185 10.7163 12.5227 10.9689 12.521 11.2308C12.5258 11.3913 12.5497 11.5507 12.5921 11.7055H11.0262C10.904 11.4534 10.8378 11.1778 10.8318 10.8977ZM11.8761 15.8575C11.6973 15.862 11.5194 15.8301 11.3533 15.7637C11.1873 15.6972 11.0365 15.5977 10.9101 15.471C10.7816 15.3455 10.6805 15.1948 10.613 15.0283C10.5455 14.8619 10.5131 14.6832 10.5179 14.5037C10.5137 14.3228 10.5463 14.143 10.6137 13.9751C10.6811 13.8072 10.782 13.6548 10.9101 13.5271C11.0353 13.3982 11.1856 13.2966 11.3518 13.2285C11.518 13.1604 11.6965 13.1273 11.8761 13.1313C12.0567 13.1275 12.2363 13.1604 12.4038 13.2282C12.5713 13.296 12.7232 13.3972 12.8503 13.5256C12.9775 13.654 13.0771 13.8069 13.1432 13.975C13.2094 14.1432 13.2406 14.3231 13.2349 14.5037C13.2397 14.6832 13.2074 14.8618 13.14 15.0282C13.0727 15.1946 12.9717 15.3454 12.8434 15.471C12.7168 15.5976 12.5657 15.6972 12.3994 15.7636C12.2331 15.83 12.0551 15.862 11.8761 15.8575Z" fill="#407EF8"/>
<path d="M1.04922 24C0.895177 23.9999 0.74305 23.9659 0.603628 23.9004C0.422537 23.8169 0.269317 23.683 0.162279 23.5147C0.0552402 23.3465 -0.00108974 23.151 1.59707e-05 22.9515V2.54259C0.000769579 1.86849 0.268891 1.22218 0.745553 0.745521C1.22222 0.268859 1.86849 0.000753608 2.54259 0H21.5407C22.2148 0.000753608 22.8611 0.268859 23.3378 0.745521C23.8144 1.22218 24.0826 1.86849 24.0833 2.54259V17.0748C24.0824 17.7488 23.8142 18.3949 23.3375 18.8714C22.8609 19.3479 22.2147 19.616 21.5407 19.6167H7.32452C6.89858 19.6169 6.4862 19.7665 6.15929 20.0395L1.71761 23.7551C1.53037 23.9125 1.29382 23.9992 1.04922 24ZM2.54259 1.42362C2.24594 1.42399 1.96155 1.54199 1.75178 1.75176C1.54202 1.96152 1.42401 2.24594 1.42363 2.54259V22.1443L5.24603 18.9476C5.82923 18.4607 6.56475 18.1937 7.32452 18.1931H21.5407C21.8373 18.1929 22.1217 18.075 22.3315 17.8654C22.5413 17.6557 22.6593 17.3714 22.6597 17.0748V2.54259C22.6593 2.24594 22.5413 1.96152 22.3315 1.75176C22.1218 1.54199 21.8374 1.42399 21.5407 1.42362H2.54259Z" fill="#407EF8"/>
</svg>
