<svg width="18" height="22" viewBox="0 0 18 22" fill="none" xmlns="http://www.w3.org/2000/svg">
<path d="M12.0379 6.30632V4.80502L13.9738 0.959945C14.0245 0.858779 14.0484 0.746443 14.0431 0.633565C14.0379 0.520687 14.0037 0.411001 13.9439 0.314888C13.8841 0.218774 13.8005 0.139412 13.7012 0.0843098C13.6019 0.029208 13.49 0.000189402 13.3762 1.53548e-07H10.7013C10.6135 -5.9164e-05 10.5265 0.0170684 10.4453 0.0504044C10.3641 0.0837403 10.2904 0.132632 10.2282 0.194285L9.36387 1.05267L8.49861 0.194285C8.43647 0.132632 8.3627 0.0837403 8.28153 0.0504044C8.20036 0.0170684 8.11336 -5.9164e-05 8.02552 1.53548e-07H4.01227C3.89829 -3.57529e-05 3.7862 0.0288612 3.68663 0.0839474C3.58706 0.139034 3.50331 0.218481 3.44335 0.314745C3.38339 0.41101 3.34919 0.520897 3.34402 0.633974C3.33885 0.74705 3.36287 0.859563 3.41379 0.960828L5.34972 4.80591V6.3072C2.37425 8.48054 -0.000976562 12.8573 -0.000976562 16.259C-0.000976562 21.2548 4.41956 21.2548 8.69337 21.2548C12.9672 21.2548 17.3877 21.2548 17.3877 16.259C17.3886 12.8555 15.0169 8.47789 12.0379 6.30632ZM6.68718 5.3137H10.7004V5.9778H6.68718V5.3137ZM7.74808 1.32467L8.88989 2.45859C8.95199 2.52032 9.02575 2.5693 9.10693 2.60271C9.1881 2.63613 9.2751 2.65333 9.36297 2.65333C9.45085 2.65333 9.53786 2.63613 9.61904 2.60271C9.70021 2.5693 9.77396 2.52032 9.83606 2.45859L10.9779 1.32467H12.294L10.9601 3.98108H6.43641L5.10251 1.32467H7.74808ZM8.69425 19.9222C3.46626 19.9222 1.33737 19.5901 1.33737 16.2546C1.33737 13.5673 3.29375 9.37779 6.22832 7.30247H11.1602C14.0948 9.37779 16.0511 13.5673 16.0511 16.2546C16.0511 19.5937 13.9222 19.9257 8.69425 19.9257V19.9222Z" fill="#407EF8"/>
</svg>
