<svg width="30" height="20" viewBox="0 0 30 20" fill="none" xmlns="http://www.w3.org/2000/svg">
<path d="M23.5873 13.4486C23.0172 12.1927 20.9798 10.4492 19.0128 8.76434C17.9149 7.82563 16.8768 6.93808 16.2153 6.23846C16.1342 6.15255 16.0317 6.09284 15.9196 6.06632C15.8076 6.03979 15.6908 6.04755 15.5828 6.08868C15.1755 6.24498 14.9239 6.36779 14.7251 6.46082C14.4733 6.59931 14.1965 6.67954 13.9131 6.6962C13.8249 6.70576 13.7398 6.73571 13.6638 6.78395C13.5878 6.83218 13.5227 6.8975 13.4732 6.97529C12.6182 8.32708 11.7323 8.21265 11.1411 7.99867C10.952 7.93262 10.9186 7.84609 10.9001 7.76422C10.7734 7.20602 11.4103 5.89517 12.2364 5.02158C14.2016 2.94134 15.2151 2.41663 17.3563 3.43256C19.7852 4.58153 22.2184 5.47931 22.2431 5.48954C22.3182 5.51715 22.3977 5.52885 22.477 5.52397C22.5564 5.51909 22.6341 5.49773 22.7056 5.4611C22.7772 5.42447 22.8412 5.37329 22.8941 5.31049C22.9469 5.24769 22.9876 5.17449 23.0137 5.09508C23.0398 5.01567 23.0509 4.93159 23.0463 4.84766C23.0416 4.76372 23.0214 4.68157 22.9868 4.6059C22.9522 4.53022 22.9038 4.46249 22.8444 4.40659C22.785 4.35069 22.7158 4.30771 22.6407 4.2801C22.6161 4.2708 20.2312 3.38977 17.8507 2.26312C15.077 0.952273 13.5559 1.81563 11.3822 4.11543C10.5553 4.98995 9.43099 6.76039 9.72129 8.05914C9.78259 8.33128 9.91105 8.58136 10.0936 8.78386C10.2761 8.98636 10.5061 9.13405 10.7602 9.21184C11.4026 9.45056 12.1023 9.45323 12.7462 9.21941C13.3902 8.9856 13.9407 8.52896 14.309 7.92332C14.6251 7.87284 14.9317 7.77018 15.2177 7.61909C15.3312 7.56513 15.464 7.5028 15.6409 7.42744C16.3323 8.11403 17.2666 8.91599 18.2501 9.75329C20.028 11.2744 22.0443 12.9983 22.4982 13.9966C22.5826 14.1525 22.6112 14.3353 22.579 14.5117C22.5467 14.688 22.4556 14.8463 22.3222 14.9576C22.2276 15.0605 22.1056 15.1304 21.9725 15.158C21.8394 15.1855 21.7014 15.1695 21.5771 15.1121C21.4819 15.0423 21.3697 15.003 21.2539 14.9988C21.1382 14.9946 21.0237 15.0257 20.9241 15.0883C20.8246 15.1509 20.7442 15.2425 20.6924 15.3521C20.6407 15.4617 20.6198 15.5848 20.6323 15.7066C20.6324 15.8619 20.5883 16.0138 20.5056 16.1422C20.4229 16.2707 20.3055 16.3698 20.1687 16.4266C20.0279 16.5191 19.8663 16.5701 19.7006 16.5741C19.5349 16.5782 19.3713 16.5353 19.2265 16.4499C19.144 16.368 19.0413 16.3123 18.9302 16.2891C18.8191 16.266 18.7042 16.2763 18.5984 16.3188C18.4925 16.3614 18.4002 16.4345 18.3318 16.5299C18.2633 16.6253 18.2216 16.7391 18.2114 16.8583C18.1862 17.0742 18.1068 17.279 17.9813 17.4513C17.8558 17.6236 17.6889 17.7572 17.4979 17.838C17.3844 17.893 17.2582 17.9115 17.1348 17.8914C17.0114 17.8712 16.8963 17.8131 16.8038 17.7245C16.7299 17.6544 16.6411 17.6043 16.5449 17.5783C16.4487 17.5524 16.348 17.5515 16.2514 17.5756C16.1546 17.6005 16.0652 17.6503 15.9911 17.7205C15.9169 17.7908 15.8604 17.8794 15.8265 17.9784C15.8036 18.0426 15.7517 18.1961 15.1852 18.1961C14.6593 18.1387 14.1527 17.9555 13.7037 17.6603C13.2788 17.3644 10.6168 15.2646 8.31727 13.2281C7.99442 12.9406 7.43757 12.3238 6.94229 11.7787C6.50244 11.2949 6.10392 10.8567 5.89807 10.6725C5.77484 10.5699 5.61875 10.5219 5.46271 10.5386C5.30667 10.5553 5.16285 10.6354 5.06157 10.7621C4.96029 10.8887 4.90945 11.052 4.91977 11.2175C4.93009 11.383 5.00076 11.5378 5.11689 11.6493C5.30427 11.8168 5.66759 12.2224 6.06786 12.6634C6.60712 13.2597 7.16485 13.8728 7.53961 14.2087C9.79166 16.2034 12.4985 18.3562 13.0378 18.7302C13.6847 19.1616 14.4223 19.4172 15.1852 19.4744C15.6762 19.5082 16.1628 19.3569 16.5584 19.0474C17.0021 19.226 17.4932 19.2206 17.9334 19.0325C18.4826 18.8021 18.9312 18.3641 19.1922 17.8035C19.7086 17.909 20.2435 17.8274 20.7106 17.5719C21.1653 17.3433 21.5248 16.946 21.7205 16.4555C22.2297 16.4758 22.7267 16.2875 23.1078 15.9298C23.4413 15.6345 23.6702 15.2284 23.7573 14.7778C23.8444 14.3271 23.7844 13.8586 23.5873 13.4486Z" fill="#407EF8"/>
<path d="M12.7614 2.84961H7.31867C7.15826 2.84961 7.00444 2.917 6.89101 3.03695C6.77759 3.1569 6.71387 3.31958 6.71387 3.48922C6.71387 3.65885 6.77759 3.82155 6.89101 3.9415C7.00444 4.06145 7.15826 4.12883 7.31867 4.12883H12.7614C12.9218 4.12883 13.0757 4.06145 13.1891 3.9415C13.3025 3.82155 13.3662 3.65885 13.3662 3.48922C13.3662 3.31958 13.3025 3.1569 13.1891 3.03695C13.0757 2.917 12.9218 2.84961 12.7614 2.84961Z" fill="#407EF8"/>
<path d="M25.3586 12.087C25.3144 12.0171 25.2576 11.9572 25.1914 11.9106C25.1253 11.8641 25.0511 11.8318 24.9731 11.8156C24.8951 11.7995 24.8149 11.7997 24.737 11.8165C24.6592 11.8332 24.5852 11.866 24.5193 11.913L22.7511 13.169C22.6252 13.2667 22.5398 13.4121 22.5129 13.5748C22.4861 13.7376 22.5197 13.905 22.6069 14.0421C22.694 14.1792 22.8279 14.2754 22.9805 14.3105C23.1332 14.3456 23.2927 14.3169 23.4258 14.2305L25.1941 12.9745C25.327 12.8798 25.4191 12.7331 25.4499 12.5667C25.4807 12.4003 25.4479 12.2278 25.3586 12.087Z" fill="#407EF8"/>
<path d="M21.6042 15.1376C21.1714 14.7766 19.2343 12.6806 18.037 11.3604C17.983 11.2959 17.9172 11.2435 17.8436 11.2065C17.77 11.1695 17.6901 11.1486 17.6087 11.1451C17.5273 11.1415 17.4461 11.1554 17.3698 11.1858C17.2936 11.2163 17.224 11.2627 17.1651 11.3223C17.1063 11.3819 17.0594 11.4535 17.0274 11.5327C16.9953 11.6119 16.9787 11.6972 16.9785 11.7834C16.9784 11.8695 16.9947 11.9549 17.0264 12.0342C17.0582 12.1136 17.1048 12.1853 17.1634 12.2451C17.474 12.5875 20.216 15.6102 20.8538 16.1424C20.9603 16.2311 21.0921 16.2793 21.2277 16.2791C21.3194 16.2784 21.4098 16.2561 21.4923 16.2138C21.5747 16.1715 21.6473 16.1102 21.7045 16.0344C21.8035 15.9014 21.8486 15.7322 21.8298 15.5641C21.811 15.3959 21.7298 15.2425 21.6042 15.1376Z" fill="#407EF8"/>
<path d="M19.1883 16.4201C18.4635 15.807 16.6434 13.7622 16.2325 13.2886C16.1232 13.1666 15.9729 13.095 15.8141 13.0892C15.6553 13.0835 15.5007 13.1439 15.3837 13.2577C15.2667 13.3714 15.1967 13.5292 15.1887 13.6971C15.1808 13.8649 15.2357 14.0293 15.3414 14.1548C15.3634 14.179 17.5354 16.6592 18.4327 17.4193C18.5585 17.5188 18.716 17.5627 18.8718 17.5416C19.0276 17.5206 19.1696 17.4362 19.2677 17.3065C19.3659 17.1767 19.4124 17.0117 19.3976 16.8463C19.3828 16.6809 19.3078 16.5281 19.1883 16.4201Z" fill="#407EF8"/>
<path d="M16.7807 17.7081C15.9186 16.9396 14.1539 14.9524 13.8091 14.5626C13.6983 14.4443 13.5482 14.3764 13.3908 14.3732C13.2334 14.37 13.081 14.4317 12.966 14.5454C12.8509 14.6591 12.7823 14.8157 12.7746 14.982C12.767 15.1483 12.8209 15.3112 12.925 15.4362C13.4211 15.9944 15.1093 17.8914 16.004 18.6868C16.1267 18.7962 16.2855 18.8496 16.4454 18.8352C16.6054 18.8208 16.7534 18.7398 16.8568 18.61C16.9603 18.4803 17.0108 18.3123 16.9972 18.1432C16.9836 17.974 16.907 17.8175 16.7843 17.7081H16.7807Z" fill="#407EF8"/>
<path d="M7.7345 1.74522C6.6982 0.706961 2.55301 0.370176 1.30734 0.288306C1.22463 0.282946 1.14175 0.295631 1.06387 0.325577C0.985986 0.355524 0.914759 0.402092 0.854614 0.462383C0.794468 0.522674 0.746691 0.595399 0.714249 0.676045C0.681808 0.756691 0.665396 0.843536 0.666034 0.931173V12.4432C0.666033 12.6128 0.729679 12.7755 0.842993 12.8955C0.956307 13.0155 1.11003 13.083 1.27039 13.0833H4.89919C5.02669 13.0833 5.15091 13.0406 5.25409 12.9614C5.35727 12.8822 5.43412 12.7705 5.47364 12.6423C5.56162 12.3558 7.64565 5.59125 7.92012 2.26528C7.9284 2.16939 7.91599 2.07277 7.88384 1.98268C7.85169 1.8926 7.80062 1.81141 7.7345 1.74522ZM4.45758 11.8041H1.87563V1.6159C3.50771 1.69111 5.12302 1.99616 6.67885 2.52298C6.14829 5.66865 5.40597 8.77024 4.45758 11.8041Z" fill="#407EF8"/>
<path d="M29.091 1.57002C26.5331 1.4746 23.9837 1.9304 21.5976 2.90971C21.5201 2.948 21.4513 3.00333 21.3956 3.07199C21.3399 3.14065 21.2987 3.22107 21.2747 3.3079C21.2509 3.39456 21.2445 3.48555 21.2561 3.57497C21.2676 3.6644 21.2967 3.75026 21.3416 3.82703C22.0894 5.09973 24.4294 12.1685 24.8798 13.8924C24.9157 14.0266 24.9921 14.1447 25.0974 14.2287C25.2027 14.3127 25.3311 14.3579 25.463 14.3576H29.0918C29.252 14.3573 29.4056 14.2899 29.5189 14.1701C29.6322 14.0503 29.696 13.8878 29.6962 13.7184V2.20916C29.6962 2.12515 29.6805 2.04197 29.6501 1.96436C29.6197 1.88676 29.5751 1.81625 29.5189 1.75689C29.4627 1.69753 29.3959 1.65047 29.3225 1.6184C29.2491 1.58634 29.1704 1.5699 29.091 1.57002ZM28.4866 13.083H25.9152C25.3416 11.1079 23.6482 5.95844 22.7043 3.82982C24.5754 3.20285 26.5247 2.87515 28.4875 2.85761L28.4866 13.083Z" fill="#407EF8"/>
</svg>
