<svg width="113" height="38" viewBox="0 0 113 38" fill="none" xmlns="http://www.w3.org/2000/svg">
<path fill-rule="evenodd" clip-rule="evenodd" d="M30.3511 27.1837L26.0161 35.6094L17.5932 19.2372L9.16997 35.6094H0.500488L17.5932 2.38546L26.0161 18.7576L34.439 2.38546L38.7736 10.8115L34.439 19.2372L30.6463 11.865L26.558 19.8111L30.3511 27.1837Z" fill="#5E6061"/>
<path fill-rule="evenodd" clip-rule="evenodd" d="M51.5314 35.6094H42.8618L38.7739 27.6629L43.1085 19.2372L51.5314 35.6094Z" fill="#5E6061"/>
<path fill-rule="evenodd" clip-rule="evenodd" d="M26.0161 35.6094H34.6861L47.4439 10.8115L43.109 2.38588L26.0161 35.6094Z" fill="#D6232E"/>
<path fill-rule="evenodd" clip-rule="evenodd" d="M50.2004 4.24051L51.4579 2.38699H52.1186V5.75977H51.3314V3.78394L50.2616 5.379H50.0418L48.9586 3.76215V5.75977H48.2476V2.38699H48.9127L50.2004 4.24051ZM53.9987 4.03275L52.5445 2.38699H53.6702L54.5328 3.41533L55.3525 2.38699H56.358L55.0419 3.94352L56.6566 5.75977H55.5089L54.516 4.57896L53.6004 5.75977H52.5788L53.9987 4.03275Z" fill="#464648"/>
<path d="M66.572 6.57846V12.0469H65.2238V6.57846H63.5132V5.26947H68.2826V6.57846H66.572ZM73.017 5.26947H74.3648V12.0469H73.017V9.38073H70.6155V12.0469H69.2673V5.26947H70.6155V8.10064H73.017V5.26947ZM80.2051 5.26947V6.61741H77.1986V8.01352H79.9032V9.30324H77.1986V10.709H80.3003V12.0469H75.8511V5.26947H80.2051Z" fill="#464648"/>
<path d="M68.922 18.082L67.289 21.7857H66.4854L64.8614 18.082V22.3483H63.5132V15.5709H65.3362L66.8915 19.2943L68.4554 15.5709H70.2695V22.3483H68.922V18.082ZM76.0583 22.3483L75.4969 20.8843H72.9655L72.4037 22.3483H70.9693L73.5784 15.5709H74.8833L77.4927 22.3483H76.0583ZM74.2353 17.5878L73.475 19.5561H74.987L74.2353 17.5878ZM80.3085 16.8799V22.3483H78.9611V16.8799H77.2505V15.5709H82.0195V16.8799H80.3085ZM85.7778 21.0104C86.44 21.0104 86.9812 20.7159 87.4019 20.1278L88.2659 21.1264C87.5807 21.9927 86.7726 22.4258 85.8424 22.4258C84.9119 22.4258 84.1463 22.0961 83.5443 21.4368C82.9422 20.7775 82.6414 19.9456 82.6414 18.9403C82.6414 17.935 82.9482 17.0964 83.5614 16.4246C84.1751 15.7519 84.9253 15.4159 85.8125 15.4159C86.8028 15.4159 87.6325 15.839 88.3007 16.6859L87.4623 17.7524C87.0364 17.158 86.5064 16.8606 85.8726 16.8606C85.3658 16.8606 84.9324 17.0466 84.5722 17.4181C84.2124 17.7897 84.0325 18.2906 84.0325 18.9206C84.0325 19.551 84.2023 20.0566 84.542 20.4382C84.882 20.8198 85.2937 21.0104 85.7778 21.0104ZM93.0779 15.5709H94.4261V22.3483H93.0779V19.6821H90.6764V22.3483H89.3286V15.5709H90.6764V18.4021H93.0779V15.5709Z" fill="#464648"/>
<path d="M67.8676 25.8736V27.2216H64.8614V28.6177H67.5652V29.907H64.8614V31.3127H67.9628V32.651H63.5132V25.8736H67.8676ZM72.5594 25.8736H74.183L72.3 29.1408L74.3387 32.651H72.6975L71.4101 30.4205L70.1314 32.651H68.507L70.5375 29.1802L68.6451 25.8736H70.2613L71.4101 27.8805L72.5594 25.8736ZM77.9417 31.3127C78.6039 31.3127 79.1451 31.0187 79.5658 30.4306L80.4298 31.4292C79.7446 32.2954 78.9368 32.7285 78.0067 32.7285C77.0761 32.7285 76.3102 32.3984 75.7078 31.7395C75.1061 31.0802 74.8053 30.2475 74.8053 29.2426C74.8053 28.2378 75.1121 27.3992 75.7253 26.7269C76.339 26.0546 77.0888 25.7186 77.9761 25.7186C78.9667 25.7186 79.7961 26.1417 80.4642 26.9887L79.6262 28.0551C79.2 27.4607 78.6703 27.1633 78.0365 27.1633C77.5297 27.1633 77.0963 27.3489 76.7361 27.7204C76.3763 28.0924 76.1964 28.5934 76.1964 29.2234C76.1964 29.8538 76.3662 30.3594 76.7063 30.7405C77.0459 31.1221 77.458 31.3127 77.9417 31.3127ZM85.2418 25.8736H86.59V32.651H85.2418V29.984H82.8403V32.651H81.4925V25.8736H82.8403V28.7048H85.2418V25.8736ZM92.3781 32.651L91.8171 31.1871H89.2853L88.7239 32.651H87.2899L89.899 25.8736H91.2035L93.8125 32.651H92.3781ZM90.5559 27.8901L89.7952 29.8584H91.3072L90.5559 27.8901ZM98.7373 25.8736H100.085V32.651H98.7373L95.8606 28.4041V32.651H94.5124V25.8736H95.7736L98.7373 30.2366V25.8736ZM105.494 29.1991H106.85V31.6038C106.251 32.3536 105.422 32.7285 104.362 32.7285C103.475 32.7285 102.73 32.3984 102.128 31.7395C101.527 31.0802 101.225 30.2475 101.225 29.2426C101.225 28.2378 101.532 27.3992 102.145 26.7269C102.759 26.0546 103.499 25.7186 104.366 25.7186C105.233 25.7186 105.986 26.0387 106.625 26.6783L105.925 27.8126C105.655 27.5479 105.405 27.3652 105.178 27.2647C104.951 27.1646 104.704 27.1148 104.439 27.1148C103.927 27.1148 103.495 27.3104 103.144 27.7012C102.792 28.0924 102.616 28.6076 102.616 29.2477C102.616 29.8877 102.785 30.4 103.122 30.7845C103.459 31.169 103.861 31.3617 104.327 31.3617C104.794 31.3617 105.183 31.2608 105.494 31.0606V29.1991ZM112.405 25.8736V27.2216H109.399V28.6177H112.103V29.907H109.399V31.3127H112.5V32.651H108.051V25.8736H112.405Z" fill="#464648"/>
<path d="M57.7021 0.947956V37.0508H57.3423V0.947956H57.7021Z" fill="#464648"/>
</svg>
