<svg xmlns="http://www.w3.org/2000/svg" xmlns:xlink="http://www.w3.org/1999/xlink" width="212.671" height="288.768" viewBox="0 0 212.671 288.768">
  <defs>
    <filter id="Path_29655" x="50.516" y="191.952" width="154.069" height="96.816" filterUnits="userSpaceOnUse">
      <feOffset dy="3" input="SourceAlpha"/>
      <feGaussianBlur stdDeviation="3" result="blur"/>
      <feFlood flood-opacity="0.161"/>
      <feComposite operator="in" in2="blur"/>
      <feComposite in="SourceGraphic"/>
    </filter>
    <clipPath id="clip-path">
      <path id="Path_29658" data-name="Path 29658" d="M473.3,493.4a67.181,67.181,0,0,0,5.724-16.134s5.93-10.516,4.459-16.844c-.839-3.619-11.593-9.749-16.348,4.707a194.66,194.66,0,0,0-5.933,21.412C461.075,487.227,471.121,497.45,473.3,493.4Z" transform="translate(-461.202 -455.987)" fill="#c12525"/>
    </clipPath>
    <clipPath id="clip-path-2">
      <path id="Path_29669" data-name="Path 29669" d="M478.872,458.012c2.042-1.793,6.42-1.31,8.425-.989-5.408,5.013-2.241,6.163-.467,7.825,1.905,1.784,2.993,1.956,4.2-.078,2.415-4.05,8.2-2.9,8.111-2.908-.652-.636,13,10.911,12.324,13.439l-4.914,38.147c.13-.505-.1,13.481-2.607,14.664a26.246,26.246,0,0,1-13.94,3.193c-13.625-.992-15.68-4.854-15.68-4.854a2.855,2.855,0,0,1-.653-2.619l.214-17.905-.1-26.417C474.1,468.312,473.4,462.821,478.872,458.012Z" transform="translate(-473.627 -456.713)" fill="none"/>
    </clipPath>
    <clipPath id="clip-path-3">
      <path id="Path_29681" data-name="Path 29681" d="M532.671,508.966c-.585-5.839-2.658-18.9-2.658-18.9s-1.878-11.018-8.282-10.242c-5.329.643-5.431,7.346-4.865,12.017.442,3.674,2.365,15.782,3.091,20.741C520.146,513.223,533.2,514.281,532.671,508.966Z" transform="translate(-516.636 -479.78)" fill="#f95f5f"/>
    </clipPath>
    <filter id="Path_29799" x="0" y="241.125" width="86.301" height="47.434" filterUnits="userSpaceOnUse">
      <feOffset dy="3" input="SourceAlpha"/>
      <feGaussianBlur stdDeviation="3" result="blur-2"/>
      <feFlood flood-opacity="0.161"/>
      <feComposite operator="in" in2="blur-2"/>
      <feComposite in="SourceGraphic"/>
    </filter>
    <clipPath id="clip-path-4">
      <path id="Path_29744" data-name="Path 29744" d="M270.757,529.3c3.443,2.687,1.972,7.205,1.972,16.1l-.788,8.2c0,1.552-4.872,35.617-8.432,36.435a19.157,19.157,0,0,1-11.679-.39c-2.3-.759-13.615-6.006-13.615-9.254l-1.1-42.232c.18-5.241.5-11.686,1.344-14.452,1.915-6.317,7.463-5.552,7.463-5.552s9.572,1.357,14.514,5.108C262.835,525.079,265.868,525.391,270.757,529.3Z" transform="translate(-237.116 -518.123)" fill="#e83a3a"/>
    </clipPath>
    <clipPath id="clip-path-5">
      <path id="Path_29752" data-name="Path 29752" d="M284.2,535.347s-7.515-3.11-9.744,6.063c-2.2,9.046,15.952,22.181,21.412,23.961s7-13.388,3.571-14.786C297.271,549.7,289.234,537.736,284.2,535.347Z" transform="translate(-274.27 -534.839)" fill="#f95f5f"/>
    </clipPath>
    <filter id="Subtraction_14" x="23.501" y="0" width="142.049" height="72.305" filterUnits="userSpaceOnUse">
      <feOffset dy="3" input="SourceAlpha"/>
      <feGaussianBlur stdDeviation="3" result="blur-3"/>
      <feFlood flood-opacity="0.161"/>
      <feComposite operator="in" in2="blur-3"/>
      <feComposite in="SourceGraphic"/>
    </filter>
    <filter id="Intersection_1" x="110.253" y="52.094" width="39.634" height="41.131" filterUnits="userSpaceOnUse">
      <feOffset dy="3" input="SourceAlpha"/>
      <feGaussianBlur stdDeviation="3" result="blur-4"/>
      <feFlood flood-opacity="0.161"/>
      <feComposite operator="in" in2="blur-4"/>
      <feComposite in="SourceGraphic"/>
    </filter>
  </defs>
  <g id="Group_32009" data-name="Group 32009" transform="translate(-76.664 -61.205)">
    <g id="Group_31968" data-name="Group 31968" transform="translate(136.181 259.157)" opacity="0.29" style="mix-blend-mode: multiply;isolation: isolate">
      <g transform="matrix(1, 0, 0, 1, -59.52, -197.95)" filter="url(#Path_29655)">
        <path id="Path_29655-2" data-name="Path 29655" d="M418.746,646.256c26.657,15.389,26.786,40.343.3,55.733s-69.556,15.39-96.21,0-26.8-40.34-.313-55.728S392.09,630.865,418.746,646.256Z" transform="translate(-243.24 -436.76)" fill="#231f20"/>
      </g>
    </g>
    <path id="Path_29797" data-name="Path 29797" d="M437.2,502.719c4.494-.624,16.432-1.365,18.134-3.816,4.417-6.367,10.578-21.637,10.578-21.637s5.93-10.516,4.459-16.844c-.839-3.619-11.593-9.749-16.348,4.707-3.755,11.415-3.06,19.063-5.751,23.391-.839,2.259-23.326,3.5-23.326,3.5S428.276,503.958,437.2,502.719Z" transform="translate(-210.778 -310.901)" fill="#dbb39c"/>
    <g id="Group_31970" data-name="Group 31970" transform="translate(237.306 145.086)">
      <path id="Path_29657" data-name="Path 29657" d="M473.3,493.4a67.181,67.181,0,0,0,5.724-16.134s5.93-10.516,4.459-16.844c-.839-3.619-11.593-9.749-16.348,4.707a194.66,194.66,0,0,0-5.933,21.412C461.075,487.227,471.121,497.45,473.3,493.4Z" transform="translate(-461.202 -455.987)" fill="#c12525"/>
      <g id="Group_31851" data-name="Group 31851" transform="translate(0 0)" clip-path="url(#clip-path)">
        <g id="Group_31850" data-name="Group 31850" transform="translate(-36.064 -12.704)">
          <g id="Group_31848" data-name="Group 31848" transform="translate(11.834 0.551)">
            <rect id="Rectangle_11436" data-name="Rectangle 11436" width="1.66" height="54.204" transform="matrix(0.447, -0.894, 0.894, 0.447, 0, 1.485)" fill="#607758"/>
            <rect id="Rectangle_11437" data-name="Rectangle 11437" width="1.66" height="54.204" transform="matrix(0.447, -0.894, 0.894, 0.447, 0, 7.715)" fill="#607758"/>
            <rect id="Rectangle_11438" data-name="Rectangle 11438" width="1.661" height="54.204" transform="translate(0 13.946) rotate(-63.437)" fill="#607758"/>
            <rect id="Rectangle_11439" data-name="Rectangle 11439" width="1.661" height="54.204" transform="translate(0 20.177) rotate(-63.437)" fill="#607758"/>
            <rect id="Rectangle_11440" data-name="Rectangle 11440" width="1.661" height="54.204" transform="matrix(0.447, -0.894, 0.894, 0.447, 0, 26.407)" fill="#607758"/>
          </g>
          <g id="Group_31849" data-name="Group 31849" transform="translate(0)">
            <rect id="Rectangle_11441" data-name="Rectangle 11441" width="54.204" height="1.66" transform="translate(12.461 51.087) rotate(-66.558)" fill="#607758"/>
            <rect id="Rectangle_11442" data-name="Rectangle 11442" width="54.204" height="1.661" transform="translate(6.23 51.087) rotate(-66.558)" fill="#607758"/>
            <rect id="Rectangle_11443" data-name="Rectangle 11443" width="54.204" height="1.661" transform="translate(0 51.087) rotate(-66.558)" fill="#607758"/>
            <rect id="Rectangle_11444" data-name="Rectangle 11444" width="54.204" height="1.661" transform="translate(18.681 50.748) rotate(-66.558)" fill="#607758"/>
            <rect id="Rectangle_11445" data-name="Rectangle 11445" width="54.204" height="1.662" transform="matrix(0.398, -0.917, 0.917, 0.398, 24.902, 50.408)" fill="#607758"/>
            <rect id="Rectangle_11446" data-name="Rectangle 11446" width="54.205" height="1.661" transform="matrix(0.398, -0.917, 0.917, 0.398, 31.124, 50.07)" fill="#607758"/>
            <rect id="Rectangle_11447" data-name="Rectangle 11447" width="54.204" height="1.661" transform="matrix(0.398, -0.917, 0.917, 0.398, 37.344, 49.73)" fill="#607758"/>
          </g>
        </g>
      </g>
    </g>
    <path id="Path_29798" data-name="Path 29798" d="M472.417,506.287a27.784,27.784,0,0,0,2.285-4.621c1.225-3.254-11.812-12.072-13.577-9.638-1.8,2.484-2.8,6.341-2.18,7.457C459.284,500.094,470.237,510.337,472.417,506.287Z" transform="translate(-223.012 -323.788)" fill="#ad1e1e"/>
    <g id="Group_31969" data-name="Group 31969" transform="translate(226.113 267.07)">
      <path id="Path_29660" data-name="Path 29660" d="M459.71,647.113l-1.374,2.558s-11.453,3.842-12.162,4.163c-.811.364-2.584.987-2.427,2.452a1.59,1.59,0,0,0,.225.891c.758,1.144,2.352,1.686,3.84,1.991,3.245.668,10.144-.1,10.144-.1a23.828,23.828,0,0,0,5.747-1.322s1.742-.442,2.028.161a4.969,4.969,0,0,1-.14,1.393l4.338-1.573a11.024,11.024,0,0,0,.826-3.037l.127-5.988Z" transform="translate(-443.691 -647.113)" fill="#231f20"/>
      <g id="Group_31853" data-name="Group 31853" transform="translate(0 8.882)">
        <path id="Path_29661" data-name="Path 29661" d="M445.973,663.2a10.727,10.727,0,0,0,3.219.853c4.743.682,12-.686,12-.686.719-.142,3.447-.708,3.447-.708s1.106.122,1.062.376c.006-.129-.016-.015.044.009a6.166,6.166,0,0,1-.184,1.384l-1.119-.754s-3.326.609-3.916.775c0,0-6.989,1.3-11.765.667-1.507-.2-4.035-1.153-4.891-2.563a1.581,1.581,0,0,1-.122-1.266A7.79,7.79,0,0,0,445.973,663.2Z" transform="translate(-443.664 -661.122)" fill="#282827"/>
        <path id="Path_29662" data-name="Path 29662" d="M478.144,662.942l4.747-1.911a15.934,15.934,0,0,1-.507,1.738l-4.334,1.576C478.067,664.2,478.117,663.319,478.144,662.942Z" transform="translate(-456.104 -661.03)" fill="#282827"/>
      </g>
    </g>
    <path id="Path_29800" data-name="Path 29800" d="M470.611,545.222l-6.62,64.858c-.4,2.531-1.926,3.367-1.206,4.246,2.684,3.288,14.751,6.514,16.6,1.172l8.42-62.682Z" transform="translate(-224.4 -343.183)" fill="#23874c"/>
    <path id="Path_29809" data-name="Path 29809" d="M520.892,667.153s.2,6.7.206,6.86c.246,2.975-3.247,10.618-8.274,11.105-.749.074-3.377-.158-3.377-.158s-3.434-.1-2.758-6.148c.264-2.349,2.71-11.825,2.71-11.825Z" transform="translate(-240.319 -387.233)" fill="#383736"/>
    <path id="Path_29810" data-name="Path 29810" d="M521.348,664.628s-.408,3.846-.76,8.856c-.209,2.981-3.828,9.306-8.256,9.568a14.627,14.627,0,0,1-2.131-.035c-1.906-.086-4.512-.775-3.427-6.931.386-2.2,1.982-10.671,2.115-10.679Z" transform="translate(-240.29 -386.38)" fill="#b57a33"/>
    <path id="Path_29805" data-name="Path 29805" d="M491.221,549.763c.89,13.072,10.028,76.9,10.028,76.9a5.753,5.753,0,0,0,5.087,4.779,10.048,10.048,0,0,0,6.487-1.488,5.8,5.8,0,0,0,3.426-4.3l-5.3-79.042Z" transform="translate(-234.755 -343.688)" fill="#31a05f"/>
    <path id="Path_29803" data-name="Path 29803" d="M507.28,469.022s-5.945-6.726-8.774-8-12.842-1-12.842-1-5.538,10.528-5.626,11.261,1.236,20.274,1.236,20.274l15.415,2.231Z" transform="translate(-230.708 -312.353)" fill="#e83a3a"/>
    <path id="Path_29802" data-name="Path 29802" d="M478.872,458.012c2.042-1.793,6.42-1.31,8.425-.989-2.568,1.629-6.13,7.191-7.091,15.323a93.134,93.134,0,0,0-.71,10.44c.082-.124,12.15,3.427,12.15,3.427s.389-13.162,1.982-17.449a13.225,13.225,0,0,1,5.519-6.9c-.652-.636,13,10.911,12.324,13.439l-4.914,38.147c.13-.505-.1,13.481-2.607,14.664a26.246,26.246,0,0,1-13.94,3.193c-13.625-.992-15.68-4.854-15.68-4.854a2.855,2.855,0,0,1-.653-2.619l.214-17.905-.1-26.417C474.1,468.312,473.4,462.821,478.872,458.012Z" transform="translate(-228.39 -311.164)" fill="#e83a3a"/>
    <g id="Group_31972" data-name="Group 31972" transform="translate(245.236 145.549)">
      <g id="Group_31858" data-name="Group 31858" transform="translate(0 0)" clip-path="url(#clip-path-2)">
        <g id="Group_31857" data-name="Group 31857" transform="translate(-16.129 -6.005)">
          <g id="Group_31855" data-name="Group 31855" transform="translate(11.834 0.55)">
            <rect id="Rectangle_11448" data-name="Rectangle 11448" width="1.661" height="54.204" transform="matrix(0.447, -0.894, 0.894, 0.447, 0, 1.486)" fill="#6f8967"/>
            <rect id="Rectangle_11449" data-name="Rectangle 11449" width="1.661" height="54.204" transform="matrix(0.447, -0.894, 0.894, 0.447, 0, 7.716)" fill="#6f8967"/>
            <rect id="Rectangle_11450" data-name="Rectangle 11450" width="1.661" height="54.204" transform="matrix(0.447, -0.894, 0.894, 0.447, 0, 13.946)" fill="#6f8967"/>
            <rect id="Rectangle_11451" data-name="Rectangle 11451" width="1.661" height="54.204" transform="matrix(0.447, -0.894, 0.894, 0.447, 0, 20.176)" fill="#6f8967"/>
            <rect id="Rectangle_11452" data-name="Rectangle 11452" width="1.661" height="54.204" transform="matrix(0.447, -0.894, 0.894, 0.447, 0, 26.407)" fill="#6f8967"/>
          </g>
          <g id="Group_31856" data-name="Group 31856">
            <rect id="Rectangle_11453" data-name="Rectangle 11453" width="54.204" height="1.661" transform="translate(12.461 51.087) rotate(-66.557)" fill="#6f8967"/>
            <rect id="Rectangle_11454" data-name="Rectangle 11454" width="54.204" height="1.661" transform="translate(6.23 51.087) rotate(-66.557)" fill="#6f8967"/>
            <rect id="Rectangle_11455" data-name="Rectangle 11455" width="54.204" height="1.661" transform="translate(0 51.087) rotate(-66.557)" fill="#6f8967"/>
            <rect id="Rectangle_11456" data-name="Rectangle 11456" width="54.204" height="1.66" transform="translate(18.682 50.748) rotate(-66.557)" fill="#6f8967"/>
            <rect id="Rectangle_11457" data-name="Rectangle 11457" width="54.204" height="1.661" transform="translate(24.902 50.408) rotate(-66.557)" fill="#6f8967"/>
            <rect id="Rectangle_11458" data-name="Rectangle 11458" width="54.204" height="1.661" transform="matrix(0.398, -0.917, 0.917, 0.398, 31.124, 50.069)" fill="#6f8967"/>
            <rect id="Rectangle_11459" data-name="Rectangle 11459" width="54.204" height="1.66" transform="translate(37.345 49.73) rotate(-66.557)" fill="#6f8967"/>
          </g>
        </g>
      </g>
    </g>
    <path id="Path_29801" data-name="Path 29801" d="M480.848,458.3c2.041-1.793,4.239-1.552,6.244-1.231-2.568,1.629-6.13,7.191-7.091,15.323a93.119,93.119,0,0,0-.71,10.44c.082-.125,12.149,3.427,12.149,3.427s2.376-11.526,3.969-15.813a13.217,13.217,0,0,1,5.521-6.9c-.654-.636,3.062,2.752,3.062,2.752s-2.271.61-4.1,4.88-4.155,17.678-2.014,21.027,8.828,5.971,8.828,5.971l-.353,15.32c.13-.505-.543,8.9-.971,17.273,0,0-7.942,3.353-15.624,2.793-13.624-.991-15.995-7.167-15.995-7.167a2.851,2.851,0,0,1-.652-2.62l.576-17.8L473.6,487.2a20.316,20.316,0,0,0,1.012-4.673C474.754,472.735,476.21,462.38,480.848,458.3Z" transform="translate(-228.185 -311.212)" fill="#31a05f"/>
    <path id="Path_29806" data-name="Path 29806" d="M492.8,458.519c4.2,4.909,8.081.189,11.336-3.085l1.63-12.6-11.6,2.4Z" transform="translate(-235.327 -306.143)" fill="#dbb39c"/>
    <path id="Path_29804" data-name="Path 29804" d="M491.886,459.014s-1.071,3.907-.214,5.329a11.036,11.036,0,0,0,1.954,1.68s-2.713,2.992-3.648,3.206c-.521.12-1.395-1.227-1.889-3.952-.357-1.975,1.026-5.608,1.675-6.542S491.886,459.014,491.886,459.014Z" transform="translate(-233.601 -311.767)" fill="#f95f5f"/>
    <path id="Path_29808" data-name="Path 29808" d="M505.436,431.454a2.833,2.833,0,0,0-3.148,2.127l-.608,5.153a1.553,1.553,0,0,0,.932,1.451c1.424.472,2.211-.731,3.032-2.056.047-.078,1.124-2.051,1.19-2.167C507.755,434.289,507.868,431.741,505.436,431.454Z" transform="translate(-238.539 -302.017)" fill="#ffe8d9"/>
    <g id="Group_31973" data-name="Group 31973" transform="translate(252.828 115.974)">
      <path id="Path_29674" data-name="Path 29674" d="M496.645,419.567v.005l9.508,1.129-1.82,17.183c-.265,1.16-.34,2.23-.645,3.2a4.847,4.847,0,0,1-2.4,2.884s-2.3,1.416-4.408,2.621c-1.575.9-3.666,1.372-4.732,1.052-.749-.225-2.553-.752-2.553-.752-1.426-.525-2.035-2.159-2.525-4.277-.219-.945-.441-16.622-.441-16.622l.625-5.781Z" transform="translate(-485.922 -413.699)" fill="#e8c5ac"/>
      <path id="Path_29675" data-name="Path 29675" d="M488.236,414.383c-2.843,1.194-2.819,4.694-2.654,5.713a16.6,16.6,0,0,0,.659,3.2c-.047.04.08-1.35.172-2.71.146-2.024,2.224-1.407,3.051-.726a34.276,34.276,0,0,0,4.51,2.805c1.017.756.608.232.777-.546.035-.174.161-1.222.161-1.222.131.114,2.557,1.552,3.156,2.072,2.614,2.272,1.772,7.7,1.968,7.711.823.04.789-.312,1.111-1.119,0,0,.519-3.869,3.518-2.009,1.583.982-.315,3.637-.446,3.843l-.985,6.52c-.013.075,5.268-6.682,5.853-7.728,5.728-10.233-1.041-22.053-12.416-19.451C494.388,411.261,488.236,414.383,488.236,414.383Z" transform="translate(-485.522 -410.373)" fill="#633a11"/>
      <path id="Path_29676" data-name="Path 29676" d="M512.624,435.824c-2.459-.283-3.254,3.778-3.254,3.778l-.322,3.216a1.488,1.488,0,0,0,.9,1.386c1.367.447,2.143-.341,2.921-1.615.049-.073,1.073-1.966,1.137-2.084C514.884,438.9,514.954,436.092,512.624,435.824Z" transform="translate(-494.032 -419.575)" fill="#e8c5ac"/>
    </g>
    <path id="Path_29813" data-name="Path 29813" d="M531.122,568.916c.078,1.7-2.161,2.92-3.709,2.991-.539.028-1.2,4.2-3.424,4.159,0,0-.047-1.109-.065-3.051a4.154,4.154,0,0,1,.634-3.017c2.533-3.214,2.813-3.815,4.356-3.89S531.037,567.216,531.122,568.916Z" transform="translate(-246.567 -350.738)" fill="#e8c5ac"/>
    <path id="Path_29814" data-name="Path 29814" d="M531.1,568.287l-4.427.608L525.4,571.89l.5,3.339a3.143,3.143,0,0,1-.49,2.06c-.266.447-.735,1.225-.735,1.225s-.141,3.388,2.421,2.665a3.289,3.289,0,0,0,1.41-.905c1.115-.177,2.971-.69,4.209-.961,2.855-.622,2.08-4.016,2.08-4.016l-.426-3.351C534.155,570.065,533.126,568.013,531.1,568.287Z" transform="translate(-246.86 -351.518)" fill="#e8c5ac"/>
    <path id="Path_29811" data-name="Path 29811" d="M527.532,540.372a5.881,5.881,0,0,0,2.885-.562,11.5,11.5,0,0,0,.242-1.978c.285-4.292,1.673-23.24,1.142-28.555-.585-5.838-1.789-19.215-1.789-19.215s-1.878-11.018-8.282-10.242c-5.329.643-5.431,7.346-4.865,12.017.442,3.674,4.345,15.909,5.072,20.867,1.385,9.481,1.4,25.674,1.4,25.674S523.482,540.2,527.532,540.372Z" transform="translate(-243.95 -319.508)" fill="#e8c5ac"/>
    <g id="Group_31974" data-name="Group 31974" transform="translate(272.687 160.271)">
      <path id="Path_29680" data-name="Path 29680" d="M532.671,508.966c-.585-5.839-2.658-18.9-2.658-18.9s-1.878-11.018-8.282-10.242c-5.329.643-5.431,7.346-4.865,12.017.442,3.674,2.365,15.782,3.091,20.741C520.146,513.223,533.2,514.281,532.671,508.966Z" transform="translate(-516.636 -479.78)" fill="#f95f5f"/>
      <g id="Group_31864" data-name="Group 31864" transform="translate(0 0)" clip-path="url(#clip-path-3)">
        <g id="Group_31863" data-name="Group 31863" transform="translate(-23.47 -6.705)">
          <g id="Group_31861" data-name="Group 31861" transform="translate(11.834 0.55)">
            <rect id="Rectangle_11460" data-name="Rectangle 11460" width="1.661" height="54.204" transform="matrix(0.447, -0.894, 0.894, 0.447, 0, 1.485)" fill="#90a888"/>
            <rect id="Rectangle_11461" data-name="Rectangle 11461" width="1.661" height="54.204" transform="matrix(0.447, -0.894, 0.894, 0.447, 0, 7.716)" fill="#90a888"/>
            <rect id="Rectangle_11462" data-name="Rectangle 11462" width="1.661" height="54.204" transform="matrix(0.447, -0.894, 0.894, 0.447, 0, 13.946)" fill="#90a888"/>
            <rect id="Rectangle_11463" data-name="Rectangle 11463" width="1.661" height="54.204" transform="matrix(0.447, -0.894, 0.894, 0.447, 0, 20.176)" fill="#90a888"/>
            <rect id="Rectangle_11464" data-name="Rectangle 11464" width="1.661" height="54.204" transform="matrix(0.447, -0.894, 0.894, 0.447, 0, 26.407)" fill="#90a888"/>
          </g>
          <g id="Group_31862" data-name="Group 31862" transform="translate(0 0)">
            <rect id="Rectangle_11465" data-name="Rectangle 11465" width="54.204" height="1.661" transform="matrix(0.398, -0.917, 0.917, 0.398, 12.461, 51.087)" fill="#90a888"/>
            <rect id="Rectangle_11466" data-name="Rectangle 11466" width="54.204" height="1.661" transform="translate(6.23 51.087) rotate(-66.558)" fill="#90a888"/>
            <rect id="Rectangle_11467" data-name="Rectangle 11467" width="54.204" height="1.661" transform="translate(0 51.087) rotate(-66.558)" fill="#90a888"/>
            <rect id="Rectangle_11468" data-name="Rectangle 11468" width="54.204" height="1.66" transform="translate(18.682 50.748) rotate(-66.557)" fill="#90a888"/>
            <rect id="Rectangle_11469" data-name="Rectangle 11469" width="54.204" height="1.661" transform="translate(24.902 50.408) rotate(-66.557)" fill="#90a888"/>
            <rect id="Rectangle_11470" data-name="Rectangle 11470" width="54.204" height="1.661" transform="matrix(0.398, -0.917, 0.917, 0.398, 31.124, 50.069)" fill="#90a888"/>
            <rect id="Rectangle_11471" data-name="Rectangle 11471" width="54.204" height="1.661" transform="translate(37.344 49.73) rotate(-66.557)" fill="#90a888"/>
          </g>
        </g>
      </g>
    </g>
    <path id="Path_29812" data-name="Path 29812" d="M534.355,524.455a40.215,40.215,0,0,0-.52-4.621c-.357-2.18-14-.336-14.148,2.116a14.222,14.222,0,0,0,1.091,5.763C521.453,529.065,534.562,528.089,534.355,524.455Z" transform="translate(-245.048 -333.648)" fill="#f97878"/>
    <path id="Path_29807" data-name="Path 29807" d="M496.8,465.984a17.982,17.982,0,0,0,1.733,4.075c.779.935,2.282-.578,3.244-1.142a33.694,33.694,0,0,0,4.628-4.18,3.739,3.739,0,0,0,1.127-2.311l-1.517-4.152a12.287,12.287,0,0,1-1.583,3.712C502.3,464.478,496.8,465.984,496.8,465.984Z" transform="translate(-236.772 -311.729)" fill="#f95f5f"/>
    <g id="Group_31971" data-name="Group 31971" transform="translate(239.897 106.449)">
      <g id="Group_31867" data-name="Group 31867" transform="translate(0 0)">
        <path id="Path_29684" data-name="Path 29684" d="M480.839,406.375c-10.057-.728-22.629,7.509-10.759,14.849,9.863,6.1,20.506,3.625,25.026,5.185,12.153,4.194,17.58,1.374,19.125-2.1C517.073,417.929,507.126,408.279,480.839,406.375Z" transform="translate(-465.262 -399.386)" fill="#ffc55d"/>
        <path id="Path_29685" data-name="Path 29685" d="M485.483,407.885a38.813,38.813,0,0,0,4.745-7.089c1.218-2.673,3.979-5.35,6.59-5.346s4.546,2.76,7.52,3.27,6.119-.134,7.62,1.742.036,5.081.436,8.693c.419,3.791.433,4.509.433,4.509s-2.989,2.533-10.589,1.343C490.281,413.133,485.483,407.885,485.483,407.885Z" transform="translate(-472.577 -395.45)" fill="#e09f36"/>
        <g id="Group_31866" data-name="Group 31866" transform="translate(12.906 10.408)">
          <path id="Path_29686" data-name="Path 29686" d="M503.369,418.439c-9.859-1.545-14.847-5.381-16.295-6.681-.894,1.2-1.591,2.026-1.591,2.026s4.8,5.248,16.755,7.123c7.6,1.19,10.589-1.343,10.589-1.343s-.006-.336-.145-1.762C511.161,418.449,508.2,419.2,503.369,418.439Z" transform="translate(-485.483 -411.758)" fill="#754c29"/>
        </g>
      </g>
      <path id="Path_29687" data-name="Path 29687" d="M506.434,397.3c-1.155-.588-2.8-1.347-3.06-.534s.385,3.423,4.049,3.683c4.008.283,4.78,1.289,6.721,1.3,2.448.013,3.2-1.026,1.609-1.737s-1.872-.514-4.961-.944A10.943,10.943,0,0,1,506.434,397.3Z" transform="translate(-479.031 -395.799)" fill="#c4801e"/>
    </g>
    <g transform="matrix(1, 0, 0, 1, 76.66, 61.21)" filter="url(#Path_29799)" style="mix-blend-mode: multiply;isolation: isolate">
      <path id="Path_29799-2" data-name="Path 29799" d="M272.779,735.593c-2.291,10-33.648,4.845-44.1-1.785-9.354-5.931-5.118-14.817,7.393-18.863,8.557-2.769,23.181-3.991,33.976-2.619,6.557.833,18.1,3.046,20.577,5.678,4.078,4.335-2.745,5.38-4.076,5.608-8.6,1.467-9.5,2.432-12.747,4.079C267.8,730.729,273.363,733.048,272.779,735.593Z" transform="translate(-214.61 -464.64)" fill="#231f20" opacity="0.29"/>
    </g>
    <path id="Path_29793" data-name="Path 29793" d="M400.378,521.293c-11.376-8.038-10.355-14.443-17.338-16-7.362-1.645-33.073,2.855-42.421,4.637-7.843,1.5-10.167,8.3-3.528,12.66s14.067,11.419,21.05,19.846c7.9,9.538,29.716-5.172,39.634-7.464C411.551,531.784,406.821,525.846,400.378,521.293Z" transform="translate(-177.591 -328.609)" fill="#3a3213"/>
    <g id="Group_31964" data-name="Group 31964" transform="translate(159.095 179.947)">
      <g id="Group_31883" data-name="Group 31883" transform="translate(20.571 27.011)">
        <path id="Path_29700" data-name="Path 29700" d="M385.959,568.131c-9.1-1.873-15.819-6.622-14.995-10.613s8.861-5.7,17.964-3.831,15,10.61,15,10.61S395.061,570,385.959,568.131Z" transform="translate(-370.893 -552.93)" fill="#eeb872"/>
        <g id="Group_31882" data-name="Group 31882" transform="translate(0 4.59)">
          <path id="Path_29701" data-name="Path 29701" d="M385.957,570.732c9.1,1.869,17.952-3.822,17.966-3.832l-32.964-6.779C370.14,564.11,376.853,568.86,385.957,570.732Z" transform="translate(-370.891 -560.121)" fill="#d2913a"/>
        </g>
      </g>
      <g id="Group_31885" data-name="Group 31885" transform="translate(0 18.277)">
        <path id="Path_29702" data-name="Path 29702" d="M351.868,541.392c8.713-3.235,16.925-2.764,18.34,1.057s-4.5,9.531-13.208,12.766-18.34-1.055-18.34-1.055S343.157,544.626,351.868,541.392Z" transform="translate(-338.66 -539.244)" fill="#eeb872"/>
        <g id="Group_31884" data-name="Group 31884" transform="translate(0.001 0)">
          <path id="Path_29703" data-name="Path 29703" d="M351.869,541.392c-8.7,3.233-13.2,12.753-13.208,12.767l31.549-11.712C368.792,538.63,360.582,538.158,351.869,541.392Z" transform="translate(-338.661 -539.244)" fill="#d2913a"/>
        </g>
      </g>
      <g id="Group_31887" data-name="Group 31887" transform="translate(5.198 5.874)">
        <path id="Path_29704" data-name="Path 29704" d="M364.989,522.96c7.9,4.9,12.555,11.683,10.4,15.142s-10.286,2.289-18.181-2.616-10.405-15.14-10.405-15.14S357.095,518.057,364.989,522.96Z" transform="translate(-346.805 -519.812)" fill="#eeb872"/>
        <g id="Group_31886" data-name="Group 31886" transform="translate(0.002)">
          <path id="Path_29705" data-name="Path 29705" d="M364.99,522.96c-7.888-4.9-18.167-2.619-18.182-2.615L375.4,538.1C377.543,534.641,372.886,527.864,364.99,522.96Z" transform="translate(-346.808 -519.812)" fill="#d2913a"/>
        </g>
      </g>
      <g id="Group_31889" data-name="Group 31889" transform="translate(28.927 3.882)">
        <path id="Path_29706" data-name="Path 29706" d="M401.782,534.379c-5.89,7.193-13.216,10.932-16.366,8.349s-.932-10.5,4.956-17.688,16.364-8.35,16.364-8.35S407.667,527.191,401.782,534.379Z" transform="translate(-383.983 -516.69)" fill="#eeb872"/>
        <g id="Group_31888" data-name="Group 31888" transform="translate(1.433 0.002)">
          <path id="Path_29707" data-name="Path 29707" d="M402.594,534.38c5.881-7.185,4.955-17.671,4.954-17.687l-21.32,26.038C389.378,545.31,396.7,541.573,402.594,534.38Z" transform="translate(-386.228 -516.693)" fill="#d2913a"/>
        </g>
      </g>
      <g id="Group_31891" data-name="Group 31891" transform="translate(43.77 31.009)">
        <path id="Path_29708" data-name="Path 29708" d="M425.536,576.126c-6.741,6.4-14.476,9.194-17.279,6.237s.387-10.532,7.127-16.93,17.278-6.239,17.278-6.239S432.275,569.728,425.536,576.126Z" transform="translate(-407.24 -559.193)" fill="#eeb872"/>
        <g id="Group_31890" data-name="Group 31890" transform="translate(1.016 0.002)">
          <path id="Path_29709" data-name="Path 29709" d="M426.112,576.128c6.733-6.394,7.127-16.915,7.127-16.93l-24.407,23.169C411.638,585.319,419.371,582.526,426.112,576.128Z" transform="translate(-408.832 -559.197)" fill="#d2913a"/>
        </g>
      </g>
      <g id="Group_31893" data-name="Group 31893" transform="translate(13.724 39.58)">
        <path id="Path_29710" data-name="Path 29710" d="M374.805,588.01c-9.019-2.251-15.53-7.277-14.54-11.229s9.092-5.329,18.11-3.078,14.541,11.227,14.541,11.227S383.821,590.26,374.805,588.01Z" transform="translate(-360.164 -572.623)" fill="#eeb872"/>
        <g id="Group_31892" data-name="Group 31892" transform="translate(0 4.159)">
          <path id="Path_29711" data-name="Path 29711" d="M374.8,590.367c9.009,2.247,18.095-3.07,18.109-3.079l-32.652-8.15C359.277,583.09,365.785,588.116,374.8,590.367Z" transform="translate(-360.163 -579.139)" fill="#d2913a"/>
        </g>
      </g>
      <g id="Group_31895" data-name="Group 31895" transform="translate(36.965 50.425)">
        <path id="Path_29712" data-name="Path 29712" d="M413.36,604.361c-9.294-.058-16.809-3.406-16.779-7.479s7.576-7.324,16.871-7.266,16.781,7.478,16.781,7.478S422.652,604.419,413.36,604.361Z" transform="translate(-396.578 -589.615)" fill="#ffd490"/>
        <g id="Group_31894" data-name="Group 31894" transform="translate(0 7.268)">
          <path id="Path_29713" data-name="Path 29713" d="M413.358,608.481c9.286.057,16.86-7.255,16.871-7.266L396.577,601C396.552,605.075,404.064,608.422,413.358,608.481Z" transform="translate(-396.577 -601.003)" fill="#fdb74e"/>
        </g>
      </g>
      <g id="Group_31897" data-name="Group 31897" transform="translate(18.912 37.357)">
        <path id="Path_29714" data-name="Path 29714" d="M383.7,569.639c9.171-1.511,17.142.52,17.8,4.541s-6.233,8.5-15.4,10.006-17.8-4.539-17.8-4.539S374.529,571.147,383.7,569.639Z" transform="translate(-368.292 -569.139)" fill="#ffd490"/>
        <g id="Group_31896" data-name="Group 31896" transform="translate(0.001 0)">
          <path id="Path_29715" data-name="Path 29715" d="M383.7,569.639c-9.163,1.508-15.394,9.994-15.4,10.008l33.206-5.469C400.837,570.16,392.869,568.127,383.7,569.639Z" transform="translate(-368.294 -569.139)" fill="#fdb74e"/>
        </g>
      </g>
      <g id="Group_31899" data-name="Group 31899" transform="translate(4.753 24.023)">
        <path id="Path_29716" data-name="Path 29716" d="M364.826,563.819c-8.007,4.72-16.173,5.7-18.24,2.192s2.744-10.174,10.75-14.894,18.24-2.2,18.24-2.2S372.83,559.1,364.826,563.819Z" transform="translate(-346.106 -548.248)" fill="#ffd490"/>
        <g id="Group_31898" data-name="Group 31898" transform="translate(0.479 0.676)">
          <path id="Path_29717" data-name="Path 29717" d="M365.1,564.2c8-4.717,10.746-14.88,10.749-14.9l-28.99,17.09C348.926,569.9,357.09,568.923,365.1,564.2Z" transform="translate(-346.857 -549.307)" fill="#fdb74e"/>
        </g>
      </g>
      <g id="Group_31901" data-name="Group 31901" transform="translate(35.489 15.508)">
        <path id="Path_29718" data-name="Path 29718" d="M412.984,550.478c-8.007,4.72-16.174,5.7-18.24,2.192s2.744-10.174,10.75-14.895,18.24-2.195,18.24-2.195S420.989,545.759,412.984,550.478Z" transform="translate(-394.265 -534.907)" fill="#ffd490"/>
        <g id="Group_31900" data-name="Group 31900" transform="translate(0.479 0.675)">
          <path id="Path_29719" data-name="Path 29719" d="M413.256,550.861c8-4.717,10.745-14.88,10.749-14.9l-28.99,17.091C397.084,556.563,405.249,555.581,413.256,550.861Z" transform="translate(-395.015 -535.965)" fill="#fdb74e"/>
        </g>
      </g>
      <g id="Group_31903" data-name="Group 31903" transform="translate(14.437 0)">
        <path id="Path_29720" data-name="Path 29720" d="M379.647,512.431c8.441,3.89,13.9,10.041,12.194,13.74s-9.925,3.542-18.365-.348-12.2-13.739-12.2-13.739S371.208,508.542,379.647,512.431Z" transform="translate(-361.28 -510.608)" fill="#ffd490"/>
        <g id="Group_31902" data-name="Group 31902" transform="translate(0.001)">
          <path id="Path_29721" data-name="Path 29721" d="M379.648,512.431c-8.433-3.886-18.35-.354-18.366-.348l30.563,14.087C393.548,522.472,388.089,516.321,379.648,512.431Z" transform="translate(-361.282 -510.608)" fill="#fdb74e"/>
        </g>
      </g>
      <g id="Group_31905" data-name="Group 31905" transform="translate(1.672 9.876)">
        <path id="Path_29722" data-name="Path 29722" d="M354.451,528.26c8.706-3.26,16.918-2.811,18.344,1.005s-4.468,9.544-13.171,12.8-18.344-1-18.344-1S345.75,531.519,354.451,528.26Z" transform="translate(-341.28 -526.081)" fill="#ffd490"/>
        <g id="Group_31904" data-name="Group 31904" transform="translate(0 0)">
          <path id="Path_29723" data-name="Path 29723" d="M354.451,528.26c-8.695,3.257-13.165,12.788-13.171,12.8l31.517-11.8C371.367,525.451,363.157,525,354.451,528.26Z" transform="translate(-341.28 -526.081)" fill="#fdb74e"/>
        </g>
      </g>
      <g id="Group_31907" data-name="Group 31907" transform="translate(32.987 20.652)">
        <path id="Path_29724" data-name="Path 29724" d="M403.086,559.269c-8.514-3.731-14.091-9.777-12.453-13.506s9.856-3.73,18.368,0,12.453,13.505,12.453,13.505S411.6,563,403.086,559.269Z" transform="translate(-390.346 -542.966)" fill="#ffd490"/>
        <g id="Group_31906" data-name="Group 31906" transform="translate(0 2.797)">
          <path id="Path_29725" data-name="Path 29725" d="M403.085,560.854c8.5,3.726,18.353.007,18.368,0l-30.824-13.507C389,551.078,394.571,557.124,403.085,560.854Z" transform="translate(-390.345 -547.348)" fill="#fdb74e"/>
        </g>
      </g>
    </g>
    <path id="Path_29795" data-name="Path 29795" d="M323.009,542.272c0,4.184-6.6,11.45-26.674,46.028-11.026,18.99-23.414,57.09,14.78,72.781,35.972,14.78,88.759,9.387,98.158-9.759,15.059-30.675,4.076-60.454-23.026-100.173-2.929-2.928-.231-5.854,3.115-7.527s-14.45,10.721-32.018,15.74-47.358-29.487-41.084-23.841S323.009,542.272,323.009,542.272Z" transform="translate(-160.245 -339.447)" fill="#944700"/>
    <path id="Path_29796" data-name="Path 29796" d="M389.907,554.084c3.6-1.737,4.182-3.872,3.143-6.061-.045-.091-.091-.182-.139-.273a9.812,9.812,0,0,0-2.718,2.163,3.411,3.411,0,0,0-.814,3.406c-2.919-2.889-4.094,5.407-15.977,3.127.435,1.056.857,2.1,1.276,3.148-10.588,4.629-23.9,10.7-29.7,3.7-2.243-2.707-4.533-5.271-6.827-7.652a94.441,94.441,0,0,0-11.477-10.268,3.9,3.9,0,0,1,.519.69,4.438,4.438,0,0,1-.051.654c-.247,1.668-1.427,3.913-3.876,7.924,6.538,7.843,15.158,15.127,21.259,17.645,6.493,2.683,20.694-.258,33.208-4.782,13.121,35.4,15.668,62.395,7.09,73.988-12.685,17.146-46.938,27.285-82.91,12.5q-2.714-1.115-5.093-2.377c4.062,5.214,10.031,9.782,18.479,13.252,35.972,14.78,88.759,9.387,98.158-9.759C428.425,624.62,418.786,596.19,389.907,554.084Z" transform="translate(-164.428 -343.237)" fill="#231f20" opacity="0.29" style="mix-blend-mode: multiply;isolation: isolate"/>
    <path id="Path_29794" data-name="Path 29794" d="M380.559,498.656c-10.859-2.006-48.175-.455-55.929,10.831-6.131,8.924,17.053,34.22,29.589,39.4s53.8-10.581,56.179-18.279C412.975,522.285,392,500.767,380.559,498.656Zm13.747,33.773c-9.918,2.292-31.731,17-39.634,7.464-6.983-8.427-14.409-15.487-21.05-19.846s-4.315-11.163,3.528-12.66c9.348-1.783,35.059-6.283,42.421-4.637,6.984,1.56,5.962,7.965,17.338,16C403.352,523.3,408.082,529.243,394.306,532.429Z" transform="translate(-174.122 -326.068)" fill="#944700"/>
    <g id="Group_31963" data-name="Group 31963" transform="translate(88.823 142.43)">
      <g id="Group_31910" data-name="Group 31910" transform="translate(16.191 172.632)">
        <path id="Path_29729" data-name="Path 29729" d="M270.981,722.308a5.583,5.583,0,0,0,3.565,2.168c1.562.333,6.724.972,6.724.972,2.559.315,5.667,1.131,6.161,3.646a8.52,8.52,0,0,1,.082,1.675c-.319,1.407-1.683,1.965-3.349,2.557a44.335,44.335,0,0,1-5.618,1.549,20,20,0,0,1-7.614.157,39.127,39.127,0,0,0-4.272-.528c-1.361-.009-1.135.984-1.286,2.261l-4.339,1.138c-4.329.556-7.2-3.349-7.085-4.332l1.171-9.526Z" transform="translate(-253.932 -722.308)" fill="#b57a33"/>
        <g id="Group_31909" data-name="Group 31909" transform="translate(0 7.768)">
          <path id="Path_29730" data-name="Path 29730" d="M274.828,738.7a33.064,33.064,0,0,0,7.988.334,50.067,50.067,0,0,0,8.5-2.287c1.469-.528,2.73-1.431,2.825-2.273a3.181,3.181,0,0,1,0,.839c-.309,1.412-1.683,1.963-3.346,2.55a43.566,43.566,0,0,1-5.617,1.557,19.751,19.751,0,0,1-7.615.144s-3.491-.5-3.616-.51c-.809-.125-1.611.1-1.62.234C272.354,739.226,272.673,738.5,274.828,738.7Z" transform="translate(-260.58 -734.479)" fill="#383736"/>
          <path id="Path_29731" data-name="Path 29731" d="M261.244,741.64l4.3-1.117c-.051.415-.147,1.416-.195,1.815l-4.33,1.135c-4.337.557-7.207-3.347-7.088-4.33l.239-1.828C254.042,738.293,256.909,742.194,261.244,741.64Z" transform="translate(-253.923 -735.505)" fill="#383736"/>
        </g>
      </g>
      <g id="Group_31912" data-name="Group 31912" transform="translate(9.423 163.156)">
        <path id="Path_29732" data-name="Path 29732" d="M257.963,707.461a3.194,3.194,0,0,0,2.783,2.727c1.509.135,3.681.195,3.681.195,2.567-.478,5.8-.432,6.377,1.488a3.563,3.563,0,0,1,.236,1.153c-.132,1.409.373.236-1.562,1.951a46.284,46.284,0,0,1-5.93,3.826c-2.852,1.345-4.316,1.393-5.241,1.3a12.13,12.13,0,0,0-2.984-.218c-1.283.158-.947,1.768-.947,3.029l-3.931,1.628c-4.008,1.05-7.127-2.407-7.127-3.381v-10.1Z" transform="translate(-243.319 -707.461)" fill="#b57a33"/>
        <g id="Group_31911" data-name="Group 31911" transform="translate(0 4.884)">
          <path id="Path_29733" data-name="Path 29733" d="M263.054,722.269a23.328,23.328,0,0,0,5.681-1.124c2.751-.766,6.8-3.593,6.8-3.593a3.617,3.617,0,0,0,1.745-2.438c.052.324.073.648.086.824.1,1.286-1.033,1.985-1.964,2.64a24.608,24.608,0,0,1-5.527,3.134,12.8,12.8,0,0,1-4.909.966s-1.756.077-2.917.133c-.514.013-1.236.322-1.236.468C260.843,723.21,261.014,722.309,263.054,722.269Z" transform="translate(-249.649 -715.114)" fill="#383736"/>
          <path id="Path_29734" data-name="Path 29734" d="M250.446,730.531l3.886-1.615c.01.419.045.858.045,1.252l-3.931,1.633c-4.008,1.054-7.127-2.4-7.127-3.378v-1.26C243.319,728.127,246.438,731.584,250.446,730.531Z" transform="translate(-243.319 -719.473)" fill="#383736"/>
        </g>
      </g>
      <path id="Path_29735" data-name="Path 29735" d="M270.365,472.648l8.522,1.038L275.322,495.6c-.9,6.3-3.648,7.037-5.568,6.895-3.981-.294-7.947-1.508-10.069-3-4.1-2.91-3.671-11.691-3.66-12.289l-.174-14.849Z" transform="translate(-238.43 -459.252)" fill="#e8c5ac"/>
      <path id="Path_29736" data-name="Path 29736" d="M251.425,523.383l.04-11.849,1.625-13.308,12.442,2.857L264.1,513.911c0,1.82,1.286,2.325,2.261,3.874l5.258,8.411c1.268,2.02,3.91,5.242,3.91,10.921L270.4,568.206,250.06,571.88V530.445A18.9,18.9,0,0,1,251.425,523.383Z" transform="translate(-236.335 -468.612)" fill="#e8c5ac"/>
      <path id="Path_29737" data-name="Path 29737" d="M274.262,466.96c3.5,1.741,2.338,7.1,2.338,7.1a41.857,41.857,0,0,0-3.538,3.924c0,.094-2.29,7.491-2.29,7.491-.04.849-1.265,2-1.773.726-.576-1.44.513-2.414-.051-3.166s-2.292-1.15-4.316,3.445l-1.14,3.593c-1.861,4.02-5.312,4.02-7.752,3.3,0,0-3.259-1.077-4.4-2.374-.561-.631-2.121-7.731-2.775-9.863-2.445-7.886,1.01-22.676,17.234-17.793A48.332,48.332,0,0,1,274.262,466.96Z" transform="translate(-235.536 -455.642)" fill="#633a11"/>
      <path id="Path_29738" data-name="Path 29738" d="M261.812,612.959l-.543,69.4a18.716,18.716,0,0,1-12.056,4.22c-4.214,0-8.317-2.721-8.433-3.9l-2.5-70.942Z" transform="translate(-232.072 -509.676)" fill="#23874c"/>
      <path id="Path_29739" data-name="Path 29739" d="M257.593,523.356s-9.678-6.613-10.652,2.775c-1.181,11.34,19.275,20.739,24.993,20.2,3.19-.3,1.141-15.168,1.141-15.168C270.8,530.641,262.739,526.58,257.593,523.356Z" transform="translate(-235.189 -476.885)" fill="#c12525"/>
      <path id="Path_29740" data-name="Path 29740" d="M271,624.761l-1.228,61.511c.037-.024.144,1.516.793,1.873.632.358.614,1.654.287,2.52a13.586,13.586,0,0,1-12.929,7.1c-2.571-.134-5.608-1.113-5.736-2.229l-4.228-70.747Z" transform="translate(-235.575 -514.387)" fill="#31a05f"/>
      <g id="Group_31913" data-name="Group 31913" transform="translate(30.641 26.356)">
        <path id="Path_29741" data-name="Path 29741" d="M279.258,493.57a3.207,3.207,0,0,0-2.493,2.267,3.713,3.713,0,0,0,.267,3.057,3.279,3.279,0,0,0,1.516,1.218s.1-3.508.156-4.152A23.831,23.831,0,0,1,279.258,493.57Z" transform="translate(-276.563 -493.283)" fill="#efcfbd"/>
        <path id="Path_29742" data-name="Path 29742" d="M280.817,493.149s1.028-.017.257,1.431a7.248,7.248,0,0,0-1.055,3.156c-.052.759.051,3.042.051,3.042s-.682.914-1.26-.5a9.148,9.148,0,0,1-.327-3.545C278.523,496.076,279.719,492.777,280.817,493.149Z" transform="translate(-277.248 -493.12)" fill="#f2d7c9"/>
      </g>
      <g id="Group_31918" data-name="Group 31918" transform="translate(5.464 42.314)">
        <path id="Path_29743" data-name="Path 29743" d="M270.757,529.3c3.443,2.687,1.972,7.205,1.972,16.1l-.788,8.2c0,1.552-4.872,35.617-8.432,36.435a19.157,19.157,0,0,1-11.679-.39c-2.3-.759-13.615-6.006-13.615-9.254l-1.1-42.232c.18-5.241.5-11.686,1.344-14.452,1.915-6.317,7.463-5.552,7.463-5.552s9.572,1.357,14.514,5.108C262.835,525.079,265.868,525.391,270.757,529.3Z" transform="translate(-237.116 -518.123)" fill="#e83a3a"/>
        <g id="Group_31917" data-name="Group 31917" clip-path="url(#clip-path-4)">
          <g id="Group_31916" data-name="Group 31916" transform="translate(-15.21 -4.335)">
            <g id="Group_31914" data-name="Group 31914" transform="translate(11.834 0.55)">
              <rect id="Rectangle_11472" data-name="Rectangle 11472" width="1.661" height="54.204" transform="matrix(0.447, -0.894, 0.894, 0.447, 0, 1.486)" fill="#6f8967"/>
              <rect id="Rectangle_11473" data-name="Rectangle 11473" width="1.661" height="54.204" transform="matrix(0.447, -0.894, 0.894, 0.447, 0, 7.716)" fill="#6f8967"/>
              <rect id="Rectangle_11474" data-name="Rectangle 11474" width="1.661" height="54.204" transform="matrix(0.447, -0.894, 0.894, 0.447, 0, 13.946)" fill="#6f8967"/>
              <rect id="Rectangle_11475" data-name="Rectangle 11475" width="1.661" height="54.204" transform="matrix(0.447, -0.894, 0.894, 0.447, 0, 20.177)" fill="#6f8967"/>
              <rect id="Rectangle_11476" data-name="Rectangle 11476" width="1.661" height="54.204" transform="matrix(0.447, -0.894, 0.894, 0.447, 0, 26.407)" fill="#6f8967"/>
            </g>
            <g id="Group_31915" data-name="Group 31915" transform="translate(0 0)">
              <rect id="Rectangle_11477" data-name="Rectangle 11477" width="54.204" height="1.661" transform="translate(12.461 51.087) rotate(-66.557)" fill="#6f8967"/>
              <rect id="Rectangle_11478" data-name="Rectangle 11478" width="54.204" height="1.661" transform="translate(6.23 51.087) rotate(-66.557)" fill="#6f8967"/>
              <rect id="Rectangle_11479" data-name="Rectangle 11479" width="54.204" height="1.661" transform="translate(0 51.087) rotate(-66.557)" fill="#6f8967"/>
              <rect id="Rectangle_11480" data-name="Rectangle 11480" width="54.204" height="1.66" transform="matrix(0.398, -0.917, 0.917, 0.398, 18.682, 50.748)" fill="#6f8967"/>
              <rect id="Rectangle_11481" data-name="Rectangle 11481" width="54.204" height="1.662" transform="translate(24.903 50.408) rotate(-66.557)" fill="#6f8967"/>
              <rect id="Rectangle_11482" data-name="Rectangle 11482" width="54.204" height="1.661" transform="matrix(0.398, -0.917, 0.917, 0.398, 31.124, 50.069)" fill="#6f8967"/>
              <rect id="Rectangle_11483" data-name="Rectangle 11483" width="54.204" height="1.66" transform="translate(37.346 49.73) rotate(-66.558)" fill="#6f8967"/>
            </g>
          </g>
        </g>
      </g>
      <path id="Path_29745" data-name="Path 29745" d="M331.288,530.334s.079-3.142-.649-4.233-3.531-2.465-5.945-3.244c-2.348-.758-4.154.52-8,2.233s-4.828,8.386-4.828,8.386,12.1-4.62,14.122-5.037S331.288,530.334,331.288,530.334Z" transform="translate(-258.695 -477.442)" fill="#f2c8a5"/>
      <path id="Path_29746" data-name="Path 29746" d="M347.074,549.83c1.747.177,3.422-3.394,3.574-4.987.061-.545,3.36-.545,4.658-1.236a1.448,1.448,0,0,0,.373-2.373c-.271-.2-5.2.772-6.433.971-4.154.658-5.83,6.032-6,7.624S345.335,549.649,347.074,549.83Z" transform="translate(-270.044 -484.16)" fill="#f2c8a5"/>
      <path id="Path_29747" data-name="Path 29747" d="M343.7,553.392l-.448-1.807,3.774-6.137,6.935.609s6.157.131,7.837,3.485c.816,1.611.389,4.387.129,5.14-.645,1.871-2.609-.429-2.609-.429-.289-.029-.818-1.674-2.96-1.908-.568-.063-6.882,3.328-6.882,3.328C346.451,555.713,344.736,555.364,343.7,553.392Z" transform="translate(-270.049 -485.695)" fill="#f2c8a5"/>
      <path id="Path_29748" data-name="Path 29748" d="M325.97,532.353c-.256.2-.986.882.611,1.076l2.356-.116c2.608-1.246,3.485.116,2.783.7a20.791,20.791,0,0,1-4.269,1.92,10.1,10.1,0,0,1-4.531-.362c-1.519-.507-1.441-.973-2.921-.429s-3.309,1.285-3.309-.779S325.113,531.5,325.97,532.353Z" transform="translate(-260.439 -480.835)" fill="#f2c8a5"/>
      <path id="Path_29749" data-name="Path 29749" d="M297.324,541.251a124.982,124.982,0,0,1,14.173-8.489c2.078-.657-2.116-6.516-3.129-6.283a128.572,128.572,0,0,0-19.066,7.178C287.3,534.76,292.227,544.767,297.324,541.251Z" transform="translate(-250.365 -478.83)" fill="#f2c8a5"/>
      <path id="Path_29750" data-name="Path 29750" d="M284.2,535.347s-7.515-3.11-9.744,6.063c-2.2,9.046,15.952,22.181,21.412,23.961s26.672-13.717,27.181-14.993c.809-2.022.383-8.5-3.686-6.385-6.373,3.313-17.964,7.684-19.885,7.112C297.234,550.439,289.234,537.736,284.2,535.347Z" transform="translate(-245.093 -481.857)" fill="#f2c8a5"/>
      <g id="Group_31923" data-name="Group 31923" transform="translate(29.177 52.982)">
        <path id="Path_29751" data-name="Path 29751" d="M284.2,535.347s-7.515-3.11-9.744,6.063c-2.2,9.046,15.952,22.181,21.412,23.961s7-13.388,3.571-14.786C297.271,549.7,289.234,537.736,284.2,535.347Z" transform="translate(-274.27 -534.839)" fill="#f95f5f"/>
        <g id="Group_31922" data-name="Group 31922" clip-path="url(#clip-path-5)">
          <g id="Group_31921" data-name="Group 31921" transform="translate(-24.125 -13.239)">
            <g id="Group_31919" data-name="Group 31919" transform="translate(11.834 0.55)">
              <rect id="Rectangle_11484" data-name="Rectangle 11484" width="1.661" height="54.204" transform="matrix(0.447, -0.894, 0.894, 0.447, 0, 1.486)" fill="#839b7b"/>
              <rect id="Rectangle_11485" data-name="Rectangle 11485" width="1.661" height="54.204" transform="matrix(0.447, -0.894, 0.894, 0.447, 0, 7.716)" fill="#839b7b"/>
              <rect id="Rectangle_11486" data-name="Rectangle 11486" width="1.661" height="54.204" transform="matrix(0.447, -0.894, 0.894, 0.447, 0, 13.946)" fill="#839b7b"/>
              <rect id="Rectangle_11487" data-name="Rectangle 11487" width="1.661" height="54.204" transform="matrix(0.447, -0.894, 0.894, 0.447, 0, 20.177)" fill="#839b7b"/>
              <rect id="Rectangle_11488" data-name="Rectangle 11488" width="1.661" height="54.204" transform="matrix(0.447, -0.894, 0.894, 0.447, 0, 26.407)" fill="#839b7b"/>
            </g>
            <g id="Group_31920" data-name="Group 31920" transform="translate(0 0)">
              <rect id="Rectangle_11489" data-name="Rectangle 11489" width="54.204" height="1.661" transform="matrix(0.398, -0.917, 0.917, 0.398, 12.461, 51.086)" fill="#839b7b"/>
              <rect id="Rectangle_11490" data-name="Rectangle 11490" width="54.204" height="1.661" transform="matrix(0.398, -0.917, 0.917, 0.398, 6.23, 51.086)" fill="#839b7b"/>
              <rect id="Rectangle_11491" data-name="Rectangle 11491" width="54.204" height="1.661" transform="translate(0 51.086) rotate(-66.557)" fill="#839b7b"/>
              <rect id="Rectangle_11492" data-name="Rectangle 11492" width="54.204" height="1.66" transform="translate(18.682 50.748) rotate(-66.557)" fill="#839b7b"/>
              <rect id="Rectangle_11493" data-name="Rectangle 11493" width="54.204" height="1.662" transform="matrix(0.398, -0.917, 0.917, 0.398, 24.903, 50.408)" fill="#839b7b"/>
              <rect id="Rectangle_11494" data-name="Rectangle 11494" width="54.204" height="1.661" transform="translate(31.124 50.069) rotate(-66.557)" fill="#839b7b"/>
              <rect id="Rectangle_11495" data-name="Rectangle 11495" width="54.204" height="1.661" transform="translate(37.345 49.73) rotate(-66.557)" fill="#839b7b"/>
            </g>
          </g>
        </g>
      </g>
      <path id="Path_29753" data-name="Path 29753" d="M296.511,569.321a27.062,27.062,0,0,0,7.321,3.972c5.463,1.773,7.047-15.813,3.621-17.211-.787-.319-1.054-.645-3.115-2.764C303.277,552.225,293.591,567.18,296.511,569.321Z" transform="translate(-252.941 -488.521)" fill="#f97878"/>
      <g id="Group_31924" data-name="Group 31924" transform="translate(5.512 42.335)">
        <path id="Path_29754" data-name="Path 29754" d="M271.969,553.611s-4.015,3.739-11.414,1.947c-1.714-.416-6.49-1.583-6.49-1.583l-4.1-14.746,14.823-13.654a20.806,20.806,0,0,0-3.753-1.88l-12.628,12.057-2.456-17.586a8.549,8.549,0,0,0-3.515.608l2.908,19.21-8.152,9.631.779,34.707c0,3.251,11.613,8.955,13.913,9.713,5.618,1.873,9.161.479,11.68.391,3.845-.135,3.431-.763,3.431-2.314Zm-30.987-3.789,6.023-8,2.8,10.9Z" transform="translate(-237.192 -518.158)" fill="#31a05f"/>
      </g>
      <g id="Group_31927" data-name="Group 31927" transform="translate(0 0)">
        <g id="Group_31926" data-name="Group 31926">
          <path id="Path_29755" data-name="Path 29755" d="M240.718,465.545c-10.159,2.31-18.854,14.046-4.909,17.725,11.587,3.057,20.085-1.179,24.963-1.968,14.175-2.293,19.057-5.27,19.54-9.17C281.2,464.969,267.277,459.509,240.718,465.545Z" transform="translate(-228.555 -455.851)" fill="#ffc55d"/>
          <path id="Path_29756" data-name="Path 29756" d="M246.047,467.707a40.12,40.12,0,0,0,2.554-8.436c.4-3.009,2.322-6.488,4.9-7.27s5.324,1.359,8.42.968,6.008-1.977,8.055-.574,1.567,5.012,3.049,8.463c1.557,3.621,1.788,4.327,1.788,4.327s-2.194,3.4-10.064,4.516C252.37,471.45,246.047,467.707,246.047,467.707Z" transform="translate(-234.883 -451.826)" fill="#e09f36"/>
          <g id="Group_31925" data-name="Group 31925" transform="translate(11.164 11.661)">
            <path id="Path_29757" data-name="Path 29757" d="M265.128,473.531c-10.21,1.441-16.3-.848-18.12-1.7-.522,1.455-.962,2.482-.962,2.482s6.323,3.743,18.707,1.994c7.87-1.112,10.064-4.516,10.064-4.516s-.108-.331-.675-1.7C272.834,471.193,270.131,472.823,265.128,473.531Z" transform="translate(-246.047 -470.096)" fill="#754c29"/>
          </g>
        </g>
        <path id="Path_29758" data-name="Path 29758" d="M261.536,452.812c-1.319-.235-3.173-.49-3.186.394s1.411,3.267,5.111,2.42c4.046-.927,5.114-.165,7.037-.74,2.423-.725,2.857-1.981,1.066-2.2s-2,.056-5.187.561A11.335,11.335,0,0,1,261.536,452.812Z" transform="translate(-239.334 -452.102)" fill="#c4801e"/>
      </g>
    </g>
    <g transform="matrix(1, 0, 0, 1, 76.66, 61.21)" filter="url(#Subtraction_14)">
      <path id="Subtraction_14-2" data-name="Subtraction 14" d="M-1568.666-1760.7h-1.613a23.834,23.834,0,0,1-14.652-4.736c-3.914-3.054-6.069-7.115-6.069-11.435v-20.961c0-4.32,2.155-8.381,6.069-11.435a23.834,23.834,0,0,1,14.652-4.737h81.606a23.834,23.834,0,0,1,14.653,4.737c3.914,3.054,6.069,7.115,6.069,11.435v20.961c0,4.32-2.155,8.38-6.069,11.435a23.834,23.834,0,0,1-14.653,4.736h-56.992v-.067h-23v.067Z" transform="translate(1624 1820.5)" fill="#31a05f" stroke="rgba(0,0,0,0)" stroke-miterlimit="10" stroke-width="1"/>
    </g>
    <g transform="matrix(1, 0, 0, 1, 76.66, 61.21)" filter="url(#Intersection_1)">
      <path id="Intersection_1-2" data-name="Intersection 1" d="M-1567.748-1745.082h18.436c-1.832,7.679-1.591,15.107,3.2,23.131C-1557.11-1726.164-1563.424-1735.038-1567.748-1745.082Z" transform="translate(1687 1803.18)" fill="#31a05f"/>
    </g>
    <text id="Let_s_Negotiate" data-name="Let&apos;s Negotiate" transform="translate(119.69 99.358)" fill="#fafafa" stroke="rgba(31,84,195,0)" stroke-width="1" font-size="14" font-family="Poppins-Medium, Poppins" font-weight="500"><tspan x="0" y="0">Let&apos;s Negotiate</tspan></text>
  </g>
</svg>
