<svg xmlns="http://www.w3.org/2000/svg" xmlns:xlink="http://www.w3.org/1999/xlink" width="170.135" height="274.537" viewBox="0 0 170.135 274.537">
  <defs>
    <filter id="Path_29655" x="0" y="228.273" width="151.001" height="46.265" filterUnits="userSpaceOnUse">
      <feOffset dy="3" input="SourceAlpha"/>
      <feGaussianBlur stdDeviation="3" result="blur"/>
      <feFlood flood-opacity="0.161"/>
      <feComposite operator="in" in2="blur"/>
      <feComposite in="SourceGraphic"/>
    </filter>
  </defs>
  <g id="Group_32008" data-name="Group 32008" transform="translate(-97.932 -104.436)">
    <g id="Group_31968" data-name="Group 31968" transform="translate(106.932 338.708)" opacity="0.29" style="mix-blend-mode: multiply;isolation: isolate">
      <g transform="matrix(1, 0, 0, 1, -9, -234.27)" filter="url(#Path_29655)">
        <path id="Path_29655-2" data-name="Path 29655" d="M416.131,638.854c26.056,5.519,26.182,14.468.3,19.987s-67.987,5.519-94.041,0-26.192-14.467-.306-19.985S390.076,633.335,416.131,638.854Z" transform="translate(-293.76 -400.44)" fill="#231f20"/>
      </g>
    </g>
    <g id="Group_31836" data-name="Group 31836" transform="translate(385.494 12.158)">
      <g id="Group_31826" data-name="Group 31826" transform="translate(-202.727 276.634)">
        <path id="Path_29571" data-name="Path 29571" d="M-168.665,331.031C-169.1,337.292-173,357.49-173,357.49l-14.612,3.8s-1.124-1.606-.482-10.114,2.424-22.235,8.108-27.533Z" transform="translate(190.149 -323.646)" fill="#d1711f"/>
        <path id="Path_29572" data-name="Path 29572" d="M-181.373,325.642c-4.586,6.083-6.131,18.176-6.717,25.943-.642,8.508.482,10.114.482,10.114l4.307-1.121A133.539,133.539,0,0,1-181.373,325.642Z" transform="translate(190.149 -324.052)" fill="#c9620a"/>
        <path id="Path_29573" data-name="Path 29573" d="M-188.652,364.647s-1.726,3.572-.637,9.673c0,0,8.844,2.434,13.071,1.116,0,0,.7-.194,1.47-2.275.717-1.925,1.994-6.227,1.476-7.341C-173.273,365.821-181.454,368.139-188.652,364.647Z" transform="translate(190.426 -331.977)" fill="#ffcc9d"/>
        <path id="Path_29574" data-name="Path 29574" d="M-183.8,366.2a18.782,18.782,0,0,1-4.857-1.548s-1.726,3.572-.637,9.673a53.172,53.172,0,0,0,5.591,1.148C-183.91,372.383-183.816,369.257-183.8,366.2Z" transform="translate(190.426 -331.977)" fill="#ffba7a"/>
        <path id="Path_29575" data-name="Path 29575" d="M-189.637,374.857s.4,1.981,7.726,2.154c2.055.049,6.742.113,6.965-1.629,0,0,.951-1.033-.132,5.742-.838,5.238-2.276,13.846-2.276,13.846s7.442-.078,7.814,4.7h-20.951S-191.12,375.3-189.637,374.857Z" transform="translate(190.624 -334.052)" fill="#1d262d"/>
      </g>
      <g id="Group_31827" data-name="Group 31827" transform="translate(-238.938 279.318)">
        <path id="Path_29576" data-name="Path 29576" d="M-208.747,333.324c-.436,6.31-15.4,52.643-15.4,52.643h-7.12s-.647-22.837,0-31.412,5.532-22.2,11.261-27.541Z" transform="translate(235.151 -327.014)" fill="#d1711f"/>
        <path id="Path_29577" data-name="Path 29577" d="M-227.534,368.1c-.006-1.446,0-2.893.044-4.341a75.952,75.952,0,0,1,1.111-10.719,177.791,177.791,0,0,1,4.018-22.156c-4.661,6.362-8.35,17.434-8.906,24.8-.647,8.575,0,31.755,0,31.755h4.028A193.314,193.314,0,0,1-227.534,368.1Z" transform="translate(235.151 -327.8)" fill="#c9620a"/>
        <path id="Path_29578" data-name="Path 29578" d="M-231.812,367.957s-1.739,3.6-.642,9.749c0,0,8.913,2.453,13.174,1.125a14.5,14.5,0,0,0,2.969-9.692S-224.557,371.477-231.812,367.957Z" transform="translate(235.408 -335.333)" fill="#ffcc9d"/>
        <path id="Path_29579" data-name="Path 29579" d="M-227.985,369.337c0-.014,0-.026,0-.04a18.481,18.481,0,0,1-3.829-1.34s-1.739,3.6-.642,9.748c0,0,2.019.553,4.587.992C-228.019,375.584-227.992,372.458-227.985,369.337Z" transform="translate(235.408 -335.333)" fill="#ffba7a"/>
        <path id="Path_29580" data-name="Path 29580" d="M-233.266,378.43s.4,1.923,7.787,2.1c2.071.049,6.794.077,7.019-1.679,0,0,1.257-.131-.617,5.116a143.628,143.628,0,0,0-3.751,14.743s7.5-.7,7.875,4.877h-21.115S-234.76,378.882-233.266,378.43Z" transform="translate(236.068 -337.461)" fill="#1d262d"/>
      </g>
      <path id="Path_29581" data-name="Path 29581" d="M-195.844,315.22c2.733,4.033,17.758,4.135,21.57-.061s4.175-57.79,2.891-70.632l-39.112-2.3s-5.62,1.147-6.692,5.053c-4.074,14.837.051,20.386-2.528,32.472-3.5,16.38-4.682,29.647-4.122,30.852,5.194,11.184,20,8.117,21.983,5.771s7.088-43.969,7.088-43.969l2.837-.262C-192.361,283.981-197.745,312.416-195.844,315.22Z" transform="translate(-5.328 -30.468)" fill="#7a821c"/>
      <path id="Path_29582" data-name="Path 29582" d="M-222.845,312.422c.484-3.191,1.031-6.372,1.684-9.536,1.619-7.844,4.6-15.282,6.258-23.135,1.723-8.135,1.8-16.094,2.338-24.338a71.721,71.721,0,0,1,1.631-13.051c-1.331.359-5.362,1.7-6.254,4.946-4.074,14.837.051,20.386-2.528,32.472-3.5,16.38-4.682,29.647-4.122,30.852A14.57,14.57,0,0,0-222.845,312.422Z" transform="translate(-5.328 -30.495)" fill="#717a00"/>
      <path id="Path_29583" data-name="Path 29583" d="M-194.2,276.2a23.089,23.089,0,0,0,5.483,2.5l2.837-.262c-.049,1.331-.162,2.88-.318,4.57a.782.782,0,0,1-.025.279c-1.265,13.38-5.246,35.756-3.571,38.227a7.054,7.054,0,0,0,4.006,2.286c-1.505-4.375-.848-9.5-.348-14.265,1.215-11.6,1.622-18.385,3.317-29.935.131-.895,3.658-3.373,4.131-6.386C-181.688,276.393-185.523,277.616-194.2,276.2Z" transform="translate(-11.377 -36.765)" fill="#717a00"/>
      <path id="Path_29584" data-name="Path 29584" d="M-162.686,246.724a55.309,55.309,0,0,0,3.256,14.637,18.552,18.552,0,0,0,.991,2.092c-.061-8.011-.292-14.807-.652-18.4l-4.378-.258A3.465,3.465,0,0,1-162.686,246.724Z" transform="translate(-17.621 -30.989)" fill="#656b17"/>
      <path id="Path_29585" data-name="Path 29585" d="M-223.862,323.055a14.155,14.155,0,0,0,.025,3.973c5.2,11.184,20,8.117,21.983,5.771.418-.493.974-2.739,1.591-5.957C-206.689,330.2-217.918,328.033-223.862,323.055Z" transform="translate(-5.328 -46.891)" fill="#656b17"/>
      <path id="Path_29586" data-name="Path 29586" d="M-208.558,260.927c4.225-3.175,6.876-9.41,8.088-14.341a3.281,3.281,0,0,1,1.489-2.135q.2-.8.454-1.593l-10.726-.63s-5.62,1.147-6.692,5.053a50.161,50.161,0,0,0-1.872,15.9C-214.491,263.413-211.206,262.916-208.558,260.927Z" transform="translate(-6.571 -30.468)" fill="#656b17"/>
      <path id="Path_29587" data-name="Path 29587" d="M-217.21,254.985c1.061-.021,5.488-5.9,6.447-6.96A69.788,69.788,0,0,0-206.2,242.4l-2.959-.174s-5.62,1.147-6.692,5.053A53.027,53.027,0,0,0-217.4,255C-217.333,255-217.275,254.986-217.21,254.985Z" transform="translate(-6.663 -30.468)" fill="#535900"/>
      <path id="Path_29588" data-name="Path 29588" d="M-188.994,325.328c-.274,3.445-.275,5.911.219,6.639,2.733,4.033,17.758,4.135,21.57-.061.732-.806,1.336-3.445,1.827-7.26C-172.714,328.661-182.935,330.24-188.994,325.328Z" transform="translate(-12.397 -47.215)" fill="#656b17"/>
      <path id="Path_29589" data-name="Path 29589" d="M-166.847,204.149c-2.436,6.654-2.436,15.314,0,21.267,0,0-16.237,12.719-44.652-1.353l24.492-83.215,16.041,2.542,11.917,31.661-7.8,29.1" transform="translate(-7.862 -9.869)" fill="#ffcc9d"/>
      <path id="Path_29590" data-name="Path 29590" d="M-188.65,147.852-211.5,225.486a67.334,67.334,0,0,0,13.452,5.045c1.2-5.809,4.3-10.872,7.865-15.7,4.04-5.477,7.132-10.513,8.743-17.225,2.889-12.035,1.477-24.758.671-37.158A48.823,48.823,0,0,0-188.65,147.852Z" transform="translate(-7.862 -11.292)" fill="#ffba7a"/>
      <g id="Group_31828" data-name="Group 31828" transform="translate(-250.191 189.526)">
        <path id="Path_29591" data-name="Path 29591" d="M-240.92,214.325a103.95,103.95,0,0,0-6.134,31.293s-2.345,4.335-3.022,5.823,1.759,3.248,3.653,4.6,4.88,1.759,5.417,0,1.9-6.412,1.022-8.982,7.407-14.877,9.347-29.265h0l-10.284-3.469" transform="translate(250.191 -214.325)" fill="#d1711f"/>
        <path id="Path_29592" data-name="Path 29592" d="M-241.941,253.992c-7.126-.523-3.232-10.874-2.437-14.636,1.68-7.946,3.163-16.5,6.4-24.037l-2.947-.994a103.95,103.95,0,0,0-6.134,31.293s-2.345,4.335-3.022,5.823,1.759,3.248,3.653,4.6,4.88,1.759,5.417,0c.16-.526.394-1.313.621-2.222A4.183,4.183,0,0,1-241.941,253.992Z" transform="translate(250.191 -214.325)" fill="#c9620a"/>
      </g>
      <path id="Path_29593" data-name="Path 29593" d="M-192.86,140.848s-27.468,6.582-34.323,17.611-10.465,27.988-10.1,37.37l9.382,3.567a140.26,140.26,0,0,0,9.2-19.263s-2.345,14.455-3.428,23.093-6.495,16.057-12.268,22.19-8.348,14.794-2.912,28.145c0,0,1.108-9.743,12.293-20.206S-201,215.49-192.86,202.871C-181.922,185.919-177.751,164.933-192.86,140.848Z" transform="translate(-2.009 -9.869)" fill="#7a821c"/>
      <path id="Path_29594" data-name="Path 29594" d="M-234.4,235.889c-5.534,5.88-8.108,14.091-3.527,26.517-.338-10.184.853-15.965,6.91-25.029,4.489-6.717,10.127-16.527,11.6-24.752,1.191-6.65.517-13.495.427-20.235-.659,4.128-2.29,14.515-3.142,21.308C-223.211,222.337-228.624,229.755-234.4,235.889Z" transform="translate(-2.013 -20.342)" fill="#717a00"/>
      <path id="Path_29595" data-name="Path 29595" d="M-217.384,162.441c7.3-8.535,16.535-14.676,26.333-19.862-.341-.576-.683-1.151-1.046-1.731,0,0-27.468,6.582-34.323,17.611s-10.465,27.988-10.1,37.37l5.247,1.994C-231.8,185.357-225.1,171.466-217.384,162.441Z" transform="translate(-2.772 -9.869)" fill="#717a00"/>
      <path id="Path_29596" data-name="Path 29596" d="M-191.8,140.848s-1.8.432-4.578,1.254c3.944,12.88,2.261,27.06-1.9,39.825.15.053,6.479-1.253,6.112,5.755-.682,13.022-13.931,23.843-37,46.325-4.231,4.123-5.3,9.851-5.921,15.328,1.411-3.815,4.484-9.761,11.133-15.98,11.186-10.465,24.017-17.864,32.158-30.484C-180.864,185.919-176.692,164.933-191.8,140.848Z" transform="translate(-3.068 -9.869)" fill="#656b17"/>
      <g id="Group_31829" data-name="Group 31829" transform="translate(-241.006 182.534)">
        <path id="Path_29597" data-name="Path 29597" d="M-236.924,205.549a10.393,10.393,0,0,0-1.654,6.993s7.939,3.65,10.284,3.469a8.543,8.543,0,0,0,2.29-6.262S-229.317,206.272-236.924,205.549Z" transform="translate(238.664 -205.549)" fill="#ffcc9d"/>
        <path id="Path_29598" data-name="Path 29598" d="M-231.207,206.78a23.724,23.724,0,0,0-5.716-1.231,10.393,10.393,0,0,0-1.654,6.993s1.6.734,3.571,1.527A7.9,7.9,0,0,1-231.207,206.78Z" transform="translate(238.664 -205.549)" fill="#ffba7a"/>
      </g>
      <path id="Path_29599" data-name="Path 29599" d="M-161.8,143.508s24.528,8.637,34.82,23.273c0,0,3.789,7.217,3.247,12.449,0,0-11.727,1.5-25.077-5.747,0,0-1.082,22.93-7.938,31.206,0,0,6.134-20.047,1.984-38.269s-7.036-21.9-7.036-21.9" transform="translate(-17.96 -10.409)" fill="#7a821c"/>
      <path id="Path_29600" data-name="Path 29600" d="M-156.1,202.4c1-3.025,2.14-6,3.137-9.044,1.788-5.457,2.123-11.262,2.078-16.9a22.576,22.576,0,0,1,.495-6.68c.1-.679,1.308-3.469,1.44-4.142-2.606-2.37-3.269-5.231-4.415-8.707-1.673-5.074-5.367-11.411-8.434-12.872v.575s2.887,3.682,7.036,21.9C-151.476,180.971-154.643,196.548-156.1,202.4Z" transform="translate(-17.96 -10.52)" fill="#656b17"/>
      <g id="Group_31830" data-name="Group 31830" transform="translate(-143.667 120.912)">
        <path id="Path_29601" data-name="Path 29601" d="M-109.031,174.85c2.074-2.39,11.483-21.28,2.147-39.614,0,0-.126-2.692-.668-7.022l-8.533.6s.541,4.571,4.04,6.531a90.427,90.427,0,0,0-4.454,28.039Z" transform="translate(116.503 -128.214)" fill="#d1711f"/>
        <path id="Path_29602" data-name="Path 29602" d="M-113.565,157.352c1.3-7.107,1.352-15.462,5.383-21.672a3.594,3.594,0,0,1,1.252-1.208c-.074-1.088-.25-3.288-.622-6.257l-8.533.6s.541,4.571,4.04,6.531a90.427,90.427,0,0,0-4.454,28.039l1.574,2.417C-114.555,162.976-114.078,160.161-113.565,157.352Z" transform="translate(116.503 -128.214)" fill="#c9620a"/>
      </g>
      <path id="Path_29603" data-name="Path 29603" d="M-115.953,172.683a1.924,1.924,0,0,0-2.165-.045s-.812,8.885,3.247,12.449c0,0,4.6.722,5.684-1.578C-109.187,183.507-111.376,175.273-115.953,172.683Z" transform="translate(-26.822 -16.265)" fill="#ffcc9d"/>
      <path id="Path_29604" data-name="Path 29604" d="M-181.773,140.534a2.5,2.5,0,0,1,1.482-2.233,21.5,21.5,0,0,0,11.366,6.224,20.855,20.855,0,0,0-2.436,2.977,7.331,7.331,0,0,0-.973,3.382S-179.743,146.217-181.773,140.534Z" transform="translate(-13.902 -9.351)" fill="#fff"/>
      <path id="Path_29605" data-name="Path 29605" d="M-165.649,145.352s3-.879,3.067-2.981l.932,1.328s1.958,2.193-.932,6.659C-162.582,150.358-162.348,146.229-165.649,145.352Z" transform="translate(-17.178 -10.178)" fill="#fff"/>
      <g id="Group_31831" data-name="Group 31831" transform="translate(-197.047 101.062)">
        <path id="Path_29606" data-name="Path 29606" d="M-166.26,135.018l.451-2.7s7.359.363,8.351-2.66c.824-2.509,5.335-19.755-9.645-25.167s-20.208,8.43-13.537,26.7c0,0,6.9,7.053,11.366,6.224C-166.187,136.841-166.26,135.018-166.26,135.018Z" transform="translate(183.495 -103.302)" fill="#d1711f"/>
        <path id="Path_29607" data-name="Path 29607" d="M-165.955,134.133a21.148,21.148,0,0,1-7.9-1.649c-4.24-1.832-6.768-4.986-6.99-9.626a107.89,107.89,0,0,1,.033-14.944c-3.56,4.781-3.641,13.77.172,24.213,0,0,6.9,7.053,11.366,6.224,3.088-.573,3.015-2.4,3.015-2.4Z" transform="translate(183.494 -104.24)" fill="#c9620a"/>
      </g>
      <path id="Path_29608" data-name="Path 29608" d="M-185.687,118.773a45.729,45.729,0,0,0,3.324,11.067s.6-7.8,2.334-8.931,4.962,1.261,6.52-4.794Z" transform="translate(-13.107 -4.843)" fill="#1d262d"/>
      <g id="Group_31832" data-name="Group 31832" transform="translate(-206.59 92.278)">
        <path id="Path_29609" data-name="Path 29609" d="M-187.373,109.5s-8.118,6.853-8.1,10.378c.024,4.188,43.274-18.4,42.914-19.853s-6.143-2.414-16.274.061A56.066,56.066,0,0,0-187.373,109.5Z" transform="translate(195.471 -93.555)" fill="#7a821c"/>
        <path id="Path_29610" data-name="Path 29610" d="M-167.941,95.75a36.356,36.356,0,0,1-6.872,5.137c-4,2.606-8.578,5.184-13.245,6.415a21.529,21.529,0,0,0,.245,3.593c13.581-2.7,23.955-12.13,23.955-12.13A26.067,26.067,0,0,0-167.941,95.75Z" transform="translate(193.965 -92.984)" fill="#ffcc9d"/>
        <path id="Path_29611" data-name="Path 29611" d="M-166.94,95.679c-3.53-2.343-9.512-5.15-14.834-1.988-5.4,3.206-6.295,9.352-6.286,13.171A57.129,57.129,0,0,0-166.94,95.679Z" transform="translate(193.965 -92.278)" fill="#656b17"/>
      </g>
      <g id="Group_31835" data-name="Group 31835" transform="translate(-181.864 100.544)">
        <ellipse id="Ellipse_3174" data-name="Ellipse 3174" cx="2.233" cy="1.973" rx="2.233" ry="1.973" transform="translate(0 17.948) rotate(-88.36)" fill="#1d262d"/>
        <path id="Path_29612" data-name="Path 29612" d="M-150.346,116.616a2.116,2.116,0,0,1-2.037,2.175,2.116,2.116,0,0,1-1.908-2.288,2.115,2.115,0,0,1,2.037-2.175A2.115,2.115,0,0,1-150.346,116.616Z" transform="translate(162.379 -105.024)" fill="#1d262d"/>
        <g id="Group_31833" data-name="Group 31833" transform="translate(8.985 0)">
          <path id="Path_29613" data-name="Path 29613" d="M-102.832,119.883l-49.047-4.108a1.478,1.478,0,0,1-1.285-1.433h0a1.478,1.478,0,0,1,1.22-1.489l48.738-9.7Z" transform="translate(153.164 -102.754)" fill="#474d00"/>
          <path id="Path_29614" data-name="Path 29614" d="M-151.242,114.631c-.4.105-.794.194-1.189.307a2.769,2.769,0,0,1-.727.1,1.475,1.475,0,0,0,1.28,1.409l49.048,4.108-.315-14.082C-108.141,107.388-143.972,114.241-151.242,114.631Z" transform="translate(153.163 -103.429)" fill="#33360c"/>
          <ellipse id="Ellipse_3175" data-name="Ellipse 3175" cx="4.422" cy="8.713" rx="4.422" ry="8.713" transform="matrix(1, -0.022, 0.022, 1, 46.222, 0.197)" fill="#656b17"/>
          <path id="Path_29615" data-name="Path 29615" d="M-89.637,119.435c-1.479.033-3.2-3.092-3.3-7.627s1.476-7.735,2.955-7.767,3.2,3.091,3.3,7.628S-88.158,119.4-89.637,119.435Z" transform="translate(140.927 -102.934)" fill="#1d262d"/>
        </g>
        <g id="Group_31834" data-name="Group 31834" transform="translate(0.949 7.904)">
          <path id="Path_29616" data-name="Path 29616" d="M-114.527,130.781l-47.43-8.732a1.579,1.579,0,0,1-1.292-1.6h0a1.578,1.578,0,0,1,1.382-1.52l47.852-6Z" transform="translate(163.25 -112.644)" fill="#555c00"/>
          <path id="Path_29617" data-name="Path 29617" d="M-162.973,120.412a1.54,1.54,0,0,0-.275.8,1.578,1.578,0,0,0,1.292,1.6l47.43,8.732.425-14.857C-130.407,117.646-146.7,119.59-162.973,120.412Z" transform="translate(163.25 -113.408)" fill="#33360c"/>
          <path id="Path_29618" data-name="Path 29618" d="M-97.345,122c-.147,5.135-2.378,9.236-4.984,9.162s-4.6-4.3-4.452-9.432,2.378-9.236,4.984-9.161S-97.2,116.87-97.345,122Z" transform="translate(151.777 -112.572)" fill="#656b17"/>
          <path id="Path_29619" data-name="Path 29619" d="M-101.57,130.37c-1.578-.045-3.24-3.469-3.1-8.31s1.994-8.164,3.572-8.119,3.24,3.469,3.1,8.311S-99.991,130.415-101.57,130.37Z" transform="translate(151.349 -112.85)" fill="#1d262d"/>
        </g>
      </g>
    </g>
  </g>
</svg>
