<svg xmlns="http://www.w3.org/2000/svg" width="375.999" height="274.901" viewBox="0 0 375.999 274.901">
  <g id="Group_32010" data-name="Group 32010" transform="translate(0 -80.099)">
    <path id="Path_29891" data-name="Path 29891" d="M343.071,336.89l10.837-1.2-10.837-97.717V92.72H326.963l-.466-4.2-37.867,4.2H154.172v14.911l-15.423,1.71,15.423,139.071V341.4h10.313l1.675,15.106L302.377,341.4h40.694Z" transform="translate(-58.396 -1.509)" opacity="0.36"/>
    <path id="Path_29892" data-name="Path 29892" d="M277.6,403.983l1.732,6.991-13.539,3.493,1.031,4-6.694,2.055a11.547,11.547,0,0,1-9.5-1.241l-31.057-19.37a16.334,16.334,0,0,0-14.012-1.567l-16.9,5.882-11.834-2.536a13,13,0,0,0-10.444,2.254l-27.216,20.1a7.442,7.442,0,0,1-6.939,1.017l-10.788-3.879.894-3.468-13.539-3.492,1.732-6.991L0,379.853v82.324l91.291,22.615.218-.878.019,0,2.538-10.245,12.97,3.346,1.893-7.338,25.431,10.486-.013.013,1.174.484.013-.013.033.013h0l0,0L146.9,468.972l-11.618,12.084c-6.384,6.64-.906,17.879,8.211,16.563A18.846,18.846,0,0,0,148.674,496s1.678,13.993,16.4,12.89c0,0,2,14.155,18.309,10.691h0a6.539,6.539,0,0,0,.488.729l.117.152a11.041,11.041,0,0,0,9.133,4.148h.022a15.318,15.318,0,0,0,2.217-.213l.215-.038a25.756,25.756,0,0,0,8.531-3.441l3.085,3.1c4.2,4.22,10.712,4.442,14.554.5l.141-.145c3.841-3.946,3.557-10.564-.636-14.785l.773.777A9.485,9.485,0,0,0,235.6,510.3l1.687-1.733a9.826,9.826,0,0,0,2.645-8.379,10.752,10.752,0,0,0,8.663-3.237l.155-.159a11.2,11.2,0,0,0,1.875-12.973,9.473,9.473,0,0,0,8.846-2.662,9.813,9.813,0,0,0,2.736-7.617l17.42-5.442,1.463,5.672,12.97-3.346,2.538,10.245.019,0,.218.879L376,461.931V379.607Z" transform="translate(0 -241.107)" opacity="0.36"/>
    <rect id="Rectangle_11502" data-name="Rectangle 11502" width="188.899" height="248.682" transform="translate(79.704 100.92) rotate(-6.328)" fill="#ede2d9"/>
    <path id="Path_29893" data-name="Path 29893" d="M253.583,100.6l-72.125,8V249.384l11.079,99.9h74.793L370.358,337.86V238.941L355.016,100.6Z" transform="translate(-86.344 -9.416)" fill="#b7ac9a" opacity="0.66"/>
    <rect id="Rectangle_11503" data-name="Rectangle 11503" width="188.899" height="248.682" transform="translate(95.127 84.299)" fill="#fff"/>
    <line id="Line_603" data-name="Line 603" x2="124.306" transform="translate(127.32 149.046)" fill="none" stroke="#b9c9bc" stroke-miterlimit="10" stroke-width="7"/>
    <line id="Line_604" data-name="Line 604" x2="145.044" transform="translate(116.951 169.784)" fill="none" stroke="#b9c9bc" stroke-miterlimit="10" stroke-width="7"/>
    <line id="Line_605" data-name="Line 605" x2="145.044" transform="translate(116.951 159.415)" fill="none" stroke="#b9c9bc" stroke-miterlimit="10" stroke-width="7"/>
    <line id="Line_606" data-name="Line 606" x2="145.044" transform="translate(116.951 189.448)" fill="none" stroke="#b9c9bc" stroke-miterlimit="10" stroke-width="7"/>
    <line id="Line_607" data-name="Line 607" x2="145.044" transform="translate(116.951 179.079)" fill="none" stroke="#b9c9bc" stroke-miterlimit="10" stroke-width="7"/>
    <line id="Line_608" data-name="Line 608" x2="34.44" transform="translate(227.166 301.126)" fill="none" stroke="#b9c9bc" stroke-miterlimit="10" stroke-width="7"/>
    <line id="Line_609" data-name="Line 609" x2="34.44" transform="translate(227.166 290.757)" fill="none" stroke="#b9c9bc" stroke-miterlimit="10" stroke-width="7"/>
    <g id="Group_31987" data-name="Group 31987" transform="translate(116.451 265.176)">
      <path id="Path_29894" data-name="Path 29894" d="M293,637.768a25.579,25.579,0,1,1-16.031-32.428A25.608,25.608,0,0,1,293,637.768Zm-47.416-16.044a24.478,24.478,0,1,0,31.032-15.341A24.505,24.505,0,0,0,245.584,621.724Z" transform="translate(-243.19 -603.989)" fill="#31a05f"/>
    </g>
    <g id="Group_31988" data-name="Group 31988" transform="translate(154.723 284.403)">
      <path id="Path_29895" data-name="Path 29895" d="M362.184,673.061a22.011,22.011,0,0,1-7.544,10.506l-.721-.948a20.942,20.942,0,0,0,7.361-22.659l1.141-.343A21.974,21.974,0,0,1,362.184,673.061Z" transform="translate(-353.918 -659.616)" fill="#31a05f"/>
    </g>
    <g id="Group_31989" data-name="Group 31989" transform="translate(119.9 273.159)">
      <path id="Path_29896" data-name="Path 29896" d="M255.248,650.695l-1.141.343a22.135,22.135,0,0,1,7.781-23.951l.721.948a20.942,20.942,0,0,0-7.361,22.66Z" transform="translate(-253.168 -627.087)" fill="#31a05f"/>
    </g>
    <g id="Group_31990" data-name="Group 31990" transform="translate(123.935 272.208)">
      <path id="Path_29897" data-name="Path 29897" d="M300.743,648.68a18.435,18.435,0,1,1-11.554-23.372A18.456,18.456,0,0,1,300.743,648.68Zm-33.8-11.436a17.244,17.244,0,1,0,21.861-10.807A17.264,17.264,0,0,0,266.946,637.245Z" transform="translate(-264.844 -624.335)" fill="#31a05f"/>
    </g>
    <line id="Line_610" data-name="Line 610" x2="145.044" transform="translate(117.054 198.626)" fill="none" stroke="#b9c9bc" stroke-miterlimit="10" stroke-width="7"/>
    <line id="Line_611" data-name="Line 611" x2="145.044" transform="translate(117.054 218.29)" fill="none" stroke="#b9c9bc" stroke-miterlimit="10" stroke-width="7"/>
    <line id="Line_612" data-name="Line 612" x2="145.044" transform="translate(117.054 207.921)" fill="none" stroke="#b9c9bc" stroke-miterlimit="10" stroke-width="7"/>
    <circle id="Ellipse_3176" data-name="Ellipse 3176" cx="14.413" cy="14.413" r="14.413" transform="translate(121.648 290.757) rotate(-45)" fill="#31a05f"/>
    <g id="Group_31992" data-name="Group 31992" transform="translate(213.45 279.472)">
      <path id="Path_29906" data-name="Path 29906" d="M578.711,659.144a39.42,39.42,0,0,1-9.7,6.427,10.981,10.981,0,0,1-2.546.813c-1.257.2-2.086.045-2.618-1.185-.574-1.324.012-2.636-.168-4.063-.026-.205-.126-.57-.385-.588-1.042-.071-2.015,1.056-2.759,1.7-.562.489-1.09,1.005-1.6,1.54a6.853,6.853,0,0,0-.167-4.347c-.064-.138-.223-.3-.389-.206-2.256,1.344-4.1,3.626-5.834,5.571-.417.468-.824.943-1.229,1.419a2.51,2.51,0,0,0-.1-.468,6.513,6.513,0,0,0,1.253-1.307c.887-1.295,1.475-3.374.7-4.868-1.141-2.212-3.548-.768-4.854.494-.362.349-.122,1.889.4,1.382.5-.479,1.936-1.829,2.768-1.47l1.1,1.932q-.17.412-.339.824a4.753,4.753,0,0,1-1.2,1.416,6.5,6.5,0,0,1-1.281.836,3.161,3.161,0,0,0-.486.142.3.3,0,0,0-.1.065,1.572,1.572,0,0,1-.426.047c-1.487-.08-1.072-2.246-.7-3.345.084-.245-.13-1.681-.547-1.094a18.381,18.381,0,0,1-1.564,2.083c-.731.776-2.032,2.309-3.137,2.556-.47.105-1.05.112-1.189-.656a3.88,3.88,0,0,1,.381-1.089,21.024,21.024,0,0,0,1.1-2.937c.075-.315.134-1.145-.345-1.2-1.258-.155-2.9.769-4.078,1.144-.971.31-1.923.649-2.861,1.028.036-.4.058-.8.065-1.192.057-3.209-.869-6.883.2-9.987a4.95,4.95,0,0,1,3.527-3.067c.844-.273,3.413-.962,4.523-.271.057.266.185.464.372.432l.159-.027c.576-.1.432-1.161.2-1.491-.9-1.283-3.612-.686-4.8-.376a6.181,6.181,0,0,0-4.245,2.941c-2.072,4.108-.383,8.95-.861,13.4-.366.161-.729.329-1.089.508a33.372,33.372,0,0,0-7.661,5.071c-1.307,1.195-2.836,3.126-2.276,5.061.588,2.032,2.782,1.549,4.3.945,4.112-1.639,6.539-5.925,7.349-10.216.964-.41,1.945-.772,2.951-1.1a27.514,27.514,0,0,1,3.417-1.159c-.794,1.838-2.123,4.536-.9,5.844,1.32,1.412,3.869-1.123,5.5-3.091a2.567,2.567,0,0,0,.81,2.642,2.5,2.5,0,0,0,2.531-.014c.368-.015.54.234.581.638-1.217,1.482-2.384,3-3.487,4.575a31.646,31.646,0,0,0-3.884,6.641c-.35.909-1.055,2.471-.527,3.431,1.317,2.4,6.645-7.615,7.124-8.74a26.651,26.651,0,0,0,1.488-4.9c.724-.87,1.461-1.729,2.223-2.566a48.756,48.756,0,0,1,3.944-4.011c1.483-1.289.932.786.674,1.763a10.663,10.663,0,0,1-1.174,2.957c-.267.41.038,1.94.4,1.381a18.863,18.863,0,0,1,2.66-3.2c.655-.636,1.911-2.139,3.006-2.377-.039,1.405-.676,2.814-.047,4.192.753,1.651,2.544,1.866,4.141,1.5,4.557-1.052,8.6-4.4,12.083-7.346C579.5,660.2,579.278,658.664,578.711,659.144Zm-44.13,4.97a12.844,12.844,0,0,1-4.98,7.208c-.943.614-2.476,1.47-3.636,1.317-2.534-.333-.049-2.929.663-3.579a32.706,32.706,0,0,1,7.469-4.909c.18-.09.362-.17.543-.255C534.62,663.968,534.6,664.041,534.581,664.114Zm14.426,8.215a32.065,32.065,0,0,1-3.018,5.365,18.932,18.932,0,0,1-2.006,2.521c-.639.652-.784.876-.508-.038a20.451,20.451,0,0,1,2.737-5.261q1.8-2.692,3.812-5.228C549.646,670.858,549.155,671.99,549.007,672.329Z" transform="translate(-523.829 -645.351)" fill="#001d4f"/>
      <path id="Path_29907" data-name="Path 29907" d="M578.231,672.181a2.091,2.091,0,0,0,.595,2.6c.455.428.664-.884.346-1.183a2.455,2.455,0,0,1-.476-.484c.041.015.127-.113.151-.127a3.874,3.874,0,0,0,.406-.364,3.9,3.9,0,0,1,1.413-.807c.5-.112.413-1.464,0-1.371A4.157,4.157,0,0,0,578.231,672.181Z" transform="translate(-559.27 -661.77)" fill="#001d4f"/>
    </g>
    <path id="Path_29908" data-name="Path 29908" d="M409.82,424.185l-26.554,6.578L385,437.754l-13.539,3.492,1.031,4L365.8,447.3a11.544,11.544,0,0,1-9.5-1.241l-31.057-19.369a16.333,16.333,0,0,0-14.012-1.567L294.328,431l-11.834-2.536a13,13,0,0,0-10.444,2.254l-27.216,20.1a7.44,7.44,0,0,1-6.939,1.017l-10.788-3.879L228,444.5,214.462,441l1.732-6.991-34.7-8.6v82.323l15.467,3.832.218-.879.019.005,2.538-10.245,12.97,3.346,1.893-7.338,25.431,10.486-.013.013,1.174.484.013-.014.033.014,0-.005,11.333-11.687-11.618,12.084c-6.384,6.64-.906,17.879,8.211,16.563a18.858,18.858,0,0,0,5.179-1.616s1.678,13.993,16.4,12.89c0,0,2,14.155,18.309,10.691h0a6.559,6.559,0,0,0,.488.729l.117.152a11.041,11.041,0,0,0,9.133,4.147h.022a15.275,15.275,0,0,0,2.217-.213l.215-.038a25.764,25.764,0,0,0,8.531-3.441l3.085,3.1c4.2,4.22,10.712,4.442,14.554.5l.141-.145c3.842-3.946,3.557-10.565-.636-14.785l.773.778a9.485,9.485,0,0,0,13.568-.069l1.687-1.733a9.826,9.826,0,0,0,2.645-8.379,10.752,10.752,0,0,0,8.663-3.236l.155-.159a11.2,11.2,0,0,0,1.875-12.973,9.472,9.472,0,0,0,8.846-2.661,9.813,9.813,0,0,0,2.736-7.617l17.42-5.442,1.463,5.672,12.97-3.345,2.538,10.245.019,0,.218.878,12.657-3.961Z" transform="translate(-105.67 -267.062)" fill="#6d645b" opacity="0.4"/>
    <path id="Path_29909" data-name="Path 29909" d="M367.331,470.544,313.5,526.531c-6.384,6.64-.906,17.879,8.211,16.563a18.844,18.844,0,0,0,5.179-1.616s1.678,13.993,16.4,12.89c0,0,2,14.155,18.31,10.691,0,0,7.912,14.629,30.275-6,11.034-10.181,47.533-39.726,47.533-39.726Z" transform="translate(-180.917 -294.053)" fill="#efb892"/>
    <path id="Path_29910" data-name="Path 29910" d="M525.446,393l-80.639,24.746a11.543,11.543,0,0,1-9.5-1.241l-31.057-19.369a16.333,16.333,0,0,0-14.012-1.567l-34.7,12.079L373.8,422.294l-53.831,55.987c-6.384,6.64-.906,17.879,8.211,16.563a18.857,18.857,0,0,0,5.179-1.616s1.678,13.993,16.4,12.89c0,0,2,14.155,18.309,10.691,0,0,7.913,14.629,30.275-6,11.033-10.18,47.533-39.726,47.533-39.726l93.678-29.267Z" transform="translate(-184.682 -248.905)" fill="#f6c8a8"/>
    <path id="Path_29911" data-name="Path 29911" d="M469.655,458.565c7.39-3.444,6.133-9.81,3.137-12.139L450.23,428.463a20.036,20.036,0,0,0-8.282-3.917l-22.519-4.825L410.3,422.9l18.259,14.647-14.81,15.4c2.185-.118,13.1-.9,22.091-5.1C435.837,447.85,453.77,465.967,469.655,458.565Z" transform="translate(-238.884 -264.463)" fill="#efb892"/>
    <path id="Path_29912" data-name="Path 29912" d="M359.37,435.088l-22.561-17.963a20.034,20.034,0,0,0-8.282-3.917l-30.1-6.451a12.994,12.994,0,0,0-10.443,2.254l-27.216,20.1a7.442,7.442,0,0,1-6.939,1.017L212.87,415.405l-4.018,50.405,48.312,19.921,42.762-44.1s12.446-.432,22.489-5.119c0,0,17.933,18.117,33.818,10.716C363.623,443.783,362.366,437.417,359.37,435.088Z" transform="translate(-121.598 -256.746)" fill="#d1711f"/>
    <path id="Path_29913" data-name="Path 29913" d="M351.589,473.44c-12.734.127-27.854-15.139-28.222-15.228,0,0-10.995,10.382-30.964,5.607,0,0-3.244,11.772-21.813,32.963a12.513,12.513,0,0,1-13.993,3.38c-1.845-.727-3.914-1.477-6.127-2.252a12.8,12.8,0,0,1-8.561-12.522l1.128-32.238c-14.231-4.945-33.362,29.913-32.885,23.264l-1.3,16.3,47.105,19.423-.013.013,1.174.484.013-.014.033.014,7.792-8.083,34.925-36.018s12.445-.432,22.489-5.119c-.082-.023,17.712,18.056,33.818,10.716a9.1,9.1,0,0,0,5.057-4.768C360.26,471.236,356.879,473.387,351.589,473.44Z" transform="translate(-121.599 -283.644)" fill="#c9620a"/>
    <path id="Path_29914" data-name="Path 29914" d="M453.49,548.434c-13.579-13.213-10.618-21.492-10.618-21.492L514.778,492.9l.1-.022a11.877,11.877,0,0,0,9.293-12.228l-1.776-33.329,87.584,24.5.469,1.622L516.769,502.7s-36.5,29.545-47.532,39.726c-22.363,20.633-30.275,6-30.275,6S445.194,555.116,453.49,548.434Z" transform="translate(-255.574 -280.529)" fill="#efb892"/>
    <g id="Group_31993" data-name="Group 31993" transform="translate(146.358 213.426)">
      <path id="Path_29915" data-name="Path 29915" d="M352.127,592.678l34.135-31.958c.985-.922-.5-2.4-1.477-1.477L350.65,591.2c-.985.922.5,2.4,1.477,1.477Z" transform="translate(-350.325 -558.952)" fill="#efb892"/>
    </g>
    <g id="Group_31994" data-name="Group 31994" transform="translate(162.771 226.479)">
      <path id="Path_29916" data-name="Path 29916" d="M391.405,623.759l32.837-31.785c.97-.938-.509-2.414-1.477-1.477l-32.837,31.785c-.969.938.509,2.414,1.477,1.477Z" transform="translate(-389.612 -590.197)" fill="#efb892"/>
    </g>
    <g id="Group_31995" data-name="Group 31995" transform="translate(181.08 240.883)">
      <path id="Path_29917" data-name="Path 29917" d="M435.23,654.523l29.056-28.073c.97-.937-.508-2.413-1.477-1.477l-29.056,28.073c-.97.938.508,2.413,1.477,1.477Z" transform="translate(-433.436 -624.673)" fill="#efb892"/>
    </g>
    <path id="Path_29918" data-name="Path 29918" d="M450.828,573.214l.14-.145c3.843-3.946,10.358-3.725,14.553.494l-.775-.78a9.865,9.865,0,0,1-.074-13.791l1.687-1.733a9.473,9.473,0,0,1,8.215-2.777,11.138,11.138,0,0,1,3.093-8.838l.155-.159a10.758,10.758,0,0,1,15.391-.078l2.032,2.045a9.823,9.823,0,0,1,2.677-8.167,9.483,9.483,0,0,1,13.567-.069l8.811,8.863a9.866,9.866,0,0,1,.074,13.791,9.471,9.471,0,0,1-8.846,2.662,11.2,11.2,0,0,1-1.875,12.973l-.155.159a10.753,10.753,0,0,1-8.663,3.236,9.828,9.828,0,0,1-2.645,8.378l-1.687,1.733a9.484,9.484,0,0,1-13.568.069l-9.094-9.148,8.318,8.368c4.2,4.221,4.481,10.841.639,14.789l-.141.145c-3.842,3.947-10.358,3.725-14.554-.5L451.467,588C447.271,583.781,446.985,577.161,450.828,573.214Z" transform="translate(-260.907 -332.393)" fill="#c9620a"/>
    <path id="Path_29919" data-name="Path 29919" d="M730.255,440.643l-78.762,20.315-15.3-59.3,100.4-25.9Z" transform="translate(-370.409 -238.867)" fill="#fff"/>
    <rect id="Rectangle_11504" data-name="Rectangle 11504" width="61.244" height="103.683" transform="translate(6.639 199.444) rotate(-75.537)" fill="#fff"/>
    <g id="Group_31996" data-name="Group 31996" transform="translate(202.795 238.926)">
      <path id="Path_29920" data-name="Path 29920" d="M505.385,638.595,487.2,620.3a1.045,1.045,0,0,0-1.477,1.477l18.188,18.3a1.045,1.045,0,0,0,1.477-1.477Z" transform="translate(-485.414 -619.989)" fill="#de7540"/>
    </g>
    <path id="Path_29921" data-name="Path 29921" d="M41.825,479.817l78.762,20.315,1.853-62.795-99.07,23.552Z" transform="translate(-13.606 -274.719)" fill="#869e9a" opacity="0.4"/>
    <path id="Path_29922" data-name="Path 29922" d="M0,354.891v81.391l91.528,22.673,19-76.686Z" transform="translate(0 -226.717)" fill="#4f455e"/>
    <path id="Path_29923" data-name="Path 29923" d="M749.22,471.865,670.458,492.18l-1.852-62.795,68.451,16.273Z" transform="translate(-389.277 -270.089)" fill="#869e9a" opacity="0.4"/>
    <path id="Path_29924" data-name="Path 29924" d="M0,510.734V527.95l91.291,22.615,4.018-16.221Z" transform="translate(0 -317.452)" fill="#302c3d"/>
    <path id="Path_29925" data-name="Path 29925" d="M762.863,354.3l-98.4,24.376,19,76.686,79.406-19.671Z" transform="translate(-386.864 -226.375)" fill="#546982"/>
    <path id="Path_29926" data-name="Path 29926" d="M784.067,510.146l-83.188,20.607,4.018,16.221,79.17-19.612Z" transform="translate(-408.068 -317.11)" fill="#384559"/>
    <g id="Group_31997" data-name="Group 31997" transform="translate(187.743 237.255)">
      <path id="Path_29927" data-name="Path 29927" d="M452.076,631.988l15.165,14.72c3.532,3.428,9.824,3.779,13.294,0,3.4-3.706,3.77-9.635,0-13.294l-15.165-14.72c-3.532-3.428-9.824-3.779-13.294,0-3.4,3.707-3.77,9.635,0,13.294Z" transform="translate(-449.385 -615.99)" fill="#d1711f"/>
    </g>
    <g id="Group_31998" data-name="Group 31998" transform="translate(200.902 222.165)">
      <path id="Path_29928" data-name="Path 29928" d="M483.5,595.321l15.665,14.187c3.523,3.191,9.418,3.739,12.85,0,3.194-3.479,3.763-9.443,0-12.85l-15.665-14.187c-3.523-3.191-9.418-3.739-12.85,0-3.194,3.479-3.763,9.443,0,12.85Z" transform="translate(-480.883 -579.869)" fill="#d1711f"/>
    </g>
    <g id="Group_31999" data-name="Group 31999" transform="translate(215.795 208.578)">
      <path id="Path_29929" data-name="Path 29929" d="M519.234,563.334,534.9,577.521c3.644,3.3,9.743,3.867,13.294,0,3.3-3.6,3.892-9.768,0-13.293L532.528,550.04c-3.644-3.3-9.743-3.867-13.293,0-3.3,3.6-3.893,9.768,0,13.294Z" transform="translate(-516.531 -547.348)" fill="#d1711f"/>
    </g>
    <g id="Group_32000" data-name="Group 32000" transform="translate(236.876 203.049)">
      <path id="Path_29930" data-name="Path 29930" d="M568.976,545.835,580.5,556.2c2.68,2.411,7.139,2.843,9.748,0,2.416-2.632,2.863-7.173,0-9.748l-11.521-10.365c-2.68-2.411-7.14-2.842-9.749,0-2.416,2.632-2.863,7.173,0,9.749Z" transform="translate(-566.993 -534.112)" fill="#d1711f"/>
    </g>
    <g id="Group_32001" data-name="Group 32001" transform="translate(130.818 294.142)">
      <path id="Path_29931" data-name="Path 29931" d="M291.519,693.087a10.356,10.356,0,0,1-4.514-4.671c-.7-1.412-2.8-.174-2.111,1.234a12.562,12.562,0,0,0,5.391,5.548c1.388.738,2.625-1.371,1.234-2.111Z" transform="translate(-284.756 -687.794)" fill="#fff"/>
    </g>
    <g id="Group_32002" data-name="Group 32002" transform="translate(140.828 299.921)">
      <path id="Path_29932" data-name="Path 29932" d="M318.01,704.576a10.619,10.619,0,0,1-3.11.5,1.223,1.223,0,0,0,0,2.445,13.028,13.028,0,0,0,3.76-.588c1.5-.47.857-2.831-.65-2.358Z" transform="translate(-313.719 -704.514)" fill="#fff"/>
    </g>
    <g id="Group_32003" data-name="Group 32003" transform="translate(146.539 279.924)">
      <path id="Path_29933" data-name="Path 29933" d="M330.81,648.965a10.011,10.011,0,0,1,4.557,10.319c-.275,1.538,2.081,2.2,2.357.65a12.554,12.554,0,0,0-5.681-13.08c-1.332-.846-2.559,1.269-1.234,2.111Z" transform="translate(-330.24 -646.658)" fill="#fff"/>
    </g>
    <g id="Group_32004" data-name="Group 32004" transform="translate(136.498 278.363)">
      <path id="Path_29934" data-name="Path 29934" d="M302.737,645.406a10.763,10.763,0,0,1,3.964-.819,1.223,1.223,0,0,0,0-2.445,12.647,12.647,0,0,0-4.614.906,1.263,1.263,0,0,0-.854,1.5,1.23,1.23,0,0,0,1.5.854Z" transform="translate(-301.191 -642.143)" fill="#fff"/>
    </g>
    <g id="Group_32005" data-name="Group 32005" transform="translate(129.764 282.712)">
      <path id="Path_29935" data-name="Path 29935" d="M284.16,661.646a10.352,10.352,0,0,1,2.123-5.168c.947-1.256-1.174-2.476-2.111-1.234a12.694,12.694,0,0,0-2.456,6.4c-.169,1.562,2.277,1.55,2.445,0Z" transform="translate(-281.707 -654.725)" fill="#fff"/>
    </g>
    <text id="SKUDU_MATCH" data-name="SKUDU MATCH" transform="translate(117.789 121.449)" fill="#31a05f" stroke="rgba(31,84,195,0)" stroke-width="1" font-size="20" font-family="Poppins-Bold, Poppins" font-weight="700"><tspan x="0" y="0">SKUDU MATCH</tspan></text>
  </g>
</svg>
