<svg width="150" height="150" viewBox="0 0 150 150" fill="none" xmlns="http://www.w3.org/2000/svg">
<rect width="150" height="150" rx="75" fill="#CDDBFC" fill-opacity="0.5"/>
<path d="M103.032 86.8902C101.131 82.7019 94.3371 76.8879 87.7776 71.2694C84.1165 68.1391 80.6549 65.1793 78.4488 62.8463C78.1784 62.5598 77.8364 62.3607 77.4628 62.2722C77.0893 62.1838 76.6997 62.2097 76.3396 62.3468C74.9813 62.868 74.1423 63.2776 73.4793 63.5878C72.6396 64.0496 71.7166 64.3172 70.7716 64.3727C70.4775 64.4046 70.1937 64.5045 69.9402 64.6653C69.6867 64.8262 69.4698 65.044 69.3048 65.3034C66.4533 69.8113 63.4992 69.4297 61.5278 68.7161C60.8971 68.4959 60.7856 68.2073 60.724 67.9343C60.3016 66.0728 62.4255 61.7015 65.1802 58.7883C71.7338 51.8513 75.1133 50.1015 82.2537 53.4894C90.3533 57.3209 98.4677 60.3147 98.5498 60.3488C98.8002 60.4409 99.0653 60.4799 99.33 60.4637C99.5946 60.4474 99.8537 60.3761 100.092 60.254C100.331 60.1318 100.544 59.9612 100.721 59.7517C100.897 59.5423 101.033 59.2982 101.12 59.0334C101.207 58.7686 101.244 58.4882 101.228 58.2083C101.213 57.9284 101.145 57.6545 101.03 57.4021C100.914 57.1498 100.753 56.9239 100.555 56.7375C100.357 56.5511 100.126 56.4078 99.8758 56.3157C99.7936 56.2847 91.8407 53.3467 83.9023 49.5896C74.6527 45.2183 69.5806 48.0973 62.3316 55.7665C59.5741 58.6828 55.8249 64.5868 56.793 68.9178C56.9974 69.8253 57.4258 70.6592 58.0345 71.3345C58.6431 72.0098 59.4102 72.5023 60.2576 72.7617C62.3996 73.5578 64.7329 73.5667 66.8803 72.787C69.0277 72.0073 70.8638 70.4845 72.0917 68.4648C73.1458 68.2965 74.1684 67.9542 75.1221 67.4503C75.5005 67.2704 75.9435 67.0625 76.5332 66.8112C78.839 69.1008 81.9544 71.7751 85.2342 74.5673C91.163 79.6398 97.8868 85.3886 99.4005 88.7175C99.682 89.2374 99.7776 89.847 99.6699 90.4352C99.5622 91.0234 99.2584 91.5511 98.8138 91.9223C98.4984 92.2653 98.0915 92.4984 97.6475 92.5904C97.2036 92.6824 96.7436 92.629 96.329 92.4374C96.0114 92.2048 95.6373 92.0738 95.2513 92.0597C94.8652 92.0457 94.4835 92.1493 94.1515 92.3582C93.8195 92.567 93.5513 92.8724 93.3788 93.2379C93.2063 93.6034 93.1367 94.0137 93.1784 94.4198C93.1787 94.938 93.0314 95.4443 92.7556 95.8727C92.4799 96.301 92.0884 96.6315 91.6324 96.8211C91.1629 97.1295 90.6239 97.2994 90.0714 97.313C89.5189 97.3267 88.973 97.1836 88.4905 96.8987C88.2151 96.6256 87.8727 96.4399 87.5023 96.3626C87.1319 96.2854 86.7485 96.3196 86.3956 96.4616C86.0428 96.6035 85.7348 96.8475 85.5066 97.1655C85.2784 97.4836 85.1393 97.863 85.1051 98.2606C85.0214 98.9805 84.7564 99.6634 84.3379 100.238C83.9194 100.813 83.3627 101.258 82.726 101.528C82.3475 101.711 81.9264 101.773 81.515 101.706C81.1035 101.638 80.7198 101.445 80.4114 101.149C80.1649 100.915 79.8686 100.748 79.5478 100.662C79.227 100.575 78.8912 100.572 78.5691 100.653C78.2464 100.736 77.9482 100.902 77.701 101.136C77.4538 101.37 77.2652 101.666 77.1522 101.996C77.0759 102.21 76.9028 102.722 75.0136 102.722C73.2599 102.531 71.5705 101.919 70.0734 100.935C68.6565 99.9483 59.7794 92.9462 52.111 86.1549C51.0344 85.1963 49.1774 83.1394 47.5258 81.3213C46.059 79.7081 44.7301 78.2468 44.0436 77.6325C43.6326 77.2904 43.1122 77.1303 42.5918 77.1861C42.0714 77.2418 41.5918 77.509 41.2541 77.9314C40.9163 78.3537 40.7468 78.8982 40.7812 79.4501C40.8156 80.002 41.0513 80.5183 41.4386 80.8901C42.0634 81.4485 43.275 82.8012 44.6098 84.2717C46.4081 86.2604 48.268 88.3049 49.5177 89.4249C57.0277 96.0765 66.0544 103.256 67.8527 104.503C70.0098 105.941 72.4697 106.794 75.0136 106.985C76.6512 107.097 78.2737 106.593 79.5929 105.561C81.0726 106.156 82.7103 106.138 84.1781 105.511C86.0096 104.743 87.5057 103.282 88.3761 101.413C90.098 101.764 91.8818 101.492 93.4395 100.64C94.9558 99.8781 96.1544 98.5531 96.8072 96.9173C98.5053 96.9851 100.163 96.3572 101.434 95.1644C102.545 94.1796 103.309 92.8254 103.599 91.3226C103.89 89.8198 103.69 88.2574 103.032 86.8902Z" fill="#407EF8"/>
<path d="M66.9306 51.5457H48.7804C48.2455 51.5457 47.7325 51.7704 47.3543 52.1704C46.9761 52.5704 46.7635 53.1129 46.7635 53.6786C46.7635 54.2443 46.9761 54.7868 47.3543 55.1868C47.7325 55.5868 48.2455 55.8115 48.7804 55.8115H66.9306C67.4655 55.8115 67.9785 55.5868 68.3567 55.1868C68.7349 54.7868 68.9474 54.2443 68.9474 53.6786C68.9474 53.1129 68.7349 52.5704 68.3567 52.1704C67.9785 51.7704 67.4655 51.5457 66.9306 51.5457Z" fill="#407EF8"/>
<path d="M108.938 82.3477C108.791 82.1148 108.602 81.9149 108.381 81.7596C108.161 81.6043 107.913 81.4967 107.653 81.4428C107.393 81.3889 107.126 81.3898 106.866 81.4456C106.606 81.5013 106.359 81.6107 106.14 81.7675L100.243 85.9558C99.8233 86.2817 99.5387 86.7666 99.4491 87.3093C99.3594 87.852 99.4716 88.4103 99.7622 88.8675C100.053 89.3247 100.499 89.6454 101.008 89.7624C101.517 89.8795 102.049 89.7839 102.493 89.4956L108.39 85.3073C108.833 84.9915 109.14 84.5024 109.243 83.9475C109.346 83.3925 109.236 82.8172 108.938 82.3477Z" fill="#407EF8"/>
<path d="M96.4186 92.5216C94.9753 91.3178 88.5155 84.328 84.5229 79.9257C84.3428 79.7105 84.1235 79.536 83.8781 79.4126C83.6327 79.2892 83.3662 79.2195 83.0947 79.2076C82.8232 79.1958 82.5523 79.242 82.2981 79.3436C82.0439 79.4452 81.8117 79.5999 81.6155 79.7987C81.4192 79.9975 81.2629 80.2361 81.156 80.5003C81.0491 80.7645 80.9937 81.0487 80.9932 81.3361C80.9926 81.6235 81.047 81.9081 81.153 82.1727C81.2589 82.4373 81.4143 82.6765 81.6098 82.8761C82.6454 84.0178 91.7894 94.0976 93.9163 95.8722C94.2715 96.1683 94.7107 96.3289 95.163 96.3282C95.4688 96.326 95.7702 96.2516 96.0453 96.1105C96.3204 95.9693 96.5622 95.7649 96.7531 95.5123C97.0833 95.0686 97.2335 94.5045 97.1708 93.9438C97.1081 93.3831 96.8376 92.8715 96.4186 92.5216Z" fill="#407EF8"/>
<path d="M88.3631 96.7981C85.9458 94.7536 79.8762 87.9345 78.5062 86.3553C78.1417 85.9486 77.6405 85.7098 77.1109 85.6905C76.5813 85.6712 76.0657 85.8729 75.6755 86.2521C75.2853 86.6313 75.0519 87.1576 75.0255 87.7174C74.9991 88.2771 75.1819 88.8253 75.5345 89.2437C75.6078 89.3243 82.8508 97.5954 85.8431 100.13C86.2627 100.462 86.7878 100.608 87.3075 100.538C87.8271 100.468 88.3006 100.186 88.6278 99.7538C88.955 99.3211 89.1103 98.7709 89.0609 98.2193C89.0115 97.6678 88.7613 97.1581 88.3631 96.7981Z" fill="#407EF8"/>
<path d="M80.3338 101.095C77.4589 98.5322 71.5741 91.9054 70.4242 90.6055C70.0546 90.2111 69.5543 89.9845 69.0294 89.9738C68.5044 89.9631 67.9962 90.1691 67.6126 90.5482C67.2289 90.9273 67.0001 91.4495 66.9746 92.0041C66.949 92.5587 67.1289 93.102 67.4759 93.5187C69.1304 95.3801 74.76 101.706 77.7435 104.359C78.1527 104.724 78.6823 104.902 79.2157 104.854C79.749 104.806 80.2425 104.535 80.5876 104.103C80.9327 103.67 81.101 103.11 81.0556 102.546C81.0103 101.982 80.7548 101.46 80.3456 101.095H80.3338Z" fill="#407EF8"/>
<path d="M50.1676 47.8622C46.7118 44.3998 32.8887 43.2768 28.7347 43.0037C28.4589 42.9859 28.1825 43.0282 27.9228 43.128C27.6631 43.2279 27.4256 43.3832 27.225 43.5842C27.0244 43.7853 26.8651 44.0278 26.7569 44.2968C26.6487 44.5657 26.594 44.8553 26.5961 45.1475V83.5371C26.5961 84.1026 26.8084 84.6451 27.1862 85.0453C27.5641 85.4455 28.0767 85.6707 28.6115 85.6716H40.7126C41.1377 85.6715 41.552 85.5292 41.8961 85.265C42.2401 85.0009 42.4964 84.6285 42.6282 84.201C42.9216 83.2454 49.8713 60.6876 50.7865 49.5964C50.8142 49.2767 50.7728 48.9544 50.6656 48.654C50.5584 48.3536 50.3881 48.0829 50.1676 47.8622ZM39.2399 81.4057H30.6298V47.4309C36.0724 47.6817 41.459 48.699 46.6472 50.4558C44.878 60.9458 42.4026 71.2887 39.2399 81.4057Z" fill="#407EF8"/>
<path d="M121.386 47.2789C112.856 46.9607 104.354 48.4807 96.3973 51.7464C96.1389 51.8741 95.9093 52.0586 95.7236 52.2876C95.538 52.5165 95.4006 52.7847 95.3207 53.0743C95.2412 53.3632 95.2199 53.6667 95.2583 53.9649C95.2967 54.2631 95.3939 54.5494 95.5436 54.8054C98.0371 59.0495 105.84 82.6219 107.342 88.3707C107.462 88.8183 107.717 89.2122 108.068 89.4922C108.419 89.7723 108.848 89.9232 109.287 89.9219H121.389C121.923 89.9211 122.435 89.6963 122.813 89.2967C123.191 88.8972 123.403 88.3556 123.404 87.7905V49.4103C123.404 49.1301 123.352 48.8527 123.25 48.5939C123.149 48.3351 123 48.1 122.813 47.9021C122.625 47.7041 122.403 47.5472 122.158 47.4403C121.913 47.3333 121.651 47.2785 121.386 47.2789ZM119.37 85.6716H110.795C108.883 79.0851 103.235 61.9131 100.088 54.8147C106.328 52.7239 112.828 51.6312 119.373 51.5727L119.37 85.6716Z" fill="#407EF8"/>
</svg>
