<svg width="998" height="725" viewBox="0 0 998 725" fill="none" xmlns="http://www.w3.org/2000/svg">
<path d="M42 372.639C54.5969 374.046 67.4122 374.507 79.7179 377.262C85.628 378.597 91.5746 383.391 95.7128 388.184C101.405 394.774 107.715 399.107 116.234 399.459C124.05 399.835 131.926 399.592 139.753 399.301C142.167 399.029 144.522 398.378 146.732 397.371C149.251 396.562 151.482 395.039 153.152 392.985C154.822 390.932 155.859 388.438 156.137 385.806C156.572 383.258 156.076 380.638 154.739 378.425C153.402 376.212 151.314 374.555 148.855 373.755C137.217 369.338 125.263 365.745 113.382 361.971C101.247 358.148 88.6256 355.685 77.1694 350.515C58.3347 342.02 47.6795 327.032 48.0436 305.613C48.4441 283.647 57.9949 266.681 78.0796 257.555C107.606 244.145 137.933 244.485 167.338 257.859C188.612 267.567 198.187 285.832 199.558 309.472C183.6 309.472 168.224 308.538 153.831 301.669C152.144 300.868 150.846 299.035 149.644 297.482C139.996 284.97 114.572 280.565 101.04 289.096C94.0502 293.513 92.8731 302.53 100.009 307.3C107.145 312.069 115.688 315.418 124.026 318.076C139.802 323.088 156.052 326.462 171.683 331.777C190.517 338.173 203.236 350.843 204.546 371.753C206.075 395.405 198.478 415.259 176.258 426.218C165.892 431.113 154.844 434.411 143.491 435.999C123.382 439.033 103.055 438.742 83.5043 432.092C62.5944 424.98 48.165 411.461 43.4563 388.985C43.0989 387.925 42.6096 386.914 42 385.976V372.639Z" fill="#1D1D1D"/>
<path d="M270.262 42.8252L272.689 42C273.332 43.966 274.546 45.9198 274.546 47.8858C274.546 80.4339 274.279 112.982 274.157 145.53C273.971 193.264 273.809 240.998 273.672 288.732V296.414C275.893 294.363 277.312 293.137 278.672 291.778C306.382 263.162 334.051 234.522 361.68 205.857C362.973 204.352 364.597 203.166 366.424 202.394C368.252 201.621 370.234 201.282 372.214 201.403C387.99 201.779 403.767 201.731 419.543 201.876C421.485 201.876 423.427 202.095 425.247 202.216L332.045 295.734L433.002 436.303C430.575 436.509 429.082 436.752 427.602 436.74C411.619 436.594 395.648 436.23 379.678 436.351C375.454 436.351 373.088 434.786 370.818 431.497C353.222 406.327 335.625 381.158 317.688 356.255C313.437 350.378 308.554 344.986 303.125 340.175C297.446 335.115 290.577 334.229 283.356 337.748C276.135 341.268 273.041 346.923 272.992 354.738C272.81 379.192 272.531 403.658 272.288 428.123C272.288 430.283 272.288 432.444 272.288 434.774H224.328C224.194 432.686 224 431.133 224.012 429.567C224.53 324.844 225.032 220.12 225.517 115.397C225.517 101.247 229.158 88.3464 235.226 75.8223C240.48 64.9972 247.507 55.9925 258.478 50.3373C262.64 48.2014 266.366 45.3495 270.262 42.8252Z" fill="#1D1D1D"/>
<path d="M734.624 279.327V205.554C744.515 205.554 753.629 204.68 762.536 205.784C772.609 206.998 780.74 216.961 780.655 227.24C780.194 276.366 779.939 325.54 778.325 374.58C777.973 385.503 773.725 396.789 768.932 406.801C760.121 425.187 743.641 434.786 724.272 438.961C702.816 443.584 681.239 443.427 660.123 436.8C633.594 428.487 617.647 409.908 611.968 383.209C605.621 353.428 606.519 323.744 617.66 294.946C635.936 247.75 698.29 243.599 723.447 268.829C726.833 272.228 729.952 275.917 733.156 279.485L734.624 279.327ZM654.856 350.722L655.705 350.964C656.288 357.032 656.676 363.039 657.538 369.022C658.109 372.401 659.003 375.717 660.208 378.925C665.656 394.702 676.627 402.456 693.593 402.82C710.049 403.16 722.585 395.345 728.143 380.345C735.45 360.881 735.849 339.498 729.272 319.775C723.714 302.494 712.282 294.958 694.078 295.14C677.355 295.322 665.644 303.708 660.705 320.625C657.829 330.382 656.712 340.661 654.856 350.722Z" fill="#1D1D1D"/>
<path d="M801.431 256.973C812.269 257.482 822.608 257.337 832.754 258.635C841.661 259.764 845.533 264.764 846.394 273.829C846.807 278.247 846.795 282.713 846.77 287.179C846.601 316.474 846.41 345.774 846.2 375.078C846.124 377.912 846.201 380.747 846.431 383.573C847.644 395.951 854.926 404.082 867.061 406.497C870.623 407.23 874.25 407.596 877.887 407.59C897.996 407.505 908.08 397.432 908.226 377.25C908.517 346.547 908.614 315.831 908.99 285.116C909.209 265.941 914.051 260.395 933.044 257.834C940.204 256.876 947.509 257.021 955.604 256.621C955.604 259.048 955.604 260.965 955.604 262.883C955.155 299.448 954.912 336.025 954.099 372.59C953.809 381.675 952.589 390.707 950.458 399.544C946.672 415.733 937.582 427.953 921.721 434.737C891.224 447.662 861.127 448.366 831.091 433.16C813.725 424.361 804.562 410.102 801.735 391.34C800.612 384.364 800.02 377.313 799.963 370.248C800.109 334.278 800.545 298.307 800.897 262.349C800.91 260.856 801.164 259.521 801.431 256.973Z" fill="#1D1D1D"/>
<path d="M539.566 393.779C541.119 385.757 543.911 377.772 544.02 369.738C544.687 323.27 544.712 276.791 544.954 230.311C544.954 228.09 544.954 225.869 545.064 223.648C545.913 208.224 552.563 201.804 567.952 201.707C575.597 201.634 583.243 201.707 591.264 201.707C591.458 203.903 591.738 205.444 591.725 206.974C591.361 261.584 591.131 316.086 590.415 370.636C590.159 379.715 588.864 388.734 586.556 397.517C582.721 412.99 573.728 424.519 558.643 431.23C540.496 439.38 520.521 442.604 500.732 440.575C499.767 440.369 498.831 440.051 497.94 439.628C498.701 439.035 499.514 438.511 500.368 438.063C511.399 433.512 521.132 426.801 527.928 417.177C532.903 410.126 535.731 401.631 539.566 393.779Z" fill="#259A37"/>
<path d="M539.566 393.779C535.792 401.619 532.964 410.15 528.013 417.165C521.217 426.789 511.484 433.5 500.453 438.051C499.599 438.499 498.787 439.023 498.026 439.616C474.191 435.186 452.177 427.48 442.371 402.602C438.818 393.585 436.911 384.004 436.74 374.314C436.376 335.103 437.007 295.88 437.286 256.657C437.395 255.838 437.561 255.027 437.784 254.23C449.531 253.866 461.376 253.247 472.795 257.264C479.567 259.691 482.019 265.686 482.419 272.167C483.062 282.446 483.22 292.798 483.172 303.052C483.074 326.499 482.686 349.957 482.553 373.44C482.567 377.068 482.94 380.686 483.669 384.241C485.514 393.634 491.145 399.908 500.404 402.262C514.652 405.854 528.389 405.648 539.566 393.779Z" fill="#1D1D1D"/>
<path d="M643.582 67.4851C649.077 82.9481 650.334 99.5999 647.222 115.713C640.135 152.12 616.883 173.127 582.041 182.848C576.24 184.474 575.973 180.542 575.027 177.338C566.689 149.098 572.078 123.516 590.403 100.616C604.031 83.6014 621.944 73.3831 643.582 67.4851Z" fill="#259A37"/>
<path d="M519.189 142.169C542.89 136.938 566.349 158.443 564.759 183.928C539.164 191.136 516.507 163.139 519.189 142.169Z" fill="#279C3A"/>
<path d="M144.984 679.267V510.5H190.31L235.154 630.324L279.998 510.5H324.359V679.267H286.99V569.809L249.62 679.267H220.688L182.354 569.086V679.267H144.984ZM402.205 682.401C385.328 682.401 371.988 676.695 362.183 665.283C352.379 653.871 347.476 639.165 347.476 621.163C347.476 603.482 352.539 588.856 362.665 577.283C372.791 565.711 386.132 559.924 402.687 559.924C410.884 559.924 418.198 561.693 424.627 565.229C431.056 568.765 435.878 573.587 439.093 579.694V563.059H475.739V679.267H439.093V662.872C435.878 668.659 430.895 673.4 424.145 677.097C417.555 680.633 410.242 682.401 402.205 682.401ZM412.813 651.782C421.653 651.782 428.484 648.889 433.306 643.102C438.128 637.316 440.539 630.003 440.539 621.163C440.539 612.483 438.128 605.25 433.306 599.464C428.484 593.678 421.653 590.785 412.813 590.785C404.455 590.785 397.705 593.597 392.561 599.223C387.579 604.849 385.087 612.162 385.087 621.163C385.087 630.164 387.579 637.557 392.561 643.344C397.705 648.969 404.455 651.782 412.813 651.782ZM567.361 650.576C572.505 650.576 576.764 650.335 580.139 649.853V679.267C573.067 680.553 564.87 681.196 555.547 681.196C551.368 681.196 547.672 680.954 544.457 680.472C541.242 679.99 537.626 678.945 533.608 677.338C529.59 675.57 526.295 673.239 523.723 670.346C521.151 667.453 518.901 663.274 516.972 657.809C515.204 652.344 514.32 645.915 514.32 638.522V592.231H495.997V563.059H514.32V528.582H551.208V563.059H577.487V592.231H551.208V630.807C551.208 638.682 552.574 643.986 555.306 646.719C558.039 649.291 562.057 650.576 567.361 650.576ZM654.289 682.883C635.323 682.883 620.214 677.258 608.963 666.007C597.712 654.595 592.087 639.647 592.087 621.163C592.087 602.679 597.712 587.811 608.963 576.56C620.214 565.309 635.323 559.683 654.289 559.683C671.487 559.683 685.471 563.943 696.24 572.461C707.009 580.98 713.117 592.553 714.563 607.179H677.676C674.943 596.25 667.228 590.785 654.53 590.785C646.494 590.785 640.225 593.437 635.725 598.741C631.224 604.045 628.974 611.519 628.974 621.163C628.974 630.807 631.224 638.281 635.725 643.585C640.225 648.889 646.494 651.541 654.53 651.541C667.228 651.541 674.943 646.397 677.676 636.111H714.563C713.117 650.416 707.009 661.828 696.24 670.346C685.471 678.704 671.487 682.883 654.289 682.883ZM810.186 559.924C838.474 559.924 852.619 575.756 852.619 607.42V679.267H815.49V619.475C815.49 609.51 813.883 602.277 810.668 597.776C807.614 593.276 802.39 591.026 794.997 591.026C780.049 591.026 772.575 600.187 772.575 618.511V679.267H735.687V510.5H772.575V579.935C779.486 566.595 792.023 559.924 810.186 559.924Z" fill="#31A05F"/>
</svg>
