<svg width="107" height="84" viewBox="0 0 107 84" fill="none" xmlns="http://www.w3.org/2000/svg">
<g filter="url(#filter0_d)">
<path d="M52.957 15.725H52.4258V59.0942H52.957V15.725Z" fill="#31A05F"/>
</g>
<g filter="url(#filter1_d)">
<path d="M58.1914 33.532H57.6602V61.7829H58.1914V33.532Z" fill="#31A05F"/>
</g>
<path d="M58.0773 34.1991C58.3634 34.1991 58.6378 34.0855 58.84 33.8832C59.0423 33.6809 59.1559 33.4066 59.1559 33.1205C59.1558 32.8345 59.0422 32.5602 58.8399 32.358C58.6377 32.1558 58.3634 32.0421 58.0773 32.0421C57.7914 32.0421 57.5171 32.1558 57.3149 32.358C57.1127 32.5602 56.999 32.8346 56.999 33.1205C56.999 33.2622 57.0269 33.4024 57.081 33.5333C57.1352 33.6641 57.2146 33.7829 57.3148 33.8831C57.4149 33.9832 57.5338 34.0627 57.6646 34.117C57.7955 34.1712 57.9357 34.1991 58.0773 34.1991V34.1991Z" fill="#31A05F"/>
<g filter="url(#filter2_d)">
<path d="M49.4488 66.9217V69.4925C49.2068 69.4142 48.9647 69.3239 48.7224 69.2218V66.9217C48.7224 64.1628 46.8804 61.6934 44.1474 60.0404C44.0743 59.9964 44.0007 59.9523 43.9253 59.9097C43.6423 59.746 43.2927 59.589 42.986 59.4437C41.9746 58.9651 40.9133 58.5998 39.8216 58.3546C39.5774 58.2959 39.3165 58.1608 39.0691 58.1171C38.0502 57.9023 37.0139 57.7811 35.973 57.755H28.8998C28.6715 57.755 28.4466 57.8354 28.2247 57.8286C27.5649 57.8174 26.9062 57.7706 26.2513 57.6886C25.9522 57.6425 25.6596 57.6129 25.3673 57.553C24.7625 57.4337 24.1648 57.2808 23.577 57.0952C23.3293 57.0121 23.0727 56.932 22.8318 56.8398C18.7205 55.2755 15.9053 52.177 15.9053 48.6099V18.6014L16.6317 18.2491V48.6109C16.6317 51.8737 19.1369 54.7279 22.827 56.2435C23.068 56.3427 23.3196 56.4348 23.5702 56.5225C24.1575 56.7255 24.7565 56.8927 25.364 57.0232C25.6531 57.0878 25.951 57.1434 26.2498 57.1895C26.9053 57.2644 27.5647 57.3005 28.2245 57.298C28.4493 57.3074 28.6753 57.2267 28.8995 57.2267H36.1033C37.095 57.257 38.0822 57.3726 39.0541 57.5724C39.3047 57.6141 39.5492 57.7051 39.7934 57.758C40.8721 57.9947 41.9235 58.342 42.9309 58.7945C43.2332 58.9284 43.6352 59.0819 43.922 59.2348C44.0549 59.3049 44.1818 59.3762 44.3112 59.4499C47.3861 61.1947 49.4488 63.9019 49.4488 66.9217Z" fill="#31A05F"/>
</g>
<g filter="url(#filter3_d)">
<path d="M90.2093 20.8903V47.6993C90.2093 51.2664 87.39 54.3641 83.2787 55.9288C83.0374 56.0209 82.7765 56.1008 82.5291 56.1841C81.9413 56.3696 81.3435 56.5223 80.7388 56.6414C80.4453 56.7016 80.1538 56.7295 79.8551 56.7764C79.2 56.8566 78.5412 56.9015 77.8813 56.9109C77.6597 56.9176 77.4346 56.8307 77.2063 56.8307H70.1345C69.0934 56.8589 68.0571 56.9823 67.0385 57.1993C66.7907 57.2431 66.5301 57.3834 66.2856 57.441C65.1941 57.6866 64.133 58.0522 63.1218 58.531C62.8165 58.6777 62.4676 58.8338 62.1846 58.9976C61.5579 59.3587 60.9641 59.7742 60.4102 60.2393C58.5573 61.8028 57.3939 63.8162 57.3939 66.0101V71.0012C57.1518 71.1372 56.9019 71.259 56.6455 71.3658V66.0101C56.6455 63.5958 57.9692 61.3814 60.0691 59.6982C60.7284 59.1738 61.4359 58.7132 62.1823 58.3226C62.4681 58.1703 62.8717 58.0162 63.1737 57.8823C64.1811 57.4294 65.2326 57.0817 66.3115 56.8448C66.5556 56.7917 66.8001 56.6963 67.0511 56.6546C68.0228 56.4528 69.0102 56.335 70.0022 56.3025H77.2057C77.4305 56.3025 77.6565 56.3905 77.8807 56.3802C78.5403 56.3844 79.1995 56.3498 79.8551 56.2766C80.1541 56.2302 80.4512 56.1756 80.7406 56.1111C81.348 55.9812 81.9469 55.8146 82.5341 55.6122C82.7847 55.5242 83.0304 55.4322 83.2713 55.333C86.9615 53.8171 89.46 50.9632 89.46 47.7007V20.8903H90.2093Z" fill="#31A05F"/>
</g>
<g filter="url(#filter4_d)">
<path d="M75.3978 31.5864V45.8414C75.3978 49.1132 72.6827 51.5939 69.4106 51.5939H65.1975C64.6193 51.6234 64.0501 51.7488 63.5131 51.9649C63.3313 52.0407 63.154 52.1269 62.9821 52.2231C62.1253 52.6326 61.3939 53.2643 60.8643 54.0525C60.7537 54.2261 60.6537 54.4065 60.5649 54.5923C60.1805 55.3425 59.9835 56.1745 59.9908 57.0174V68.6513C59.7303 69.0279 59.4355 69.3797 59.1104 69.7023V57.0177C59.1444 56.1777 59.3575 55.3548 59.7355 54.6039C59.8346 54.4218 59.944 54.2454 60.0631 54.0757C60.7266 52.9477 61.743 52.0695 62.9554 51.5768C63.1327 51.4922 63.3142 51.4171 63.4993 51.3515C64.0482 51.1739 64.6201 51.0777 65.1969 51.0659H69.41C72.3311 51.0659 74.869 48.764 74.869 45.8416V31.5864H75.3978Z" fill="#31A05F"/>
</g>
<path d="M76.1481 31.3619C76.1481 31.6478 76.0345 31.9222 75.8323 32.1244C75.63 32.3266 75.3558 32.4401 75.0698 32.4401C74.9282 32.4401 74.7879 32.4123 74.6571 32.3581C74.5262 32.304 74.4073 32.2245 74.3071 32.1244C74.207 32.0243 74.1275 31.9054 74.0733 31.7746C74.0191 31.6437 73.9912 31.5035 73.9912 31.3619C73.9912 31.2202 74.0191 31.08 74.0733 30.9491C74.1275 30.8183 74.207 30.6993 74.3071 30.5992C74.4073 30.499 74.5262 30.4196 74.657 30.3654C74.7879 30.3112 74.9281 30.2833 75.0698 30.2833C75.2114 30.2833 75.3517 30.3112 75.4825 30.3654C75.6134 30.4196 75.7322 30.499 75.8324 30.5992C75.9325 30.6993 76.0119 30.8183 76.0661 30.9491C76.1203 31.08 76.1481 31.2202 76.1481 31.3619V31.3619Z" fill="#31A05F"/>
<g filter="url(#filter5_d)">
<path d="M48.3915 46.3189V70.0749C48.201 69.9219 48.0242 69.7526 47.8631 69.5688V46.3186C47.8648 45.3175 47.5793 44.337 47.0404 43.4933C46.5015 42.6496 45.7319 41.9782 44.8229 41.5588C44.6533 41.4782 44.4789 41.4081 44.3007 41.3489C43.8396 41.227 43.3637 41.1707 42.8869 41.1813C42.8062 41.1766 42.7287 41.2693 42.648 41.2693H38.4349C38.1675 41.2377 37.9027 41.1873 37.6425 41.1183C37.3148 41.0657 36.9911 40.9903 36.6739 40.8926C35.4201 40.5319 34.3148 39.7791 33.5199 38.7445C32.725 37.71 32.2824 36.4479 32.2568 35.1435V21.2425H32.9833V35.1451C32.9999 36.2705 33.3696 37.3623 34.04 38.2664C34.7105 39.1706 35.6479 39.8413 36.72 40.1841C37.0073 40.2948 37.303 40.3823 37.6043 40.4456C37.8773 40.5059 38.1544 40.5462 38.4332 40.5664H42.6463C42.727 40.5664 42.808 40.5077 42.8887 40.5104C43.3675 40.5206 43.8432 40.5897 44.3051 40.7159C44.4842 40.7626 44.6606 40.819 44.8334 40.8851C45.7413 41.2545 46.5405 41.8484 47.1562 42.611C47.7719 43.3736 48.1838 44.2801 48.3535 45.2454C48.3998 45.6013 48.4125 45.9607 48.3915 46.3189V46.3189Z" fill="#31A05F"/>
</g>
<path d="M31.7217 20.9953C31.7217 21.2812 31.8353 21.5556 32.0375 21.7578C32.2398 21.96 32.514 22.0737 32.8 22.0737C32.9416 22.0737 33.0819 22.0458 33.2127 21.9917C33.3436 21.9375 33.4626 21.8581 33.5628 21.7579C33.6629 21.6578 33.7424 21.539 33.7966 21.4081C33.8508 21.2773 33.8786 21.1369 33.8785 20.9953C33.8786 20.8536 33.8508 20.7133 33.7966 20.5824C33.7425 20.4515 33.663 20.3326 33.5628 20.2324C33.4627 20.1322 33.3438 20.0528 33.2129 19.9986C33.082 19.9443 32.9417 19.9164 32.8 19.9164C32.6584 19.9165 32.5181 19.9445 32.3873 19.9987C32.2564 20.0529 32.1375 20.1324 32.0374 20.2326C31.9373 20.3328 31.8578 20.4517 31.8037 20.5825C31.7495 20.7134 31.7216 20.8536 31.7217 20.9953V20.9953Z" fill="#31A05F"/>
<g filter="url(#filter6_d)">
<path d="M61.431 64.1199C61.4336 65.7414 60.9336 67.3239 59.9996 68.6495C59.7356 69.0249 59.4393 69.3766 59.1141 69.7005C58.6026 70.2107 58.0235 70.6484 57.3931 71.0013C57.153 71.1358 56.9059 71.2574 56.6529 71.3657C55.6726 71.7856 54.617 72.0014 53.5506 72C52.7605 72.0008 51.9747 71.8827 51.2197 71.6496C50.9686 71.572 50.7215 71.4817 50.4795 71.379C49.719 71.0567 49.0139 70.6167 48.3901 70.0752C48.205 69.9148 48.0279 69.7461 47.8586 69.5691C47.6309 69.3314 47.4182 69.0795 47.222 68.8153C47.0282 68.5547 46.8509 68.2825 46.6908 68C46.0203 66.8171 45.6688 65.4803 45.6709 64.1206C45.6705 63.4724 45.7498 62.8265 45.9072 62.1976C45.9572 61.9974 46.015 61.8004 46.0803 61.6067C46.2386 61.1361 46.4414 60.6815 46.6858 60.2493C46.8388 59.9784 47.0078 59.7169 47.1918 59.466C47.3965 59.1869 47.6193 58.9215 47.8586 58.6715C48.0277 58.4954 48.2048 58.3268 48.3901 58.1653C49.8214 56.9214 51.6546 56.2376 53.5509 56.2403C54.5839 56.2389 55.607 56.4413 56.5616 56.8359C57.5162 57.2304 58.3836 57.8095 59.1141 58.5398C59.4393 58.8637 59.7356 59.2154 59.9996 59.5908C60.0246 59.6266 60.0495 59.6626 60.0739 59.6987C60.1934 59.8748 60.3056 60.0554 60.4105 60.2403C61.0813 61.4232 61.433 62.7601 61.431 64.1199V64.1199Z" fill="#31A05F"/>
</g>
<g filter="url(#filter7_d)">
<path d="M24.3558 12.1785C24.3585 13.8612 23.8395 15.5035 22.8702 16.8791C22.5962 17.2687 22.2887 17.6336 21.9512 17.9697C21.4204 18.4992 20.8195 18.9535 20.1653 19.3198C19.9162 19.4594 19.6598 19.5857 19.3972 19.6981C18.38 20.1339 17.2846 20.358 16.1779 20.3565C15.3578 20.3573 14.5422 20.2345 13.7586 19.9925C13.4979 19.9119 13.2414 19.8182 12.9902 19.7116C12.201 19.377 11.4693 18.9205 10.8219 18.3586C10.6299 18.1921 10.4461 18.017 10.2704 17.8332C10.0341 17.5865 9.81346 17.3251 9.60979 17.0508C9.40863 16.7804 9.22448 16.4979 9.05834 16.2047C8.36249 14.9771 7.99779 13.5896 8.00001 12.1785C7.99955 11.5056 8.08194 10.8354 8.24535 10.1827C8.2974 9.97495 8.35722 9.77062 8.42492 9.56967C8.58927 9.08123 8.79971 8.60944 9.05332 8.16081C9.21214 7.87969 9.38748 7.60821 9.5784 7.34783C9.79082 7.05809 10.022 6.78258 10.2704 6.52309C10.4465 6.33936 10.6303 6.16423 10.8219 5.99772C12.3073 4.70669 14.2098 3.99714 16.1779 4.00001C17.2499 3.99863 18.3116 4.2086 19.3024 4.6181C20.2931 5.02759 21.1933 5.62852 21.9515 6.38637C22.289 6.72245 22.5965 7.08733 22.8704 7.47695C22.8965 7.51412 22.9222 7.55159 22.9476 7.58916C23.0717 7.77132 23.1882 7.95868 23.2972 8.15121C23.9934 9.37913 24.3582 10.7669 24.3558 12.1785V12.1785Z" fill="#31A05F"/>
</g>
<g filter="url(#filter8_d)">
<path d="M98.4188 18.737C98.4214 20.4247 97.9008 22.0717 96.9287 23.4514C96.6539 23.8421 96.3456 24.208 96.0071 24.5451C95.475 25.0761 94.8726 25.5317 94.2168 25.8991C93.9669 26.039 93.7097 26.1655 93.4464 26.2783C92.4262 26.7154 91.3278 26.94 90.2179 26.9386C89.3954 26.9395 88.5775 26.8163 87.7916 26.5735C87.5301 26.4928 87.2729 26.3989 87.0209 26.292C86.2293 25.9564 85.4954 25.4985 84.8461 24.9349C84.6534 24.768 84.469 24.5924 84.2929 24.4081C84.0558 24.1606 83.8345 23.8985 83.6302 23.6233C83.4285 23.3521 83.2438 23.0686 83.0772 22.7745C82.3793 21.5432 82.0135 20.1516 82.0156 18.7363C82.0152 18.0615 82.0978 17.3893 82.2616 16.7347C82.3138 16.5263 82.3739 16.3208 82.4418 16.1183C82.6066 15.6285 82.8176 15.1556 83.0719 14.7057C83.2311 14.4238 83.407 14.1516 83.5985 13.8904C83.8115 13.5999 84.0434 13.3236 84.2926 13.0634C84.4687 12.8791 84.6531 12.7029 84.8458 12.535C86.3354 11.2404 88.2432 10.5288 90.2168 10.5314C91.2919 10.5301 92.3568 10.7407 93.3505 11.1514C94.3441 11.5621 95.247 12.1647 96.0074 12.9248C96.3459 13.2619 96.6543 13.6279 96.929 14.0187C96.9551 14.0557 96.9809 14.0932 97.0065 14.1308C97.1309 14.3137 97.2477 14.5015 97.3569 14.6943C98.0557 15.9268 98.4217 17.3201 98.4188 18.737Z" fill="#31A05F"/>
</g>
<g filter="url(#filter9_d)">
<path d="M81.4548 30.2919C81.4569 31.6045 81.0521 32.8854 80.2961 33.9584C80.0824 34.2624 79.8426 34.5473 79.5794 34.8096C79.1653 35.2227 78.6965 35.5769 78.1862 35.8627C77.9917 35.971 77.7917 36.0689 77.5869 36.1562C76.7933 36.4961 75.9388 36.6709 75.0754 36.6698C74.4357 36.6704 73.7995 36.5747 73.1882 36.3859C72.9849 36.3231 72.7849 36.2501 72.5889 36.1671C71.9733 35.9056 71.4025 35.5491 70.8975 35.1104C70.7476 34.9805 70.6042 34.8436 70.4673 34.6996C70.2829 34.5071 70.1108 34.3033 69.9519 34.0894C69.7951 33.8783 69.6515 33.6578 69.5219 33.429C68.9792 32.4715 68.6946 31.3892 68.6963 30.2886C68.6961 29.7642 68.7604 29.2418 68.8877 28.7331C68.9284 28.5711 68.9751 28.4117 69.0279 28.2547C69.1562 27.8738 69.3203 27.5058 69.5181 27.1558C69.6424 26.9366 69.7796 26.7249 69.929 26.5219C70.0946 26.2959 70.2749 26.0811 70.4687 25.8788C70.6057 25.7356 70.7491 25.5987 70.899 25.468C72.0577 24.4609 73.5417 23.9073 75.0769 23.9095C75.9131 23.9084 76.7413 24.0723 77.5141 24.3917C78.2869 24.7112 78.9891 25.1799 79.5806 25.7711C79.8438 26.0333 80.0836 26.3182 80.2973 26.6223C80.3175 26.6517 80.3378 26.681 80.3574 26.7103C80.4541 26.8525 80.545 26.9987 80.6301 27.1485C81.173 28.107 81.4572 29.1903 81.4548 30.2919Z" fill="#31A05F"/>
</g>
<g filter="url(#filter10_d)">
<path d="M62.2718 31.5905C62.2732 32.4299 62.0143 33.2491 61.5308 33.9353C61.3941 34.1297 61.2407 34.3118 61.0723 34.4794C60.8076 34.7435 60.5079 34.97 60.1816 35.1527C60.0574 35.2224 59.9295 35.2854 59.7986 35.3414C59.2911 35.5588 58.7446 35.6705 58.1925 35.6697C57.7835 35.6701 57.3768 35.6091 56.986 35.4884C56.8559 35.4483 56.728 35.4014 56.6027 35.3481C56.209 35.1813 55.844 34.9534 55.5212 34.673C55.4253 34.5901 55.3336 34.5027 55.2462 34.4109C55.1283 34.2878 55.0182 34.1575 54.9166 34.0207C54.8163 33.8858 54.7244 33.7449 54.6416 33.5986C54.2943 32.9863 54.1123 32.2941 54.1133 31.5902C54.1131 31.2546 54.1542 30.9202 54.2357 30.5946C54.2617 30.4909 54.2916 30.389 54.3255 30.2888C54.4074 30.0451 54.5124 29.8097 54.6389 29.5859C54.7182 29.4457 54.8056 29.3104 54.9007 29.1806C55.0067 29.0363 55.122 28.899 55.2459 28.7697C55.3333 28.6782 55.425 28.5908 55.5209 28.5076C56.2616 27.8639 57.2103 27.51 58.1917 27.5112C58.7264 27.5105 59.256 27.6153 59.7501 27.8196C60.2443 28.0239 60.6933 28.3236 61.0715 28.7017C61.2398 28.8693 61.3932 29.0514 61.5299 29.2458C61.5428 29.2643 61.5557 29.2828 61.5683 29.3015C61.6302 29.3925 61.6883 29.486 61.7427 29.5819C62.0903 30.1942 62.2727 30.8863 62.2718 31.5905V31.5905Z" fill="#31A05F"/>
</g>
<g filter="url(#filter11_d)">
<path d="M37.721 20.8937C37.7227 21.93 37.403 22.9414 36.8062 23.7886C36.6374 24.0286 36.4481 24.2534 36.2403 24.4604C35.9134 24.7864 35.5435 25.0661 35.1406 25.2916C34.9872 25.3775 34.8292 25.4552 34.6675 25.5243C34.041 25.7927 33.3664 25.9306 32.6849 25.9296C32.18 25.93 31.6779 25.8544 31.1954 25.7053C31.0349 25.6558 30.8769 25.5982 30.7223 25.5325C30.2363 25.3265 29.7858 25.0453 29.3872 24.6993C29.2698 24.5968 29.1567 24.4891 29.0477 24.3764C28.9021 24.2246 28.7663 24.0637 28.6409 23.8948C28.517 23.7283 28.4036 23.5543 28.3013 23.3738C27.8727 22.6179 27.6481 21.7633 27.6494 20.8943C27.6492 20.4801 27.7 20.0673 27.8006 19.6655C27.8327 19.5373 27.8696 19.4115 27.9112 19.2878C28.0124 18.9871 28.1419 18.6967 28.298 18.4205C28.3957 18.2474 28.5035 18.0802 28.6209 17.9198C28.7518 17.7415 28.8941 17.5719 29.047 17.4121C29.155 17.299 29.2682 17.1913 29.3866 17.0892C30.3014 16.2945 31.4728 15.8576 32.6846 15.8592C33.3447 15.8583 33.9986 15.9877 34.6086 16.2398C35.2186 16.492 35.7729 16.862 36.2397 17.3287C36.4476 17.5356 36.6369 17.7603 36.8056 18.0002C36.8217 18.0228 36.8376 18.046 36.8532 18.0689C36.9295 18.1812 37.0011 18.2966 37.0683 18.415C37.4971 19.1707 37.722 20.0248 37.721 20.8937V20.8937Z" fill="#31A05F"/>
</g>
<g filter="url(#filter12_d)">
<path d="M58.6571 14.4689C58.6589 15.7507 58.2635 17.0017 57.5251 18.0496C57.3164 18.3464 57.0822 18.6244 56.8251 18.8805C56.4206 19.2834 55.9628 19.6291 55.4645 19.9077C55.2746 20.0139 55.0793 20.11 54.8793 20.1956C54.1042 20.5277 53.2695 20.6983 52.4262 20.6972C51.8014 20.6978 51.18 20.6045 50.583 20.4202C50.3844 20.3588 50.189 20.2874 49.9976 20.2062C49.3962 19.9513 48.8387 19.6033 48.3454 19.1751C48.1991 19.0483 48.059 18.9148 47.9252 18.7747C47.7452 18.5867 47.577 18.3877 47.4218 18.1787C47.2687 17.9723 47.1284 17.7566 47.0019 17.5329C46.4716 16.5976 46.1937 15.5406 46.1953 14.4654C46.195 13.9528 46.2578 13.4421 46.3823 12.9448C46.4214 12.7865 46.4671 12.6308 46.5193 12.4776C46.6445 12.1055 46.8048 11.746 46.9981 11.4042C47.119 11.1901 47.2526 10.9833 47.3981 10.785C47.5603 10.5642 47.7367 10.3543 47.9263 10.1566C48.06 10.0167 48.2001 9.88317 48.3467 9.75619C49.4781 8.77289 50.9272 8.23238 52.4262 8.23426C53.2431 8.23339 54.0521 8.39364 54.8069 8.70588C55.5617 9.01813 56.2476 9.47616 56.8251 10.0538C57.0822 10.3099 57.3164 10.5879 57.5251 10.8847C57.5447 10.9129 57.5642 10.9414 57.5838 10.9702C57.6783 11.1089 57.767 11.2515 57.85 11.3981C58.3809 12.3343 58.6591 13.3926 58.6571 14.4689V14.4689Z" fill="#31A05F"/>
</g>
<path d="M18.9348 7.16913C18.9144 7.14875 18.8868 7.13716 18.8579 7.13684H16.1352C16.1058 7.13684 16.0777 7.1485 16.0569 7.16925C16.0362 7.19 16.0245 7.21814 16.0245 7.24749V7.56417L14.9753 7.84534C14.9612 7.84908 14.948 7.85557 14.9365 7.86441C14.9249 7.87326 14.9152 7.88429 14.908 7.89689C14.9007 7.90948 14.896 7.92339 14.8941 7.93781C14.8922 7.95223 14.8931 7.96688 14.8969 7.98093L15.4422 10.0102L14.9726 10.4797C14.9422 10.4351 14.9013 10.3985 14.8535 10.3733C14.8058 10.348 14.7525 10.3348 14.6985 10.3348H13.6337C13.5456 10.3349 13.4611 10.3701 13.3988 10.4325C13.3366 10.4949 13.3017 10.5794 13.3018 10.6676V12.4717C13.3019 12.5597 13.3369 12.644 13.3992 12.7062C13.4614 12.7685 13.5457 12.8035 13.6337 12.8036H14.6962C14.7704 12.8037 14.8425 12.7789 14.901 12.7332C14.9595 12.6875 15.001 12.6236 15.019 12.5515L15.1505 12.6663C15.2521 12.7549 15.3823 12.8037 15.5171 12.8036H18.8579C18.8873 12.8036 18.9154 12.792 18.9361 12.7712C18.9569 12.7505 18.9686 12.7223 18.9686 12.693V7.24749C18.9684 7.23284 18.9653 7.21837 18.9595 7.20492C18.9537 7.19147 18.9453 7.1793 18.9348 7.16913V7.16913ZM14.8071 12.4717C14.807 12.501 14.7953 12.5291 14.7746 12.5498C14.7539 12.5706 14.7258 12.5823 14.6964 12.5823H13.6337C13.6044 12.5823 13.5763 12.5706 13.5555 12.5498C13.5348 12.5291 13.5231 12.501 13.5231 12.4717V10.6676C13.5231 10.6383 13.5348 10.6102 13.5555 10.5894C13.5763 10.5687 13.6044 10.557 13.6337 10.5569H14.0543V11.8328C14.0543 11.8621 14.0659 11.8902 14.0867 11.911C14.1074 11.9317 14.1356 11.9434 14.1649 11.9434C14.1943 11.9434 14.2224 11.9317 14.2432 11.911C14.2639 11.8902 14.2756 11.8621 14.2756 11.8328V10.5569H14.6964C14.7258 10.557 14.7539 10.5687 14.7746 10.5894C14.7953 10.6102 14.807 10.6383 14.8071 10.6676V12.4717ZM15.1396 8.03053L16.0245 7.79339V8.20428L15.9503 8.22277C15.9362 8.22652 15.923 8.233 15.9115 8.24184C15.8999 8.25069 15.8902 8.26173 15.883 8.27432C15.8757 8.28691 15.871 8.30082 15.8691 8.31524C15.8672 8.32966 15.8681 8.34432 15.8719 8.35837C15.8923 8.43472 15.8815 8.51604 15.842 8.58448C15.8025 8.65292 15.7375 8.70291 15.6612 8.72347C15.6471 8.72725 15.6339 8.73376 15.6224 8.74264C15.6108 8.75152 15.6012 8.76259 15.5939 8.77521C15.5867 8.78784 15.582 8.80177 15.5801 8.81621C15.5783 8.83065 15.5793 8.84531 15.5831 8.85936L16.0145 10.4569H15.7924L15.677 10.0093C15.6734 9.99528 15.6671 9.98212 15.6585 9.97053L15.1396 8.03053ZM16.0245 8.71115V9.64505L15.8238 8.89781C15.9062 8.85472 15.9755 8.79025 16.0245 8.71115V8.71115ZM17.6141 12.5823H15.5168C15.4355 12.5824 15.357 12.553 15.2958 12.4996L15.0284 12.2665V10.7357L15.5115 10.2526L15.5995 10.5954C15.6056 10.6192 15.6194 10.6403 15.6388 10.6554C15.6582 10.6705 15.6821 10.6787 15.7067 10.6787H17.8826C17.9237 10.6787 17.9631 10.6951 17.9922 10.7241C18.0213 10.7532 18.0376 10.7926 18.0376 10.8337C18.0376 10.8748 18.0213 10.9142 17.9922 10.9433C17.9631 10.9723 17.9237 10.9887 17.8826 10.9887H16.7673C16.738 10.9887 16.7099 11.0003 16.6891 11.0211C16.6684 11.0418 16.6567 11.07 16.6567 11.0993C16.6567 11.1287 16.6684 11.1568 16.6891 11.1776C16.7099 11.1983 16.738 11.21 16.7673 11.21H18.2287C18.2698 11.21 18.3092 11.2263 18.3382 11.2553C18.3673 11.2844 18.3836 11.3238 18.3836 11.3649C18.3836 11.406 18.3673 11.4454 18.3382 11.4745C18.3092 11.5036 18.2698 11.5199 18.2287 11.5199H16.7673C16.738 11.5199 16.7099 11.5315 16.6891 11.5523C16.6684 11.573 16.6567 11.6012 16.6567 11.6305C16.6567 11.6599 16.6684 11.688 16.6891 11.7088C16.7099 11.7295 16.738 11.7412 16.7673 11.7412H17.9921C18.0332 11.7412 18.0726 11.7575 18.1017 11.7866C18.1307 11.8156 18.1471 11.8551 18.1471 11.8962C18.1471 11.9373 18.1307 11.9767 18.1017 12.0057C18.0726 12.0348 18.0332 12.0511 17.9921 12.0511H16.7673C16.738 12.0511 16.7099 12.0628 16.6891 12.0835C16.6684 12.1043 16.6567 12.1324 16.6567 12.1618C16.6567 12.1911 16.6684 12.2193 16.6891 12.24C16.7099 12.2608 16.738 12.2724 16.7673 12.2724H17.6141C17.6552 12.2724 17.6946 12.2887 17.7237 12.3178C17.7527 12.3469 17.769 12.3863 17.769 12.4274C17.769 12.4685 17.7527 12.5079 17.7237 12.537C17.6946 12.566 17.6552 12.5823 17.6141 12.5823V12.5823ZM18.7467 12.5823H17.9575C17.9795 12.5337 17.991 12.4808 17.991 12.4274C17.991 12.3739 17.9795 12.3211 17.9575 12.2724H17.9921C18.0563 12.2725 18.1194 12.2561 18.1755 12.2249C18.2315 12.1936 18.2787 12.1486 18.3124 12.094C18.3461 12.0394 18.3653 11.977 18.3681 11.9129C18.3709 11.8488 18.3572 11.785 18.3284 11.7277C18.3875 11.7115 18.4416 11.6812 18.4863 11.6394C18.5309 11.5976 18.5647 11.5455 18.5847 11.4877C18.6046 11.4298 18.6102 11.368 18.6008 11.3075C18.5914 11.2471 18.5675 11.1898 18.531 11.1407V9.73808C18.531 9.70874 18.5193 9.6806 18.4985 9.65984C18.4778 9.63909 18.4496 9.62744 18.4203 9.62744C18.391 9.62744 18.3628 9.63909 18.3421 9.65984C18.3213 9.6806 18.3097 9.70874 18.3097 9.73808V10.9975C18.2831 10.9916 18.2561 10.9887 18.2289 10.9887H18.2254C18.2514 10.9314 18.2626 10.8685 18.258 10.8057C18.2533 10.743 18.233 10.6824 18.1989 10.6296C18.1648 10.5767 18.118 10.5332 18.0627 10.5032C18.0075 10.4731 17.9455 10.4574 17.8826 10.4574H17.7042C17.816 10.4095 17.9079 10.3245 17.9643 10.2166C18.0206 10.1088 18.0381 9.98483 18.0136 9.86564C17.9891 9.74646 17.9243 9.63937 17.83 9.56247C17.7357 9.48557 17.6178 9.44357 17.4961 9.44357C17.3744 9.44357 17.2565 9.48557 17.1622 9.56247C17.0679 9.63937 17.003 9.74646 16.9786 9.86564C16.9541 9.98483 16.9716 10.1088 17.0279 10.2166C17.0843 10.3245 17.1762 10.4095 17.288 10.4574H16.6834V8.35279C16.7805 8.33142 16.8695 8.2827 16.9398 8.21238C17.0101 8.14207 17.0588 8.0531 17.0802 7.95598H17.9129C17.9342 8.0531 17.9829 8.14207 18.0533 8.21238C18.1236 8.2827 18.2125 8.33142 18.3097 8.35279V8.69706C18.3097 8.71159 18.3125 8.72598 18.3181 8.7394C18.3236 8.75283 18.3318 8.76502 18.3421 8.7753C18.3523 8.78557 18.3645 8.79372 18.378 8.79928C18.3914 8.80484 18.4058 8.80771 18.4203 8.80771C18.4348 8.80771 18.4492 8.80484 18.4626 8.79928C18.4761 8.79372 18.4883 8.78557 18.4985 8.7753C18.5088 8.76502 18.517 8.75283 18.5225 8.7394C18.5281 8.72598 18.531 8.71159 18.531 8.69706V8.25388C18.531 8.23935 18.5281 8.22496 18.5225 8.21154C18.517 8.19811 18.5088 8.18592 18.4985 8.17564C18.4883 8.16537 18.4761 8.15722 18.4626 8.15166C18.4492 8.1461 18.4348 8.14323 18.4203 8.14323C18.3413 8.14308 18.2657 8.11164 18.2098 8.05581C18.154 7.99998 18.1226 7.9243 18.1224 7.84534C18.1224 7.81599 18.1107 7.78785 18.09 7.7671C18.0692 7.74635 18.0411 7.73469 18.0118 7.73469H16.9816C16.9671 7.73469 16.9527 7.73755 16.9393 7.74311C16.9258 7.74867 16.9136 7.75682 16.9034 7.7671C16.8931 7.77737 16.8849 7.78957 16.8794 7.80299C16.8738 7.81642 16.8709 7.83081 16.8709 7.84534C16.8708 7.9243 16.8394 7.99998 16.7835 8.05581C16.7277 8.11164 16.652 8.14308 16.573 8.14323C16.5585 8.14323 16.5441 8.1461 16.5307 8.15166C16.5173 8.15722 16.5051 8.16537 16.4948 8.17564C16.4845 8.18592 16.4764 8.19811 16.4708 8.21154C16.4653 8.22496 16.4624 8.23935 16.4624 8.25388V10.4571H16.2461V7.35843H18.7476L18.7467 12.5823ZM17.4967 10.2772C17.4252 10.2774 17.3559 10.2527 17.3006 10.2074C17.2453 10.1621 17.2074 10.0991 17.1934 10.029C17.1794 9.95889 17.1901 9.88611 17.2238 9.82306C17.2575 9.76001 17.312 9.71059 17.378 9.68323C17.444 9.65588 17.5175 9.65228 17.5859 9.67305C17.6543 9.69382 17.7133 9.73767 17.753 9.79713C17.7927 9.85658 17.8105 9.92796 17.8034 9.99908C17.7963 10.0702 17.7648 10.1367 17.7142 10.1871C17.6564 10.2447 17.5782 10.2771 17.4967 10.2772Z" fill="white"/>
<path d="M60.5443 28.957C60.5267 28.9388 60.5027 28.9283 60.4774 28.9276H58.106C58.0805 28.9276 58.056 28.9378 58.0379 28.9558C58.0199 28.9739 58.0097 28.9984 58.0097 29.0239V29.2998L57.0958 29.5446C57.0712 29.5511 57.0502 29.5671 57.0373 29.5891C57.0245 29.6111 57.0209 29.6373 57.0274 29.662L57.5023 31.4294L57.0931 31.8385C57.0666 31.7996 57.031 31.7678 56.9893 31.7458C56.9477 31.7238 56.9013 31.7123 56.8542 31.7123H55.9268C55.85 31.7125 55.7764 31.7431 55.7222 31.7975C55.668 31.8518 55.6376 31.9255 55.6377 32.0023V33.5737C55.6379 33.6503 55.6684 33.7237 55.7225 33.7779C55.7767 33.8321 55.8502 33.8626 55.9268 33.8628H56.8522C56.9168 33.8628 56.9796 33.8412 57.0306 33.8014C57.0815 33.7616 57.1177 33.7059 57.1333 33.6432L57.2478 33.7433C57.3363 33.8205 57.4497 33.863 57.5671 33.8631H60.4768C60.5024 33.8631 60.5268 33.8529 60.5449 33.8349C60.563 33.8168 60.5731 33.7923 60.5731 33.7668V29.0239C60.573 29.0111 60.5703 28.9985 60.5653 28.9868C60.5603 28.975 60.5529 28.9644 60.5437 28.9555L60.5443 28.957ZM56.949 33.5743C56.949 33.5998 56.9388 33.6242 56.9207 33.6422C56.9027 33.6603 56.8783 33.6704 56.8528 33.6705H55.9271C55.9016 33.6704 55.8771 33.6603 55.8591 33.6422C55.8411 33.6242 55.8309 33.5998 55.8308 33.5743V32.0029C55.8309 31.9774 55.8411 31.9529 55.8591 31.9349C55.8771 31.9169 55.9016 31.9067 55.9271 31.9066H56.2934V33.0178C56.2934 33.0434 56.3035 33.0679 56.3216 33.086C56.3397 33.104 56.3642 33.1142 56.3898 33.1142C56.4153 33.1142 56.4399 33.104 56.4579 33.086C56.476 33.0679 56.4862 33.0434 56.4862 33.0178V31.9066H56.8528C56.8783 31.9067 56.9027 31.9169 56.9207 31.9349C56.9388 31.9529 56.949 31.9774 56.949 32.0029V33.5743ZM57.2387 29.706L58.0094 29.5005V29.8583L57.9449 29.8745C57.9202 29.881 57.8992 29.897 57.8864 29.919C57.8736 29.941 57.87 29.9672 57.8765 29.9919C57.8941 30.0584 57.8847 30.1292 57.8502 30.1888C57.8157 30.2484 57.759 30.2919 57.6924 30.3097C57.6679 30.3163 57.647 30.3324 57.6342 30.3544C57.6214 30.3764 57.6179 30.4025 57.6244 30.4271L58 31.8186H57.8066L57.7062 31.4288C57.7031 31.4166 57.6976 31.4051 57.6901 31.3951L57.2387 29.706ZM58.0094 30.2989V31.1121L57.8333 30.4612C57.9056 30.4239 57.9664 30.3678 58.0094 30.2989V30.2989ZM59.3947 33.6705H57.5671C57.4963 33.6705 57.428 33.6448 57.3746 33.5983L57.1419 33.3952V32.0622L57.5627 31.6413L57.6393 31.9398C57.6446 31.9605 57.6567 31.9789 57.6736 31.992C57.6905 32.0052 57.7113 32.0123 57.7327 32.0123H59.6278C59.6636 32.0123 59.6979 32.0265 59.7232 32.0518C59.7485 32.0771 59.7628 32.1115 59.7628 32.1473C59.7628 32.1831 59.7485 32.2174 59.7232 32.2427C59.6979 32.2681 59.6636 32.2823 59.6278 32.2823H58.6563C58.6307 32.2823 58.6062 32.2924 58.5881 32.3105C58.57 32.3286 58.5599 32.3531 58.5599 32.3787C58.5599 32.4043 58.57 32.4288 58.5881 32.4469C58.6062 32.465 58.6307 32.4751 58.6563 32.4751H59.9292C59.965 32.4751 59.9993 32.4893 60.0246 32.5147C60.05 32.54 60.0642 32.5743 60.0642 32.6101C60.0642 32.6459 60.05 32.6803 60.0246 32.7056C59.9993 32.7309 59.965 32.7451 59.9292 32.7451H58.6566C58.631 32.7451 58.6065 32.7553 58.5884 32.7734C58.5703 32.7915 58.5602 32.816 58.5602 32.8415C58.5602 32.8671 58.5703 32.8916 58.5884 32.9097C58.6065 32.9278 58.631 32.938 58.6566 32.938H59.7234C59.7592 32.938 59.7936 32.9522 59.8189 32.9775C59.8442 33.0028 59.8584 33.0372 59.8584 33.073C59.8584 33.1088 59.8442 33.1431 59.8189 33.1684C59.7936 33.1937 59.7592 33.208 59.7234 33.208H58.6566C58.631 33.208 58.6065 33.2181 58.5884 33.2362C58.5703 33.2543 58.5602 33.2788 58.5602 33.3044C58.5602 33.33 58.5703 33.3545 58.5884 33.3726C58.6065 33.3906 58.631 33.4008 58.6566 33.4008H59.3947C59.4305 33.4008 59.4649 33.415 59.4902 33.4403C59.5155 33.4657 59.5297 33.5 59.5297 33.5358C59.5297 33.5716 59.5155 33.606 59.4902 33.6313C59.4649 33.6566 59.4305 33.6708 59.3947 33.6708V33.6705ZM60.3812 33.6705H59.6929C59.7122 33.6281 59.7221 33.5821 59.7221 33.5355C59.7221 33.4889 59.7122 33.4429 59.6929 33.4005H59.7223C59.7782 33.4006 59.8333 33.3864 59.8822 33.3593C59.9311 33.3321 59.9722 33.2928 60.0016 33.2452C60.0311 33.1977 60.0478 33.1433 60.0503 33.0874C60.0528 33.0315 60.0409 32.9759 60.0158 32.9259C60.0671 32.9118 60.1143 32.8854 60.1531 32.8489C60.192 32.8125 60.2213 32.7671 60.2387 32.7167C60.256 32.6664 60.2608 32.6125 60.2527 32.5599C60.2445 32.5073 60.2236 32.4574 60.1918 32.4147V31.1934C60.1918 31.1679 60.1817 31.1433 60.1636 31.1252C60.1455 31.1072 60.121 31.097 60.0954 31.097C60.0699 31.097 60.0453 31.1072 60.0273 31.1252C60.0092 31.1433 59.999 31.1679 59.999 31.1934V32.2902C59.9759 32.2851 59.9523 32.2826 59.9286 32.2826H59.9256C59.9482 32.2327 59.9579 32.1779 59.9539 32.1233C59.9498 32.0687 59.9321 32.016 59.9024 31.97C59.8727 31.924 59.832 31.8861 59.7839 31.8599C59.7358 31.8337 59.6819 31.82 59.6272 31.82H59.4722C59.5696 31.7783 59.6497 31.7042 59.6988 31.6103C59.7479 31.5163 59.7631 31.4083 59.7418 31.3045C59.7205 31.2007 59.664 31.1074 59.5818 31.0404C59.4997 30.9734 59.397 30.9368 59.291 30.9368C59.185 30.9368 59.0822 30.9734 59.0001 31.0404C58.918 31.1074 58.8615 31.2007 58.8402 31.3045C58.8189 31.4083 58.834 31.5163 58.8832 31.6103C58.9323 31.7042 59.0123 31.7783 59.1097 31.82H58.5814V29.9866C58.6661 29.968 58.7436 29.9255 58.8049 29.8643C58.8661 29.803 58.9086 29.7255 58.9272 29.6408H59.6524C59.671 29.7255 59.7135 29.803 59.7747 29.8643C59.836 29.9255 59.9135 29.968 59.9981 29.9866V30.2865C59.9981 30.3121 60.0083 30.3366 60.0264 30.3547C60.0445 30.3728 60.069 30.3829 60.0946 30.3829C60.1201 30.3829 60.1446 30.3728 60.1627 30.3547C60.1808 30.3366 60.191 30.3121 60.191 30.2865V29.9006C60.191 29.875 60.1808 29.8506 60.1628 29.8325C60.1447 29.8145 60.1202 29.8043 60.0947 29.8043C60.0259 29.8042 59.96 29.7768 59.9114 29.7281C59.8628 29.6795 59.8354 29.6136 59.8353 29.5449C59.8353 29.5322 59.8328 29.5197 59.8279 29.508C59.8231 29.4963 59.816 29.4857 59.8071 29.4768C59.7981 29.4679 59.7875 29.4608 59.7758 29.4559C59.7641 29.4511 59.7516 29.4486 59.739 29.4486H58.8429C58.8303 29.4486 58.8178 29.4511 58.8061 29.4559C58.7944 29.4608 58.7838 29.4679 58.7749 29.4768C58.7659 29.4857 58.7588 29.4963 58.754 29.508C58.7492 29.5197 58.7467 29.5322 58.7467 29.5449C58.7465 29.6136 58.7191 29.6795 58.6705 29.7281C58.6219 29.7768 58.556 29.8042 58.4872 29.8043C58.4617 29.8043 58.4372 29.8145 58.4192 29.8325C58.4011 29.8506 58.391 29.875 58.391 29.9006V31.8194H58.2025V29.1193H60.3812V33.6705ZM59.2923 31.6627C59.23 31.6628 59.1697 31.6413 59.1216 31.6019C59.0734 31.5625 59.0404 31.5075 59.0282 31.4465C59.016 31.3855 59.0254 31.3221 59.0547 31.2672C59.0841 31.2123 59.1315 31.1693 59.189 31.1455C59.2466 31.1217 59.3105 31.1186 59.3701 31.1367C59.4296 31.1548 59.481 31.193 59.5156 31.2448C59.5501 31.2966 59.5656 31.3587 59.5594 31.4206C59.5532 31.4826 59.5257 31.5404 59.4816 31.5844C59.4312 31.6347 59.3629 31.663 59.2917 31.663L59.2923 31.6627Z" fill="white"/>
<path d="M93.1887 13.3325C93.1683 13.3121 93.1407 13.3006 93.1118 13.3002H90.3891C90.3597 13.3002 90.3316 13.3119 90.3108 13.3326C90.2901 13.3534 90.2784 13.3815 90.2784 13.4109V13.7276L89.2292 14.0087C89.2151 14.0125 89.2019 14.019 89.1904 14.0278C89.1788 14.0366 89.1692 14.0477 89.1619 14.0603C89.1546 14.0729 89.1499 14.0868 89.148 14.1012C89.1461 14.1156 89.147 14.1303 89.1508 14.1443L89.6961 16.1735L89.2265 16.6431C89.1961 16.5985 89.1552 16.5619 89.1074 16.5367C89.0597 16.5114 89.0065 16.4982 88.9524 16.4982H87.8876C87.7995 16.4983 87.715 16.5334 87.6527 16.5959C87.5905 16.6583 87.5556 16.7428 87.5557 16.831V18.6351C87.5558 18.7231 87.5908 18.8074 87.6531 18.8696C87.7153 18.9319 87.7996 18.9669 87.8876 18.967H88.9501C89.0243 18.9671 89.0964 18.9423 89.1549 18.8966C89.2134 18.8509 89.255 18.7869 89.2729 18.7149L89.4044 18.8297C89.506 18.9183 89.6362 18.967 89.771 18.967H93.1118C93.1412 18.967 93.1693 18.9554 93.1901 18.9346C93.2108 18.9139 93.2225 18.8857 93.2225 18.8564V13.4109C93.2223 13.3962 93.2192 13.3818 93.2135 13.3683C93.2077 13.3549 93.1993 13.3427 93.1887 13.3325V13.3325ZM89.061 18.6351C89.0609 18.6644 89.0492 18.6925 89.0285 18.7132C89.0078 18.734 88.9797 18.7457 88.9504 18.7457H87.8876C87.8583 18.7457 87.8302 18.734 87.8095 18.7132C87.7887 18.6925 87.777 18.6644 87.777 18.6351V16.831C87.777 16.8017 87.7887 16.7736 87.8095 16.7528C87.8302 16.7321 87.8583 16.7204 87.8876 16.7203H88.3082V17.9961C88.3082 18.0255 88.3198 18.0536 88.3406 18.0744C88.3613 18.0951 88.3895 18.1068 88.4188 18.1068C88.4482 18.1068 88.4763 18.0951 88.4971 18.0744C88.5178 18.0536 88.5295 18.0255 88.5295 17.9961V16.7203H88.9504C88.9797 16.7204 89.0078 16.7321 89.0285 16.7528C89.0492 16.7736 89.0609 16.8017 89.061 16.831V18.6351ZM89.3935 14.1939L90.2784 13.9568V14.3677L90.2042 14.3862C90.1901 14.3899 90.1769 14.3964 90.1654 14.4052C90.1538 14.4141 90.1441 14.4251 90.1369 14.4377C90.1296 14.4503 90.1249 14.4642 90.123 14.4786C90.1211 14.4931 90.122 14.5077 90.1258 14.5218C90.1462 14.5981 90.1354 14.6794 90.0959 14.7479C90.0564 14.8163 89.9914 14.8663 89.9151 14.8869C89.901 14.8906 89.8878 14.8972 89.8763 14.906C89.8648 14.9149 89.8551 14.926 89.8478 14.9386C89.8406 14.9512 89.8359 14.9652 89.834 14.9796C89.8322 14.994 89.8332 15.0087 89.837 15.0228L90.2684 16.6202H90.0463L89.9309 16.1727C89.9273 16.1587 89.9211 16.1455 89.9124 16.1339L89.3935 14.1939ZM90.2784 14.8745V15.8084L90.0777 15.0612C90.1601 15.0181 90.2295 14.9536 90.2784 14.8745V14.8745ZM91.868 18.7457H89.7707C89.6894 18.7457 89.6109 18.7163 89.5497 18.663L89.2823 18.4299V16.8991L89.7654 16.416L89.8534 16.7588C89.8595 16.7826 89.8733 16.8037 89.8927 16.8188C89.9121 16.8339 89.936 16.8421 89.9606 16.8421H92.1365C92.1776 16.8421 92.2171 16.8585 92.2461 16.8875C92.2752 16.9166 92.2915 16.956 92.2915 16.9971C92.2915 17.0382 92.2752 17.0776 92.2461 17.1067C92.2171 17.1357 92.1776 17.1521 92.1365 17.1521H91.0213C90.9919 17.1521 90.9638 17.1637 90.943 17.1845C90.9223 17.2052 90.9106 17.2334 90.9106 17.2627C90.9106 17.2921 90.9223 17.3202 90.943 17.3409C90.9638 17.3617 90.9919 17.3734 91.0213 17.3734H92.4826C92.5237 17.3734 92.5631 17.3897 92.5921 17.4187C92.6212 17.4478 92.6375 17.4872 92.6375 17.5283C92.6375 17.5694 92.6212 17.6088 92.5921 17.6379C92.5631 17.667 92.5237 17.6833 92.4826 17.6833H91.0213C90.9919 17.6833 90.9638 17.6949 90.943 17.7157C90.9223 17.7364 90.9106 17.7646 90.9106 17.7939C90.9106 17.8233 90.9223 17.8514 90.943 17.8722C90.9638 17.8929 90.9919 17.9046 91.0213 17.9046H92.246C92.2871 17.9046 92.3265 17.9209 92.3556 17.95C92.3847 17.979 92.401 18.0184 92.401 18.0595C92.401 18.1006 92.3847 18.1401 92.3556 18.1691C92.3265 18.1982 92.2871 18.2145 92.246 18.2145H91.0213C90.9919 18.2145 90.9638 18.2262 90.943 18.2469C90.9223 18.2677 90.9106 18.2958 90.9106 18.3252C90.9106 18.3545 90.9223 18.3826 90.943 18.4034C90.9638 18.4241 90.9919 18.4358 91.0213 18.4358H91.868C91.9091 18.4358 91.9485 18.4521 91.9776 18.4812C92.0066 18.5103 92.023 18.5497 92.023 18.5908C92.023 18.6319 92.0066 18.6713 91.9776 18.7003C91.9485 18.7294 91.9091 18.7457 91.868 18.7457V18.7457ZM93.0006 18.7457H92.2114C92.2335 18.6971 92.2449 18.6442 92.2449 18.5908C92.2449 18.5373 92.2335 18.4845 92.2114 18.4358H92.246C92.3102 18.4359 92.3733 18.4195 92.4294 18.3883C92.4854 18.357 92.5326 18.312 92.5663 18.2574C92.6 18.2028 92.6192 18.1404 92.622 18.0763C92.6248 18.0122 92.6112 17.9484 92.5824 17.8911C92.6414 17.8749 92.6956 17.8446 92.7402 17.8028C92.7849 17.761 92.8186 17.7089 92.8386 17.651C92.8585 17.5932 92.8641 17.5314 92.8547 17.4709C92.8454 17.4105 92.8214 17.3532 92.7849 17.3041V15.9015C92.7849 15.8721 92.7732 15.844 92.7525 15.8232C92.7317 15.8025 92.7036 15.7908 92.6742 15.7908C92.6449 15.7908 92.6167 15.8025 92.596 15.8232C92.5752 15.844 92.5636 15.8721 92.5636 15.9015V17.1609C92.5371 17.155 92.51 17.1521 92.4829 17.1521H92.4793C92.5053 17.0948 92.5165 17.0319 92.5119 16.9691C92.5072 16.9064 92.4869 16.8458 92.4528 16.7929C92.4187 16.7401 92.3719 16.6966 92.3166 16.6666C92.2614 16.6365 92.1995 16.6208 92.1365 16.6208H91.9581C92.0699 16.5729 92.1618 16.4878 92.2182 16.38C92.2745 16.2722 92.292 16.1482 92.2675 16.029C92.243 15.9098 92.1782 15.8028 92.0839 15.7259C91.9896 15.649 91.8717 15.607 91.75 15.607C91.6283 15.607 91.5104 15.649 91.4161 15.7259C91.3218 15.8028 91.257 15.9098 91.2325 16.029C91.208 16.1482 91.2255 16.2722 91.2818 16.38C91.3382 16.4878 91.4301 16.5729 91.5419 16.6208H90.9373V14.5162C91.0344 14.4948 91.1234 14.4461 91.1937 14.3758C91.264 14.3055 91.3128 14.2165 91.3341 14.1194H92.1668C92.1881 14.2165 92.2369 14.3055 92.3072 14.3758C92.3775 14.4461 92.4665 14.4948 92.5636 14.5162V14.8605C92.5636 14.875 92.5664 14.8894 92.572 14.9028C92.5776 14.9162 92.5857 14.9284 92.596 14.9387C92.6063 14.949 92.6185 14.9571 92.6319 14.9627C92.6453 14.9682 92.6597 14.9711 92.6742 14.9711C92.6888 14.9711 92.7031 14.9682 92.7166 14.9627C92.73 14.9571 92.7422 14.949 92.7525 14.9387C92.7627 14.9284 92.7709 14.9162 92.7764 14.9028C92.782 14.8894 92.7849 14.875 92.7849 14.8605V14.4173C92.7849 14.4027 92.782 14.3884 92.7764 14.3749C92.7709 14.3615 92.7627 14.3493 92.7525 14.339C92.7422 14.3288 92.73 14.3206 92.7166 14.315C92.7031 14.3095 92.6888 14.3066 92.6742 14.3066C92.5953 14.3065 92.5196 14.275 92.4637 14.2192C92.4079 14.1634 92.3765 14.0877 92.3763 14.0087C92.3763 13.9794 92.3647 13.9512 92.3439 13.9305C92.3232 13.9097 92.295 13.8981 92.2657 13.8981H91.2355C91.221 13.8981 91.2066 13.9009 91.1932 13.9065C91.1797 13.9121 91.1675 13.9202 91.1573 13.9305C91.147 13.9408 91.1388 13.953 91.1333 13.9664C91.1277 13.9798 91.1249 13.9942 91.1249 14.0087C91.1247 14.0877 91.0933 14.1634 91.0374 14.2192C90.9816 14.275 90.9059 14.3065 90.827 14.3066C90.8124 14.3066 90.798 14.3095 90.7846 14.315C90.7712 14.3206 90.759 14.3288 90.7487 14.339C90.7384 14.3493 90.7303 14.3615 90.7247 14.3749C90.7192 14.3884 90.7163 14.4027 90.7163 14.4173V16.6205H90.5V13.5218H93.0015L93.0006 18.7457ZM91.7506 16.4406C91.6791 16.4407 91.6098 16.4161 91.5545 16.3708C91.4992 16.3255 91.4613 16.2625 91.4473 16.1924C91.4333 16.1223 91.444 16.0495 91.4777 15.9865C91.5114 15.9234 91.5659 15.874 91.6319 15.8466C91.6979 15.8193 91.7714 15.8157 91.8398 15.8364C91.9082 15.8572 91.9673 15.9011 92.0069 15.9605C92.0466 16.02 92.0644 16.0914 92.0573 16.1625C92.0502 16.2336 92.0187 16.3001 91.9681 16.3505C91.9103 16.4081 91.8321 16.4405 91.7506 16.4406Z" fill="white"/>
<path d="M35.3703 17.7349C35.3499 17.7145 35.3223 17.703 35.2934 17.7026H32.5707C32.5414 17.7026 32.5132 17.7143 32.4925 17.735C32.4717 17.7558 32.4601 17.7839 32.4601 17.8133V18.13L31.4108 18.4111C31.3968 18.4149 31.3836 18.4214 31.372 18.4302C31.3605 18.4391 31.3508 18.4501 31.3435 18.4627C31.3362 18.4753 31.3315 18.4892 31.3296 18.5036C31.3277 18.518 31.3287 18.5327 31.3324 18.5467L31.8778 20.5759L31.4082 21.0455C31.3777 21.0009 31.3368 20.9643 31.2891 20.9391C31.2413 20.9138 31.1881 20.9006 31.134 20.9006H30.0692C29.9811 20.9007 29.8966 20.9359 29.8344 20.9983C29.7721 21.0607 29.7372 21.1452 29.7373 21.2334V23.0375C29.7375 23.1255 29.7725 23.2098 29.8347 23.272C29.8969 23.3343 29.9813 23.3693 30.0692 23.3694H31.1317C31.2059 23.3695 31.278 23.3447 31.3365 23.299C31.3951 23.2533 31.4366 23.1893 31.4545 23.1173L31.586 23.2321C31.6876 23.3207 31.8178 23.3694 31.9526 23.3694H35.2934C35.3228 23.3694 35.3509 23.3578 35.3717 23.337C35.3924 23.3163 35.4041 23.2881 35.4041 23.2588V17.8133C35.4039 17.7986 35.4009 17.7842 35.3951 17.7707C35.3893 17.7573 35.3809 17.7451 35.3703 17.7349V17.7349ZM31.2426 23.0375C31.2426 23.0668 31.2309 23.0949 31.2101 23.1156C31.1894 23.1364 31.1613 23.1481 31.132 23.1481H30.0692C30.0399 23.1481 30.0118 23.1364 29.9911 23.1156C29.9704 23.0949 29.9587 23.0668 29.9586 23.0375V21.2334C29.9587 21.2041 29.9704 21.176 29.9911 21.1552C30.0118 21.1345 30.0399 21.1228 30.0692 21.1227H30.4898V22.3986C30.4898 22.4279 30.5015 22.456 30.5222 22.4768C30.543 22.4975 30.5711 22.5092 30.6005 22.5092C30.6298 22.5092 30.658 22.4975 30.6787 22.4768C30.6995 22.456 30.7111 22.4279 30.7111 22.3986V21.1227H31.132C31.1613 21.1228 31.1894 21.1345 31.2101 21.1552C31.2309 21.176 31.2426 21.2041 31.2426 21.2334V23.0375ZM31.5752 18.5963L32.4601 18.3592V18.7701L32.3858 18.7886C32.3717 18.7923 32.3586 18.7988 32.347 18.8076C32.3355 18.8165 32.3258 18.8275 32.3185 18.8401C32.3112 18.8527 32.3065 18.8666 32.3046 18.881C32.3027 18.8955 32.3037 18.9101 32.3074 18.9242C32.3278 19.0005 32.317 19.0818 32.2775 19.1503C32.238 19.2187 32.173 19.2687 32.0967 19.2893C32.0826 19.293 32.0695 19.2996 32.0579 19.3084C32.0464 19.3173 32.0367 19.3284 32.0295 19.341C32.0222 19.3536 32.0175 19.3676 32.0157 19.382C32.0138 19.3964 32.0148 19.4111 32.0186 19.4252L32.4501 21.0226H32.2279L32.1126 20.5751C32.109 20.5611 32.1027 20.5479 32.0941 20.5363L31.5752 18.5963ZM32.4601 19.2769V20.2108L32.2593 19.4636C32.3417 19.4205 32.4111 19.356 32.4601 19.2769V19.2769ZM34.0496 23.1481H31.9523C31.8711 23.1481 31.7926 23.1187 31.7313 23.0654L31.4639 22.8323V21.3015L31.947 20.8184L32.0351 21.1612C32.0411 21.185 32.055 21.2061 32.0744 21.2212C32.0938 21.2363 32.1176 21.2445 32.1422 21.2445H34.3182C34.3593 21.2445 34.3987 21.2609 34.4277 21.2899C34.4568 21.319 34.4731 21.3584 34.4731 21.3995C34.4731 21.4406 34.4568 21.48 34.4277 21.5091C34.3987 21.5381 34.3593 21.5545 34.3182 21.5545H33.2029C33.1735 21.5545 33.1454 21.5661 33.1246 21.5869C33.1039 21.6076 33.0922 21.6358 33.0922 21.6651C33.0922 21.6945 33.1039 21.7226 33.1246 21.7433C33.1454 21.7641 33.1735 21.7758 33.2029 21.7758H34.6642C34.7053 21.7758 34.7447 21.7921 34.7738 21.8211C34.8028 21.8502 34.8192 21.8896 34.8192 21.9307C34.8192 21.9718 34.8028 22.0112 34.7738 22.0403C34.7447 22.0694 34.7053 22.0857 34.6642 22.0857H33.2029C33.1735 22.0857 33.1454 22.0973 33.1246 22.1181C33.1039 22.1388 33.0922 22.167 33.0922 22.1963C33.0922 22.2257 33.1039 22.2538 33.1246 22.2746C33.1454 22.2953 33.1735 22.307 33.2029 22.307H34.4276C34.4687 22.307 34.5082 22.3233 34.5372 22.3524C34.5663 22.3814 34.5826 22.4208 34.5826 22.4619C34.5826 22.503 34.5663 22.5425 34.5372 22.5715C34.5082 22.6006 34.4687 22.6169 34.4276 22.6169H33.2029C33.1735 22.6169 33.1454 22.6286 33.1246 22.6493C33.1039 22.6701 33.0922 22.6982 33.0922 22.7276C33.0922 22.7569 33.1039 22.785 33.1246 22.8058C33.1454 22.8265 33.1735 22.8382 33.2029 22.8382H34.0496C34.0907 22.8382 34.1301 22.8545 34.1592 22.8836C34.1883 22.9127 34.2046 22.9521 34.2046 22.9932C34.2046 23.0343 34.1883 23.0737 34.1592 23.1027C34.1301 23.1318 34.0907 23.1481 34.0496 23.1481V23.1481ZM35.1822 23.1481H34.393C34.4151 23.0995 34.4265 23.0466 34.4265 22.9932C34.4265 22.9397 34.4151 22.8869 34.393 22.8382H34.4276C34.4918 22.8383 34.5549 22.8219 34.611 22.7907C34.6671 22.7594 34.7142 22.7144 34.7479 22.6598C34.7816 22.6052 34.8008 22.5428 34.8036 22.4787C34.8064 22.4146 34.7928 22.3508 34.764 22.2935C34.823 22.2773 34.8772 22.247 34.9218 22.2052C34.9665 22.1634 35.0003 22.1113 35.0202 22.0534C35.0402 21.9956 35.0457 21.9338 35.0363 21.8733C35.027 21.8129 35.003 21.7556 34.9665 21.7065V20.3039C34.9665 20.2745 34.9548 20.2464 34.9341 20.2256C34.9133 20.2049 34.8852 20.1932 34.8558 20.1932C34.8265 20.1932 34.7984 20.2049 34.7776 20.2256C34.7569 20.2464 34.7452 20.2745 34.7452 20.3039V21.5633C34.7187 21.5574 34.6916 21.5545 34.6645 21.5545H34.661C34.6869 21.4972 34.6981 21.4343 34.6935 21.3715C34.6889 21.3088 34.6686 21.2482 34.6345 21.1953C34.6003 21.1425 34.5535 21.099 34.4983 21.069C34.443 21.0389 34.3811 21.0232 34.3182 21.0232H34.1397C34.2516 20.9753 34.3434 20.8903 34.3998 20.7824C34.4562 20.6746 34.4736 20.5506 34.4491 20.4314C34.4247 20.3123 34.3598 20.2052 34.2655 20.1283C34.1712 20.0514 34.0533 20.0094 33.9316 20.0094C33.81 20.0094 33.692 20.0514 33.5977 20.1283C33.5034 20.2052 33.4386 20.3123 33.4141 20.4314C33.3897 20.5506 33.4071 20.6746 33.4635 20.7824C33.5198 20.8903 33.6117 20.9753 33.7235 21.0232H33.1189V18.9186C33.2161 18.8972 33.305 18.8485 33.3753 18.7782C33.4457 18.7079 33.4944 18.6189 33.5158 18.5218H34.3484C34.3698 18.6189 34.4185 18.7079 34.4888 18.7782C34.5591 18.8485 34.6481 18.8972 34.7452 18.9186V19.2629C34.7452 19.2774 34.7481 19.2918 34.7536 19.3052C34.7592 19.3186 34.7673 19.3308 34.7776 19.3411C34.7879 19.3514 34.8001 19.3595 34.8135 19.3651C34.8269 19.3706 34.8413 19.3735 34.8558 19.3735C34.8704 19.3735 34.8848 19.3706 34.8982 19.3651C34.9116 19.3595 34.9238 19.3514 34.9341 19.3411C34.9444 19.3308 34.9525 19.3186 34.9581 19.3052C34.9636 19.2918 34.9665 19.2774 34.9665 19.2629V18.8197C34.9665 18.8051 34.9636 18.7908 34.9581 18.7773C34.9525 18.7639 34.9444 18.7517 34.9341 18.7414C34.9238 18.7312 34.9116 18.723 34.8982 18.7175C34.8848 18.7119 34.8704 18.709 34.8558 18.709C34.7769 18.7089 34.7012 18.6774 34.6454 18.6216C34.5895 18.5658 34.5581 18.4901 34.558 18.4111C34.558 18.3818 34.5463 18.3536 34.5255 18.3329C34.5048 18.3121 34.4766 18.3005 34.4473 18.3005H33.4171C33.4026 18.3005 33.3882 18.3033 33.3748 18.3089C33.3614 18.3145 33.3492 18.3226 33.3389 18.3329C33.3286 18.3432 33.3205 18.3554 33.3149 18.3688C33.3094 18.3822 33.3065 18.3966 33.3065 18.4111C33.3063 18.4901 33.2749 18.5658 33.2191 18.6216C33.1632 18.6774 33.0876 18.7089 33.0086 18.709C32.9941 18.709 32.9797 18.7119 32.9663 18.7175C32.9528 18.723 32.9406 18.7312 32.9304 18.7414C32.9201 18.7517 32.9119 18.7639 32.9064 18.7773C32.9008 18.7908 32.8979 18.8051 32.8979 18.8197V21.0229H32.6816V17.9242H35.1831L35.1822 23.1481ZM33.9322 20.843C33.8607 20.8431 33.7914 20.8185 33.7361 20.7732C33.6808 20.7279 33.6429 20.6649 33.6289 20.5948C33.6149 20.5247 33.6257 20.4519 33.6593 20.3889C33.693 20.3258 33.7475 20.2764 33.8135 20.249C33.8796 20.2217 33.953 20.2181 34.0214 20.2388C34.0898 20.2596 34.1489 20.3035 34.1885 20.3629C34.2282 20.4224 34.246 20.4938 34.2389 20.5649C34.2319 20.636 34.2003 20.7025 34.1497 20.7529C34.092 20.8105 34.0138 20.8429 33.9322 20.843Z" fill="white"/>
<path d="M54.7424 11.1877C54.722 11.1673 54.6944 11.1557 54.6655 11.1554H51.9428C51.9134 11.1554 51.8853 11.1671 51.8645 11.1878C51.8438 11.2086 51.8321 11.2367 51.8321 11.266V11.5827L50.7829 11.8639C50.7688 11.8676 50.7556 11.8741 50.7441 11.883C50.7325 11.8918 50.7229 11.9028 50.7156 11.9154C50.7083 11.928 50.7036 11.9419 50.7017 11.9564C50.6998 11.9708 50.7007 11.9854 50.7045 11.9995L51.2498 14.0287L50.7802 14.4983C50.7498 14.4536 50.7089 14.4171 50.6611 14.3918C50.6134 14.3666 50.5602 14.3533 50.5061 14.3533H49.4413C49.3532 14.3535 49.2687 14.3886 49.2065 14.451C49.1442 14.5134 49.1093 14.598 49.1094 14.6861V16.4902C49.1095 16.5782 49.1446 16.6626 49.2068 16.7248C49.269 16.787 49.3533 16.822 49.4413 16.8222H50.5038C50.578 16.8222 50.6501 16.7974 50.7086 16.7517C50.7671 16.7061 50.8087 16.6421 50.8266 16.5701L50.9581 16.6848C51.0597 16.7734 51.1899 16.8222 51.3247 16.8222H54.6655C54.6949 16.8222 54.723 16.8105 54.7437 16.7898C54.7645 16.769 54.7762 16.7409 54.7762 16.7115V11.266C54.776 11.2514 54.7729 11.2369 54.7671 11.2235C54.7613 11.21 54.7529 11.1979 54.7424 11.1877V11.1877ZM50.6147 16.4902C50.6146 16.5196 50.6029 16.5477 50.5822 16.5684C50.5615 16.5891 50.5334 16.6008 50.5041 16.6009H49.4413C49.412 16.6008 49.3839 16.5891 49.3632 16.5684C49.3424 16.5477 49.3307 16.5196 49.3307 16.4902V14.6861C49.3307 14.6568 49.3424 14.6287 49.3632 14.608C49.3839 14.5872 49.412 14.5756 49.4413 14.5755H49.8619V15.8513C49.8619 15.8807 49.8736 15.9088 49.8943 15.9296C49.9151 15.9503 49.9432 15.962 49.9725 15.962C50.0019 15.962 50.03 15.9503 50.0508 15.9296C50.0715 15.9088 50.0832 15.8807 50.0832 15.8513V14.5755H50.5041C50.5334 14.5756 50.5615 14.5872 50.5822 14.608C50.6029 14.6287 50.6146 14.6568 50.6147 14.6861V16.4902ZM50.9472 12.0491L51.8321 11.8119V12.2228L51.7579 12.2413C51.7438 12.2451 51.7306 12.2516 51.7191 12.2604C51.7075 12.2692 51.6978 12.2803 51.6906 12.2929C51.6833 12.3055 51.6786 12.3194 51.6767 12.3338C51.6748 12.3482 51.6757 12.3629 51.6795 12.3769C51.6999 12.4533 51.6891 12.5346 51.6496 12.603C51.6101 12.6715 51.5451 12.7215 51.4688 12.742C51.4547 12.7458 51.4415 12.7523 51.43 12.7612C51.4185 12.7701 51.4088 12.7811 51.4015 12.7938C51.3943 12.8064 51.3896 12.8203 51.3877 12.8348C51.3859 12.8492 51.3869 12.8639 51.3907 12.8779L51.8221 14.4754H51.6L51.4846 14.0278C51.481 14.0138 51.4748 14.0007 51.4661 13.9891L50.9472 12.0491ZM51.8321 12.7297V13.6636L51.6314 12.9164C51.7138 12.8733 51.7832 12.8088 51.8321 12.7297V12.7297ZM53.4217 16.6009H51.3244C51.2431 16.6009 51.1646 16.5715 51.1034 16.5181L50.836 16.2851V14.7542L51.3191 14.2711L51.4071 14.6139C51.4132 14.6378 51.427 14.6589 51.4464 14.674C51.4658 14.6891 51.4897 14.6973 51.5143 14.6973H53.6902C53.7313 14.6973 53.7707 14.7136 53.7998 14.7427C53.8289 14.7717 53.8452 14.8112 53.8452 14.8523C53.8452 14.8934 53.8289 14.9328 53.7998 14.9618C53.7707 14.9909 53.7313 15.0072 53.6902 15.0072H52.5749C52.5456 15.0072 52.5175 15.0189 52.4967 15.0396C52.476 15.0604 52.4643 15.0885 52.4643 15.1179C52.4643 15.1472 52.476 15.1754 52.4967 15.1961C52.5175 15.2169 52.5456 15.2285 52.5749 15.2285H54.0363C54.0774 15.2285 54.1168 15.2448 54.1458 15.2739C54.1749 15.303 54.1912 15.3424 54.1912 15.3835C54.1912 15.4246 54.1749 15.464 54.1458 15.4931C54.1168 15.5221 54.0774 15.5384 54.0363 15.5384H52.5749C52.5456 15.5384 52.5175 15.5501 52.4967 15.5709C52.476 15.5916 52.4643 15.6197 52.4643 15.6491C52.4643 15.6784 52.476 15.7066 52.4967 15.7273C52.5175 15.7481 52.5456 15.7597 52.5749 15.7597H53.7997C53.8408 15.7597 53.8802 15.7761 53.9093 15.8051C53.9383 15.8342 53.9547 15.8736 53.9547 15.9147C53.9547 15.9558 53.9383 15.9952 53.9093 16.0243C53.8802 16.0533 53.8408 16.0697 53.7997 16.0697H52.5749C52.5456 16.0697 52.5175 16.0813 52.4967 16.1021C52.476 16.1228 52.4643 16.151 52.4643 16.1803C52.4643 16.2097 52.476 16.2378 52.4967 16.2586C52.5175 16.2793 52.5456 16.291 52.5749 16.291H53.4217C53.4628 16.291 53.5022 16.3073 53.5313 16.3364C53.5603 16.3654 53.5766 16.4048 53.5766 16.4459C53.5766 16.487 53.5603 16.5264 53.5313 16.5555C53.5022 16.5846 53.4628 16.6009 53.4217 16.6009V16.6009ZM54.5543 16.6009H53.7651C53.7872 16.5522 53.7986 16.4994 53.7986 16.4459C53.7986 16.3925 53.7872 16.3396 53.7651 16.291H53.7997C53.8639 16.291 53.927 16.2747 53.9831 16.2434C54.0391 16.2122 54.0863 16.1671 54.12 16.1125C54.1537 16.0579 54.1729 15.9956 54.1757 15.9315C54.1785 15.8674 54.1649 15.8036 54.136 15.7462C54.1951 15.7301 54.2492 15.6998 54.2939 15.658C54.3385 15.6161 54.3723 15.564 54.3923 15.5062C54.4122 15.4484 54.4178 15.3865 54.4084 15.3261C54.399 15.2656 54.3751 15.2083 54.3386 15.1592V13.7566C54.3386 13.7273 54.3269 13.6991 54.3061 13.6784C54.2854 13.6576 54.2573 13.646 54.2279 13.646C54.1986 13.646 54.1704 13.6576 54.1497 13.6784C54.1289 13.6991 54.1173 13.7273 54.1173 13.7566V15.016C54.0908 15.0102 54.0637 15.0072 54.0365 15.0072H54.033C54.059 14.9499 54.0702 14.887 54.0656 14.8243C54.0609 14.7615 54.0406 14.701 54.0065 14.6481C53.9724 14.5952 53.9256 14.5518 53.8703 14.5217C53.8151 14.4917 53.7531 14.4759 53.6902 14.476H53.5118C53.6236 14.4281 53.7155 14.343 53.7719 14.2352C53.8282 14.1274 53.8457 14.0034 53.8212 13.8842C53.7967 13.765 53.7319 13.6579 53.6376 13.581C53.5433 13.5041 53.4254 13.4621 53.3037 13.4621C53.182 13.4621 53.0641 13.5041 52.9698 13.581C52.8755 13.6579 52.8107 13.765 52.7862 13.8842C52.7617 14.0034 52.7792 14.1274 52.8355 14.2352C52.8919 14.343 52.9838 14.4281 53.0956 14.476H52.491V12.3713C52.5881 12.35 52.6771 12.3013 52.7474 12.2309C52.8177 12.1606 52.8664 12.0717 52.8878 11.9745H53.7205C53.7418 12.0717 53.7906 12.1606 53.8609 12.2309C53.9312 12.3013 54.0201 12.35 54.1173 12.3713V12.7156C54.1173 12.7301 54.1201 12.7445 54.1257 12.758C54.1312 12.7714 54.1394 12.7836 54.1497 12.7939C54.1599 12.8041 54.1721 12.8123 54.1856 12.8178C54.199 12.8234 54.2134 12.8263 54.2279 12.8263C54.2424 12.8263 54.2568 12.8234 54.2702 12.8178C54.2837 12.8123 54.2959 12.8041 54.3061 12.7939C54.3164 12.7836 54.3246 12.7714 54.3301 12.758C54.3357 12.7445 54.3386 12.7301 54.3386 12.7156V12.2724C54.3386 12.2579 54.3357 12.2435 54.3301 12.2301C54.3246 12.2167 54.3164 12.2045 54.3061 12.1942C54.2959 12.1839 54.2837 12.1758 54.2702 12.1702C54.2568 12.1647 54.2424 12.1618 54.2279 12.1618C54.1489 12.1616 54.0733 12.1302 54.0174 12.0744C53.9616 12.0185 53.9302 11.9429 53.93 11.8639C53.93 11.8345 53.9184 11.8064 53.8976 11.7857C53.8769 11.7649 53.8487 11.7532 53.8194 11.7532H52.7892C52.7747 11.7532 52.7603 11.7561 52.7469 11.7617C52.7334 11.7672 52.7212 11.7754 52.711 11.7857C52.7007 11.7959 52.6925 11.8081 52.687 11.8215C52.6814 11.835 52.6786 11.8494 52.6786 11.8639C52.6784 11.9429 52.647 12.0185 52.5911 12.0744C52.5353 12.1302 52.4596 12.1616 52.3807 12.1618C52.3661 12.1618 52.3517 12.1647 52.3383 12.1702C52.3249 12.1758 52.3127 12.1839 52.3024 12.1942C52.2921 12.2045 52.284 12.2167 52.2784 12.2301C52.2729 12.2435 52.27 12.2579 52.27 12.2724V14.4757H52.0537V11.377H54.5552L54.5543 16.6009ZM53.3043 14.2958C53.2328 14.2959 53.1635 14.2712 53.1082 14.226C53.0529 14.1807 53.015 14.1176 53.001 14.0475C52.987 13.9774 52.9977 13.9047 53.0314 13.8416C53.0651 13.7786 53.1196 13.7291 53.1856 13.7018C53.2516 13.6744 53.3251 13.6708 53.3935 13.6916C53.4619 13.7124 53.5209 13.7562 53.5606 13.8157C53.6003 13.8751 53.6181 13.9465 53.611 14.0176C53.6039 14.0888 53.5724 14.1552 53.5218 14.2057C53.464 14.2633 53.3858 14.2957 53.3043 14.2958Z" fill="white"/>
<path d="M77.3401 27.0364C77.3196 27.016 77.292 27.0044 77.2632 27.0041H74.5404C74.5111 27.0041 74.4829 27.0157 74.4622 27.0365C74.4414 27.0572 74.4298 27.0854 74.4298 27.1147V27.4314L73.3805 27.7126C73.3665 27.7163 73.3533 27.7228 73.3418 27.7317C73.3302 27.7405 73.3205 27.7515 73.3132 27.7641C73.306 27.7767 73.3012 27.7906 73.2993 27.8051C73.2974 27.8195 73.2984 27.8341 73.3022 27.8482L73.8475 29.8774L73.3779 30.347C73.3475 30.3023 73.3066 30.2658 73.2588 30.2405C73.211 30.2153 73.1578 30.202 73.1038 30.202H72.039C71.9508 30.2022 71.8664 30.2373 71.8041 30.2997C71.7419 30.3621 71.707 30.4467 71.707 30.5348V32.3389C71.7072 32.4269 71.7422 32.5113 71.8044 32.5735C71.8666 32.6357 71.951 32.6707 72.039 32.6709H73.1014C73.1757 32.6709 73.2478 32.6461 73.3063 32.6004C73.3648 32.5548 73.4063 32.4908 73.4243 32.4188L73.5558 32.5335C73.6573 32.6221 73.7876 32.6709 73.9223 32.6709H77.2632C77.2925 32.6709 77.3207 32.6592 77.3414 32.6385C77.3622 32.6177 77.3738 32.5896 77.3738 32.5602V27.1147C77.3737 27.1001 77.3706 27.0856 77.3648 27.0722C77.359 27.0587 77.3506 27.0466 77.3401 27.0364V27.0364ZM73.2124 32.3389C73.2123 32.3683 73.2006 32.3964 73.1799 32.4171C73.1591 32.4378 73.131 32.4495 73.1017 32.4496H72.039C72.0097 32.4495 71.9816 32.4378 71.9608 32.4171C71.9401 32.3964 71.9284 32.3683 71.9283 32.3389V30.5348C71.9284 30.5055 71.9401 30.4774 71.9608 30.4567C71.9816 30.4359 72.0097 30.4243 72.039 30.4242H72.4596V31.7C72.4596 31.7294 72.4712 31.7575 72.492 31.7782C72.5127 31.799 72.5409 31.8107 72.5702 31.8107C72.5995 31.8107 72.6277 31.799 72.6484 31.7782C72.6692 31.7575 72.6808 31.7294 72.6808 31.7V30.4242H73.1017C73.131 30.4243 73.1591 30.4359 73.1799 30.4567C73.2006 30.4774 73.2123 30.5055 73.2124 30.5348V32.3389ZM73.5449 27.8978L74.4298 27.6606V28.0715L74.3555 28.09C74.3415 28.0938 74.3283 28.1002 74.3167 28.1091C74.3052 28.1179 74.2955 28.129 74.2882 28.1416C74.281 28.1542 74.2762 28.1681 74.2743 28.1825C74.2724 28.1969 74.2734 28.2116 74.2772 28.2256C74.2975 28.302 74.2868 28.3833 74.2473 28.4517C74.2078 28.5202 74.1427 28.5702 74.0664 28.5907C74.0524 28.5945 74.0392 28.601 74.0277 28.6099C74.0161 28.6188 74.0065 28.6298 73.9992 28.6425C73.9919 28.6551 73.9873 28.669 73.9854 28.6835C73.9835 28.6979 73.9845 28.7126 73.9884 28.7266L74.4198 30.3241H74.1976L74.0823 29.8765C74.0787 29.8625 74.0724 29.8494 74.0638 29.8378L73.5449 27.8978ZM74.4298 28.5784V29.5123L74.229 28.7651C74.3115 28.722 74.3808 28.6575 74.4298 28.5784V28.5784ZM76.0194 32.4496H73.922C73.8408 32.4496 73.7623 32.4202 73.701 32.3668L73.4337 32.1338V30.6029L73.9168 30.1198L74.0048 30.4626C74.0109 30.4864 74.0247 30.5076 74.0441 30.5227C74.0635 30.5378 74.0874 30.546 74.1119 30.546H76.2879C76.329 30.546 76.3684 30.5623 76.3975 30.5914C76.4265 30.6204 76.4429 30.6598 76.4429 30.7009C76.4429 30.742 76.4265 30.7815 76.3975 30.8105C76.3684 30.8396 76.329 30.8559 76.2879 30.8559H75.1726C75.1433 30.8559 75.1151 30.8676 75.0944 30.8883C75.0736 30.9091 75.062 30.9372 75.062 30.9666C75.062 30.9959 75.0736 31.0241 75.0944 31.0448C75.1151 31.0656 75.1433 31.0772 75.1726 31.0772H76.6339C76.675 31.0772 76.7144 31.0935 76.7435 31.1226C76.7726 31.1517 76.7889 31.1911 76.7889 31.2322C76.7889 31.2733 76.7726 31.3127 76.7435 31.3418C76.7144 31.3708 76.675 31.3871 76.6339 31.3871H75.1726C75.1433 31.3871 75.1151 31.3988 75.0944 31.4195C75.0736 31.4403 75.062 31.4684 75.062 31.4978C75.062 31.5271 75.0736 31.5553 75.0944 31.576C75.1151 31.5968 75.1433 31.6084 75.1726 31.6084H76.3974C76.4385 31.6084 76.4779 31.6248 76.507 31.6538C76.536 31.6829 76.5523 31.7223 76.5523 31.7634C76.5523 31.8045 76.536 31.8439 76.507 31.873C76.4779 31.902 76.4385 31.9184 76.3974 31.9184H75.1726C75.1433 31.9184 75.1151 31.93 75.0944 31.9508C75.0736 31.9715 75.062 31.9997 75.062 32.029C75.062 32.0584 75.0736 32.0865 75.0944 32.1073C75.1151 32.128 75.1433 32.1397 75.1726 32.1397H76.0194C76.0605 32.1397 76.0999 32.156 76.1289 32.185C76.158 32.2141 76.1743 32.2535 76.1743 32.2946C76.1743 32.3357 76.158 32.3751 76.1289 32.4042C76.0999 32.4333 76.0605 32.4496 76.0194 32.4496V32.4496ZM77.1519 32.4496H76.3627C76.3848 32.4009 76.3963 32.3481 76.3963 32.2946C76.3963 32.2412 76.3848 32.1883 76.3627 32.1397H76.3974C76.4616 32.1397 76.5247 32.1234 76.5807 32.0921C76.6368 32.0609 76.6839 32.0158 76.7177 31.9612C76.7514 31.9066 76.7706 31.8443 76.7734 31.7802C76.7762 31.716 76.7625 31.6523 76.7337 31.5949C76.7927 31.5788 76.8469 31.5485 76.8916 31.5067C76.9362 31.4648 76.97 31.4127 76.9899 31.3549C77.0099 31.2971 77.0154 31.2352 77.0061 31.1748C76.9967 31.1143 76.9727 31.057 76.9362 31.0079V29.6053C76.9362 29.576 76.9246 29.5478 76.9038 29.5271C76.8831 29.5063 76.8549 29.4947 76.8256 29.4947C76.7962 29.4947 76.7681 29.5063 76.7473 29.5271C76.7266 29.5478 76.7149 29.576 76.7149 29.6053V30.8647C76.6884 30.8589 76.6614 30.8559 76.6342 30.8559H76.6307C76.6567 30.7986 76.6679 30.7357 76.6632 30.673C76.6586 30.6102 76.6383 30.5497 76.6042 30.4968C76.5701 30.4439 76.5233 30.4005 76.468 30.3704C76.4127 30.3403 76.3508 30.3246 76.2879 30.3247H76.1095C76.2213 30.2768 76.3132 30.1917 76.3695 30.0839C76.4259 29.9761 76.4433 29.8521 76.4189 29.7329C76.3944 29.6137 76.3296 29.5066 76.2353 29.4297C76.141 29.3528 76.023 29.3108 75.9014 29.3108C75.7797 29.3108 75.6618 29.3528 75.5675 29.4297C75.4732 29.5066 75.4083 29.6137 75.3839 29.7329C75.3594 29.8521 75.3768 29.9761 75.4332 30.0839C75.4896 30.1917 75.5814 30.2768 75.6933 30.3247H75.0887V28.22C75.1858 28.1987 75.2748 28.1499 75.3451 28.0796C75.4154 28.0093 75.4641 27.9203 75.4855 27.8232H76.3181C76.3395 27.9203 76.3882 28.0093 76.4585 28.0796C76.5289 28.1499 76.6178 28.1987 76.7149 28.22V28.5643C76.7149 28.5788 76.7178 28.5932 76.7234 28.6066C76.7289 28.6201 76.7371 28.6323 76.7473 28.6425C76.7576 28.6528 76.7698 28.661 76.7832 28.6665C76.7967 28.6721 76.8111 28.675 76.8256 28.675C76.8401 28.675 76.8545 28.6721 76.8679 28.6665C76.8814 28.661 76.8935 28.6528 76.9038 28.6425C76.9141 28.6323 76.9222 28.6201 76.9278 28.6066C76.9334 28.5932 76.9362 28.5788 76.9362 28.5643V28.1211C76.9362 28.1066 76.9334 28.0922 76.9278 28.0788C76.9222 28.0654 76.9141 28.0532 76.9038 28.0429C76.8935 28.0326 76.8814 28.0245 76.8679 28.0189C76.8545 28.0133 76.8401 28.0105 76.8256 28.0105C76.7466 28.0103 76.6709 27.9789 76.6151 27.9231C76.5593 27.8672 76.5278 27.7915 76.5277 27.7126C76.5277 27.6832 76.516 27.6551 76.4953 27.6343C76.4745 27.6136 76.4464 27.6019 76.417 27.6019H75.3869C75.3723 27.6019 75.358 27.6048 75.3445 27.6104C75.3311 27.6159 75.3189 27.6241 75.3086 27.6343C75.2984 27.6446 75.2902 27.6568 75.2846 27.6702C75.2791 27.6837 75.2762 27.6981 75.2762 27.7126C75.2761 27.7915 75.2446 27.8672 75.1888 27.9231C75.133 27.9789 75.0573 28.0103 74.9783 28.0105C74.9638 28.0105 74.9494 28.0133 74.936 28.0189C74.9226 28.0245 74.9104 28.0326 74.9001 28.0429C74.8898 28.0532 74.8817 28.0654 74.8761 28.0788C74.8705 28.0922 74.8677 28.1066 74.8677 28.1211V30.3244H74.6514V27.2257H77.1528L77.1519 32.4496ZM75.902 30.1445C75.8305 30.1446 75.7612 30.1199 75.7059 30.0746C75.6506 30.0294 75.6127 29.9663 75.5987 29.8962C75.5847 29.8261 75.5954 29.7534 75.6291 29.6903C75.6627 29.6273 75.7172 29.5778 75.7833 29.5505C75.8493 29.5231 75.9228 29.5195 75.9912 29.5403C76.0596 29.5611 76.1186 29.6049 76.1583 29.6644C76.198 29.7238 76.2158 29.7952 76.2087 29.8663C76.2016 29.9375 76.1701 30.0039 76.1194 30.0544C76.0617 30.112 75.9835 30.1444 75.902 30.1445Z" fill="white"/>
<path d="M56.6136 62.5319V61.4657C56.6135 61.4112 56.5955 61.3583 56.5625 61.315C56.5294 61.2717 56.483 61.2405 56.4304 61.2262L55.1725 60.8831C55.1513 60.8774 55.1294 60.8744 55.1074 60.8743H54.5034V60.0569L54.7153 59.845L54.5392 59.6689L54.2909 59.9172C54.2794 59.9289 54.2702 59.9426 54.2639 59.9577C54.2577 59.9728 54.2545 59.9889 54.2545 60.0052V60.8743H54.0062V60.4279C54.0062 60.3619 53.98 60.2985 53.9334 60.2518L53.5609 59.8793H53.6337C53.6667 59.8793 53.6982 59.8663 53.7215 59.843C53.7448 59.8197 53.7579 59.7881 53.7579 59.7552V59.5767C53.7577 59.5361 53.7475 59.496 53.7282 59.4602C53.7089 59.4244 53.6811 59.3938 53.6472 59.3713L53.3614 59.1808C53.3211 59.1529 53.2734 59.1374 53.2243 59.1365H51.6485C51.5827 59.1366 51.5196 59.1628 51.4731 59.2093C51.4265 59.2559 51.4003 59.319 51.4002 59.3848V59.7572C51.4002 59.7736 51.4034 59.7897 51.4096 59.8048C51.4158 59.8199 51.425 59.8336 51.4366 59.845C51.4481 59.8566 51.4617 59.8658 51.4768 59.872C51.4919 59.8782 51.5081 59.8814 51.5244 59.8814H51.7727V60.8746H51.0976C51.0301 60.8746 50.9639 60.893 50.906 60.9277L50.4658 61.1918C50.4108 61.2251 50.3653 61.272 50.3337 61.3279C50.3021 61.3838 50.2854 61.4469 50.2853 61.5112V61.8954C50.0969 62.0876 49.9558 62.321 49.8731 62.5772C49.7904 62.8333 49.7683 63.1051 49.8087 63.3712C49.849 63.6373 49.9507 63.8904 50.1056 64.1105C50.2605 64.3306 50.4644 64.5117 50.7013 64.6395C50.9382 64.7673 51.2015 64.8383 51.4705 64.8469C51.7396 64.8555 52.0069 64.8014 52.2514 64.689C52.496 64.5766 52.7111 64.4089 52.8797 64.1991C53.0483 63.9893 53.1659 63.7432 53.2231 63.4802H54.7602C54.7375 63.7024 54.7752 63.9265 54.8692 64.129C54.9632 64.3315 55.1101 64.5049 55.2944 64.631C55.4787 64.757 55.6936 64.8311 55.9164 64.8452C56.1392 64.8594 56.3618 64.8132 56.5606 64.7115C56.7593 64.6099 56.927 64.4565 57.046 64.2675C57.1649 64.0785 57.2306 63.861 57.2363 63.6378C57.242 63.4146 57.1873 63.1939 57.0782 62.9992C56.969 62.8044 56.8093 62.6427 56.6159 62.5311L56.6136 62.5319ZM56.3653 61.9916H56.0442L55.8681 61.8155V61.7427H56.365L56.3653 61.9916ZM55.1074 61.1226L56.3653 61.4657V61.495H55.8687C55.8029 61.4951 55.7398 61.5213 55.6932 61.5678C55.6467 61.6144 55.6205 61.6775 55.6204 61.7433V61.8161C55.6204 61.8488 55.6268 61.8812 55.6393 61.9114C55.6518 61.9416 55.6701 61.9691 55.6932 61.9922L55.8693 62.1683C55.8924 62.1914 55.9199 62.2097 55.9501 62.2222C55.9803 62.2347 56.0127 62.2411 56.0454 62.2411H56.3665V62.4225C56.0885 62.335 55.7886 62.3483 55.5194 62.46L55.2491 62.1897C55.2022 62.1433 55.139 62.1172 55.073 62.1169H54.877V61.9188C54.877 61.8528 54.8508 61.7895 54.8042 61.7427L54.6281 61.5666C54.594 61.5329 54.5509 61.5097 54.5039 61.4997V61.1226H55.1074ZM53.5615 60.7507H53.7585V61.5323L53.3068 61.004L53.5615 60.7507ZM54.0068 61.7439H54.452L54.6281 61.92V62.7374H54.0068V61.7439ZM54.2551 61.1232V61.4956H54.0068V61.1226L54.2551 61.1232ZM51.6485 59.3848H53.2246L53.5105 59.5753V59.634H51.6485V59.3848ZM52.021 59.8814H53.2108L53.7585 60.4279V60.5007H53.5615C53.4956 60.5009 53.4323 60.527 53.3854 60.5735L53.3235 60.6354L53.1888 60.5007L53.3493 60.3401L53.1732 60.164L52.6775 60.663L52.8536 60.8391L53.0142 60.6785L53.1489 60.8132L53.1319 60.8303C53.0878 60.8746 53.062 60.9339 53.0596 60.9964C53.0572 61.0588 53.0784 61.1199 53.1189 61.1675L53.6132 61.7442H53.2628V61.9925H53.7594V62.2408H53.028C53.0239 62.2335 53.0192 62.2264 53.0148 62.2191V61.628C53.0148 61.5667 52.9997 61.5063 52.9707 61.4522C52.9418 61.3981 52.9 61.3521 52.8489 61.3181L52.2772 60.9365C52.2163 60.896 52.1449 60.8743 52.0718 60.874H52.0227L52.021 59.8814ZM50.592 61.4049L51.0322 61.1408C51.0515 61.1293 51.0735 61.1232 51.0959 61.1232H52.0691C52.0937 61.1232 52.1177 61.1304 52.1381 61.144L52.7098 61.5256C52.7267 61.537 52.7406 61.5523 52.7502 61.5703C52.7599 61.5884 52.7649 61.6084 52.765 61.6289V61.8959C52.4781 61.6013 52.0958 61.4184 51.6865 61.3799C51.2771 61.3414 50.8674 61.4498 50.5306 61.6858V61.5126C50.5307 61.4909 50.5363 61.4696 50.5471 61.4507C50.5578 61.4318 50.5733 61.416 50.592 61.4049V61.4049ZM51.5241 64.5984C51.1796 64.5984 50.8457 64.4788 50.5795 64.2602C50.3132 64.0416 50.131 63.7374 50.0638 63.3995C49.9967 63.0616 50.0488 62.7108 50.2112 62.407C50.3737 62.1032 50.6365 61.8651 50.9548 61.7333C51.2731 61.6015 51.6273 61.5842 51.9569 61.6842C52.2866 61.7843 52.5714 61.9955 52.7628 62.282C52.9541 62.5685 53.0403 62.9125 53.0065 63.2553C52.9727 63.5982 52.8211 63.9187 52.5774 64.1623C52.4392 64.3007 52.275 64.4105 52.0942 64.4853C51.9135 64.5601 51.7197 64.5986 51.5241 64.5984V64.5984ZM53.2557 63.2331C53.2586 63.192 53.2619 63.1509 53.2619 63.109C53.2612 62.8966 53.2214 62.6862 53.1445 62.4882H53.7576V62.7365C53.7577 62.8023 53.7839 62.8655 53.8304 62.912C53.8769 62.9585 53.9401 62.9847 54.0059 62.9848H54.6266C54.6925 62.9847 54.7556 62.9585 54.8021 62.912C54.8487 62.8655 54.8748 62.8023 54.8749 62.7365V62.365H55.0719L55.2902 62.5833C55.0616 62.7405 54.892 62.9693 54.808 63.2337L53.2557 63.2331ZM55.9923 64.5984C55.7625 64.5984 55.5398 64.5187 55.3622 64.3729C55.1846 64.2272 55.063 64.0243 55.0182 63.7989C54.9734 63.5736 55.0081 63.3396 55.1165 63.137C55.2248 62.9344 55.4 62.7756 55.6123 62.6876C55.8246 62.5997 56.0608 62.5881 56.2807 62.6549C56.5006 62.7216 56.6905 62.8625 56.8182 63.0535C56.9458 63.2446 57.0033 63.474 56.9807 63.7027C56.9582 63.9313 56.8571 64.1451 56.6946 64.3076C56.6024 64.3998 56.4929 64.473 56.3724 64.5229C56.2519 64.5728 56.1227 64.5985 55.9923 64.5984V64.5984Z" fill="white"/>
<defs>
<filter id="filter0_d" x="44.7922" y="11.9083" width="15.7983" height="58.6362" filterUnits="userSpaceOnUse" color-interpolation-filters="sRGB">
<feFlood flood-opacity="0" result="BackgroundImageFix"/>
<feColorMatrix in="SourceAlpha" type="matrix" values="0 0 0 0 0 0 0 0 0 0 0 0 0 0 0 0 0 0 127 0" result="hardAlpha"/>
<feOffset dy="3.81678"/>
<feGaussianBlur stdDeviation="3.81678"/>
<feColorMatrix type="matrix" values="0 0 0 0 0 0 0 0 0 0 0 0 0 0 0 0 0 0 0.161 0"/>
<feBlend mode="normal" in2="BackgroundImageFix" result="effect1_dropShadow"/>
<feBlend mode="normal" in="SourceGraphic" in2="effect1_dropShadow" result="shape"/>
</filter>
<filter id="filter1_d" x="50.0266" y="29.7152" width="15.7983" height="43.518" filterUnits="userSpaceOnUse" color-interpolation-filters="sRGB">
<feFlood flood-opacity="0" result="BackgroundImageFix"/>
<feColorMatrix in="SourceAlpha" type="matrix" values="0 0 0 0 0 0 0 0 0 0 0 0 0 0 0 0 0 0 127 0" result="hardAlpha"/>
<feOffset dy="3.81678"/>
<feGaussianBlur stdDeviation="3.81678"/>
<feColorMatrix type="matrix" values="0 0 0 0 0 0 0 0 0 0 0 0 0 0 0 0 0 0 0.161 0"/>
<feBlend mode="normal" in2="BackgroundImageFix" result="effect1_dropShadow"/>
<feBlend mode="normal" in="SourceGraphic" in2="effect1_dropShadow" result="shape"/>
</filter>
<filter id="filter2_d" x="8.27172" y="14.4323" width="48.8106" height="66.5105" filterUnits="userSpaceOnUse" color-interpolation-filters="sRGB">
<feFlood flood-opacity="0" result="BackgroundImageFix"/>
<feColorMatrix in="SourceAlpha" type="matrix" values="0 0 0 0 0 0 0 0 0 0 0 0 0 0 0 0 0 0 127 0" result="hardAlpha"/>
<feOffset dy="3.81678"/>
<feGaussianBlur stdDeviation="3.81678"/>
<feColorMatrix type="matrix" values="0 0 0 0 0 0 0 0 0 0 0 0 0 0 0 0 0 0 0.161 0"/>
<feBlend mode="normal" in2="BackgroundImageFix" result="effect1_dropShadow"/>
<feBlend mode="normal" in="SourceGraphic" in2="effect1_dropShadow" result="shape"/>
</filter>
<filter id="filter3_d" x="49.012" y="17.0735" width="48.8309" height="65.7426" filterUnits="userSpaceOnUse" color-interpolation-filters="sRGB">
<feFlood flood-opacity="0" result="BackgroundImageFix"/>
<feColorMatrix in="SourceAlpha" type="matrix" values="0 0 0 0 0 0 0 0 0 0 0 0 0 0 0 0 0 0 127 0" result="hardAlpha"/>
<feOffset dy="3.81678"/>
<feGaussianBlur stdDeviation="3.81678"/>
<feColorMatrix type="matrix" values="0 0 0 0 0 0 0 0 0 0 0 0 0 0 0 0 0 0 0.161 0"/>
<feBlend mode="normal" in2="BackgroundImageFix" result="effect1_dropShadow"/>
<feBlend mode="normal" in="SourceGraphic" in2="effect1_dropShadow" result="shape"/>
</filter>
<filter id="filter4_d" x="51.4768" y="27.7696" width="31.5546" height="53.383" filterUnits="userSpaceOnUse" color-interpolation-filters="sRGB">
<feFlood flood-opacity="0" result="BackgroundImageFix"/>
<feColorMatrix in="SourceAlpha" type="matrix" values="0 0 0 0 0 0 0 0 0 0 0 0 0 0 0 0 0 0 127 0" result="hardAlpha"/>
<feOffset dy="3.81678"/>
<feGaussianBlur stdDeviation="3.81678"/>
<feColorMatrix type="matrix" values="0 0 0 0 0 0 0 0 0 0 0 0 0 0 0 0 0 0 0.161 0"/>
<feBlend mode="normal" in2="BackgroundImageFix" result="effect1_dropShadow"/>
<feBlend mode="normal" in="SourceGraphic" in2="effect1_dropShadow" result="shape"/>
</filter>
<filter id="filter5_d" x="24.6233" y="17.4257" width="31.4116" height="64.0996" filterUnits="userSpaceOnUse" color-interpolation-filters="sRGB">
<feFlood flood-opacity="0" result="BackgroundImageFix"/>
<feColorMatrix in="SourceAlpha" type="matrix" values="0 0 0 0 0 0 0 0 0 0 0 0 0 0 0 0 0 0 127 0" result="hardAlpha"/>
<feOffset dy="3.81678"/>
<feGaussianBlur stdDeviation="3.81678"/>
<feColorMatrix type="matrix" values="0 0 0 0 0 0 0 0 0 0 0 0 0 0 0 0 0 0 0.161 0"/>
<feBlend mode="normal" in2="BackgroundImageFix" result="effect1_dropShadow"/>
<feBlend mode="normal" in="SourceGraphic" in2="effect1_dropShadow" result="shape"/>
</filter>
<filter id="filter6_d" x="38.0373" y="52.4235" width="31.0272" height="31.0268" filterUnits="userSpaceOnUse" color-interpolation-filters="sRGB">
<feFlood flood-opacity="0" result="BackgroundImageFix"/>
<feColorMatrix in="SourceAlpha" type="matrix" values="0 0 0 0 0 0 0 0 0 0 0 0 0 0 0 0 0 0 127 0" result="hardAlpha"/>
<feOffset dy="3.81678"/>
<feGaussianBlur stdDeviation="3.81678"/>
<feColorMatrix type="matrix" values="0 0 0 0 0 0 0 0 0 0 0 0 0 0 0 0 0 0 0.161 0"/>
<feBlend mode="normal" in2="BackgroundImageFix" result="effect1_dropShadow"/>
<feBlend mode="normal" in="SourceGraphic" in2="effect1_dropShadow" result="shape"/>
</filter>
<filter id="filter7_d" x="0.366447" y="0.183223" width="31.6229" height="31.6236" filterUnits="userSpaceOnUse" color-interpolation-filters="sRGB">
<feFlood flood-opacity="0" result="BackgroundImageFix"/>
<feColorMatrix in="SourceAlpha" type="matrix" values="0 0 0 0 0 0 0 0 0 0 0 0 0 0 0 0 0 0 127 0" result="hardAlpha"/>
<feOffset dy="3.81678"/>
<feGaussianBlur stdDeviation="3.81678"/>
<feColorMatrix type="matrix" values="0 0 0 0 0 0 0 0 0 0 0 0 0 0 0 0 0 0 0.161 0"/>
<feBlend mode="normal" in2="BackgroundImageFix" result="effect1_dropShadow"/>
<feBlend mode="normal" in="SourceGraphic" in2="effect1_dropShadow" result="shape"/>
</filter>
<filter id="filter8_d" x="74.3821" y="6.71466" width="31.6703" height="31.6743" filterUnits="userSpaceOnUse" color-interpolation-filters="sRGB">
<feFlood flood-opacity="0" result="BackgroundImageFix"/>
<feColorMatrix in="SourceAlpha" type="matrix" values="0 0 0 0 0 0 0 0 0 0 0 0 0 0 0 0 0 0 127 0" result="hardAlpha"/>
<feOffset dy="3.81678"/>
<feGaussianBlur stdDeviation="3.81678"/>
<feColorMatrix type="matrix" values="0 0 0 0 0 0 0 0 0 0 0 0 0 0 0 0 0 0 0.161 0"/>
<feBlend mode="normal" in2="BackgroundImageFix" result="effect1_dropShadow"/>
<feBlend mode="normal" in="SourceGraphic" in2="effect1_dropShadow" result="shape"/>
</filter>
<filter id="filter9_d" x="61.0627" y="20.0927" width="28.0256" height="28.0274" filterUnits="userSpaceOnUse" color-interpolation-filters="sRGB">
<feFlood flood-opacity="0" result="BackgroundImageFix"/>
<feColorMatrix in="SourceAlpha" type="matrix" values="0 0 0 0 0 0 0 0 0 0 0 0 0 0 0 0 0 0 127 0" result="hardAlpha"/>
<feOffset dy="3.81678"/>
<feGaussianBlur stdDeviation="3.81678"/>
<feColorMatrix type="matrix" values="0 0 0 0 0 0 0 0 0 0 0 0 0 0 0 0 0 0 0.161 0"/>
<feBlend mode="normal" in2="BackgroundImageFix" result="effect1_dropShadow"/>
<feBlend mode="normal" in="SourceGraphic" in2="effect1_dropShadow" result="shape"/>
</filter>
<filter id="filter10_d" x="46.4797" y="23.6944" width="23.4257" height="23.4256" filterUnits="userSpaceOnUse" color-interpolation-filters="sRGB">
<feFlood flood-opacity="0" result="BackgroundImageFix"/>
<feColorMatrix in="SourceAlpha" type="matrix" values="0 0 0 0 0 0 0 0 0 0 0 0 0 0 0 0 0 0 127 0" result="hardAlpha"/>
<feOffset dy="3.81678"/>
<feGaussianBlur stdDeviation="3.81678"/>
<feColorMatrix type="matrix" values="0 0 0 0 0 0 0 0 0 0 0 0 0 0 0 0 0 0 0.161 0"/>
<feBlend mode="normal" in2="BackgroundImageFix" result="effect1_dropShadow"/>
<feBlend mode="normal" in="SourceGraphic" in2="effect1_dropShadow" result="shape"/>
</filter>
<filter id="filter11_d" x="20.0159" y="12.0424" width="25.3387" height="25.3375" filterUnits="userSpaceOnUse" color-interpolation-filters="sRGB">
<feFlood flood-opacity="0" result="BackgroundImageFix"/>
<feColorMatrix in="SourceAlpha" type="matrix" values="0 0 0 0 0 0 0 0 0 0 0 0 0 0 0 0 0 0 127 0" result="hardAlpha"/>
<feOffset dy="3.81678"/>
<feGaussianBlur stdDeviation="3.81678"/>
<feColorMatrix type="matrix" values="0 0 0 0 0 0 0 0 0 0 0 0 0 0 0 0 0 0 0.161 0"/>
<feBlend mode="normal" in2="BackgroundImageFix" result="effect1_dropShadow"/>
<feBlend mode="normal" in="SourceGraphic" in2="effect1_dropShadow" result="shape"/>
</filter>
<filter id="filter12_d" x="38.5618" y="4.41748" width="27.7289" height="27.73" filterUnits="userSpaceOnUse" color-interpolation-filters="sRGB">
<feFlood flood-opacity="0" result="BackgroundImageFix"/>
<feColorMatrix in="SourceAlpha" type="matrix" values="0 0 0 0 0 0 0 0 0 0 0 0 0 0 0 0 0 0 127 0" result="hardAlpha"/>
<feOffset dy="3.81678"/>
<feGaussianBlur stdDeviation="3.81678"/>
<feColorMatrix type="matrix" values="0 0 0 0 0 0 0 0 0 0 0 0 0 0 0 0 0 0 0.161 0"/>
<feBlend mode="normal" in2="BackgroundImageFix" result="effect1_dropShadow"/>
<feBlend mode="normal" in="SourceGraphic" in2="effect1_dropShadow" result="shape"/>
</filter>
</defs>
</svg>
